<?xml version="1.0" encoding="UTF-8" standalone="no"?>
<!DOCTYPE svg PUBLIC "-//W3C//DTD SVG 1.1//EN" "http://www.w3.org/Graphics/SVG/1.1/DTD/svg11.dtd">
<svg viewBox="0 0 192 192" height="192.0pt" width="192.0pt" xmlns="http://www.w3.org/2000/svg" version="1.1">
<path d="M 40.46 15.40 C 44.69 16.19 49.22 17.33 52.90 19.65 C 52.33 21.52 51.97 23.46 51.31 25.29 C 47.64 28.81 41.84 29.76 38.34 33.31 C 35.28 36.59 35.87 40.08 34.69 44.17 C 38.21 43.75 41.49 43.47 44.49 41.42 C 49.09 38.41 53.23 34.76 57.86 31.79 C 61.56 29.42 64.91 26.51 68.69 24.28 C 72.12 24.53 75.50 24.11 78.92 24.08 C 81.47 24.40 83.81 26.57 86.14 27.63 C 88.79 26.69 91.33 24.65 94.10 24.15 C 97.49 24.15 100.87 24.47 104.27 24.30 C 111.23 28.67 117.91 33.56 124.51 38.44 C 128.39 41.10 132.40 43.75 137.25 43.92 C 137.93 40.51 138.26 37.02 135.70 34.27 C 131.94 29.73 125.35 29.06 121.53 25.34 C 120.33 24.05 121.33 22.67 121.56 21.17 C 123.39 23.00 125.21 25.22 127.40 26.58 C 129.81 28.05 132.62 29.31 134.79 31.21 C 136.82 33.10 138.40 35.73 140.08 37.94 C 141.72 33.50 139.01 29.99 135.95 27.07 C 131.37 23.29 126.01 21.38 120.43 19.70 L 120.31 19.15 C 126.46 16.41 134.04 13.41 140.66 16.24 C 148.98 18.93 154.00 27.30 158.07 34.52 C 161.10 38.97 160.69 44.84 160.20 49.96 C 159.51 55.40 156.50 59.18 153.76 63.68 C 152.55 65.29 154.30 66.85 154.99 68.27 C 154.19 70.10 153.42 71.89 152.43 73.64 C 151.29 70.83 149.94 67.97 149.32 65.00 C 150.94 61.76 153.88 59.50 155.12 55.97 C 152.40 57.18 150.15 58.99 147.68 60.61 C 145.73 61.91 143.10 62.37 140.84 62.91 C 134.29 62.23 127.93 62.22 121.68 59.76 C 119.87 59.14 118.04 58.60 116.21 58.05 C 112.67 55.53 109.01 52.34 105.00 50.66 C 100.47 48.81 95.82 48.89 91.15 47.85 C 88.65 47.38 86.77 46.16 84.24 47.15 C 78.87 48.98 73.30 48.51 68.01 50.72 C 63.94 52.48 60.37 55.58 56.66 58.01 C 55.10 58.66 53.51 59.29 51.93 59.91 C 45.47 62.01 38.89 62.24 32.20 62.97 C 27.79 62.32 24.55 60.80 20.91 58.38 C 20.64 58.87 20.40 59.36 20.19 59.87 C 21.30 61.66 22.75 63.26 23.82 65.05 C 23.34 67.29 21.92 69.45 20.88 71.48 C 20.71 69.26 20.60 66.95 20.01 64.81 C 19.16 62.85 17.74 61.12 16.60 59.33 C 13.27 54.50 11.83 48.36 12.24 42.54 C 12.61 39.66 12.63 36.78 14.71 34.54 C 17.83 31.16 19.17 26.77 22.35 23.41 C 26.54 18.15 33.68 14.56 40.46 15.40 Z" fill="#e8e8e8" />
<path d="M 120.43 19.70 C 126.01 21.38 131.37 23.29 135.95 27.07 C 139.01 29.99 141.72 33.50 140.08 37.94 C 138.40 35.73 136.82 33.10 134.79 31.21 C 132.62 29.31 129.81 28.05 127.40 26.58 C 125.21 25.22 123.39 23.00 121.56 21.17 C 121.17 20.69 120.80 20.20 120.43 19.70 Z" fill="#d1d1d1" />
<path d="M 48.93 21.22 C 48.70 22.55 48.81 23.72 47.64 24.64 C 44.51 27.26 40.65 28.71 37.63 31.63 C 34.93 33.93 33.72 37.82 32.10 40.95 C 32.13 36.43 32.65 32.23 35.65 28.64 C 39.04 24.83 43.91 22.11 48.93 21.22 Z" fill="#d0d0d0" />
<path d="M 85.20 23.64 C 92.05 24.20 98.04 19.92 104.27 24.30 C 100.87 24.47 97.49 24.15 94.10 24.15 C 91.33 24.65 88.79 26.69 86.14 27.63 C 83.81 26.57 81.47 24.40 78.92 24.08 C 75.50 24.11 72.12 24.53 68.69 24.28 C 74.05 20.42 79.28 23.32 85.20 23.64 Z" fill="#d6d6d6" />
<path d="M 91.15 47.85 C 95.82 48.89 100.47 48.81 105.00 50.66 C 99.06 51.16 95.67 58.45 98.39 63.53 C 100.65 68.29 106.65 70.01 111.07 67.11 C 114.77 65.10 115.23 61.75 116.21 58.05 C 118.04 58.60 119.87 59.14 121.68 59.76 C 120.76 62.91 121.58 65.65 121.53 68.81 C 121.37 71.78 120.24 74.75 120.16 77.73 C 123.11 80.98 128.26 82.46 132.38 83.59 C 137.37 84.74 142.71 86.30 147.86 86.06 C 147.13 78.16 144.69 69.87 140.84 62.91 C 143.10 62.37 145.73 61.91 147.68 60.61 C 150.15 58.99 152.40 57.18 155.12 55.97 C 153.88 59.50 150.94 61.76 149.32 65.00 C 149.94 67.97 151.29 70.83 152.43 73.64 C 153.42 71.89 154.19 70.10 154.99 68.27 C 158.09 64.93 161.55 61.85 165.36 59.35 C 166.37 58.77 167.59 57.95 168.78 58.00 C 171.82 61.06 173.84 65.24 176.06 68.91 C 178.51 72.97 179.64 77.70 178.15 82.31 C 176.45 86.42 172.73 89.69 170.50 93.58 C 168.77 96.61 167.21 99.99 166.65 103.46 C 166.63 105.91 168.41 108.48 169.42 110.66 C 171.31 122.79 170.44 134.79 170.60 147.00 C 170.43 152.63 171.20 158.58 170.22 164.09 C 170.34 161.78 170.34 159.52 169.94 157.23 C 159.50 156.56 148.86 157.68 138.45 156.76 C 138.13 155.21 137.93 153.63 137.62 152.08 C 134.71 151.19 132.48 151.42 129.78 152.78 C 125.66 149.37 121.01 149.71 115.96 149.88 C 113.52 150.00 111.72 151.30 109.46 152.10 C 108.95 151.45 108.46 150.79 107.98 150.11 C 108.01 152.41 108.02 154.70 107.96 157.00 C 97.39 156.98 86.77 157.33 76.22 156.91 C 75.98 153.85 75.96 150.67 75.28 147.68 C 73.05 146.27 70.52 144.88 67.86 146.02 C 65.08 146.70 64.11 144.38 62.57 142.57 C 59.11 137.51 55.67 132.27 55.25 125.99 C 54.96 120.52 55.53 115.11 54.73 109.66 C 55.42 105.43 56.32 101.28 57.95 97.30 C 58.92 95.05 60.15 93.36 59.28 90.81 C 58.48 88.53 57.92 85.43 55.25 84.65 C 51.79 83.15 49.11 84.57 45.93 85.89 C 40.17 88.50 34.24 89.80 28.10 91.18 C 24.54 91.99 20.51 91.82 17.17 90.26 C 16.87 89.17 16.64 88.06 16.47 86.94 C 17.77 81.75 19.35 76.61 20.88 71.48 C 21.92 69.45 23.34 67.29 23.82 65.05 C 22.75 63.26 21.30 61.66 20.19 59.87 C 20.40 59.36 20.64 58.87 20.91 58.38 C 24.55 60.80 27.79 62.32 32.20 62.97 C 28.45 70.13 26.12 78.06 25.19 86.07 C 30.31 86.25 35.64 84.75 40.60 83.58 C 44.72 82.44 49.91 81.01 52.89 77.77 C 52.61 74.84 51.36 71.89 51.16 68.95 C 51.08 65.95 51.57 62.88 51.93 59.91 C 53.51 59.29 55.10 58.66 56.66 58.01 C 57.53 61.82 58.07 65.19 61.87 67.15 C 66.29 69.95 72.35 68.30 74.65 63.60 C 77.56 58.47 73.91 51.24 68.01 50.72 C 73.30 48.51 78.87 48.98 84.24 47.15 C 86.77 46.16 88.65 47.38 91.15 47.85 Z" fill="#cccccc" />
<path d="M 68.01 50.72 C 73.91 51.24 77.56 58.47 74.65 63.60 C 72.35 68.30 66.29 69.95 61.87 67.15 C 58.07 65.19 57.53 61.82 56.66 58.01 C 60.37 55.58 63.94 52.48 68.01 50.72 Z" fill="#959595" />
<path d="M 105.00 50.66 C 109.01 52.34 112.67 55.53 116.21 58.05 C 115.23 61.75 114.77 65.10 111.07 67.11 C 106.65 70.01 100.65 68.29 98.39 63.53 C 95.67 58.45 99.06 51.16 105.00 50.66 Z" fill="#929292" />
<path d="M 51.93 59.91 C 51.57 62.88 51.08 65.95 51.16 68.95 C 51.36 71.89 52.61 74.84 52.89 77.77 C 49.91 81.01 44.72 82.44 40.60 83.58 C 35.64 84.75 30.31 86.25 25.19 86.07 C 26.12 78.06 28.45 70.13 32.20 62.97 C 38.89 62.24 45.47 62.01 51.93 59.91 Z" fill="#959595" />
<path d="M 121.68 59.76 C 127.93 62.22 134.29 62.23 140.84 62.91 C 144.69 69.87 147.13 78.16 147.86 86.06 C 142.71 86.30 137.37 84.74 132.38 83.59 C 128.26 82.46 123.11 80.98 120.16 77.73 C 120.24 74.75 121.37 71.78 121.53 68.81 C 121.58 65.65 120.76 62.91 121.68 59.76 Z" fill="#8f8f8f" />
<path d="M 93.58 63.40 C 100.87 66.39 104.30 72.49 108.01 79.00 C 110.99 84.39 112.14 90.61 110.62 96.64 C 109.99 99.06 107.99 101.23 106.56 103.25 C 104.57 99.97 102.49 99.21 98.97 98.16 C 102.22 93.57 104.75 86.70 102.95 81.14 C 101.79 78.08 97.41 74.33 94.33 77.31 C 90.37 80.33 88.59 86.31 88.04 91.06 C 87.71 95.31 90.20 97.76 93.23 100.23 C 89.34 101.51 83.00 102.98 79.78 99.61 C 81.52 97.92 83.65 96.51 84.03 93.95 C 84.71 90.12 84.09 85.98 82.62 82.41 C 81.38 79.49 79.14 76.76 75.92 76.03 C 72.13 76.16 69.63 79.69 69.19 83.21 C 68.75 89.11 71.27 94.56 75.09 98.93 C 73.29 99.07 71.31 99.02 69.60 99.63 C 68.18 100.58 66.98 101.96 65.79 103.19 C 63.22 99.45 61.12 95.79 61.24 91.08 C 61.53 83.34 65.87 76.39 70.32 70.31 C 75.59 63.20 85.21 59.61 93.58 63.40 Z" fill="#e8e8e8" />
<path d="M 75.92 76.03 C 79.14 76.76 81.38 79.49 82.62 82.41 C 84.09 85.98 84.71 90.12 84.03 93.95 C 83.65 96.51 81.52 97.92 79.78 99.61 C 78.22 99.33 76.65 99.14 75.09 98.93 C 71.27 94.56 68.75 89.11 69.19 83.21 C 69.63 79.69 72.13 76.16 75.92 76.03 Z" fill="#939393" />
<path d="M 102.95 81.14 C 104.75 86.70 102.22 93.57 98.97 98.16 C 97.07 98.90 95.18 99.63 93.23 100.23 C 90.20 97.76 87.71 95.31 88.04 91.06 C 88.59 86.31 90.37 80.33 94.33 77.31 C 97.41 74.33 101.79 78.08 102.95 81.14 Z" fill="#919191" />
<path d="M 55.25 84.65 C 57.92 85.43 58.48 88.53 59.28 90.81 C 60.15 93.36 58.92 95.05 57.95 97.30 C 56.81 93.67 56.63 88.20 52.70 86.48 C 48.77 87.07 45.02 89.23 41.22 90.42 C 35.34 92.32 29.18 94.03 23.00 94.44 C 20.57 94.42 18.00 94.67 16.56 92.29 C 15.45 90.68 16.19 88.70 16.47 86.94 C 16.64 88.06 16.87 89.17 17.17 90.26 C 20.51 91.82 24.54 91.99 28.10 91.18 C 34.24 89.80 40.17 88.50 45.93 85.89 C 49.11 84.57 51.79 83.15 55.25 84.65 Z" fill="#e1e1e1" />
<path d="M 119.27 84.33 C 125.12 83.50 129.07 88.29 134.14 90.06 C 137.05 90.63 140.15 90.19 143.11 90.42 C 140.50 91.15 137.80 90.63 135.00 90.60 C 128.12 90.30 122.10 91.67 115.39 90.81 C 115.86 88.71 116.56 84.52 119.27 84.33 Z" fill="#e9e9e9" />
<path d="M 98.97 98.16 C 102.49 99.21 104.57 99.97 106.56 103.25 C 105.31 106.16 104.70 109.05 102.03 111.04 C 93.47 117.71 80.30 117.95 71.58 111.43 C 68.69 109.31 67.47 106.22 65.79 103.19 C 66.98 101.96 68.18 100.58 69.60 99.63 C 71.31 99.02 73.29 99.07 75.09 98.93 C 76.65 99.14 78.22 99.33 79.78 99.61 C 83.00 102.98 89.34 101.51 93.23 100.23 C 95.18 99.63 97.07 98.90 98.97 98.16 Z" fill="#d8d8d8" />
<path d="M 54.73 109.66 C 55.53 115.11 54.96 120.52 55.25 125.99 C 55.67 132.27 59.11 137.51 62.57 142.57 C 64.11 144.38 65.08 146.70 67.86 146.02 C 67.86 147.91 67.87 149.80 67.84 151.69 C 67.28 156.60 68.67 161.52 71.35 165.63 C 72.96 168.03 75.75 169.42 78.12 170.98 C 80.77 172.59 83.24 174.73 86.05 176.01 C 94.03 179.54 104.59 174.39 107.12 166.11 C 108.14 163.07 107.99 160.15 107.96 157.00 C 108.02 154.70 108.01 152.41 107.98 150.11 C 108.46 150.79 108.95 151.45 109.46 152.10 C 111.72 151.30 113.52 150.00 115.96 149.88 C 121.01 149.71 125.66 149.37 129.78 152.78 C 130.69 159.02 131.60 164.95 137.26 168.72 C 143.10 172.28 148.54 177.98 155.93 177.09 C 163.24 176.24 168.23 170.94 170.22 164.09 C 171.20 158.58 170.43 152.63 170.60 147.00 C 170.44 134.79 171.31 122.79 169.42 110.66 C 172.73 115.74 172.68 121.13 172.92 126.97 C 172.97 136.31 172.87 145.65 172.95 155.00 C 172.92 159.93 173.05 165.45 171.09 170.07 C 169.51 173.78 166.84 177.32 163.27 179.31 C 159.55 181.42 155.21 181.78 151.04 181.18 C 147.48 180.63 144.43 178.52 141.48 176.60 C 137.50 173.91 133.48 171.23 130.91 167.06 C 128.63 163.44 128.73 158.51 127.15 154.85 C 126.29 153.05 123.77 153.05 122.06 152.84 C 118.81 152.75 114.79 152.44 111.79 153.84 C 110.01 156.59 110.54 160.84 110.13 163.99 C 109.50 173.31 101.71 181.86 92.00 181.45 C 85.33 181.74 80.22 177.57 74.94 174.08 C 70.88 171.32 68.27 167.87 66.70 163.21 C 65.25 159.15 66.29 154.59 65.29 150.65 C 63.32 146.02 58.54 143.17 56.41 138.45 C 52.17 130.66 52.29 122.56 52.87 113.95 C 53.02 112.35 53.97 111.02 54.73 109.66 Z" fill="#dadada" />
<path d="M 75.28 147.68 C 75.96 150.67 75.98 153.85 76.22 156.91 C 75.22 155.71 75.25 153.70 74.78 152.24 C 72.52 151.81 70.14 151.80 67.84 151.69 C 67.87 149.80 67.86 147.91 67.86 146.02 C 70.52 144.88 73.05 146.27 75.28 147.68 Z" fill="#bdbdbd" />
<path d="M 67.84 151.69 C 70.14 151.80 72.52 151.81 74.78 152.24 C 75.25 153.70 75.22 155.71 76.22 156.91 C 86.77 157.33 97.39 156.98 107.96 157.00 C 107.99 160.15 108.14 163.07 107.12 166.11 C 104.59 174.39 94.03 179.54 86.05 176.01 C 83.24 174.73 80.77 172.59 78.12 170.98 C 75.75 169.42 72.96 168.03 71.35 165.63 C 68.67 161.52 67.28 156.60 67.84 151.69 Z" fill="#8c8c8c" />
<path d="M 137.62 152.08 C 137.93 153.63 138.13 155.21 138.45 156.76 C 148.86 157.68 159.50 156.56 169.94 157.23 C 170.34 159.52 170.34 161.78 170.22 164.09 C 168.23 170.94 163.24 176.24 155.93 177.09 C 148.54 177.98 143.10 172.28 137.26 168.72 C 131.60 164.95 130.69 159.02 129.78 152.78 C 132.48 151.42 134.71 151.19 137.62 152.08 Z" fill="#8b8b8b" /></svg>