<?xml version="1.0" encoding="UTF-8" standalone="no"?>
<!DOCTYPE svg PUBLIC "-//W3C//DTD SVG 1.1//EN" "http://www.w3.org/Graphics/SVG/1.1/DTD/svg11.dtd">
<svg viewBox="0 0 192 192" height="192.0pt" width="192.0pt" xmlns="http://www.w3.org/2000/svg" version="1.1">
<path d="M 79.14 33.33 C 82.52 32.88 86.49 32.92 89.58 34.55 C 90.02 37.93 90.84 41.21 91.71 44.49 C 94.84 43.76 97.88 43.39 101.09 43.29 C 101.66 40.48 102.19 37.64 102.89 34.86 C 104.52 32.45 109.47 33.19 112.00 33.17 C 114.71 33.15 116.06 34.85 117.82 36.61 C 116.87 39.28 116.53 42.25 114.20 44.10 C 112.42 46.17 109.89 46.92 110.14 50.01 C 110.31 57.28 111.34 64.58 113.64 71.50 C 115.02 69.39 116.36 67.19 117.95 65.24 L 118.97 64.06 C 119.11 64.96 119.26 65.87 119.40 66.77 C 119.36 68.80 119.25 70.83 119.21 72.85 C 114.36 76.84 110.01 81.34 105.81 86.00 C 102.14 81.63 97.71 79.54 92.09 78.85 C 89.70 82.18 87.10 85.31 84.50 88.47 C 80.41 93.60 78.17 99.63 76.83 105.99 C 80.01 102.01 82.78 97.76 85.75 93.63 C 85.88 96.33 85.98 99.04 86.04 101.74 C 88.72 97.07 92.33 93.95 96.83 91.12 C 97.17 92.79 97.51 94.44 97.78 96.12 C 97.91 97.69 98.01 99.26 98.15 100.84 C 98.26 102.45 98.32 104.06 98.40 105.67 C 94.86 106.47 91.37 107.52 87.81 108.20 C 84.97 108.19 82.10 107.87 79.28 107.58 C 78.89 108.62 78.52 109.65 78.09 110.68 L 77.75 109.93 C 70.39 110.92 63.13 109.70 55.78 110.62 C 56.29 112.69 56.85 114.73 57.43 116.78 C 57.95 118.66 58.47 120.53 59.00 122.40 C 52.31 118.89 47.63 113.81 43.05 107.94 C 30.45 94.78 20.97 78.80 15.41 61.45 C 14.24 58.09 14.61 55.24 15.81 51.97 C 17.76 50.56 19.85 49.39 22.17 50.78 C 24.60 52.39 25.91 55.80 26.96 58.40 C 29.99 67.16 33.68 75.59 38.44 83.55 C 42.34 89.91 45.94 95.90 51.97 100.51 C 50.54 96.91 48.76 93.49 46.93 90.09 C 41.23 79.47 37.94 67.75 35.66 55.98 C 36.39 54.17 36.95 51.58 38.52 50.33 C 40.63 49.06 44.15 49.21 45.63 51.42 C 47.17 53.61 47.61 56.75 48.16 59.33 C 50.02 69.38 53.18 79.17 57.57 88.40 C 59.08 91.56 60.99 94.48 63.07 97.29 C 62.02 90.80 59.94 84.57 58.92 78.08 C 58.02 72.61 57.75 67.07 56.79 61.60 C 57.96 59.19 59.17 55.99 61.43 54.38 C 63.95 53.52 66.63 57.32 68.11 58.92 C 68.42 61.22 68.73 63.51 69.07 65.80 C 69.52 71.55 69.91 77.14 72.20 82.53 C 72.71 79.32 73.12 76.09 73.52 72.86 C 73.90 73.47 74.28 74.08 74.66 74.69 C 75.14 71.76 75.66 68.84 76.21 65.93 C 77.05 68.27 77.87 70.62 78.70 72.96 C 81.25 64.38 82.81 55.94 81.64 46.96 C 80.01 45.85 78.07 44.77 76.81 43.22 C 75.61 41.32 75.06 38.94 74.29 36.83 C 75.63 35.50 77.14 33.54 79.14 33.33 Z" fill="#939393" />
<path d="M 89.58 34.55 C 91.79 37.19 93.63 40.48 96.71 42.18 C 98.96 40.00 100.85 37.28 102.89 34.86 C 102.19 37.64 101.66 40.48 101.09 43.29 C 97.88 43.39 94.84 43.76 91.71 44.49 C 90.84 41.21 90.02 37.93 89.58 34.55 Z" fill="#e6e6e6" />
<path d="M 74.29 36.83 C 75.06 38.94 75.61 41.32 76.81 43.22 C 78.07 44.77 80.01 45.85 81.64 46.96 C 82.81 55.94 81.25 64.38 78.70 72.96 C 77.87 70.62 77.05 68.27 76.21 65.93 C 75.66 68.84 75.14 71.76 74.66 74.69 C 74.28 74.08 73.90 73.47 73.52 72.86 C 72.04 70.50 70.47 68.19 69.07 65.80 C 68.73 63.51 68.42 61.22 68.11 58.92 C 70.28 61.76 72.17 64.94 74.07 67.98 C 76.97 65.00 79.59 62.58 79.34 58.02 C 79.59 52.19 75.84 49.17 73.66 44.30 C 72.55 42.01 73.50 39.10 74.29 36.83 Z" fill="#e1e1e1" />
<path d="M 117.82 36.61 C 118.48 38.53 119.35 40.80 119.07 42.85 C 118.20 45.83 115.90 48.55 114.45 51.31 C 112.50 54.59 113.03 59.26 114.23 62.71 C 114.67 64.35 116.60 64.64 117.95 65.24 C 116.36 67.19 115.02 69.39 113.64 71.50 C 111.34 64.58 110.31 57.28 110.14 50.01 C 109.89 46.92 112.42 46.17 114.20 44.10 C 116.53 42.25 116.87 39.28 117.82 36.61 Z" fill="#e0e0e0" />
<path d="M 174.48 45.41 C 176.40 49.19 178.52 52.95 179.97 56.94 C 181.21 60.27 179.99 63.78 178.95 66.99 C 174.43 79.65 168.27 92.34 159.86 102.90 C 155.17 108.44 150.23 113.99 145.27 119.28 C 142.49 122.04 138.37 125.91 134.19 125.71 C 130.30 125.80 130.43 119.23 129.60 116.65 C 126.91 116.50 123.72 116.06 121.15 116.97 C 118.82 117.72 118.08 120.83 118.22 122.99 C 118.61 126.52 121.15 130.01 122.82 133.09 C 126.85 139.85 128.49 147.98 127.58 155.78 C 127.21 158.44 126.11 162.19 123.50 163.48 C 119.65 164.97 114.67 163.60 111.10 161.84 C 104.74 158.70 100.78 153.50 96.05 148.45 C 91.03 153.23 86.35 159.11 80.05 162.06 C 76.87 163.57 72.74 164.73 69.26 163.78 C 66.08 162.86 64.95 159.58 64.52 156.62 C 63.88 151.13 64.74 145.40 66.23 140.10 C 67.62 135.11 70.69 131.36 72.83 126.78 C 74.21 123.91 74.05 120.42 72.26 117.77 C 69.82 116.09 65.54 115.55 62.76 116.56 C 61.15 119.21 60.41 122.35 58.81 124.99 C 56.67 126.55 53.34 124.78 51.46 123.52 C 46.19 119.79 42.16 113.95 37.80 109.20 C 27.26 97.62 19.15 83.85 13.87 69.13 C 12.68 65.71 11.62 61.72 12.10 58.09 C 12.45 55.56 14.11 53.74 15.81 51.97 C 14.61 55.24 14.24 58.09 15.41 61.45 C 20.97 78.80 30.45 94.78 43.05 107.94 C 47.63 113.81 52.31 118.89 59.00 122.40 C 58.47 120.53 57.95 118.66 57.43 116.78 C 58.75 115.44 60.23 113.33 62.17 112.98 C 67.15 111.92 71.56 113.42 75.97 115.59 C 76.60 118.33 77.27 121.05 77.93 123.78 C 74.76 127.64 71.74 131.16 69.97 135.92 C 67.26 143.58 66.99 151.51 68.00 159.51 C 71.31 160.70 74.60 161.29 77.94 159.77 C 85.54 156.67 90.31 148.90 96.04 143.19 C 101.38 148.97 104.77 155.27 112.02 158.90 C 115.46 160.82 118.94 160.59 122.72 160.40 C 125.67 152.09 125.01 143.33 121.79 135.20 C 120.16 131.26 117.42 128.36 115.24 124.81 C 114.08 123.16 114.63 120.77 114.75 118.88 C 115.73 117.31 116.87 115.41 118.47 114.41 C 123.78 111.99 129.65 112.00 134.41 115.67 C 133.53 117.90 132.69 120.13 131.88 122.38 C 136.76 119.92 141.30 117.11 144.78 112.80 C 149.24 107.22 154.48 102.46 158.69 96.67 C 167.14 85.25 173.42 72.02 177.43 58.42 C 178.86 54.33 175.38 52.40 173.16 49.59 C 172.01 50.00 170.87 50.41 169.73 50.81 C 171.20 48.92 172.78 47.11 174.48 45.41 Z" fill="#e4e4e4" />
<path d="M 153.50 49.28 C 156.40 51.13 156.58 54.05 156.72 57.19 C 154.32 68.19 151.62 79.33 146.36 89.38 C 144.36 93.18 142.32 96.94 140.77 100.95 C 143.41 98.51 145.86 95.88 147.98 92.97 C 155.38 82.81 161.25 71.61 165.05 59.62 C 166.19 56.46 167.69 53.49 169.73 50.81 C 170.87 50.41 172.01 50.00 173.16 49.59 C 175.38 52.40 178.86 54.33 177.43 58.42 C 173.42 72.02 167.14 85.25 158.69 96.67 C 154.48 102.46 149.24 107.22 144.78 112.80 C 141.30 117.11 136.76 119.92 131.88 122.38 C 132.69 120.13 133.53 117.90 134.41 115.67 C 135.04 114.04 135.66 112.41 136.27 110.77 C 129.28 109.62 122.60 110.51 115.59 110.65 C 115.24 113.39 115.06 116.14 114.75 118.88 C 114.63 120.77 114.08 123.16 115.24 124.81 C 117.42 128.36 120.16 131.26 121.79 135.20 C 125.01 143.33 125.67 152.09 122.72 160.40 C 115.50 157.47 108.78 155.64 103.47 149.49 C 99.87 145.79 99.01 140.53 95.49 136.91 C 92.71 141.64 91.40 146.38 87.38 150.38 C 82.15 155.76 75.37 158.54 68.00 159.51 C 66.99 151.51 67.26 143.58 69.97 135.92 C 71.74 131.16 74.76 127.64 77.93 123.78 C 77.27 121.05 76.60 118.33 75.97 115.59 C 76.71 113.97 77.42 112.33 78.09 110.68 C 78.52 109.65 78.89 108.62 79.28 107.58 C 82.10 107.87 84.97 108.19 87.81 108.20 C 85.79 112.05 83.69 115.36 84.56 119.90 L 85.01 121.83 C 80.08 126.36 75.79 131.17 73.57 137.61 C 71.56 143.16 71.94 148.50 72.09 154.29 C 82.06 149.02 91.78 139.79 92.49 127.87 C 94.87 127.66 97.16 127.65 99.54 127.84 C 100.80 139.21 109.59 148.48 119.12 154.00 C 119.75 150.12 120.55 146.14 119.82 142.22 C 118.19 134.12 113.48 127.39 107.28 122.08 C 107.19 121.03 107.10 119.98 107.00 118.94 C 108.77 118.43 110.54 117.91 112.31 117.37 C 109.54 114.77 106.79 112.44 105.03 109.00 C 104.11 105.31 102.84 101.73 100.99 98.40 C 103.13 97.27 105.26 96.11 107.37 94.93 C 109.55 98.67 111.72 102.41 114.14 106.00 C 112.98 98.56 110.20 92.09 105.81 86.00 C 110.01 81.34 114.36 76.84 119.21 72.85 C 119.21 75.31 119.32 77.77 119.46 80.22 C 120.84 78.01 122.49 75.61 123.03 73.03 C 123.64 70.04 123.47 66.74 123.57 63.70 C 124.35 61.17 125.08 57.88 127.03 55.99 C 128.21 55.00 129.80 53.81 131.37 54.66 C 133.64 55.67 134.48 58.17 135.28 60.32 C 135.25 66.41 134.53 72.51 133.52 78.51 C 132.41 85.19 130.30 91.61 129.04 98.26 C 134.47 91.05 137.60 83.02 140.61 74.58 C 142.54 69.14 143.64 63.53 144.78 57.89 C 145.50 55.40 146.09 51.90 148.16 50.16 C 149.72 49.07 151.76 47.81 153.50 49.28 Z" fill="#8e8e8e" />
<path d="M 35.66 55.98 C 37.94 67.75 41.23 79.47 46.93 90.09 C 48.76 93.49 50.54 96.91 51.97 100.51 C 45.94 95.90 42.34 89.91 38.44 83.55 C 33.68 75.59 29.99 67.16 26.96 58.40 C 28.66 58.70 30.57 59.29 32.29 59.04 C 33.57 58.27 34.65 57.06 35.66 55.98 Z" fill="#c8c8c8" />
<path d="M 156.72 57.19 C 159.45 58.50 162.02 59.36 165.05 59.62 C 161.25 71.61 155.38 82.81 147.98 92.97 C 145.86 95.88 143.41 98.51 140.77 100.95 C 142.32 96.94 144.36 93.18 146.36 89.38 C 151.62 79.33 154.32 68.19 156.72 57.19 Z" fill="#c5c5c5" />
<path d="M 144.78 57.89 C 143.64 63.53 142.54 69.14 140.61 74.58 C 137.60 83.02 134.47 91.05 129.04 98.26 C 130.30 91.61 132.41 85.19 133.52 78.51 C 134.53 72.51 135.25 66.41 135.28 60.32 C 136.93 60.79 138.79 61.53 140.52 61.40 C 142.15 60.64 143.55 59.17 144.78 57.89 Z" fill="#c5c5c5" />
<path d="M 48.16 59.33 C 51.05 60.68 53.58 61.39 56.79 61.60 C 57.75 67.07 58.02 72.61 58.92 78.08 C 59.94 84.57 62.02 90.80 63.07 97.29 C 60.99 94.48 59.08 91.56 57.57 88.40 C 53.18 79.17 50.02 69.38 48.16 59.33 Z" fill="#c8c8c8" />
<path d="M 123.57 63.70 C 123.47 66.74 123.64 70.04 123.03 73.03 C 122.49 75.61 120.84 78.01 119.46 80.22 C 119.32 77.77 119.21 75.31 119.21 72.85 C 119.25 70.83 119.36 68.80 119.40 66.77 C 119.68 67.81 119.99 68.84 120.30 69.87 C 121.43 67.84 122.59 65.80 123.57 63.70 Z" fill="#c6c6c6" />
<path d="M 69.07 65.80 C 70.47 68.19 72.04 70.50 73.52 72.86 C 73.12 76.09 72.71 79.32 72.20 82.53 C 69.91 77.14 69.52 71.55 69.07 65.80 Z" fill="#c7c7c7" />
<path d="M 92.09 78.85 C 97.71 79.54 102.14 81.63 105.81 86.00 C 110.20 92.09 112.98 98.56 114.14 106.00 C 111.72 102.41 109.55 98.67 107.37 94.93 C 105.26 96.11 103.13 97.27 100.99 98.40 C 99.97 96.87 98.86 95.41 97.70 93.98 L 97.78 96.12 C 97.51 94.44 97.17 92.79 96.83 91.12 C 92.33 93.95 88.72 97.07 86.04 101.74 C 85.98 99.04 85.88 96.33 85.75 93.63 C 82.78 97.76 80.01 102.01 76.83 105.99 C 78.17 99.63 80.41 93.60 84.50 88.47 C 87.10 85.31 89.70 82.18 92.09 78.85 Z" fill="#c7c7c7" />
<path d="M 97.70 93.98 C 98.86 95.41 99.97 96.87 100.99 98.40 C 102.84 101.73 104.11 105.31 105.03 109.00 L 105.42 111.13 C 103.62 109.88 101.54 108.58 100.15 106.87 C 98.93 105.21 98.54 102.82 98.15 100.84 C 98.01 99.26 97.91 97.69 97.78 96.12 L 97.70 93.98 Z" fill="#ffffff" />
<path d="M 98.15 100.84 C 98.54 102.82 98.93 105.21 100.15 106.87 C 101.54 108.58 103.62 109.88 105.42 111.13 L 105.03 109.00 C 106.79 112.44 109.54 114.77 112.31 117.37 C 110.54 117.91 108.77 118.43 107.00 118.94 C 102.59 120.00 98.11 122.21 93.56 121.07 C 90.56 120.44 87.62 120.02 84.56 119.90 C 83.69 115.36 85.79 112.05 87.81 108.20 C 91.37 107.52 94.86 106.47 98.40 105.67 C 98.32 104.06 98.26 102.45 98.15 100.84 Z" fill="#e0e0e0" />
<path d="M 77.75 109.93 L 78.09 110.68 C 77.42 112.33 76.71 113.97 75.97 115.59 C 71.56 113.42 67.15 111.92 62.17 112.98 C 60.23 113.33 58.75 115.44 57.43 116.78 C 56.85 114.73 56.29 112.69 55.78 110.62 C 63.13 109.70 70.39 110.92 77.75 109.93 Z" fill="#cacaca" />
<path d="M 115.59 110.65 C 122.60 110.51 129.28 109.62 136.27 110.77 C 135.66 112.41 135.04 114.04 134.41 115.67 C 129.65 112.00 123.78 111.99 118.47 114.41 C 116.87 115.41 115.73 117.31 114.75 118.88 C 115.06 116.14 115.24 113.39 115.59 110.65 Z" fill="#cacaca" />
<path d="M 93.56 121.07 C 98.11 122.21 102.59 120.00 107.00 118.94 C 107.10 119.98 107.19 121.03 107.28 122.08 C 104.70 124.00 102.21 126.03 99.54 127.84 C 97.16 127.65 94.87 127.66 92.49 127.87 C 89.79 126.07 87.33 124.10 85.01 121.83 L 84.56 119.90 C 87.62 120.02 90.56 120.44 93.56 121.07 Z" fill="#ffffff" />
<path d="M 85.01 121.83 C 87.33 124.10 89.79 126.07 92.49 127.87 C 91.78 139.79 82.06 149.02 72.09 154.29 C 71.94 148.50 71.56 143.16 73.57 137.61 C 75.79 131.17 80.08 126.36 85.01 121.83 Z" fill="#ebebeb" />
<path d="M 107.28 122.08 C 113.48 127.39 118.19 134.12 119.82 142.22 C 120.55 146.14 119.75 150.12 119.12 154.00 C 109.59 148.48 100.80 139.21 99.54 127.84 C 102.21 126.03 104.70 124.00 107.28 122.08 Z" fill="#ebebeb" />
<path d="M 95.49 136.91 C 99.01 140.53 99.87 145.79 103.47 149.49 C 108.78 155.64 115.50 157.47 122.72 160.40 C 118.94 160.59 115.46 160.82 112.02 158.90 C 104.77 155.27 101.38 148.97 96.04 143.19 C 90.31 148.90 85.54 156.67 77.94 159.77 C 74.60 161.29 71.31 160.70 68.00 159.51 C 75.37 158.54 82.15 155.76 87.38 150.38 C 91.40 146.38 92.71 141.64 95.49 136.91 Z" fill="#cccccc" /></svg>