<?xml version="1.0" encoding="UTF-8" standalone="no"?>
<!DOCTYPE svg PUBLIC "-//W3C//DTD SVG 1.1//EN" "http://www.w3.org/Graphics/SVG/1.1/DTD/svg11.dtd">
<svg viewBox="0 0 192 192" height="192.0pt" width="192.0pt" xmlns="http://www.w3.org/2000/svg" version="1.1">
<path d="M 46.40 15.42 C 53.27 21.12 53.12 29.83 60.38 34.53 C 67.69 37.04 69.12 33.44 76.91 35.01 C 69.93 31.43 80.47 33.53 82.88 33.07 C 75.93 36.80 86.24 34.21 88.67 34.37 C 90.45 37.03 95.04 34.49 97.24 33.23 C 102.00 28.42 103.28 21.33 108.54 16.52 C 110.49 19.96 113.52 22.24 113.93 26.03 C 115.85 32.38 112.36 39.08 121.30 40.00 C 116.50 41.17 111.74 42.01 107.29 44.27 C 105.31 46.08 102.85 41.25 101.34 42.42 C 92.61 51.88 85.54 61.84 83.95 74.97 C 83.22 85.34 88.18 94.16 95.38 101.21 C 84.08 103.55 71.92 103.93 60.64 101.21 C 67.97 93.55 74.83 80.88 70.83 70.15 C 68.17 60.30 62.75 50.74 55.21 43.81 C 53.45 41.55 51.66 46.43 49.80 45.03 C 45.04 42.41 39.93 41.24 34.70 39.95 C 36.46 39.23 39.55 39.14 40.72 37.67 C 41.46 33.46 40.43 28.73 41.56 24.59 C 42.36 21.00 45.44 18.99 46.40 15.42 Z" fill="#f0f0f0" />
<path d="M 34.70 39.95 C 39.93 41.24 45.04 42.41 49.80 45.03 C 51.66 46.43 53.45 41.55 55.21 43.81 C 62.75 50.74 68.17 60.30 70.83 70.15 C 74.83 80.88 67.97 93.55 60.64 101.21 C 56.40 101.22 49.39 99.62 46.38 103.36 C 44.44 106.56 38.68 107.73 37.78 103.16 C 36.14 95.43 37.23 86.78 37.21 78.86 C 38.40 79.27 39.59 79.67 40.78 80.06 C 44.32 90.03 55.96 94.87 64.34 86.98 C 65.17 87.63 66.02 88.27 66.89 88.87 C 67.35 80.53 66.38 68.77 56.41 66.55 C 48.62 63.93 45.30 70.57 38.85 70.98 C 39.85 63.73 44.41 57.38 45.78 51.31 C 39.71 46.68 30.66 45.23 23.22 46.21 C 22.69 52.61 22.65 59.44 24.44 65.66 C 24.85 67.49 26.20 67.28 27.64 67.84 C 28.47 70.12 29.89 71.81 31.19 73.91 C 22.78 71.81 22.63 64.76 20.78 57.73 C 20.22 52.37 19.88 47.10 19.71 41.72 L 19.90 39.86 C 24.41 38.06 29.80 40.80 34.70 39.95 Z" fill="#b7b7b7" />
<path d="M 136.26 40.79 C 136.17 49.52 134.88 58.05 133.19 66.59 C 130.67 71.06 129.02 72.96 123.77 73.86 C 125.00 71.80 126.40 69.87 127.88 67.99 C 129.70 67.30 130.95 67.76 131.36 65.42 C 132.87 59.18 133.52 52.60 132.78 46.21 C 125.72 45.18 118.89 46.73 112.40 49.46 C 111.25 50.30 109.72 50.72 110.62 52.39 C 112.91 58.62 116.20 64.16 117.09 70.89 C 110.68 71.24 107.72 63.64 99.59 66.55 C 88.39 69.80 90.02 78.68 88.12 88.05 C 87.14 92.44 90.64 87.00 91.89 86.31 C 93.03 90.94 100.70 91.55 104.41 90.45 C 110.02 89.07 112.86 84.91 115.06 79.92 C 116.08 79.69 117.09 79.45 118.10 79.20 C 119.50 86.06 119.54 96.19 118.10 103.04 C 117.76 106.81 114.75 105.65 111.99 106.30 C 107.77 99.31 102.44 100.94 95.38 101.21 C 88.18 94.16 83.22 85.34 83.95 74.97 C 85.54 61.84 92.61 51.88 101.34 42.42 C 102.85 41.25 105.31 46.08 107.29 44.27 C 111.74 42.01 116.50 41.17 121.30 40.00 C 125.70 40.74 133.26 36.87 136.26 40.79 Z" fill="#b5b5b5" />
<path d="M 19.90 39.86 L 19.71 41.72 C 16.06 50.48 17.94 63.62 21.80 72.22 C 24.07 77.61 31.57 78.45 33.65 83.32 C 34.90 91.82 32.50 99.70 35.87 108.13 C 37.64 113.29 41.10 117.28 41.02 122.97 C 40.99 136.65 41.04 150.33 40.96 164.01 C 40.13 172.08 45.45 179.46 52.84 182.21 C 61.46 184.98 69.26 181.37 73.99 173.99 C 76.12 172.07 75.90 163.93 78.59 164.29 C 80.10 171.78 83.16 178.17 90.30 181.72 C 98.48 185.40 108.82 181.99 112.68 173.69 C 115.06 169.54 113.97 164.49 120.02 163.98 C 128.20 162.83 129.13 170.37 136.35 172.65 C 142.07 175.65 149.45 172.98 153.73 168.75 C 161.39 160.91 158.68 147.19 158.78 137.05 C 156.23 123.57 160.82 112.31 154.90 100.67 C 149.94 102.96 154.19 96.69 153.82 94.73 C 158.12 88.97 167.16 91.31 171.26 84.25 C 174.61 78.40 175.90 69.85 172.34 63.78 L 171.96 62.06 C 175.09 61.80 175.92 65.57 176.01 67.97 C 176.78 76.68 175.22 87.44 165.90 90.87 C 162.16 92.62 154.31 92.66 156.19 98.83 C 163.38 112.44 158.00 125.05 160.77 140.05 C 161.01 150.33 162.93 163.56 153.79 170.80 C 146.71 177.69 135.81 176.49 128.79 170.21 C 126.20 167.96 124.96 165.39 121.00 165.92 C 116.66 165.35 116.73 169.42 115.35 172.37 C 112.63 181.44 101.61 187.16 92.60 184.42 C 85.03 182.61 82.25 177.43 78.00 171.73 C 72.97 179.33 67.97 185.22 57.99 185.08 C 47.56 184.68 39.77 176.26 39.04 166.02 C 38.91 151.68 39.05 137.31 39.02 122.97 C 39.12 116.87 35.02 112.55 33.38 106.64 C 30.70 98.69 32.81 91.21 31.72 83.29 C 29.87 81.17 26.89 80.11 24.76 78.24 C 16.54 72.22 15.67 58.26 15.95 48.99 C 15.81 46.09 16.58 40.78 19.90 39.86 Z" fill="#f5f5f5" />
<path d="M 136.26 40.79 C 137.51 42.12 138.95 42.97 138.93 45.00 C 139.35 57.06 139.29 68.50 131.06 78.13 C 130.71 82.58 136.70 82.39 139.70 82.60 C 148.15 79.74 143.86 70.01 151.09 66.05 C 150.27 69.36 149.29 72.59 149.00 76.01 C 149.31 80.82 143.36 82.57 140.28 85.16 C 142.46 87.24 144.74 89.35 147.05 91.28 C 149.08 92.43 150.58 95.21 152.68 92.67 C 157.17 87.92 166.19 88.88 169.48 83.45 C 171.06 81.05 172.19 78.60 171.31 75.70 C 171.70 71.73 172.12 67.77 172.34 63.78 C 175.90 69.85 174.61 78.40 171.26 84.25 C 167.16 91.31 158.12 88.97 153.82 94.73 C 154.19 96.69 149.94 102.96 154.90 100.67 C 160.82 112.31 156.23 123.57 158.78 137.05 C 158.68 147.19 161.39 160.91 153.73 168.75 C 149.45 172.98 142.07 175.65 136.35 172.65 C 129.13 170.37 128.20 162.83 120.02 163.98 C 113.97 164.49 115.06 169.54 112.68 173.69 C 108.82 181.99 98.48 185.40 90.30 181.72 C 83.16 178.17 80.10 171.78 78.59 164.29 C 75.90 163.93 76.12 172.07 73.99 173.99 C 69.26 181.37 61.46 184.98 52.84 182.21 C 45.45 179.46 40.13 172.08 40.96 164.01 C 41.04 150.33 40.99 136.65 41.02 122.97 C 41.10 117.28 37.64 113.29 35.87 108.13 C 32.50 99.70 34.90 91.82 33.65 83.32 C 31.57 78.45 24.07 77.61 21.80 72.22 C 17.94 63.62 16.06 50.48 19.71 41.72 C 19.88 47.10 20.22 52.37 20.78 57.73 C 18.32 66.30 24.01 74.56 31.41 78.58 C 39.05 82.55 34.66 93.24 35.81 100.00 C 35.84 108.60 42.56 114.22 42.37 123.03 C 42.75 121.72 43.08 120.41 43.43 119.10 C 44.90 124.28 46.03 129.05 50.00 132.99 C 50.96 134.20 52.60 134.71 52.17 136.46 C 49.20 135.47 46.37 134.61 43.20 135.13 C 43.09 144.65 42.31 154.79 43.68 164.19 C 44.09 166.00 44.54 167.78 44.82 169.61 C 43.11 173.87 50.28 178.95 53.64 180.36 C 60.25 182.63 69.28 179.85 72.09 173.04 C 75.48 166.46 74.83 160.18 75.14 153.10 C 74.98 150.54 80.21 150.07 80.38 152.63 C 82.12 156.72 79.50 162.88 82.35 166.33 L 82.39 167.03 C 81.87 174.85 89.53 181.19 96.99 181.09 C 104.17 182.07 114.48 173.24 112.08 165.70 L 112.03 164.02 C 114.14 167.34 115.26 162.06 118.10 162.11 C 124.40 160.89 128.71 163.87 132.78 168.22 C 138.23 173.43 146.52 173.03 151.81 167.81 C 154.48 165.07 157.02 162.83 155.01 158.76 C 154.64 156.84 156.41 151.88 155.07 150.83 C 146.92 148.69 136.90 150.93 128.38 149.75 C 128.08 148.25 127.91 146.73 127.62 145.24 C 122.77 145.76 118.11 146.51 113.21 145.79 C 112.31 138.23 114.01 130.12 112.24 122.72 L 111.85 120.79 C 112.06 115.96 112.03 111.13 111.99 106.30 C 114.75 105.65 117.76 106.81 118.10 103.04 C 119.54 96.19 119.50 86.06 118.10 79.20 L 118.84 78.99 C 124.41 80.99 133.86 71.97 133.19 66.59 C 134.88 58.05 136.17 49.52 136.26 40.79 Z" fill="#ececec" />
<path d="M 23.22 46.21 C 30.66 45.23 39.71 46.68 45.78 51.31 C 44.41 57.38 39.85 63.73 38.85 70.98 C 35.02 70.67 31.39 68.67 27.64 67.84 C 26.20 67.28 24.85 67.49 24.44 65.66 C 22.65 59.44 22.69 52.61 23.22 46.21 Z" fill="#dbdbdb" />
<path d="M 132.78 46.21 C 133.52 52.60 132.87 59.18 131.36 65.42 C 130.95 67.76 129.70 67.30 127.88 67.99 C 124.34 68.99 120.73 70.34 117.09 70.89 C 116.20 64.16 112.91 58.62 110.62 52.39 C 109.72 50.72 111.25 50.30 112.40 49.46 C 118.89 46.73 125.72 45.18 132.78 46.21 Z" fill="#dbdbdb" />
<path d="M 20.78 57.73 C 22.63 64.76 22.78 71.81 31.19 73.91 C 33.56 75.28 35.40 76.82 37.21 78.86 C 37.23 86.78 36.14 95.43 37.78 103.16 C 38.68 107.73 44.44 106.56 46.38 103.36 C 49.39 99.62 56.40 101.22 60.64 101.21 C 71.92 103.93 84.08 103.55 95.38 101.21 C 102.44 100.94 107.77 99.31 111.99 106.30 C 112.03 111.13 112.06 115.96 111.85 120.79 C 109.80 131.58 102.87 136.96 92.78 140.00 C 79.84 141.92 67.30 141.84 54.90 137.47 C 53.98 137.16 53.07 136.82 52.17 136.46 C 52.60 134.71 50.96 134.20 50.00 132.99 C 46.03 129.05 44.90 124.28 43.43 119.10 C 43.08 120.41 42.75 121.72 42.37 123.03 C 42.56 114.22 35.84 108.60 35.81 100.00 C 34.66 93.24 39.05 82.55 31.41 78.58 C 24.01 74.56 18.32 66.30 20.78 57.73 Z" fill="#dbdbdb" />
<path d="M 171.96 62.06 L 172.34 63.78 C 172.12 67.77 171.70 71.73 171.31 75.70 C 168.88 83.69 166.13 83.84 158.61 85.58 C 153.95 86.27 151.67 90.42 147.05 91.28 C 144.74 89.35 142.46 87.24 140.28 85.16 C 143.36 82.57 149.31 80.82 149.00 76.01 C 149.29 72.59 150.27 69.36 151.09 66.05 C 156.97 62.06 165.08 61.61 171.96 62.06 Z" fill="#b2b2b2" />
<path d="M 56.41 66.55 C 66.38 68.77 67.35 80.53 66.89 88.87 C 66.02 88.27 65.17 87.63 64.34 86.98 C 60.93 82.53 59.80 88.62 56.00 89.09 C 50.75 90.64 46.53 86.71 45.15 81.87 C 44.66 79.47 42.64 80.48 40.78 80.06 C 39.59 79.67 38.40 79.27 37.21 78.86 C 35.40 76.82 33.56 75.28 31.19 73.91 C 29.89 71.81 28.47 70.12 27.64 67.84 C 31.39 68.67 35.02 70.67 38.85 70.98 C 45.30 70.57 48.62 63.93 56.41 66.55 Z" fill="#959595" />
<path d="M 117.09 70.89 C 120.73 70.34 124.34 68.99 127.88 67.99 C 126.40 69.87 125.00 71.80 123.77 73.86 C 121.36 75.28 120.20 76.55 118.84 78.99 L 118.10 79.20 C 117.09 79.45 116.08 79.69 115.06 79.92 C 109.03 79.51 111.40 84.82 107.43 87.45 C 104.62 89.55 100.79 90.20 97.68 88.33 C 95.21 87.33 94.56 83.55 91.89 86.31 C 90.64 87.00 87.14 92.44 88.12 88.05 C 90.02 78.68 88.39 69.80 99.59 66.55 C 107.72 63.64 110.68 71.24 117.09 70.89 Z" fill="#929292" />
<path d="M 133.19 66.59 C 133.86 71.97 124.41 80.99 118.84 78.99 C 120.20 76.55 121.36 75.28 123.77 73.86 C 129.02 72.96 130.67 71.06 133.19 66.59 Z" fill="#d1d1d1" />
<path d="M 171.31 75.70 C 172.19 78.60 171.06 81.05 169.48 83.45 C 166.19 88.88 157.17 87.92 152.68 92.67 C 150.58 95.21 149.08 92.43 147.05 91.28 C 151.67 90.42 153.95 86.27 158.61 85.58 C 166.13 83.84 168.88 83.69 171.31 75.70 Z" fill="#d3d3d3" />
<path d="M 40.78 80.06 C 42.64 80.48 44.66 79.47 45.15 81.87 C 46.53 86.71 50.75 90.64 56.00 89.09 C 59.80 88.62 60.93 82.53 64.34 86.98 C 55.96 94.87 44.32 90.03 40.78 80.06 Z" fill="#f1f1f1" />
<path d="M 115.06 79.92 C 112.86 84.91 110.02 89.07 104.41 90.45 C 100.70 91.55 93.03 90.94 91.89 86.31 C 94.56 83.55 95.21 87.33 97.68 88.33 C 100.79 90.20 104.62 89.55 107.43 87.45 C 111.40 84.82 109.03 79.51 115.06 79.92 Z" fill="#f1f1f1" />
<path d="M 58.33 105.30 C 64.69 103.62 71.04 113.72 71.79 119.14 C 72.60 124.41 72.46 133.42 65.88 134.93 C 59.58 136.27 54.71 127.70 53.38 122.66 C 52.49 117.38 52.00 107.52 58.33 105.30 Z" fill="#b9b9b9" />
<path d="M 93.33 105.31 C 101.28 103.30 104.19 112.74 102.91 118.97 C 102.09 124.64 98.74 134.41 91.97 135.03 C 85.04 135.40 82.52 127.16 83.48 121.62 C 84.62 116.06 87.61 107.58 93.33 105.31 Z" fill="#b8b8b8" />
<path d="M 152.64 110.30 C 156.75 116.98 156.00 123.53 156.01 131.00 C 155.96 134.92 156.21 138.92 155.79 142.82 C 141.80 145.62 131.56 131.18 137.67 118.66 C 140.25 113.65 146.86 108.95 152.64 110.30 Z" fill="#b2b2b2" />
<path d="M 111.85 120.79 L 112.24 122.72 C 111.75 131.81 112.13 140.94 111.96 150.05 C 102.61 150.61 97.44 148.08 92.78 140.00 C 102.87 136.96 109.80 131.58 111.85 120.79 Z" fill="#b2b2b2" />
<path d="M 112.24 122.72 C 114.01 130.12 112.31 138.23 113.21 145.79 C 118.11 146.51 122.77 145.76 127.62 145.24 C 127.91 146.73 128.08 148.25 128.38 149.75 C 136.90 150.93 146.92 148.69 155.07 150.83 C 146.11 151.31 137.10 150.63 128.16 151.20 C 126.99 157.15 129.93 163.75 134.96 167.02 C 143.52 170.58 151.39 167.27 155.01 158.76 C 157.02 162.83 154.48 165.07 151.81 167.81 C 146.52 173.03 138.23 173.43 132.78 168.22 C 128.71 163.87 124.40 160.89 118.10 162.11 C 115.26 162.06 114.14 167.34 112.03 164.02 C 111.98 162.68 111.95 161.34 111.92 160.00 L 111.93 159.00 C 112.01 156.02 112.01 153.03 111.96 150.05 C 112.13 140.94 111.75 131.81 112.24 122.72 Z" fill="#d7d7d7" />
<path d="M 43.20 135.13 C 46.37 134.61 49.20 135.47 52.17 136.46 C 53.07 136.82 53.98 137.16 54.90 137.47 C 63.49 143.19 63.92 152.17 56.26 158.96 C 62.15 159.09 68.05 158.95 73.94 159.02 C 73.88 160.42 73.73 161.79 73.50 163.17 C 72.85 159.37 72.38 160.20 69.02 159.98 C 61.19 160.68 53.76 158.82 46.03 159.01 C 43.03 158.42 44.26 162.35 43.68 164.19 C 42.31 154.79 43.09 144.65 43.20 135.13 Z" fill="#b5b5b5" />
<path d="M 92.78 140.00 C 97.44 148.08 102.61 150.61 111.96 150.05 C 112.01 153.03 112.01 156.02 111.93 159.00 C 101.98 159.00 92.03 158.99 82.08 159.01 C 81.83 154.42 82.28 149.75 81.79 145.19 C 79.30 144.85 76.70 144.85 74.21 145.19 C 73.70 149.74 74.20 154.43 73.94 159.02 C 68.05 158.95 62.15 159.09 56.26 158.96 C 63.92 152.17 63.49 143.19 54.90 137.47 C 67.30 141.84 79.84 141.92 92.78 140.00 Z" fill="#ededed" />
<path d="M 74.21 145.19 C 76.70 144.85 79.30 144.85 81.79 145.19 C 82.28 149.75 81.83 154.42 82.08 159.01 L 82.11 160.00 C 82.17 162.11 82.32 164.22 82.35 166.33 C 79.50 162.88 82.12 156.72 80.38 152.63 C 80.21 150.07 74.98 150.54 75.14 153.10 C 74.83 160.18 75.48 166.46 72.09 173.04 C 69.28 179.85 60.25 182.63 53.64 180.36 C 50.28 178.95 43.11 173.87 44.82 169.61 C 48.69 175.75 55.05 179.56 62.41 177.45 C 69.11 175.74 72.87 169.79 73.50 163.17 C 73.73 161.79 73.88 160.42 73.94 159.02 C 74.20 154.43 73.70 149.74 74.21 145.19 Z" fill="#d5d5d5" />
<path d="M 128.16 151.20 C 137.10 150.63 146.11 151.31 155.07 150.83 C 156.41 151.88 154.64 156.84 155.01 158.76 C 151.39 167.27 143.52 170.58 134.96 167.02 C 129.93 163.75 126.99 157.15 128.16 151.20 Z" fill="#8c8c8c" />
<path d="M 46.03 159.01 C 53.76 158.82 61.19 160.68 69.02 159.98 C 72.38 160.20 72.85 159.37 73.50 163.17 C 72.87 169.79 69.11 175.74 62.41 177.45 C 55.05 179.56 48.69 175.75 44.82 169.61 C 44.54 167.78 44.09 166.00 43.68 164.19 C 44.26 162.35 43.03 158.42 46.03 159.01 Z" fill="#8d8d8d" />
<path d="M 82.08 159.01 C 92.03 158.99 101.98 159.00 111.93 159.00 L 111.92 160.00 C 101.98 160.00 92.05 160.00 82.11 160.00 L 82.08 159.01 Z" fill="#b5b5b5" />
<path d="M 82.11 160.00 C 92.05 160.00 101.98 160.00 111.92 160.00 C 111.95 161.34 111.98 162.68 112.03 164.02 L 112.08 165.70 C 109.57 171.92 106.90 176.37 99.87 177.86 C 91.87 179.06 85.57 173.99 82.39 167.03 L 82.35 166.33 C 82.32 164.22 82.17 162.11 82.11 160.00 Z" fill="#8b8b8b" />
<path d="M 112.08 165.70 C 114.48 173.24 104.17 182.07 96.99 181.09 C 89.53 181.19 81.87 174.85 82.39 167.03 C 85.57 173.99 91.87 179.06 99.87 177.86 C 106.90 176.37 109.57 171.92 112.08 165.70 Z" fill="#d4d4d4" /></svg>