<?xml version="1.0" encoding="UTF-8" standalone="no"?>
<!DOCTYPE svg PUBLIC "-//W3C//DTD SVG 1.1//EN" "http://www.w3.org/Graphics/SVG/1.1/DTD/svg11.dtd">
<svg viewBox="0 0 192 192" height="192.0pt" width="192.0pt" xmlns="http://www.w3.org/2000/svg" version="1.1">
<path d="M 67.14 30.42 C 70.06 35.03 72.53 39.69 74.06 44.95 C 75.18 49.06 78.36 51.15 80.33 54.67 C 81.91 58.01 82.27 62.00 81.68 65.62 C 77.66 66.71 73.59 67.19 69.92 64.78 C 70.85 60.67 72.30 56.20 72.24 51.99 C 72.15 46.29 69.32 40.72 64.86 37.20 C 61.91 38.96 59.45 41.67 57.34 44.35 C 53.71 48.73 54.13 55.61 53.88 60.99 C 51.33 58.59 48.87 56.25 45.04 56.80 C 39.82 57.22 36.58 64.06 36.17 68.63 C 36.64 69.13 37.13 69.61 37.63 70.09 L 38.49 70.99 L 37.35 71.46 C 37.94 72.95 38.74 74.37 39.28 75.88 C 36.91 79.83 33.89 82.41 33.97 87.45 C 37.20 87.49 40.63 86.94 43.81 87.34 C 47.67 87.97 51.18 90.14 55.11 90.77 C 59.79 91.48 64.48 91.25 69.05 89.99 C 72.72 88.89 76.17 89.49 79.90 89.74 C 77.75 87.96 75.42 86.43 73.27 84.65 C 75.91 81.36 80.51 79.58 83.67 76.75 C 84.50 76.14 83.94 75.10 83.99 74.21 C 84.81 73.52 85.74 72.94 86.60 72.29 C 85.91 71.97 85.22 71.64 84.53 71.31 C 84.91 70.83 85.33 70.36 85.76 69.92 C 96.00 74.28 105.29 81.18 112.20 89.93 C 102.28 91.91 92.98 92.96 85.28 100.28 C 81.74 103.07 84.05 109.18 81.92 112.94 C 80.43 115.60 77.76 117.66 76.52 120.42 C 75.50 128.53 78.50 134.89 81.84 141.96 C 79.74 143.27 77.39 144.08 75.09 144.98 C 76.65 141.45 75.30 138.05 72.43 135.70 C 72.96 134.96 73.47 134.55 73.23 133.57 C 72.53 130.37 71.56 126.69 69.60 124.03 C 65.95 123.12 62.34 123.00 58.92 121.20 C 53.92 119.00 50.10 115.47 46.10 111.87 C 43.44 109.35 40.42 109.58 37.01 109.22 C 32.36 108.87 26.63 108.15 22.80 105.26 C 20.65 103.19 19.62 99.85 18.20 97.24 C 20.92 94.31 24.09 92.06 27.27 89.67 C 26.63 86.88 24.79 84.18 23.36 81.72 C 25.35 77.88 24.86 73.69 26.63 69.66 C 30.86 59.84 38.19 52.04 47.06 46.21 C 49.09 45.51 52.13 45.30 53.27 43.29 C 55.36 40.26 57.20 37.08 59.56 34.24 C 61.99 32.91 64.46 31.16 67.14 30.42 Z" fill="#b9b9b9" />
<path d="M 70.94 31.96 C 74.76 35.61 76.26 40.14 78.17 44.89 C 78.83 46.30 79.48 48.27 80.81 49.17 C 82.96 50.26 85.63 50.54 87.99 50.96 C 102.23 53.02 115.80 58.88 126.74 68.26 C 129.87 71.00 132.55 74.66 135.99 76.93 C 140.25 73.90 142.91 69.96 148.07 68.04 C 155.03 65.52 163.52 66.85 170.20 69.71 C 173.69 71.13 176.66 73.34 178.02 76.97 C 181.43 86.89 182.11 97.43 180.75 107.79 C 178.59 120.65 171.15 131.98 162.26 141.25 C 157.28 145.71 151.65 149.93 145.47 152.55 C 140.97 154.53 135.94 154.70 131.44 156.50 C 128.17 158.79 126.74 162.92 122.72 164.76 C 115.12 168.15 106.26 169.20 98.00 169.13 C 91.09 169.04 84.51 170.60 77.58 169.62 C 72.07 168.92 65.17 169.43 61.22 164.78 C 58.78 161.02 57.34 156.51 55.62 152.38 C 54.16 148.93 55.19 145.25 57.37 142.38 C 59.77 139.52 63.79 137.97 66.25 135.21 C 67.22 134.07 67.00 132.73 66.82 131.37 C 63.61 129.26 59.41 128.84 55.95 127.12 C 50.94 124.92 47.27 121.32 43.13 117.90 C 40.89 115.96 37.82 116.20 35.04 115.85 C 29.64 115.43 23.52 114.56 19.65 110.35 C 16.75 107.13 14.59 103.19 12.56 99.39 C 10.75 95.98 10.08 92.13 11.41 88.43 C 13.42 83.36 19.41 82.28 20.68 76.81 C 23.54 65.94 30.14 55.86 39.12 49.08 C 43.04 46.04 44.41 42.01 46.82 37.90 C 48.80 34.47 50.87 31.58 55.08 30.99 C 51.79 35.89 48.33 40.28 47.06 46.21 C 38.19 52.04 30.86 59.84 26.63 69.66 C 24.86 73.69 25.35 77.88 23.36 81.72 C 19.81 83.17 16.58 84.43 14.60 87.95 C 13.77 90.30 12.86 92.87 13.81 95.32 C 15.20 98.98 17.28 102.42 19.37 105.72 C 20.95 108.18 23.05 110.01 25.77 111.11 C 31.05 113.38 37.41 112.28 42.58 114.31 C 46.59 116.31 49.63 120.11 53.44 122.54 C 56.90 124.95 60.69 125.96 64.62 127.29 C 66.38 127.95 68.64 128.69 69.47 130.54 C 70.08 132.32 70.30 134.26 70.61 136.11 C 66.01 138.36 61.74 140.83 58.64 145.03 C 57.52 149.25 58.73 152.66 60.51 156.43 C 61.89 159.18 62.97 163.55 66.08 164.77 C 70.22 166.66 75.51 166.68 79.99 166.72 C 87.77 166.59 95.35 166.98 103.09 166.12 C 109.29 165.46 116.44 165.09 121.90 161.81 C 125.17 159.85 126.89 155.90 129.89 153.83 C 133.42 152.39 137.43 152.10 141.09 150.97 C 146.63 149.45 151.49 146.49 155.91 142.86 C 167.82 133.26 176.74 119.11 178.44 103.74 C 179.53 95.28 177.85 87.33 175.58 79.23 C 174.99 77.75 174.84 76.36 172.93 76.27 L 172.27 76.19 C 167.84 75.73 162.87 76.35 158.62 77.65 C 153.24 79.60 150.43 85.25 149.75 90.63 C 149.21 96.20 149.41 101.73 148.30 107.26 C 146.49 116.26 143.10 125.19 137.61 132.61 C 134.14 137.25 130.90 141.62 126.00 144.88 C 124.38 144.80 122.75 144.74 121.13 144.56 C 121.14 139.18 123.39 133.48 124.62 128.23 C 128.41 116.96 127.02 104.20 121.11 93.91 C 115.45 83.86 104.86 76.37 94.74 71.26 C 92.46 70.19 89.89 68.59 87.34 68.46 C 86.79 68.92 86.27 69.40 85.76 69.92 C 85.33 70.36 84.91 70.83 84.53 71.31 C 85.22 71.64 85.91 71.97 86.60 72.29 C 85.74 72.94 84.81 73.52 83.99 74.21 C 83.94 75.10 84.50 76.14 83.67 76.75 C 80.51 79.58 75.91 81.36 73.27 84.65 C 75.42 86.43 77.75 87.96 79.90 89.74 C 76.17 89.49 72.72 88.89 69.05 89.99 C 64.48 91.25 59.79 91.48 55.11 90.77 C 51.18 90.14 47.67 87.97 43.81 87.34 C 40.63 86.94 37.20 87.49 33.97 87.45 C 33.89 82.41 36.91 79.83 39.28 75.88 C 38.74 74.37 37.94 72.95 37.35 71.46 L 38.49 70.99 C 39.64 71.94 40.80 73.03 42.14 73.71 C 45.39 73.24 48.62 72.57 51.85 72.00 C 53.08 71.86 54.00 70.63 54.67 69.68 C 54.33 66.66 52.49 63.75 50.25 61.75 C 47.72 59.42 43.42 59.45 41.20 62.20 C 39.43 64.39 38.63 67.49 37.63 70.09 C 37.13 69.61 36.64 69.13 36.17 68.63 C 36.58 64.06 39.82 57.22 45.04 56.80 C 48.87 56.25 51.33 58.59 53.88 60.99 C 54.84 62.50 55.81 64.11 56.97 65.47 C 58.70 64.33 60.32 62.87 62.16 61.94 C 64.86 61.25 67.63 63.58 69.92 64.78 C 73.59 67.19 77.66 66.71 81.68 65.62 C 82.27 62.00 81.91 58.01 80.33 54.67 C 78.36 51.15 75.18 49.06 74.06 44.95 C 72.53 39.69 70.06 35.03 67.14 30.42 C 68.57 30.57 69.89 30.89 70.94 31.96 Z" fill="#f6f6f6" />
<path d="M 55.08 30.99 C 56.67 31.90 58.12 33.11 59.56 34.24 C 57.20 37.08 55.36 40.26 53.27 43.29 C 52.13 45.30 49.09 45.51 47.06 46.21 C 48.33 40.28 51.79 35.89 55.08 30.99 Z" fill="#9c9c9c" />
<path d="M 64.86 37.20 C 69.32 40.72 72.15 46.29 72.24 51.99 C 72.30 56.20 70.85 60.67 69.92 64.78 C 67.63 63.58 64.86 61.25 62.16 61.94 C 60.32 62.87 58.70 64.33 56.97 65.47 C 55.81 64.11 54.84 62.50 53.88 60.99 C 54.13 55.61 53.71 48.73 57.34 44.35 C 59.45 41.67 61.91 38.96 64.86 37.20 Z" fill="#dcdcdc" />
<path d="M 50.25 61.75 C 52.49 63.75 54.33 66.66 54.67 69.68 C 54.00 70.63 53.08 71.86 51.85 72.00 C 48.62 72.57 45.39 73.24 42.14 73.71 C 40.80 73.03 39.64 71.94 38.49 70.99 L 37.63 70.09 C 38.63 67.49 39.43 64.39 41.20 62.20 C 43.42 59.45 47.72 59.42 50.25 61.75 Z" fill="#767676" />
<path d="M 87.34 68.46 C 89.89 68.59 92.46 70.19 94.74 71.26 C 104.86 76.37 115.45 83.86 121.11 93.91 C 127.02 104.20 128.41 116.96 124.62 128.23 C 123.60 122.85 124.15 117.53 122.76 112.24 C 120.94 104.80 117.81 97.45 113.26 91.25 L 112.20 89.93 C 105.29 81.18 96.00 74.28 85.76 69.92 C 86.27 69.40 86.79 68.92 87.34 68.46 Z" fill="#6b6b6b" />
<path d="M 172.27 76.19 C 169.33 79.12 165.66 78.86 162.03 81.03 C 156.91 83.95 153.77 89.32 153.33 95.16 C 152.90 101.30 152.93 107.31 151.29 113.31 C 147.92 127.00 139.60 138.05 129.16 147.23 C 128.19 147.97 127.11 148.49 125.99 148.98 C 125.93 147.61 125.94 146.24 126.00 144.88 C 130.90 141.62 134.14 137.25 137.61 132.61 C 143.10 125.19 146.49 116.26 148.30 107.26 C 149.41 101.73 149.21 96.20 149.75 90.63 C 150.43 85.25 153.24 79.60 158.62 77.65 C 162.87 76.35 167.84 75.73 172.27 76.19 Z" fill="#656565" />
<path d="M 172.27 76.19 L 172.93 76.27 C 174.33 81.55 176.65 85.61 176.84 91.02 C 177.26 99.82 175.85 109.05 172.08 117.06 C 167.79 126.35 160.71 134.47 152.64 140.69 C 147.29 144.63 140.70 147.83 133.99 148.21 C 131.97 148.49 129.45 148.50 127.67 149.59 C 124.79 152.54 124.62 156.72 120.35 158.43 C 105.72 163.98 91.06 162.00 75.99 162.44 C 71.54 162.45 66.57 162.11 63.43 158.52 C 63.20 156.20 63.24 153.82 63.23 151.49 C 67.03 148.98 70.75 146.50 75.09 144.98 C 74.32 146.34 72.64 147.83 73.44 149.49 C 74.43 151.87 77.32 152.13 79.54 152.44 C 86.40 153.05 93.27 152.67 100.16 153.74 C 103.26 154.15 106.57 154.98 109.70 154.77 C 111.27 153.88 111.82 152.07 111.47 150.37 C 110.91 147.72 109.47 145.15 108.21 142.77 C 104.40 135.90 100.15 128.25 98.51 120.51 C 97.08 113.96 99.92 107.84 103.59 102.58 C 106.46 98.39 110.62 95.63 113.26 91.25 C 117.81 97.45 120.94 104.80 122.76 112.24 C 124.15 117.53 123.60 122.85 124.62 128.23 C 123.39 133.48 121.14 139.18 121.13 144.56 C 122.75 144.74 124.38 144.80 126.00 144.88 C 125.94 146.24 125.93 147.61 125.99 148.98 C 127.11 148.49 128.19 147.97 129.16 147.23 C 139.60 138.05 147.92 127.00 151.29 113.31 C 152.93 107.31 152.90 101.30 153.33 95.16 C 153.77 89.32 156.91 83.95 162.03 81.03 C 165.66 78.86 169.33 79.12 172.27 76.19 Z" fill="#b6b6b6" />
<path d="M 172.93 76.27 C 174.84 76.36 174.99 77.75 175.58 79.23 C 177.85 87.33 179.53 95.28 178.44 103.74 C 176.74 119.11 167.82 133.26 155.91 142.86 C 151.49 146.49 146.63 149.45 141.09 150.97 C 137.43 152.10 133.42 152.39 129.89 153.83 C 126.89 155.90 125.17 159.85 121.90 161.81 C 116.44 165.09 109.29 165.46 103.09 166.12 C 95.35 166.98 87.77 166.59 79.99 166.72 C 75.51 166.68 70.22 166.66 66.08 164.77 C 62.97 163.55 61.89 159.18 60.51 156.43 C 58.73 152.66 57.52 149.25 58.64 145.03 C 58.87 146.38 58.79 148.14 59.62 149.27 C 60.73 150.12 62.02 150.80 63.23 151.49 C 63.24 153.82 63.20 156.20 63.43 158.52 C 66.57 162.11 71.54 162.45 75.99 162.44 C 91.06 162.00 105.72 163.98 120.35 158.43 C 124.62 156.72 124.79 152.54 127.67 149.59 C 129.45 148.50 131.97 148.49 133.99 148.21 C 140.70 147.83 147.29 144.63 152.64 140.69 C 160.71 134.47 167.79 126.35 172.08 117.06 C 175.85 109.05 177.26 99.82 176.84 91.02 C 176.65 85.61 174.33 81.55 172.93 76.27 Z" fill="#d7d7d7" />
<path d="M 23.36 81.72 C 24.79 84.18 26.63 86.88 27.27 89.67 C 24.09 92.06 20.92 94.31 18.20 97.24 C 15.66 94.11 14.62 92.11 14.60 87.95 C 16.58 84.43 19.81 83.17 23.36 81.72 Z" fill="#9a9a9a" />
<path d="M 14.60 87.95 C 14.62 92.11 15.66 94.11 18.20 97.24 C 19.62 99.85 20.65 103.19 22.80 105.26 C 26.63 108.15 32.36 108.87 37.01 109.22 C 40.42 109.58 43.44 109.35 46.10 111.87 C 50.10 115.47 53.92 119.00 58.92 121.20 C 62.34 123.00 65.95 123.12 69.60 124.03 C 71.56 126.69 72.53 130.37 73.23 133.57 C 73.47 134.55 72.96 134.96 72.43 135.70 L 70.61 136.11 C 70.30 134.26 70.08 132.32 69.47 130.54 C 68.64 128.69 66.38 127.95 64.62 127.29 C 60.69 125.96 56.90 124.95 53.44 122.54 C 49.63 120.11 46.59 116.31 42.58 114.31 C 37.41 112.28 31.05 113.38 25.77 111.11 C 23.05 110.01 20.95 108.18 19.37 105.72 C 17.28 102.42 15.20 98.98 13.81 95.32 C 12.86 92.87 13.77 90.30 14.60 87.95 Z" fill="#d9d9d9" />
<path d="M 112.20 89.93 L 113.26 91.25 C 110.62 95.63 106.46 98.39 103.59 102.58 C 99.92 107.84 97.08 113.96 98.51 120.51 C 100.15 128.25 104.40 135.90 108.21 142.77 C 109.47 145.15 110.91 147.72 111.47 150.37 C 111.82 152.07 111.27 153.88 109.70 154.77 C 106.57 154.98 103.26 154.15 100.16 153.74 C 93.27 152.67 86.40 153.05 79.54 152.44 C 77.32 152.13 74.43 151.87 73.44 149.49 C 72.64 147.83 74.32 146.34 75.09 144.98 C 77.39 144.08 79.74 143.27 81.84 141.96 C 78.50 134.89 75.50 128.53 76.52 120.42 C 77.76 117.66 80.43 115.60 81.92 112.94 C 84.05 109.18 81.74 103.07 85.28 100.28 C 92.98 92.96 102.28 91.91 112.20 89.93 Z" fill="#f6f6f6" />
<path d="M 70.61 136.11 L 72.43 135.70 C 75.30 138.05 76.65 141.45 75.09 144.98 C 70.75 146.50 67.03 148.98 63.23 151.49 C 62.02 150.80 60.73 150.12 59.62 149.27 C 58.79 148.14 58.87 146.38 58.64 145.03 C 61.74 140.83 66.01 138.36 70.61 136.11 Z" fill="#949494" /></svg>