<?xml version="1.0" encoding="UTF-8" standalone="no"?>
<!DOCTYPE svg PUBLIC "-//W3C//DTD SVG 1.1//EN" "http://www.w3.org/Graphics/SVG/1.1/DTD/svg11.dtd">
<svg viewBox="0 0 192 192" height="192.0pt" width="192.0pt" xmlns="http://www.w3.org/2000/svg" version="1.1">
<path d="M 111.35 17.25 C 114.92 17.00 118.69 18.74 122.07 18.91 C 125.78 18.72 129.74 16.63 133.85 17.14 C 140.05 17.93 145.20 22.71 147.97 28.11 C 148.07 29.31 148.16 30.52 148.22 31.72 C 147.82 36.93 146.87 41.79 148.17 46.97 C 148.65 50.09 149.15 53.21 149.85 56.29 L 149.49 56.84 C 147.71 60.10 146.25 63.56 145.23 67.14 C 145.07 68.44 144.96 69.75 144.90 71.07 C 144.56 70.15 144.21 69.24 143.82 68.33 C 140.65 69.59 137.68 71.21 134.75 72.94 C 133.95 73.40 133.16 73.86 132.36 74.33 C 128.49 72.86 124.98 74.18 121.07 74.88 C 122.76 78.18 124.41 81.50 125.96 84.87 C 121.27 85.78 116.75 86.13 111.97 86.03 C 113.98 82.37 116.09 78.76 118.12 75.11 C 114.02 74.65 109.94 74.49 105.82 74.53 C 105.00 74.51 104.18 74.47 103.36 74.40 C 99.32 73.39 95.33 72.40 91.13 72.25 C 90.56 72.20 89.99 72.14 89.41 72.07 C 85.91 71.13 82.51 69.99 78.91 69.47 C 78.89 70.31 78.88 71.15 78.89 71.99 C 77.94 70.79 76.89 69.71 75.67 68.77 C 71.49 67.68 67.23 66.85 62.99 66.01 L 61.55 65.72 C 58.35 64.64 55.15 63.61 51.88 62.75 L 51.14 62.49 C 44.03 59.58 37.23 55.94 30.12 53.04 C 29.83 54.70 29.59 56.37 29.35 58.04 C 31.44 57.83 33.51 57.57 35.59 57.36 C 35.80 59.18 36.00 61.00 36.20 62.82 C 38.10 61.97 39.97 61.06 41.87 60.21 C 42.98 62.23 44.14 64.28 45.05 66.41 C 45.31 67.16 45.56 67.91 45.80 68.67 C 61.27 76.15 78.66 81.43 94.95 86.52 C 94.03 86.79 93.11 87.07 92.18 87.34 C 94.62 88.20 97.33 88.97 99.50 90.39 C 101.03 91.54 102.18 93.34 103.31 94.87 C 112.21 96.47 120.16 95.53 127.37 101.98 C 120.29 101.80 113.21 100.57 106.27 99.21 C 103.18 98.47 100.36 98.26 97.18 98.49 C 95.22 98.24 93.31 97.77 91.43 97.17 C 90.55 96.87 89.67 96.56 88.80 96.24 C 92.61 95.98 96.43 95.84 100.24 95.62 C 97.78 93.32 95.43 91.13 92.46 89.47 C 88.24 87.10 83.05 85.88 78.43 84.43 C 64.63 80.06 51.32 74.60 38.09 68.76 C 32.47 66.07 26.30 62.32 23.93 56.24 C 22.26 52.05 20.75 46.95 21.55 42.42 C 22.34 38.57 26.79 35.80 29.40 33.06 C 32.68 33.96 35.94 34.57 39.32 34.95 C 38.78 33.44 38.32 31.79 37.49 30.41 C 36.07 29.40 33.70 29.61 32.00 29.37 C 35.34 27.83 38.28 28.71 41.78 28.66 C 44.30 28.67 46.96 28.15 49.44 28.53 C 53.52 29.89 54.65 35.38 57.25 38.28 C 59.32 39.33 61.94 39.48 64.20 39.83 C 71.74 40.64 79.41 41.17 86.99 40.71 C 89.28 40.47 92.59 40.19 93.89 37.96 C 95.90 34.16 95.94 29.10 98.27 25.31 C 101.06 20.81 106.06 17.67 111.35 17.25 Z" fill="#dadada" />
<path d="M 119.75 20.96 C 119.20 21.92 118.65 22.87 118.13 23.83 C 115.86 23.37 113.39 22.76 111.08 22.93 C 107.08 23.36 103.66 26.67 102.32 30.35 C 101.53 32.83 101.93 35.82 102.04 38.39 C 100.98 38.59 99.92 38.79 98.86 38.98 C 97.03 32.03 99.74 24.65 106.09 21.13 C 110.66 18.73 115.02 19.94 119.75 20.96 Z" fill="#ffffff" />
<path d="M 126.47 20.50 C 129.87 19.32 133.93 19.38 137.25 20.79 C 143.20 23.53 146.96 30.34 145.90 36.85 C 144.76 43.97 138.49 49.86 131.11 49.61 C 125.10 49.46 120.22 45.34 118.16 39.85 C 115.17 32.57 119.14 23.32 126.47 20.50 Z" fill="#ffffff" />
<path d="M 111.08 22.93 C 113.39 22.76 115.86 23.37 118.13 23.83 C 116.08 27.31 115.48 31.32 113.70 34.87 C 110.34 36.96 105.87 37.57 102.04 38.39 C 101.93 35.82 101.53 32.83 102.32 30.35 C 103.66 26.67 107.08 23.36 111.08 22.93 Z" fill="#939393" />
<path d="M 128.36 23.29 C 131.64 22.24 135.33 22.83 138.08 24.92 C 141.87 27.79 143.55 32.86 142.51 37.46 C 141.36 42.55 136.25 46.40 131.04 46.10 C 125.43 45.75 120.45 40.76 120.63 35.01 C 120.35 29.89 123.45 24.94 128.36 23.29 Z" fill="#919191" />
<path d="M 153.62 26.13 C 153.86 26.86 154.10 27.59 154.33 28.33 C 153.40 32.56 152.53 36.80 151.94 41.10 C 149.39 38.15 148.53 35.59 148.22 31.72 C 148.16 30.52 148.07 29.31 147.97 28.11 C 149.85 27.45 151.73 26.78 153.62 26.13 Z" fill="#bababa" />
<path d="M 37.49 30.41 C 38.32 31.79 38.78 33.44 39.32 34.95 C 35.94 34.57 32.68 33.96 29.40 33.06 C 30.29 31.85 31.12 30.60 32.00 29.37 C 33.70 29.61 36.07 29.40 37.49 30.41 Z" fill="#acacac" />
<path d="M 154.33 28.33 C 156.61 33.54 155.44 38.65 158.74 43.12 C 156.94 43.02 155.15 42.98 153.35 42.93 C 152.89 42.32 152.42 41.71 151.94 41.10 C 152.53 36.80 153.40 32.56 154.33 28.33 Z" fill="#e6e6e6" />
<path d="M 44.39 30.24 C 46.92 29.63 49.26 31.45 50.41 33.58 C 52.72 37.88 52.69 43.79 49.90 47.86 C 48.15 50.48 44.45 51.03 42.10 48.88 C 39.18 46.12 38.69 41.10 39.37 37.35 C 39.91 34.49 41.34 31.13 44.39 30.24 Z" fill="#ababab" />
<path d="M 148.22 31.72 C 148.53 35.59 149.39 38.15 151.94 41.10 C 152.42 41.71 152.89 42.32 153.35 42.93 C 155.25 47.34 156.78 51.87 159.08 56.11 C 160.59 54.07 162.12 52.03 163.52 49.92 C 162.61 53.28 161.72 56.63 160.56 59.91 C 161.28 60.06 161.99 60.21 162.71 60.36 C 162.06 61.47 161.35 62.25 161.61 63.63 C 162.09 67.80 163.44 71.90 164.45 75.96 C 166.84 73.29 169.26 70.62 171.48 67.81 C 170.18 72.18 167.92 75.97 165.79 79.96 C 165.22 84.97 166.20 90.28 166.77 95.27 C 169.52 93.47 172.34 91.78 175.09 89.97 C 173.38 93.12 171.58 95.58 169.08 98.15 C 167.50 99.72 166.72 101.46 166.18 103.59 C 164.86 108.15 163.58 112.74 162.56 117.36 C 165.80 116.17 169.07 115.13 172.40 114.25 C 168.82 118.00 164.49 120.32 161.77 124.90 C 161.33 124.05 160.88 123.22 160.41 122.40 C 158.39 126.41 156.30 130.24 153.19 133.53 C 150.61 126.06 148.94 118.13 144.55 111.42 C 143.16 109.35 141.19 106.93 138.74 106.15 C 134.33 105.46 129.73 108.45 128.89 112.93 C 126.90 122.17 129.36 132.35 126.79 141.77 C 125.34 147.40 121.76 151.55 119.83 156.84 C 118.76 159.76 119.23 162.73 119.43 165.76 C 124.36 165.05 129.10 163.35 134.03 162.73 C 139.41 162.11 144.29 165.84 149.03 167.87 C 153.28 169.86 157.55 170.07 162.12 170.57 C 160.31 171.63 158.20 173.47 156.02 173.24 C 148.10 172.76 142.26 166.19 134.01 166.88 C 128.44 167.41 123.00 168.75 117.38 169.02 C 117.22 169.54 117.06 170.07 116.90 170.60 C 114.37 170.47 111.70 170.03 109.18 170.32 C 107.16 170.81 105.23 171.98 103.33 172.81 C 103.93 170.89 104.51 168.97 105.07 167.04 C 97.44 166.95 89.95 168.14 82.31 167.55 C 83.08 164.18 84.04 160.87 85.06 157.57 C 89.90 158.60 94.97 160.01 99.67 157.69 C 103.12 156.05 104.42 152.31 104.77 148.75 C 105.10 144.22 104.23 139.53 103.20 135.12 C 111.87 130.62 118.17 123.66 124.06 116.06 C 131.96 106.24 137.52 94.80 139.15 82.23 C 135.80 82.84 132.44 83.46 129.08 84.04 C 130.10 80.78 131.26 77.56 132.36 74.33 C 133.16 73.86 133.95 73.40 134.75 72.94 C 138.10 75.97 141.50 78.95 144.97 81.85 C 145.02 78.26 145.01 74.67 144.90 71.07 C 144.96 69.75 145.07 68.44 145.23 67.14 C 149.87 68.27 154.51 69.45 159.16 70.56 C 156.21 65.80 153.04 61.19 149.49 56.84 L 149.85 56.29 C 152.15 55.75 154.50 55.31 156.83 54.87 C 154.06 52.08 151.18 49.48 148.17 46.97 C 146.87 41.79 147.82 36.93 148.22 31.72 Z" fill="#d0d0d0" />
<path d="M 153.35 42.93 C 155.15 42.98 156.94 43.02 158.74 43.12 C 161.51 43.24 164.07 43.71 166.49 45.13 C 165.47 46.71 164.47 48.30 163.52 49.92 C 162.12 52.03 160.59 54.07 159.08 56.11 C 156.78 51.87 155.25 47.34 153.35 42.93 Z" fill="#b9b9b9" />
<path d="M 166.49 45.13 C 167.80 50.75 165.73 55.32 164.60 60.77 L 162.71 60.36 C 161.99 60.21 161.28 60.06 160.56 59.91 C 161.72 56.63 162.61 53.28 163.52 49.92 C 164.47 48.30 165.47 46.71 166.49 45.13 Z" fill="#e9e9e9" />
<path d="M 148.17 46.97 C 151.18 49.48 154.06 52.08 156.83 54.87 C 154.50 55.31 152.15 55.75 149.85 56.29 C 149.15 53.21 148.65 50.09 148.17 46.97 Z" fill="#f5f5f5" />
<path d="M 30.12 53.04 C 37.23 55.94 44.03 59.58 51.14 62.49 C 49.07 63.74 47.07 65.10 45.05 66.41 C 44.14 64.28 42.98 62.23 41.87 60.21 C 39.97 61.06 38.10 61.97 36.20 62.82 C 36.00 61.00 35.80 59.18 35.59 57.36 C 33.51 57.57 31.44 57.83 29.35 58.04 C 29.59 56.37 29.83 54.70 30.12 53.04 Z" fill="#f6f6f6" />
<path d="M 149.49 56.84 C 153.04 61.19 156.21 65.80 159.16 70.56 C 154.51 69.45 149.87 68.27 145.23 67.14 C 146.25 63.56 147.71 60.10 149.49 56.84 Z" fill="#f5f5f5" />
<path d="M 162.71 60.36 L 164.60 60.77 C 167.87 61.58 171.08 62.56 174.31 63.55 C 173.32 64.94 172.38 66.36 171.48 67.81 C 169.26 70.62 166.84 73.29 164.45 75.96 C 163.44 71.90 162.09 67.80 161.61 63.63 C 161.35 62.25 162.06 61.47 162.71 60.36 Z" fill="#b9b9b9" />
<path d="M 51.14 62.49 L 51.88 62.75 C 52.84 65.32 53.85 67.85 54.97 70.35 C 57.18 68.82 59.34 67.23 61.55 65.72 L 62.99 66.01 C 63.88 69.05 65.04 71.97 66.25 74.90 C 69.64 73.14 72.69 71.16 75.67 68.77 C 76.89 69.71 77.94 70.79 78.89 71.99 C 79.11 74.75 79.44 77.48 79.86 80.21 C 83.42 77.83 86.53 75.24 89.41 72.07 C 89.99 72.14 90.56 72.20 91.13 72.25 C 92.15 76.28 93.85 80.02 95.86 83.64 C 98.67 80.75 101.12 77.75 103.36 74.40 C 104.18 74.47 105.00 74.51 105.82 74.53 C 107.39 78.15 109.00 81.76 110.64 85.35 C 108.74 85.71 106.63 85.96 104.85 86.77 C 103.90 89.29 103.62 92.20 103.31 94.87 C 102.18 93.34 101.03 91.54 99.50 90.39 C 97.33 88.97 94.62 88.20 92.18 87.34 C 93.11 87.07 94.03 86.79 94.95 86.52 C 78.66 81.43 61.27 76.15 45.80 68.67 C 45.56 67.91 45.31 67.16 45.05 66.41 C 47.07 65.10 49.07 63.74 51.14 62.49 Z" fill="#d1d1d1" />
<path d="M 51.88 62.75 C 55.15 63.61 58.35 64.64 61.55 65.72 C 59.34 67.23 57.18 68.82 54.97 70.35 C 53.85 67.85 52.84 65.32 51.88 62.75 Z" fill="#f6f6f6" />
<path d="M 174.31 63.55 C 174.63 65.29 175.05 67.14 174.98 68.91 C 174.09 72.68 170.76 75.94 170.19 79.75 C 171.62 82.19 173.94 84.24 176.01 86.13 C 172.57 84.12 169.13 82.13 165.79 79.96 C 167.92 75.97 170.18 72.18 171.48 67.81 C 172.38 66.36 173.32 64.94 174.31 63.55 Z" fill="#eaeaea" />
<path d="M 62.99 66.01 C 67.23 66.85 71.49 67.68 75.67 68.77 C 72.69 71.16 69.64 73.14 66.25 74.90 C 65.04 71.97 63.88 69.05 62.99 66.01 Z" fill="#f6f6f6" />
<path d="M 143.82 68.33 C 144.21 69.24 144.56 70.15 144.90 71.07 C 145.01 74.67 145.02 78.26 144.97 81.85 C 141.50 78.95 138.10 75.97 134.75 72.94 C 137.68 71.21 140.65 69.59 143.82 68.33 Z" fill="#f5f5f5" />
<path d="M 78.91 69.47 C 82.51 69.99 85.91 71.13 89.41 72.07 C 86.53 75.24 83.42 77.83 79.86 80.21 C 79.44 77.48 79.11 74.75 78.89 71.99 C 78.88 71.15 78.89 70.31 78.91 69.47 Z" fill="#f6f6f6" />
<path d="M 91.13 72.25 C 95.33 72.40 99.32 73.39 103.36 74.40 C 101.12 77.75 98.67 80.75 95.86 83.64 C 93.85 80.02 92.15 76.28 91.13 72.25 Z" fill="#f5f5f5" />
<path d="M 132.36 74.33 C 131.26 77.56 130.10 80.78 129.08 84.04 C 132.44 83.46 135.80 82.84 139.15 82.23 C 137.52 94.80 131.96 106.24 124.06 116.06 C 118.17 123.66 111.87 130.62 103.20 135.12 C 101.77 131.45 99.58 126.98 95.96 125.04 C 92.10 123.15 87.19 123.49 83.41 121.53 C 80.70 119.77 78.84 116.36 77.07 113.72 C 78.96 112.71 80.85 111.72 82.72 110.68 C 81.48 109.92 80.23 109.16 78.98 108.40 C 81.16 107.92 83.80 107.80 85.74 106.64 C 88.43 104.33 89.93 100.32 91.43 97.17 C 93.31 97.77 95.22 98.24 97.18 98.49 C 92.60 101.79 89.09 106.02 85.65 110.43 C 87.93 114.18 89.78 118.37 94.34 119.73 C 98.69 121.25 103.77 117.51 108.00 118.80 C 109.77 119.23 111.52 119.85 113.23 120.45 C 110.91 118.65 108.27 116.84 106.46 114.50 C 105.96 109.43 107.06 104.33 106.27 99.21 C 113.21 100.57 120.29 101.80 127.37 101.98 C 120.16 95.53 112.21 96.47 103.31 94.87 C 103.62 92.20 103.90 89.29 104.85 86.77 C 106.63 85.96 108.74 85.71 110.64 85.35 C 109.00 81.76 107.39 78.15 105.82 74.53 C 109.94 74.49 114.02 74.65 118.12 75.11 C 116.09 78.76 113.98 82.37 111.97 86.03 C 116.75 86.13 121.27 85.78 125.96 84.87 C 124.41 81.50 122.76 78.18 121.07 74.88 C 124.98 74.18 128.49 72.86 132.36 74.33 Z" fill="#ececec" />
<path d="M 165.79 79.96 C 169.13 82.13 172.57 84.12 176.01 86.13 L 177.15 87.13 C 176.45 88.07 175.77 89.02 175.09 89.97 C 172.34 91.78 169.52 93.47 166.77 95.27 C 166.20 90.28 165.22 84.97 165.79 79.96 Z" fill="#b9b9b9" />
<path d="M 41.34 81.63 C 42.82 86.00 45.57 90.72 43.25 95.31 C 41.16 99.52 39.39 103.05 39.69 107.93 C 37.74 106.51 35.76 105.14 33.75 103.82 C 33.87 99.51 32.93 95.39 31.65 91.31 C 28.52 92.91 25.65 94.86 22.77 96.87 C 24.47 91.56 26.20 85.42 31.26 82.30 C 34.53 80.24 37.79 80.92 41.34 81.63 Z" fill="#d3d3d3" />
<path d="M 41.34 81.63 C 44.85 83.89 46.82 86.83 47.25 91.04 C 47.94 95.77 43.77 100.48 43.41 104.88 C 43.56 109.27 47.05 113.30 50.81 115.25 C 53.82 116.89 57.03 116.41 60.23 115.74 C 58.78 116.89 57.38 118.13 55.99 119.36 C 58.62 125.08 61.45 130.69 64.81 136.02 C 64.74 130.78 63.47 126.64 61.11 122.02 C 66.05 121.65 70.81 120.91 75.45 119.09 C 77.28 120.79 79.08 122.53 80.89 124.26 C 77.21 126.71 73.24 128.93 70.37 132.35 C 68.24 134.88 66.40 137.68 64.43 140.35 C 56.57 136.84 48.54 133.91 43.75 126.25 C 39.87 119.85 35.64 113.06 33.74 105.77 L 33.75 103.82 C 35.76 105.14 37.74 106.51 39.69 107.93 C 39.39 103.05 41.16 99.52 43.25 95.31 C 45.57 90.72 42.82 86.00 41.34 81.63 Z" fill="#ededed" />
<path d="M 177.15 87.13 C 178.19 88.46 179.16 89.83 178.59 91.60 C 176.97 95.55 172.15 98.11 170.78 102.10 C 170.80 106.51 175.71 110.44 175.81 114.82 C 175.58 119.08 169.05 120.91 166.32 123.53 C 165.74 127.71 168.21 132.26 167.42 136.35 C 165.90 138.90 162.81 140.68 160.48 142.43 C 162.01 147.30 165.13 151.00 167.60 155.33 C 170.85 161.22 168.75 168.06 165.36 173.35 C 163.68 176.00 161.14 177.67 157.95 177.72 C 150.95 177.85 144.96 173.40 138.55 171.48 C 133.10 169.88 127.55 172.16 122.23 173.24 C 118.62 174.05 115.18 173.67 111.55 173.75 C 107.92 173.71 104.67 177.12 101.15 176.72 C 98.03 176.55 95.09 176.16 92.05 177.10 C 87.13 178.53 82.02 178.55 77.10 179.97 C 70.27 181.96 63.08 181.35 55.96 181.14 C 51.97 180.90 46.69 180.36 43.73 177.35 C 42.09 174.72 42.05 171.08 40.79 168.21 C 37.23 166.70 32.78 166.51 29.37 164.65 C 27.38 163.47 25.79 161.58 26.25 159.12 C 27.13 154.80 29.07 150.74 30.13 146.44 C 27.28 144.78 23.32 143.31 21.35 140.58 C 20.84 137.30 21.43 133.76 21.68 130.46 C 19.54 128.44 16.70 126.33 15.41 123.63 C 15.46 120.44 17.09 117.15 18.12 114.15 C 16.58 111.70 14.73 109.18 13.75 106.44 C 13.23 105.14 14.17 103.51 14.68 102.32 C 17.74 105.47 20.99 108.31 24.65 110.73 C 22.38 114.06 19.91 117.16 17.21 120.15 C 17.74 120.84 18.26 121.53 18.79 122.22 C 21.06 125.24 23.55 128.06 26.06 130.88 C 24.97 132.90 23.80 134.87 22.75 136.92 L 23.92 137.95 C 27.04 140.82 30.50 143.15 34.14 145.29 C 32.98 149.76 30.98 153.61 28.25 157.30 C 28.69 158.00 29.13 158.70 29.59 159.39 C 30.69 161.02 31.73 162.47 33.74 162.98 C 38.14 164.27 42.57 165.10 46.72 167.16 L 46.60 168.18 C 45.80 169.21 44.94 170.19 44.09 171.19 C 45.23 173.42 46.10 176.22 48.70 177.14 C 52.16 178.47 56.28 178.59 59.96 178.76 C 65.30 178.86 70.57 179.25 75.70 177.54 C 79.45 176.29 83.19 175.19 87.06 174.33 L 87.72 174.17 C 92.30 173.36 96.90 173.23 101.54 173.02 C 102.14 172.97 102.74 172.90 103.33 172.81 C 105.23 171.98 107.16 170.81 109.18 170.32 C 111.70 170.03 114.37 170.47 116.90 170.60 C 123.51 171.07 129.41 167.87 135.86 168.14 C 142.49 168.85 148.35 173.87 155.16 174.73 C 157.94 175.08 160.66 174.87 162.49 172.50 C 165.88 167.98 167.91 162.08 165.29 156.68 C 162.63 151.15 158.49 146.46 155.72 140.95 C 159.11 138.90 162.65 136.84 165.79 134.43 L 165.46 133.35 C 164.42 130.44 163.19 127.64 161.77 124.90 C 164.49 120.32 168.82 118.00 172.40 114.25 C 172.93 113.72 173.46 113.18 173.99 112.65 C 171.57 109.47 169.05 106.38 166.18 103.59 C 166.72 101.46 167.50 99.72 169.08 98.15 C 171.58 95.58 173.38 93.12 175.09 89.97 C 175.77 89.02 176.45 88.07 177.15 87.13 Z" fill="#ebebeb" />
<path d="M 31.65 91.31 C 32.93 95.39 33.87 99.51 33.75 103.82 L 33.74 105.77 C 33.53 110.46 34.96 114.41 35.91 119.01 C 36.89 123.61 39.73 127.39 41.20 131.89 C 42.48 135.86 45.47 137.82 47.80 141.07 C 49.67 143.47 50.73 145.92 53.66 147.22 C 57.25 148.95 60.61 150.53 63.04 153.85 C 63.96 155.53 64.89 157.21 65.81 158.89 C 59.68 162.01 53.44 167.08 46.60 168.18 L 46.72 167.16 C 46.84 165.23 46.89 163.31 46.94 161.38 C 40.94 161.83 35.37 160.91 29.59 159.39 C 29.13 158.70 28.69 158.00 28.25 157.30 C 30.98 153.61 32.98 149.76 34.14 145.29 C 34.68 143.39 35.17 141.48 35.66 139.56 C 31.74 139.10 27.82 138.58 23.92 137.95 L 22.75 136.92 C 23.80 134.87 24.97 132.90 26.06 130.88 C 27.02 129.08 27.91 127.24 28.78 125.40 C 25.48 124.26 22.16 123.16 18.79 122.22 C 18.26 121.53 17.74 120.84 17.21 120.15 C 19.91 117.16 22.38 114.06 24.65 110.73 C 20.99 108.31 17.74 105.47 14.68 102.32 C 17.38 100.50 20.13 98.77 22.77 96.87 C 25.65 94.86 28.52 92.91 31.65 91.31 Z" fill="#bbbbbb" />
<path d="M 106.27 99.21 C 107.06 104.33 105.96 109.43 106.46 114.50 C 108.27 116.84 110.91 118.65 113.23 120.45 C 111.52 119.85 109.77 119.23 108.00 118.80 C 103.77 117.51 98.69 121.25 94.34 119.73 C 89.78 118.37 87.93 114.18 85.65 110.43 C 89.09 106.02 92.60 101.79 97.18 98.49 C 100.36 98.26 103.18 98.47 106.27 99.21 Z" fill="#c6c6c6" />
<path d="M 166.18 103.59 C 169.05 106.38 171.57 109.47 173.99 112.65 C 173.46 113.18 172.93 113.72 172.40 114.25 C 169.07 115.13 165.80 116.17 162.56 117.36 C 163.58 112.74 164.86 108.15 166.18 103.59 Z" fill="#b9b9b9" />
<path d="M 33.74 105.77 C 35.64 113.06 39.87 119.85 43.75 126.25 C 48.54 133.91 56.57 136.84 64.43 140.35 C 63.46 144.81 62.73 149.25 63.04 153.85 C 60.61 150.53 57.25 148.95 53.66 147.22 C 50.73 145.92 49.67 143.47 47.80 141.07 C 45.47 137.82 42.48 135.86 41.20 131.89 C 39.73 127.39 36.89 123.61 35.91 119.01 C 34.96 114.41 33.53 110.46 33.74 105.77 Z" fill="#d1d1d1" />
<path d="M 138.74 106.15 C 141.19 106.93 143.16 109.35 144.55 111.42 C 148.94 118.13 150.61 126.06 153.19 133.53 C 154.43 134.84 155.88 135.88 157.36 136.92 C 157.05 136.03 156.74 135.15 156.43 134.27 C 159.50 134.26 162.46 133.98 165.46 133.35 L 165.79 134.43 C 162.65 136.84 159.11 138.90 155.72 140.95 C 158.49 146.46 162.63 151.15 165.29 156.68 C 167.91 162.08 165.88 167.98 162.49 172.50 C 160.66 174.87 157.94 175.08 155.16 174.73 C 148.35 173.87 142.49 168.85 135.86 168.14 C 129.41 167.87 123.51 171.07 116.90 170.60 C 117.06 170.07 117.22 169.54 117.38 169.02 C 123.00 168.75 128.44 167.41 134.01 166.88 C 142.26 166.19 148.10 172.76 156.02 173.24 C 158.20 173.47 160.31 171.63 162.12 170.57 C 157.55 170.07 153.28 169.86 149.03 167.87 C 144.29 165.84 139.41 162.11 134.03 162.73 C 129.10 163.35 124.36 165.05 119.43 165.76 C 119.23 162.73 118.76 159.76 119.83 156.84 C 121.76 151.55 125.34 147.40 126.79 141.77 C 129.36 132.35 126.90 122.17 128.89 112.93 C 129.73 108.45 134.33 105.46 138.74 106.15 Z" fill="#d8d8d8" />
<path d="M 77.07 113.72 C 78.84 116.36 80.70 119.77 83.41 121.53 C 87.19 123.49 92.10 123.15 95.96 125.04 C 99.58 126.98 101.77 131.45 103.20 135.12 C 104.23 139.53 105.10 144.22 104.77 148.75 C 104.42 152.31 103.12 156.05 99.67 157.69 C 94.97 160.01 89.90 158.60 85.06 157.57 C 84.04 160.87 83.08 164.18 82.31 167.55 C 82.02 168.73 81.77 169.91 81.54 171.10 C 83.40 172.14 85.24 173.21 87.06 174.33 C 83.19 175.19 79.45 176.29 75.70 177.54 C 70.57 179.25 65.30 178.86 59.96 178.76 C 56.28 178.59 52.16 178.47 48.70 177.14 C 46.10 176.22 45.23 173.42 44.09 171.19 C 44.94 170.19 45.80 169.21 46.60 168.18 C 53.44 167.08 59.68 162.01 65.81 158.89 C 64.89 157.21 63.96 155.53 63.04 153.85 C 62.73 149.25 63.46 144.81 64.43 140.35 C 66.40 137.68 68.24 134.88 70.37 132.35 C 73.24 128.93 77.21 126.71 80.89 124.26 C 79.08 122.53 77.28 120.79 75.45 119.09 C 72.94 116.69 70.21 114.72 66.92 113.52 C 70.32 112.99 73.68 113.27 77.07 113.72 Z" fill="#d8d8d8" />
<path d="M 66.92 113.52 C 70.21 114.72 72.94 116.69 75.45 119.09 C 70.81 120.91 66.05 121.65 61.11 122.02 C 63.47 126.64 64.74 130.78 64.81 136.02 C 61.45 130.69 58.62 125.08 55.99 119.36 C 57.38 118.13 58.78 116.89 60.23 115.74 C 62.40 114.90 64.64 114.03 66.92 113.52 Z" fill="#c7c7c7" />
<path d="M 18.79 122.22 C 22.16 123.16 25.48 124.26 28.78 125.40 C 27.91 127.24 27.02 129.08 26.06 130.88 C 23.55 128.06 21.06 125.24 18.79 122.22 Z" fill="#d3d3d3" />
<path d="M 160.41 122.40 C 160.88 123.22 161.33 124.05 161.77 124.90 C 163.19 127.64 164.42 130.44 165.46 133.35 C 162.46 133.98 159.50 134.26 156.43 134.27 C 156.74 135.15 157.05 136.03 157.36 136.92 C 155.88 135.88 154.43 134.84 153.19 133.53 C 156.30 130.24 158.39 126.41 160.41 122.40 Z" fill="#b9b9b9" />
<path d="M 23.92 137.95 C 27.82 138.58 31.74 139.10 35.66 139.56 C 35.17 141.48 34.68 143.39 34.14 145.29 C 30.50 143.15 27.04 140.82 23.92 137.95 Z" fill="#d0d0d0" />
<path d="M 29.59 159.39 C 35.37 160.91 40.94 161.83 46.94 161.38 C 46.89 163.31 46.84 165.23 46.72 167.16 C 42.57 165.10 38.14 164.27 33.74 162.98 C 31.73 162.47 30.69 161.02 29.59 159.39 Z" fill="#d0d0d0" />
<path d="M 82.31 167.55 C 89.95 168.14 97.44 166.95 105.07 167.04 C 104.51 168.97 103.93 170.89 103.33 172.81 C 102.74 172.90 102.14 172.97 101.54 173.02 C 99.77 171.32 98.77 169.46 95.99 169.61 C 91.99 169.31 90.31 171.75 87.72 174.17 L 87.06 174.33 C 85.24 173.21 83.40 172.14 81.54 171.10 C 81.77 169.91 82.02 168.73 82.31 167.55 Z" fill="#b9b9b9" />
<path d="M 95.99 169.61 C 98.77 169.46 99.77 171.32 101.54 173.02 C 96.90 173.23 92.30 173.36 87.72 174.17 C 90.31 171.75 91.99 169.31 95.99 169.61 Z" fill="#d7d7d7" />
<path d="M 76.52 174.51 C 74.73 175.60 73.10 176.61 70.93 176.63 C 63.95 177.00 56.76 176.93 49.88 175.53 C 58.28 172.95 67.87 173.79 76.52 174.51 Z" fill="#c5c5c5" /></svg>