<?xml version="1.0" encoding="UTF-8" standalone="no"?>
<!DOCTYPE svg PUBLIC "-//W3C//DTD SVG 1.1//EN" "http://www.w3.org/Graphics/SVG/1.1/DTD/svg11.dtd">
<svg viewBox="0 0 192 192" height="192.0pt" width="192.0pt" xmlns="http://www.w3.org/2000/svg" version="1.1">
<path d="M 32.57 14.73 C 40.93 14.78 50.18 14.94 58.12 17.84 C 63.10 19.67 66.22 23.12 70.44 26.05 C 65.04 27.65 60.66 30.13 54.91 29.97 C 51.70 30.15 47.18 29.13 44.75 31.69 C 41.75 34.37 42.08 39.43 45.13 41.92 C 48.30 44.52 53.72 44.52 57.00 42.16 C 59.04 39.35 58.90 34.60 60.76 31.66 C 63.42 29.41 67.63 28.80 71.00 28.90 C 73.77 28.75 75.75 31.93 77.67 33.58 C 77.59 32.31 77.50 31.05 77.39 29.79 C 80.54 35.49 80.05 42.05 79.08 48.26 C 77.49 58.43 72.11 66.75 72.03 77.26 C 75.02 76.13 77.84 75.50 80.11 73.07 C 85.08 67.84 86.91 60.34 91.70 54.72 C 95.26 50.44 99.77 46.46 105.80 47.97 C 112.68 49.50 116.94 57.66 120.66 63.03 C 123.84 60.41 126.94 57.73 129.97 54.95 C 132.18 52.89 134.86 51.56 137.94 51.88 C 141.37 52.33 144.69 54.37 147.31 56.54 C 149.95 60.72 152.34 65.14 154.44 69.62 C 157.15 75.45 158.33 81.17 161.63 86.42 C 164.06 90.29 167.02 93.77 169.34 97.73 C 172.82 103.51 174.61 110.12 176.76 116.51 C 177.85 120.12 179.24 124.02 177.97 127.77 C 175.89 133.94 171.58 138.06 171.02 144.93 C 170.51 153.06 171.03 161.33 171.24 169.48 C 170.35 165.43 169.64 160.28 166.95 156.99 C 160.90 152.54 153.97 155.16 147.67 157.45 C 147.27 151.95 147.19 146.48 147.31 140.97 C 147.22 137.21 147.46 133.19 144.51 130.37 C 141.55 127.29 137.55 127.64 133.62 127.71 C 126.10 128.18 118.58 128.84 111.06 129.40 C 110.95 130.66 110.85 131.93 110.74 133.20 C 118.00 131.74 126.99 129.96 134.21 132.25 C 136.93 133.15 137.13 135.73 137.51 138.19 C 138.08 144.69 137.93 151.28 137.68 157.80 C 137.23 164.35 136.23 170.86 135.66 177.41 C 147.50 180.38 160.31 180.21 172.15 177.31 C 171.17 178.49 170.50 180.58 168.94 180.98 C 165.21 182.15 160.88 181.86 157.00 181.92 C 151.81 181.82 146.51 182.17 141.36 181.54 C 139.30 181.23 136.52 180.55 135.52 178.50 C 134.83 175.87 135.13 172.88 135.27 170.19 C 136.05 161.14 136.06 152.02 135.76 142.95 C 135.47 139.86 135.27 135.46 131.59 134.52 C 126.68 133.26 121.17 133.50 116.23 134.49 C 112.69 135.16 111.43 138.12 110.06 141.06 C 106.43 149.16 107.22 159.64 107.26 168.40 C 106.41 164.61 105.59 159.93 103.06 156.87 C 96.73 152.47 90.03 154.95 83.68 157.74 C 83.76 156.68 83.84 155.62 83.91 154.56 C 85.14 144.45 80.09 137.48 78.47 127.80 C 75.55 128.45 72.69 129.38 69.92 130.50 C 74.17 128.02 77.31 124.51 80.55 120.91 C 74.84 119.68 68.49 119.14 63.96 115.04 C 58.27 110.09 55.74 102.19 53.82 95.13 C 51.30 85.13 49.44 74.34 50.20 64.01 C 50.55 58.94 50.52 53.98 50.08 48.91 C 47.76 50.84 45.49 52.74 43.40 54.92 C 38.56 53.31 33.65 51.45 28.64 50.49 C 26.26 50.13 24.10 49.65 21.90 50.94 C 20.87 51.58 19.27 51.25 18.61 52.31 C 26.27 53.60 33.76 54.45 40.85 57.86 C 40.25 58.59 39.65 59.33 39.06 60.08 C 34.22 57.57 29.69 56.30 24.27 55.69 C 20.88 55.07 16.31 54.84 14.86 51.06 C 13.21 46.70 14.67 40.99 15.45 36.55 C 17.14 35.02 18.92 33.58 20.69 32.14 C 21.51 34.39 22.34 36.65 23.20 38.89 C 21.08 38.65 18.96 38.42 16.84 38.19 C 16.75 40.81 16.68 43.43 16.61 46.05 C 23.25 46.74 30.22 48.31 36.88 47.75 C 39.30 47.73 41.06 44.87 42.63 43.33 C 37.35 41.09 32.29 39.73 26.60 39.01 C 28.96 36.94 31.32 34.87 33.67 32.78 C 32.38 31.56 30.97 30.49 29.56 29.42 C 27.78 29.07 25.79 29.44 24.02 29.73 C 28.16 27.31 32.85 26.38 37.08 24.30 C 37.88 20.24 34.64 17.75 32.57 14.73 Z" fill="#dbdbdb" />
<path d="M 70.44 26.05 C 72.54 26.95 76.39 27.51 77.39 29.79 C 77.50 31.05 77.59 32.31 77.67 33.58 C 75.75 31.93 73.77 28.75 71.00 28.90 C 67.63 28.80 63.42 29.41 60.76 31.66 C 58.90 34.60 59.04 39.35 57.00 42.16 C 53.72 44.52 48.30 44.52 45.13 41.92 C 42.08 39.43 41.75 34.37 44.75 31.69 C 47.18 29.13 51.70 30.15 54.91 29.97 C 60.66 30.13 65.04 27.65 70.44 26.05 Z" fill="#cbcbcb" />
<path d="M 29.56 29.42 C 30.97 30.49 32.38 31.56 33.67 32.78 C 31.32 34.87 28.96 36.94 26.60 39.01 C 32.29 39.73 37.35 41.09 42.63 43.33 C 41.06 44.87 39.30 47.73 36.88 47.75 C 30.22 48.31 23.25 46.74 16.61 46.05 C 16.68 43.43 16.75 40.81 16.84 38.19 C 18.96 38.42 21.08 38.65 23.20 38.89 C 22.34 36.65 21.51 34.39 20.69 32.14 C 21.76 31.30 22.87 30.45 24.02 29.73 C 25.79 29.44 27.78 29.07 29.56 29.42 Z" fill="#b5b5b5" />
<path d="M 47.37 31.29 C 49.83 30.30 52.98 30.25 55.36 31.51 C 57.51 33.11 57.57 36.98 56.21 39.11 C 54.60 41.24 50.85 41.38 48.52 40.56 C 44.77 39.28 44.47 33.59 47.37 31.29 Z" fill="#979797" />
<path d="M 15.45 36.55 C 14.67 40.99 13.21 46.70 14.86 51.06 C 16.31 54.84 20.88 55.07 24.27 55.69 C 29.69 56.30 34.22 57.57 39.06 60.08 C 39.65 59.33 40.25 58.59 40.85 57.86 C 41.68 56.86 42.52 55.88 43.40 54.92 C 45.49 52.74 47.76 50.84 50.08 48.91 C 50.52 53.98 50.55 58.94 50.20 64.01 C 49.44 74.34 51.30 85.13 53.82 95.13 C 55.74 102.19 58.27 110.09 63.96 115.04 C 68.49 119.14 74.84 119.68 80.55 120.91 C 77.31 124.51 74.17 128.02 69.92 130.50 C 68.81 130.97 67.68 131.39 66.53 131.77 C 60.99 131.74 54.55 131.55 49.87 128.19 C 43.39 123.60 38.81 116.84 36.51 109.28 C 33.58 100.51 32.99 91.77 32.37 82.61 C 31.68 93.41 32.20 104.83 35.91 115.09 C 38.61 122.67 43.83 130.06 50.90 134.09 C 56.29 137.15 62.81 136.06 68.00 138.10 C 71.31 140.08 72.02 145.45 72.19 148.94 C 72.31 155.46 72.28 161.92 72.86 168.42 C 72.55 171.40 72.18 174.37 71.83 177.34 L 72.32 177.96 C 73.43 179.23 74.56 181.28 76.37 181.48 C 81.45 182.36 86.84 181.84 91.99 181.96 C 96.28 181.89 101.00 182.30 105.17 181.16 C 107.14 180.67 107.49 178.91 108.30 177.31 C 108.03 174.33 107.61 171.37 107.26 168.40 C 107.22 159.64 106.43 149.16 110.06 141.06 C 111.43 138.12 112.69 135.16 116.23 134.49 C 121.17 133.50 126.68 133.26 131.59 134.52 C 135.27 135.46 135.47 139.86 135.76 142.95 C 136.06 152.02 136.05 161.14 135.27 170.19 C 135.13 172.88 134.83 175.87 135.52 178.50 C 136.52 180.55 139.30 181.23 141.36 181.54 C 146.51 182.17 151.81 181.82 157.00 181.92 C 160.88 181.86 165.21 182.15 168.94 180.98 C 170.50 180.58 171.17 178.49 172.15 177.31 C 171.90 174.70 171.54 172.09 171.24 169.48 C 171.03 161.33 170.51 153.06 171.02 144.93 C 171.58 138.06 175.89 133.94 177.97 127.77 C 179.24 124.02 177.85 120.12 176.76 116.51 C 174.61 110.12 172.82 103.51 169.34 97.73 C 167.02 93.77 164.06 90.29 161.63 86.42 C 158.33 81.17 157.15 75.45 154.44 69.62 C 152.34 65.14 149.95 60.72 147.31 56.54 C 149.95 58.70 152.40 60.95 154.20 63.88 C 157.86 69.75 159.58 76.71 162.41 82.83 C 165.47 89.52 170.53 94.64 173.76 101.30 C 177.02 108.33 180.03 116.20 180.32 124.01 C 180.48 132.02 174.01 136.37 173.35 143.96 C 172.88 150.27 173.11 156.69 173.43 163.01 C 173.66 167.78 175.02 172.77 174.54 177.51 C 174.18 180.64 171.85 182.37 168.97 183.11 C 162.56 184.71 155.53 184.39 148.96 184.30 C 144.56 184.05 139.20 183.95 135.29 181.73 C 132.46 180.10 132.89 175.91 132.91 173.13 C 133.79 163.09 133.97 153.02 133.71 142.95 C 133.53 140.91 133.37 137.75 131.56 136.42 C 128.77 134.94 124.82 135.35 121.77 135.60 C 118.36 136.15 114.59 136.26 112.84 139.75 C 108.61 147.23 108.64 157.39 109.75 165.67 C 110.19 169.89 111.63 175.05 110.36 179.17 C 109.24 182.15 106.09 182.93 103.29 183.52 C 96.98 184.61 90.39 184.44 84.01 184.20 C 80.13 183.93 75.59 183.72 72.09 181.89 C 69.59 180.52 69.58 176.52 69.56 174.05 C 69.92 164.65 72.26 155.31 70.21 145.62 C 69.62 143.25 68.46 140.14 65.92 139.28 C 60.35 137.46 54.07 138.53 49.00 135.04 C 42.06 130.19 36.45 123.12 33.85 115.01 C 30.24 104.72 30.64 94.70 30.77 83.96 C 30.81 75.51 34.04 68.62 36.12 60.26 C 31.80 58.67 27.56 57.64 22.97 57.25 C 20.11 56.81 16.59 56.82 14.62 54.36 C 10.57 49.11 10.06 41.15 15.45 36.55 Z" fill="#f4f4f4" />
<path d="M 28.64 50.49 C 33.65 51.45 38.56 53.31 43.40 54.92 C 42.52 55.88 41.68 56.86 40.85 57.86 C 33.76 54.45 26.27 53.60 18.61 52.31 C 19.27 51.25 20.87 51.58 21.90 50.94 C 24.10 49.65 26.26 50.13 28.64 50.49 Z" fill="#cbcbcb" />
<path d="M 32.37 82.61 C 32.99 91.77 33.58 100.51 36.51 109.28 C 38.81 116.84 43.39 123.60 49.87 128.19 C 54.55 131.55 60.99 131.74 66.53 131.77 C 61.15 133.96 56.19 132.88 50.75 131.71 C 56.27 133.57 61.94 134.23 67.61 135.38 C 70.90 136.00 72.77 138.25 73.54 141.39 C 74.76 147.01 74.51 153.04 74.12 158.74 C 73.85 161.99 73.30 165.20 72.86 168.42 C 72.28 161.92 72.31 155.46 72.19 148.94 C 72.02 145.45 71.31 140.08 68.00 138.10 C 62.81 136.06 56.29 137.15 50.90 134.09 C 43.83 130.06 38.61 122.67 35.91 115.09 C 32.20 104.83 31.68 93.41 32.37 82.61 Z" fill="#d7d7d7" />
<path d="M 78.47 127.80 C 80.09 137.48 85.14 144.45 83.91 154.56 C 80.42 155.55 77.22 156.86 74.12 158.74 C 74.51 153.04 74.76 147.01 73.54 141.39 C 72.77 138.25 70.90 136.00 67.61 135.38 C 61.94 134.23 56.27 133.57 50.75 131.71 C 56.19 132.88 61.15 133.96 66.53 131.77 C 67.68 131.39 68.81 130.97 69.92 130.50 C 72.69 129.38 75.55 128.45 78.47 127.80 Z" fill="#c7c7c7" />
<path d="M 133.62 127.71 C 137.55 127.64 141.55 127.29 144.51 130.37 C 147.46 133.19 147.22 137.21 147.31 140.97 C 147.19 146.48 147.27 151.95 147.67 157.45 C 153.97 155.16 160.90 152.54 166.95 156.99 C 169.64 160.28 170.35 165.43 171.24 169.48 C 171.54 172.09 171.90 174.70 172.15 177.31 C 160.31 180.21 147.50 180.38 135.66 177.41 C 138.86 177.25 142.05 177.13 145.25 177.05 C 146.24 169.55 147.17 162.11 147.00 154.52 C 143.90 155.62 140.79 156.72 137.68 157.80 C 137.93 151.28 138.08 144.69 137.51 138.19 C 137.13 135.73 136.93 133.15 134.21 132.25 C 126.99 129.96 118.00 131.74 110.74 133.20 C 110.85 131.93 110.95 130.66 111.06 129.40 C 118.58 128.84 126.10 128.18 133.62 127.71 Z" fill="#c6c6c6" />
<path d="M 103.06 156.87 C 105.59 159.93 106.41 164.61 107.26 168.40 C 107.61 171.37 108.03 174.33 108.30 177.31 C 96.65 180.85 84.16 180.17 72.32 177.96 L 71.83 177.34 C 74.99 177.18 78.15 177.11 81.31 177.05 C 82.02 170.59 83.15 164.21 83.68 157.74 C 90.03 154.95 96.73 152.47 103.06 156.87 Z" fill="#c6c6c6" />
<path d="M 83.91 154.56 C 83.84 155.62 83.76 156.68 83.68 157.74 C 83.15 164.21 82.02 170.59 81.31 177.05 C 78.15 177.11 74.99 177.18 71.83 177.34 C 72.18 174.37 72.55 171.40 72.86 168.42 C 73.30 165.20 73.85 161.99 74.12 158.74 C 77.22 156.86 80.42 155.55 83.91 154.56 Z" fill="#aeaeae" />
<path d="M 147.00 154.52 C 147.17 162.11 146.24 169.55 145.25 177.05 C 142.05 177.13 138.86 177.25 135.66 177.41 C 136.23 170.86 137.23 164.35 137.68 157.80 C 140.79 156.72 143.90 155.62 147.00 154.52 Z" fill="#aeaeae" />
<path d="M 108.30 177.31 C 107.49 178.91 107.14 180.67 105.17 181.16 C 101.00 182.30 96.28 181.89 91.99 181.96 C 86.84 181.84 81.45 182.36 76.37 181.48 C 74.56 181.28 73.43 179.23 72.32 177.96 C 84.16 180.17 96.65 180.85 108.30 177.31 Z" fill="#dcdcdc" /></svg>