<?xml version="1.0" encoding="UTF-8" standalone="no"?>
<!DOCTYPE svg PUBLIC "-//W3C//DTD SVG 1.1//EN" "http://www.w3.org/Graphics/SVG/1.1/DTD/svg11.dtd">
<svg viewBox="0 0 192 192" height="192.0pt" width="192.0pt" xmlns="http://www.w3.org/2000/svg" version="1.1">
<path d="M 71.90 16.06 C 83.10 20.08 93.12 26.16 102.42 33.50 C 110.10 34.56 119.01 33.95 126.87 33.83 C 133.35 29.87 138.46 24.40 145.94 21.84 C 140.56 26.39 134.61 29.80 129.36 34.70 C 130.14 34.95 130.91 35.20 131.68 35.46 C 128.89 49.29 121.46 62.36 114.77 74.59 C 113.64 76.06 116.16 76.13 117.00 76.89 C 112.64 76.76 108.46 78.26 106.00 82.00 C 104.92 82.94 104.40 85.35 102.76 83.92 C 102.10 78.47 97.83 72.35 92.32 70.99 C 93.30 77.31 93.00 83.59 93.00 89.95 C 90.00 96.34 86.09 96.46 81.58 91.32 C 80.74 83.50 79.75 76.11 83.77 68.98 C 77.83 68.79 71.54 71.80 68.05 76.64 C 64.64 81.54 69.20 87.81 72.44 91.57 C 77.70 97.14 83.86 97.12 91.02 97.23 C 82.37 102.74 71.37 104.58 62.18 109.32 C 64.97 113.16 69.49 115.72 73.00 118.92 L 70.80 119.31 C 64.10 114.67 57.67 108.54 53.69 101.35 C 52.28 96.94 52.99 91.65 52.53 87.02 C 53.50 81.59 54.48 76.20 55.73 70.83 C 52.29 54.27 50.58 34.09 57.04 18.02 C 60.97 13.57 66.80 14.60 71.90 16.06 Z" fill="#a1a1a1" />
<path d="M 173.00 17.99 C 178.33 31.59 177.69 47.75 176.04 62.01 C 174.87 67.06 173.29 70.43 175.34 75.62 C 177.37 83.65 177.30 91.66 176.82 99.88 C 175.03 104.64 171.13 108.94 167.78 112.72 C 163.04 115.99 159.27 120.24 154.30 123.33 C 153.78 131.88 154.17 140.28 153.06 148.85 C 152.95 152.91 151.85 156.74 151.23 160.73 C 152.14 160.67 153.05 160.59 153.96 160.49 L 155.27 161.13 C 148.73 162.16 150.49 168.65 145.19 172.48 C 146.45 167.37 146.84 161.91 139.75 163.76 C 137.18 158.79 134.81 153.17 131.14 148.92 C 131.24 153.97 132.07 159.10 132.88 164.07 C 130.49 163.99 128.10 163.90 125.71 163.75 C 126.20 159.40 127.09 155.12 127.52 150.77 C 123.65 153.98 121.87 159.70 119.23 163.93 C 117.94 163.49 116.64 163.09 115.36 162.64 C 119.81 153.15 124.51 143.79 128.77 134.18 C 126.59 134.53 124.42 134.99 122.23 135.34 C 117.34 134.86 112.67 134.87 107.77 135.33 C 105.82 135.02 103.87 134.67 101.91 134.43 C 104.66 143.95 110.42 152.68 114.06 161.91 C 113.06 162.70 111.94 163.38 110.87 164.09 C 108.57 160.08 106.48 155.17 103.15 151.94 C 102.74 156.09 103.70 159.93 104.06 164.02 C 101.97 163.96 99.87 163.88 97.78 163.77 C 97.80 158.79 98.96 153.95 98.92 149.00 C 95.66 153.34 93.49 158.14 90.96 162.90 C 83.36 162.65 83.08 166.04 85.14 172.34 L 84.82 173.14 C 79.87 169.02 81.44 163.00 74.74 161.16 L 76.04 160.46 C 76.96 160.57 77.87 160.67 78.79 160.74 C 77.98 156.78 77.01 152.92 76.69 148.87 C 75.62 141.25 76.24 133.63 75.04 125.98 C 75.37 122.33 73.14 121.42 70.80 119.31 L 73.00 118.92 C 85.52 126.59 100.14 133.38 115.00 134.02 C 134.86 133.26 154.38 122.35 168.90 109.32 C 159.09 105.29 148.18 102.50 138.97 97.25 C 148.17 97.54 156.45 95.79 161.01 87.00 C 162.80 84.21 164.25 79.45 161.94 76.63 C 158.49 71.85 152.03 68.61 146.12 69.08 C 149.61 76.36 149.58 83.46 148.33 91.30 C 143.52 96.08 140.43 96.36 136.79 90.22 C 135.72 83.96 135.69 79.74 137.54 73.62 C 137.51 71.98 139.08 70.30 136.33 71.43 C 131.11 73.70 127.77 78.60 127.09 84.23 C 123.66 81.80 121.05 78.57 117.00 76.89 C 116.16 76.13 113.64 76.06 114.77 74.59 C 121.46 62.36 128.89 49.29 131.68 35.46 C 130.91 35.20 130.14 34.95 129.36 34.70 C 134.61 29.80 140.56 26.39 145.94 21.84 C 152.49 18.05 166.85 10.84 173.00 17.99 Z" fill="#9d9d9d" />
<path d="M 57.04 18.02 C 50.58 34.09 52.29 54.27 55.73 70.83 C 54.48 76.20 53.50 81.59 52.53 87.02 C 50.77 85.34 48.88 83.81 47.00 82.26 C 49.14 81.79 50.61 81.72 51.38 79.38 C 54.03 68.85 49.05 61.72 49.98 51.00 C 49.89 41.20 49.22 25.33 57.04 18.02 Z" fill="#e3e3e3" />
<path d="M 173.00 17.99 C 179.98 22.87 179.78 35.30 180.35 42.83 C 183.13 56.20 175.26 69.25 179.26 81.82 C 180.66 92.16 182.99 100.99 175.99 110.00 C 172.28 114.81 172.41 116.99 174.32 122.64 C 176.68 135.22 174.07 149.15 166.73 159.74 C 163.45 164.33 158.41 165.06 154.32 168.31 C 150.84 172.82 148.57 177.37 143.36 180.36 C 135.10 184.61 123.70 183.32 115.00 181.18 C 107.59 183.04 100.20 183.81 92.60 182.47 C 85.50 181.27 81.08 176.39 77.41 170.59 C 74.65 165.60 69.14 165.83 65.22 161.79 C 62.09 159.01 60.76 154.44 56.39 153.63 C 48.31 151.59 40.87 149.22 34.74 143.26 C 25.04 134.10 13.89 121.70 12.12 107.97 C 11.30 101.24 12.64 90.76 18.70 86.62 C 13.53 97.33 13.86 104.92 18.00 115.90 C 18.68 120.85 22.86 125.32 25.68 129.30 C 33.61 139.49 42.64 147.96 55.83 150.27 C 61.27 150.95 63.15 154.93 66.34 158.69 C 69.91 163.09 76.55 163.83 79.58 168.39 C 82.92 174.08 86.63 178.16 93.34 179.61 C 100.72 180.77 107.81 179.95 115.00 178.21 C 123.86 179.86 134.83 182.14 143.00 177.00 C 148.20 174.07 149.19 167.86 154.01 165.04 C 160.88 161.28 167.97 157.51 168.20 148.60 C 172.12 136.78 175.08 123.96 167.78 112.72 C 171.13 108.94 175.03 104.64 176.82 99.88 C 177.30 91.66 177.37 83.65 175.34 75.62 C 173.29 70.43 174.87 67.06 176.04 62.01 C 177.69 47.75 178.33 31.59 173.00 17.99 Z" fill="#e6e6e6" />
<path d="M 86.75 37.69 C 81.53 40.12 76.40 42.21 71.85 45.87 C 69.50 47.82 67.57 50.13 65.09 51.97 C 65.03 46.63 65.62 40.43 67.39 35.38 C 70.40 28.13 82.40 35.00 86.75 37.69 Z" fill="#dcdcdc" />
<path d="M 158.98 31.96 C 161.55 31.60 162.44 34.81 163.30 36.65 C 164.63 41.59 165.33 46.83 164.87 51.94 C 161.39 49.14 158.43 45.85 154.58 43.46 C 151.81 41.29 145.82 39.98 144.16 37.16 C 148.49 34.75 153.98 32.11 158.98 31.96 Z" fill="#dadada" />
<path d="M 83.77 68.98 C 79.75 76.11 80.74 83.50 81.58 91.32 C 74.84 88.09 72.29 82.28 68.05 76.64 C 71.54 71.80 77.83 68.79 83.77 68.98 Z" fill="#e8e8e8" />
<path d="M 146.12 69.08 C 152.03 68.61 158.49 71.85 161.94 76.63 C 157.77 82.48 155.33 88.13 148.33 91.30 C 149.58 83.46 149.61 76.36 146.12 69.08 Z" fill="#e7e7e7" />
<path d="M 92.32 70.99 C 97.83 72.35 102.10 78.47 102.76 83.92 C 99.43 85.89 96.64 88.46 93.00 89.95 C 93.00 83.59 93.30 77.31 92.32 70.99 Z" fill="#e4e4e4" />
<path d="M 136.33 71.43 C 139.08 70.30 137.51 71.98 137.54 73.62 C 135.69 79.74 135.72 83.96 136.79 90.22 C 133.41 88.42 130.54 85.90 127.09 84.23 C 127.77 78.60 131.11 73.70 136.33 71.43 Z" fill="#e6e6e6" />
<path d="M 68.05 76.64 C 72.29 82.28 74.84 88.09 81.58 91.32 C 86.09 96.46 90.00 96.34 93.00 89.95 C 96.64 88.46 99.43 85.89 102.76 83.92 C 104.40 85.35 104.92 82.94 106.00 82.00 C 108.46 78.26 112.64 76.76 117.00 76.89 C 121.05 78.57 123.66 81.80 127.09 84.23 C 130.54 85.90 133.41 88.42 136.79 90.22 C 140.43 96.36 143.52 96.08 148.33 91.30 C 155.33 88.13 157.77 82.48 161.94 76.63 C 164.25 79.45 162.80 84.21 161.01 87.00 C 156.45 95.79 148.17 97.54 138.97 97.25 C 148.18 102.50 159.09 105.29 168.90 109.32 C 154.38 122.35 134.86 133.26 115.00 134.02 C 100.14 133.38 85.52 126.59 73.00 118.92 C 69.49 115.72 64.97 113.16 62.18 109.32 C 71.37 104.58 82.37 102.74 91.02 97.23 C 83.86 97.12 77.70 97.14 72.44 91.57 C 69.20 87.81 64.64 81.54 68.05 76.64 Z" fill="#fcfcfc" />
<path d="M 41.20 79.76 C 37.36 80.02 33.64 80.02 29.80 79.78 C 33.25 78.53 37.74 78.60 41.20 79.76 Z" fill="#c0c0c0" />
<path d="M 29.80 79.78 C 33.64 80.02 37.36 80.02 41.20 79.76 C 43.22 80.42 45.12 81.29 47.00 82.26 C 48.88 83.81 50.77 85.34 52.53 87.02 C 52.99 91.65 52.28 96.94 53.69 101.35 C 57.67 108.54 64.10 114.67 70.80 119.31 C 73.14 121.42 75.37 122.33 75.04 125.98 C 76.24 133.63 75.62 141.25 76.69 148.87 C 68.24 148.90 69.59 157.94 76.04 160.46 L 74.74 161.16 C 68.02 159.08 64.54 154.52 61.54 148.47 C 39.86 146.87 29.63 131.97 18.00 115.90 C 13.86 104.92 13.53 97.33 18.70 86.62 C 21.85 83.42 25.59 81.28 29.80 79.78 Z" fill="#939393" />
<path d="M 125.68 96.33 C 129.66 102.95 124.57 105.93 121.19 110.84 C 125.58 116.45 131.53 109.38 136.83 110.07 C 137.02 112.97 137.80 116.19 135.31 118.32 C 130.28 124.38 121.21 122.32 115.05 119.35 C 109.38 122.32 102.71 123.58 96.98 120.02 C 93.28 118.35 91.15 113.20 94.32 110.24 C 99.29 109.52 104.44 116.38 108.81 110.84 C 106.20 106.81 100.64 103.13 103.78 97.75 C 107.71 91.59 120.78 91.52 125.68 96.33 Z" fill="#9e9e9e" />
<path d="M 36.26 98.74 C 42.41 104.64 37.94 114.67 48.11 117.87 C 52.34 118.70 55.91 117.46 59.83 116.13 C 58.07 122.19 57.90 127.65 57.81 133.90 C 44.97 131.63 35.29 116.22 32.53 104.38 C 31.84 102.05 32.60 95.75 36.26 98.74 Z" fill="#dedede" />
<path d="M 167.78 112.72 C 175.08 123.96 172.12 136.78 168.20 148.60 C 165.70 154.60 161.65 159.24 155.27 161.13 L 153.96 160.49 C 160.06 157.67 161.91 148.70 153.06 148.85 C 154.17 140.28 153.78 131.88 154.30 123.33 C 159.27 120.24 163.04 115.99 167.78 112.72 Z" fill="#8c8c8c" />
<path d="M 18.00 115.90 C 29.63 131.97 39.86 146.87 61.54 148.47 C 64.54 154.52 68.02 159.08 74.74 161.16 C 81.44 163.00 79.87 169.02 84.82 173.14 C 91.85 178.05 98.70 176.92 106.77 177.24 C 111.91 175.57 115.06 173.82 120.40 176.46 C 127.70 177.39 139.70 178.47 145.19 172.48 C 150.49 168.65 148.73 162.16 155.27 161.13 C 161.65 159.24 165.70 154.60 168.20 148.60 C 167.97 157.51 160.88 161.28 154.01 165.04 C 149.19 167.86 148.20 174.07 143.00 177.00 C 134.83 182.14 123.86 179.86 115.00 178.21 C 107.81 179.95 100.72 180.77 93.34 179.61 C 86.63 178.16 82.92 174.08 79.58 168.39 C 76.55 163.83 69.91 163.09 66.34 158.69 C 63.15 154.93 61.27 150.95 55.83 150.27 C 42.64 147.96 33.61 139.49 25.68 129.30 C 22.86 125.32 18.68 120.85 18.00 115.90 Z" fill="#cecece" />
<path d="M 101.91 134.43 C 103.87 134.67 105.82 135.02 107.77 135.33 C 112.51 136.36 117.49 136.36 122.23 135.34 C 124.42 134.99 126.59 134.53 128.77 134.18 C 124.51 143.79 119.81 153.15 115.36 162.64 C 116.64 163.09 117.94 163.49 119.23 163.93 C 117.99 166.13 116.66 168.23 115.00 170.15 C 113.38 168.28 112.07 166.24 110.87 164.09 C 111.94 163.38 113.06 162.70 114.06 161.91 C 110.42 152.68 104.66 143.95 101.91 134.43 Z" fill="#fcfcfc" />
<path d="M 107.77 135.33 C 112.67 134.87 117.34 134.86 122.23 135.34 C 117.49 136.36 112.51 136.36 107.77 135.33 Z" fill="#c8c8c8" />
<path d="M 76.69 148.87 C 77.01 152.92 77.98 156.78 78.79 160.74 C 77.87 160.67 76.96 160.57 76.04 160.46 C 69.59 157.94 68.24 148.90 76.69 148.87 Z" fill="#f8f8f8" />
<path d="M 98.92 149.00 C 98.96 153.95 97.80 158.79 97.78 163.77 C 96.52 167.17 95.66 170.40 96.18 174.06 C 97.98 171.57 98.64 168.37 100.62 166.06 C 102.47 169.19 103.04 173.77 105.88 176.07 C 106.11 171.98 104.90 168.10 104.06 164.02 C 103.70 159.93 102.74 156.09 103.15 151.94 C 106.48 155.17 108.57 160.08 110.87 164.09 C 112.07 166.24 113.38 168.28 115.00 170.15 C 116.66 168.23 117.99 166.13 119.23 163.93 C 121.87 159.70 123.65 153.98 127.52 150.77 C 127.09 155.12 126.20 159.40 125.71 163.75 C 124.80 167.94 123.76 171.78 124.17 176.10 C 126.65 173.40 127.46 169.34 129.33 166.19 C 131.06 168.68 132.14 171.51 133.83 174.04 C 134.24 170.60 133.74 167.39 132.88 164.07 C 132.07 159.10 131.24 153.97 131.14 148.92 C 134.81 153.17 137.18 158.79 139.75 163.76 C 141.30 166.88 142.75 169.93 145.19 172.48 C 139.70 178.47 127.70 177.39 120.40 176.46 C 115.06 173.82 111.91 175.57 106.77 177.24 C 98.70 176.92 91.85 178.05 84.82 173.14 L 85.14 172.34 C 87.40 169.39 89.31 166.21 90.96 162.90 C 93.49 158.14 95.66 153.34 98.92 149.00 Z" fill="#8d8d8d" />
<path d="M 153.06 148.85 C 161.91 148.70 160.06 157.67 153.96 160.49 C 153.05 160.59 152.14 160.67 151.23 160.73 C 151.85 156.74 152.95 152.91 153.06 148.85 Z" fill="#f8f8f8" />
<path d="M 90.96 162.90 C 89.31 166.21 87.40 169.39 85.14 172.34 C 83.08 166.04 83.36 162.65 90.96 162.90 Z" fill="#f9f9f9" />
<path d="M 145.19 172.48 C 142.75 169.93 141.30 166.88 139.75 163.76 C 146.84 161.91 146.45 167.37 145.19 172.48 Z" fill="#f7f7f7" />
<path d="M 97.78 163.77 C 99.87 163.88 101.97 163.96 104.06 164.02 C 104.90 168.10 106.11 171.98 105.88 176.07 C 103.04 173.77 102.47 169.19 100.62 166.06 C 98.64 168.37 97.98 171.57 96.18 174.06 C 95.66 170.40 96.52 167.17 97.78 163.77 Z" fill="#f1f1f1" />
<path d="M 125.71 163.75 C 128.10 163.90 130.49 163.99 132.88 164.07 C 133.74 167.39 134.24 170.60 133.83 174.04 C 132.14 171.51 131.06 168.68 129.33 166.19 C 127.46 169.34 126.65 173.40 124.17 176.10 C 123.76 171.78 124.80 167.94 125.71 163.75 Z" fill="#f1f1f1" /></svg>