<?xml version="1.0" encoding="UTF-8" standalone="no"?>
<!DOCTYPE svg PUBLIC "-//W3C//DTD SVG 1.1//EN" "http://www.w3.org/Graphics/SVG/1.1/DTD/svg11.dtd">
<svg viewBox="0 0 192 192" height="192.0pt" width="192.0pt" xmlns="http://www.w3.org/2000/svg" version="1.1">
<path d="M 103.01 14.64 C 111.77 15.05 120.00 15.37 127.96 19.47 C 126.50 19.79 125.04 20.06 123.58 20.34 L 124.00 21.45 C 124.22 22.16 124.55 22.78 125.01 23.30 C 126.69 25.45 128.64 27.35 130.72 29.12 C 132.74 31.49 134.80 33.88 136.52 36.47 C 138.67 39.73 139.03 43.80 139.53 47.57 C 140.03 52.10 141.00 56.54 141.98 60.99 C 134.36 57.67 125.41 59.72 120.22 66.24 C 117.41 69.75 117.18 73.88 116.50 78.15 C 106.30 74.25 95.11 74.00 85.14 78.74 C 85.06 73.60 84.70 68.98 80.84 65.17 C 75.57 59.39 68.31 58.66 60.98 59.93 C 61.86 53.86 62.51 47.73 63.72 41.72 C 64.70 36.29 68.92 32.62 72.23 28.45 C 73.21 27.42 74.17 26.36 75.13 25.29 C 76.22 24.07 77.31 22.84 78.45 21.65 L 79.40 20.77 C 76.89 20.15 74.39 19.50 71.90 18.82 C 76.44 18.39 80.53 16.75 85.14 15.93 C 91.02 14.90 97.05 14.54 103.01 14.64 Z" fill="#ededed" />
<path d="M 71.90 18.82 C 74.39 19.50 76.89 20.15 79.40 20.77 L 78.45 21.65 C 77.34 21.48 76.22 21.30 75.12 21.10 C 75.12 22.50 75.12 23.89 75.13 25.29 C 74.17 26.36 73.21 27.42 72.23 28.45 C 67.11 31.17 62.75 34.30 61.38 40.28 C 59.96 47.57 59.27 54.97 57.65 62.24 C 56.03 63.64 54.59 65.24 53.53 67.11 C 51.83 72.06 49.48 75.95 46.29 80.06 C 42.98 78.22 39.89 76.39 37.79 73.11 C 34.21 67.70 31.36 61.63 29.35 55.48 C 27.25 49.07 27.49 42.48 28.80 35.95 C 31.08 32.93 34.04 30.25 37.30 28.33 C 41.64 25.80 46.97 24.60 51.67 22.63 C 55.42 21.15 59.05 18.95 62.92 17.87 C 65.92 16.99 68.98 18.16 71.90 18.82 Z" fill="#bbbbbb" />
<path d="M 137.52 17.56 C 140.73 17.88 143.96 19.74 146.87 21.07 C 154.05 24.61 161.20 25.40 167.77 30.24 C 171.46 32.88 173.64 36.52 175.64 40.50 C 174.69 54.43 169.30 67.03 161.04 78.16 C 159.20 78.63 157.33 79.14 155.47 79.47 C 152.66 75.08 149.99 70.64 147.45 66.09 C 146.95 65.10 146.49 64.10 146.05 63.08 C 143.95 57.89 142.82 52.46 142.13 46.92 C 141.57 43.07 141.11 38.43 138.82 35.17 C 136.73 32.19 133.81 30.82 130.72 29.12 C 128.64 27.35 126.69 25.45 125.01 23.30 C 126.03 23.23 128.07 22.39 127.11 21.10 C 126.22 20.60 125.18 20.72 124.00 21.45 L 123.58 20.34 C 125.04 20.06 126.50 19.79 127.96 19.47 C 131.07 18.84 134.35 17.50 137.52 17.56 Z" fill="#b6b6b6" />
<path d="M 75.12 21.10 C 76.22 21.30 77.34 21.48 78.45 21.65 C 77.31 22.84 76.22 24.07 75.13 25.29 C 75.12 23.89 75.12 22.50 75.12 21.10 Z" fill="#959595" />
<path d="M 124.00 21.45 C 125.18 20.72 126.22 20.60 127.11 21.10 C 128.07 22.39 126.03 23.23 125.01 23.30 C 124.55 22.78 124.22 22.16 124.00 21.45 Z" fill="#8a8a8a" />
<path d="M 72.23 28.45 C 68.92 32.62 64.70 36.29 63.72 41.72 C 62.51 47.73 61.86 53.86 60.98 59.93 C 59.85 60.66 58.74 61.43 57.65 62.24 C 59.27 54.97 59.96 47.57 61.38 40.28 C 62.75 34.30 67.11 31.17 72.23 28.45 Z" fill="#898989" />
<path d="M 130.72 29.12 C 133.81 30.82 136.73 32.19 138.82 35.17 C 141.11 38.43 141.57 43.07 142.13 46.92 C 142.82 52.46 143.95 57.89 146.05 63.08 C 144.70 62.38 143.35 61.66 141.98 60.99 C 141.00 56.54 140.03 52.10 139.53 47.57 C 139.03 43.80 138.67 39.73 136.52 36.47 C 134.80 33.88 132.74 31.49 130.72 29.12 Z" fill="#828282" />
<path d="M 28.80 35.95 C 27.49 42.48 27.25 49.07 29.35 55.48 C 31.36 61.63 34.21 67.70 37.79 73.11 C 39.89 76.39 42.98 78.22 46.29 80.06 C 47.76 79.67 49.23 79.29 50.69 78.90 C 51.40 80.93 52.12 83.01 53.08 84.94 C 55.90 91.49 61.96 92.40 68.07 94.33 C 64.64 97.86 60.21 101.64 58.21 106.19 C 55.01 113.83 59.15 123.14 66.69 126.31 C 71.30 128.23 76.11 127.45 80.66 125.78 C 84.54 129.52 88.35 133.67 93.68 135.25 C 98.37 136.55 103.79 136.55 108.51 135.41 C 114.13 133.98 118.08 129.47 122.19 125.71 C 127.59 128.13 133.80 128.33 138.72 124.73 C 143.97 120.92 146.06 114.52 144.73 108.23 C 143.57 102.73 137.79 98.17 134.04 94.22 C 139.30 92.62 144.39 91.96 147.47 86.86 C 149.00 84.50 150.46 82.09 151.95 79.70 C 153.13 79.65 154.30 79.57 155.47 79.47 C 157.33 79.14 159.20 78.63 161.04 78.16 C 161.42 82.10 161.75 85.92 160.95 89.84 C 159.00 99.21 156.34 108.66 152.26 117.34 C 149.89 122.36 145.92 125.67 141.56 128.90 C 129.69 135.79 117.96 142.06 104.20 144.21 C 99.93 144.24 95.89 143.26 91.78 142.25 C 90.20 142.04 88.81 141.25 87.62 142.74 C 85.60 139.76 82.54 139.01 79.44 137.52 C 72.09 134.37 65.53 130.26 58.62 126.17 C 55.07 122.31 51.91 118.22 48.95 113.90 C 47.11 118.72 45.28 123.49 44.10 128.54 C 42.71 127.80 41.31 127.08 39.94 126.29 C 41.85 124.05 44.20 121.83 44.57 118.75 C 45.33 112.92 42.48 106.33 41.10 100.68 C 39.54 95.06 39.21 89.29 38.05 83.61 C 36.88 78.08 33.61 73.79 31.05 68.80 C 27.58 62.24 24.81 54.51 24.83 47.03 C 24.80 42.91 26.33 39.18 28.80 35.95 Z" fill="#ececec" />
<path d="M 175.64 40.50 C 177.10 43.52 177.80 46.54 177.21 49.90 C 175.93 58.15 172.63 66.19 168.41 73.36 C 166.62 76.46 164.95 79.46 164.31 83.03 C 163.19 89.20 163.30 95.48 161.84 101.63 C 160.82 106.63 158.58 111.32 157.70 116.32 C 156.57 123.33 160.75 128.62 160.15 135.85 C 159.44 143.54 157.11 151.47 153.11 158.10 C 150.15 162.91 145.64 164.36 141.21 167.33 C 136.53 170.36 134.76 176.20 130.12 179.14 C 126.41 181.40 121.91 182.49 117.62 182.89 C 111.47 183.37 106.11 181.16 100.05 181.38 C 94.31 181.60 89.38 183.60 83.51 182.74 C 79.56 182.12 75.53 180.98 72.04 178.98 C 67.94 176.61 66.12 171.36 62.68 168.39 C 59.74 166.02 55.65 164.75 52.77 162.25 C 49.78 159.62 47.96 155.65 45.02 153.05 C 42.35 150.94 38.63 149.96 35.55 148.55 C 30.39 146.39 26.00 142.74 22.71 138.26 C 18.44 132.33 16.56 124.43 15.26 117.35 C 14.52 113.61 15.52 110.28 16.46 106.71 C 18.08 116.15 18.97 127.23 24.79 135.14 C 30.35 142.57 38.58 145.66 47.24 147.92 C 45.88 141.36 44.14 135.32 44.10 128.54 C 45.28 123.49 47.11 118.72 48.95 113.90 C 51.91 118.22 55.07 122.31 58.62 126.17 C 60.00 128.71 61.25 131.24 62.85 133.65 C 62.25 143.18 63.83 152.96 65.73 162.28 C 63.10 161.37 60.29 160.48 57.85 159.14 C 55.24 157.71 53.09 155.75 50.57 154.24 C 49.99 154.03 49.42 153.82 48.84 153.62 C 50.18 155.80 51.42 157.91 53.35 159.64 C 56.53 162.48 61.07 163.96 64.16 166.83 C 67.57 170.11 69.64 174.67 73.73 177.26 C 77.63 179.68 82.44 180.73 87.00 180.67 C 92.97 180.57 98.07 178.33 103.84 179.07 C 108.60 179.65 112.81 181.00 117.70 180.59 C 121.59 180.26 125.77 179.23 129.04 177.01 C 132.86 174.36 134.74 169.98 137.96 166.96 C 141.13 164.17 145.53 162.62 148.71 159.70 C 150.72 157.85 151.88 155.38 153.15 153.01 C 147.98 156.79 143.19 160.45 136.77 161.86 C 138.46 152.64 139.86 142.99 139.30 133.62 C 140.04 132.04 140.77 130.46 141.56 128.90 C 145.92 125.67 149.89 122.36 152.26 117.34 C 156.34 108.66 159.00 99.21 160.95 89.84 C 161.75 85.92 161.42 82.10 161.04 78.16 C 169.30 67.03 174.69 54.43 175.64 40.50 Z" fill="#e3e3e3" />
<path d="M 80.84 65.17 C 84.70 68.98 85.06 73.60 85.14 78.74 C 78.70 82.58 73.56 89.18 68.07 94.33 C 61.96 92.40 55.90 91.49 53.08 84.94 C 56.48 87.81 60.27 89.99 64.86 89.88 C 69.38 89.51 73.92 87.23 76.23 83.22 C 78.29 79.60 78.56 74.87 77.00 71.01 C 74.74 66.01 69.53 62.59 63.99 62.86 C 59.80 62.77 56.83 64.86 53.53 67.11 C 54.59 65.24 56.03 63.64 57.65 62.24 C 58.74 61.43 59.85 60.66 60.98 59.93 C 68.31 58.66 75.57 59.39 80.84 65.17 Z" fill="#ffffff" />
<path d="M 141.98 60.99 C 143.35 61.66 144.70 62.38 146.05 63.08 C 146.49 64.10 146.95 65.10 147.45 66.09 C 142.69 62.74 136.66 61.69 131.34 64.37 C 125.73 67.39 122.91 74.13 124.83 80.25 C 126.63 86.26 132.65 90.17 138.84 89.84 C 141.79 89.48 144.76 88.04 147.47 86.86 C 144.39 91.96 139.30 92.62 134.04 94.22 C 128.43 88.88 123.09 82.18 116.50 78.15 C 117.18 73.88 117.41 69.75 120.22 66.24 C 125.41 59.72 134.36 57.67 141.98 60.99 Z" fill="#ffffff" />
<path d="M 63.99 62.86 C 69.53 62.59 74.74 66.01 77.00 71.01 C 78.56 74.87 78.29 79.60 76.23 83.22 C 73.92 87.23 69.38 89.51 64.86 89.88 C 60.27 89.99 56.48 87.81 53.08 84.94 C 52.12 83.01 51.40 80.93 50.69 78.90 C 49.23 79.29 47.76 79.67 46.29 80.06 C 49.48 75.95 51.83 72.06 53.53 67.11 C 56.83 64.86 59.80 62.77 63.99 62.86 Z" fill="#949494" />
<path d="M 147.45 66.09 C 149.99 70.64 152.66 75.08 155.47 79.47 C 154.30 79.57 153.13 79.65 151.95 79.70 C 150.46 82.09 149.00 84.50 147.47 86.86 C 144.76 88.04 141.79 89.48 138.84 89.84 C 132.65 90.17 126.63 86.26 124.83 80.25 C 122.91 74.13 125.73 67.39 131.34 64.37 C 136.66 61.69 142.69 62.74 147.45 66.09 Z" fill="#8f8f8f" />
<path d="M 116.50 78.15 C 123.09 82.18 128.43 88.88 134.04 94.22 C 137.79 98.17 143.57 102.73 144.73 108.23 C 146.06 114.52 143.97 120.92 138.72 124.73 C 133.80 128.33 127.59 128.13 122.19 125.71 C 119.83 123.81 117.60 121.74 115.33 119.74 C 113.59 123.31 112.22 127.50 108.56 129.57 C 103.27 132.86 96.40 132.41 91.73 128.26 C 89.52 126.11 88.28 122.72 86.82 120.03 C 84.72 121.91 82.78 123.93 80.66 125.78 C 76.11 127.45 71.30 128.23 66.69 126.31 C 59.15 123.14 55.01 113.83 58.21 106.19 C 60.21 101.64 64.64 97.86 68.07 94.33 C 73.56 89.18 78.70 82.58 85.14 78.74 C 95.11 74.00 106.30 74.25 116.50 78.15 Z" fill="#b8b8b8" />
<path d="M 99.98 76.82 C 104.72 76.74 110.84 77.23 114.68 80.31 C 117.34 83.13 118.05 87.24 121.05 89.98 C 124.85 93.61 128.37 97.44 131.82 101.41 C 129.90 103.43 127.88 106.49 124.97 106.92 C 121.83 107.51 119.49 108.37 116.70 109.98 C 114.50 107.99 112.35 105.94 110.23 103.87 C 111.82 101.94 113.42 100.01 115.01 98.08 C 114.28 97.41 113.54 96.74 112.81 96.07 C 109.53 97.39 106.16 98.97 102.70 99.69 C 96.57 100.92 92.78 95.09 86.75 97.55 C 88.49 99.73 90.31 101.86 92.14 103.97 C 89.89 105.97 87.61 107.93 85.27 109.82 C 82.47 108.64 79.55 107.77 76.70 106.70 C 74.19 105.83 72.40 103.18 70.69 101.24 C 73.85 97.55 77.32 94.17 80.66 90.65 C 83.60 87.64 84.63 83.41 87.35 80.35 C 90.60 77.59 95.87 76.96 99.98 76.82 Z" fill="#919191" />
<path d="M 17.31 99.99 C 19.85 104.05 22.19 108.23 24.79 112.25 C 28.51 118.07 34.07 122.74 39.94 126.29 C 41.31 127.08 42.71 127.80 44.10 128.54 C 44.14 135.32 45.88 141.36 47.24 147.92 C 38.58 145.66 30.35 142.57 24.79 135.14 C 18.97 127.23 18.08 116.15 16.46 106.71 C 16.76 104.47 17.03 102.23 17.31 99.99 Z" fill="#b8b8b8" />
<path d="M 101.04 105.83 C 104.39 108.39 107.21 111.44 109.98 114.60 C 104.23 114.93 98.52 114.94 92.78 114.46 C 95.23 111.29 97.87 108.30 101.04 105.83 Z" fill="#828282" />
<path d="M 86.82 120.03 C 88.28 122.72 89.52 126.11 91.73 128.26 C 96.40 132.41 103.27 132.86 108.56 129.57 C 112.22 127.50 113.59 123.31 115.33 119.74 C 117.60 121.74 119.83 123.81 122.19 125.71 C 118.08 129.47 114.13 133.98 108.51 135.41 C 103.79 136.55 98.37 136.55 93.68 135.25 C 88.35 133.67 84.54 129.52 80.66 125.78 C 82.78 123.93 84.72 121.91 86.82 120.03 Z" fill="#adadad" />
<path d="M 58.62 126.17 C 65.53 130.26 72.09 134.37 79.44 137.52 C 82.54 139.01 85.60 139.76 87.62 142.74 C 88.27 145.05 88.94 147.35 89.61 149.65 C 84.36 148.22 79.07 146.37 74.34 143.64 C 69.83 141.03 66.29 137.52 62.85 133.65 C 61.25 131.24 60.00 128.71 58.62 126.17 Z" fill="#8e8e8e" />
<path d="M 141.56 128.90 C 140.77 130.46 140.04 132.04 139.30 133.62 C 134.19 139.07 128.68 143.82 121.70 146.69 C 116.46 148.92 110.90 150.15 105.22 150.46 C 102.38 150.62 99.55 150.83 96.72 151.11 C 99.32 148.93 101.83 146.66 104.20 144.21 C 117.96 142.06 129.69 135.79 141.56 128.90 Z" fill="#8c8c8c" />
<path d="M 62.85 133.65 C 66.29 137.52 69.83 141.03 74.34 143.64 C 79.07 146.37 84.36 148.22 89.61 149.65 C 91.96 150.24 94.33 150.68 96.72 151.11 C 96.48 157.95 97.19 164.18 101.02 170.03 C 104.93 163.99 105.46 157.48 105.22 150.46 C 110.90 150.15 116.46 148.92 121.70 146.69 C 128.68 143.82 134.19 139.07 139.30 133.62 C 139.86 142.99 138.46 152.64 136.77 161.86 C 135.42 166.13 134.08 170.57 130.10 173.11 C 123.67 177.21 115.20 178.24 107.89 176.18 C 104.88 175.50 102.00 174.38 98.90 175.07 C 94.85 175.88 91.23 177.23 87.01 177.23 C 80.63 177.22 73.78 175.44 69.41 170.52 C 67.26 168.16 66.52 165.29 65.73 162.28 C 63.83 152.96 62.25 143.18 62.85 133.65 Z" fill="#ececec" />
<path d="M 91.78 142.25 C 95.89 143.26 99.93 144.24 104.20 144.21 C 101.83 146.66 99.32 148.93 96.72 151.11 C 94.33 150.68 91.96 150.24 89.61 149.65 C 88.94 147.35 88.27 145.05 87.62 142.74 C 88.81 141.25 90.20 142.04 91.78 142.25 Z" fill="#ffffff" />
<path d="M 105.22 150.46 C 105.46 157.48 104.93 163.99 101.02 170.03 C 97.19 164.18 96.48 157.95 96.72 151.11 C 99.55 150.83 102.38 150.62 105.22 150.46 Z" fill="#7e7e7e" />
<path d="M 50.57 154.24 C 53.09 155.75 55.24 157.71 57.85 159.14 C 60.29 160.48 63.10 161.37 65.73 162.28 C 66.52 165.29 67.26 168.16 69.41 170.52 C 73.78 175.44 80.63 177.22 87.01 177.23 C 91.23 177.23 94.85 175.88 98.90 175.07 C 102.00 174.38 104.88 175.50 107.89 176.18 C 115.20 178.24 123.67 177.21 130.10 173.11 C 134.08 170.57 135.42 166.13 136.77 161.86 C 143.19 160.45 147.98 156.79 153.15 153.01 C 151.88 155.38 150.72 157.85 148.71 159.70 C 145.53 162.62 141.13 164.17 137.96 166.96 C 134.74 169.98 132.86 174.36 129.04 177.01 C 125.77 179.23 121.59 180.26 117.70 180.59 C 112.81 181.00 108.60 179.65 103.84 179.07 C 98.07 178.33 92.97 180.57 87.00 180.67 C 82.44 180.73 77.63 179.68 73.73 177.26 C 69.64 174.67 67.57 170.11 64.16 166.83 C 61.07 163.96 56.53 162.48 53.35 159.64 C 51.42 157.91 50.18 155.80 48.84 153.62 C 49.42 153.82 49.99 154.03 50.57 154.24 Z" fill="#cdcdcd" /></svg>