<?xml version="1.0" encoding="UTF-8" standalone="no"?>
<!DOCTYPE svg PUBLIC "-//W3C//DTD SVG 1.1//EN" "http://www.w3.org/Graphics/SVG/1.1/DTD/svg11.dtd">
<svg viewBox="0 0 192 192" height="192.0pt" width="192.0pt" xmlns="http://www.w3.org/2000/svg" version="1.1">
<path d="M 84.96 14.78 C 100.00 14.00 115.13 17.73 127.44 26.57 C 131.14 29.14 133.85 32.02 138.71 31.91 C 137.91 32.40 137.13 32.92 136.34 33.44 C 143.26 39.91 149.36 46.97 153.32 55.67 C 155.83 60.74 156.70 66.15 157.34 71.72 C 157.86 71.46 158.37 71.20 158.89 70.95 C 158.25 75.04 158.46 79.11 158.87 83.21 C 159.72 90.22 157.98 97.79 157.01 104.83 C 155.59 114.21 151.41 121.75 147.32 130.14 C 145.79 132.87 144.49 135.80 140.91 135.92 C 137.15 135.46 133.74 132.69 129.97 132.12 C 128.02 131.96 125.93 132.50 124.07 133.05 C 127.81 126.79 130.28 119.92 130.49 112.58 C 130.99 98.81 125.47 85.63 116.22 75.57 C 116.20 72.35 116.30 68.63 113.70 66.27 C 109.93 62.71 104.07 61.22 99.03 60.83 C 95.49 60.66 91.69 60.43 88.78 62.81 C 85.07 65.77 82.08 69.85 78.93 73.40 C 77.58 74.51 76.23 75.63 74.93 76.80 C 71.02 80.51 67.43 84.51 63.34 88.04 C 63.10 86.39 62.85 84.74 62.61 83.10 C 61.37 83.72 60.12 84.33 58.90 85.01 C 56.22 87.61 53.98 90.58 51.03 92.93 C 48.21 94.77 45.68 96.75 43.42 99.27 C 37.23 97.02 30.56 95.42 24.74 92.33 C 20.74 90.12 19.04 86.51 16.66 82.85 C 20.45 76.67 26.61 76.39 33.15 75.82 C 30.20 68.95 31.23 62.38 32.00 55.19 C 33.77 43.39 41.52 33.76 51.01 27.00 C 60.98 20.10 72.78 15.46 84.96 14.78 Z" fill="#d4d4d4" />
<path d="M 163.75 32.27 C 168.75 34.03 171.85 37.82 174.01 42.50 C 172.48 46.16 171.15 49.70 168.96 53.03 C 165.09 59.18 160.35 63.51 158.89 70.95 C 158.37 71.20 157.86 71.46 157.34 71.72 C 156.70 66.15 155.83 60.74 153.32 55.67 C 149.36 46.97 143.26 39.91 136.34 33.44 C 137.13 32.92 137.91 32.40 138.71 31.91 C 146.70 29.62 155.87 29.53 163.75 32.27 Z" fill="#c7c7c7" />
<path d="M 174.01 42.50 C 174.54 44.41 175.08 46.28 174.64 48.27 C 173.44 53.49 169.82 57.48 166.70 61.63 C 163.25 66.09 160.95 71.57 160.42 77.19 C 160.17 80.38 161.23 83.45 162.10 86.47 C 164.59 85.82 167.27 84.98 169.86 84.96 C 172.35 85.10 174.49 87.41 175.68 89.43 C 176.81 91.46 177.92 94.20 176.60 96.40 C 174.51 100.01 170.70 102.67 168.28 106.12 C 170.46 108.79 173.64 110.64 175.75 113.33 C 177.49 115.71 177.93 118.58 176.26 121.15 C 173.75 125.52 168.46 126.42 164.29 128.52 C 161.42 129.79 159.88 132.75 158.15 135.21 C 161.21 135.43 165.02 136.16 167.83 134.66 C 171.33 132.87 174.49 130.35 177.77 128.17 C 182.36 136.71 180.67 144.76 180.88 154.00 C 180.72 161.29 181.29 168.66 180.71 175.93 C 180.41 179.11 179.24 181.94 175.94 182.93 C 170.93 184.34 165.18 183.69 160.00 183.78 C 118.34 183.73 76.66 183.77 35.00 183.75 C 29.49 183.68 23.81 184.19 18.35 183.43 C 15.55 183.04 13.19 181.54 12.25 178.78 C 10.85 174.51 11.28 169.45 11.23 165.00 C 11.44 156.98 11.09 148.97 11.27 140.96 C 11.30 136.57 12.90 132.76 14.74 128.87 C 18.49 131.14 22.34 134.01 26.54 135.35 C 31.79 137.10 37.47 130.31 42.36 132.60 C 46.12 133.97 49.82 135.40 53.72 136.36 C 53.93 133.73 54.36 131.17 55.31 128.69 C 55.61 130.04 55.90 131.39 56.19 132.73 C 58.67 132.46 61.34 131.97 63.83 132.31 C 67.28 133.00 70.47 135.33 73.94 135.83 C 76.23 135.39 78.42 134.06 80.54 133.11 C 83.88 131.80 85.29 131.81 88.49 133.63 C 90.19 134.59 91.95 135.98 93.86 136.40 C 98.35 135.93 102.50 132.53 107.00 132.04 C 111.07 132.50 114.83 135.43 118.91 135.98 C 120.75 135.36 122.46 134.11 124.07 133.05 C 125.93 132.50 128.02 131.96 129.97 132.12 C 133.74 132.69 137.15 135.46 140.91 135.92 C 144.49 135.80 145.79 132.87 147.32 130.14 C 151.41 121.75 155.59 114.21 157.01 104.83 C 157.98 97.79 159.72 90.22 158.87 83.21 C 158.46 79.11 158.25 75.04 158.89 70.95 C 160.35 63.51 165.09 59.18 168.96 53.03 C 171.15 49.70 172.48 46.16 174.01 42.50 Z" fill="#e4e4e4" />
<path d="M 67.85 49.16 C 71.95 49.50 74.62 51.88 77.53 54.49 C 76.44 55.04 75.36 55.60 74.27 56.16 C 70.71 54.23 67.59 52.16 63.32 53.23 C 57.48 54.76 53.94 59.92 54.87 65.97 C 55.35 70.97 58.87 73.25 62.97 75.30 C 62.80 76.60 62.63 77.90 62.47 79.21 C 59.65 77.94 56.65 76.82 54.54 74.46 C 50.34 69.99 49.68 62.67 52.28 57.25 C 55.19 51.50 61.45 48.25 67.85 49.16 Z" fill="#ffffff" />
<path d="M 63.32 53.23 C 67.59 52.16 70.71 54.23 74.27 56.16 C 66.58 59.41 64.34 67.82 62.97 75.30 C 58.87 73.25 55.35 70.97 54.87 65.97 C 53.94 59.92 57.48 54.76 63.32 53.23 Z" fill="#959595" />
<path d="M 99.03 60.83 C 104.07 61.22 109.93 62.71 113.70 66.27 C 116.30 68.63 116.20 72.35 116.22 75.57 C 114.45 80.31 112.55 84.86 111.95 89.94 C 110.79 97.17 111.56 104.31 108.64 110.83 C 106.92 114.57 105.88 118.27 105.16 122.33 C 98.99 118.25 95.42 111.84 89.01 107.98 C 85.61 105.59 81.08 105.42 77.48 107.48 C 75.66 108.73 74.41 110.96 73.15 112.74 C 67.09 112.58 61.09 114.28 55.10 113.75 C 50.74 113.28 48.33 109.46 45.74 106.40 C 50.18 108.47 54.41 111.19 59.51 110.71 C 68.73 110.02 76.83 104.31 86.00 102.05 C 83.80 97.17 81.30 92.01 80.07 86.80 C 79.01 82.36 79.07 77.95 78.93 73.40 C 82.08 69.85 85.07 65.77 88.78 62.81 C 91.69 60.43 95.49 60.66 99.03 60.83 Z" fill="#c9c9c9" />
<path d="M 78.93 73.40 C 79.07 77.95 79.01 82.36 80.07 86.80 C 81.30 92.01 83.80 97.17 86.00 102.05 C 76.83 104.31 68.73 110.02 59.51 110.71 C 54.41 111.19 50.18 108.47 45.74 106.40 C 48.33 109.46 50.74 113.28 55.10 113.75 C 61.09 114.28 67.09 112.58 73.15 112.74 C 74.41 110.96 75.66 108.73 77.48 107.48 C 81.08 105.42 85.61 105.59 89.01 107.98 C 95.42 111.84 98.99 118.25 105.16 122.33 C 105.88 118.27 106.92 114.57 108.64 110.83 C 111.56 104.31 110.79 97.17 111.95 89.94 C 112.55 84.86 114.45 80.31 116.22 75.57 C 125.47 85.63 130.99 98.81 130.49 112.58 C 130.28 119.92 127.81 126.79 124.07 133.05 C 122.46 134.11 120.75 135.36 118.91 135.98 C 114.83 135.43 111.07 132.50 107.00 132.04 C 102.50 132.53 98.35 135.93 93.86 136.40 C 91.95 135.98 90.19 134.59 88.49 133.63 C 88.63 132.39 89.60 130.51 88.48 129.54 C 85.14 126.41 79.51 125.98 75.98 123.03 C 73.70 120.92 72.09 117.89 70.46 115.26 C 66.00 115.71 61.44 116.51 56.97 116.40 C 51.42 116.24 46.46 112.84 44.26 107.75 C 42.72 105.02 41.79 100.73 38.53 99.66 C 33.18 97.43 27.70 96.54 22.60 93.45 C 20.67 92.26 18.35 90.62 17.45 88.48 C 16.88 86.69 16.78 84.71 16.66 82.85 C 19.04 86.51 20.74 90.12 24.74 92.33 C 30.56 95.42 37.23 97.02 43.42 99.27 C 45.68 96.75 48.21 94.77 51.03 92.93 C 48.81 95.56 47.03 98.21 47.86 101.85 C 48.45 104.61 51.71 105.56 54.15 105.86 C 58.93 106.39 62.58 103.91 66.08 101.02 C 69.31 97.77 72.28 94.11 73.71 89.68 C 75.06 85.60 74.90 81.06 74.93 76.80 C 76.23 75.63 77.58 74.51 78.93 73.40 Z" fill="#e7e7e7" />
<path d="M 74.93 76.80 C 74.90 81.06 75.06 85.60 73.71 89.68 C 72.28 94.11 69.31 97.77 66.08 101.02 C 63.58 100.13 58.95 99.73 58.16 96.71 C 57.03 93.13 58.27 88.62 58.90 85.01 C 60.12 84.33 61.37 83.72 62.61 83.10 C 62.85 84.74 63.10 86.39 63.34 88.04 C 67.43 84.51 71.02 80.51 74.93 76.80 Z" fill="#c9c9c9" />
<path d="M 58.90 85.01 C 58.27 88.62 57.03 93.13 58.16 96.71 C 58.95 99.73 63.58 100.13 66.08 101.02 C 62.58 103.91 58.93 106.39 54.15 105.86 C 51.71 105.56 48.45 104.61 47.86 101.85 C 47.03 98.21 48.81 95.56 51.03 92.93 C 53.98 90.58 56.22 87.61 58.90 85.01 Z" fill="#a2a2a2" />
<path d="M 75.04 116.53 C 78.94 118.26 82.90 119.78 86.86 121.34 C 91.38 123.11 94.30 128.03 97.11 131.77 C 96.58 132.62 96.06 133.46 95.54 134.31 C 93.62 132.03 91.74 129.49 89.47 127.55 C 86.29 124.91 81.48 123.97 78.18 121.76 C 76.59 120.61 75.77 118.29 75.04 116.53 Z" fill="#cecece" />
<path d="M 175.15 118.21 C 174.16 119.75 173.28 121.67 171.85 122.84 C 169.75 124.20 167.23 124.98 164.98 126.07 C 160.92 127.85 158.46 131.04 153.89 131.70 C 156.10 128.17 158.48 124.36 162.45 122.63 C 166.58 120.91 170.93 119.69 175.15 118.21 Z" fill="#cecece" />
<path d="M 63.07 122.97 C 70.29 122.64 75.89 128.33 80.54 133.11 C 78.42 134.06 76.23 135.39 73.94 135.83 C 70.47 135.33 67.28 133.00 63.83 132.31 C 61.34 131.97 58.67 132.46 56.19 132.73 C 55.90 131.39 55.61 130.04 55.31 128.69 C 57.40 125.86 59.18 123.13 63.07 122.97 Z" fill="#d3d3d3" />
<path d="M 68.39 142.40 C 72.74 141.70 77.46 143.16 81.63 144.33 C 89.45 146.70 97.21 148.44 104.62 152.01 C 101.54 154.10 98.60 156.30 94.83 156.90 C 91.05 157.50 86.89 156.71 83.18 155.93 C 73.98 153.80 65.16 152.53 56.76 147.87 C 60.38 145.53 64.05 143.09 68.39 142.40 Z" fill="#cdcdcd" />
<path d="M 129.37 142.37 C 133.72 141.69 138.45 143.16 142.61 144.35 C 150.37 146.72 158.08 148.61 165.50 152.00 C 161.83 154.48 158.58 156.87 153.96 157.05 C 147.67 157.23 141.14 155.23 135.00 153.99 C 128.92 152.74 123.12 150.93 117.69 147.89 C 121.34 145.49 124.96 143.06 129.37 142.37 Z" fill="#cccccc" />
<path d="M 39.07 157.98 C 43.22 157.59 47.79 159.10 51.76 160.23 C 59.57 162.63 67.23 163.97 74.52 167.87 C 71.42 169.73 68.58 171.51 64.89 171.90 C 56.70 172.82 47.62 170.27 39.67 168.35 C 35.06 167.27 30.72 165.71 26.59 163.39 C 30.44 161.05 34.48 158.43 39.07 157.98 Z" fill="#cdcdcd" />
<path d="M 111.06 159.89 C 119.36 162.50 127.46 163.91 135.31 167.82 C 132.23 169.61 129.42 171.33 125.81 171.82 C 118.35 172.83 110.25 170.77 103.01 169.01 C 97.48 167.70 92.12 166.00 86.93 163.69 C 89.73 161.82 92.59 159.88 95.79 158.78 C 101.10 156.90 105.91 158.44 111.06 159.89 Z" fill="#cccccc" />
<path d="M 14.68 177.45 C 21.13 176.89 27.54 177.10 34.00 177.10 C 75.67 177.10 117.33 177.10 159.00 177.10 C 165.43 177.09 171.81 176.90 178.22 177.46 C 175.86 178.91 173.79 180.37 170.92 180.56 C 165.97 180.95 160.96 180.60 156.00 180.64 C 111.72 180.67 67.14 180.60 22.95 180.69 C 19.65 180.78 17.25 179.28 14.68 177.45 Z" fill="#cacaca" /></svg>