<?xml version="1.0" encoding="UTF-8" standalone="no"?>
<!DOCTYPE svg PUBLIC "-//W3C//DTD SVG 1.1//EN" "http://www.w3.org/Graphics/SVG/1.1/DTD/svg11.dtd">
<svg viewBox="0 0 192 192" height="192.0pt" width="192.0pt" xmlns="http://www.w3.org/2000/svg" version="1.1">
<path d="M 74.99 24.90 C 82.30 24.30 87.61 29.30 94.99 28.21 C 110.11 26.74 126.15 32.77 134.67 45.70 C 135.70 51.68 138.53 57.00 138.88 63.02 C 139.68 72.60 139.00 82.92 134.63 91.64 C 130.63 99.61 123.43 105.18 115.14 108.16 C 108.44 110.48 101.16 111.51 94.09 110.86 C 88.80 110.36 84.68 108.07 79.85 106.17 C 84.58 112.33 91.69 114.36 99.16 114.58 C 109.14 114.65 119.27 112.43 127.42 106.42 C 133.01 102.43 137.02 96.67 139.21 90.19 C 143.56 77.19 142.61 63.50 138.21 50.65 C 142.48 51.02 146.51 51.40 150.24 53.71 C 159.95 59.27 164.98 68.37 169.80 78.04 C 172.04 82.56 172.80 87.36 173.45 92.31 C 174.08 97.10 175.18 101.77 176.33 106.46 C 177.76 112.31 178.12 118.00 178.91 123.96 C 179.36 127.95 179.97 131.87 178.66 135.77 C 177.00 140.85 173.32 144.78 171.48 149.58 C 169.35 155.31 170.73 162.50 169.19 168.33 C 168.46 170.71 166.06 171.31 163.91 171.84 C 158.13 172.99 151.88 172.60 146.00 172.65 C 137.82 172.50 130.14 173.17 122.03 171.81 C 117.95 171.12 114.00 171.03 109.92 171.74 C 103.97 172.81 98.02 172.73 92.01 172.68 C 86.20 172.54 79.96 172.85 74.29 171.50 C 71.66 170.98 70.37 168.84 69.77 166.41 C 68.59 160.86 69.96 154.71 69.01 149.13 C 68.77 147.78 67.96 146.86 66.78 146.22 C 61.74 146.83 57.07 149.36 51.83 149.60 C 45.35 149.95 38.58 148.20 32.97 144.98 C 23.45 139.03 16.88 129.17 13.65 118.54 C 11.03 109.61 12.55 100.67 14.97 91.90 C 16.72 85.70 20.48 81.00 22.87 74.94 C 27.79 63.28 33.37 51.21 41.15 41.16 C 45.13 35.81 49.46 31.15 55.95 28.92 C 62.07 26.89 68.54 25.29 74.99 24.90 Z" fill="#d5d5d5" />
<path d="M 97.08 39.02 C 102.51 38.16 108.90 38.89 114.00 41.00 C 121.55 44.09 127.08 50.86 129.39 58.60 C 131.38 65.28 131.53 72.57 130.47 79.43 C 129.31 86.48 126.28 93.07 120.46 97.45 C 112.54 103.59 101.10 104.65 91.62 102.28 C 87.11 101.07 84.30 97.57 84.07 92.90 C 83.95 86.83 86.76 80.69 87.42 74.59 C 88.51 66.40 87.23 58.12 87.96 50.00 C 88.43 45.04 91.76 39.67 97.08 39.02 Z" fill="#ebebeb" />
<path d="M 134.67 45.70 C 135.81 47.38 136.99 49.03 138.21 50.65 C 142.61 63.50 143.56 77.19 139.21 90.19 C 137.02 96.67 133.01 102.43 127.42 106.42 C 119.27 112.43 109.14 114.65 99.16 114.58 C 91.69 114.36 84.58 112.33 79.85 106.17 C 84.68 108.07 88.80 110.36 94.09 110.86 C 101.16 111.51 108.44 110.48 115.14 108.16 C 123.43 105.18 130.63 99.61 134.63 91.64 C 139.00 82.92 139.68 72.60 138.88 63.02 C 138.53 57.00 135.70 51.68 134.67 45.70 Z" fill="#c5c5c5" />
<path d="M 66.72 67.53 C 64.10 68.67 61.19 69.40 58.69 70.72 C 55.69 72.30 53.29 75.08 50.27 76.62 C 47.60 72.56 47.09 67.34 50.55 63.56 C 55.24 58.32 65.04 60.58 66.72 67.53 Z" fill="#959595" />
<path d="M 171.46 95.94 C 173.34 101.30 174.92 106.62 175.45 112.30 C 175.82 116.31 176.07 120.32 176.80 124.30 C 177.15 126.85 177.82 129.28 176.85 131.78 C 174.85 137.01 171.94 141.96 168.17 146.11 C 167.70 139.10 168.13 132.04 167.91 125.01 C 167.76 119.99 168.29 115.55 169.66 110.74 C 171.02 105.87 171.18 100.95 171.46 95.94 Z" fill="#b6b6b6" />
<path d="M 50.19 102.97 C 54.37 104.90 57.74 107.74 62.38 108.73 C 64.62 109.54 68.61 109.79 69.89 112.05 C 71.25 115.34 70.78 119.57 70.24 123.03 C 65.95 121.46 63.08 117.46 58.94 115.92 C 56.18 116.26 53.79 118.52 51.00 119.08 C 48.08 118.72 44.97 116.06 43.96 113.32 C 43.27 110.35 44.06 106.86 45.29 104.13 C 46.31 102.32 48.43 102.11 50.19 102.97 Z" fill="#f6f6f6" />
<path d="M 75.93 104.47 C 76.66 111.52 76.45 118.82 75.99 125.89 C 74.56 124.79 72.73 123.51 71.97 121.84 C 71.04 117.37 72.19 112.48 71.56 107.98 C 69.01 106.91 66.41 106.54 63.70 105.88 C 67.83 105.65 71.80 104.64 75.93 104.47 Z" fill="#b9b9b9" />
<path d="M 76.14 130.20 C 76.60 142.38 76.36 154.77 75.73 166.94 C 74.62 167.00 73.53 166.96 72.46 166.84 C 71.29 158.34 72.42 149.58 71.53 141.10 C 70.46 140.67 69.33 140.36 68.22 139.98 C 69.76 136.21 73.41 133.17 76.14 130.20 Z" fill="#b9b9b9" />
<path d="M 113.99 138.10 C 116.02 138.32 118.04 138.82 120.04 139.23 C 118.94 140.36 118.01 141.39 117.89 143.04 C 117.45 148.22 117.77 153.50 117.84 158.70 C 119.72 157.25 121.36 155.47 123.45 154.47 C 125.59 154.19 127.90 154.65 130.02 154.93 C 130.03 156.63 130.04 158.33 130.07 160.03 C 130.09 162.17 130.21 164.31 130.32 166.45 C 125.94 167.65 121.61 167.99 117.18 166.78 C 116.23 162.05 116.99 156.71 116.89 151.93 C 116.83 147.08 114.29 142.98 113.99 138.10 Z" fill="#c4c4c4" />
<path d="M 120.04 139.23 C 123.24 139.86 126.48 140.48 129.60 141.45 C 130.42 145.82 130.03 150.50 130.02 154.93 C 127.90 154.65 125.59 154.19 123.45 154.47 C 121.36 155.47 119.72 157.25 117.84 158.70 C 117.77 153.50 117.45 148.22 117.89 143.04 C 118.01 141.39 118.94 140.36 120.04 139.23 Z" fill="#b6b6b6" />
<path d="M 89.71 154.58 C 94.34 155.03 99.52 153.73 103.97 155.00 C 107.73 157.00 108.34 162.05 108.03 165.85 C 102.80 166.59 97.29 166.13 92.00 166.21 C 87.05 166.16 81.89 166.57 77.00 165.86 C 76.49 162.70 76.25 159.15 78.68 156.68 C 81.35 153.50 86.07 154.62 89.71 154.58 Z" fill="#eaeaea" />
<path d="M 145.96 154.65 C 149.82 154.77 154.17 153.92 157.89 155.05 C 161.37 157.05 162.00 162.19 161.89 165.81 C 151.46 166.95 140.80 165.60 130.32 166.45 C 130.21 164.31 130.09 162.17 130.07 160.03 C 131.26 158.27 132.73 155.62 134.82 154.87 C 138.32 153.95 142.35 154.71 145.96 154.65 Z" fill="#eaeaea" /></svg>