<?xml version="1.0" encoding="UTF-8" standalone="no"?>
<!DOCTYPE svg PUBLIC "-//W3C//DTD SVG 1.1//EN" "http://www.w3.org/Graphics/SVG/1.1/DTD/svg11.dtd">
<svg viewBox="0 0 192 192" height="192.0pt" width="192.0pt" xmlns="http://www.w3.org/2000/svg" version="1.1">
<path d="M 88.00 15.17 C 87.37 15.58 86.75 15.99 86.11 16.39 C 85.37 16.83 84.63 17.26 83.88 17.67 C 79.43 19.70 75.31 22.27 71.10 24.75 C 74.04 25.33 77.02 25.86 79.92 26.62 C 81.99 27.86 83.67 29.27 85.22 31.12 C 83.67 32.21 82.13 33.31 80.58 34.39 C 78.78 33.07 76.87 29.85 74.32 31.18 C 69.37 33.18 65.25 36.74 60.15 38.54 C 60.25 40.05 60.35 41.56 60.46 43.07 C 60.57 45.13 60.89 47.39 60.42 49.41 C 59.53 50.91 58.20 52.21 57.04 53.51 C 54.18 53.75 51.08 54.24 48.24 53.78 C 45.60 53.22 43.86 51.40 43.34 48.76 C 41.77 40.44 43.74 31.59 48.80 24.79 C 51.34 21.55 55.05 19.03 58.46 16.77 C 68.14 15.10 78.20 14.28 88.00 15.17 Z" fill="#bbbbbb" />
<path d="M 58.46 16.77 C 55.05 19.03 51.34 21.55 48.80 24.79 C 43.74 31.59 41.77 40.44 43.34 48.76 C 43.86 51.40 45.60 53.22 48.24 53.78 C 51.08 54.24 54.18 53.75 57.04 53.51 C 56.82 55.52 56.63 57.55 56.44 59.57 C 60.37 57.39 64.67 57.13 68.82 55.74 C 74.13 52.87 78.42 47.04 78.76 40.90 C 78.97 38.35 77.57 35.74 74.96 35.15 C 69.76 35.91 64.86 40.32 60.46 43.07 C 60.35 41.56 60.25 40.05 60.15 38.54 C 65.25 36.74 69.37 33.18 74.32 31.18 C 76.87 29.85 78.78 33.07 80.58 34.39 C 80.55 38.16 80.90 41.96 79.69 45.58 C 79.01 47.95 77.79 50.35 77.54 52.81 C 77.81 54.95 78.82 57.05 79.60 59.04 C 81.63 49.76 83.17 40.40 85.22 31.12 C 83.67 29.27 81.99 27.86 79.92 26.62 C 81.32 23.67 82.69 20.71 83.88 17.67 C 84.63 17.26 85.37 16.83 86.11 16.39 C 86.81 17.25 87.47 18.15 88.08 19.07 C 87.12 21.47 85.59 23.71 84.25 25.91 C 85.31 28.16 86.78 30.56 87.13 33.04 C 86.72 37.27 85.31 41.40 84.60 45.60 C 83.83 50.05 81.93 54.91 82.74 59.36 C 83.21 62.38 83.89 65.40 84.91 68.28 C 85.40 69.47 86.03 71.13 87.46 71.37 C 90.50 72.07 93.78 71.96 96.89 72.08 L 96.82 72.74 C 94.48 73.03 92.14 73.32 89.81 73.63 C 98.19 73.95 106.78 74.11 115.15 73.57 C 112.67 73.23 110.20 72.85 107.72 72.49 C 113.51 71.38 119.16 71.86 125.00 71.78 C 132.63 71.72 140.27 71.73 147.90 71.91 C 147.00 72.72 146.10 73.54 145.20 74.36 C 148.15 73.50 151.77 73.54 153.04 70.20 C 155.35 64.65 156.24 58.41 158.85 52.91 C 159.71 51.01 161.20 49.81 162.78 48.54 C 161.38 57.05 156.99 65.47 155.62 74.02 C 159.99 76.11 164.17 76.60 166.90 81.07 C 170.51 86.95 174.27 94.38 173.77 101.44 C 173.48 107.17 172.99 113.41 170.90 118.80 C 170.05 121.31 168.64 124.06 168.56 126.74 C 168.68 129.91 170.33 133.17 171.49 136.10 C 171.12 132.65 170.71 129.39 171.90 126.02 C 174.67 117.69 176.67 108.63 174.94 99.86 C 174.49 96.55 173.54 93.27 174.98 90.08 C 176.83 85.57 179.49 82.03 179.72 76.93 C 180.03 71.94 178.26 67.52 175.73 63.32 C 172.60 58.15 169.17 53.15 166.04 47.97 C 171.24 49.96 173.53 54.34 176.22 58.86 C 178.89 63.84 181.38 69.45 181.94 75.12 C 182.28 80.93 179.57 85.21 177.36 90.28 C 175.51 93.98 177.01 97.82 177.46 101.70 C 178.94 110.57 176.19 118.43 173.87 126.80 C 172.47 131.62 174.23 135.42 174.94 140.12 C 175.66 144.45 174.80 148.62 174.06 152.88 C 172.85 159.43 171.82 166.02 170.75 172.60 C 170.27 175.26 169.81 178.16 168.63 180.61 C 167.56 182.81 164.69 183.97 162.46 184.58 C 158.35 185.60 153.53 185.32 149.76 183.28 C 146.92 181.60 146.12 178.05 145.85 175.00 C 145.38 167.38 147.15 159.40 147.43 151.79 C 147.89 147.25 143.64 144.01 140.34 141.69 C 136.95 139.24 133.66 140.33 129.91 140.98 C 117.75 143.69 105.62 144.34 93.20 144.19 C 92.01 150.33 90.65 156.37 88.28 162.17 C 85.86 168.11 84.25 174.55 81.20 180.20 C 78.99 184.15 74.22 185.13 70.04 185.09 C 66.50 184.96 62.03 184.07 60.23 180.62 C 58.58 177.67 59.65 173.52 60.28 170.40 C 62.80 160.03 65.71 148.75 64.86 137.99 C 64.57 134.27 62.32 131.63 60.34 128.64 C 56.03 122.53 53.41 115.74 51.43 108.58 C 50.64 105.62 49.54 102.99 48.03 100.33 C 47.34 102.00 46.04 104.03 46.28 105.88 C 46.79 110.35 49.61 114.55 50.09 118.97 C 50.01 122.11 46.37 124.97 43.25 123.94 C 37.51 122.52 32.05 119.18 27.39 115.61 C 23.35 112.37 22.33 108.15 20.09 103.77 C 18.27 100.00 13.61 97.85 11.70 94.29 C 9.99 90.55 10.51 86.16 12.68 82.71 C 15.61 77.96 19.17 73.77 21.51 68.62 C 24.30 63.04 25.56 56.88 28.25 51.29 C 31.05 45.60 36.63 42.96 39.32 37.45 C 41.49 33.05 42.53 28.68 45.73 24.76 C 49.12 20.78 53.11 17.49 58.46 16.77 Z" fill="#f5f5f5" />
<path d="M 83.88 17.67 C 82.69 20.71 81.32 23.67 79.92 26.62 C 77.02 25.86 74.04 25.33 71.10 24.75 C 75.31 22.27 79.43 19.70 83.88 17.67 Z" fill="#dbdbdb" />
<path d="M 85.22 31.12 C 83.17 40.40 81.63 49.76 79.60 59.04 C 78.82 57.05 77.81 54.95 77.54 52.81 C 77.79 50.35 79.01 47.95 79.69 45.58 C 80.90 41.96 80.55 38.16 80.58 34.39 C 82.13 33.31 83.67 32.21 85.22 31.12 Z" fill="#dddddd" />
<path d="M 74.96 35.15 C 77.57 35.74 78.97 38.35 78.76 40.90 C 78.42 47.04 74.13 52.87 68.82 55.74 C 64.67 57.13 60.37 57.39 56.44 59.57 C 56.63 57.55 56.82 55.52 57.04 53.51 C 58.20 52.21 59.53 50.91 60.42 49.41 C 60.89 47.39 60.57 45.13 60.46 43.07 C 64.86 40.32 69.76 35.91 74.96 35.15 Z" fill="#dbdbdb" />
<path d="M 164.49 47.30 C 165.02 47.51 165.53 47.73 166.04 47.97 C 169.17 53.15 172.60 58.15 175.73 63.32 C 178.26 67.52 180.03 71.94 179.72 76.93 C 179.49 82.03 176.83 85.57 174.98 90.08 C 173.54 93.27 174.49 96.55 174.94 99.86 C 176.67 108.63 174.67 117.69 171.90 126.02 C 170.71 129.39 171.12 132.65 171.49 136.10 C 170.33 133.17 168.68 129.91 168.56 126.74 C 168.64 124.06 170.05 121.31 170.90 118.80 C 172.99 113.41 173.48 107.17 173.77 101.44 C 174.27 94.38 170.51 86.95 166.90 81.07 C 164.17 76.60 159.99 76.11 155.62 74.02 C 156.99 65.47 161.38 57.05 162.78 48.54 C 163.35 48.11 163.92 47.70 164.49 47.30 Z" fill="#d8d8d8" />
<path d="M 51.48 59.57 C 52.55 62.86 51.13 66.45 48.16 68.19 C 45.66 69.92 42.10 68.49 39.37 68.00 C 38.84 65.62 38.07 63.37 37.42 61.02 C 37.77 58.08 39.29 56.03 42.07 54.96 C 45.82 53.50 50.30 55.75 51.48 59.57 Z" fill="#969696" />
<path d="M 37.42 61.02 C 38.07 63.37 38.84 65.62 39.37 68.00 C 39.88 73.31 40.34 78.72 40.13 84.04 C 39.96 88.38 37.74 92.87 33.62 94.65 C 31.80 94.99 29.73 94.32 27.92 94.05 C 29.81 88.87 32.55 84.14 33.87 78.88 C 35.35 72.98 36.45 67.02 37.42 61.02 Z" fill="#dbdbdb" />
<path d="M 21.40 79.19 C 24.58 77.69 28.75 81.45 27.93 84.82 C 27.45 88.03 22.51 91.22 19.90 88.18 C 16.60 85.82 18.76 81.07 21.40 79.19 Z" fill="#dbdbdb" />
<path d="M 13.87 88.78 C 18.18 91.52 22.04 95.58 27.18 96.78 C 30.49 97.50 34.35 95.69 37.38 94.45 C 42.27 92.25 47.34 90.68 52.53 89.38 C 53.64 101.06 57.09 112.60 63.48 122.49 C 65.73 126.09 69.75 129.67 69.61 134.14 C 69.74 139.90 68.96 145.62 67.35 151.15 C 66.93 144.26 68.92 137.23 64.72 131.30 C 59.36 123.30 55.08 114.76 52.88 105.33 C 52.18 102.99 51.67 99.60 49.72 97.97 C 46.67 96.76 45.28 99.08 44.44 101.60 C 42.82 108.10 45.27 113.63 48.01 119.37 C 46.22 120.35 44.63 122.01 42.44 121.37 C 37.32 120.06 32.28 117.16 28.33 113.66 C 24.80 110.44 23.80 106.45 21.46 102.49 C 19.72 99.57 17.11 97.64 14.98 95.07 C 13.48 93.29 12.83 90.87 12.07 88.70 C 12.67 88.72 13.27 88.75 13.87 88.78 Z" fill="#dadada" />
<path d="M 139.00 131.07 C 143.23 135.34 147.44 139.52 152.11 143.30 C 151.98 144.28 151.85 145.26 151.72 146.24 C 148.93 144.04 146.40 141.60 143.91 139.08 C 142.23 137.48 140.14 135.47 137.71 135.28 C 134.82 135.13 131.76 136.10 128.96 136.74 C 123.75 138.08 118.46 138.66 113.12 139.15 C 105.06 140.01 96.99 139.20 88.93 140.27 C 88.71 139.14 88.49 138.00 88.30 136.86 L 88.19 135.95 C 100.73 136.90 113.75 137.24 126.16 134.86 C 130.61 134.04 134.69 132.34 139.00 131.07 Z" fill="#cecece" />
<path d="M 137.71 135.28 C 140.14 135.47 142.23 137.48 143.91 139.08 C 146.40 141.60 148.93 144.04 151.72 146.24 C 151.18 150.48 149.98 154.80 150.13 159.00 C 150.27 162.92 150.89 166.74 150.65 170.68 C 150.45 173.10 150.15 175.51 149.91 177.93 C 155.35 178.97 160.08 179.06 165.52 177.88 C 165.69 175.58 165.87 173.29 166.12 171.00 C 166.74 165.80 167.81 160.63 168.64 155.44 C 169.70 149.35 170.24 143.63 172.57 137.85 C 173.68 147.06 171.20 154.98 169.89 163.98 C 169.02 168.69 168.68 173.71 167.11 178.25 C 166.39 180.22 165.14 181.40 163.16 182.08 C 160.04 183.08 155.94 183.10 152.83 182.10 C 150.31 181.22 148.81 179.45 148.49 176.78 C 147.67 169.67 148.55 162.12 149.32 155.03 C 149.54 151.88 150.01 148.83 147.87 146.18 C 145.35 143.08 142.33 139.92 138.78 138.00 C 135.49 137.19 131.52 138.51 128.23 139.08 C 118.58 141.11 108.84 142.06 98.98 141.62 C 96.82 141.76 93.42 141.29 91.65 142.66 C 90.44 145.09 90.10 148.06 89.50 150.70 C 88.25 157.14 85.51 162.89 83.38 169.35 C 82.14 172.77 80.97 176.82 78.65 179.67 C 76.04 182.89 71.17 183.18 67.38 182.53 C 65.33 182.11 62.68 181.12 62.29 178.76 C 61.72 174.42 61.82 169.27 64.59 165.64 C 64.39 167.42 64.17 169.21 63.89 170.98 C 63.52 173.28 63.14 175.58 62.79 177.89 C 67.86 178.86 72.50 179.06 77.55 177.83 C 78.09 175.59 78.65 173.37 79.29 171.16 C 81.66 163.71 84.53 156.39 87.31 149.09 C 88.86 145.04 88.53 141.11 88.30 136.86 C 88.49 138.00 88.71 139.14 88.93 140.27 C 96.99 139.20 105.06 140.01 113.12 139.15 C 118.46 138.66 123.75 138.08 128.96 136.74 C 131.76 136.10 134.82 135.13 137.71 135.28 Z" fill="#dedede" />
<path d="M 63.89 170.98 C 69.03 170.96 74.16 171.02 79.29 171.16 C 78.65 173.37 78.09 175.59 77.55 177.83 C 72.50 179.06 67.86 178.86 62.79 177.89 C 63.14 175.58 63.52 173.28 63.89 170.98 Z" fill="#b5b5b5" />
<path d="M 150.65 170.68 C 155.80 171.03 160.96 171.08 166.12 171.00 C 165.87 173.29 165.69 175.58 165.52 177.88 C 160.08 179.06 155.35 178.97 149.91 177.93 C 150.15 175.51 150.45 173.10 150.65 170.68 Z" fill="#b5b5b5" /></svg>