<?xml version="1.0" encoding="UTF-8" standalone="no"?>
<!DOCTYPE svg PUBLIC "-//W3C//DTD SVG 1.1//EN" "http://www.w3.org/Graphics/SVG/1.1/DTD/svg11.dtd">
<svg viewBox="0 0 192 192" height="192.0pt" width="192.0pt" xmlns="http://www.w3.org/2000/svg" version="1.1">
<path d="M 33.21 23.28 C 36.56 25.46 39.47 28.68 42.22 31.56 C 47.62 29.83 53.06 29.04 58.71 28.73 C 58.30 29.81 57.89 30.89 57.48 31.98 C 62.76 32.80 68.25 33.69 72.99 36.28 C 71.76 36.98 70.55 37.72 69.33 38.45 C 72.54 40.47 76.17 42.40 78.52 45.42 C 83.98 52.27 86.09 59.78 89.81 67.56 C 89.03 67.87 88.25 68.17 87.47 68.47 C 87.88 70.77 88.29 73.06 88.69 75.35 C 87.72 75.04 86.75 74.73 85.77 74.43 C 83.11 64.53 78.39 55.05 71.86 47.13 C 67.38 41.66 61.38 37.56 54.71 35.25 C 50.48 33.81 46.03 34.02 41.91 32.52 C 38.28 31.16 35.00 29.27 31.79 27.12 C 32.24 25.82 32.68 24.54 33.21 23.28 Z" fill="#b4b4b4" />
<path d="M 28.10 24.54 C 29.35 25.38 30.55 26.27 31.79 27.12 C 35.00 29.27 38.28 31.16 41.91 32.52 C 46.03 34.02 50.48 33.81 54.71 35.25 C 61.38 37.56 67.38 41.66 71.86 47.13 C 78.39 55.05 83.11 64.53 85.77 74.43 C 84.06 73.94 82.35 73.50 80.61 73.11 C 81.32 76.92 82.53 80.61 83.19 84.42 C 83.95 88.55 81.50 93.28 82.76 97.22 C 84.88 102.28 90.51 105.97 95.21 108.39 C 93.84 112.55 92.58 116.74 91.08 120.85 C 95.02 121.09 99.49 122.16 103.36 121.24 C 106.08 118.29 106.61 113.13 107.35 109.33 C 113.06 108.10 119.83 106.33 122.58 100.58 C 125.26 95.55 121.95 89.00 122.73 83.66 C 123.62 80.28 127.43 77.61 129.99 75.47 C 133.75 76.77 137.34 78.54 141.05 80.07 C 141.98 82.66 142.81 85.36 144.03 87.82 C 145.70 90.98 148.29 93.81 149.74 97.08 C 150.01 100.07 149.12 103.28 148.42 106.17 C 147.47 108.19 145.91 109.88 146.66 112.22 C 147.67 115.75 151.79 118.12 153.60 121.30 C 154.32 122.96 154.55 124.87 154.89 126.64 C 153.46 131.25 151.35 136.15 151.03 140.98 C 150.89 142.82 152.10 144.10 153.06 145.55 C 155.86 148.24 158.88 150.75 161.97 153.11 C 159.30 152.34 156.62 151.75 153.98 150.87 C 152.82 150.18 151.67 149.46 150.48 148.82 C 147.86 152.93 145.17 156.61 141.09 159.40 C 138.23 152.50 137.70 145.98 138.86 138.63 C 134.46 138.10 130.07 137.68 125.65 137.42 C 128.24 137.25 130.81 136.94 133.39 136.66 C 129.08 136.42 124.24 136.97 120.10 135.72 C 114.72 133.71 111.18 127.27 106.12 124.73 C 100.01 122.01 92.75 122.31 86.43 124.13 C 82.41 125.13 79.86 127.78 76.91 130.49 C 75.44 130.87 73.98 131.27 72.51 131.66 C 76.34 126.31 81.18 122.97 86.85 119.82 C 80.23 120.94 73.96 122.51 67.57 124.58 C 60.69 126.83 54.40 126.17 48.60 130.93 C 45.51 131.77 42.38 132.41 39.23 132.99 C 39.24 135.81 39.09 138.74 39.52 141.53 C 41.48 142.89 43.99 143.46 46.30 143.95 C 44.25 149.72 43.16 155.53 42.04 161.52 C 36.27 160.73 32.98 155.30 29.99 150.91 C 23.84 140.90 24.22 126.79 27.60 115.88 C 31.22 114.98 34.88 114.28 38.46 113.20 C 40.70 112.47 42.90 111.62 45.10 110.79 C 43.92 102.44 41.73 94.49 44.36 86.18 C 45.73 82.74 47.49 79.53 49.35 76.33 C 45.57 79.93 40.99 81.77 36.54 84.29 C 34.85 80.22 33.18 76.14 31.43 72.10 C 35.08 68.21 38.84 64.43 42.75 60.79 C 46.25 67.11 49.33 73.65 52.71 80.04 C 52.19 74.38 51.06 69.53 54.47 64.47 C 51.50 56.34 47.45 48.91 40.75 43.24 C 37.31 40.11 33.34 37.94 29.23 35.84 C 28.91 38.31 28.61 40.77 28.26 43.23 C 28.55 37.25 27.85 31.58 27.53 25.66 L 28.10 24.54 Z" fill="#c4c4c4" />
<path d="M 27.53 25.66 C 27.85 31.58 28.55 37.25 28.26 43.23 L 28.14 44.11 C 25.94 50.60 23.04 56.66 20.05 62.81 C 19.02 64.94 17.93 67.04 16.89 69.17 C 15.40 72.17 14.59 75.43 14.26 78.76 C 15.05 81.67 16.00 84.60 18.33 86.66 C 21.44 89.38 25.84 91.01 29.97 90.80 C 34.01 90.48 37.82 87.21 41.01 84.94 C 42.13 85.36 43.24 85.77 44.36 86.18 C 41.73 94.49 43.92 102.44 45.10 110.79 C 42.90 111.62 40.70 112.47 38.46 113.20 C 42.09 105.65 39.73 99.10 39.07 91.19 C 37.38 91.78 35.66 92.39 33.94 92.87 C 25.41 95.64 14.91 90.59 11.87 82.13 C 10.63 78.59 11.54 75.22 12.86 71.87 C 16.09 64.09 21.05 56.43 23.38 48.32 C 24.86 43.17 23.95 38.39 24.54 33.21 C 24.88 30.48 26.29 28.08 27.53 25.66 Z" fill="#ebebeb" />
<path d="M 29.23 35.84 C 33.34 37.94 37.31 40.11 40.75 43.24 C 47.45 48.91 51.50 56.34 54.47 64.47 C 51.06 69.53 52.19 74.38 52.71 80.04 C 49.33 73.65 46.25 67.11 42.75 60.79 C 38.84 64.43 35.08 68.21 31.43 72.10 C 33.18 76.14 34.85 80.22 36.54 84.29 C 33.36 84.05 30.18 83.92 26.99 83.80 C 26.23 80.17 25.92 76.07 24.31 72.70 C 22.39 70.86 19.37 70.01 16.89 69.17 C 17.93 67.04 19.02 64.94 20.05 62.81 C 20.67 62.59 21.28 62.37 21.90 62.15 C 23.31 63.07 24.72 63.99 26.14 64.91 C 28.17 63.04 30.14 61.20 32.40 59.61 C 34.56 58.54 38.21 57.61 39.07 55.09 C 40.87 50.94 39.15 46.45 38.07 42.36 C 36.08 43.91 34.03 45.48 32.18 47.19 C 30.84 46.14 29.51 45.11 28.14 44.11 L 28.26 43.23 C 28.61 40.77 28.91 38.31 29.23 35.84 Z" fill="#898989" />
<path d="M 72.99 36.28 C 79.66 44.04 87.08 52.80 90.27 62.67 C 91.62 67.58 92.64 72.53 94.56 77.28 C 92.57 76.71 90.65 76.00 88.69 75.35 C 88.29 73.06 87.88 70.77 87.47 68.47 C 88.25 68.17 89.03 67.87 89.81 67.56 C 86.09 59.78 83.98 52.27 78.52 45.42 C 76.17 42.40 72.54 40.47 69.33 38.45 C 70.55 37.72 71.76 36.98 72.99 36.28 Z" fill="#e9e9e9" />
<path d="M 38.07 42.36 C 39.15 46.45 40.87 50.94 39.07 55.09 C 38.21 57.61 34.56 58.54 32.40 59.61 C 30.49 59.09 28.59 58.50 26.69 57.92 C 28.39 54.21 29.91 50.59 32.18 47.19 C 34.03 45.48 36.08 43.91 38.07 42.36 Z" fill="#9a9a9a" />
<path d="M 28.14 44.11 C 29.51 45.11 30.84 46.14 32.18 47.19 C 29.91 50.59 28.39 54.21 26.69 57.92 C 28.59 58.50 30.49 59.09 32.40 59.61 C 30.14 61.20 28.17 63.04 26.14 64.91 C 24.72 63.99 23.31 63.07 21.90 62.15 C 21.28 62.37 20.67 62.59 20.05 62.81 C 23.04 56.66 25.94 50.60 28.14 44.11 Z" fill="#c7c7c7" />
<path d="M 16.89 69.17 C 19.37 70.01 22.39 70.86 24.31 72.70 C 25.92 76.07 26.23 80.17 26.99 83.80 C 30.18 83.92 33.36 84.05 36.54 84.29 C 34.73 85.39 32.98 87.06 30.95 87.68 C 26.85 88.13 22.15 86.70 19.12 83.86 C 17.39 82.28 15.84 80.48 14.26 78.76 C 14.59 75.43 15.40 72.17 16.89 69.17 Z" fill="#b4b4b4" />
<path d="M 80.61 73.11 C 82.35 73.50 84.06 73.94 85.77 74.43 C 86.75 74.73 87.72 75.04 88.69 75.35 C 90.65 76.00 92.57 76.71 94.56 77.28 C 101.62 77.63 108.72 77.47 115.74 76.65 C 120.40 76.13 125.31 75.36 129.99 75.47 C 127.43 77.61 123.62 80.28 122.73 83.66 C 121.95 89.00 125.26 95.55 122.58 100.58 C 119.83 106.33 113.06 108.10 107.35 109.33 C 103.27 109.47 99.23 109.07 95.21 108.39 C 90.51 105.97 84.88 102.28 82.76 97.22 C 81.50 93.28 83.95 88.55 83.19 84.42 C 82.53 80.61 81.32 76.92 80.61 73.11 Z" fill="#dadada" />
<path d="M 49.35 76.33 C 47.49 79.53 45.73 82.74 44.36 86.18 C 43.24 85.77 42.13 85.36 41.01 84.94 C 37.82 87.21 34.01 90.48 29.97 90.80 C 25.84 91.01 21.44 89.38 18.33 86.66 C 16.00 84.60 15.05 81.67 14.26 78.76 C 15.84 80.48 17.39 82.28 19.12 83.86 C 22.15 86.70 26.85 88.13 30.95 87.68 C 32.98 87.06 34.73 85.39 36.54 84.29 C 40.99 81.77 45.57 79.93 49.35 76.33 Z" fill="#d6d6d6" />
<path d="M 164.65 77.82 C 167.24 79.56 171.67 82.48 171.55 86.01 C 170.78 91.54 167.13 96.07 167.10 101.99 C 166.52 112.77 172.43 121.59 176.91 130.92 C 176.00 130.82 175.10 130.72 174.20 130.61 C 168.86 127.08 163.07 123.98 158.16 119.85 C 153.69 116.06 151.14 111.24 148.42 106.17 C 149.12 103.28 150.01 100.07 149.74 97.08 C 148.29 93.81 145.70 90.98 144.03 87.82 C 142.81 85.36 141.98 82.66 141.05 80.07 C 148.88 76.03 156.18 75.59 164.65 77.82 Z" fill="#aeaeae" />
<path d="M 174.67 87.28 C 175.49 93.77 170.30 100.07 170.90 106.92 C 171.38 115.51 176.18 121.64 178.36 129.44 C 179.77 133.14 174.52 135.43 172.28 137.42 C 171.93 142.38 172.01 147.83 170.51 152.59 C 169.60 156.02 165.77 157.99 163.35 160.41 C 160.17 163.21 159.31 168.31 156.55 171.55 C 154.03 174.25 149.70 175.45 146.32 173.68 C 141.52 171.32 138.58 166.01 136.98 161.11 C 135.04 155.47 135.19 149.32 133.33 143.71 C 127.22 142.04 121.29 142.70 115.67 139.33 C 110.52 136.56 107.39 131.16 102.35 128.48 C 100.14 127.23 97.71 128.78 95.36 129.21 C 96.69 132.41 98.76 136.22 98.66 139.77 C 98.54 142.64 96.29 143.71 94.08 144.92 C 89.95 146.87 85.71 148.77 81.32 150.05 C 73.64 152.16 64.75 148.78 57.06 149.13 C 55.79 149.32 54.22 149.20 53.83 150.75 C 52.26 155.09 52.70 160.52 50.54 164.57 C 48.80 167.48 45.59 168.12 42.45 167.50 C 35.39 166.10 30.15 160.30 26.74 154.29 C 21.35 145.32 21.05 133.45 22.58 123.39 C 23.07 119.90 24.78 117.81 27.60 115.88 C 24.22 126.79 23.84 140.90 29.99 150.91 C 32.98 155.30 36.27 160.73 42.04 161.52 C 43.99 161.90 45.96 162.22 47.92 162.55 C 48.64 156.49 49.25 150.42 49.92 144.35 C 48.71 144.22 47.50 144.09 46.30 143.95 C 43.99 143.46 41.48 142.89 39.52 141.53 C 39.09 138.74 39.24 135.81 39.23 132.99 C 42.38 132.41 45.51 131.77 48.60 130.93 C 48.14 134.31 48.37 137.29 49.32 140.57 C 51.04 142.49 52.54 144.35 55.21 144.89 C 60.51 146.02 66.01 146.30 71.39 146.92 C 79.53 147.86 87.82 145.06 93.51 139.12 C 94.53 138.93 95.55 138.73 96.58 138.53 C 94.99 134.59 93.27 130.85 90.29 127.74 C 92.04 126.71 93.91 125.01 96.00 125.03 C 99.62 124.91 103.24 125.57 106.18 127.80 C 110.67 131.18 113.65 135.59 119.02 137.98 C 123.92 140.21 130.49 139.27 135.31 140.72 C 136.76 141.13 136.69 142.88 136.99 144.08 C 137.95 150.54 137.65 156.51 140.45 162.65 C 141.90 165.94 144.32 169.71 147.75 171.17 C 150.83 172.42 154.31 170.72 155.84 167.90 C 157.57 164.77 158.36 161.00 159.38 157.59 C 161.88 156.34 165.13 155.21 166.96 153.04 C 169.56 149.47 169.23 144.70 169.09 140.52 C 169.07 139.14 169.00 137.76 168.94 136.38 C 165.53 134.70 162.20 132.88 159.03 130.79 C 157.94 129.84 156.91 128.84 155.91 127.80 C 156.65 126.71 157.38 125.63 158.11 124.54 C 163.23 127.66 168.02 130.45 174.20 130.61 C 175.10 130.72 176.00 130.82 176.91 130.92 C 172.43 121.59 166.52 112.77 167.10 101.99 C 167.13 96.07 170.78 91.54 171.55 86.01 C 171.67 82.48 167.24 79.56 164.65 77.82 C 169.66 79.01 173.72 81.96 174.67 87.28 Z" fill="#eaeaea" />
<path d="M 148.42 106.17 C 151.14 111.24 153.69 116.06 158.16 119.85 C 163.07 123.98 168.86 127.08 174.20 130.61 C 168.02 130.45 163.23 127.66 158.11 124.54 C 157.38 125.63 156.65 126.71 155.91 127.80 L 154.89 126.64 C 154.55 124.87 154.32 122.96 153.60 121.30 C 151.79 118.12 147.67 115.75 146.66 112.22 C 145.91 109.88 147.47 108.19 148.42 106.17 Z" fill="#d4d4d4" />
<path d="M 95.21 108.39 C 99.23 109.07 103.27 109.47 107.35 109.33 C 106.61 113.13 106.08 118.29 103.36 121.24 C 99.49 122.16 95.02 121.09 91.08 120.85 C 92.58 116.74 93.84 112.55 95.21 108.39 Z" fill="#929292" />
<path d="M 86.85 119.82 C 81.18 122.97 76.34 126.31 72.51 131.66 C 73.98 131.27 75.44 130.87 76.91 130.49 C 79.95 134.00 82.74 137.62 85.34 141.47 C 82.41 143.01 80.24 144.98 76.70 144.59 C 67.39 143.74 58.31 143.35 49.32 140.57 C 48.37 137.29 48.14 134.31 48.60 130.93 C 54.40 126.17 60.69 126.83 67.57 124.58 C 73.96 122.51 80.23 120.94 86.85 119.82 Z" fill="#b0b0b0" />
<path d="M 106.12 124.73 C 111.18 127.27 114.72 133.71 120.10 135.72 C 124.24 136.97 129.08 136.42 133.39 136.66 C 130.81 136.94 128.24 137.25 125.65 137.42 C 130.07 137.68 134.46 138.10 138.86 138.63 C 137.70 145.98 138.23 152.50 141.09 159.40 C 142.56 162.53 144.52 165.64 147.12 167.95 C 148.60 169.56 151.15 168.86 152.75 167.81 C 155.53 165.69 157.10 161.90 157.62 158.53 C 158.18 155.71 155.54 152.97 153.98 150.87 C 156.62 151.75 159.30 152.34 161.97 153.11 C 163.00 153.48 164.02 153.85 165.05 154.22 C 166.64 149.72 168.07 145.18 169.09 140.52 C 169.23 144.70 169.56 149.47 166.96 153.04 C 165.13 155.21 161.88 156.34 159.38 157.59 C 158.36 161.00 157.57 164.77 155.84 167.90 C 154.31 170.72 150.83 172.42 147.75 171.17 C 144.32 169.71 141.90 165.94 140.45 162.65 C 137.65 156.51 137.95 150.54 136.99 144.08 C 136.69 142.88 136.76 141.13 135.31 140.72 C 130.49 139.27 123.92 140.21 119.02 137.98 C 113.65 135.59 110.67 131.18 106.18 127.80 C 103.24 125.57 99.62 124.91 96.00 125.03 C 93.91 125.01 92.04 126.71 90.29 127.74 C 89.05 126.49 87.76 125.28 86.43 124.13 C 92.75 122.31 100.01 122.01 106.12 124.73 Z" fill="#d9d9d9" />
<path d="M 86.43 124.13 C 87.76 125.28 89.05 126.49 90.29 127.74 C 93.27 130.85 94.99 134.59 96.58 138.53 C 95.55 138.73 94.53 138.93 93.51 139.12 C 90.69 139.65 87.94 140.20 85.34 141.47 C 82.74 137.62 79.95 134.00 76.91 130.49 C 79.86 127.78 82.41 125.13 86.43 124.13 Z" fill="#919191" />
<path d="M 154.89 126.64 L 155.91 127.80 C 156.91 128.84 157.94 129.84 159.03 130.79 C 157.23 135.80 155.57 140.82 153.06 145.55 C 152.10 144.10 150.89 142.82 151.03 140.98 C 151.35 136.15 153.46 131.25 154.89 126.64 Z" fill="#aeaeae" />
<path d="M 159.03 130.79 C 162.20 132.88 165.53 134.70 168.94 136.38 C 169.00 137.76 169.07 139.14 169.09 140.52 C 168.07 145.18 166.64 149.72 165.05 154.22 C 164.02 153.85 163.00 153.48 161.97 153.11 C 158.88 150.75 155.86 148.24 153.06 145.55 C 155.57 140.82 157.23 135.80 159.03 130.79 Z" fill="#8e8e8e" />
<path d="M 93.51 139.12 C 87.82 145.06 79.53 147.86 71.39 146.92 C 66.01 146.30 60.51 146.02 55.21 144.89 C 52.54 144.35 51.04 142.49 49.32 140.57 C 58.31 143.35 67.39 143.74 76.70 144.59 C 80.24 144.98 82.41 143.01 85.34 141.47 C 87.94 140.20 90.69 139.65 93.51 139.12 Z" fill="#cdcdcd" />
<path d="M 46.30 143.95 C 47.50 144.09 48.71 144.22 49.92 144.35 C 49.25 150.42 48.64 156.49 47.92 162.55 C 45.96 162.22 43.99 161.90 42.04 161.52 C 43.16 155.53 44.25 149.72 46.30 143.95 Z" fill="#919191" />
<path d="M 150.48 148.82 C 151.67 149.46 152.82 150.18 153.98 150.87 C 155.54 152.97 158.18 155.71 157.62 158.53 C 157.10 161.90 155.53 165.69 152.75 167.81 C 151.15 168.86 148.60 169.56 147.12 167.95 C 144.52 165.64 142.56 162.53 141.09 159.40 C 145.17 156.61 147.86 152.93 150.48 148.82 Z" fill="#8e8e8e" /></svg>