<?xml version="1.0" encoding="UTF-8" standalone="no"?>
<!DOCTYPE svg PUBLIC "-//W3C//DTD SVG 1.1//EN" "http://www.w3.org/Graphics/SVG/1.1/DTD/svg11.dtd">
<svg viewBox="0 0 192 192" height="192.0pt" width="192.0pt" xmlns="http://www.w3.org/2000/svg" version="1.1">
<path d="M 67.08 21.89 C 70.52 24.49 72.44 28.13 75.32 31.19 C 76.21 31.17 77.09 31.08 77.98 30.91 C 89.28 28.42 101.26 28.38 112.63 30.40 C 114.17 30.52 115.54 30.87 116.89 29.88 C 120.52 27.26 123.06 23.36 126.71 20.70 C 136.95 12.97 151.60 12.70 162.32 19.66 C 168.58 23.47 172.38 29.23 175.58 35.66 C 182.75 46.99 180.51 63.23 172.62 73.62 C 169.76 77.72 165.33 80.43 162.51 84.48 C 161.58 87.07 161.91 90.19 161.67 92.92 C 161.48 99.32 158.17 105.36 154.25 110.26 C 152.52 112.54 150.15 115.09 149.42 117.90 C 152.07 122.11 155.67 125.60 158.07 130.01 C 162.02 137.00 166.55 144.73 166.36 152.98 C 166.50 157.41 164.05 161.05 160.98 163.99 C 158.11 166.68 154.57 167.53 151.19 169.35 C 146.62 171.86 143.55 177.43 138.83 179.86 C 130.89 183.34 122.09 183.02 114.08 179.93 C 108.00 177.40 102.36 178.49 96.00 178.37 C 91.79 178.43 87.42 177.95 83.25 178.56 C 79.03 179.40 75.31 181.63 70.94 182.19 C 64.63 183.02 57.92 181.68 52.26 178.79 C 48.35 176.78 46.70 173.18 43.46 170.60 C 39.66 168.17 35.18 167.58 31.57 164.43 C 27.33 160.93 25.05 155.49 25.68 150.01 C 28.35 137.11 35.58 127.87 43.21 117.62 C 43.03 115.14 40.61 112.76 39.12 110.89 C 33.74 104.93 30.25 97.46 31.09 89.28 C 31.50 83.66 27.49 81.48 24.06 77.94 C 16.90 71.27 12.91 61.72 12.63 52.00 C 12.80 47.80 14.24 43.58 15.31 39.52 C 17.48 31.65 22.64 24.91 29.23 20.19 C 40.39 12.23 56.64 13.03 67.08 21.89 Z" fill="#dadada" />
<path d="M 59.63 31.36 C 60.96 32.62 63.58 34.48 62.71 36.57 C 58.86 37.46 55.21 37.54 51.81 39.81 C 46.68 43.16 40.91 45.21 36.01 48.84 C 37.78 49.09 39.58 49.25 41.33 49.60 C 41.74 52.75 41.84 56.14 41.34 59.28 C 41.18 60.75 38.81 60.24 38.04 61.23 C 37.03 62.89 36.40 64.79 35.49 66.51 C 33.78 66.49 32.06 64.21 30.97 63.04 C 23.62 54.36 24.18 40.39 32.67 32.67 C 39.79 25.50 51.87 24.82 59.63 31.36 Z" fill="#eeeeee" />
<path d="M 146.00 26.95 C 156.82 27.17 166.29 37.18 166.09 47.98 C 166.53 54.90 163.06 63.50 156.55 66.64 C 155.58 64.34 154.89 61.93 153.88 59.65 C 152.88 60.16 151.91 60.74 150.91 61.26 C 150.81 56.79 149.51 51.20 152.30 47.49 C 149.07 44.13 144.38 42.00 140.44 39.54 C 136.88 37.31 133.20 37.44 129.22 36.64 C 128.99 35.99 129.13 35.31 129.64 34.58 C 133.21 29.50 139.84 26.57 146.00 26.95 Z" fill="#eeeeee" />
<path d="M 70.42 73.56 C 75.68 75.87 77.70 80.58 78.34 86.00 C 76.66 89.28 75.17 92.62 73.98 96.12 C 70.57 98.13 67.02 99.46 62.98 99.08 C 54.67 98.79 48.30 89.99 50.90 81.99 C 53.05 73.80 62.98 69.79 70.42 73.56 Z" fill="#f7f7f7" />
<path d="M 141.01 81.02 C 144.47 89.00 137.55 98.97 129.01 99.07 C 125.00 99.38 121.52 97.96 118.09 96.06 C 116.89 92.86 115.50 89.84 113.84 86.85 C 114.00 81.19 116.39 76.16 121.64 73.63 C 128.82 69.89 138.14 73.47 141.01 81.02 Z" fill="#f7f7f7" />
<path d="M 61.30 76.25 C 67.12 74.26 74.27 78.64 74.24 84.99 C 75.32 92.07 66.43 98.19 60.21 94.80 C 56.29 93.26 54.21 89.13 54.15 85.11 C 54.71 81.11 57.41 77.52 61.30 76.25 Z" fill="#939393" />
<path d="M 124.41 76.39 C 129.16 74.88 134.69 76.37 136.80 81.20 C 139.54 86.03 137.17 91.97 132.48 94.49 C 126.94 98.04 118.17 93.62 117.89 86.98 C 117.28 82.36 120.03 77.90 124.41 76.39 Z" fill="#8f8f8f" />
<path d="M 95.04 77.01 C 102.71 76.72 109.34 80.85 113.84 86.85 C 115.50 89.84 116.89 92.86 118.09 96.06 C 118.23 104.16 118.96 112.57 114.95 119.93 C 112.61 124.42 108.55 127.16 103.93 128.94 C 98.68 129.44 93.33 129.39 88.08 128.88 C 83.76 127.08 79.63 125.01 77.33 120.70 C 73.20 113.09 73.97 104.48 73.98 96.12 C 75.17 92.62 76.66 89.28 78.34 86.00 C 82.79 81.74 88.72 77.50 95.04 77.01 Z" fill="#a6a6a6" />
<path d="M 62.26 122.33 C 65.16 122.87 68.02 124.18 70.81 125.15 C 76.38 127.16 82.17 128.39 88.08 128.88 C 93.33 129.39 98.68 129.44 103.93 128.94 C 110.10 128.38 116.17 127.08 122.00 124.97 C 124.58 124.06 127.17 122.90 129.83 122.28 C 132.00 125.05 132.43 128.35 133.26 131.67 C 128.16 130.96 123.28 130.19 118.41 132.38 C 111.66 135.37 107.41 141.44 105.31 148.35 C 103.92 152.82 104.32 157.08 103.61 161.59 C 98.89 162.34 93.24 162.34 88.53 161.49 C 87.58 156.33 88.58 151.55 86.45 146.57 C 83.90 140.64 79.87 134.78 73.69 132.27 C 68.89 130.20 63.76 131.05 58.76 131.69 C 59.64 128.37 60.21 125.19 62.26 122.33 Z" fill="#eeeeee" />
<path d="M 73.69 132.27 C 79.87 134.78 83.90 140.64 86.45 146.57 C 88.58 151.55 87.58 156.33 88.53 161.49 C 93.24 162.34 98.89 162.34 103.61 161.59 C 104.32 157.08 103.92 152.82 105.31 148.35 C 107.41 141.44 111.66 135.37 118.41 132.38 C 123.28 130.19 128.16 130.96 133.26 131.67 C 138.83 134.98 143.23 139.27 145.66 145.38 C 148.29 151.08 148.00 156.77 148.36 162.86 C 151.74 162.91 154.62 161.83 157.85 161.13 C 157.80 162.06 157.71 162.97 157.47 163.87 C 154.45 166.17 150.15 166.85 147.17 169.24 C 144.49 171.62 143.19 175.13 139.99 177.01 C 134.81 180.07 127.92 180.46 122.08 179.85 C 117.94 179.43 114.46 177.75 110.57 176.52 C 106.40 175.11 101.39 176.11 97.00 176.09 C 90.98 176.28 85.92 174.77 80.14 177.22 C 73.18 180.28 65.43 180.97 58.08 179.02 C 54.44 177.95 50.48 176.07 48.53 172.64 C 47.49 171.19 46.92 169.05 45.07 168.52 C 40.70 166.85 36.22 165.70 32.43 162.65 C 31.29 161.83 31.40 160.22 31.19 158.96 C 35.74 161.02 39.07 163.79 44.44 162.99 C 44.03 155.72 44.62 148.76 48.30 142.31 C 50.79 137.69 54.64 134.74 58.76 131.69 C 63.76 131.05 68.89 130.20 73.69 132.27 Z" fill="#d0d0d0" />
<path d="M 63.41 141.44 C 69.06 140.00 74.37 142.76 77.89 147.09 C 82.72 153.01 84.57 162.23 81.32 169.30 C 79.22 173.80 74.69 175.56 70.02 176.03 C 65.15 176.46 58.87 176.27 54.79 173.20 C 50.40 169.87 49.37 163.31 50.18 158.19 C 51.36 150.69 55.78 143.59 63.41 141.44 Z" fill="#eeeeee" />
<path d="M 123.34 141.38 C 127.61 140.43 132.01 141.88 135.24 144.75 C 141.76 150.58 144.43 160.91 141.02 169.05 C 138.83 173.87 134.04 175.72 129.04 176.09 C 123.72 176.41 116.92 176.22 113.06 171.95 C 109.32 168.09 109.27 162.05 110.01 157.06 C 111.26 150.10 116.10 143.00 123.34 141.38 Z" fill="#eeeeee" /></svg>