<?xml version="1.0" encoding="UTF-8" standalone="no"?>
<!DOCTYPE svg PUBLIC "-//W3C//DTD SVG 1.1//EN" "http://www.w3.org/Graphics/SVG/1.1/DTD/svg11.dtd">
<svg viewBox="0 0 192 192" height="192.0pt" width="192.0pt" xmlns="http://www.w3.org/2000/svg" version="1.1">
<path d="M 60.03 14.77 C 68.71 14.35 77.85 16.71 85.74 20.26 C 88.86 21.67 92.01 21.78 95.36 21.35 C 105.62 20.07 116.01 20.06 126.22 21.74 C 130.97 22.65 133.84 19.71 138.08 18.16 C 145.19 15.40 153.43 14.70 161.00 14.63 C 164.37 21.10 167.50 27.01 166.91 34.62 C 166.54 41.59 162.79 46.64 161.16 53.10 C 160.31 56.22 161.38 58.74 162.37 61.62 C 164.43 67.31 164.60 72.97 165.36 78.96 C 166.06 85.62 167.18 92.30 167.49 98.98 C 167.61 102.71 167.65 106.67 166.24 110.18 C 164.91 113.71 162.45 117.16 162.31 120.96 C 162.10 126.43 163.23 131.81 162.75 137.33 C 162.35 142.36 161.17 147.97 158.26 152.20 C 155.79 155.78 152.15 157.42 148.73 159.87 C 143.36 163.43 143.13 170.67 137.12 174.15 C 127.83 179.56 117.25 178.12 107.00 178.30 C 98.26 178.31 89.48 179.34 81.80 174.24 C 76.73 170.94 75.84 165.90 72.56 161.34 C 69.48 157.66 63.90 156.34 60.90 152.09 C 58.66 149.32 57.16 144.97 54.12 143.07 C 49.10 140.74 43.74 140.32 39.02 137.03 C 27.17 129.57 20.60 112.77 26.95 99.78 C 26.97 104.70 26.89 109.70 27.48 114.59 C 28.93 124.23 35.27 133.81 44.56 137.42 C 48.75 139.24 53.50 139.69 57.59 141.66 C 59.62 143.03 60.54 146.12 61.71 148.23 C 64.11 153.82 70.48 156.53 75.34 159.73 C 74.48 151.16 72.83 142.72 72.10 134.13 C 73.83 133.04 75.52 131.86 77.21 130.69 C 75.48 128.40 73.79 126.12 71.81 124.03 C 71.98 122.94 72.14 121.84 72.31 120.75 C 77.49 122.79 82.85 123.98 88.08 125.81 C 84.38 127.46 81.14 129.74 77.88 132.10 C 81.64 136.54 85.61 140.76 89.76 144.84 C 92.42 140.73 94.76 136.46 96.98 132.10 C 96.39 131.34 95.78 130.58 95.17 129.84 C 98.64 130.93 102.24 131.64 105.86 132.00 C 105.09 138.03 104.80 144.10 104.75 150.18 C 101.45 146.88 98.12 143.57 94.75 140.32 C 92.33 143.27 89.68 146.52 88.39 150.15 C 89.13 153.11 92.70 155.39 94.85 157.39 C 98.14 155.21 101.44 153.07 104.81 151.03 C 105.21 157.70 106.05 164.38 107.27 170.95 C 101.85 171.86 96.70 172.67 91.23 171.50 C 87.67 170.73 84.17 169.89 80.51 169.72 C 82.83 171.96 85.01 174.02 88.26 174.75 C 93.65 176.01 99.46 175.47 104.98 176.15 C 110.94 176.92 116.92 175.55 122.97 175.59 C 129.69 175.43 135.99 173.99 139.95 168.08 C 139.23 167.63 138.51 167.59 137.80 167.93 C 134.92 168.97 132.30 170.44 129.29 171.20 C 123.32 172.69 117.66 171.99 111.70 171.00 C 111.78 169.96 111.86 168.92 111.96 167.88 C 114.45 155.98 114.88 144.11 113.07 132.07 C 117.34 131.75 121.50 130.95 125.36 129.03 C 126.20 133.01 127.97 136.34 131.97 137.86 C 135.59 136.68 138.87 133.95 141.97 131.79 C 139.89 129.37 137.88 126.98 135.62 124.71 C 139.46 123.69 143.25 122.56 146.94 121.07 C 146.97 124.81 147.06 128.54 147.25 132.27 C 145.88 132.62 144.53 133.00 143.17 133.38 C 143.17 136.52 143.15 139.66 143.11 142.80 C 144.14 143.09 145.17 143.37 146.20 143.65 C 144.83 149.34 143.71 155.08 142.76 160.85 C 147.56 157.87 153.14 155.03 156.17 150.09 C 159.71 144.66 160.23 137.60 160.38 131.31 C 160.46 125.70 159.93 120.16 158.24 114.79 C 161.83 110.79 165.33 106.38 165.66 100.78 C 166.31 92.35 163.82 83.17 161.74 75.03 C 160.22 77.00 158.73 79.01 157.15 80.94 C 155.86 80.27 154.57 79.60 153.25 78.99 C 157.20 72.44 158.10 64.30 156.02 56.98 C 155.27 54.44 153.64 52.87 151.25 51.81 C 146.57 49.76 141.49 48.41 136.47 47.47 C 131.72 46.63 127.37 47.54 122.72 48.44 C 120.33 45.86 117.96 43.33 115.27 41.05 C 112.98 44.55 111.09 48.19 109.16 51.89 C 111.17 54.15 113.18 56.41 115.18 58.68 C 116.37 58.13 117.56 57.59 118.75 57.04 C 118.72 62.58 119.26 68.18 120.43 73.59 C 117.98 78.19 116.46 83.08 114.97 88.05 C 111.11 88.05 107.25 87.98 103.40 87.83 C 102.34 82.99 100.99 78.27 98.78 73.82 C 100.13 67.42 101.71 59.12 99.00 52.97 C 96.61 48.26 92.61 47.67 87.87 46.78 C 90.85 44.65 93.81 42.50 96.75 40.33 C 93.38 36.88 89.95 33.19 86.21 30.14 C 83.88 33.56 81.82 37.20 79.73 40.77 C 76.48 39.92 73.23 39.06 69.98 38.21 C 69.93 42.33 70.13 46.41 70.91 50.47 C 67.73 51.64 64.54 52.96 63.42 56.46 C 61.42 62.57 62.18 69.76 64.01 75.83 C 63.20 77.54 62.45 79.26 61.69 80.99 C 59.89 79.35 58.11 77.68 56.31 76.03 C 57.28 70.16 58.37 64.74 57.22 58.77 C 56.11 53.36 53.86 48.14 51.64 43.10 C 52.48 39.41 52.59 35.69 52.72 31.93 C 52.88 27.36 54.05 22.81 55.81 18.60 C 56.77 16.73 57.58 14.78 60.03 14.77 Z" fill="#e0e0e0" />
<path d="M 62.50 22.67 C 68.21 21.92 74.59 23.72 80.05 25.34 C 77.37 27.56 74.53 29.63 71.98 31.99 C 68.69 35.04 66.32 38.89 63.69 42.51 C 62.02 39.40 60.29 36.57 60.19 32.92 C 60.13 29.44 60.81 25.74 62.50 22.67 Z" fill="#afafaf" />
<path d="M 157.13 22.86 C 160.17 29.67 159.87 36.49 155.34 42.54 C 153.15 39.51 151.05 36.20 148.51 33.47 C 145.82 30.56 142.31 28.27 139.09 25.95 C 144.47 23.63 151.27 21.41 157.13 22.86 Z" fill="#aaaaaa" />
<path d="M 102.39 28.28 C 106.49 28.69 110.49 30.37 114.29 31.84 C 112.84 34.81 111.37 37.76 109.87 40.70 C 107.35 40.04 104.82 39.39 102.30 38.75 C 102.23 35.28 102.07 31.73 102.39 28.28 Z" fill="#adadad" />
<path d="M 86.21 30.14 C 89.95 33.19 93.38 36.88 96.75 40.33 C 93.81 42.50 90.85 44.65 87.87 46.78 C 85.87 46.04 84.04 45.00 82.14 44.06 C 80.89 45.43 79.80 47.17 78.28 48.23 C 75.99 49.33 73.34 49.76 70.91 50.47 C 70.13 46.41 69.93 42.33 69.98 38.21 C 73.23 39.06 76.48 39.92 79.73 40.77 C 81.82 37.20 83.88 33.56 86.21 30.14 Z" fill="#aeaeae" />
<path d="M 137.93 30.13 C 141.63 33.23 144.92 36.77 148.23 40.29 C 144.92 42.93 141.48 45.30 137.86 47.50 C 135.73 45.12 133.67 42.69 131.67 40.21 C 133.64 36.74 135.54 33.34 137.93 30.13 Z" fill="#ababab" />
<path d="M 43.95 39.09 C 47.22 39.12 49.33 41.07 51.64 43.10 C 53.86 48.14 56.11 53.36 57.22 58.77 C 58.37 64.74 57.28 70.16 56.31 76.03 C 55.20 82.97 54.28 89.98 53.92 97.00 C 52.91 96.56 51.89 96.14 50.86 95.75 C 47.65 99.83 45.32 104.38 43.40 109.19 C 41.48 106.57 39.20 104.19 36.76 102.04 C 34.20 102.93 31.70 104.05 29.22 105.13 C 30.31 108.64 31.50 112.10 32.84 115.52 C 36.45 113.68 40.04 111.81 43.66 109.98 C 44.37 112.13 45.09 114.29 45.97 116.38 C 48.07 118.79 50.62 120.89 53.16 122.81 C 53.74 122.78 54.32 122.72 54.89 122.63 C 56.97 119.85 57.67 115.89 58.91 112.66 C 62.87 116.14 67.44 118.75 72.31 120.75 C 72.14 121.84 71.98 122.94 71.81 124.03 C 70.88 123.38 69.93 122.79 68.94 122.23 C 66.20 123.35 63.51 124.80 60.87 126.16 C 61.82 130.23 62.92 134.20 64.22 138.17 C 66.90 136.92 69.57 135.67 72.10 134.13 C 72.83 142.72 74.48 151.16 75.34 159.73 C 70.48 156.53 64.11 153.82 61.71 148.23 C 60.54 146.12 59.62 143.03 57.59 141.66 C 53.50 139.69 48.75 139.24 44.56 137.42 C 35.27 133.81 28.93 124.23 27.48 114.59 C 26.89 109.70 26.97 104.70 26.95 99.78 C 29.67 90.71 34.59 81.37 35.33 71.97 C 35.86 64.69 30.79 59.22 31.22 52.06 C 31.59 45.53 36.99 38.79 43.95 39.09 Z" fill="#d0d0d0" />
<path d="M 115.27 41.05 C 117.96 43.33 120.33 45.86 122.72 48.44 C 121.14 51.20 119.70 54.00 118.75 57.04 C 117.56 57.59 116.37 58.13 115.18 58.68 C 113.18 56.41 111.17 54.15 109.16 51.89 C 111.09 48.19 112.98 44.55 115.27 41.05 Z" fill="#adadad" />
<path d="M 82.14 44.06 C 84.04 45.00 85.87 46.04 87.87 46.78 C 92.61 47.67 96.61 48.26 99.00 52.97 C 101.71 59.12 100.13 67.42 98.78 73.82 C 96.95 78.07 94.40 81.77 90.86 84.79 C 87.49 86.23 83.71 87.41 80.00 87.15 C 77.27 86.92 74.53 85.72 72.02 84.64 C 68.81 82.19 66.21 79.20 64.01 75.83 C 62.18 69.76 61.42 62.57 63.42 56.46 C 64.54 52.96 67.73 51.64 70.91 50.47 C 73.34 49.76 75.99 49.33 78.28 48.23 C 79.80 47.17 80.89 45.43 82.14 44.06 Z" fill="#f6f6f6" />
<path d="M 46.86 46.93 C 49.93 49.60 52.49 52.68 55.05 55.83 C 50.72 58.23 46.35 60.54 41.95 62.80 C 40.61 58.88 39.38 54.93 38.23 50.95 C 41.06 49.48 43.86 48.03 46.86 46.93 Z" fill="#c2c2c2" />
<path d="M 136.47 47.47 C 141.49 48.41 146.57 49.76 151.25 51.81 C 153.64 52.87 155.27 54.44 156.02 56.98 C 158.10 64.30 157.20 72.44 153.25 78.99 C 150.71 81.48 148.11 83.89 145.66 86.46 C 147.20 86.54 148.94 86.89 150.45 86.49 C 153.11 85.44 155.34 83.09 157.15 80.94 C 158.73 79.01 160.22 77.00 161.74 75.03 C 163.82 83.17 166.31 92.35 165.66 100.78 C 165.33 106.38 161.83 110.79 158.24 114.79 C 154.71 117.30 150.96 119.45 146.94 121.07 C 143.25 122.56 139.46 123.69 135.62 124.71 C 131.93 125.56 128.68 127.27 125.36 129.03 C 121.50 130.95 117.34 131.75 113.07 132.07 C 110.67 132.15 108.26 132.13 105.86 132.00 C 102.24 131.64 98.64 130.93 95.17 129.84 C 92.89 128.26 90.72 126.75 88.08 125.81 C 82.85 123.98 77.49 122.79 72.31 120.75 C 67.44 118.75 62.87 116.14 58.91 112.66 C 55.51 107.85 54.09 102.86 53.92 97.00 C 54.28 89.98 55.20 82.97 56.31 76.03 C 58.11 77.68 59.89 79.35 61.69 80.99 C 64.22 83.29 66.92 85.37 69.83 87.16 C 75.85 91.02 82.21 93.45 89.11 95.24 C 94.16 98.77 98.78 102.22 105.06 103.25 C 105.17 105.16 105.35 107.05 105.53 108.95 C 101.86 108.05 96.41 105.75 92.90 107.80 C 90.41 108.85 90.33 112.37 91.56 114.35 C 93.97 117.12 98.03 118.62 101.49 119.53 C 109.51 121.46 119.64 120.60 126.30 115.34 C 129.78 113.03 128.03 106.99 123.91 106.96 C 120.30 106.90 116.55 108.12 113.05 108.94 C 113.06 107.19 113.08 105.43 113.10 103.67 C 118.75 102.57 123.90 100.72 127.46 95.95 C 127.84 95.50 128.21 95.05 128.58 94.59 C 130.04 94.82 131.50 95.06 132.96 95.29 C 134.91 97.69 136.91 100.03 138.96 102.33 C 142.36 100.55 145.74 98.75 149.16 97.00 C 149.30 99.92 149.40 102.85 149.50 105.78 C 152.67 106.69 155.84 107.60 159.02 108.48 C 160.77 104.71 162.38 100.88 163.90 97.01 C 159.37 95.46 154.81 94.37 150.10 93.51 C 145.07 92.72 143.59 87.39 138.18 87.15 C 134.75 86.66 131.43 85.98 128.11 85.00 C 124.74 81.68 122.20 78.00 120.43 73.59 C 119.26 68.18 118.72 62.58 118.75 57.04 C 119.70 54.00 121.14 51.20 122.72 48.44 C 127.37 47.54 131.72 46.63 136.47 47.47 Z" fill="#f6f6f6" />
<path d="M 103.23 53.37 C 107.08 55.34 110.33 58.90 113.31 61.99 C 110.16 64.21 106.94 66.30 103.66 68.31 C 102.62 66.60 101.40 64.81 100.77 62.90 C 100.16 59.70 101.58 56.08 103.23 53.37 Z" fill="#adadad" />
<path d="M 72.21 58.46 C 70.84 62.80 68.93 67.47 71.11 71.90 C 74.12 77.57 82.10 79.50 87.69 76.68 C 92.83 74.90 95.06 66.20 91.81 62.17 C 88.14 58.95 81.27 59.33 76.66 58.44 C 82.25 58.05 88.20 58.24 93.36 60.67 C 96.31 62.02 96.95 65.05 97.05 68.01 C 97.03 72.90 95.38 78.28 91.27 81.27 C 85.14 85.80 76.31 85.44 70.56 80.43 C 64.78 75.77 64.10 66.63 67.42 60.38 C 68.50 58.34 70.26 58.68 72.21 58.46 Z" fill="#939393" />
<path d="M 76.66 58.44 C 81.27 59.33 88.14 58.95 91.81 62.17 C 95.06 66.20 92.83 74.90 87.69 76.68 C 82.10 79.50 74.12 77.57 71.11 71.90 C 68.93 67.47 70.84 62.80 72.21 58.46 C 73.69 58.42 75.18 58.43 76.66 58.44 Z" fill="#ffffff" />
<path d="M 142.29 58.41 C 137.57 59.42 130.28 59.18 126.65 62.70 C 125.13 65.94 126.16 70.98 128.11 73.89 C 132.78 79.75 142.80 79.05 147.34 73.37 C 150.57 68.65 149.16 62.61 145.75 58.38 C 147.99 58.59 150.46 57.93 151.77 60.23 C 155.17 66.66 154.19 76.48 147.98 80.96 C 142.08 85.72 133.07 85.54 127.32 80.67 C 123.69 77.53 122.49 72.46 122.26 67.86 C 122.24 64.95 122.72 62.02 125.67 60.70 C 130.67 58.40 136.87 58.12 142.29 58.41 Z" fill="#8e8e8e" />
<path d="M 145.75 58.38 C 149.16 62.61 150.57 68.65 147.34 73.37 C 142.80 79.05 132.78 79.75 128.11 73.89 C 126.16 70.98 125.13 65.94 126.65 62.70 C 130.28 59.18 137.57 59.42 142.29 58.41 C 143.44 58.38 144.60 58.35 145.75 58.38 Z" fill="#ffffff" />
<path d="M 46.03 69.87 C 49.44 72.55 52.29 75.73 55.13 78.99 C 52.23 82.24 49.23 85.32 46.03 88.27 C 42.77 85.33 39.73 82.26 36.81 78.97 C 39.68 75.71 42.58 72.54 46.03 69.87 Z" fill="#c1c1c1" />
<path d="M 98.78 73.82 C 100.99 78.27 102.34 82.99 103.40 87.83 C 107.25 87.98 111.11 88.05 114.97 88.05 C 116.46 83.08 117.98 78.19 120.43 73.59 C 122.20 78.00 124.74 81.68 128.11 85.00 C 125.81 85.99 123.59 87.17 121.35 88.32 C 123.13 89.25 125.14 90.12 126.65 91.46 C 127.05 92.92 127.24 94.46 127.46 95.95 C 123.90 100.72 118.75 102.57 113.10 103.67 C 110.44 103.75 107.71 103.51 105.06 103.25 C 98.78 102.22 94.16 98.77 89.11 95.24 C 90.95 91.56 93.42 90.05 96.99 88.34 C 94.94 87.18 92.92 85.95 90.86 84.79 C 94.40 81.77 96.95 78.07 98.78 73.82 Z" fill="#bababa" />
<path d="M 64.01 75.83 C 66.21 79.20 68.81 82.19 72.02 84.64 C 71.27 85.47 70.55 86.31 69.83 87.16 C 66.92 85.37 64.22 83.29 61.69 80.99 C 62.45 79.26 63.20 77.54 64.01 75.83 Z" fill="#adadad" />
<path d="M 153.25 78.99 C 154.57 79.60 155.86 80.27 157.15 80.94 C 155.34 83.09 153.11 85.44 150.45 86.49 C 148.94 86.89 147.20 86.54 145.66 86.46 C 148.11 83.89 150.71 81.48 153.25 78.99 Z" fill="#aaaaaa" />
<path d="M 72.02 84.64 C 74.53 85.72 77.27 86.92 80.00 87.15 C 83.71 87.41 87.49 86.23 90.86 84.79 C 92.92 85.95 94.94 87.18 96.99 88.34 C 93.42 90.05 90.95 91.56 89.11 95.24 C 82.21 93.45 75.85 91.02 69.83 87.16 C 70.55 86.31 71.27 85.47 72.02 84.64 Z" fill="#e1e1e1" />
<path d="M 128.11 85.00 C 131.43 85.98 134.75 86.66 138.18 87.15 C 136.35 89.80 134.71 92.59 132.96 95.29 C 131.50 95.06 130.04 94.82 128.58 94.59 C 128.21 95.05 127.84 95.50 127.46 95.95 C 127.24 94.46 127.05 92.92 126.65 91.46 C 125.14 90.12 123.13 89.25 121.35 88.32 C 123.59 87.17 125.81 85.99 128.11 85.00 Z" fill="#e0e0e0" />
<path d="M 138.18 87.15 C 143.59 87.39 145.07 92.72 150.10 93.51 C 154.81 94.37 159.37 95.46 163.90 97.01 C 162.38 100.88 160.77 104.71 159.02 108.48 C 155.84 107.60 152.67 106.69 149.50 105.78 C 149.40 102.85 149.30 99.92 149.16 97.00 C 145.74 98.75 142.36 100.55 138.96 102.33 C 136.91 100.03 134.91 97.69 132.96 95.29 C 134.71 92.59 136.35 89.80 138.18 87.15 Z" fill="#a9a9a9" />
<path d="M 50.86 95.75 C 51.89 96.14 52.91 96.56 53.92 97.00 C 54.09 102.86 55.51 107.85 58.91 112.66 C 57.67 115.89 56.97 119.85 54.89 122.63 C 54.32 122.72 53.74 122.78 53.16 122.81 C 54.31 119.64 55.42 116.73 54.60 113.31 C 53.76 109.44 52.87 104.58 50.07 101.63 C 46.63 106.11 46.62 111.04 45.97 116.38 C 45.09 114.29 44.37 112.13 43.66 109.98 L 43.40 109.19 C 45.32 104.38 47.65 99.83 50.86 95.75 Z" fill="#e0e0e0" />
<path d="M 69.32 96.24 C 72.77 97.94 75.71 101.23 78.38 103.95 C 75.54 106.09 72.66 108.18 69.76 110.25 C 67.84 108.15 65.94 106.03 64.03 103.92 C 65.67 101.33 67.29 98.55 69.32 96.24 Z" fill="#adadad" />
<path d="M 36.76 102.04 C 39.20 104.19 41.48 106.57 43.40 109.19 L 43.66 109.98 C 40.04 111.81 36.45 113.68 32.84 115.52 C 31.50 112.10 30.31 108.64 29.22 105.13 C 31.70 104.05 34.20 102.93 36.76 102.04 Z" fill="#c0c0c0" />
<path d="M 50.07 101.63 C 52.87 104.58 53.76 109.44 54.60 113.31 C 55.42 116.73 54.31 119.64 53.16 122.81 C 50.62 120.89 48.07 118.79 45.97 116.38 C 46.62 111.04 46.63 106.11 50.07 101.63 Z" fill="#f6f6f6" />
<path d="M 105.06 103.25 C 107.71 103.51 110.44 103.75 113.10 103.67 C 113.08 105.43 113.06 107.19 113.05 108.94 C 116.55 108.12 120.30 106.90 123.91 106.96 C 128.03 106.99 129.78 113.03 126.30 115.34 C 119.64 120.60 109.51 121.46 101.49 119.53 C 98.03 118.62 93.97 117.12 91.56 114.35 C 90.33 112.37 90.41 108.85 92.90 107.80 C 96.41 105.75 101.86 108.05 105.53 108.95 C 105.35 107.05 105.17 105.16 105.06 103.25 Z" fill="#8f8f8f" />
<path d="M 158.24 114.79 C 159.93 120.16 160.46 125.70 160.38 131.31 C 160.23 137.60 159.71 144.66 156.17 150.09 C 153.14 155.03 147.56 157.87 142.76 160.85 C 143.71 155.08 144.83 149.34 146.20 143.65 C 148.81 144.30 151.45 144.75 154.10 145.19 C 154.87 140.41 155.15 135.76 155.01 130.92 C 152.41 131.30 149.81 131.68 147.25 132.27 C 147.06 128.54 146.97 124.81 146.94 121.07 C 150.96 119.45 154.71 117.30 158.24 114.79 Z" fill="#cecece" />
<path d="M 68.94 122.23 C 69.93 122.79 70.88 123.38 71.81 124.03 C 73.79 126.12 75.48 128.40 77.21 130.69 C 75.52 131.86 73.83 133.04 72.10 134.13 C 69.57 135.67 66.90 136.92 64.22 138.17 C 62.92 134.20 61.82 130.23 60.87 126.16 C 63.51 124.80 66.20 123.35 68.94 122.23 Z" fill="#bebebe" />
<path d="M 50.96 122.50 C 53.64 124.61 55.94 127.09 58.17 129.65 C 54.81 131.92 51.40 134.11 47.92 136.19 C 46.95 135.86 45.99 135.53 45.02 135.21 C 45.24 132.05 45.20 128.91 45.02 125.75 C 46.98 124.62 48.93 123.50 50.96 122.50 Z" fill="#bfbfbf" />
<path d="M 135.62 124.71 C 137.88 126.98 139.89 129.37 141.97 131.79 C 138.87 133.95 135.59 136.68 131.97 137.86 C 127.97 136.34 126.20 133.01 125.36 129.03 C 128.68 127.27 131.93 125.56 135.62 124.71 Z" fill="#cacaca" />
<path d="M 88.08 125.81 C 90.72 126.75 92.89 128.26 95.17 129.84 C 95.78 130.58 96.39 131.34 96.98 132.10 C 94.76 136.46 92.42 140.73 89.76 144.84 C 85.61 140.76 81.64 136.54 77.88 132.10 C 81.14 129.74 84.38 127.46 88.08 125.81 Z" fill="#cbcbcb" />
<path d="M 155.01 130.92 C 155.15 135.76 154.87 140.41 154.10 145.19 C 151.45 144.75 148.81 144.30 146.20 143.65 C 145.17 143.37 144.14 143.09 143.11 142.80 C 143.15 139.66 143.17 136.52 143.17 133.38 C 144.53 133.00 145.88 132.62 147.25 132.27 C 149.81 131.68 152.41 131.30 155.01 130.92 Z" fill="#bdbdbd" />
<path d="M 105.86 132.00 C 108.26 132.13 110.67 132.15 113.07 132.07 C 114.88 144.11 114.45 155.98 111.96 167.88 C 111.26 170.60 110.32 173.26 109.19 175.84 C 108.47 174.24 107.82 172.62 107.27 170.95 C 106.05 164.38 105.21 157.70 104.81 151.03 L 104.75 150.18 C 104.80 144.10 105.09 138.03 105.86 132.00 Z" fill="#8c8c8c" />
<path d="M 133.00 139.06 C 133.15 144.76 133.02 150.38 132.63 156.07 C 127.97 155.27 123.42 154.17 118.88 152.84 C 118.94 149.27 119.02 145.71 119.13 142.15 C 123.72 140.94 128.32 139.90 133.00 139.06 Z" fill="#cacaca" />
<path d="M 94.75 140.32 C 98.12 143.57 101.45 146.88 104.75 150.18 L 104.81 151.03 C 101.44 153.07 98.14 155.21 94.85 157.39 C 92.70 155.39 89.13 153.11 88.39 150.15 C 89.68 146.52 92.33 143.27 94.75 140.32 Z" fill="#cacaca" />
<path d="M 139.95 168.08 C 135.99 173.99 129.69 175.43 122.97 175.59 C 116.92 175.55 110.94 176.92 104.98 176.15 C 99.46 175.47 93.65 176.01 88.26 174.75 C 85.01 174.02 82.83 171.96 80.51 169.72 C 84.17 169.89 87.67 170.73 91.23 171.50 C 96.70 172.67 101.85 171.86 107.27 170.95 C 107.82 172.62 108.47 174.24 109.19 175.84 C 110.32 173.26 111.26 170.60 111.96 167.88 C 111.86 168.92 111.78 169.96 111.70 171.00 C 117.66 171.99 123.32 172.69 129.29 171.20 C 132.30 170.44 134.92 168.97 137.80 167.93 C 138.51 167.59 139.23 167.63 139.95 168.08 Z" fill="#cfcfcf" /></svg>