<?xml version="1.0" encoding="UTF-8" standalone="no"?>
<!DOCTYPE svg PUBLIC "-//W3C//DTD SVG 1.1//EN" "http://www.w3.org/Graphics/SVG/1.1/DTD/svg11.dtd">
<svg viewBox="0 0 192 192" height="192.0pt" width="192.0pt" xmlns="http://www.w3.org/2000/svg" version="1.1">
<path d="M 78.30 18.66 C 84.36 22.21 88.35 27.45 91.85 33.40 C 91.69 34.77 91.56 36.15 91.44 37.52 C 89.35 38.24 87.24 38.94 85.20 39.79 C 83.23 35.56 80.86 31.74 76.88 29.12 C 70.77 24.61 62.20 23.89 55.09 26.08 C 46.70 29.11 39.95 37.40 39.39 46.41 C 38.79 53.32 41.13 60.05 46.07 64.94 C 49.68 68.82 54.24 70.56 59.13 72.26 C 58.78 73.00 58.44 73.74 58.11 74.48 C 53.75 73.71 49.60 72.66 45.95 70.05 C 42.15 67.61 39.71 64.16 36.57 61.05 C 36.04 60.96 35.51 60.88 34.97 60.81 C 37.69 66.72 42.23 70.77 47.02 74.96 L 44.84 75.18 C 34.28 68.74 29.60 57.00 29.72 44.97 C 30.46 45.90 31.19 46.84 31.92 47.78 C 31.61 44.86 31.02 41.91 31.90 39.04 C 34.50 30.34 40.38 22.80 48.28 18.30 C 57.43 13.34 69.29 13.44 78.30 18.66 Z" fill="#dedede" />
<path d="M 148.48 21.49 C 154.13 26.01 157.91 32.23 160.16 39.05 C 161.15 42.01 160.49 44.71 160.09 47.70 C 160.83 46.79 161.56 45.88 162.31 44.97 C 162.59 56.73 157.63 68.98 147.21 75.13 C 142.98 76.45 140.00 78.04 136.57 80.84 C 135.24 78.27 134.01 75.67 132.88 73.01 C 133.95 72.45 135.03 71.89 136.10 71.35 C 141.57 68.88 146.40 65.81 149.50 60.51 C 155.12 51.17 153.29 38.19 145.01 30.99 C 136.49 22.79 121.47 22.82 112.86 30.86 C 110.17 33.31 108.43 36.23 106.53 39.29 C 104.55 38.63 102.52 38.10 100.52 37.54 C 100.39 36.15 100.26 34.76 100.12 33.37 C 103.00 29.39 105.21 25.28 109.06 22.07 C 119.78 12.37 137.43 12.26 148.48 21.49 Z" fill="#dcdcdc" />
<path d="M 76.88 29.12 C 80.86 31.74 83.23 35.56 85.20 39.79 C 72.28 46.41 65.11 59.67 59.13 72.26 C 54.24 70.56 49.68 68.82 46.07 64.94 C 41.13 60.05 38.79 53.32 39.39 46.41 C 39.95 37.40 46.70 29.11 55.09 26.08 C 62.20 23.89 70.77 24.61 76.88 29.12 Z" fill="#ececec" />
<path d="M 145.01 30.99 C 153.29 38.19 155.12 51.17 149.50 60.51 C 146.40 65.81 141.57 68.88 136.10 71.35 C 134.88 71.08 133.66 70.80 132.44 70.52 C 125.91 57.92 119.31 46.51 106.53 39.29 C 108.43 36.23 110.17 33.31 112.86 30.86 C 121.47 22.82 136.49 22.79 145.01 30.99 Z" fill="#ebebeb" />
<path d="M 91.85 33.40 C 92.71 34.29 93.60 35.15 94.49 36.01 C 94.16 36.58 93.83 37.15 93.50 37.71 C 95.09 37.81 96.67 37.91 98.26 38.01 C 98.03 37.35 97.80 36.69 97.57 36.04 C 98.44 35.16 99.30 34.28 100.12 33.37 C 100.26 34.76 100.39 36.15 100.52 37.54 C 102.52 38.10 104.55 38.63 106.53 39.29 C 119.31 46.51 125.91 57.92 132.44 70.52 C 133.66 70.80 134.88 71.08 136.10 71.35 C 135.03 71.89 133.95 72.45 132.88 73.01 C 134.01 75.67 135.24 78.27 136.57 80.84 C 140.00 78.04 142.98 76.45 147.21 75.13 C 144.64 76.89 141.86 78.52 139.54 80.61 C 138.29 81.64 138.69 83.13 138.79 84.55 C 139.49 89.74 141.28 94.19 139.68 99.49 C 137.98 104.80 135.02 110.06 130.73 113.70 C 128.34 115.91 125.78 117.57 124.91 120.91 C 123.92 123.76 125.64 125.79 126.76 128.26 C 129.79 133.77 130.16 139.71 130.66 145.86 C 130.89 151.07 131.12 156.50 128.04 161.01 C 125.94 164.07 124.48 166.94 123.85 170.65 C 119.21 169.41 114.69 169.83 109.97 170.01 C 105.04 170.25 101.10 166.68 95.99 166.81 C 91.15 167.00 87.02 170.17 82.01 170.27 C 79.33 170.26 76.02 170.07 74.17 167.84 C 72.11 165.52 70.48 162.84 68.51 160.45 C 66.43 157.73 64.20 155.63 63.90 152.01 C 63.18 144.32 64.06 136.42 66.13 128.99 C 66.71 126.84 67.07 124.72 66.92 122.48 C 66.85 120.89 67.01 119.49 65.89 118.19 C 63.29 115.06 59.89 112.83 57.49 109.46 C 54.70 105.56 52.19 100.75 51.83 95.89 C 51.47 91.21 54.00 86.28 53.21 81.73 C 51.20 78.97 47.55 77.24 44.84 75.18 L 47.02 74.96 C 50.15 76.34 53.01 78.13 55.75 80.16 C 56.51 78.25 57.27 76.36 58.11 74.48 C 58.44 73.74 58.78 73.00 59.13 72.26 C 65.11 59.67 72.28 46.41 85.20 39.79 C 87.24 38.94 89.35 38.24 91.44 37.52 C 91.56 36.15 91.69 34.77 91.85 33.40 Z" fill="#e4e4e4" />
<path d="M 36.57 61.05 C 39.71 64.16 42.15 67.61 45.95 70.05 C 49.60 72.66 53.75 73.71 58.11 74.48 C 57.27 76.36 56.51 78.25 55.75 80.16 C 53.01 78.13 50.15 76.34 47.02 74.96 C 42.23 70.77 37.69 66.72 34.97 60.81 C 35.51 60.88 36.04 60.96 36.57 61.05 Z" fill="#cecece" />
<path d="M 88.90 72.11 C 93.72 76.34 94.41 83.59 92.31 89.33 C 90.43 93.96 86.53 96.32 82.20 98.32 C 79.00 98.36 75.54 98.40 72.46 97.47 C 69.71 96.49 67.30 94.14 65.13 92.24 C 63.86 89.42 62.53 86.15 62.51 83.01 C 62.60 77.51 65.78 72.21 70.66 69.64 C 76.54 66.65 84.12 67.42 88.90 72.11 Z" fill="#ffffff" />
<path d="M 119.97 69.00 C 125.78 71.30 129.77 77.50 129.46 83.73 C 129.14 86.93 127.64 90.13 126.15 92.95 C 123.94 94.70 121.45 96.87 118.69 97.61 C 115.84 98.34 112.75 98.37 109.83 98.34 C 105.23 96.23 101.13 93.63 99.44 88.58 C 97.86 83.22 98.39 76.68 102.61 72.62 C 107.03 67.96 114.06 66.73 119.97 69.00 Z" fill="#ffffff" />
<path d="M 73.41 72.38 C 76.99 71.02 81.42 71.22 84.65 73.38 C 88.36 75.72 90.67 80.40 89.85 84.77 C 89.03 88.63 86.50 92.34 82.65 93.66 C 77.54 95.13 71.54 94.28 68.34 89.64 C 64.21 83.71 66.53 74.99 73.41 72.38 Z" fill="#939393" />
<path d="M 109.35 72.28 C 113.55 70.78 119.06 71.40 122.26 74.74 C 126.43 78.86 127.14 86.52 122.76 90.76 C 117.59 96.29 107.12 95.39 103.46 88.55 C 99.94 82.70 103.24 74.77 109.35 72.28 Z" fill="#909090" />
<path d="M 65.13 92.24 C 67.30 94.14 69.71 96.49 72.46 97.47 C 75.54 98.40 79.00 98.36 82.20 98.32 C 81.90 101.46 82.66 105.72 79.78 107.81 C 75.94 111.17 71.61 110.99 66.81 111.40 C 63.00 108.94 60.85 106.83 58.34 103.04 C 59.07 98.26 61.66 95.33 65.13 92.24 Z" fill="#ebebeb" />
<path d="M 126.15 92.95 C 128.14 94.01 130.49 95.25 131.84 97.10 C 132.97 99.16 133.04 101.90 133.41 104.19 C 131.09 107.09 128.19 109.22 125.15 111.28 C 120.39 110.96 116.04 111.13 112.23 107.79 C 109.47 105.79 110.13 101.37 109.83 98.34 C 112.75 98.37 115.84 98.34 118.69 97.61 C 121.45 96.87 123.94 94.70 126.15 92.95 Z" fill="#ebebeb" />
<path d="M 89.35 97.36 C 93.34 96.39 97.81 96.46 101.84 97.14 C 104.82 97.76 107.55 99.68 107.68 102.97 C 107.11 105.85 104.76 108.36 103.92 111.13 C 103.91 112.46 104.21 113.81 104.42 115.12 C 101.89 116.62 99.52 118.09 96.64 118.85 C 93.94 119.51 90.88 119.36 88.11 119.31 C 89.15 117.08 90.20 114.85 91.25 112.63 C 88.51 110.17 85.18 107.49 84.39 103.69 C 83.86 100.57 86.56 98.12 89.35 97.36 Z" fill="#909090" />
<path d="M 136.06 100.19 C 136.55 102.57 136.41 103.89 134.89 105.91 C 131.34 110.53 126.79 114.37 122.93 118.75 C 122.09 117.33 121.26 115.90 120.44 114.46 C 122.01 113.40 123.58 112.34 125.15 111.28 C 128.19 109.22 131.09 107.09 133.41 104.19 C 134.31 102.86 135.15 101.51 136.06 100.19 Z" fill="#cecece" />
<path d="M 58.34 103.04 C 60.85 106.83 63.00 108.94 66.81 111.40 C 68.32 112.54 69.72 113.78 71.12 115.04 C 70.43 116.26 69.74 117.49 69.06 118.72 C 64.24 113.16 58.49 109.30 56.15 102.60 C 56.88 102.73 57.61 102.88 58.34 103.04 Z" fill="#cdcdcd" />
<path d="M 66.92 122.48 C 67.07 124.72 66.71 126.84 66.13 128.99 C 64.06 136.42 63.18 144.32 63.90 152.01 C 64.20 155.63 66.43 157.73 68.51 160.45 C 70.48 162.84 72.11 165.52 74.17 167.84 C 76.02 170.07 79.33 170.26 82.01 170.27 C 87.02 170.17 91.15 167.00 95.99 166.81 C 101.10 166.68 105.04 170.25 109.97 170.01 C 114.69 169.83 119.21 169.41 123.85 170.65 C 127.07 171.80 130.04 173.44 132.98 175.17 C 132.32 176.99 131.84 179.14 130.67 180.69 C 129.03 182.33 126.19 182.62 123.99 182.74 C 117.66 182.94 111.36 181.76 105.00 181.75 C 95.91 181.73 87.01 181.35 78.00 179.98 C 70.15 178.72 62.69 175.46 56.46 170.52 C 49.46 165.13 44.41 155.94 47.07 147.02 C 50.72 136.86 57.07 127.48 66.92 122.48 Z" fill="#d7d7d7" /></svg>