<?xml version="1.0" encoding="UTF-8" standalone="no"?>
<!DOCTYPE svg PUBLIC "-//W3C//DTD SVG 1.1//EN" "http://www.w3.org/Graphics/SVG/1.1/DTD/svg11.dtd">
<svg viewBox="0 0 192 192" height="192.0pt" width="192.0pt" xmlns="http://www.w3.org/2000/svg" version="1.1">
<path d="M 70.97 14.82 C 79.18 14.56 87.27 14.43 95.32 16.35 C 93.59 17.15 91.86 17.97 90.14 18.82 C 95.80 20.26 101.39 21.94 107.02 23.43 C 104.99 24.28 102.95 25.14 100.92 26.00 C 104.67 28.27 108.33 30.39 111.34 33.65 C 114.79 37.27 116.83 41.54 117.76 46.43 C 116.40 47.96 114.99 49.45 113.65 50.99 C 111.71 45.24 108.27 39.79 102.22 37.79 C 97.25 36.33 91.37 37.31 86.40 38.43 C 82.15 39.32 78.22 41.66 73.96 42.31 C 70.24 42.06 66.58 40.06 62.99 39.07 C 57.70 37.46 51.16 36.09 45.75 37.75 C 38.95 39.99 34.36 46.28 33.36 53.25 C 32.42 59.83 33.27 67.38 36.94 73.06 C 38.97 76.19 41.74 78.57 44.46 81.07 C 43.62 84.61 42.63 88.33 42.91 91.99 C 43.22 95.84 44.90 99.65 46.84 102.96 C 42.85 102.14 41.65 102.41 38.44 104.81 C 35.15 101.84 32.20 98.79 30.36 94.70 C 28.96 91.82 28.08 88.35 26.12 85.82 C 23.32 82.60 19.45 80.70 17.13 76.82 C 14.73 72.87 14.51 68.35 14.67 63.85 C 15.70 59.78 18.20 55.97 20.78 52.71 C 22.71 51.51 25.18 50.55 26.70 48.83 C 28.21 46.47 28.90 43.50 29.91 40.89 C 32.31 33.88 37.47 27.74 43.31 23.30 C 51.09 17.38 61.41 15.35 70.97 14.82 Z" fill="#b4b4b4" />
<path d="M 62.99 39.07 C 66.58 40.06 70.24 42.06 73.96 42.31 C 78.22 41.66 82.15 39.32 86.40 38.43 C 91.37 37.31 97.25 36.33 102.22 37.79 C 108.27 39.79 111.71 45.24 113.65 50.99 C 114.23 57.72 114.71 64.39 111.72 70.67 C 109.72 75.00 106.37 77.65 102.77 80.56 C 103.71 85.43 104.84 90.59 103.44 95.47 C 101.53 102.12 96.26 107.19 90.19 110.20 C 80.02 115.17 67.69 115.37 57.42 110.57 C 53.38 108.65 50.15 105.91 46.84 102.96 C 44.90 99.65 43.22 95.84 42.91 91.99 C 42.63 88.33 43.62 84.61 44.46 81.07 C 41.74 78.57 38.97 76.19 36.94 73.06 C 33.27 67.38 32.42 59.83 33.36 53.25 C 34.36 46.28 38.95 39.99 45.75 37.75 C 51.16 36.09 57.70 37.46 62.99 39.07 Z" fill="#dcdcdc" />
<path d="M 117.76 46.43 C 120.69 49.18 124.07 51.33 127.11 53.92 C 130.51 56.86 131.81 61.39 133.36 65.45 C 142.52 60.79 152.91 59.46 162.05 64.95 C 170.59 70.32 173.89 79.44 176.48 88.69 C 177.21 97.76 178.72 106.07 177.85 114.75 C 176.84 125.16 174.74 135.51 171.51 145.46 C 168.16 155.65 162.40 165.75 152.18 170.26 C 147.62 172.18 142.35 170.95 137.53 171.30 C 134.95 171.48 132.32 173.03 129.97 174.05 C 123.87 177.03 116.66 177.45 109.97 177.46 C 103.78 177.52 97.42 174.95 91.44 173.25 C 91.47 170.67 91.98 167.48 90.91 165.09 C 89.16 161.97 85.87 159.64 82.51 158.55 C 78.29 157.27 73.36 158.84 69.22 159.88 C 68.97 156.18 68.47 152.55 68.52 148.84 C 65.20 155.47 60.37 161.02 57.40 167.87 C 56.15 163.65 55.52 159.04 51.38 156.61 C 48.28 154.62 45.14 155.33 41.87 156.37 C 45.70 143.98 49.45 131.56 53.44 119.22 C 53.96 117.74 54.48 116.25 55.00 114.77 C 49.08 111.90 43.42 109.21 38.44 104.81 C 41.65 102.41 42.85 102.14 46.84 102.96 C 50.15 105.91 53.38 108.65 57.42 110.57 C 67.69 115.37 80.02 115.17 90.19 110.20 C 96.26 107.19 101.53 102.12 103.44 95.47 C 104.84 90.59 103.71 85.43 102.77 80.56 C 106.37 77.65 109.72 75.00 111.72 70.67 C 114.71 64.39 114.23 57.72 113.65 50.99 C 114.99 49.45 116.40 47.96 117.76 46.43 Z" fill="#afafaf" />
<path d="M 20.78 52.71 C 18.20 55.97 15.70 59.78 14.67 63.85 C 13.88 68.80 13.74 74.34 16.19 78.88 C 18.84 83.80 23.92 86.24 26.67 91.30 C 28.96 95.49 30.37 99.77 33.51 103.50 C 39.16 110.54 46.39 113.14 53.44 119.22 C 49.45 131.56 45.70 143.98 41.87 156.37 C 39.59 158.21 37.44 160.37 34.98 161.96 C 33.08 162.93 30.86 163.34 28.84 164.02 C 33.46 160.81 38.24 157.79 40.07 152.16 C 42.47 145.05 44.28 137.76 46.76 130.67 C 47.74 127.29 49.49 123.01 48.68 119.49 C 46.63 117.20 43.59 115.61 41.04 113.93 C 36.16 110.87 31.90 107.03 28.90 102.06 C 26.85 98.68 25.50 94.83 23.32 91.56 C 20.68 87.64 16.62 84.99 14.04 80.97 C 11.50 76.97 10.60 71.91 11.17 67.24 C 12.20 61.04 14.67 55.33 20.78 52.71 Z" fill="#ededed" />
<path d="M 57.10 53.09 C 61.81 52.68 66.00 56.74 67.01 61.13 C 67.63 64.24 67.02 67.78 66.61 70.91 C 71.30 71.20 75.86 71.14 80.55 70.82 C 80.09 67.75 79.42 64.23 80.05 61.16 C 81.05 56.80 85.36 52.89 89.95 53.05 C 94.00 53.20 97.43 56.71 98.69 60.36 C 100.75 65.72 98.72 72.81 93.56 75.63 C 89.80 77.33 86.22 75.63 82.74 74.16 C 82.73 77.33 83.43 82.36 80.29 84.31 C 76.37 84.77 72.27 84.50 68.31 84.46 C 66.73 84.56 65.31 83.35 64.99 81.84 C 64.43 79.18 64.66 76.25 64.76 73.53 C 61.15 75.75 57.70 77.38 53.45 75.61 C 48.74 73.01 47.29 67.10 48.08 62.11 C 48.75 57.49 52.32 53.49 57.10 53.09 Z" fill="#858585" />
<path d="M 26.27 55.55 C 27.06 59.48 27.97 63.44 28.42 67.42 C 28.87 71.51 27.62 75.14 26.57 79.02 C 22.75 75.31 19.47 71.88 20.03 66.09 C 20.23 61.33 23.07 58.62 26.27 55.55 Z" fill="#ececec" />
<path d="M 120.92 55.34 C 124.67 58.85 127.66 62.49 127.16 67.97 C 127.00 73.10 123.82 75.87 120.38 79.12 C 119.47 75.86 118.58 72.36 118.43 68.97 C 118.60 64.23 119.82 59.91 120.92 55.34 Z" fill="#ebebeb" />
<path d="M 14.67 63.85 C 14.51 68.35 14.73 72.87 17.13 76.82 C 19.45 80.70 23.32 82.60 26.12 85.82 C 28.08 88.35 28.96 91.82 30.36 94.70 C 32.20 98.79 35.15 101.84 38.44 104.81 C 43.42 109.21 49.08 111.90 55.00 114.77 C 54.48 116.25 53.96 117.74 53.44 119.22 C 46.39 113.14 39.16 110.54 33.51 103.50 C 30.37 99.77 28.96 95.49 26.67 91.30 C 23.92 86.24 18.84 83.80 16.19 78.88 C 13.74 74.34 13.88 68.80 14.67 63.85 Z" fill="#d2d2d2" />
<path d="M 62.40 86.40 C 67.22 85.81 72.16 85.93 77.01 85.93 C 82.18 85.99 87.95 86.28 92.78 88.28 C 94.65 89.06 95.74 90.89 95.78 92.89 C 95.06 95.98 92.22 98.14 89.60 99.64 C 81.74 104.12 71.50 104.47 62.91 102.13 C 58.68 100.95 53.59 98.48 51.72 94.24 C 50.72 92.21 51.69 89.75 53.61 88.68 C 56.22 87.26 59.50 86.82 62.40 86.40 Z" fill="#838383" />
<path d="M 119.68 86.54 C 120.82 86.31 121.96 86.21 123.11 86.12 C 124.49 91.22 125.39 95.88 129.44 99.62 C 134.82 105.15 144.56 105.02 150.57 100.58 C 154.47 97.96 156.05 93.74 158.19 89.75 C 160.56 93.98 161.06 97.17 161.17 102.02 C 160.26 100.49 159.22 98.99 157.94 97.74 C 154.26 99.62 151.51 102.96 147.79 104.65 C 143.70 106.02 139.50 106.99 135.51 108.70 C 130.84 101.79 124.56 96.61 117.73 91.95 C 118.33 90.14 118.88 88.27 119.68 86.54 Z" fill="#cfcfcf" />
<path d="M 176.48 88.69 C 177.85 93.04 178.94 97.40 179.06 101.98 C 179.29 110.94 179.84 120.07 178.06 128.79 C 176.36 137.30 174.56 145.87 171.02 153.84 C 167.76 161.35 162.55 169.17 155.39 173.44 C 150.17 176.59 144.81 175.89 139.00 176.46 C 133.40 176.88 129.20 179.50 123.76 180.85 C 116.99 182.52 109.58 182.99 102.78 181.19 C 99.47 180.45 95.96 179.07 92.58 179.85 C 88.36 180.77 84.43 182.19 80.04 182.22 C 71.81 182.33 63.60 182.26 55.39 181.66 C 46.30 181.04 37.93 183.15 29.08 181.89 C 26.51 181.48 24.01 180.85 22.31 178.71 C 20.02 175.73 20.36 171.52 22.57 168.59 C 24.12 166.56 26.64 165.23 28.84 164.02 C 30.86 163.34 33.08 162.93 34.98 161.96 C 37.44 160.37 39.59 158.21 41.87 156.37 C 45.14 155.33 48.28 154.62 51.38 156.61 C 55.52 159.04 56.15 163.65 57.40 167.87 C 60.37 161.02 65.20 155.47 68.52 148.84 C 68.47 152.55 68.97 156.18 69.22 159.88 C 73.36 158.84 78.29 157.27 82.51 158.55 C 85.87 159.64 89.16 161.97 90.91 165.09 C 91.98 167.48 91.47 170.67 91.44 173.25 C 97.42 174.95 103.78 177.52 109.97 177.46 C 116.66 177.45 123.87 177.03 129.97 174.05 C 132.32 173.03 134.95 171.48 137.53 171.30 C 142.35 170.95 147.62 172.18 152.18 170.26 C 162.40 165.75 168.16 155.65 171.51 145.46 C 174.74 135.51 176.84 125.16 177.85 114.75 C 178.72 106.07 177.21 97.76 176.48 88.69 Z" fill="#dbdbdb" />
<path d="M 157.94 97.74 C 159.22 98.99 160.26 100.49 161.17 102.02 C 161.52 111.10 161.06 120.08 158.94 128.94 C 157.33 135.70 155.49 142.97 152.05 149.04 C 150.58 151.80 148.13 152.95 145.66 154.68 C 146.42 138.49 145.06 122.37 135.51 108.70 C 139.50 106.99 143.70 106.02 147.79 104.65 C 151.51 102.96 154.26 99.62 157.94 97.74 Z" fill="#e7e7e7" />
<path d="M 157.66 102.74 C 159.21 115.59 157.30 128.28 153.44 140.54 C 152.70 142.72 151.43 144.56 150.03 146.36 C 147.50 139.59 148.06 132.35 145.60 125.50 C 143.71 120.44 141.43 115.54 139.66 110.42 C 146.00 108.51 151.77 105.69 157.66 102.74 Z" fill="#fdfdfd" />
<path d="M 99.96 111.11 C 110.93 118.53 114.14 130.41 116.30 142.77 C 116.62 145.74 117.13 149.39 114.65 151.63 C 113.39 152.89 111.37 153.62 109.93 152.23 C 108.31 149.62 107.53 146.41 106.42 143.56 C 104.17 137.25 100.19 131.25 94.87 127.13 C 90.96 124.14 86.35 123.03 81.74 121.59 C 83.12 119.28 83.79 116.52 86.60 115.64 C 90.97 113.95 95.49 112.52 99.96 111.11 Z" fill="#dbdbdb" />
<path d="M 64.00 176.16 C 72.53 176.11 81.15 175.50 89.61 176.58 C 87.33 177.49 85.51 178.76 83.02 178.78 C 71.82 179.22 60.64 178.49 49.46 178.47 C 40.41 178.39 32.13 180.63 23.81 176.46 C 28.87 175.88 33.91 175.97 38.99 176.12 C 42.78 176.25 46.40 175.45 50.14 175.17 C 54.95 174.83 59.13 176.08 64.00 176.16 Z" fill="#c5c5c5" /></svg>