<?xml version="1.0" encoding="UTF-8" standalone="no"?>
<!DOCTYPE svg PUBLIC "-//W3C//DTD SVG 1.1//EN" "http://www.w3.org/Graphics/SVG/1.1/DTD/svg11.dtd">
<svg viewBox="0 0 192 192" height="192.0pt" width="192.0pt" xmlns="http://www.w3.org/2000/svg" version="1.1">
<path d="M 134.69 15.05 C 134.69 18.79 136.11 21.13 137.63 24.33 C 138.45 29.42 137.85 34.85 138.03 40.01 C 138.30 46.23 134.52 50.46 136.66 56.37 C 139.68 64.69 137.36 71.79 136.02 79.99 C 135.62 83.41 139.36 83.44 141.67 82.68 C 147.46 79.40 144.71 69.64 151.12 66.18 C 147.64 73.69 150.49 80.62 141.70 84.74 C 138.51 87.02 136.06 83.89 132.86 82.93 C 130.61 80.32 133.06 78.24 133.28 75.19 C 134.10 68.82 136.11 60.74 134.55 54.49 C 130.06 49.46 127.43 57.29 123.94 59.72 C 121.86 61.11 119.79 62.50 117.75 63.93 C 112.41 65.96 106.52 66.79 100.84 67.21 C 99.63 67.08 98.41 66.94 97.19 66.81 C 87.57 65.42 88.52 50.15 96.32 47.35 C 98.39 46.57 106.65 50.31 104.23 45.85 C 107.00 46.50 108.57 48.55 111.33 46.73 C 120.18 43.36 123.38 35.22 127.29 27.31 C 129.37 22.75 133.34 20.14 134.69 15.05 Z" fill="#e9e9e9" />
<path d="M 24.10 30.01 C 32.79 31.50 35.67 44.50 44.06 46.86 C 46.98 48.36 50.76 46.46 53.73 45.72 C 49.66 50.26 56.44 46.48 58.68 47.35 C 66.77 50.04 67.94 64.84 58.67 67.02 C 57.16 67.05 55.64 67.08 54.13 67.13 C 49.00 67.04 43.91 65.93 39.10 64.19 C 36.42 62.74 33.71 61.36 31.08 59.82 C 27.32 55.00 26.08 54.77 19.91 54.77 C 19.86 47.63 15.58 33.65 24.10 30.01 Z" fill="#e9e9e9" />
<path d="M 104.23 45.85 C 106.65 50.31 98.39 46.57 96.32 47.35 C 88.52 50.15 87.57 65.42 97.19 66.81 C 89.43 69.67 85.17 76.38 87.44 84.61 C 89.85 88.85 93.52 93.61 99.00 93.09 C 104.77 93.69 109.41 87.88 110.85 82.88 C 112.24 75.46 108.04 69.18 100.84 67.21 C 106.52 66.79 112.41 65.96 117.75 63.93 C 120.26 69.01 120.80 74.41 122.24 79.79 C 128.71 78.18 128.16 68.21 128.99 63.01 C 129.27 59.61 126.26 60.21 123.94 59.72 C 127.43 57.29 130.06 49.46 134.55 54.49 C 136.11 60.74 134.10 68.82 133.28 75.19 C 133.06 78.24 130.61 80.32 132.86 82.93 C 129.36 82.02 124.48 83.59 122.07 86.04 C 119.02 94.60 113.13 101.32 110.73 110.15 C 105.91 105.71 106.09 99.49 100.25 96.77 C 95.01 94.38 91.59 97.05 86.91 98.71 C 80.59 97.58 74.66 97.97 68.33 98.45 C 63.67 96.36 59.24 94.36 54.35 97.35 C 49.41 100.67 48.79 106.33 44.41 109.87 C 42.51 102.26 38.08 96.28 34.57 89.40 C 30.47 84.68 24.93 83.25 22.65 76.76 C 21.26 69.54 19.98 62.14 19.91 54.77 C 26.08 54.77 27.32 55.00 31.08 59.82 C 28.08 60.45 25.45 58.61 25.96 63.00 C 26.32 67.41 27.17 80.43 33.65 79.70 C 35.13 74.27 36.64 69.29 39.10 64.19 C 43.91 65.93 49.00 67.04 54.13 67.13 C 48.95 69.41 44.17 73.81 44.90 80.00 C 44.48 86.88 49.00 92.63 56.00 93.07 C 64.77 93.39 71.32 83.96 68.17 75.85 C 66.33 70.90 63.54 68.77 58.67 67.02 C 67.94 64.84 66.77 50.04 58.68 47.35 C 56.44 46.48 49.66 50.26 53.73 45.72 C 69.31 40.14 88.58 41.08 104.23 45.85 Z" fill="#c9c9c9" />
<path d="M 19.91 54.77 C 19.98 62.14 21.26 69.54 22.65 76.76 C 21.73 84.32 30.92 86.62 33.95 92.02 C 37.55 99.47 42.15 104.84 43.61 112.98 C 42.92 117.44 41.61 121.43 42.35 126.02 C 43.55 137.10 42.62 148.13 43.22 159.23 C 42.98 161.61 42.94 163.91 43.67 166.22 C 44.03 167.69 44.42 169.14 44.75 170.61 C 44.43 175.20 51.20 179.73 55.12 180.85 C 62.38 182.26 71.75 177.71 72.30 169.68 C 72.62 167.84 73.05 166.03 73.42 164.20 C 74.95 159.70 69.81 150.17 77.02 148.96 C 84.69 148.68 81.22 155.05 82.03 160.01 C 82.03 163.03 82.64 165.89 83.05 168.87 C 83.17 176.54 92.77 182.57 99.87 180.82 C 107.17 179.68 109.29 174.58 113.48 169.48 C 117.34 166.04 121.13 163.21 123.47 158.41 C 124.22 156.35 126.10 157.76 127.69 157.82 L 127.75 158.60 C 126.50 162.97 132.14 168.41 135.65 170.32 C 144.72 174.40 155.19 167.93 154.95 157.86 C 155.03 155.57 155.00 153.29 154.97 151.00 C 155.07 138.67 154.93 126.33 155.04 114.00 C 155.44 107.52 153.89 101.10 149.79 95.98 C 154.61 88.20 162.91 90.42 168.63 84.62 C 170.60 81.33 172.55 76.61 171.30 72.78 C 171.23 69.71 171.90 66.86 172.31 63.83 C 175.07 66.75 175.42 70.86 174.65 74.64 C 173.27 81.23 172.43 87.56 165.32 90.24 C 161.26 91.98 152.36 92.24 154.16 98.85 C 161.84 113.05 158.08 133.08 159.03 149.00 C 159.34 160.24 156.34 173.07 143.03 174.07 C 134.03 175.22 130.45 169.82 124.76 164.33 C 120.19 167.48 115.77 170.09 112.97 174.99 C 108.65 181.77 99.82 185.92 91.97 183.08 C 83.11 180.72 81.72 173.83 77.95 166.70 C 75.55 170.19 75.27 174.10 72.29 177.28 C 67.54 182.67 59.20 186.01 52.36 182.64 C 44.48 179.69 40.11 172.26 40.00 164.02 C 40.04 149.57 40.19 135.52 39.29 121.16 C 42.73 108.85 36.22 102.20 30.74 92.25 C 27.06 88.38 22.56 86.87 20.67 81.34 C 18.23 73.57 14.38 61.90 19.91 54.77 Z" fill="#e9e9e9" />
<path d="M 31.08 59.82 C 33.71 61.36 36.42 62.74 39.10 64.19 C 36.64 69.29 35.13 74.27 33.65 79.70 C 27.17 80.43 26.32 67.41 25.96 63.00 C 25.45 58.61 28.08 60.45 31.08 59.82 Z" fill="#989898" />
<path d="M 123.94 59.72 C 126.26 60.21 129.27 59.61 128.99 63.01 C 128.16 68.21 128.71 78.18 122.24 79.79 C 120.80 74.41 120.26 69.01 117.75 63.93 C 119.79 62.50 121.86 61.11 123.94 59.72 Z" fill="#939393" />
<path d="M 168.01 61.98 C 170.14 61.87 170.96 62.21 172.31 63.83 C 171.90 66.86 171.23 69.71 171.30 72.78 C 170.52 75.86 170.09 79.61 168.26 82.26 C 162.53 87.84 153.22 85.69 148.95 92.00 C 147.70 93.74 148.86 94.52 149.79 95.98 C 153.89 101.10 155.44 107.52 155.04 114.00 C 154.93 126.33 155.07 138.67 154.97 151.00 C 146.09 151.16 137.13 150.68 128.28 151.21 C 127.95 152.86 127.77 154.55 127.59 156.22 C 126.59 153.68 128.41 147.79 124.17 149.09 C 122.55 148.77 123.05 153.93 122.35 155.21 C 123.09 147.23 117.53 150.47 112.21 150.20 C 111.86 153.35 112.13 156.65 111.79 159.80 C 101.91 160.31 91.94 159.84 82.03 160.01 C 81.22 155.05 84.69 148.68 77.02 148.96 C 69.81 150.17 74.95 159.70 73.42 164.20 C 73.24 162.86 73.01 161.53 72.72 160.22 C 63.87 159.74 54.89 160.05 46.02 160.05 C 42.93 159.21 44.25 164.42 43.67 166.22 C 42.94 163.91 42.98 161.61 43.22 159.23 C 45.06 149.84 43.34 139.69 44.14 130.11 C 52.55 138.98 67.57 138.34 79.00 139.06 C 89.43 138.24 104.43 138.69 111.18 129.20 C 114.33 123.75 113.41 115.68 110.73 110.15 C 113.13 101.32 119.02 94.60 122.07 86.04 C 124.48 83.59 129.36 82.02 132.86 82.93 C 136.06 83.89 138.51 87.02 141.70 84.74 C 150.49 80.62 147.64 73.69 151.12 66.18 C 156.44 63.48 162.12 62.47 168.01 61.98 Z" fill="#bcbcbc" />
<path d="M 54.13 67.13 C 55.64 67.08 57.16 67.05 58.67 67.02 C 63.54 68.77 66.33 70.90 68.17 75.85 C 71.32 83.96 64.77 93.39 56.00 93.07 C 49.00 92.63 44.48 86.88 44.90 80.00 C 44.17 73.81 48.95 69.41 54.13 67.13 Z" fill="#959595" />
<path d="M 97.19 66.81 C 98.41 66.94 99.63 67.08 100.84 67.21 C 108.04 69.18 112.24 75.46 110.85 82.88 C 109.41 87.88 104.77 93.69 99.00 93.09 C 93.52 93.61 89.85 88.85 87.44 84.61 C 85.17 76.38 89.43 69.67 97.19 66.81 Z" fill="#939393" />
<path d="M 171.30 72.78 C 172.55 76.61 170.60 81.33 168.63 84.62 C 162.91 90.42 154.61 88.20 149.79 95.98 C 148.86 94.52 147.70 93.74 148.95 92.00 C 153.22 85.69 162.53 87.84 168.26 82.26 C 170.09 79.61 170.52 75.86 171.30 72.78 Z" fill="#d5d5d5" />
<path d="M 22.65 76.76 C 24.93 83.25 30.47 84.68 34.57 89.40 C 38.08 96.28 42.51 102.26 44.41 109.87 C 48.79 106.33 49.41 100.67 54.35 97.35 C 59.24 94.36 63.67 96.36 68.33 98.45 C 74.66 97.97 80.59 97.58 86.91 98.71 C 91.59 97.05 95.01 94.38 100.25 96.77 C 106.09 99.49 105.91 105.71 110.73 110.15 C 113.41 115.68 114.33 123.75 111.18 129.20 C 104.43 138.69 89.43 138.24 79.00 139.06 C 67.57 138.34 52.55 138.98 44.14 130.11 C 43.34 139.69 45.06 149.84 43.22 159.23 C 42.62 148.13 43.55 137.10 42.35 126.02 C 41.61 121.43 42.92 117.44 43.61 112.98 C 42.15 104.84 37.55 99.47 33.95 92.02 C 30.92 86.62 21.73 84.32 22.65 76.76 Z" fill="#d4d4d4" />
<path d="M 59.35 101.31 C 69.25 100.18 75.19 111.53 75.93 119.96 C 75.78 125.41 71.18 132.36 65.02 131.00 C 57.59 129.76 53.56 122.76 51.91 116.02 C 50.08 110.44 52.91 102.35 59.35 101.31 Z" fill="#929292" />
<path d="M 92.34 101.35 C 100.04 99.65 105.09 106.84 104.03 114.02 C 103.45 120.85 99.13 126.86 93.37 130.36 C 87.87 132.67 81.44 129.70 80.35 123.67 C 78.11 115.79 84.37 103.78 92.34 101.35 Z" fill="#919191" />
<path d="M 124.17 149.09 C 128.41 147.79 126.59 153.68 127.59 156.22 L 127.69 157.82 C 126.10 157.76 124.22 156.35 123.47 158.41 C 121.13 163.21 117.34 166.04 113.48 169.48 C 109.29 174.58 107.17 179.68 99.87 180.82 C 92.77 182.57 83.17 176.54 83.05 168.87 C 86.47 176.26 94.35 179.90 102.16 177.21 C 107.92 175.60 110.03 171.02 111.84 165.81 C 117.93 163.39 120.93 162.18 122.35 155.21 C 123.05 153.93 122.55 148.77 124.17 149.09 Z" fill="#d3d3d3" />
<path d="M 112.21 150.20 C 117.53 150.47 123.09 147.23 122.35 155.21 C 120.93 162.18 117.93 163.39 111.84 165.81 C 110.03 171.02 107.92 175.60 102.16 177.21 C 94.35 179.90 86.47 176.26 83.05 168.87 C 82.64 165.89 82.03 163.03 82.03 160.01 C 91.94 159.84 101.91 160.31 111.79 159.80 C 112.13 156.65 111.86 153.35 112.21 150.20 Z" fill="#8c8c8c" />
<path d="M 128.28 151.21 C 137.13 150.68 146.09 151.16 154.97 151.00 C 155.00 153.29 155.03 155.57 154.95 157.86 C 152.53 164.89 146.99 169.48 139.35 168.67 C 133.78 167.47 130.26 163.47 127.75 158.60 L 127.69 157.82 L 127.59 156.22 C 127.77 154.55 127.95 152.86 128.28 151.21 Z" fill="#8c8c8c" />
<path d="M 154.95 157.86 C 155.19 167.93 144.72 174.40 135.65 170.32 C 132.14 168.41 126.50 162.97 127.75 158.60 C 130.26 163.47 133.78 167.47 139.35 168.67 C 146.99 169.48 152.53 164.89 154.95 157.86 Z" fill="#d2d2d2" />
<path d="M 46.02 160.05 C 54.89 160.05 63.87 159.74 72.72 160.22 C 73.01 161.53 73.24 162.86 73.42 164.20 C 73.05 166.03 72.62 167.84 72.30 169.68 C 68.70 174.68 64.47 178.11 58.00 178.08 C 52.14 178.34 48.75 174.10 44.75 170.61 C 44.42 169.14 44.03 167.69 43.67 166.22 C 44.25 164.42 42.93 159.21 46.02 160.05 Z" fill="#8d8d8d" />
<path d="M 72.30 169.68 C 71.75 177.71 62.38 182.26 55.12 180.85 C 51.20 179.73 44.43 175.20 44.75 170.61 C 48.75 174.10 52.14 178.34 58.00 178.08 C 64.47 178.11 68.70 174.68 72.30 169.68 Z" fill="#d3d3d3" /></svg>