<?xml version="1.0" encoding="UTF-8" standalone="no"?>
<!DOCTYPE svg PUBLIC "-//W3C//DTD SVG 1.1//EN" "http://www.w3.org/Graphics/SVG/1.1/DTD/svg11.dtd">
<svg viewBox="0 0 192 192" height="192.0pt" width="192.0pt" xmlns="http://www.w3.org/2000/svg" version="1.1">
<path d="M 51.47 16.02 C 57.52 19.42 62.12 24.48 68.41 26.61 C 73.56 28.37 79.80 29.07 84.94 26.94 C 89.01 25.28 92.52 21.73 96.03 19.08 C 100.80 22.58 104.25 26.47 110.32 27.68 C 117.54 29.40 123.48 26.75 129.91 23.89 C 125.88 29.47 120.28 33.41 116.13 38.84 L 118.18 39.16 C 115.18 40.54 112.18 41.91 109.08 43.05 C 109.41 40.72 109.62 38.39 109.97 36.07 C 108.98 35.72 107.98 35.39 106.98 35.10 C 104.63 35.79 102.46 37.23 100.37 38.47 C 99.53 34.65 98.74 31.06 96.21 27.96 C 94.81 31.57 93.63 35.25 92.16 38.83 C 88.85 36.70 86.16 34.64 81.97 34.98 C 82.18 37.66 82.50 40.29 82.90 42.95 C 76.44 40.21 70.22 37.78 63.05 38.20 C 47.34 38.42 32.82 50.17 29.55 65.55 C 28.15 72.73 28.58 80.68 31.60 87.42 C 34.75 94.65 40.53 100.74 47.38 104.59 C 55.72 109.16 66.09 109.97 75.13 107.12 C 78.43 105.99 81.59 104.14 84.69 102.52 C 85.91 104.76 87.10 107.02 88.41 109.21 C 87.29 110.59 86.30 111.93 84.66 112.71 C 77.98 116.10 70.34 117.50 62.92 118.00 C 56.76 117.28 50.22 116.18 44.64 113.39 C 39.16 110.79 34.44 106.49 29.67 102.68 C 26.98 97.93 23.93 94.02 22.15 88.80 C 19.75 82.26 19.50 75.65 19.66 68.76 C 21.04 60.28 23.99 52.25 29.76 45.75 C 34.15 40.31 39.74 36.62 45.48 32.78 C 47.72 32.23 49.96 31.63 52.21 31.12 C 54.34 30.64 56.48 30.26 58.63 29.85 C 56.71 25.88 54.46 22.12 51.56 18.78 C 51.52 17.86 51.49 16.94 51.47 16.02 Z" fill="#b1b1b1" />
<path d="M 141.03 16.27 C 140.52 17.73 139.90 19.14 139.29 20.56 C 137.18 23.48 135.30 26.45 134.02 29.84 C 135.97 30.21 137.93 30.61 139.87 31.06 C 142.79 31.88 145.64 32.91 148.56 33.75 C 154.07 37.87 159.44 41.82 163.64 47.36 C 168.27 53.06 170.64 59.75 172.28 66.82 C 172.49 73.51 172.65 80.97 170.46 87.37 C 169.00 91.90 166.62 95.61 164.41 99.79 C 158.20 106.63 151.30 112.48 142.38 115.40 C 138.06 116.75 133.51 117.44 129.02 117.94 C 120.63 117.35 110.59 115.55 103.94 110.05 C 105.10 107.59 106.40 105.21 107.60 102.78 C 114.75 106.93 122.40 109.47 130.77 108.68 C 143.24 107.89 154.31 99.94 159.87 88.90 C 163.42 81.98 163.90 73.82 162.71 66.24 C 160.15 52.14 147.47 40.46 133.33 38.57 C 128.18 37.80 123.27 38.39 118.18 39.16 L 116.13 38.84 C 120.28 33.41 125.88 29.47 129.91 23.89 C 133.36 20.95 137.05 18.45 141.03 16.27 Z" fill="#adadad" />
<path d="M 51.56 18.78 C 54.46 22.12 56.71 25.88 58.63 29.85 C 56.48 30.26 54.34 30.64 52.21 31.12 C 51.40 26.87 51.15 23.08 51.56 18.78 Z" fill="#e6e6e6" />
<path d="M 139.29 20.56 C 142.17 23.09 140.04 27.75 139.87 31.06 C 137.93 30.61 135.97 30.21 134.02 29.84 C 135.30 26.45 137.18 23.48 139.29 20.56 Z" fill="#e5e5e5" />
<path d="M 96.21 27.96 C 98.74 31.06 99.53 34.65 100.37 38.47 C 102.46 37.23 104.63 35.79 106.98 35.10 C 107.98 35.39 108.98 35.72 109.97 36.07 C 109.62 38.39 109.41 40.72 109.08 43.05 C 112.18 41.91 115.18 40.54 118.18 39.16 C 123.27 38.39 128.18 37.80 133.33 38.57 C 147.47 40.46 160.15 52.14 162.71 66.24 C 163.90 73.82 163.42 81.98 159.87 88.90 C 154.31 99.94 143.24 107.89 130.77 108.68 C 122.40 109.47 114.75 106.93 107.60 102.78 C 108.04 98.83 108.07 94.83 108.26 90.86 C 112.98 95.24 118.01 98.74 124.62 99.38 C 135.87 100.99 146.84 94.87 151.72 84.70 C 154.19 79.69 154.54 73.65 153.66 68.21 C 152.31 60.64 147.14 54.22 140.53 50.47 C 134.97 47.46 128.24 46.61 122.09 48.06 C 113.69 49.81 106.49 56.53 103.53 64.49 C 102.07 68.33 101.93 72.12 101.70 76.16 C 99.10 73.30 96.10 70.73 93.20 68.19 C 92.59 83.72 93.09 99.29 92.82 114.83 C 91.26 113.02 89.72 111.21 88.41 109.21 C 87.10 107.02 85.91 104.76 84.69 102.52 C 81.59 104.14 78.43 105.99 75.13 107.12 C 66.09 109.97 55.72 109.16 47.38 104.59 C 40.53 100.74 34.75 94.65 31.60 87.42 C 28.58 80.68 28.15 72.73 29.55 65.55 C 32.82 50.17 47.34 38.42 63.05 38.20 C 70.22 37.78 76.44 40.21 82.90 42.95 C 82.50 40.29 82.18 37.66 81.97 34.98 C 86.16 34.64 88.85 36.70 92.16 38.83 C 93.63 35.25 94.81 31.57 96.21 27.96 Z" fill="#ededed" />
<path d="M 45.48 32.78 C 39.74 36.62 34.15 40.31 29.76 45.75 C 23.99 52.25 21.04 60.28 19.66 68.76 C 17.91 78.42 18.99 89.37 24.06 97.94 C 26.73 102.64 30.22 105.99 31.57 111.40 C 33.14 117.80 34.12 124.16 36.77 130.26 C 39.48 136.99 43.65 142.38 47.84 148.21 C 49.32 150.19 50.72 151.80 50.44 154.44 C 49.91 160.70 52.26 167.10 55.85 172.15 C 58.80 174.84 63.39 176.35 67.25 177.15 C 72.86 177.07 78.07 171.93 82.66 169.72 C 85.96 169.08 89.65 170.05 92.99 170.18 C 98.06 170.69 102.91 169.57 107.93 169.49 C 109.95 169.43 111.66 170.75 113.31 171.75 C 116.61 173.95 120.04 175.95 123.89 177.04 C 125.74 177.66 128.01 176.54 129.75 175.92 C 132.52 174.71 136.11 173.42 137.69 170.69 C 139.86 167.15 141.47 163.02 141.72 158.84 C 142.01 155.86 141.91 153.17 143.34 150.42 C 145.54 146.17 149.00 142.61 151.44 138.45 C 154.83 132.74 157.32 126.44 158.97 120.02 C 160.29 114.98 160.52 109.83 163.33 105.37 C 165.98 101.16 168.90 97.36 170.62 92.62 C 173.61 84.29 174.90 75.44 172.28 66.82 C 170.64 59.75 168.27 53.06 163.64 47.36 C 159.44 41.82 154.07 37.87 148.56 33.75 C 150.28 34.19 151.92 34.51 153.44 35.50 C 158.20 38.61 162.56 42.43 166.12 46.87 C 178.69 61.85 179.95 85.69 168.80 101.79 C 166.20 105.62 163.87 109.41 163.08 114.06 C 161.32 123.43 158.57 132.31 153.46 140.44 C 151.54 143.48 149.14 146.18 147.20 149.20 C 145.33 152.03 145.21 155.50 144.65 158.75 C 143.89 164.15 141.85 169.38 139.01 174.02 C 137.43 176.77 133.86 177.95 131.09 179.18 C 128.71 180.05 126.03 181.41 123.48 180.51 C 119.38 179.35 115.57 177.41 112.22 174.78 C 110.56 173.68 109.12 172.12 106.98 172.33 C 102.26 172.47 97.72 173.40 92.96 172.92 C 89.92 172.80 86.53 171.96 83.53 172.57 C 78.44 176.38 73.76 180.14 67.09 180.87 C 62.89 179.86 58.11 177.98 54.71 175.29 C 49.76 169.39 47.78 161.51 46.98 154.01 C 46.64 150.49 44.68 148.06 42.57 145.41 C 36.28 137.75 32.39 128.24 30.36 118.60 C 29.48 114.74 28.97 110.57 26.81 107.18 C 24.73 103.88 22.32 100.91 20.62 97.36 C 13.88 83.46 14.18 66.41 21.91 52.95 C 26.07 45.12 32.51 39.63 39.77 34.78 C 41.51 33.57 43.46 33.20 45.48 32.78 Z" fill="#eeeeee" />
<path d="M 69.10 47.85 C 80.76 49.87 90.36 61.13 90.16 73.02 C 90.24 76.68 87.56 79.79 86.13 83.07 C 84.58 86.10 84.10 90.30 81.72 92.74 C 72.80 101.36 57.50 101.94 47.93 94.08 C 41.56 88.96 37.65 81.23 37.97 72.99 C 37.91 63.13 44.10 54.16 52.79 49.83 C 57.83 47.50 63.65 46.76 69.10 47.85 Z" fill="#ffffff" />
<path d="M 140.53 50.47 C 147.14 54.22 152.31 60.64 153.66 68.21 C 154.54 73.65 154.19 79.69 151.72 84.70 C 146.84 94.87 135.87 100.99 124.62 99.38 C 118.01 98.74 112.98 95.24 108.26 90.86 C 107.35 85.43 105.03 80.51 101.70 76.16 C 101.93 72.12 102.07 68.33 103.53 64.49 C 106.49 56.53 113.69 49.81 122.09 48.06 C 128.24 46.61 134.97 47.46 140.53 50.47 Z" fill="#ffffff" />
<path d="M 59.31 57.31 C 62.88 56.31 66.83 56.40 70.31 57.70 C 76.83 60.23 81.39 66.95 80.99 73.99 C 80.81 82.53 73.64 90.09 65.02 90.31 C 56.39 90.92 48.41 84.17 47.27 75.66 C 46.02 67.50 51.47 59.56 59.31 57.31 Z" fill="#949494" />
<path d="M 123.27 57.25 C 127.32 56.16 131.84 56.50 135.60 58.39 C 142.33 61.71 146.33 69.26 144.71 76.69 C 143.06 84.85 135.35 90.93 126.98 90.30 C 118.71 90.01 111.81 83.06 111.26 74.86 C 110.43 66.95 115.64 59.38 123.27 57.25 Z" fill="#909090" />
<path d="M 172.28 66.82 C 174.90 75.44 173.61 84.29 170.62 92.62 C 168.90 97.36 165.98 101.16 163.33 105.37 C 160.52 109.83 160.29 114.98 158.97 120.02 C 157.32 126.44 154.83 132.74 151.44 138.45 C 149.00 142.61 145.54 146.17 143.34 150.42 C 141.91 153.17 142.01 155.86 141.72 158.84 C 141.47 163.02 139.86 167.15 137.69 170.69 C 136.11 173.42 132.52 174.71 129.75 175.92 C 128.01 176.54 125.74 177.66 123.89 177.04 C 120.04 175.95 116.61 173.95 113.31 171.75 C 111.66 170.75 109.95 169.43 107.93 169.49 C 102.91 169.57 98.06 170.69 92.99 170.18 C 89.65 170.05 85.96 169.08 82.66 169.72 C 78.07 171.93 72.86 177.07 67.25 177.15 C 63.39 176.35 58.80 174.84 55.85 172.15 C 52.26 167.10 49.91 160.70 50.44 154.44 C 50.72 151.80 49.32 150.19 47.84 148.21 C 43.65 142.38 39.48 136.99 36.77 130.26 C 34.12 124.16 33.14 117.80 31.57 111.40 C 30.22 105.99 26.73 102.64 24.06 97.94 C 18.99 89.37 17.91 78.42 19.66 68.76 C 19.50 75.65 19.75 82.26 22.15 88.80 C 23.93 94.02 26.98 97.93 29.67 102.68 C 31.42 106.16 33.28 109.31 33.91 113.24 C 35.55 122.83 38.65 132.03 44.28 140.03 C 46.41 143.06 48.33 146.14 50.11 149.39 C 52.14 147.35 53.52 145.11 56.64 144.78 C 60.16 144.18 63.07 143.88 65.76 141.23 C 63.72 133.48 63.52 125.95 62.92 118.00 C 70.34 117.50 77.98 116.10 84.66 112.71 C 86.30 111.93 87.29 110.59 88.41 109.21 C 89.72 111.21 91.26 113.02 92.82 114.83 C 93.09 99.29 92.59 83.72 93.20 68.19 C 96.10 70.73 99.10 73.30 101.70 76.16 C 105.03 80.51 107.35 85.43 108.26 90.86 C 108.07 94.83 108.04 98.83 107.60 102.78 C 106.40 105.21 105.10 107.59 103.94 110.05 C 110.59 115.55 120.63 117.35 129.02 117.94 C 129.02 126.02 128.65 134.01 126.59 141.86 C 129.25 143.59 131.51 144.17 134.60 144.63 C 137.63 145.00 139.65 146.77 141.99 148.51 C 145.27 144.27 148.67 140.29 150.91 135.36 C 154.97 128.03 157.29 120.09 158.88 111.90 C 159.73 107.19 162.48 104.16 164.41 99.79 C 166.62 95.61 169.00 91.90 170.46 87.37 C 172.65 80.97 172.49 73.51 172.28 66.82 Z" fill="#d9d9d9" />
<path d="M 164.41 99.79 C 162.48 104.16 159.73 107.19 158.88 111.90 C 157.29 120.09 154.97 128.03 150.91 135.36 C 148.67 140.29 145.27 144.27 141.99 148.51 C 139.65 146.77 137.63 145.00 134.60 144.63 C 131.51 144.17 129.25 143.59 126.59 141.86 C 128.65 134.01 129.02 126.02 129.02 117.94 C 133.51 117.44 138.06 116.75 142.38 115.40 C 151.30 112.48 158.20 106.63 164.41 99.79 Z" fill="#d0d0d0" />
<path d="M 29.67 102.68 C 34.44 106.49 39.16 110.79 44.64 113.39 C 50.22 116.18 56.76 117.28 62.92 118.00 C 63.52 125.95 63.72 133.48 65.76 141.23 C 63.07 143.88 60.16 144.18 56.64 144.78 C 53.52 145.11 52.14 147.35 50.11 149.39 C 48.33 146.14 46.41 143.06 44.28 140.03 C 38.65 132.03 35.55 122.83 33.91 113.24 C 33.28 109.31 31.42 106.16 29.67 102.68 Z" fill="#d1d1d1" />
<path d="M 77.85 127.12 C 81.13 130.26 83.72 133.99 86.96 137.18 C 90.15 133.93 92.84 130.25 96.06 127.03 C 99.38 130.26 102.43 133.62 104.81 137.62 C 102.08 141.05 99.25 144.26 96.01 147.22 C 92.89 144.13 90.24 140.66 86.98 137.70 C 84.45 139.99 82.30 142.69 79.69 144.87 C 74.58 145.76 71.42 140.75 68.99 137.12 C 71.73 133.58 74.47 130.10 77.85 127.12 Z" fill="#ececec" />
<path d="M 114.23 127.26 C 117.74 129.78 120.41 133.78 123.08 137.14 C 120.95 140.58 117.79 145.26 113.17 144.93 C 109.96 143.70 107.55 139.96 105.80 137.16 C 108.36 133.60 110.91 130.17 114.23 127.26 Z" fill="#ececec" />
<path d="M 96.09 148.03 C 99.36 151.01 101.92 154.62 105.12 157.68 C 106.39 156.60 107.67 155.51 108.95 154.43 C 109.99 157.25 110.86 160.02 111.61 162.93 C 104.31 165.59 96.68 165.48 89.02 164.92 C 86.20 164.72 83.58 163.90 80.94 162.97 C 81.54 160.03 82.26 157.23 83.17 154.37 C 84.45 155.44 85.72 156.52 86.99 157.60 C 90.23 154.60 92.89 151.07 96.09 148.03 Z" fill="#ececec" /></svg>