<?xml version="1.0" encoding="UTF-8" standalone="no"?>
<!DOCTYPE svg PUBLIC "-//W3C//DTD SVG 1.1//EN" "http://www.w3.org/Graphics/SVG/1.1/DTD/svg11.dtd">
<svg viewBox="0 0 192 192" height="192.0pt" width="192.0pt" xmlns="http://www.w3.org/2000/svg" version="1.1">
<path d="M 90.35 19.70 C 82.29 22.63 74.69 25.35 68.30 31.29 C 59.03 39.62 54.45 52.74 52.88 64.80 C 52.32 71.63 53.19 77.94 50.19 84.42 C 42.79 77.87 38.38 70.10 29.98 64.78 C 31.76 68.01 33.77 71.07 35.96 74.04 C 41.72 81.83 46.26 89.93 53.11 96.91 C 55.66 99.41 57.21 102.19 58.44 105.51 C 52.28 106.17 46.10 106.23 39.91 106.17 C 32.67 94.79 27.01 82.90 26.44 69.16 C 25.76 69.65 25.08 70.14 24.40 70.63 C 25.39 79.24 27.19 88.35 31.03 96.17 C 32.54 99.28 33.65 102.53 34.58 105.85 C 29.91 106.06 25.28 106.41 20.74 107.57 C 28.09 109.72 35.35 110.13 42.90 111.26 C 49.81 112.32 56.51 111.70 63.34 113.43 C 59.89 117.86 56.32 122.20 52.88 126.64 C 45.17 124.44 37.77 122.22 30.64 118.45 C 25.97 116.00 21.94 112.95 17.52 110.13 C 17.61 111.72 17.58 113.47 18.10 114.99 C 18.97 116.57 20.59 117.82 22.02 118.88 C 27.63 122.79 33.67 125.31 40.02 127.71 C 42.92 128.77 45.27 130.59 47.56 132.60 C 40.14 139.11 31.65 143.41 25.05 150.63 C 25.64 151.57 26.22 152.50 26.81 153.44 C 29.57 149.84 32.29 146.49 36.50 144.53 C 44.10 140.81 51.36 137.54 57.56 131.57 C 61.12 128.05 64.78 124.72 68.91 121.86 C 69.59 122.33 70.27 122.79 70.95 123.26 C 67.57 132.94 64.96 143.37 58.76 151.76 C 56.95 154.38 52.81 154.67 49.92 155.17 C 42.25 156.36 35.06 154.61 27.38 155.01 C 30.04 157.27 32.58 158.85 36.17 159.09 C 42.26 159.78 48.50 159.77 54.57 158.85 C 53.59 161.16 52.41 163.62 51.95 166.09 C 51.32 169.79 53.61 173.90 57.30 174.95 C 60.65 175.92 64.64 175.17 67.93 174.20 C 76.08 171.73 83.39 166.31 89.38 160.37 C 91.22 158.72 93.16 156.48 95.48 155.56 C 97.51 154.87 99.25 157.19 100.64 158.34 C 106.84 164.64 113.61 169.98 121.87 173.32 C 125.29 174.66 129.26 175.74 132.95 175.34 C 135.40 175.05 138.27 173.60 139.18 171.17 C 140.24 168.03 140.44 164.59 141.57 161.46 C 146.20 159.87 151.72 161.01 156.58 160.24 C 159.95 159.79 164.49 158.44 166.31 155.30 C 167.33 151.81 165.93 148.98 163.25 146.75 C 157.21 141.74 150.46 137.69 144.53 132.51 C 146.81 130.56 149.16 128.81 151.98 127.71 C 157.69 125.42 163.53 122.85 168.81 119.67 C 170.66 118.47 172.85 116.98 173.92 115.00 C 174.43 113.48 174.41 111.73 174.50 110.14 C 170.11 112.99 166.06 116.06 161.40 118.49 C 154.30 122.25 146.88 124.44 139.19 126.60 C 135.82 122.07 132.18 117.75 128.62 113.35 C 132.39 112.58 136.19 112.19 140.04 112.08 C 146.77 111.92 153.14 110.61 159.83 109.92 C 163.76 109.55 167.61 108.76 171.30 107.34 C 166.70 106.67 162.10 106.01 157.51 105.26 C 159.81 99.33 162.77 93.76 164.49 87.74 C 166.39 80.66 168.59 74.29 166.69 66.90 C 165.12 73.44 164.60 79.85 162.36 86.23 C 160.07 93.24 156.48 99.53 152.69 105.82 C 146.18 106.33 139.75 106.40 133.33 104.99 C 135.06 101.89 137.03 99.05 139.50 96.50 C 145.96 89.75 150.23 82.24 155.76 74.74 C 158.10 71.56 160.29 68.29 162.16 64.81 C 154.00 69.80 149.79 77.22 142.75 83.53 C 141.47 80.78 140.45 78.13 140.54 75.04 C 140.47 68.32 140.34 61.97 137.88 55.60 C 134.66 47.88 132.53 40.60 126.74 34.27 C 119.87 26.54 111.14 23.06 101.64 19.71 C 104.84 19.61 107.92 19.77 110.90 21.06 C 118.15 24.05 125.40 28.49 130.50 34.53 C 136.17 41.39 139.74 49.77 141.69 58.40 C 143.26 64.79 142.42 71.27 144.47 77.60 C 148.53 74.26 151.88 70.24 155.71 66.68 C 159.02 63.66 162.87 62.79 167.01 61.51 C 168.69 64.58 170.37 67.30 170.32 70.96 C 170.27 83.26 165.29 92.66 161.60 103.89 C 167.04 105.29 175.06 105.58 178.71 110.44 C 179.46 113.18 177.22 116.49 175.31 118.30 C 167.35 125.49 158.06 127.31 149.41 132.84 C 155.10 138.94 163.37 142.27 168.18 148.89 C 171.31 153.09 168.98 158.46 164.67 160.68 C 158.84 163.75 150.90 162.85 144.44 163.91 C 144.14 167.15 144.19 170.90 142.88 173.91 C 140.57 178.16 135.50 179.37 131.01 179.19 C 121.85 178.83 112.72 173.99 105.76 168.25 C 102.68 165.84 99.61 162.43 96.00 160.94 C 92.78 162.19 90.07 165.27 87.44 167.47 C 81.09 173.04 73.14 177.38 64.77 178.84 C 59.98 179.56 54.82 179.40 51.10 175.88 C 47.86 173.06 48.09 167.85 47.58 163.92 C 42.87 163.32 38.10 163.20 33.39 162.54 C 29.59 161.97 25.27 160.07 23.34 156.56 C 21.97 154.10 22.30 151.21 23.87 148.92 C 28.42 142.23 37.59 139.37 42.06 132.96 C 41.70 131.07 39.67 130.67 38.18 129.87 C 30.66 126.93 22.25 123.29 16.28 117.71 C 13.34 114.93 14.17 111.28 14.21 107.64 C 19.85 106.47 25.44 105.12 30.92 103.33 C 26.76 94.20 23.37 84.95 22.00 74.97 C 21.75 72.52 21.49 69.67 22.31 67.31 C 23.19 65.30 24.77 63.50 26.12 61.78 C 30.56 63.28 34.69 64.42 38.12 67.86 C 41.31 71.12 44.25 74.54 47.92 77.31 C 49.26 68.44 49.08 59.89 52.32 51.35 C 55.74 40.60 62.95 31.47 72.42 25.41 C 78.12 22.12 83.52 19.15 90.35 19.70 Z" fill="#f3f3f3" />
<path d="M 90.35 19.70 C 94.12 19.74 97.87 19.74 101.64 19.71 C 111.14 23.06 119.87 26.54 126.74 34.27 C 132.53 40.60 134.66 47.88 137.88 55.60 C 140.34 61.97 140.47 68.32 140.54 75.04 C 140.45 78.13 141.47 80.78 142.75 83.53 C 149.79 77.22 154.00 69.80 162.16 64.81 C 160.29 68.29 158.10 71.56 155.76 74.74 C 150.23 82.24 145.96 89.75 139.50 96.50 C 137.03 99.05 135.06 101.89 133.33 104.99 C 139.75 106.40 146.18 106.33 152.69 105.82 C 156.48 99.53 160.07 93.24 162.36 86.23 C 164.60 79.85 165.12 73.44 166.69 66.90 C 168.59 74.29 166.39 80.66 164.49 87.74 C 162.77 93.76 159.81 99.33 157.51 105.26 C 162.10 106.01 166.70 106.67 171.30 107.34 C 167.61 108.76 163.76 109.55 159.83 109.92 C 153.14 110.61 146.77 111.92 140.04 112.08 C 136.19 112.19 132.39 112.58 128.62 113.35 C 132.18 117.75 135.82 122.07 139.19 126.60 C 146.88 124.44 154.30 122.25 161.40 118.49 C 166.06 116.06 170.11 112.99 174.50 110.14 C 174.41 111.73 174.43 113.48 173.92 115.00 C 172.85 116.98 170.66 118.47 168.81 119.67 C 163.53 122.85 157.69 125.42 151.98 127.71 C 149.16 128.81 146.81 130.56 144.53 132.51 C 150.46 137.69 157.21 141.74 163.25 146.75 C 165.93 148.98 167.33 151.81 166.31 155.30 C 164.49 158.44 159.95 159.79 156.58 160.24 C 151.72 161.01 146.20 159.87 141.57 161.46 C 140.44 164.59 140.24 168.03 139.18 171.17 C 138.27 173.60 135.40 175.05 132.95 175.34 C 129.26 175.74 125.29 174.66 121.87 173.32 C 113.61 169.98 106.84 164.64 100.64 158.34 C 99.25 157.19 97.51 154.87 95.48 155.56 C 93.16 156.48 91.22 158.72 89.38 160.37 C 83.39 166.31 76.08 171.73 67.93 174.20 C 64.64 175.17 60.65 175.92 57.30 174.95 C 53.61 173.90 51.32 169.79 51.95 166.09 C 52.41 163.62 53.59 161.16 54.57 158.85 C 48.50 159.77 42.26 159.78 36.17 159.09 C 32.58 158.85 30.04 157.27 27.38 155.01 C 35.06 154.61 42.25 156.36 49.92 155.17 C 52.81 154.67 56.95 154.38 58.76 151.76 C 64.96 143.37 67.57 132.94 70.95 123.26 C 70.27 122.79 69.59 122.33 68.91 121.86 C 64.78 124.72 61.12 128.05 57.56 131.57 C 51.36 137.54 44.10 140.81 36.50 144.53 C 32.29 146.49 29.57 149.84 26.81 153.44 C 26.22 152.50 25.64 151.57 25.05 150.63 C 31.65 143.41 40.14 139.11 47.56 132.60 C 45.27 130.59 42.92 128.77 40.02 127.71 C 33.67 125.31 27.63 122.79 22.02 118.88 C 20.59 117.82 18.97 116.57 18.10 114.99 C 17.58 113.47 17.61 111.72 17.52 110.13 C 21.94 112.95 25.97 116.00 30.64 118.45 C 37.77 122.22 45.17 124.44 52.88 126.64 C 56.32 122.20 59.89 117.86 63.34 113.43 C 56.51 111.70 49.81 112.32 42.90 111.26 C 35.35 110.13 28.09 109.72 20.74 107.57 C 25.28 106.41 29.91 106.06 34.58 105.85 C 33.65 102.53 32.54 99.28 31.03 96.17 C 27.19 88.35 25.39 79.24 24.40 70.63 C 25.08 70.14 25.76 69.65 26.44 69.16 C 27.01 82.90 32.67 94.79 39.91 106.17 C 46.10 106.23 52.28 106.17 58.44 105.51 C 57.21 102.19 55.66 99.41 53.11 96.91 C 46.26 89.93 41.72 81.83 35.96 74.04 C 33.77 71.07 31.76 68.01 29.98 64.78 C 38.38 70.10 42.79 77.87 50.19 84.42 C 53.19 77.94 52.32 71.63 52.88 64.80 C 54.45 52.74 59.03 39.62 68.30 31.29 C 74.69 25.35 82.29 22.63 90.35 19.70 Z" fill="#d2d2d2" />
<path d="M 75.42 83.43 C 82.09 81.24 89.06 85.93 89.14 93.01 C 89.78 99.96 82.14 105.87 75.61 103.45 C 71.18 101.98 68.14 97.72 68.14 93.06 C 68.41 88.76 71.29 84.79 75.42 83.43 Z" fill="#757575" />
<path d="M 112.48 83.52 C 117.24 81.91 122.53 83.55 125.13 87.93 C 128.39 93.36 126.07 100.79 120.10 103.13 C 114.67 105.66 107.97 102.27 106.20 96.70 C 104.45 91.38 107.24 85.46 112.48 83.52 Z" fill="#717171" />
<path d="M 84.35 106.13 C 87.97 105.24 92.29 107.69 96.06 107.68 C 99.95 107.79 103.89 105.66 107.72 106.01 C 110.68 106.87 110.36 109.19 109.83 111.66 C 108.87 113.74 106.76 114.91 104.73 115.72 C 100.23 117.48 95.02 117.56 90.31 116.70 C 87.54 116.08 84.01 115.04 82.54 112.37 C 81.56 110.05 81.33 106.94 84.35 106.13 Z" fill="#717171" />
<path d="M 126.08 123.86 C 130.83 127.39 134.53 132.15 139.41 135.58 C 145.27 139.95 151.86 142.43 158.18 145.90 C 161.14 147.52 162.58 150.13 164.29 152.89 C 155.53 156.36 145.99 156.38 136.94 154.07 C 134.88 153.57 133.60 152.24 132.48 150.52 C 126.84 141.94 124.29 132.09 120.85 122.25 C 122.73 122.70 124.46 122.65 126.08 123.86 Z" fill="#f3f3f3" />
<path d="M 83.51 130.73 C 86.28 130.39 89.21 130.97 91.98 131.13 C 97.68 131.67 103.12 130.95 108.75 130.23 C 113.59 136.41 116.48 143.44 121.80 149.18 C 125.96 153.95 131.12 158.10 134.77 163.26 C 136.58 165.70 136.18 168.22 136.28 171.08 C 132.05 171.34 128.02 171.58 123.93 170.19 C 112.25 166.24 103.51 158.31 96.06 148.74 C 88.70 158.10 80.26 165.92 68.86 170.00 C 64.55 171.55 60.28 171.36 55.79 171.14 C 56.11 167.80 55.83 164.84 58.17 162.14 C 64.09 154.92 71.29 149.57 76.21 141.24 C 78.43 137.83 80.29 133.28 83.51 130.73 Z" fill="#f3f3f3" /></svg>