<?xml version="1.0" encoding="UTF-8" standalone="no"?>
<!DOCTYPE svg PUBLIC "-//W3C//DTD SVG 1.1//EN" "http://www.w3.org/Graphics/SVG/1.1/DTD/svg11.dtd">
<svg viewBox="0 0 192 192" height="192.0pt" width="192.0pt" xmlns="http://www.w3.org/2000/svg" version="1.1">
<path d="M 95.40 19.59 C 98.68 21.75 100.69 24.95 103.59 27.44 C 106.89 28.27 110.61 27.60 114.01 27.96 C 118.24 28.20 121.47 30.52 125.13 32.39 C 129.71 37.90 132.96 43.52 132.42 50.98 C 132.70 54.71 129.75 59.07 131.53 62.38 C 132.93 65.60 134.65 68.69 136.29 71.79 C 137.93 72.10 139.56 72.41 141.19 72.74 C 139.62 72.76 138.05 72.82 136.48 72.94 C 139.29 86.42 138.36 100.85 133.81 113.86 C 132.25 118.14 129.70 123.28 125.35 125.29 C 118.76 127.67 110.66 124.97 107.45 118.55 C 104.82 114.04 105.90 108.91 103.36 104.50 C 107.35 97.54 114.43 93.73 118.38 86.41 C 121.51 80.49 121.44 73.56 120.94 67.06 C 118.97 67.63 116.98 68.23 114.99 68.68 C 113.35 68.87 111.70 68.98 110.05 69.01 C 105.17 68.82 101.27 67.29 97.22 64.64 C 96.67 64.32 96.12 64.01 95.57 63.70 C 92.18 64.89 89.03 66.67 85.62 67.85 C 81.22 68.39 76.72 68.38 72.31 67.88 C 68.91 66.73 65.77 64.96 62.40 63.75 C 61.85 64.06 61.31 64.37 60.77 64.69 C 56.55 67.45 52.06 68.89 47.09 69.61 C 45.73 69.33 44.39 68.99 43.04 68.64 C 41.02 68.09 39.01 67.55 36.96 67.11 C 35.87 72.58 36.58 78.41 38.34 83.66 C 41.13 91.35 49.03 95.87 53.74 102.83 C 52.87 109.41 52.93 116.13 48.51 121.52 C 45.79 124.95 41.99 125.34 38.04 126.45 C 41.05 129.77 44.37 132.63 48.12 135.08 C 48.04 136.36 47.96 137.63 47.88 138.91 C 44.70 135.64 41.98 132.45 37.80 130.39 C 35.07 128.89 31.64 127.81 29.36 125.66 C 23.97 118.40 21.88 110.15 20.40 101.35 C 19.35 92.82 19.83 83.98 20.26 75.42 C 21.57 72.08 22.88 68.75 24.49 65.55 C 25.34 63.67 26.48 61.71 26.29 59.60 C 26.01 55.69 24.58 52.18 24.85 48.11 C 25.61 40.00 30.87 32.59 38.41 29.42 C 43.48 27.10 48.40 27.96 53.76 28.23 C 56.47 25.15 59.09 21.80 62.52 19.51 C 72.12 12.98 85.82 13.11 95.40 19.59 Z" fill="#cecece" />
<path d="M 127.28 33.20 C 131.85 36.25 134.65 42.08 135.60 47.36 C 136.59 52.56 134.45 57.72 135.13 62.79 C 136.18 66.52 138.45 71.02 142.89 71.19 C 143.35 68.15 143.45 65.03 144.05 62.01 C 144.93 58.27 147.54 55.50 150.98 53.90 C 149.15 56.25 147.15 58.95 146.82 62.00 C 146.53 65.57 147.48 69.39 148.14 72.91 C 147.51 73.34 146.88 73.76 146.25 74.19 C 144.60 73.57 142.91 73.09 141.19 72.74 C 139.56 72.41 137.93 72.10 136.29 71.79 C 134.65 68.69 132.93 65.60 131.53 62.38 C 129.75 59.07 132.70 54.71 132.42 50.98 C 132.96 43.52 129.71 37.90 125.13 32.39 C 125.85 32.66 126.56 32.93 127.28 33.20 Z" fill="#ebebeb" />
<path d="M 165.82 53.18 C 169.11 54.73 170.84 57.57 172.69 60.53 C 172.06 64.80 171.46 69.02 170.03 73.10 C 165.60 72.45 161.62 73.65 157.33 74.56 C 156.79 75.74 156.25 76.91 155.72 78.09 C 152.56 76.79 149.40 75.50 146.25 74.19 C 146.88 73.76 147.51 73.34 148.14 72.91 C 147.48 69.39 146.53 65.57 146.82 62.00 C 147.15 58.95 149.15 56.25 150.98 53.90 C 155.42 51.80 161.28 50.99 165.82 53.18 Z" fill="#cccccc" />
<path d="M 172.69 60.53 C 173.79 62.62 174.87 64.49 174.44 66.96 C 173.63 71.25 171.06 74.75 170.59 79.26 C 170.21 83.91 170.21 88.63 170.22 93.30 C 166.26 87.08 162.66 81.34 155.72 78.09 C 156.25 76.91 156.79 75.74 157.33 74.56 C 161.62 73.65 165.60 72.45 170.03 73.10 C 171.46 69.02 172.06 64.80 172.69 60.53 Z" fill="#e9e9e9" />
<path d="M 62.40 63.75 C 65.77 64.96 68.91 66.73 72.31 67.88 C 73.53 71.56 75.10 75.23 74.23 79.17 C 73.02 86.01 67.04 91.67 60.04 92.08 C 56.84 92.27 53.13 92.17 50.18 90.76 C 45.31 88.22 41.60 83.43 41.09 77.86 C 40.75 74.57 41.98 71.67 43.04 68.64 C 44.39 68.99 45.73 69.33 47.09 69.61 C 45.49 73.53 43.90 76.90 45.96 81.06 C 49.22 89.24 61.74 90.79 67.24 84.23 C 70.85 80.21 71.03 73.57 67.63 69.37 C 65.89 67.31 63.14 65.90 60.77 64.69 C 61.31 64.37 61.85 64.06 62.40 63.75 Z" fill="#ffffff" />
<path d="M 95.57 63.70 C 96.12 64.01 96.67 64.32 97.22 64.64 C 94.00 66.17 90.73 67.73 89.04 71.06 C 86.84 75.81 87.53 81.85 91.71 85.32 C 94.82 88.24 98.89 88.59 102.95 88.00 C 108.26 87.19 112.54 82.23 113.00 76.95 C 113.06 74.24 111.28 71.37 110.05 69.01 C 111.70 68.98 113.35 68.87 114.99 68.68 C 116.14 71.77 117.35 74.57 117.04 77.95 C 116.67 83.48 112.71 88.42 107.84 90.81 C 104.54 92.27 100.52 92.33 96.99 91.99 C 90.24 91.20 84.36 85.28 83.45 78.56 C 82.83 74.76 84.33 71.33 85.62 67.85 C 89.03 66.67 92.18 64.89 95.57 63.70 Z" fill="#ffffff" />
<path d="M 60.77 64.69 C 63.14 65.90 65.89 67.31 67.63 69.37 C 71.03 73.57 70.85 80.21 67.24 84.23 C 61.74 90.79 49.22 89.24 45.96 81.06 C 43.90 76.90 45.49 73.53 47.09 69.61 C 52.06 68.89 56.55 67.45 60.77 64.69 Z" fill="#949494" />
<path d="M 97.22 64.64 C 101.27 67.29 105.17 68.82 110.05 69.01 C 111.28 71.37 113.06 74.24 113.00 76.95 C 112.54 82.23 108.26 87.19 102.95 88.00 C 98.89 88.59 94.82 88.24 91.71 85.32 C 87.53 81.85 86.84 75.81 89.04 71.06 C 90.73 67.73 94.00 66.17 97.22 64.64 Z" fill="#929292" />
<path d="M 36.96 67.11 C 39.01 67.55 41.02 68.09 43.04 68.64 C 41.98 71.67 40.75 74.57 41.09 77.86 C 41.60 83.43 45.31 88.22 50.18 90.76 C 53.13 92.17 56.84 92.27 60.04 92.08 C 67.04 91.67 73.02 86.01 74.23 79.17 C 75.10 75.23 73.53 71.56 72.31 67.88 C 76.72 68.38 81.22 68.39 85.62 67.85 C 84.33 71.33 82.83 74.76 83.45 78.56 C 84.36 85.28 90.24 91.20 96.99 91.99 C 100.52 92.33 104.54 92.27 107.84 90.81 C 112.71 88.42 116.67 83.48 117.04 77.95 C 117.35 74.57 116.14 71.77 114.99 68.68 C 116.98 68.23 118.97 67.63 120.94 67.06 C 121.44 73.56 121.51 80.49 118.38 86.41 C 114.43 93.73 107.35 97.54 103.36 104.50 C 99.76 110.57 97.38 117.13 91.42 121.43 C 89.19 123.13 86.67 123.58 83.99 124.13 C 83.86 122.72 83.73 121.31 83.60 119.91 C 87.57 117.85 93.44 115.73 95.43 111.41 C 97.67 105.71 94.30 99.95 88.50 98.48 C 82.15 97.02 74.20 96.84 67.99 98.97 C 62.76 100.84 60.43 106.35 62.53 111.45 C 64.64 115.58 69.70 117.62 73.67 119.51 C 73.73 121.10 73.79 122.69 73.83 124.28 C 69.18 122.95 64.95 121.00 62.04 116.97 C 58.91 112.49 56.94 107.31 53.74 102.83 C 49.03 95.87 41.13 91.35 38.34 83.66 C 36.58 78.41 35.87 72.58 36.96 67.11 Z" fill="#ebebeb" />
<path d="M 136.48 72.94 C 138.05 72.82 139.62 72.76 141.19 72.74 C 142.91 73.09 144.60 73.57 146.25 74.19 C 149.40 75.50 152.56 76.79 155.72 78.09 C 162.66 81.34 166.26 87.08 170.22 93.30 L 170.53 93.87 C 172.89 102.93 173.50 115.12 166.45 122.34 C 166.21 119.16 166.09 115.97 165.93 112.78 C 162.02 115.12 158.54 118.84 154.26 120.17 C 151.97 120.95 149.61 121.59 147.28 122.27 C 147.15 127.01 147.07 131.75 147.04 136.49 C 145.48 137.38 143.57 139.32 141.68 138.92 C 138.12 138.46 134.61 138.00 131.01 137.88 C 126.15 137.87 122.16 135.29 117.27 135.69 C 114.34 133.58 111.32 134.35 108.19 135.53 C 104.94 137.27 101.99 139.29 98.44 140.45 C 94.21 142.00 90.22 141.95 86.54 144.78 C 81.63 145.18 76.31 145.18 71.40 144.83 C 67.67 142.07 63.64 142.14 59.44 140.55 C 55.52 139.08 51.73 137.19 48.12 135.08 C 44.37 132.63 41.05 129.77 38.04 126.45 C 41.99 125.34 45.79 124.95 48.51 121.52 C 52.93 116.13 52.87 109.41 53.74 102.83 C 56.94 107.31 58.91 112.49 62.04 116.97 C 64.95 121.00 69.18 122.95 73.83 124.28 C 76.79 124.88 79.76 124.83 82.77 124.71 C 83.03 123.11 83.32 121.51 83.60 119.91 C 83.73 121.31 83.86 122.72 83.99 124.13 C 86.67 123.58 89.19 123.13 91.42 121.43 C 97.38 117.13 99.76 110.57 103.36 104.50 C 105.90 108.91 104.82 114.04 107.45 118.55 C 110.66 124.97 118.76 127.67 125.35 125.29 C 129.70 123.28 132.25 118.14 133.81 113.86 C 138.36 100.85 139.29 86.42 136.48 72.94 Z" fill="#bdbdbd" />
<path d="M 20.26 75.42 C 19.83 83.98 19.35 92.82 20.40 101.35 C 21.88 110.15 23.97 118.40 29.36 125.66 C 31.64 127.81 35.07 128.89 37.80 130.39 C 41.98 132.45 44.70 135.64 47.88 138.91 C 47.96 137.63 48.04 136.36 48.12 135.08 C 51.73 137.19 55.52 139.08 59.44 140.55 C 63.64 142.14 67.67 142.07 71.40 144.83 C 62.47 143.55 54.28 142.42 45.89 146.70 C 45.59 143.51 45.92 139.92 43.56 137.42 C 40.14 133.44 35.86 132.00 31.40 129.62 C 26.47 127.11 23.71 122.07 21.67 117.15 C 17.15 105.76 17.12 94.12 17.80 82.06 C 17.95 79.54 19.16 77.60 20.26 75.42 Z" fill="#ebebeb" />
<path d="M 170.53 93.87 C 174.67 99.53 174.98 106.20 174.19 112.95 C 173.63 116.79 172.01 119.95 170.68 123.52 C 168.85 128.14 169.33 133.92 169.14 138.85 C 165.53 137.26 162.07 135.73 158.03 135.73 C 154.36 135.81 150.71 136.37 147.04 136.49 C 147.07 131.75 147.15 127.01 147.28 122.27 C 149.61 121.59 151.97 120.95 154.26 120.17 C 158.54 118.84 162.02 115.12 165.93 112.78 C 166.09 115.97 166.21 119.16 166.45 122.34 C 173.50 115.12 172.89 102.93 170.53 93.87 Z" fill="#eaeaea" />
<path d="M 88.50 98.48 C 94.30 99.95 97.67 105.71 95.43 111.41 C 93.44 115.73 87.57 117.85 83.60 119.91 C 83.32 121.51 83.03 123.11 82.77 124.71 C 79.76 124.83 76.79 124.88 73.83 124.28 C 73.79 122.69 73.73 121.10 73.67 119.51 C 69.70 117.62 64.64 115.58 62.53 111.45 C 60.43 106.35 62.76 100.84 67.99 98.97 C 74.20 96.84 82.15 97.02 88.50 98.48 Z" fill="#919191" />
<path d="M 117.27 135.69 C 122.16 135.29 126.15 137.87 131.01 137.88 C 134.61 138.00 138.12 138.46 141.68 138.92 C 143.57 139.32 145.48 137.38 147.04 136.49 C 150.71 136.37 154.36 135.81 158.03 135.73 C 162.07 135.73 165.53 137.26 169.14 138.85 C 170.30 140.46 171.51 142.04 172.66 143.66 C 171.68 149.08 170.15 152.89 166.55 157.06 C 166.40 155.53 166.27 153.99 166.13 152.46 C 162.88 153.12 159.34 154.01 156.02 153.89 C 153.01 153.75 149.96 153.09 146.99 152.59 C 147.35 154.70 147.30 157.67 149.11 159.13 C 151.26 160.91 154.14 162.14 156.94 162.20 C 159.81 162.09 162.70 159.92 165.09 158.46 C 165.38 159.01 165.66 159.56 165.95 160.12 C 164.48 161.87 163.05 163.85 161.00 164.93 C 157.72 166.79 153.30 165.79 150.52 163.46 C 148.10 161.18 146.79 157.65 144.63 155.10 C 143.07 154.52 141.05 154.58 139.72 155.66 C 137.17 158.07 135.78 161.76 133.19 164.14 C 130.27 166.49 126.36 166.34 123.09 164.81 C 120.66 164.06 118.15 161.79 115.69 163.54 C 109.74 166.73 109.99 173.88 105.27 178.27 C 101.70 181.97 95.21 181.54 91.30 178.67 C 87.47 175.78 86.63 170.67 84.20 166.78 C 82.37 164.05 78.72 162.76 75.85 164.79 C 71.61 167.62 70.75 174.63 67.10 178.10 C 63.14 181.41 57.33 181.90 53.00 178.97 C 50.25 176.97 47.82 173.83 48.87 170.26 C 50.71 172.41 52.20 175.11 54.98 176.15 C 59.86 178.37 66.39 176.65 69.16 171.93 C 70.81 169.63 70.78 167.17 70.96 164.46 C 66.75 165.13 62.23 166.19 57.99 165.89 C 54.86 165.67 51.70 165.03 48.61 164.48 C 48.25 165.63 47.88 166.78 47.51 167.92 C 45.19 165.57 43.04 163.34 41.74 160.24 C 40.63 157.71 40.68 154.52 40.49 151.80 C 42.14 149.95 43.92 148.22 45.89 146.70 C 54.28 142.42 62.47 143.55 71.40 144.83 C 76.31 145.18 81.63 145.18 86.54 144.78 C 91.48 144.26 96.02 143.33 101.05 143.71 C 104.37 143.94 107.40 144.88 110.55 145.86 C 110.17 142.58 110.80 137.90 108.19 135.53 C 111.32 134.35 114.34 133.58 117.27 135.69 Z" fill="#cccccc" />
<path d="M 108.19 135.53 C 110.80 137.90 110.17 142.58 110.55 145.86 C 107.40 144.88 104.37 143.94 101.05 143.71 C 96.02 143.33 91.48 144.26 86.54 144.78 C 90.22 141.95 94.21 142.00 98.44 140.45 C 101.99 139.29 104.94 137.27 108.19 135.53 Z" fill="#eaeaea" />
<path d="M 172.66 143.66 C 173.58 145.34 174.80 146.77 174.19 148.80 C 173.13 152.29 170.49 155.38 168.64 158.51 C 166.35 162.03 164.29 165.91 159.85 166.95 C 156.13 167.70 151.22 167.63 148.65 164.36 C 146.36 161.34 145.21 157.97 141.96 155.70 C 138.61 158.59 137.05 162.96 133.74 165.75 C 128.18 169.11 123.65 166.06 118.06 165.28 C 113.89 165.46 112.36 169.57 110.87 172.79 C 109.14 176.95 106.38 180.68 101.85 181.92 C 97.93 182.66 93.25 182.78 90.14 179.86 C 86.57 176.87 85.81 173.03 83.78 169.10 C 82.11 165.31 75.90 165.40 74.14 169.07 C 71.71 173.74 71.15 178.28 66.14 181.14 C 62.22 183.06 56.34 182.62 52.53 180.54 C 48.78 178.61 47.91 174.26 45.93 170.88 C 43.87 166.87 39.33 163.39 38.62 158.94 C 38.12 156.23 39.25 154.10 40.49 151.80 C 40.68 154.52 40.63 157.71 41.74 160.24 C 43.04 163.34 45.19 165.57 47.51 167.92 C 47.88 166.78 48.25 165.63 48.61 164.48 C 51.70 165.03 54.86 165.67 57.99 165.89 C 62.23 166.19 66.75 165.13 70.96 164.46 C 70.78 167.17 70.81 169.63 69.16 171.93 C 66.39 176.65 59.86 178.37 54.98 176.15 C 52.20 175.11 50.71 172.41 48.87 170.26 C 47.82 173.83 50.25 176.97 53.00 178.97 C 57.33 181.90 63.14 181.41 67.10 178.10 C 70.75 174.63 71.61 167.62 75.85 164.79 C 78.72 162.76 82.37 164.05 84.20 166.78 C 86.63 170.67 87.47 175.78 91.30 178.67 C 95.21 181.54 101.70 181.97 105.27 178.27 C 109.99 173.88 109.74 166.73 115.69 163.54 C 118.15 161.79 120.66 164.06 123.09 164.81 C 126.36 166.34 130.27 166.49 133.19 164.14 C 135.78 161.76 137.17 158.07 139.72 155.66 C 141.05 154.58 143.07 154.52 144.63 155.10 C 146.79 157.65 148.10 161.18 150.52 163.46 C 153.30 165.79 157.72 166.79 161.00 164.93 C 163.05 163.85 164.48 161.87 165.95 160.12 C 165.66 159.56 165.38 159.01 165.09 158.46 C 162.70 159.92 159.81 162.09 156.94 162.20 C 154.14 162.14 151.26 160.91 149.11 159.13 C 147.30 157.67 147.35 154.70 146.99 152.59 C 149.96 153.09 153.01 153.75 156.02 153.89 C 159.34 154.01 162.88 153.12 166.13 152.46 C 166.27 153.99 166.40 155.53 166.55 157.06 C 170.15 152.89 171.68 149.08 172.66 143.66 Z" fill="#eaeaea" />
<path d="M 117.92 152.55 C 121.25 152.97 124.64 153.99 127.99 153.89 C 131.06 153.77 134.18 153.06 137.21 152.53 C 136.72 154.88 136.72 157.11 134.92 158.90 C 131.21 163.03 124.56 163.21 120.50 159.49 C 118.60 157.72 118.23 155.00 117.92 152.55 Z" fill="#eaeaea" />
<path d="M 87.01 164.51 C 90.38 164.90 93.55 165.82 96.98 165.96 C 101.04 166.12 105.32 165.07 109.31 164.34 C 109.13 166.76 109.30 169.82 107.85 171.89 C 104.00 177.10 96.65 178.76 91.27 174.78 C 87.50 172.33 86.64 168.79 87.01 164.51 Z" fill="#eaeaea" /></svg>