<?xml version="1.0" encoding="UTF-8" standalone="no"?>
<!DOCTYPE svg PUBLIC "-//W3C//DTD SVG 1.1//EN" "http://www.w3.org/Graphics/SVG/1.1/DTD/svg11.dtd">
<svg viewBox="0 0 192 192" height="192.0pt" width="192.0pt" xmlns="http://www.w3.org/2000/svg" version="1.1">
<path d="M 75.35 14.95 C 87.45 17.35 97.42 22.62 103.08 34.03 C 102.96 35.40 104.48 38.08 102.52 38.45 C 95.61 41.24 89.91 46.08 87.10 53.10 C 85.35 58.11 85.69 63.93 83.79 68.95 C 77.42 59.04 77.02 49.01 67.78 41.21 C 64.31 38.05 58.84 37.08 54.61 35.13 C 57.71 32.06 67.54 29.24 61.24 24.09 C 66.58 22.38 71.87 22.07 77.41 21.87 C 76.75 19.56 75.98 17.28 75.35 14.95 Z" fill="#c8c8c8" />
<path d="M 54.61 35.13 C 58.84 37.08 64.31 38.05 67.78 41.21 C 77.02 49.01 77.42 59.04 83.79 68.95 C 85.69 63.93 85.35 58.11 87.10 53.10 C 89.91 46.08 95.61 41.24 102.52 38.45 C 104.48 38.08 102.96 35.40 103.08 34.03 C 109.06 37.19 112.75 32.93 118.99 33.00 C 127.19 32.13 140.64 30.32 147.48 35.48 C 145.50 49.42 149.75 62.26 145.15 75.91 C 141.93 75.78 138.40 73.68 139.12 78.93 C 142.20 91.15 141.26 103.76 136.39 115.36 C 130.72 128.35 118.39 133.45 105.39 136.39 C 91.44 138.88 76.05 138.52 62.00 136.93 C 51.69 135.42 40.66 131.48 33.10 124.07 C 32.50 129.05 33.85 133.52 34.82 138.32 C 31.45 135.89 32.57 129.75 30.87 126.11 C 27.92 119.31 24.04 113.57 23.41 105.89 C 24.73 99.63 22.10 94.13 23.82 87.94 C 24.57 81.97 21.81 77.86 19.00 73.00 C 15.57 59.89 15.67 47.59 17.94 33.89 C 28.62 29.64 43.54 32.89 54.61 35.13 Z" fill="#dadada" />
<path d="M 17.94 33.89 C 15.67 47.59 15.57 59.89 19.00 73.00 C 21.81 77.86 24.57 81.97 23.82 87.94 C 22.10 94.13 24.73 99.63 23.41 105.89 C 24.04 113.57 27.92 119.31 30.87 126.11 C 32.57 129.75 31.45 135.89 34.82 138.32 C 36.26 143.00 38.75 147.99 37.91 152.90 C 36.19 158.57 37.30 165.09 36.96 171.00 C 37.19 173.44 36.20 177.04 38.58 178.56 C 40.16 180.07 41.54 181.40 43.93 180.83 C 52.34 178.49 58.09 183.55 66.00 178.00 C 69.25 175.99 72.98 171.82 72.39 167.72 C 72.67 166.23 72.94 164.73 73.21 163.24 C 78.48 157.30 84.73 157.28 87.97 165.05 L 88.10 165.89 C 88.22 175.15 97.89 181.94 106.61 180.56 C 111.69 178.24 119.79 183.86 122.46 178.56 L 122.98 177.89 C 125.22 174.88 122.79 169.59 125.32 166.34 C 127.25 164.61 129.88 163.73 131.90 162.07 L 133.18 161.03 C 138.51 158.01 138.65 162.37 141.46 165.56 C 145.04 169.66 149.84 170.23 155.00 170.06 C 158.93 169.83 163.89 170.88 167.10 168.30 C 169.14 163.07 167.50 153.12 167.96 147.01 C 166.85 130.32 172.57 115.59 167.78 99.15 C 165.63 93.66 172.92 92.19 173.48 86.82 C 176.52 80.33 174.40 77.64 171.37 72.01 C 172.70 66.66 174.71 67.09 167.94 66.83 C 169.70 65.99 174.13 64.87 174.08 67.97 C 175.10 74.21 179.92 81.98 176.94 87.92 C 175.74 91.49 172.09 93.64 171.08 97.10 C 170.56 100.71 171.98 104.77 172.58 108.37 C 174.03 117.96 172.22 126.57 171.11 135.99 C 170.82 144.31 171.06 152.67 171.04 161.00 C 171.21 164.81 171.02 171.11 166.69 172.66 C 160.92 173.38 154.84 173.00 149.02 172.91 C 142.97 172.31 140.40 168.17 135.92 164.98 C 133.17 165.80 128.33 167.31 127.38 170.32 C 126.66 174.78 127.47 179.26 123.61 182.62 C 118.38 185.44 114.60 182.29 108.99 183.11 C 99.70 184.60 89.25 180.34 86.17 170.89 C 85.00 167.59 84.53 162.29 80.09 162.01 C 75.12 164.24 75.90 172.86 71.74 176.75 C 65.50 183.85 57.74 184.26 48.99 183.00 C 42.29 184.18 35.99 185.06 34.37 176.66 C 33.48 168.34 34.03 159.71 34.54 151.38 C 33.01 143.51 30.22 136.08 28.87 128.11 C 23.01 117.13 19.57 105.59 20.18 93.04 C 20.82 88.53 22.09 83.54 19.68 79.32 C 12.38 67.41 14.05 55.38 14.12 42.03 C 14.66 38.75 14.76 35.74 17.94 33.89 Z" fill="#e9e9e9" />
<path d="M 147.48 35.48 C 149.18 36.86 149.93 37.63 150.19 39.91 C 152.19 50.26 150.62 59.81 149.07 70.01 C 149.04 73.35 150.70 72.59 153.10 72.13 C 151.75 74.18 149.89 75.11 147.79 76.24 C 146.91 76.13 146.03 76.02 145.15 75.91 C 149.75 62.26 145.50 49.42 147.48 35.48 Z" fill="#ebebeb" />
<path d="M 49.00 41.08 C 45.35 45.36 40.97 49.04 37.43 53.41 C 34.00 57.64 32.04 63.03 28.31 66.94 C 24.44 59.15 26.22 48.78 26.26 40.30 C 31.49 37.26 43.02 39.69 49.00 41.08 Z" fill="#f1f1f1" />
<path d="M 138.79 41.21 C 138.48 49.47 141.12 61.33 136.04 68.29 C 134.21 65.77 133.12 63.10 131.55 60.41 C 127.58 53.52 122.20 47.99 117.01 42.09 C 123.38 39.83 131.97 41.29 138.79 41.21 Z" fill="#f1f1f1" />
<path d="M 167.94 66.83 C 174.71 67.09 172.70 66.66 171.37 72.01 C 174.40 77.64 176.52 80.33 173.48 86.82 C 170.81 88.69 168.36 90.70 165.23 91.75 C 161.35 84.17 155.33 79.81 147.79 76.24 C 149.89 75.11 151.75 74.18 153.10 72.13 C 157.94 69.89 163.21 69.52 167.94 66.83 Z" fill="#b5b5b5" />
<path d="M 46.33 68.31 C 56.26 66.19 59.01 78.62 58.01 86.02 C 57.92 90.88 53.28 99.58 47.35 97.69 C 41.84 96.96 40.06 90.57 39.07 85.98 C 38.21 80.35 40.29 70.51 46.33 68.31 Z" fill="#919191" />
<path d="M 112.35 68.35 C 121.64 65.55 125.43 74.30 125.09 81.99 C 125.49 87.53 123.55 98.02 116.00 97.10 C 110.65 97.73 107.97 92.52 106.79 88.15 C 104.73 81.83 106.47 72.20 112.35 68.35 Z" fill="#8d8d8d" />
<path d="M 145.15 75.91 C 146.03 76.02 146.91 76.13 147.79 76.24 C 155.33 79.81 161.35 84.17 165.23 91.75 C 168.36 90.70 170.81 88.69 173.48 86.82 C 172.92 92.19 165.63 93.66 167.78 99.15 C 172.57 115.59 166.85 130.32 167.96 147.01 C 162.67 147.27 156.30 145.94 151.65 148.62 C 147.36 150.83 142.62 151.50 138.22 153.30 C 136.41 162.64 148.77 170.37 156.72 166.59 C 160.20 167.17 163.55 168.13 167.10 168.30 C 163.89 170.88 158.93 169.83 155.00 170.06 C 149.84 170.23 145.04 169.66 141.46 165.56 C 138.65 162.37 138.51 158.01 133.18 161.03 C 133.10 158.73 133.05 156.39 132.76 154.11 C 125.76 156.19 121.96 151.98 115.00 152.97 C 106.39 153.22 97.66 152.65 89.09 153.19 C 83.66 155.86 77.34 155.86 71.91 153.19 C 60.65 152.64 49.21 153.29 37.91 152.90 C 38.75 147.99 36.26 143.00 34.82 138.32 C 33.85 133.52 32.50 129.05 33.10 124.07 C 40.66 131.48 51.69 135.42 62.00 136.93 C 76.05 138.52 91.44 138.88 105.39 136.39 C 118.39 133.45 130.72 128.35 136.39 115.36 C 141.26 103.76 142.20 91.15 139.12 78.93 C 138.40 73.68 141.93 75.78 145.15 75.91 Z" fill="#cdcdcd" />
<path d="M 86.05 85.70 C 96.68 86.46 108.28 92.21 112.30 102.67 C 114.43 108.84 115.33 118.31 112.14 124.17 C 105.74 134.69 92.29 131.51 82.00 132.00 C 71.56 131.57 57.58 134.58 51.62 123.36 C 47.76 114.09 49.76 101.40 57.28 94.30 C 65.07 87.61 75.92 84.53 86.05 85.70 Z" fill="#f0f0f0" />
<path d="M 65.32 95.32 C 76.87 92.06 79.71 103.11 79.92 111.96 C 79.21 116.72 77.42 123.36 73.05 126.04 C 67.73 129.41 61.76 123.72 60.06 118.92 C 57.65 110.89 58.31 100.90 65.32 95.32 Z" fill="#c6c6c6" />
<path d="M 91.35 95.36 C 99.49 92.54 104.65 99.77 105.14 107.00 C 105.89 114.27 104.79 121.06 99.04 126.04 C 93.51 129.55 87.22 123.25 85.83 118.15 C 82.54 110.88 84.65 100.01 91.35 95.36 Z" fill="#c5c5c5" />
<path d="M 167.96 147.01 C 167.50 153.12 169.14 163.07 167.10 168.30 C 163.55 168.13 160.20 167.17 156.72 166.59 C 148.77 170.37 136.41 162.64 138.22 153.30 C 142.62 151.50 147.36 150.83 151.65 148.62 C 156.30 145.94 162.67 147.27 167.96 147.01 Z" fill="#b2b2b2" />
<path d="M 37.91 152.90 C 49.21 153.29 60.65 152.64 71.91 153.19 C 77.34 155.86 83.66 155.86 89.09 153.19 C 97.66 152.65 106.39 153.22 115.00 152.97 C 121.96 151.98 125.76 156.19 132.76 154.11 C 133.05 156.39 133.10 158.73 133.18 161.03 L 131.90 162.07 C 129.63 162.17 124.55 159.77 123.26 162.29 C 122.59 167.41 123.21 172.73 122.98 177.89 L 122.46 178.56 C 118.65 178.34 114.42 176.44 110.69 176.89 C 101.25 180.25 91.68 174.99 88.10 165.89 L 87.97 165.05 C 87.69 162.23 87.36 159.35 86.69 156.59 C 83.02 155.77 77.98 155.77 74.31 156.59 C 73.82 158.78 73.56 161.02 73.21 163.24 C 72.94 164.73 72.67 166.23 72.39 167.72 C 68.39 175.09 60.71 179.28 52.38 177.46 C 48.19 175.58 43.14 178.33 38.58 178.56 C 36.20 177.04 37.19 173.44 36.96 171.00 C 37.30 165.09 36.19 158.57 37.91 152.90 Z" fill="#b3b3b3" />
<path d="M 74.31 156.59 C 77.98 155.77 83.02 155.77 86.69 156.59 C 87.36 159.35 87.69 162.23 87.97 165.05 C 84.73 157.28 78.48 157.30 73.21 163.24 C 73.56 161.02 73.82 158.78 74.31 156.59 Z" fill="#cecece" />
<path d="M 131.90 162.07 C 129.88 163.73 127.25 164.61 125.32 166.34 C 122.79 169.59 125.22 174.88 122.98 177.89 C 123.21 172.73 122.59 167.41 123.26 162.29 C 124.55 159.77 129.63 162.17 131.90 162.07 Z" fill="#cccccc" />
<path d="M 88.10 165.89 C 91.68 174.99 101.25 180.25 110.69 176.89 C 114.42 176.44 118.65 178.34 122.46 178.56 C 119.79 183.86 111.69 178.24 106.61 180.56 C 97.89 181.94 88.22 175.15 88.10 165.89 Z" fill="#d4d4d4" />
<path d="M 72.39 167.72 C 72.98 171.82 69.25 175.99 66.00 178.00 C 58.09 183.55 52.34 178.49 43.93 180.83 C 41.54 181.40 40.16 180.07 38.58 178.56 C 43.14 178.33 48.19 175.58 52.38 177.46 C 60.71 179.28 68.39 175.09 72.39 167.72 Z" fill="#d3d3d3" /></svg>