<?xml version="1.0" encoding="UTF-8" standalone="no"?>
<!DOCTYPE svg PUBLIC "-//W3C//DTD SVG 1.1//EN" "http://www.w3.org/Graphics/SVG/1.1/DTD/svg11.dtd">
<svg viewBox="0 0 192 192" height="192.0pt" width="192.0pt" xmlns="http://www.w3.org/2000/svg" version="1.1">
<path d="M 123.24 23.61 C 122.17 23.50 121.10 23.42 120.04 23.36 C 118.49 26.71 117.71 30.25 117.13 33.88 C 117.71 34.55 118.30 35.23 118.88 35.90 C 115.81 35.64 112.52 35.21 109.67 36.70 C 103.42 40.04 99.31 46.02 97.76 52.87 C 96.65 52.57 95.53 52.30 94.40 52.11 C 92.58 45.51 88.46 39.78 82.31 36.64 C 78.48 34.74 74.14 35.32 70.66 37.70 C 64.96 41.45 62.33 48.39 61.80 54.95 C 61.35 61.67 61.19 68.37 60.18 75.04 C 58.43 88.13 53.48 100.26 51.40 113.07 C 50.92 112.43 50.43 111.79 49.95 111.15 C 46.91 112.30 43.93 113.56 41.00 114.97 C 41.01 113.69 40.99 112.41 40.96 111.14 C 35.05 115.11 30.00 120.04 24.12 124.15 C 22.22 125.50 20.14 125.93 17.95 126.60 C 16.02 122.83 14.21 119.34 14.23 114.97 C 14.31 107.70 17.46 101.91 20.74 95.67 C 23.86 92.40 26.64 89.06 30.09 86.10 C 34.70 82.15 39.85 78.90 45.33 76.29 C 47.19 75.17 49.79 74.55 50.04 72.02 C 51.85 63.83 50.00 55.72 52.44 47.43 C 54.17 40.47 57.97 34.79 62.16 29.11 C 66.65 25.38 70.74 21.65 76.09 19.13 C 90.70 11.96 110.37 13.37 123.24 23.61 Z" fill="#949494" />
<path d="M 120.04 23.36 C 121.10 23.42 122.17 23.50 123.24 23.61 C 128.00 26.98 131.39 31.36 135.20 35.68 C 137.34 40.90 139.74 45.73 140.59 51.34 C 141.57 57.99 140.79 65.15 142.10 71.93 C 142.13 75.11 146.62 75.85 148.84 77.20 C 157.51 81.57 164.58 87.78 170.95 95.03 C 174.71 101.75 178.28 107.94 177.90 115.94 C 177.50 120.35 176.32 125.50 171.31 126.59 C 167.03 123.20 162.50 120.28 158.42 116.63 C 156.08 114.51 153.65 112.58 150.96 110.92 C 151.16 113.26 151.46 115.59 151.65 117.94 C 151.74 126.48 150.02 135.36 145.95 142.92 C 143.29 148.03 139.53 152.45 135.82 156.82 C 126.39 164.95 115.60 170.93 103.00 172.10 C 87.44 173.94 71.59 169.60 59.65 159.35 C 56.68 156.63 53.89 153.73 50.99 150.94 C 45.62 142.73 41.52 134.13 40.82 124.19 C 40.74 121.11 40.94 118.05 41.00 114.97 C 43.93 113.56 46.91 112.30 49.95 111.15 C 50.43 111.79 50.92 112.43 51.40 113.07 C 49.31 128.76 53.82 145.41 65.69 156.30 C 74.42 164.30 86.32 167.74 98.01 167.24 C 113.72 167.19 128.96 158.14 136.03 144.04 C 140.57 134.92 142.02 124.15 140.87 114.09 C 138.80 99.54 132.95 86.22 131.53 71.37 C 130.47 62.55 131.67 52.55 127.52 44.48 C 125.63 40.54 122.39 38.26 118.88 35.90 C 118.30 35.23 117.71 34.55 117.13 33.88 C 117.71 30.25 118.49 26.71 120.04 23.36 Z" fill="#8d8d8d" />
<path d="M 62.16 29.11 C 57.97 34.79 54.17 40.47 52.44 47.43 C 50.00 55.72 51.85 63.83 50.04 72.02 C 49.79 74.55 47.19 75.17 45.33 76.29 C 49.34 67.14 46.60 57.99 49.57 48.62 C 51.73 41.33 55.87 33.62 62.16 29.11 Z" fill="#e7e7e7" />
<path d="M 82.31 36.64 C 88.46 39.78 92.58 45.51 94.40 52.11 C 92.10 53.28 89.88 54.23 87.41 54.98 C 87.11 54.31 86.81 53.65 86.51 52.99 C 85.27 50.62 84.18 47.56 81.47 46.51 C 77.95 45.12 73.32 45.73 71.15 49.12 C 68.20 53.95 68.28 60.82 71.54 65.48 C 73.66 68.33 76.58 67.94 79.75 68.28 C 79.65 70.95 79.82 72.35 81.68 74.36 C 84.93 78.00 86.14 82.63 90.59 84.40 C 93.61 85.65 98.42 85.67 101.45 84.45 C 105.98 82.70 107.45 77.40 110.86 73.79 C 112.49 72.15 112.36 70.38 112.40 68.23 C 115.36 67.96 118.68 68.32 120.65 65.64 C 122.91 62.45 123.44 57.95 122.88 54.16 C 122.35 51.22 121.21 48.08 118.36 46.66 C 115.58 45.40 111.81 45.50 109.28 47.29 C 106.95 48.92 106.42 51.95 105.54 54.46 C 102.79 54.53 100.32 53.77 97.76 52.87 C 99.31 46.02 103.42 40.04 109.67 36.70 C 112.52 35.21 115.81 35.64 118.88 35.90 C 122.39 38.26 125.63 40.54 127.52 44.48 C 131.67 52.55 130.47 62.55 131.53 71.37 C 132.95 86.22 138.80 99.54 140.87 114.09 C 142.02 124.15 140.57 134.92 136.03 144.04 C 128.96 158.14 113.72 167.19 98.01 167.24 C 86.32 167.74 74.42 164.30 65.69 156.30 C 53.82 145.41 49.31 128.76 51.40 113.07 C 53.48 100.26 58.43 88.13 60.18 75.04 C 61.19 68.37 61.35 61.67 61.80 54.95 C 62.33 48.39 64.96 41.45 70.66 37.70 C 74.14 35.32 78.48 34.74 82.31 36.64 Z" fill="#ffffff" />
<path d="M 135.20 35.68 C 136.86 37.17 138.49 38.50 139.45 40.58 C 141.95 45.68 143.63 51.29 144.04 56.97 C 144.46 61.29 144.13 65.78 144.91 70.04 C 145.45 72.89 147.05 75.01 148.84 77.20 C 146.62 75.85 142.13 75.11 142.10 71.93 C 140.79 65.15 141.57 57.99 140.59 51.34 C 139.74 45.73 137.34 40.90 135.20 35.68 Z" fill="#e5e5e5" />
<path d="M 81.47 46.51 C 84.18 47.56 85.27 50.62 86.51 52.99 C 84.82 58.57 80.46 62.19 79.75 68.28 C 76.58 67.94 73.66 68.33 71.54 65.48 C 68.28 60.82 68.20 53.95 71.15 49.12 C 73.32 45.73 77.95 45.12 81.47 46.51 Z" fill="#949494" />
<path d="M 118.36 46.66 C 121.21 48.08 122.35 51.22 122.88 54.16 C 123.44 57.95 122.91 62.45 120.65 65.64 C 118.68 68.32 115.36 67.96 112.40 68.23 C 111.52 62.83 108.50 58.86 105.54 54.46 C 106.42 51.95 106.95 48.92 109.28 47.29 C 111.81 45.50 115.58 45.40 118.36 46.66 Z" fill="#929292" />
<path d="M 94.40 52.11 C 95.53 52.30 96.65 52.57 97.76 52.87 C 100.32 53.77 102.79 54.53 105.54 54.46 C 108.50 58.86 111.52 62.83 112.40 68.23 C 112.36 70.38 112.49 72.15 110.86 73.79 C 107.45 77.40 105.98 82.70 101.45 84.45 C 98.42 85.67 93.61 85.65 90.59 84.40 C 86.14 82.63 84.93 78.00 81.68 74.36 C 79.82 72.35 79.65 70.95 79.75 68.28 C 80.46 62.19 84.82 58.57 86.51 52.99 C 86.81 53.65 87.11 54.31 87.41 54.98 C 89.88 54.23 92.10 53.28 94.40 52.11 Z" fill="#d4d4d4" />
<path d="M 90.36 55.34 C 93.62 54.65 98.40 54.67 101.67 55.31 C 104.92 57.16 106.10 61.51 103.41 64.44 C 101.57 67.02 98.11 63.93 96.02 63.13 C 94.28 64.07 92.49 64.91 90.78 65.90 C 89.45 64.83 88.11 64.13 87.52 62.41 C 86.33 59.95 88.17 56.59 90.36 55.34 Z" fill="#939393" />
<path d="M 170.95 95.03 C 175.92 99.27 178.27 105.07 179.88 111.24 C 181.12 116.54 180.95 123.80 177.07 128.02 C 174.43 131.00 170.21 130.91 166.95 129.03 C 163.19 126.83 160.16 123.74 156.11 121.94 C 153.62 126.87 153.30 132.12 151.52 137.29 C 149.67 143.31 146.65 148.82 142.98 153.92 C 139.60 158.53 135.27 162.60 131.35 166.77 C 133.97 166.94 136.50 167.10 139.06 167.75 C 135.09 167.55 131.27 167.83 127.31 167.97 C 129.97 164.11 132.94 160.52 135.82 156.82 C 139.53 152.45 143.29 148.03 145.95 142.92 C 150.02 135.36 151.74 126.48 151.65 117.94 C 153.40 117.75 155.38 116.95 156.98 117.94 C 161.84 120.22 165.87 126.35 171.31 126.59 C 176.32 125.50 177.50 120.35 177.90 115.94 C 178.28 107.94 174.71 101.75 170.95 95.03 Z" fill="#e2e2e2" />
<path d="M 20.74 95.67 C 17.46 101.91 14.31 107.70 14.23 114.97 C 14.21 119.34 16.02 122.83 17.95 126.60 C 19.52 126.70 21.22 127.09 22.77 126.78 C 28.09 125.35 31.84 119.43 37.02 118.01 C 40.12 117.13 40.29 122.23 40.82 124.19 C 41.52 134.13 45.62 142.73 50.99 150.94 C 52.30 153.28 53.71 155.47 55.73 157.27 C 59.16 160.35 61.74 164.11 64.93 167.41 C 61.24 167.74 57.54 167.71 53.84 167.79 C 55.45 167.39 57.06 167.02 58.67 166.65 C 55.55 161.69 51.02 158.08 47.66 153.32 C 44.80 149.26 42.53 144.79 40.78 140.14 C 38.60 134.51 38.46 128.65 36.75 122.83 C 31.02 123.85 28.21 128.90 22.58 130.57 C 19.27 131.41 15.71 129.96 13.96 127.01 C 11.04 122.13 10.93 115.80 12.35 110.41 C 13.99 104.73 15.93 99.43 20.74 95.67 Z" fill="#e5e5e5" />
<path d="M 40.96 111.14 C 40.99 112.41 41.01 113.69 41.00 114.97 C 40.94 118.05 40.74 121.11 40.82 124.19 C 40.29 122.23 40.12 117.13 37.02 118.01 C 31.84 119.43 28.09 125.35 22.77 126.78 C 21.22 127.09 19.52 126.70 17.95 126.60 C 20.14 125.93 22.22 125.50 24.12 124.15 C 30.00 120.04 35.05 115.11 40.96 111.14 Z" fill="#cccccc" />
<path d="M 150.96 110.92 C 153.65 112.58 156.08 114.51 158.42 116.63 C 162.50 120.28 167.03 123.20 171.31 126.59 C 165.87 126.35 161.84 120.22 156.98 117.94 C 155.38 116.95 153.40 117.75 151.65 117.94 C 151.46 115.59 151.16 113.26 150.96 110.92 Z" fill="#c6c6c6" />
<path d="M 50.99 150.94 C 53.89 153.73 56.68 156.63 59.65 159.35 C 71.59 169.60 87.44 173.94 103.00 172.10 C 115.60 170.93 126.39 164.95 135.82 156.82 C 132.94 160.52 129.97 164.11 127.31 167.97 C 131.27 167.83 135.09 167.55 139.06 167.75 C 143.26 169.89 147.13 172.80 150.72 175.83 C 150.42 176.34 150.12 176.84 149.82 177.35 C 145.23 178.38 140.75 179.45 136.01 179.44 C 110.34 179.37 84.67 179.33 59.00 179.45 C 52.77 179.62 46.71 178.14 40.46 178.40 L 39.08 177.54 C 43.54 173.98 48.37 169.60 53.84 167.79 C 57.54 167.71 61.24 167.74 64.93 167.41 C 61.74 164.11 59.16 160.35 55.73 157.27 C 53.71 155.47 52.30 153.28 50.99 150.94 Z" fill="#c8c8c8" />
<path d="M 149.82 177.35 C 149.46 178.85 149.76 180.38 148.30 181.29 C 145.51 183.16 141.25 183.07 138.01 183.20 C 109.01 183.13 79.98 183.16 50.97 183.19 C 48.66 183.09 46.04 183.05 43.89 182.14 C 42.50 181.25 41.54 179.63 40.46 178.40 C 46.71 178.14 52.77 179.62 59.00 179.45 C 84.67 179.33 110.34 179.37 136.01 179.44 C 140.75 179.45 145.23 178.38 149.82 177.35 Z" fill="#dcdcdc" /></svg>