<?xml version="1.0" encoding="UTF-8" standalone="no"?>
<!DOCTYPE svg PUBLIC "-//W3C//DTD SVG 1.1//EN" "http://www.w3.org/Graphics/SVG/1.1/DTD/svg11.dtd">
<svg viewBox="0 0 192 192" height="192.0pt" width="192.0pt" xmlns="http://www.w3.org/2000/svg" version="1.1">
<path d="M 62.35 17.68 C 66.80 19.85 69.62 23.74 73.69 26.32 C 77.16 28.21 82.05 27.59 85.90 28.27 C 90.79 29.15 96.69 30.25 101.61 29.28 C 106.51 26.41 112.25 29.20 117.56 26.58 C 121.50 24.38 124.44 20.70 128.39 18.41 C 138.85 12.56 151.73 11.26 162.24 17.77 C 169.63 22.81 176.31 30.23 179.10 38.86 C 181.78 46.86 182.92 55.79 181.16 64.11 C 180.36 68.09 178.18 71.97 177.90 76.00 C 178.33 80.44 180.50 84.58 180.87 89.10 C 181.36 93.40 180.31 97.26 179.50 101.42 C 178.57 105.55 180.47 109.79 180.94 114.01 C 181.67 120.28 180.64 127.03 177.50 132.56 C 175.87 135.64 173.69 138.64 173.36 142.19 C 172.84 147.10 173.52 152.38 172.31 157.26 C 171.30 161.26 169.21 165.36 166.02 168.05 C 161.92 171.32 156.19 172.74 151.16 170.90 C 147.60 169.66 145.02 166.70 141.78 165.24 C 139.59 164.69 137.19 164.81 134.96 164.97 C 133.80 165.17 131.87 165.10 131.37 166.41 C 129.46 170.06 129.09 174.04 126.29 177.29 C 123.66 180.31 120.04 183.37 115.95 183.97 C 112.17 184.55 107.91 184.28 104.44 182.55 C 100.99 180.82 98.71 177.76 95.74 175.44 C 92.01 177.45 89.80 181.85 85.37 183.33 C 79.45 185.24 71.78 184.31 67.19 179.81 C 63.47 176.30 61.19 171.51 60.58 166.45 C 60.11 163.62 60.27 160.40 59.20 157.73 C 56.54 155.06 52.95 153.43 50.18 150.83 C 46.80 147.95 44.49 144.31 42.59 140.34 C 39.77 134.47 35.05 130.86 31.57 125.42 C 27.16 118.97 25.29 110.72 25.04 103.01 C 24.85 98.55 26.35 94.43 26.61 90.06 C 26.84 87.97 24.33 86.30 23.04 84.95 C 13.93 77.07 9.54 64.85 10.09 52.97 C 10.62 43.30 13.64 33.52 20.21 26.22 C 23.48 22.62 27.25 18.76 31.62 16.55 C 33.10 15.76 34.60 15.89 36.24 15.73 C 31.82 18.94 27.29 21.47 23.77 25.79 C 18.67 31.46 16.14 38.41 14.64 45.78 C 12.17 54.09 13.22 63.46 16.63 71.35 C 19.73 78.52 25.18 82.25 30.26 87.97 C 30.99 86.70 31.62 85.40 32.26 84.08 C 35.88 84.04 39.50 84.14 43.12 84.05 C 42.38 90.41 41.10 97.06 41.55 103.46 C 46.62 105.12 52.44 102.53 57.68 103.14 C 60.06 106.94 61.44 111.27 63.97 115.02 C 69.70 123.76 77.79 131.43 88.34 133.60 C 95.00 134.77 102.44 134.49 108.68 131.70 C 116.31 128.53 122.62 121.87 127.09 115.07 C 129.61 111.38 130.96 107.08 133.35 103.34 C 138.90 103.47 143.88 104.87 149.56 103.65 C 149.86 97.15 149.04 90.55 147.96 84.14 C 152.86 84.19 157.61 84.54 162.01 82.03 C 170.04 77.35 175.73 69.16 177.15 59.94 C 178.86 49.30 176.59 37.53 170.30 28.67 C 166.40 23.44 161.70 18.81 155.44 16.55 C 147.45 13.50 138.42 14.92 131.11 19.07 C 122.33 24.24 116.44 32.50 112.88 41.93 C 104.66 39.59 96.42 39.72 87.97 40.12 C 84.87 40.29 81.90 41.06 78.95 41.96 C 76.26 35.38 72.88 29.26 67.64 24.35 C 63.17 20.08 57.45 16.92 51.41 15.53 C 46.44 14.40 41.87 15.35 36.82 15.54 C 38.14 14.78 39.22 13.87 40.80 13.71 C 48.04 12.59 55.84 14.48 62.35 17.68 Z" fill="#f2f2f2" />
<path d="M 51.41 15.53 C 57.45 16.92 63.17 20.08 67.64 24.35 C 72.88 29.26 76.26 35.38 78.95 41.96 C 80.20 47.13 81.84 52.56 81.88 57.90 C 81.77 61.51 78.11 63.02 75.00 63.24 C 72.18 63.46 68.37 62.90 67.33 59.82 C 66.20 56.98 65.15 54.23 63.31 51.76 C 61.55 45.64 59.10 40.17 53.44 36.74 C 49.58 34.04 44.70 33.53 40.21 34.69 C 36.82 35.73 35.03 38.25 33.02 40.96 C 35.81 39.81 38.66 38.22 41.61 37.59 C 44.58 37.03 48.02 38.25 50.88 39.03 C 53.17 40.75 55.52 42.46 57.14 44.87 C 58.75 47.26 59.62 50.21 60.46 52.95 C 61.03 57.93 61.26 62.73 59.60 67.55 C 58.52 71.08 56.09 73.91 54.81 77.29 C 54.16 80.14 54.59 83.31 54.75 86.20 C 54.53 83.86 54.32 81.42 53.77 79.14 C 52.37 78.28 50.23 81.78 49.16 82.65 C 47.13 83.05 45.12 83.54 43.12 84.05 C 39.50 84.14 35.88 84.04 32.26 84.08 C 28.17 81.31 24.35 78.65 21.39 74.60 C 17.74 69.53 15.14 63.33 14.87 57.04 C 14.65 53.29 14.63 49.54 14.64 45.78 C 16.14 38.41 18.67 31.46 23.77 25.79 C 27.29 21.47 31.82 18.94 36.24 15.73 L 36.82 15.54 C 41.87 15.35 46.44 14.40 51.41 15.53 Z" fill="#b4b4b4" />
<path d="M 155.44 16.55 C 161.70 18.81 166.40 23.44 170.30 28.67 C 176.59 37.53 178.86 49.30 177.15 59.94 C 175.73 69.16 170.04 77.35 162.01 82.03 C 157.61 84.54 152.86 84.19 147.96 84.14 C 145.63 83.13 143.30 82.10 140.98 81.03 C 140.01 80.37 139.04 79.71 138.09 79.02 C 137.00 75.54 134.43 73.24 133.13 69.86 C 131.22 65.10 131.21 60.41 130.79 55.37 C 132.14 49.83 133.84 44.91 138.29 41.07 C 141.39 39.33 145.27 37.19 148.91 37.34 C 151.97 37.61 155.04 38.98 157.99 39.84 C 156.10 37.65 154.27 35.66 151.45 34.70 C 146.19 32.83 140.55 34.56 136.27 37.84 C 132.62 41.21 130.49 45.43 128.70 49.98 C 127.08 53.57 125.74 57.38 123.74 60.78 C 122.28 63.37 118.61 63.43 116.03 63.11 C 113.11 62.69 110.08 61.31 109.96 57.95 C 109.83 52.61 111.58 47.08 112.88 41.93 C 116.44 32.50 122.33 24.24 131.11 19.07 C 138.42 14.92 147.45 13.50 155.44 16.55 Z" fill="#afafaf" />
<path d="M 40.21 34.69 C 44.70 33.53 49.58 34.04 53.44 36.74 C 52.59 37.51 51.74 38.27 50.88 39.03 C 48.02 38.25 44.58 37.03 41.61 37.59 C 38.66 38.22 35.81 39.81 33.02 40.96 C 35.03 38.25 36.82 35.73 40.21 34.69 Z" fill="#c7c7c7" />
<path d="M 151.45 34.70 C 154.27 35.66 156.10 37.65 157.99 39.84 C 155.04 38.98 151.97 37.61 148.91 37.34 C 145.27 37.19 141.39 39.33 138.29 41.07 C 138.48 40.40 138.66 39.73 138.81 39.06 C 137.98 38.62 137.13 38.21 136.27 37.84 C 140.55 34.56 146.19 32.83 151.45 34.70 Z" fill="#c6c6c6" />
<path d="M 53.44 36.74 C 59.10 40.17 61.55 45.64 63.31 51.76 C 62.36 52.15 61.41 52.55 60.46 52.95 C 59.62 50.21 58.75 47.26 57.14 44.87 C 55.52 42.46 53.17 40.75 50.88 39.03 C 51.74 38.27 52.59 37.51 53.44 36.74 Z" fill="#f3f3f3" />
<path d="M 136.27 37.84 C 137.13 38.21 137.98 38.62 138.81 39.06 C 138.66 39.73 138.48 40.40 138.29 41.07 C 133.84 44.91 132.14 49.83 130.79 55.37 C 130.11 53.57 129.37 51.79 128.70 49.98 C 130.49 45.43 132.62 41.21 136.27 37.84 Z" fill="#f3f3f3" />
<path d="M 87.97 40.12 C 96.42 39.72 104.66 39.59 112.88 41.93 C 111.58 47.08 109.83 52.61 109.96 57.95 C 110.08 61.31 113.11 62.69 116.03 63.11 C 118.61 63.43 122.28 63.37 123.74 60.78 C 125.74 57.38 127.08 53.57 128.70 49.98 C 129.37 51.79 130.11 53.57 130.79 55.37 C 131.21 60.41 131.22 65.10 133.13 69.86 C 134.43 73.24 137.00 75.54 138.09 79.02 C 135.85 84.86 135.92 91.64 135.10 97.82 C 137.71 98.18 140.38 98.22 143.00 97.88 C 143.93 92.36 142.59 86.32 140.98 81.03 C 143.30 82.10 145.63 83.13 147.96 84.14 C 149.04 90.55 149.86 97.15 149.56 103.65 C 143.88 104.87 138.90 103.47 133.35 103.34 C 130.96 107.08 129.61 111.38 127.09 115.07 C 122.62 121.87 116.31 128.53 108.68 131.70 C 102.44 134.49 95.00 134.77 88.34 133.60 C 77.79 131.43 69.70 123.76 63.97 115.02 C 61.44 111.27 60.06 106.94 57.68 103.14 C 52.44 102.53 46.62 105.12 41.55 103.46 C 41.10 97.06 42.38 90.41 43.12 84.05 C 45.12 83.54 47.13 83.05 49.16 82.65 C 48.14 87.77 47.32 92.63 48.17 97.85 C 50.72 98.17 53.30 98.11 55.83 97.71 C 55.78 93.87 55.05 90.03 54.75 86.20 C 54.59 83.31 54.16 80.14 54.81 77.29 C 56.09 73.91 58.52 71.08 59.60 67.55 C 61.26 62.73 61.03 57.93 60.46 52.95 C 61.41 52.55 62.36 52.15 63.31 51.76 C 65.15 54.23 66.20 56.98 67.33 59.82 C 68.37 62.90 72.18 63.46 75.00 63.24 C 78.11 63.02 81.77 61.51 81.88 57.90 C 81.84 52.56 80.20 47.13 78.95 41.96 C 81.90 41.06 84.87 40.29 87.97 40.12 Z" fill="#cdcdcd" />
<path d="M 14.64 45.78 C 14.63 49.54 14.65 53.29 14.87 57.04 C 15.14 63.33 17.74 69.53 21.39 74.60 C 24.35 78.65 28.17 81.31 32.26 84.08 C 31.62 85.40 30.99 86.70 30.26 87.97 C 25.18 82.25 19.73 78.52 16.63 71.35 C 13.22 63.46 12.17 54.09 14.64 45.78 Z" fill="#d6d6d6" />
<path d="M 42.29 51.15 C 45.02 50.55 46.48 52.51 47.24 54.84 C 48.33 58.61 47.18 63.56 44.40 66.36 C 42.60 68.24 40.33 68.16 37.90 68.10 C 38.24 65.51 38.59 62.92 39.09 60.35 C 39.88 57.32 40.57 53.80 42.29 51.15 Z" fill="#f3f3f3" />
<path d="M 148.46 51.56 C 150.57 54.06 150.90 57.96 152.15 60.88 C 154.49 62.10 157.09 62.77 159.48 63.91 C 156.75 66.75 152.59 69.53 148.62 67.37 C 144.70 64.92 142.68 57.90 144.85 53.82 C 145.72 52.65 146.73 50.31 148.46 51.56 Z" fill="#f2f2f2" />
<path d="M 39.09 60.35 C 38.59 62.92 38.24 65.51 37.90 68.10 C 34.80 67.72 32.97 66.09 31.84 63.24 C 34.25 62.25 36.74 61.52 39.09 60.35 Z" fill="#cbcbcb" />
<path d="M 74.31 70.57 C 79.12 70.38 83.90 72.28 87.14 75.87 C 92.78 81.62 92.41 92.01 86.33 97.34 C 80.00 103.56 69.23 103.30 63.20 96.80 C 57.76 91.43 57.59 82.21 62.35 76.36 C 65.27 72.69 69.70 70.85 74.31 70.57 Z" fill="#ffffff" />
<path d="M 115.29 70.57 C 123.94 70.18 132.16 77.10 132.05 86.00 C 132.47 95.08 123.83 102.38 115.04 101.83 C 106.73 101.62 99.17 94.57 99.73 85.99 C 99.44 77.34 106.99 70.83 115.29 70.57 Z" fill="#ffffff" />
<path d="M 72.44 74.52 C 80.09 72.66 87.75 79.16 87.16 86.99 C 87.08 93.38 81.25 98.37 75.00 98.13 C 68.82 98.35 63.03 93.28 63.00 86.98 C 62.56 81.20 66.84 75.74 72.44 74.52 Z" fill="#939393" />
<path d="M 112.51 74.64 C 119.73 72.74 127.28 77.53 128.05 85.05 C 129.02 92.12 123.03 98.37 116.00 98.12 C 109.34 98.39 103.30 92.76 103.61 85.99 C 103.59 80.62 107.49 76.12 112.51 74.64 Z" fill="#909090" />
<path d="M 53.77 79.14 C 54.32 81.42 54.53 83.86 54.75 86.20 C 55.05 90.03 55.78 93.87 55.83 97.71 C 53.30 98.11 50.72 98.17 48.17 97.85 C 47.32 92.63 48.14 87.77 49.16 82.65 C 50.23 81.78 52.37 78.28 53.77 79.14 Z" fill="#949494" />
<path d="M 138.09 79.02 C 139.04 79.71 140.01 80.37 140.98 81.03 C 142.59 86.32 143.93 92.36 143.00 97.88 C 140.38 98.22 137.71 98.18 135.10 97.82 C 135.92 91.64 135.85 84.86 138.09 79.02 Z" fill="#8d8d8d" />
<path d="M 28.37 95.93 C 29.09 99.16 28.58 102.44 29.29 105.66 C 31.31 113.94 35.22 121.62 41.65 127.35 C 45.90 131.14 45.97 136.21 49.38 140.55 C 53.30 145.90 60.16 149.22 66.17 151.68 C 64.11 151.50 62.04 151.29 59.98 151.18 C 60.81 152.12 61.66 153.12 62.65 153.90 C 63.44 153.97 64.26 153.87 65.05 153.84 C 65.10 155.17 65.03 156.51 65.01 157.85 C 64.72 163.63 65.31 169.11 69.59 173.40 C 74.06 178.55 82.44 178.87 87.53 174.51 C 89.71 172.66 90.88 170.33 92.17 167.85 C 94.33 167.21 96.52 166.86 98.75 166.66 C 100.05 169.55 101.17 172.24 103.58 174.41 C 108.64 179.13 117.68 178.37 122.11 173.11 C 124.75 170.25 125.53 166.82 126.27 163.12 C 127.48 161.10 128.19 159.34 130.92 159.50 C 136.47 159.71 142.14 158.41 146.94 161.00 C 149.45 162.88 151.85 164.70 155.08 165.06 C 159.47 165.32 163.89 162.87 166.04 159.04 C 168.08 155.38 168.87 150.95 168.84 146.81 C 168.40 141.73 168.97 137.64 170.44 132.82 C 172.26 129.49 174.40 126.23 175.82 122.70 C 177.49 118.57 177.06 114.30 177.43 109.87 C 178.73 116.93 178.45 125.39 174.62 131.69 C 173.37 134.03 171.61 136.55 171.06 139.15 C 169.88 145.61 170.77 153.36 168.49 159.56 C 166.21 165.41 160.67 169.51 154.24 168.61 C 149.36 167.99 146.90 164.10 142.83 162.05 C 138.77 161.44 133.74 161.43 129.83 162.79 C 127.29 165.39 127.31 170.34 125.35 173.47 C 122.91 177.25 118.94 180.62 114.39 181.35 C 110.75 182.10 107.14 180.76 104.08 178.86 C 101.14 176.97 99.38 173.20 96.83 170.76 C 94.17 170.15 92.92 172.82 91.39 174.45 C 88.98 177.70 86.32 180.33 82.20 181.16 C 74.84 183.05 67.58 177.91 64.77 171.28 C 62.69 166.77 63.93 161.26 62.23 156.84 C 60.26 154.00 56.52 152.32 53.89 150.09 C 49.80 146.97 46.92 142.90 44.73 138.28 C 41.69 131.80 35.82 127.92 32.61 121.50 C 28.29 113.49 27.71 104.84 28.37 95.93 Z" fill="#d7d7d7" />
<path d="M 64.01 104.11 C 69.36 104.72 74.65 106.05 79.95 107.03 C 82.59 107.61 85.89 108.20 87.95 110.06 C 91.50 113.32 92.66 118.30 95.71 121.84 C 98.00 118.44 99.62 114.34 102.19 111.19 C 104.11 108.72 107.54 108.14 110.41 107.41 C 116.19 106.21 122.00 104.74 127.88 104.07 C 118.94 111.48 109.04 117.79 99.83 124.86 C 97.94 126.15 98.64 127.53 98.50 129.47 C 96.24 128.97 94.79 128.93 92.52 129.40 C 92.50 128.37 92.54 127.34 92.50 126.30 C 91.48 124.81 89.77 123.73 88.35 122.64 C 82.13 118.22 76.15 113.50 69.94 109.08 C 67.83 107.58 65.83 105.95 64.01 104.11 Z" fill="#8f8f8f" />
<path d="M 170.44 132.82 C 168.97 137.64 168.40 141.73 168.84 146.81 C 161.41 145.30 154.11 147.24 146.70 145.32 C 151.30 143.27 155.91 141.36 160.62 139.57 C 164.45 138.13 167.51 135.61 170.44 132.82 Z" fill="#cbcbcb" />
<path d="M 146.70 145.32 C 154.11 147.24 161.41 145.30 168.84 146.81 C 168.87 150.95 168.08 155.38 166.04 159.04 C 163.89 162.87 159.47 165.32 155.08 165.06 C 151.85 164.70 149.45 162.88 146.94 161.00 C 145.94 159.19 145.05 157.26 143.88 155.56 C 140.50 156.99 137.94 158.92 134.01 158.23 C 129.78 157.89 127.83 155.10 125.54 151.97 C 129.53 150.71 133.03 148.85 136.49 146.53 C 139.43 144.36 143.29 145.23 146.70 145.32 Z" fill="#8b8b8b" />
<path d="M 59.98 151.18 C 62.04 151.29 64.11 151.50 66.17 151.68 C 68.65 151.95 71.22 151.91 73.67 152.44 C 76.09 153.67 78.03 156.01 80.07 157.80 C 75.07 157.53 70.01 157.66 65.01 157.85 C 65.03 156.51 65.10 155.17 65.05 153.84 C 64.26 153.87 63.44 153.97 62.65 153.90 C 61.66 153.12 60.81 152.12 59.98 151.18 Z" fill="#cccccc" />
<path d="M 117.35 152.41 C 119.94 151.71 122.87 151.96 125.54 151.97 C 127.83 155.10 129.78 157.89 134.01 158.23 C 137.94 158.92 140.50 156.99 143.88 155.56 C 145.05 157.26 145.94 159.19 146.94 161.00 C 142.14 158.41 136.47 159.71 130.92 159.50 C 128.19 159.34 127.48 161.10 126.27 163.12 C 126.25 161.41 126.19 159.71 125.98 158.02 C 121.03 157.35 115.93 157.61 110.96 157.83 C 112.99 156.01 114.96 153.75 117.35 152.41 Z" fill="#cbcbcb" />
<path d="M 65.01 157.85 C 70.01 157.66 75.07 157.53 80.07 157.80 C 84.24 160.20 88.28 161.69 93.08 162.31 C 92.80 164.16 92.51 166.01 92.17 167.85 C 90.88 170.33 89.71 172.66 87.53 174.51 C 82.44 178.87 74.06 178.55 69.59 173.40 C 65.31 169.11 64.72 163.63 65.01 157.85 Z" fill="#8c8c8c" />
<path d="M 110.96 157.83 C 115.93 157.61 121.03 157.35 125.98 158.02 C 126.19 159.71 126.25 161.41 126.27 163.12 C 125.53 166.82 124.75 170.25 122.11 173.11 C 117.68 178.37 108.64 179.13 103.58 174.41 C 101.17 172.24 100.05 169.55 98.75 166.66 C 98.82 165.18 98.89 163.70 98.97 162.22 C 103.34 161.45 107.11 160.00 110.96 157.83 Z" fill="#8b8b8b" />
<path d="M 93.08 162.31 C 95.04 162.29 97.01 162.26 98.97 162.22 C 98.89 163.70 98.82 165.18 98.75 166.66 C 96.52 166.86 94.33 167.21 92.17 167.85 C 92.51 166.01 92.80 164.16 93.08 162.31 Z" fill="#c4c4c4" /></svg>