<?xml version="1.0" encoding="UTF-8" standalone="no"?>
<!DOCTYPE svg PUBLIC "-//W3C//DTD SVG 1.1//EN" "http://www.w3.org/Graphics/SVG/1.1/DTD/svg11.dtd">
<svg viewBox="0 0 192 192" height="192.0pt" width="192.0pt" xmlns="http://www.w3.org/2000/svg" version="1.1">
<path d="M 47.54 14.63 C 51.88 15.55 55.84 19.03 58.98 22.02 C 64.90 27.82 71.13 34.24 73.21 42.53 C 72.70 46.97 74.19 50.75 75.32 54.93 C 73.31 55.55 71.27 56.06 69.25 56.64 C 68.08 49.84 67.55 43.32 63.59 37.42 C 60.81 33.29 56.62 28.68 51.66 27.34 C 47.68 26.42 44.74 30.44 43.83 33.83 C 42.24 40.27 42.54 47.54 45.39 53.61 C 47.99 59.19 50.41 64.87 53.23 70.35 C 52.27 73.17 51.50 76.04 50.63 78.88 C 48.82 74.58 47.16 70.42 43.92 66.95 C 39.42 60.89 35.74 54.57 34.80 46.94 C 33.91 41.68 35.61 37.42 36.43 32.35 C 37.28 27.35 39.04 22.18 42.02 18.04 C 43.21 16.51 45.35 14.04 47.54 14.63 Z" fill="#dddddd" />
<path d="M 136.96 16.06 C 140.84 19.86 142.73 26.06 144.12 31.22 C 145.11 34.46 144.55 37.51 144.04 40.77 C 144.73 39.83 145.43 38.89 146.14 37.95 C 146.43 42.13 146.59 46.21 145.56 50.31 C 143.82 58.15 138.55 65.48 133.93 71.92 C 130.36 75.87 131.06 80.15 130.59 85.07 C 130.14 79.98 129.34 75.00 127.44 70.23 C 129.11 67.21 130.59 64.11 131.97 60.94 C 134.35 55.46 137.02 50.66 137.53 44.56 C 137.83 40.20 137.34 35.47 135.49 31.47 C 134.14 28.97 131.60 26.28 128.47 27.45 C 123.14 29.21 118.79 34.34 116.06 39.07 C 113.06 44.18 112.90 49.48 111.39 55.02 C 111.19 55.58 110.98 56.15 110.77 56.71 C 109.63 56.39 108.49 56.08 107.35 55.77 C 107.17 51.38 107.06 46.99 107.03 42.60 C 111.07 32.17 118.67 23.09 128.00 16.99 C 130.75 15.40 134.16 13.36 136.96 16.06 Z" fill="#dcdcdc" />
<path d="M 51.66 27.34 C 56.62 28.68 60.81 33.29 63.59 37.42 C 67.55 43.32 68.08 49.84 69.25 56.64 C 62.54 59.66 57.25 64.19 53.23 70.35 C 50.41 64.87 47.99 59.19 45.39 53.61 C 42.54 47.54 42.24 40.27 43.83 33.83 C 44.74 30.44 47.68 26.42 51.66 27.34 Z" fill="#ececec" />
<path d="M 128.47 27.45 C 131.60 26.28 134.14 28.97 135.49 31.47 C 137.34 35.47 137.83 40.20 137.53 44.56 C 137.02 50.66 134.35 55.46 131.97 60.94 C 130.59 64.11 129.11 67.21 127.44 70.23 C 124.88 66.26 121.82 62.71 117.66 60.35 C 115.09 58.88 113.27 57.31 111.39 55.02 C 112.90 49.48 113.06 44.18 116.06 39.07 C 118.79 34.34 123.14 29.21 128.47 27.45 Z" fill="#ebebeb" />
<path d="M 73.21 42.53 C 76.53 45.17 75.92 50.95 76.73 54.86 C 80.47 54.50 84.21 54.04 87.97 53.86 C 93.28 53.60 98.86 54.44 104.19 54.90 C 104.24 50.41 104.80 46.58 107.03 42.60 C 107.06 46.99 107.17 51.38 107.35 55.77 C 108.49 56.08 109.63 56.39 110.77 56.71 C 110.98 56.15 111.19 55.58 111.39 55.02 C 113.27 57.31 115.09 58.88 117.66 60.35 C 121.82 62.71 124.88 66.26 127.44 70.23 C 129.34 75.00 130.14 79.98 130.59 85.07 C 131.06 80.15 130.36 75.87 133.93 71.92 C 131.41 80.02 131.39 90.12 135.59 97.73 C 137.06 100.95 137.90 104.39 139.46 107.58 C 140.23 109.53 141.62 111.87 141.46 114.00 C 140.61 115.33 139.51 116.52 138.56 117.79 C 136.39 120.70 135.01 123.75 132.23 126.24 C 129.09 129.16 125.29 130.54 121.93 132.99 C 120.16 134.00 120.33 136.94 120.03 138.73 C 119.89 141.58 119.83 144.42 119.57 147.27 C 118.55 153.14 118.22 160.15 113.10 164.10 C 107.87 168.25 99.57 167.76 93.36 166.67 C 93.58 163.13 93.78 159.59 93.94 156.04 C 102.12 150.42 110.64 145.43 115.00 136.04 C 109.58 137.06 104.54 138.53 99.03 139.01 C 92.74 139.57 86.36 139.53 80.09 138.84 C 75.28 138.31 70.77 137.01 66.04 136.11 C 70.06 144.55 79.12 150.84 86.75 155.83 C 87.04 159.40 87.46 162.95 87.78 166.51 C 83.80 167.18 80.02 167.85 75.97 167.22 C 72.23 166.75 69.17 165.07 65.93 163.30 C 65.52 163.90 65.11 164.49 64.70 165.09 C 66.85 167.64 69.09 169.80 72.40 170.72 C 77.87 172.41 84.14 172.21 89.82 172.00 C 90.10 173.45 90.38 174.89 90.66 176.34 C 87.08 175.03 83.87 173.48 79.96 173.37 C 76.85 173.09 72.90 173.50 70.14 171.91 C 65.85 169.46 62.38 165.68 60.92 160.89 C 58.68 154.41 58.74 147.86 57.48 141.27 C 56.67 136.48 51.31 133.98 47.90 131.13 C 41.43 125.86 38.58 117.48 39.81 109.29 C 40.35 109.64 40.88 110.00 41.42 110.36 C 41.18 105.75 43.45 102.47 45.37 98.52 C 47.40 94.59 47.37 90.67 48.12 86.39 C 48.52 83.21 49.36 79.83 48.06 76.75 C 46.72 73.46 45.18 70.27 43.92 66.95 C 47.16 70.42 48.82 74.58 50.63 78.88 C 51.50 76.04 52.27 73.17 53.23 70.35 C 57.25 64.19 62.54 59.66 69.25 56.64 C 71.27 56.06 73.31 55.55 75.32 54.93 C 74.19 50.75 72.70 46.97 73.21 42.53 Z" fill="#e4e4e4" />
<path d="M 93.53 65.41 C 97.20 68.21 99.66 72.98 102.04 76.87 C 100.94 78.52 99.76 80.35 99.25 82.27 C 99.12 84.55 99.97 86.92 100.35 89.16 C 100.76 92.27 101.14 95.35 102.00 98.38 C 98.99 97.13 95.77 96.33 92.65 95.39 C 92.00 92.58 91.31 89.78 90.54 87.00 C 89.89 89.84 89.25 92.68 88.61 95.52 C 85.40 96.22 82.19 96.86 78.95 97.32 C 79.70 94.34 80.04 91.32 80.45 88.28 C 81.16 84.15 81.48 81.32 78.76 77.82 C 80.66 73.30 83.34 68.25 87.42 65.35 C 89.42 63.99 91.56 64.00 93.53 65.41 Z" fill="#ffffff" />
<path d="M 68.11 73.12 C 72.09 72.69 75.82 75.45 78.76 77.82 C 81.48 81.32 81.16 84.15 80.45 88.28 C 78.02 84.86 76.20 81.19 71.64 80.40 C 65.53 79.39 60.77 85.26 60.88 91.00 C 60.54 96.42 63.63 101.79 69.26 102.72 C 73.65 103.36 76.32 100.28 78.95 97.32 C 82.19 96.86 85.40 96.22 88.61 95.52 C 89.25 92.68 89.89 89.84 90.54 87.00 C 91.31 89.78 92.00 92.58 92.65 95.39 C 95.77 96.33 98.99 97.13 102.00 98.38 C 104.94 100.95 107.31 103.51 111.62 102.64 C 118.34 101.40 120.98 93.06 118.85 87.22 C 117.33 82.18 112.01 78.82 106.90 80.87 C 103.10 82.35 101.62 85.54 100.35 89.16 C 99.97 86.92 99.12 84.55 99.25 82.27 C 99.76 80.35 100.94 78.52 102.04 76.87 C 105.95 73.69 110.59 71.96 115.62 73.43 C 121.85 75.64 125.39 81.26 126.53 87.56 C 127.52 91.99 126.06 95.62 124.90 99.80 C 124.41 101.17 124.10 103.00 123.06 104.07 C 121.12 105.63 118.38 106.39 116.04 107.13 L 115.24 107.35 C 112.92 107.34 110.45 107.37 108.19 106.78 C 106.31 106.08 104.60 104.76 102.89 103.74 C 100.40 106.29 97.88 108.75 95.10 110.98 C 96.97 112.21 98.81 113.72 101.11 114.01 C 104.38 114.52 106.96 113.24 109.86 112.00 C 111.65 111.58 113.45 111.26 115.26 110.93 C 115.33 112.70 116.06 114.81 115.55 116.50 C 113.76 119.26 110.74 121.33 108.33 123.57 C 105.66 123.11 102.97 123.05 100.26 123.02 C 96.73 122.66 93.52 121.12 90.06 120.56 C 86.65 120.82 83.20 122.79 80.20 124.32 C 86.30 126.24 93.34 125.43 99.64 124.90 L 99.36 125.66 C 94.27 125.85 89.04 125.84 83.94 125.75 C 81.30 125.86 79.38 123.36 76.97 122.91 C 75.52 122.98 74.03 123.32 72.61 123.62 C 70.16 121.46 66.73 119.59 65.04 116.78 C 64.72 114.88 64.94 112.84 65.00 110.92 C 69.36 111.77 73.59 113.81 77.99 114.13 C 80.90 114.29 82.91 112.83 85.18 111.29 C 82.51 108.95 79.77 106.70 76.99 104.49 C 71.54 107.47 65.35 108.26 59.69 105.33 C 57.46 104.12 56.53 102.11 55.41 99.96 C 54.05 95.40 53.29 90.07 54.54 85.42 C 56.45 79.39 61.50 73.74 68.11 73.12 Z" fill="#dcdcdc" />
<path d="M 71.64 80.40 C 76.20 81.19 78.02 84.86 80.45 88.28 C 80.04 91.32 79.70 94.34 78.95 97.32 C 76.32 100.28 73.65 103.36 69.26 102.72 C 63.63 101.79 60.54 96.42 60.88 91.00 C 60.77 85.26 65.53 79.39 71.64 80.40 Z" fill="#9f9f9f" />
<path d="M 118.85 87.22 C 120.98 93.06 118.34 101.40 111.62 102.64 C 107.31 103.51 104.94 100.95 102.00 98.38 C 101.14 95.35 100.76 92.27 100.35 89.16 C 101.62 85.54 103.10 82.35 106.90 80.87 C 112.01 78.82 117.33 82.18 118.85 87.22 Z" fill="#9e9e9e" />
<path d="M 55.41 99.96 C 56.53 102.11 57.46 104.12 59.69 105.33 C 65.35 108.26 71.54 107.47 76.99 104.49 C 79.77 106.70 82.51 108.95 85.18 111.29 C 82.91 112.83 80.90 114.29 77.99 114.13 C 73.59 113.81 69.36 111.77 65.00 110.92 C 64.94 112.84 64.72 114.88 65.04 116.78 C 66.73 119.59 70.16 121.46 72.61 123.62 C 76.38 126.93 80.11 129.84 85.18 130.80 C 90.34 131.67 96.31 131.49 101.05 129.06 C 103.88 127.68 106.03 125.66 108.33 123.57 C 110.74 121.33 113.76 119.26 115.55 116.50 C 116.06 114.81 115.33 112.70 115.26 110.93 C 115.48 109.66 115.77 108.40 116.04 107.13 C 118.38 106.39 121.12 105.63 123.06 104.07 C 124.10 103.00 124.41 101.17 124.90 99.80 C 126.73 100.53 129.02 101.16 130.24 102.77 C 132.72 105.95 133.78 110.52 132.37 114.37 C 130.59 119.44 126.56 123.24 122.31 126.31 C 106.01 138.52 82.44 140.04 64.57 130.44 C 59.06 127.43 53.41 123.42 49.82 118.19 C 47.06 114.09 46.04 109.10 48.63 104.63 C 50.11 101.80 52.64 101.03 55.41 99.96 Z" fill="#ffffff" />
<path d="M 102.89 103.74 C 104.60 104.76 106.31 106.08 108.19 106.78 C 110.45 107.37 112.92 107.34 115.24 107.35 C 113.36 108.81 111.65 110.44 109.86 112.00 C 106.96 113.24 104.38 114.52 101.11 114.01 C 98.81 113.72 96.97 112.21 95.10 110.98 C 97.88 108.75 100.40 106.29 102.89 103.74 Z" fill="#ffffff" />
<path d="M 115.24 107.35 L 116.04 107.13 C 115.77 108.40 115.48 109.66 115.26 110.93 C 113.45 111.26 111.65 111.58 109.86 112.00 C 111.65 110.44 113.36 108.81 115.24 107.35 Z" fill="#aeaeae" />
<path d="M 138.56 117.79 C 145.72 123.72 148.05 132.07 148.59 141.04 C 150.39 139.47 152.56 137.85 153.58 135.64 C 154.89 132.83 155.68 129.77 156.75 126.86 C 157.17 130.49 157.74 134.07 156.55 137.61 C 155.11 141.71 151.58 144.77 150.22 149.11 C 148.73 153.39 148.66 157.85 144.98 160.98 C 138.44 166.51 129.49 166.88 121.37 167.49 C 117.23 167.73 114.15 169.76 110.55 171.48 C 106.94 173.23 103.24 173.00 99.36 173.58 C 96.40 174.00 93.62 175.57 90.66 176.34 C 90.38 174.89 90.10 173.45 89.82 172.00 C 84.14 172.21 77.87 172.41 72.40 170.72 C 69.09 169.80 66.85 167.64 64.70 165.09 C 65.11 164.49 65.52 163.90 65.93 163.30 C 69.17 165.07 72.23 166.75 75.97 167.22 C 80.02 167.85 83.80 167.18 87.78 166.51 C 87.46 162.95 87.04 159.40 86.75 155.83 C 89.41 156.74 91.25 156.90 93.94 156.04 C 93.78 159.59 93.58 163.13 93.36 166.67 C 99.57 167.76 107.87 168.25 113.10 164.10 C 118.22 160.15 118.55 153.14 119.57 147.27 C 124.51 147.25 129.31 143.47 133.39 140.98 C 131.38 139.74 129.32 138.25 126.93 137.90 C 124.70 137.56 122.22 138.25 120.03 138.73 C 120.33 136.94 120.16 134.00 121.93 132.99 C 125.29 130.54 129.09 129.16 132.23 126.24 C 135.01 123.75 136.39 120.70 138.56 117.79 Z" fill="#d6d6d6" />
<path d="M 90.06 120.56 C 93.52 121.12 96.73 122.66 100.26 123.02 L 99.64 124.90 C 93.34 125.43 86.30 126.24 80.20 124.32 C 83.20 122.79 86.65 120.82 90.06 120.56 Z" fill="#ffffff" />
<path d="M 49.88 126.15 C 52.95 128.71 56.36 130.40 59.82 132.39 C 59.64 134.16 59.47 135.94 59.29 137.71 C 53.74 132.23 47.43 130.00 43.89 122.65 C 46.55 122.84 47.90 124.62 49.88 126.15 Z" fill="#cecece" />
<path d="M 76.97 122.91 C 79.38 123.36 81.30 125.86 83.94 125.75 C 89.04 125.84 94.27 125.85 99.36 125.66 L 99.64 124.90 L 100.26 123.02 C 102.97 123.05 105.66 123.11 108.33 123.57 C 106.03 125.66 103.88 127.68 101.05 129.06 C 96.31 131.49 90.34 131.67 85.18 130.80 C 80.11 129.84 76.38 126.93 72.61 123.62 C 74.03 123.32 75.52 122.98 76.97 122.91 Z" fill="#9d9d9d" />
<path d="M 66.04 136.11 C 70.77 137.01 75.28 138.31 80.09 138.84 C 86.36 139.53 92.74 139.57 99.03 139.01 C 104.54 138.53 109.58 137.06 115.00 136.04 C 110.64 145.43 102.12 150.42 93.94 156.04 C 91.25 156.90 89.41 156.74 86.75 155.83 C 79.12 150.84 70.06 144.55 66.04 136.11 Z" fill="#ffffff" />
<path d="M 126.93 137.90 C 129.32 138.25 131.38 139.74 133.39 140.98 C 129.31 143.47 124.51 147.25 119.57 147.27 C 119.83 144.42 119.89 141.58 120.03 138.73 C 122.22 138.25 124.70 137.56 126.93 137.90 Z" fill="#c7c7c7" /></svg>