<?xml version="1.0" encoding="UTF-8" standalone="no"?>
<!DOCTYPE svg PUBLIC "-//W3C//DTD SVG 1.1//EN" "http://www.w3.org/Graphics/SVG/1.1/DTD/svg11.dtd">
<svg viewBox="0 0 192 192" height="192.0pt" width="192.0pt" xmlns="http://www.w3.org/2000/svg" version="1.1">
<path d="M 168.43 14.05 C 175.72 18.63 177.21 26.04 179.33 33.78 C 181.83 43.31 181.01 52.29 181.09 62.00 C 181.11 99.36 181.06 136.70 181.13 174.06 C 181.09 178.24 180.05 182.04 176.05 184.03 C 172.14 185.63 167.16 185.09 163.00 185.15 C 154.68 184.91 146.33 185.39 138.02 184.94 C 134.90 184.67 130.54 184.14 128.29 181.73 C 125.55 177.75 125.66 171.27 122.30 167.73 C 118.73 164.74 112.50 164.84 108.11 165.19 C 98.81 166.01 93.14 172.72 83.90 173.90 C 75.17 175.11 68.31 171.94 60.10 169.98 C 53.94 168.41 47.56 168.14 41.40 166.63 C 37.60 165.68 33.76 163.65 32.12 159.89 C 31.06 156.81 31.16 153.27 30.61 150.06 C 29.90 145.06 27.32 141.13 27.13 135.98 C 26.82 130.39 27.69 125.51 24.51 120.52 C 16.80 107.71 12.94 93.49 11.22 78.73 C 10.56 71.89 11.34 63.60 16.66 58.62 C 19.01 56.31 22.26 56.45 25.31 56.13 C 25.48 56.43 25.64 56.72 25.81 57.02 C 28.18 58.01 30.39 58.86 31.95 61.05 C 36.52 67.16 40.22 74.03 45.05 79.96 C 46.82 82.21 49.20 83.28 51.68 84.56 C 51.92 80.05 51.32 74.98 52.67 70.65 C 54.28 67.64 57.69 65.60 59.76 62.86 C 58.15 58.33 55.35 54.42 54.26 49.64 C 52.34 41.77 51.16 33.25 52.26 25.19 C 52.50 22.46 54.30 21.45 56.30 19.97 C 53.56 34.68 54.32 49.39 62.98 62.06 C 64.49 64.39 66.77 65.01 69.25 65.86 C 72.56 66.90 75.85 67.93 79.04 69.30 C 83.38 71.43 87.51 73.00 89.40 77.85 C 88.18 82.52 88.07 88.81 83.86 91.87 C 79.92 94.96 73.53 95.19 68.73 96.02 C 69.09 101.07 70.20 106.59 69.34 111.60 C 68.44 115.81 66.77 119.82 65.71 124.00 C 59.95 127.94 53.16 131.50 45.99 131.25 C 41.12 131.00 37.50 128.10 34.67 124.36 C 26.87 113.76 21.21 101.64 18.09 88.85 C 16.29 81.88 15.89 74.77 14.38 67.74 C 12.67 80.66 15.88 94.42 20.53 106.45 C 22.64 112.07 25.66 117.18 28.46 122.46 C 31.29 127.64 29.47 132.75 30.59 138.89 C 30.73 139.35 30.89 139.82 31.07 140.28 C 32.25 143.63 33.68 146.87 35.10 150.13 C 34.67 153.56 33.25 157.08 36.07 159.90 C 40.31 164.40 48.78 164.61 54.54 165.66 C 63.17 166.75 71.39 170.76 80.01 171.23 C 90.67 171.21 96.63 162.74 107.04 162.26 C 112.24 162.00 118.99 161.65 123.59 164.46 C 127.21 166.86 128.59 172.58 130.15 176.42 L 130.39 177.11 C 131.34 178.83 132.06 180.47 134.17 180.97 C 139.81 182.56 146.18 182.35 152.00 182.39 C 157.66 182.29 163.36 182.65 169.01 182.26 C 171.57 182.00 174.72 181.58 176.32 179.30 C 178.09 176.77 178.28 173.02 178.40 170.03 C 178.30 133.06 178.36 95.99 178.36 59.00 C 178.59 52.41 178.65 46.06 176.65 39.69 C 174.53 30.86 173.11 22.23 167.40 14.85 L 168.43 14.05 Z" fill="#f5f5f5" />
<path d="M 167.40 14.85 C 173.11 22.23 174.53 30.86 176.65 39.69 C 176.38 45.94 176.14 51.97 172.06 57.06 C 167.98 62.28 162.15 63.97 155.84 64.84 C 150.56 65.48 145.84 66.65 140.94 68.72 C 142.40 71.74 143.83 74.77 145.17 77.84 C 144.06 77.58 142.95 77.30 141.85 77.01 C 138.65 75.20 135.87 73.38 132.00 73.70 C 125.53 73.75 120.63 80.41 115.25 83.66 C 108.75 83.58 102.43 83.90 96.39 86.56 L 94.73 87.11 C 96.09 88.64 97.42 90.16 98.86 91.61 C 96.49 95.38 94.71 99.31 90.77 101.67 C 88.32 103.41 84.77 104.68 83.63 107.60 C 81.84 111.30 80.90 115.04 78.39 118.42 C 75.98 121.68 72.48 123.85 69.17 126.08 C 68.01 125.38 66.86 124.69 65.71 124.00 C 66.77 119.82 68.44 115.81 69.34 111.60 C 70.20 106.59 69.09 101.07 68.73 96.02 C 73.53 95.19 79.92 94.96 83.86 91.87 C 88.07 88.81 88.18 82.52 89.40 77.85 C 90.49 76.45 91.66 75.17 92.85 73.85 C 94.07 76.53 95.25 79.23 96.43 81.93 C 100.29 80.09 104.42 78.36 107.93 75.89 C 112.47 72.73 114.23 66.84 118.30 63.28 C 120.91 60.99 124.75 60.53 128.03 59.85 C 128.02 62.24 128.13 64.66 128.22 67.05 C 130.70 64.66 133.16 61.98 136.01 60.05 C 141.37 56.55 148.55 55.45 153.69 51.68 C 159.67 46.64 164.36 40.30 165.24 32.31 C 160.53 34.06 156.16 36.42 151.70 38.69 C 147.81 40.70 143.55 41.77 139.64 43.70 C 136.25 45.41 133.74 47.89 131.14 50.58 C 128.93 52.31 126.49 53.44 123.97 54.63 C 123.81 47.98 125.40 41.98 130.18 37.18 C 137.50 29.54 147.23 29.04 155.95 23.89 C 160.25 21.40 163.63 18.01 167.40 14.85 Z" fill="#c6c6c6" />
<path d="M 57.35 17.07 C 60.04 22.55 61.50 30.71 66.37 34.62 C 71.79 38.87 79.59 36.71 85.83 35.92 C 88.25 35.77 90.64 35.77 93.07 35.77 C 90.33 47.73 86.08 59.18 79.04 69.30 C 75.85 67.93 72.56 66.90 69.25 65.86 C 65.81 59.11 61.06 54.98 59.06 47.89 C 56.43 38.72 56.84 28.34 56.69 18.85 C 56.90 18.25 57.12 17.66 57.35 17.07 Z" fill="#c8c8c8" />
<path d="M 56.69 18.85 C 56.84 28.34 56.43 38.72 59.06 47.89 C 61.06 54.98 65.81 59.11 69.25 65.86 C 66.77 65.01 64.49 64.39 62.98 62.06 C 54.32 49.39 53.56 34.68 56.30 19.97 L 56.69 18.85 Z" fill="#dedede" />
<path d="M 155.95 23.89 C 147.23 29.04 137.50 29.54 130.18 37.18 C 125.40 41.98 123.81 47.98 123.97 54.63 C 126.49 53.44 128.93 52.31 131.14 50.58 C 129.75 53.54 128.68 56.64 128.03 59.85 C 124.75 60.53 120.91 60.99 118.30 63.28 C 114.23 66.84 112.47 72.73 107.93 75.89 C 104.42 78.36 100.29 80.09 96.43 81.93 C 95.25 79.23 94.07 76.53 92.85 73.85 C 91.66 75.17 90.49 76.45 89.40 77.85 C 87.51 73.00 83.38 71.43 79.04 69.30 C 86.08 59.18 90.33 47.73 93.07 35.77 C 90.64 35.77 88.25 35.77 85.83 35.92 C 94.14 35.29 98.55 28.50 106.51 27.31 C 117.47 25.08 128.52 26.39 139.55 24.19 C 145.16 23.01 150.30 22.75 155.95 23.89 Z" fill="#e1e1e1" />
<path d="M 165.24 32.31 C 164.36 40.30 159.67 46.64 153.69 51.68 C 148.55 55.45 141.37 56.55 136.01 60.05 C 133.16 61.98 130.70 64.66 128.22 67.05 C 128.13 64.66 128.02 62.24 128.03 59.85 C 128.68 56.64 129.75 53.54 131.14 50.58 C 133.74 47.89 136.25 45.41 139.64 43.70 C 143.55 41.77 147.81 40.70 151.70 38.69 C 156.16 36.42 160.53 34.06 165.24 32.31 Z" fill="#8f8f8f" />
<path d="M 176.65 39.69 C 178.65 46.06 178.59 52.41 178.36 59.00 C 178.36 95.99 178.30 133.06 178.40 170.03 C 178.28 173.02 178.09 176.77 176.32 179.30 C 174.72 181.58 171.57 182.00 169.01 182.26 C 163.36 182.65 157.66 182.29 152.00 182.39 C 146.18 182.35 139.81 182.56 134.17 180.97 C 132.06 180.47 131.34 178.83 130.39 177.11 C 136.80 179.63 143.17 180.13 150.00 179.83 C 159.40 179.36 167.70 181.33 176.21 177.69 C 167.85 176.87 159.46 177.50 151.03 177.11 C 150.61 160.92 154.24 145.21 160.36 130.31 C 162.25 126.01 162.98 121.60 163.16 116.94 C 155.79 124.20 149.64 131.87 141.07 138.12 C 139.16 139.52 137.00 140.01 134.73 140.48 C 139.03 136.98 143.46 133.28 146.90 128.90 C 150.11 124.80 151.88 120.17 153.35 115.23 C 153.51 114.71 153.67 114.20 153.84 113.69 C 156.29 113.76 158.68 113.69 161.13 113.46 C 159.95 109.81 158.79 104.82 155.76 102.26 C 153.27 100.17 150.03 101.13 147.43 102.43 C 141.84 105.36 138.90 110.13 135.73 115.33 C 137.59 115.46 139.45 115.59 141.32 115.73 C 133.41 124.95 124.97 132.93 115.33 140.32 C 111.26 143.49 107.12 146.54 103.39 150.13 C 101.95 145.22 100.61 139.56 97.54 135.40 C 95.43 132.69 92.34 133.37 89.59 134.53 C 84.45 136.94 79.93 140.64 75.03 143.52 C 67.71 139.43 60.05 133.96 51.83 132.03 C 44.83 131.24 36.99 136.39 30.59 138.89 C 29.47 132.75 31.29 127.64 28.46 122.46 C 25.66 117.18 22.64 112.07 20.53 106.45 C 15.88 94.42 12.67 80.66 14.38 67.74 C 15.89 74.77 16.29 81.88 18.09 88.85 C 21.21 101.64 26.87 113.76 34.67 124.36 C 37.50 128.10 41.12 131.00 45.99 131.25 C 53.16 131.50 59.95 127.94 65.71 124.00 C 66.86 124.69 68.01 125.38 69.17 126.08 C 72.48 123.85 75.98 121.68 78.39 118.42 C 80.90 115.04 81.84 111.30 83.63 107.60 C 84.77 104.68 88.32 103.41 90.77 101.67 C 94.71 99.31 96.49 95.38 98.86 91.61 C 103.46 96.48 109.48 97.93 114.80 101.97 C 114.99 104.08 115.18 106.18 115.37 108.29 C 123.23 106.23 129.63 101.87 135.99 97.00 C 137.98 95.49 138.55 93.43 139.50 91.24 C 137.37 90.83 135.27 90.40 133.11 90.19 C 132.82 89.02 132.52 87.85 132.22 86.68 C 134.62 85.77 137.13 84.20 139.76 85.11 C 144.64 86.48 149.21 88.77 154.11 90.13 C 150.26 85.54 145.89 81.44 141.85 77.01 C 142.95 77.30 144.06 77.58 145.17 77.84 C 143.83 74.77 142.40 71.74 140.94 68.72 C 145.84 66.65 150.56 65.48 155.84 64.84 C 162.15 63.97 167.98 62.28 172.06 57.06 C 176.14 51.97 176.38 45.94 176.65 39.69 Z" fill="#e0e0e0" />
<path d="M 54.44 72.74 C 56.79 78.12 58.51 83.67 59.73 89.41 C 58.24 88.41 55.63 87.67 55.28 85.72 C 54.08 81.67 54.34 76.93 54.44 72.74 Z" fill="#dfdfdf" />
<path d="M 132.00 73.70 C 135.87 73.38 138.65 75.20 141.85 77.01 C 145.89 81.44 150.26 85.54 154.11 90.13 C 149.21 88.77 144.64 86.48 139.76 85.11 C 137.13 84.20 134.62 85.77 132.22 86.68 C 132.52 87.85 132.82 89.02 133.11 90.19 C 126.08 91.97 119.40 96.37 114.80 101.97 C 109.48 97.93 103.46 96.48 98.86 91.61 C 97.42 90.16 96.09 88.64 94.73 87.11 L 96.39 86.56 C 99.40 87.27 102.73 88.65 105.85 88.47 C 109.22 87.82 112.40 85.49 115.25 83.66 C 120.63 80.41 125.53 73.75 132.00 73.70 Z" fill="#8f8f8f" />
<path d="M 115.25 83.66 C 112.40 85.49 109.22 87.82 105.85 88.47 C 102.73 88.65 99.40 87.27 96.39 86.56 C 102.43 83.90 108.75 83.58 115.25 83.66 Z" fill="#e1e1e1" />
<path d="M 133.11 90.19 C 135.27 90.40 137.37 90.83 139.50 91.24 C 138.55 93.43 137.98 95.49 135.99 97.00 C 129.63 101.87 123.23 106.23 115.37 108.29 C 115.18 106.18 114.99 104.08 114.80 101.97 C 119.40 96.37 126.08 91.97 133.11 90.19 Z" fill="#c5c5c5" />
<path d="M 155.76 102.26 C 158.79 104.82 159.95 109.81 161.13 113.46 C 158.68 113.69 156.29 113.76 153.84 113.69 C 153.67 114.20 153.51 114.71 153.35 115.23 C 153.31 114.04 153.25 112.86 153.19 111.67 C 148.86 112.35 144.84 112.90 141.32 115.73 C 139.45 115.59 137.59 115.46 135.73 115.33 C 138.90 110.13 141.84 105.36 147.43 102.43 C 150.03 101.13 153.27 100.17 155.76 102.26 Z" fill="#c4c4c4" />
<path d="M 153.19 111.67 C 153.25 112.86 153.31 114.04 153.35 115.23 C 151.88 120.17 150.11 124.80 146.90 128.90 C 143.46 133.28 139.03 136.98 134.73 140.48 C 125.41 146.98 115.39 152.15 105.10 156.93 C 104.54 154.66 103.99 152.39 103.39 150.13 C 107.12 146.54 111.26 143.49 115.33 140.32 C 124.97 132.93 133.41 124.95 141.32 115.73 C 144.84 112.90 148.86 112.35 153.19 111.67 Z" fill="#8c8c8c" />
<path d="M 163.16 116.94 C 162.98 121.60 162.25 126.01 160.36 130.31 C 154.24 145.21 150.61 160.92 151.03 177.11 C 159.46 177.50 167.85 176.87 176.21 177.69 C 167.70 181.33 159.40 179.36 150.00 179.83 C 143.17 180.13 136.80 179.63 130.39 177.11 L 130.15 176.42 C 129.94 171.67 129.69 167.51 125.79 164.20 C 119.52 159.08 109.78 159.03 102.37 161.34 C 94.80 163.45 89.91 168.48 82.02 168.87 C 72.34 169.61 65.17 165.41 55.88 164.03 C 49.25 162.84 43.25 163.18 37.51 159.06 C 44.39 158.28 51.05 160.02 58.06 161.16 C 65.40 162.35 72.69 166.08 80.01 166.17 C 86.75 166.19 92.17 163.12 97.34 159.13 C 93.58 158.89 89.81 158.77 86.05 158.64 C 87.43 157.82 88.81 157.00 90.24 156.26 C 94.26 155.35 96.37 154.23 99.30 151.37 C 96.94 148.81 94.69 145.57 91.71 143.72 C 88.09 144.24 84.62 145.56 80.98 146.06 C 76.45 146.81 72.14 147.56 67.57 146.57 C 59.74 144.91 51.91 143.29 44.03 141.88 C 40.83 141.28 37.65 141.41 34.44 141.78 C 33.31 141.29 32.18 140.80 31.07 140.28 C 30.89 139.82 30.73 139.35 30.59 138.89 C 36.99 136.39 44.83 131.24 51.83 132.03 C 60.05 133.96 67.71 139.43 75.03 143.52 C 79.93 140.64 84.45 136.94 89.59 134.53 C 92.34 133.37 95.43 132.69 97.54 135.40 C 100.61 139.56 101.95 145.22 103.39 150.13 C 103.99 152.39 104.54 154.66 105.10 156.93 C 115.39 152.15 125.41 146.98 134.73 140.48 C 137.00 140.01 139.16 139.52 141.07 138.12 C 149.64 131.87 155.79 124.20 163.16 116.94 Z" fill="#c4c4c4" />
<path d="M 31.07 140.28 C 32.18 140.80 33.31 141.29 34.44 141.78 C 37.65 141.41 40.83 141.28 44.03 141.88 C 51.91 143.29 59.74 144.91 67.57 146.57 C 72.14 147.56 76.45 146.81 80.98 146.06 C 80.30 148.48 78.25 152.22 79.14 154.63 C 81.48 158.75 86.60 156.54 90.24 156.26 C 88.81 157.00 87.43 157.82 86.05 158.64 C 89.81 158.77 93.58 158.89 97.34 159.13 C 92.17 163.12 86.75 166.19 80.01 166.17 C 72.69 166.08 65.40 162.35 58.06 161.16 C 51.05 160.02 44.39 158.28 37.51 159.06 C 43.25 163.18 49.25 162.84 55.88 164.03 C 65.17 165.41 72.34 169.61 82.02 168.87 C 89.91 168.48 94.80 163.45 102.37 161.34 C 109.78 159.03 119.52 159.08 125.79 164.20 C 129.69 167.51 129.94 171.67 130.15 176.42 C 128.59 172.58 127.21 166.86 123.59 164.46 C 118.99 161.65 112.24 162.00 107.04 162.26 C 96.63 162.74 90.67 171.21 80.01 171.23 C 71.39 170.76 63.17 166.75 54.54 165.66 C 48.78 164.61 40.31 164.40 36.07 159.90 C 33.25 157.08 34.67 153.56 35.10 150.13 C 33.68 146.87 32.25 143.63 31.07 140.28 Z" fill="#e0e0e0" />
<path d="M 91.71 143.72 C 94.69 145.57 96.94 148.81 99.30 151.37 C 96.37 154.23 94.26 155.35 90.24 156.26 C 86.60 156.54 81.48 158.75 79.14 154.63 C 78.25 152.22 80.30 148.48 80.98 146.06 C 84.62 145.56 88.09 144.24 91.71 143.72 Z" fill="#8d8d8d" />
<path d="M 100.33 154.11 C 102.42 153.13 103.14 156.17 104.34 157.35 C 102.95 156.42 99.57 156.40 100.33 154.11 Z" fill="#979797" /></svg>