<?xml version="1.0" encoding="UTF-8" standalone="no"?>
<!DOCTYPE svg PUBLIC "-//W3C//DTD SVG 1.1//EN" "http://www.w3.org/Graphics/SVG/1.1/DTD/svg11.dtd">
<svg viewBox="0 0 192 192" height="192.0pt" width="192.0pt" xmlns="http://www.w3.org/2000/svg" version="1.1">
<path d="M 80.72 20.26 C 86.84 24.57 90.59 30.61 93.20 37.51 C 95.20 37.14 97.20 36.76 99.21 36.39 C 102.76 27.37 109.19 19.88 118.37 16.37 C 128.15 12.99 139.76 14.50 147.83 21.18 C 158.40 29.60 164.08 45.43 159.43 58.41 C 156.89 65.98 151.33 72.43 144.21 76.07 C 141.93 77.38 139.03 78.45 137.24 80.41 C 135.74 82.51 137.04 85.12 137.79 87.25 C 145.29 104.76 148.85 123.79 147.15 142.83 C 146.46 148.09 144.14 153.06 142.88 158.24 C 141.94 162.61 138.22 165.44 134.25 166.99 C 131.07 168.20 128.21 169.73 125.35 171.55 C 122.71 173.22 119.98 173.10 116.98 173.56 C 116.62 175.58 116.63 178.53 115.14 180.07 C 113.26 181.78 110.00 181.52 107.64 181.42 C 97.78 180.53 87.88 179.93 77.99 179.74 C 67.62 179.61 56.22 178.28 47.20 172.79 C 40.73 169.10 35.12 164.72 32.66 157.39 C 30.44 151.49 32.62 145.36 34.75 139.78 C 36.58 135.10 39.85 131.77 42.80 127.85 C 44.80 125.20 45.01 121.99 45.50 118.81 C 46.84 108.24 49.64 97.89 54.11 88.21 C 54.85 86.16 56.59 82.79 55.35 80.72 C 53.41 78.61 50.27 77.44 47.79 76.04 C 39.49 71.83 33.39 63.73 31.62 54.59 C 28.94 39.93 36.74 23.73 50.39 17.39 C 59.85 12.98 72.29 14.01 80.72 20.26 Z" fill="#cecece" />
<path d="M 57.32 25.39 C 63.74 24.14 70.99 24.63 76.47 28.52 C 80.49 31.09 83.01 34.81 85.34 38.86 C 78.30 43.73 72.11 49.23 67.58 56.58 C 64.20 61.11 62.65 67.11 58.81 71.18 C 48.27 70.06 39.66 59.45 39.64 49.02 C 38.97 38.25 46.89 27.85 57.32 25.39 Z" fill="#ececec" />
<path d="M 132.01 25.00 C 143.28 26.05 152.56 36.72 152.33 47.99 C 152.90 58.63 144.06 70.13 133.24 71.05 C 130.66 68.22 129.04 64.20 127.10 60.89 C 124.57 56.55 121.76 52.31 118.62 48.38 C 115.26 44.26 111.05 41.74 106.70 38.83 C 108.91 35.01 111.23 31.47 114.96 28.94 C 119.94 25.23 125.95 24.40 132.01 25.00 Z" fill="#ebebeb" />
<path d="M 73.25 68.23 C 77.89 67.03 83.64 67.43 87.56 70.44 C 93.56 74.86 95.12 83.35 91.86 89.89 C 89.90 93.78 85.74 96.13 82.00 98.04 C 75.31 98.42 70.91 96.96 65.86 92.64 C 64.10 89.27 62.76 85.88 62.83 82.01 C 62.84 75.92 67.46 69.98 73.25 68.23 Z" fill="#ffffff" />
<path d="M 119.54 68.48 C 125.28 70.67 129.56 76.79 129.18 83.00 C 129.04 86.36 127.66 89.26 126.07 92.15 C 123.94 93.95 121.66 95.97 119.03 96.98 C 116.18 98.02 113.01 98.06 110.01 98.04 C 106.70 96.35 103.03 94.27 100.89 91.14 C 97.01 85.07 97.89 76.20 103.36 71.36 C 107.59 67.39 114.21 66.80 119.54 68.48 Z" fill="#ffffff" />
<path d="M 75.44 71.38 C 81.64 69.70 88.58 73.96 89.79 80.31 C 91.31 87.31 85.18 94.46 78.02 93.98 C 71.48 93.92 66.21 88.61 66.61 81.99 C 66.61 76.62 70.46 72.73 75.44 71.38 Z" fill="#939393" />
<path d="M 111.36 71.26 C 118.20 69.71 125.20 74.90 125.41 81.99 C 125.98 87.86 121.46 92.87 115.86 93.85 C 109.77 95.01 103.46 90.78 102.18 84.74 C 101.04 78.64 105.27 72.46 111.36 71.26 Z" fill="#909090" />
<path d="M 126.07 92.15 C 128.15 93.46 130.51 94.99 131.95 97.02 C 133.90 99.96 133.28 104.35 130.74 106.76 C 125.50 111.68 116.65 111.58 111.61 106.44 C 109.46 104.42 110.12 100.72 110.01 98.04 C 113.01 98.06 116.18 98.02 119.03 96.98 C 121.66 95.97 123.94 93.95 126.07 92.15 Z" fill="#ebebeb" />
<path d="M 65.86 92.64 C 70.91 96.96 75.31 98.42 82.00 98.04 C 81.91 100.85 82.64 104.28 80.41 106.45 C 75.49 111.64 66.36 111.71 61.25 106.78 C 58.73 104.25 58.00 100.07 60.11 97.06 C 61.55 95.20 63.91 93.91 65.86 92.64 Z" fill="#ebebeb" />
<path d="M 102.30 96.68 C 104.94 97.46 107.45 99.04 107.66 102.05 C 107.38 104.98 105.02 107.89 103.51 110.35 C 103.88 111.64 104.28 112.92 104.70 114.19 C 102.43 115.47 100.17 116.88 97.75 117.87 C 94.73 119.12 91.35 118.84 88.11 118.93 C 88.92 116.63 90.08 114.50 90.90 112.21 C 88.53 109.58 85.01 106.38 84.37 102.77 C 84.04 99.84 86.44 97.82 88.98 96.94 C 93.13 95.57 98.08 95.57 102.30 96.68 Z" fill="#909090" /></svg>