<?xml version="1.0" encoding="UTF-8" standalone="no"?>
<!DOCTYPE svg PUBLIC "-//W3C//DTD SVG 1.1//EN" "http://www.w3.org/Graphics/SVG/1.1/DTD/svg11.dtd">
<svg viewBox="0 0 192 192" height="192.0pt" width="192.0pt" xmlns="http://www.w3.org/2000/svg" version="1.1">
<path d="M 92.07 21.91 C 97.93 25.59 101.55 31.08 104.48 37.21 C 107.73 37.72 110.99 38.22 114.25 38.71 C 111.25 38.60 108.25 38.74 105.27 39.08 C 105.29 42.48 105.61 45.88 105.25 49.23 C 104.23 58.49 98.52 66.95 90.25 71.28 C 84.93 74.22 79.30 74.30 73.40 74.56 C 71.97 77.23 69.37 80.65 69.54 83.77 C 71.07 88.60 75.91 92.92 76.86 97.99 C 76.27 100.77 74.43 103.40 73.06 105.87 C 71.33 103.32 69.61 98.61 65.97 98.66 C 62.70 98.33 60.30 100.18 59.02 103.06 C 56.92 107.29 58.25 113.27 62.38 115.76 C 64.88 117.41 68.58 115.33 71.11 114.54 C 71.61 118.69 72.14 122.83 72.60 126.98 C 70.14 128.00 66.58 128.74 65.20 131.23 C 61.88 136.54 62.64 144.52 66.92 149.09 C 69.73 151.87 73.94 151.34 76.42 148.42 C 79.13 145.36 79.27 140.53 79.60 136.64 C 83.96 137.12 87.67 136.91 91.92 135.81 C 92.84 137.40 93.75 139.00 94.66 140.59 C 92.17 141.86 89.09 143.11 87.20 145.22 C 83.25 149.93 84.82 157.85 89.89 161.11 C 93.49 163.14 98.73 162.76 101.55 159.53 C 103.70 157.25 104.11 153.30 104.79 150.34 C 107.74 151.41 110.89 152.79 114.02 153.03 C 116.35 152.95 118.73 152.05 120.96 151.39 C 124.86 153.63 128.31 156.09 133.01 156.13 C 139.33 156.29 144.01 153.08 149.88 151.26 C 152.05 150.45 154.29 150.07 155.80 148.20 C 157.85 145.79 159.77 143.28 161.87 140.92 C 165.66 136.65 167.19 131.40 169.49 126.26 C 171.40 121.80 173.87 117.92 175.35 113.24 C 177.75 105.74 178.05 98.22 177.85 90.41 C 180.00 96.19 179.63 101.89 179.11 107.92 C 178.38 114.46 175.77 119.97 172.96 125.80 C 170.95 129.87 169.32 134.10 167.27 138.14 C 164.44 143.85 159.42 147.82 156.38 153.45 C 159.57 156.65 162.81 159.40 163.70 164.08 C 164.12 166.38 164.45 169.78 162.52 171.49 C 159.65 174.29 154.80 174.91 151.00 175.38 C 136.31 176.82 121.58 177.59 106.89 179.04 C 99.41 179.82 91.96 178.91 84.49 179.78 C 76.65 180.75 68.92 179.15 60.97 179.26 C 52.71 178.73 42.06 177.24 36.11 170.89 C 26.74 161.00 22.71 148.85 19.94 135.78 C 18.45 128.83 18.48 122.08 18.46 115.00 C 18.42 109.86 20.14 104.54 21.29 99.50 C 24.02 91.14 27.34 83.17 33.29 76.54 C 24.53 71.95 16.55 66.07 13.64 56.13 C 10.93 47.72 13.80 39.52 18.36 32.41 C 23.21 24.94 32.15 20.34 41.02 20.57 C 45.17 20.69 48.62 22.18 52.44 23.54 C 54.08 24.03 55.55 24.77 57.21 23.91 C 61.26 21.91 64.61 19.20 69.11 18.06 C 76.99 15.78 85.25 17.57 92.07 21.91 Z" fill="#e0e0e0" />
<path d="M 78.42 24.58 C 86.81 27.09 93.19 34.82 94.48 43.43 C 95.84 52.16 91.69 61.47 84.37 66.39 C 78.03 70.95 69.01 71.35 62.08 67.96 C 57.63 65.77 54.84 62.22 51.75 58.51 C 49.84 61.19 48.29 63.73 45.22 65.23 C 39.62 68.01 32.47 68.08 26.95 65.05 C 19.44 61.03 15.19 52.59 16.20 44.15 C 17.31 33.89 26.47 25.25 37.00 25.92 C 42.44 25.95 46.63 28.56 50.62 31.97 C 50.25 33.04 49.88 34.12 49.53 35.20 C 45.93 32.83 42.59 30.75 38.07 31.25 C 29.80 31.81 23.67 39.75 24.36 47.86 C 24.91 55.78 31.86 62.61 39.99 62.00 C 44.19 62.01 47.09 59.82 50.27 57.43 C 49.64 52.86 48.13 47.69 48.95 43.14 C 50.37 36.40 54.65 30.12 60.62 26.61 C 65.88 23.48 72.58 22.89 78.42 24.58 Z" fill="#fefefe" />
<path d="M 70.43 30.47 C 74.47 29.15 78.98 29.35 82.82 31.20 C 88.69 34.18 92.50 40.38 92.19 47.01 C 92.52 55.93 84.91 63.94 75.99 64.07 C 67.17 64.24 59.57 56.64 59.18 47.93 C 58.59 40.47 63.28 32.88 70.43 30.47 Z" fill="#959595" />
<path d="M 38.07 31.25 C 42.59 30.75 45.93 32.83 49.53 35.20 C 47.33 42.36 47.39 50.46 50.27 57.43 C 47.09 59.82 44.19 62.01 39.99 62.00 C 31.86 62.61 24.91 55.78 24.36 47.86 C 23.67 39.75 29.80 31.81 38.07 31.25 Z" fill="#979797" />
<path d="M 105.27 39.08 C 108.25 38.74 111.25 38.60 114.25 38.71 C 124.73 40.33 135.49 44.43 143.59 51.41 C 147.04 54.28 149.32 58.36 152.84 61.09 C 156.76 63.67 161.13 65.06 164.72 68.26 C 171.71 74.11 175.20 81.90 177.85 90.41 C 178.05 98.22 177.75 105.74 175.35 113.24 C 173.87 117.92 171.40 121.80 169.49 126.26 C 167.19 131.40 165.66 136.65 161.87 140.92 C 159.77 143.28 157.85 145.79 155.80 148.20 C 154.29 150.07 152.05 150.45 149.88 151.26 C 144.01 153.08 139.33 156.29 133.01 156.13 C 128.31 156.09 124.86 153.63 120.96 151.39 C 118.73 152.05 116.35 152.95 114.02 153.03 C 110.89 152.79 107.74 151.41 104.79 150.34 C 104.11 153.30 103.70 157.25 101.55 159.53 C 98.73 162.76 93.49 163.14 89.89 161.11 C 84.82 157.85 83.25 149.93 87.20 145.22 C 89.09 143.11 92.17 141.86 94.66 140.59 C 93.75 139.00 92.84 137.40 91.92 135.81 C 87.67 136.91 83.96 137.12 79.60 136.64 C 79.27 140.53 79.13 145.36 76.42 148.42 C 73.94 151.34 69.73 151.87 66.92 149.09 C 62.64 144.52 61.88 136.54 65.20 131.23 C 66.58 128.74 70.14 128.00 72.60 126.98 C 72.14 122.83 71.61 118.69 71.11 114.54 C 68.58 115.33 64.88 117.41 62.38 115.76 C 58.25 113.27 56.92 107.29 59.02 103.06 C 60.30 100.18 62.70 98.33 65.97 98.66 C 69.61 98.61 71.33 103.32 73.06 105.87 C 74.43 103.40 76.27 100.77 76.86 97.99 C 75.91 92.92 71.07 88.60 69.54 83.77 C 69.37 80.65 71.97 77.23 73.40 74.56 C 79.30 74.30 84.93 74.22 90.25 71.28 C 98.52 66.95 104.23 58.49 105.25 49.23 C 105.61 45.88 105.29 42.48 105.27 39.08 Z" fill="#c9c9c9" />
<path d="M 138.79 58.41 C 143.33 58.47 146.44 60.91 149.54 63.90 C 142.15 66.75 134.91 67.34 128.88 72.87 C 122.29 78.88 118.94 88.83 117.31 97.37 C 114.05 113.33 119.16 127.82 119.71 144.93 C 113.87 139.35 109.34 132.69 107.14 124.86 C 104.81 116.32 103.74 107.03 105.16 98.23 C 106.66 87.78 109.69 77.87 116.79 69.81 C 122.13 63.59 130.35 58.21 138.79 58.41 Z" fill="#aeaeae" />
<path d="M 57.95 72.60 C 57.32 75.16 56.43 77.13 54.93 79.30 C 55.47 76.66 56.23 74.69 57.95 72.60 Z" fill="#aaaaaa" />
<path d="M 38.28 75.02 C 40.42 78.68 41.38 82.95 43.61 86.52 C 48.71 88.10 51.15 85.14 54.27 81.76 C 56.54 82.62 58.80 83.49 61.06 84.34 C 60.63 87.52 60.58 90.88 58.48 93.48 C 54.44 98.75 47.05 100.10 40.99 98.01 C 36.81 96.44 33.13 92.68 33.17 87.99 C 33.18 83.40 35.72 78.71 38.28 75.02 Z" fill="#949494" />
<path d="M 159.26 77.72 C 166.42 80.41 170.25 87.82 170.56 95.15 C 170.77 102.04 167.16 108.82 160.96 111.97 C 156.53 114.14 150.75 111.77 147.64 108.34 C 143.65 104.04 144.41 96.61 149.15 93.17 C 151.19 91.48 154.59 92.13 157.07 92.07 C 156.50 95.38 155.77 98.65 154.92 101.90 C 155.97 101.91 157.02 101.92 158.07 101.93 C 159.13 98.81 160.50 96.22 159.13 92.91 C 157.77 89.04 153.61 86.82 149.78 88.76 C 143.56 92.03 139.14 98.96 138.66 105.96 C 138.06 112.26 140.42 120.43 146.00 124.01 C 151.59 127.32 160.24 123.94 166.32 123.25 C 165.41 125.99 165.00 128.72 162.60 130.59 C 156.66 135.35 147.88 136.49 141.05 132.99 C 135.73 130.36 131.65 125.10 129.21 119.81 C 123.45 107.46 127.57 91.51 137.50 82.52 C 143.33 77.40 151.80 74.66 159.26 77.72 Z" fill="#acacac" />
<path d="M 41.66 169.30 C 45.54 170.60 49.25 172.11 53.36 172.58 C 67.49 174.25 81.86 174.32 96.04 173.40 C 111.72 172.81 127.38 171.58 143.00 170.09 C 149.21 169.52 155.19 168.54 161.42 168.41 C 160.06 169.82 159.06 171.48 157.04 171.95 C 153.07 173.01 148.81 173.16 144.73 173.57 C 133.02 174.67 121.30 175.60 109.57 176.45 C 102.75 176.86 95.93 176.87 89.12 177.38 C 77.82 178.21 66.70 177.48 55.40 176.43 C 48.78 175.73 42.57 174.03 37.63 169.33 C 39.03 169.06 40.27 168.75 41.66 169.30 Z" fill="#cccccc" /></svg>