<?xml version="1.0" encoding="UTF-8" standalone="no"?>
<!DOCTYPE svg PUBLIC "-//W3C//DTD SVG 1.1//EN" "http://www.w3.org/Graphics/SVG/1.1/DTD/svg11.dtd">
<svg viewBox="0 0 192 192" height="192.0pt" width="192.0pt" xmlns="http://www.w3.org/2000/svg" version="1.1">
<path d="M 91.67 16.09 C 97.24 16.75 100.00 20.48 104.77 23.08 C 108.18 24.88 111.03 27.60 114.47 29.29 C 117.56 30.07 120.94 29.92 124.12 30.12 C 122.75 30.67 121.39 31.24 120.03 31.82 C 123.38 31.86 126.79 31.76 130.12 32.20 C 132.46 32.45 134.27 34.54 136.19 35.81 C 138.69 37.80 141.97 38.56 144.35 40.61 C 148.48 44.87 150.17 50.13 151.44 55.77 C 151.93 57.24 152.13 59.73 153.64 60.54 C 157.57 62.96 162.00 64.61 165.83 67.18 C 169.04 69.62 171.36 73.38 173.20 76.92 C 176.46 83.30 174.27 89.62 176.95 96.20 C 179.25 101.74 181.67 106.81 181.45 113.00 C 181.69 120.53 178.36 127.02 173.71 132.70 C 170.96 136.04 166.80 137.73 163.97 140.86 C 163.00 143.31 163.13 146.28 162.87 148.88 C 162.47 154.98 161.80 160.84 157.72 165.71 C 153.01 171.44 144.32 173.23 138.04 168.96 C 135.57 167.50 132.95 164.49 129.97 164.53 C 125.78 164.34 121.58 164.48 117.39 164.30 C 116.35 167.55 115.44 170.91 114.04 174.03 C 111.81 179.06 106.85 182.45 101.66 183.84 C 97.77 184.90 93.66 183.65 90.20 181.86 C 86.65 180.00 84.79 176.70 81.79 174.22 C 80.19 174.50 78.86 176.66 77.70 177.73 C 74.42 181.76 69.21 184.19 64.03 184.23 C 56.37 183.61 49.35 177.98 47.51 170.45 C 46.40 166.43 46.73 161.67 44.99 157.91 C 41.88 154.41 37.30 152.43 34.11 148.90 C 29.00 144.00 27.40 137.49 22.76 132.25 C 18.87 127.76 15.36 123.16 13.42 117.46 C 9.55 107.49 9.66 96.01 14.21 86.29 C 15.26 83.75 17.15 80.94 17.27 78.17 C 16.20 73.83 13.20 70.11 12.24 65.66 C 10.42 57.12 12.34 47.77 18.16 41.13 C 19.66 39.44 22.00 38.57 24.01 37.60 C 28.26 35.69 31.76 33.15 36.34 32.21 C 40.79 31.24 45.68 32.05 50.23 32.28 C 46.80 31.44 43.19 31.04 39.69 30.57 C 42.63 29.92 45.60 29.77 48.56 29.33 C 51.42 28.14 53.48 25.34 56.33 23.97 C 59.36 22.48 62.21 20.88 65.08 19.09 C 73.37 14.51 82.54 14.11 91.67 16.09 Z" fill="#f3f3f3" />
<path d="M 14.28 51.90 C 14.96 55.95 15.09 60.38 16.53 64.23 C 18.18 68.11 21.13 71.51 23.44 75.03 C 22.34 76.08 21.27 77.16 20.18 78.23 C 18.33 74.66 16.23 71.04 14.93 67.23 C 13.39 62.49 13.90 56.81 14.28 51.90 Z" fill="#dadada" />
<path d="M 60.14 75.13 C 64.18 76.80 67.85 79.09 72.00 80.58 C 72.67 83.83 73.60 87.24 72.46 90.51 C 70.35 96.43 62.94 100.22 56.96 98.05 C 53.10 96.75 49.62 93.51 48.50 89.55 C 47.86 86.89 48.45 83.78 48.83 81.10 C 53.03 79.83 56.54 77.53 60.14 75.13 Z" fill="#949494" />
<path d="M 103.34 75.76 C 106.90 77.71 110.07 80.02 114.05 81.11 C 114.89 84.81 115.58 88.10 113.58 91.61 C 109.63 99.99 96.18 100.35 91.54 92.45 C 88.97 88.52 90.13 84.31 90.90 80.04 C 93.86 79.00 96.73 77.86 99.54 76.48 C 100.79 76.04 102.04 74.94 103.34 75.76 Z" fill="#919191" />
<path d="M 30.00 80.05 C 31.67 80.37 33.33 80.74 35.00 81.11 C 33.32 86.80 32.71 92.06 33.03 98.00 C 35.70 97.98 38.37 97.94 41.04 97.85 C 40.56 92.59 39.86 87.38 39.83 82.09 C 41.23 82.31 42.64 82.50 44.05 82.61 C 44.03 88.19 44.46 93.20 48.84 97.16 C 56.02 104.19 68.16 103.11 74.17 95.15 C 77.42 90.94 77.02 86.46 76.87 81.44 C 79.79 81.23 82.68 81.00 85.61 81.23 L 85.84 82.80 C 86.32 87.13 85.59 90.92 88.36 94.62 C 93.58 102.07 104.42 104.30 111.90 98.89 C 117.55 94.83 119.78 88.66 118.36 81.86 C 120.23 81.99 122.09 82.00 123.96 81.89 C 123.24 87.23 122.58 92.59 121.94 97.95 C 124.62 98.01 127.29 98.03 129.97 98.03 C 130.13 93.34 130.41 88.82 128.70 84.34 C 128.24 82.84 127.10 82.29 125.88 81.49 C 128.31 80.97 130.72 80.43 133.14 79.89 C 136.62 87.06 136.79 96.03 136.81 103.87 C 131.22 104.43 125.72 103.96 120.17 103.28 C 117.32 108.49 115.12 113.70 111.41 118.40 C 105.97 125.79 97.82 131.93 88.69 133.70 C 81.16 135.00 73.01 134.44 66.13 130.89 C 58.00 126.87 52.07 120.13 47.66 112.34 C 46.06 109.51 45.00 106.37 43.26 103.63 C 41.83 102.87 39.78 103.22 38.22 103.31 C 34.44 103.76 30.70 104.05 26.88 104.00 C 26.44 96.18 26.67 87.28 30.00 80.05 Z" fill="#dbdbdb" />
<path d="M 76.87 81.44 C 77.02 86.46 77.42 90.94 74.17 95.15 C 68.16 103.11 56.02 104.19 48.84 97.16 C 44.46 93.20 44.03 88.19 44.05 82.61 C 45.67 82.19 47.25 81.66 48.83 81.10 C 48.45 83.78 47.86 86.89 48.50 89.55 C 49.62 93.51 53.10 96.75 56.96 98.05 C 62.94 100.22 70.35 96.43 72.46 90.51 C 73.60 87.24 72.67 83.83 72.00 80.58 C 73.59 81.04 75.22 81.31 76.87 81.44 Z" fill="#ffffff" />
<path d="M 90.90 80.04 C 90.13 84.31 88.97 88.52 91.54 92.45 C 96.18 100.35 109.63 99.99 113.58 91.61 C 115.58 88.10 114.89 84.81 114.05 81.11 C 115.48 81.43 116.91 81.67 118.36 81.86 C 119.78 88.66 117.55 94.83 111.90 98.89 C 104.42 104.30 93.58 102.07 88.36 94.62 C 85.59 90.92 86.32 87.13 85.84 82.80 C 87.48 81.79 89.13 80.81 90.90 80.04 Z" fill="#ffffff" />
<path d="M 35.00 81.11 C 36.61 81.44 38.22 81.79 39.83 82.09 C 39.86 87.38 40.56 92.59 41.04 97.85 C 38.37 97.94 35.70 97.98 33.03 98.00 C 32.71 92.06 33.32 86.80 35.00 81.11 Z" fill="#949494" />
<path d="M 123.96 81.89 L 125.88 81.49 C 127.10 82.29 128.24 82.84 128.70 84.34 C 130.41 88.82 130.13 93.34 129.97 98.03 C 127.29 98.03 124.62 98.01 121.94 97.95 C 122.58 92.59 123.24 87.23 123.96 81.89 Z" fill="#8f8f8f" />
<path d="M 13.42 96.60 L 13.43 96.66 C 13.85 105.09 15.96 113.19 20.67 120.27 C 22.70 123.29 25.30 125.63 27.70 128.32 C 30.91 131.79 31.47 136.56 34.42 140.51 C 38.37 145.96 45.12 149.24 51.24 151.64 C 47.76 151.18 44.40 150.25 41.05 149.24 C 44.67 151.76 48.58 153.40 50.13 157.86 C 50.30 162.85 50.40 167.41 53.28 171.72 C 56.45 176.30 62.81 179.45 68.29 177.35 C 72.57 175.98 75.01 172.81 77.45 169.27 C 79.66 167.16 81.90 166.85 84.83 166.66 C 86.36 171.34 89.19 175.34 93.95 177.09 C 99.70 179.58 106.34 176.62 109.66 171.65 C 112.20 167.84 112.60 162.62 113.20 158.19 C 115.65 157.87 117.77 157.76 120.15 158.59 C 125.47 160.32 130.84 159.27 136.21 160.67 C 138.38 162.45 140.40 164.23 143.22 164.89 C 147.75 165.97 152.61 164.08 155.29 160.29 C 158.32 156.06 158.84 151.26 158.70 146.19 C 158.69 143.88 158.57 141.44 158.98 139.16 C 161.43 136.34 165.01 134.45 167.93 132.13 C 164.30 133.62 160.67 135.01 156.83 135.84 C 164.00 132.69 170.67 128.49 174.57 121.47 C 177.50 116.56 177.90 111.44 178.66 105.91 C 179.04 110.50 179.32 114.88 178.31 119.42 C 177.13 124.96 173.91 129.94 169.55 133.52 C 167.22 135.49 164.47 137.17 162.38 139.38 C 160.73 140.94 160.86 143.89 160.65 146.00 C 160.36 152.21 160.38 159.09 156.11 164.09 C 153.07 167.78 148.84 169.33 144.12 168.81 C 139.42 168.52 136.54 164.33 132.56 162.42 C 130.65 161.96 128.53 162.27 126.57 162.23 C 123.03 162.31 119.85 161.15 116.19 160.92 C 113.84 164.93 114.04 170.22 111.37 174.36 C 108.86 178.21 104.53 181.35 99.87 181.73 C 95.66 182.06 91.25 180.89 88.40 177.61 C 86.13 175.01 84.19 172.13 81.97 169.47 C 78.58 172.56 76.12 176.68 72.49 179.45 C 65.70 183.99 56.44 181.70 52.13 174.90 C 48.32 169.04 49.37 162.79 47.32 156.69 C 44.66 153.47 40.13 151.74 36.94 149.02 C 33.13 145.96 31.40 141.11 29.02 136.98 C 25.97 131.43 20.93 127.75 17.91 122.12 C 13.43 114.24 12.60 105.49 13.42 96.60 Z" fill="#d8d8d8" />
<path d="M 49.09 104.13 C 55.89 105.05 63.14 106.54 69.77 108.30 C 75.85 109.45 78.20 117.46 81.33 122.07 C 83.60 118.71 85.39 115.04 87.76 111.76 C 89.72 109.04 92.56 108.44 95.61 107.62 C 101.67 106.21 107.79 104.89 113.97 104.06 C 104.95 111.43 95.09 117.78 85.86 124.88 C 84.28 126.07 84.56 127.60 84.32 129.34 C 82.44 129.25 80.57 129.23 78.68 129.29 C 78.82 124.36 74.60 123.34 71.36 120.63 C 63.96 115.12 56.18 110.03 49.09 104.13 Z" fill="#909090" />
<path d="M 167.93 132.13 C 165.01 134.45 161.43 136.34 158.98 139.16 C 158.57 141.44 158.69 143.88 158.70 146.19 C 151.54 146.52 144.42 146.74 137.27 146.13 C 137.11 145.06 136.94 143.98 136.78 142.91 C 144.08 141.92 149.49 136.89 156.83 135.84 C 160.67 135.01 164.30 133.62 167.93 132.13 Z" fill="#cbcbcb" />
<path d="M 127.47 143.43 C 130.12 142.23 133.87 143.09 136.78 142.91 C 136.94 143.98 137.11 145.06 137.27 146.13 C 144.42 146.74 151.54 146.52 158.70 146.19 C 158.84 151.26 158.32 156.06 155.29 160.29 C 152.61 164.08 147.75 165.97 143.22 164.89 C 140.40 164.23 138.38 162.45 136.21 160.67 C 135.34 159.02 134.55 157.31 133.77 155.62 C 130.06 157.22 126.28 159.46 122.14 158.11 C 118.40 157.12 116.67 154.34 114.68 151.32 C 119.61 149.59 123.26 146.30 127.47 143.43 Z" fill="#8b8b8b" />
<path d="M 41.05 149.24 C 44.40 150.25 47.76 151.18 51.24 151.64 C 53.94 152.07 56.81 152.01 59.44 152.74 C 61.86 153.97 63.83 156.26 65.92 157.98 C 60.68 157.60 55.38 157.82 50.13 157.86 C 48.58 153.40 44.67 151.76 41.05 149.24 Z" fill="#cccccc" />
<path d="M 114.68 151.32 C 116.67 154.34 118.40 157.12 122.14 158.11 C 126.28 159.46 130.06 157.22 133.77 155.62 C 134.55 157.31 135.34 159.02 136.21 160.67 C 130.84 159.27 125.47 160.32 120.15 158.59 C 117.77 157.76 115.65 157.87 113.20 158.19 C 107.79 157.96 102.49 157.33 97.07 158.00 C 99.16 156.27 101.14 153.99 103.57 152.75 C 107.10 151.72 111.03 151.88 114.68 151.32 Z" fill="#cbcbcb" />
<path d="M 50.13 157.86 C 55.38 157.82 60.68 157.60 65.92 157.98 C 69.80 160.31 73.76 161.81 78.29 162.27 C 78.01 164.62 77.84 166.93 77.45 169.27 C 75.01 172.81 72.57 175.98 68.29 177.35 C 62.81 179.45 56.45 176.30 53.28 171.72 C 50.40 167.41 50.30 162.85 50.13 157.86 Z" fill="#8d8d8d" />
<path d="M 97.07 158.00 C 102.49 157.33 107.79 157.96 113.20 158.19 C 112.60 162.62 112.20 167.84 109.66 171.65 C 106.34 176.62 99.70 179.58 93.95 177.09 C 89.19 175.34 86.36 171.34 84.83 166.66 C 84.47 165.22 84.19 163.77 83.91 162.31 C 88.71 161.97 92.95 160.41 97.07 158.00 Z" fill="#8b8b8b" />
<path d="M 78.29 162.27 C 80.17 162.32 82.04 162.36 83.91 162.31 C 84.19 163.77 84.47 165.22 84.83 166.66 C 81.90 166.85 79.66 167.16 77.45 169.27 C 77.84 166.93 78.01 164.62 78.29 162.27 Z" fill="#c5c5c5" /></svg>