<?xml version="1.0" encoding="UTF-8" standalone="no"?>
<!DOCTYPE svg PUBLIC "-//W3C//DTD SVG 1.1//EN" "http://www.w3.org/Graphics/SVG/1.1/DTD/svg11.dtd">
<svg viewBox="0 0 192 192" height="192.0pt" width="192.0pt" xmlns="http://www.w3.org/2000/svg" version="1.1">
<path d="M 143.10 28.22 C 143.74 28.44 144.37 28.67 145.00 28.93 C 149.27 34.66 154.62 39.37 158.89 45.11 C 160.53 47.24 161.84 49.56 163.29 51.82 C 165.72 55.70 169.53 58.11 172.01 61.99 C 175.80 68.08 178.88 74.29 179.50 81.56 C 180.78 92.60 177.08 102.94 171.01 112.00 C 169.08 114.96 166.54 117.78 165.11 121.01 C 164.59 122.16 164.91 123.23 165.36 124.34 C 166.95 127.98 169.39 131.37 170.93 135.02 C 172.59 139.76 174.60 144.21 175.76 149.10 C 177.16 154.42 179.99 159.69 177.05 165.06 C 174.97 169.10 169.76 169.28 166.74 166.20 C 160.16 159.68 153.22 153.39 144.94 149.02 C 142.14 147.65 138.75 146.23 135.72 147.71 C 131.88 149.59 128.63 152.69 124.99 154.95 C 113.67 162.10 101.46 168.28 88.04 170.14 C 80.16 171.44 72.46 169.95 64.75 168.21 C 61.47 167.34 58.35 166.40 57.39 162.72 C 56.97 161.44 57.85 160.63 58.85 160.03 C 59.58 160.45 60.30 160.90 61.01 161.36 C 60.49 164.20 61.26 165.01 63.88 165.97 C 70.06 167.50 76.62 168.88 83.01 168.74 C 98.48 167.89 113.24 160.40 125.90 151.90 C 129.46 149.59 133.07 146.15 137.16 144.93 C 140.42 144.33 144.27 146.40 147.07 147.93 C 152.99 151.55 158.69 155.48 163.31 160.69 C 165.80 163.20 167.91 165.82 171.80 165.61 C 173.90 165.70 174.11 164.11 175.15 162.69 C 172.98 163.06 171.02 164.89 169.32 162.67 C 163.97 156.22 157.65 150.96 150.73 146.28 C 146.91 143.81 142.69 141.92 138.68 139.76 C 139.89 138.57 141.07 137.36 142.10 136.00 C 137.07 132.71 131.93 130.91 128.20 125.82 C 121.33 116.47 121.84 106.57 119.30 95.85 C 122.20 95.78 125.10 95.77 127.99 96.00 C 126.36 97.40 124.68 98.73 123.04 100.13 C 128.85 99.73 134.77 98.69 140.46 97.49 C 144.65 96.74 146.84 91.71 148.16 88.15 C 149.63 84.61 148.67 80.71 146.27 77.85 C 144.81 77.36 142.83 77.38 141.66 76.34 C 136.86 71.65 129.98 68.95 123.92 66.23 C 125.85 69.19 128.02 71.98 129.95 74.94 L 130.32 75.70 C 129.67 78.69 129.18 82.01 127.74 84.74 C 125.98 87.14 122.81 88.63 120.51 90.50 C 119.07 91.42 119.05 92.67 118.86 94.22 C 117.86 91.06 116.98 87.86 114.47 85.53 C 111.14 82.35 105.60 81.85 102.16 85.17 C 97.16 89.74 93.66 96.55 90.30 102.32 C 87.59 106.78 83.01 111.77 77.63 112.68 C 72.86 113.27 67.73 110.62 62.97 109.95 C 47.56 107.20 31.18 107.49 16.11 111.92 C 19.19 105.55 24.47 101.24 29.82 96.83 C 42.59 86.74 56.47 78.36 71.92 73.05 C 74.36 72.08 77.51 71.35 79.01 69.04 C 81.25 65.91 83.07 62.49 85.42 59.42 C 93.04 48.73 104.43 40.59 116.42 35.47 C 121.83 33.05 127.57 31.65 132.99 29.25 L 133.67 29.36 C 133.93 31.58 134.08 33.82 134.16 36.06 C 134.62 41.26 132.04 46.54 130.82 51.64 C 129.56 55.83 130.03 59.89 127.60 63.69 C 131.27 64.62 135.01 65.25 138.65 66.34 C 142.15 67.26 145.94 68.69 149.57 68.71 C 151.22 67.21 150.71 64.03 150.72 62.00 C 150.30 53.94 146.41 47.74 144.47 40.28 C 143.95 36.23 144.15 32.23 143.10 28.22 Z" fill="#e0e0e0" />
<path d="M 132.99 29.25 C 127.57 31.65 121.83 33.05 116.42 35.47 C 104.43 40.59 93.04 48.73 85.42 59.42 C 83.07 62.49 81.25 65.91 79.01 69.04 C 77.51 71.35 74.36 72.08 71.92 73.05 C 56.47 78.36 42.59 86.74 29.82 96.83 C 24.47 101.24 19.19 105.55 16.11 111.92 C 31.18 107.49 47.56 107.20 62.97 109.95 C 67.73 110.62 72.86 113.27 77.63 112.68 C 83.01 111.77 87.59 106.78 90.30 102.32 C 93.66 96.55 97.16 89.74 102.16 85.17 C 105.60 81.85 111.14 82.35 114.47 85.53 C 116.98 87.86 117.86 91.06 118.86 94.22 L 119.11 95.07 L 119.30 95.85 C 121.84 106.57 121.33 116.47 128.20 125.82 C 131.93 130.91 137.07 132.71 142.10 136.00 C 141.07 137.36 139.89 138.57 138.68 139.76 C 134.07 142.06 130.63 145.66 126.34 148.42 C 118.13 153.87 109.14 158.92 99.73 161.97 C 93.95 163.92 88.16 165.47 82.01 165.46 C 74.62 165.64 67.97 163.60 61.01 161.36 C 60.30 160.90 59.58 160.45 58.85 160.03 C 57.85 160.63 56.97 161.44 57.39 162.72 C 58.35 166.40 61.47 167.34 64.75 168.21 C 72.46 169.95 80.16 171.44 88.04 170.14 C 101.46 168.28 113.67 162.10 124.99 154.95 C 128.63 152.69 131.88 149.59 135.72 147.71 C 138.75 146.23 142.14 147.65 144.94 149.02 C 153.22 153.39 160.16 159.68 166.74 166.20 C 169.76 169.28 174.97 169.10 177.05 165.06 C 179.99 159.69 177.16 154.42 175.76 149.10 C 174.60 144.21 172.59 139.76 170.93 135.02 C 169.39 131.37 166.95 127.98 165.36 124.34 C 164.91 123.23 164.59 122.16 165.11 121.01 C 166.54 117.78 169.08 114.96 171.01 112.00 C 177.08 102.94 180.78 92.60 179.50 81.56 C 178.88 74.29 175.80 68.08 172.01 61.99 C 169.53 58.11 165.72 55.70 163.29 51.82 C 161.84 49.56 160.53 47.24 158.89 45.11 C 154.62 39.37 149.27 34.66 145.00 28.93 C 152.38 31.04 155.31 36.58 160.11 41.89 C 163.96 46.22 166.41 51.43 170.33 55.68 C 172.78 58.37 175.25 60.77 177.01 64.01 C 183.28 75.83 184.02 90.51 178.91 102.88 C 176.72 108.79 173.02 113.41 169.58 118.57 C 169.10 119.52 168.02 120.76 168.29 121.87 C 168.95 124.47 170.51 126.93 171.68 129.34 C 175.46 136.67 177.65 144.29 179.87 152.19 C 180.92 156.10 181.78 160.44 180.39 164.37 C 179.40 167.07 177.50 169.82 174.65 170.73 C 171.62 171.60 168.26 171.31 165.81 169.18 C 161.86 165.78 158.71 161.64 154.45 158.56 C 150.31 155.51 145.78 151.60 140.78 150.21 C 136.60 148.96 133.54 152.24 130.37 154.36 C 123.26 159.82 115.32 163.44 107.34 167.37 C 102.30 169.79 96.74 171.32 91.27 172.37 C 81.09 174.17 70.91 172.81 61.08 169.95 C 57.57 168.84 53.45 165.17 54.26 161.12 C 54.16 159.54 55.21 157.28 53.74 156.22 C 49.60 157.05 46.86 160.01 42.32 158.81 C 40.46 156.85 40.13 153.54 38.71 151.23 C 36.18 148.77 32.66 147.32 29.83 145.19 C 22.81 139.85 16.32 134.84 12.14 126.85 C 10.69 123.70 9.37 120.05 10.53 116.60 C 12.90 108.90 18.05 103.15 24.19 98.18 C 38.19 85.97 54.36 77.24 71.61 70.56 C 74.41 69.48 76.32 67.43 77.95 64.99 C 82.60 58.12 86.83 51.59 93.63 46.59 C 102.82 38.89 113.51 33.58 124.84 29.80 C 127.52 28.91 130.21 28.82 132.99 29.25 Z" fill="#f5f5f5" />
<path d="M 126.83 58.10 C 126.67 59.67 126.35 61.22 125.82 62.71 C 119.87 63.69 113.78 62.67 107.79 63.66 C 101.06 64.27 94.58 66.21 87.89 66.94 C 89.32 65.54 91.06 64.61 92.92 63.91 C 98.83 61.68 104.70 59.83 111.02 59.19 C 116.22 58.70 121.61 57.80 126.83 58.10 Z" fill="#c7c7c7" />
<path d="M 123.92 66.23 C 129.98 68.95 136.86 71.65 141.66 76.34 C 142.83 77.38 144.81 77.36 146.27 77.85 C 148.67 80.71 149.63 84.61 148.16 88.15 C 146.84 91.71 144.65 96.74 140.46 97.49 C 134.77 98.69 128.85 99.73 123.04 100.13 C 124.68 98.73 126.36 97.40 127.99 96.00 C 125.10 95.77 122.20 95.78 119.30 95.85 L 119.11 95.07 C 123.77 94.52 129.47 94.06 133.47 91.43 C 138.90 86.44 139.76 77.71 134.81 72.01 C 132.79 72.23 131.48 73.74 129.95 74.94 C 128.02 71.98 125.85 69.19 123.92 66.23 Z" fill="#bcbcbc" />
<path d="M 134.81 72.01 C 139.76 77.71 138.90 86.44 133.47 91.43 C 129.47 94.06 123.77 94.52 119.11 95.07 L 118.86 94.22 C 123.42 92.06 129.20 90.30 132.80 86.70 C 135.04 83.44 131.81 78.68 130.32 75.70 L 129.95 74.94 C 131.48 73.74 132.79 72.23 134.81 72.01 Z" fill="#a7a7a7" />
<path d="M 130.32 75.70 C 131.81 78.68 135.04 83.44 132.80 86.70 C 129.20 90.30 123.42 92.06 118.86 94.22 C 119.05 92.67 119.07 91.42 120.51 90.50 C 122.81 88.63 125.98 87.14 127.74 84.74 C 129.18 82.01 129.67 78.69 130.32 75.70 Z" fill="#bdbdbd" />
<path d="M 91.77 83.13 C 90.22 84.16 88.57 85.01 86.89 85.82 C 83.23 87.28 79.03 88.47 75.86 90.86 C 72.80 93.88 70.62 97.71 67.66 100.86 C 64.88 101.64 61.95 102.74 59.07 102.90 C 56.98 102.98 55.35 101.37 54.22 99.79 C 54.89 96.60 57.13 93.59 58.91 90.91 C 62.22 86.23 66.17 81.16 72.10 79.93 C 78.67 78.63 85.87 80.09 91.77 83.13 Z" fill="#bebebe" />
<path d="M 142.04 78.45 C 142.92 79.61 143.85 80.45 143.71 82.02 C 143.39 86.19 141.22 90.40 138.54 93.55 C 136.18 96.22 133.15 95.91 129.90 95.90 C 132.41 93.18 136.01 92.05 138.63 89.57 C 139.88 85.69 139.63 81.98 142.04 78.45 Z" fill="#a7a7a7" />
<path d="M 86.89 85.82 C 88.26 88.76 89.46 91.50 88.81 94.83 C 87.88 101.24 81.66 105.68 75.30 104.79 C 72.21 104.33 70.12 102.59 67.66 100.86 C 70.62 97.71 72.80 93.88 75.86 90.86 C 79.03 88.47 83.23 87.28 86.89 85.82 Z" fill="#929292" />
<path d="M 107.02 108.12 C 107.44 111.45 107.22 114.74 106.61 118.04 C 105.92 115.53 105.18 113.04 104.42 110.56 C 105.26 109.71 106.14 108.92 107.02 108.12 Z" fill="#bdbdbd" />
<path d="M 104.42 110.56 C 105.18 113.04 105.92 115.53 106.61 118.04 C 106.33 119.85 105.86 121.66 105.38 123.42 C 103.36 122.21 101.36 121.03 99.18 120.11 C 99.32 123.77 99.86 127.33 99.91 131.01 C 97.90 130.12 95.98 129.07 94.00 128.13 C 94.13 131.81 94.73 135.40 95.27 139.04 L 94.20 140.00 C 92.24 138.17 90.24 136.41 87.96 135.00 C 87.77 137.73 87.74 140.43 87.34 143.14 C 84.15 139.30 84.42 135.15 83.63 130.49 C 84.09 130.06 84.56 129.64 85.05 129.23 C 87.34 130.11 89.50 131.31 91.81 132.16 C 91.28 129.59 90.40 126.96 90.21 124.35 C 91.45 122.41 95.18 124.66 97.06 124.74 C 96.87 122.63 96.41 120.49 96.48 118.37 C 97.77 115.72 99.99 117.02 102.31 116.83 C 102.55 114.14 102.01 112.41 104.42 110.56 Z" fill="#ffffff" />
<path d="M 150.95 112.06 C 155.90 112.28 161.27 112.30 164.85 116.26 C 163.77 118.00 161.37 118.29 159.65 117.40 C 156.67 115.77 153.81 113.90 150.95 112.06 Z" fill="#c5c5c5" />
<path d="M 59.73 115.28 C 61.82 115.92 65.08 118.32 64.14 120.84 C 62.20 124.96 55.65 126.59 52.01 123.91 C 49.36 122.19 46.52 120.98 43.62 119.78 C 47.90 116.47 54.31 113.85 59.73 115.28 Z" fill="#919191" />
<path d="M 13.23 118.45 L 14.11 118.35 C 15.36 120.30 16.27 122.39 17.70 124.26 C 25.90 134.64 36.97 141.99 49.23 146.75 C 53.29 146.87 57.28 144.53 61.40 144.41 C 62.66 148.06 63.76 151.92 63.98 155.79 C 63.29 156.34 62.54 156.70 61.74 156.88 C 58.84 157.56 57.73 151.87 54.93 152.28 C 51.04 152.80 47.83 154.42 43.74 153.79 C 43.40 152.49 43.53 150.51 42.39 149.63 C 39.89 147.42 36.70 145.87 33.89 144.06 C 28.37 140.67 23.74 136.38 19.35 131.66 C 15.89 127.92 13.28 123.70 13.23 118.45 Z" fill="#d5d5d5" />
<path d="M 99.18 120.11 C 101.36 121.03 103.36 122.21 105.38 123.42 C 103.97 129.86 100.26 134.88 95.27 139.04 C 94.73 135.40 94.13 131.81 94.00 128.13 C 95.98 129.07 97.90 130.12 99.91 131.01 C 99.86 127.33 99.32 123.77 99.18 120.11 Z" fill="#e0e0e0" />
<path d="M 83.63 130.49 C 84.42 135.15 84.15 139.30 87.34 143.14 C 87.74 140.43 87.77 137.73 87.96 135.00 C 90.24 136.41 92.24 138.17 94.20 140.00 C 89.21 144.53 83.53 147.57 77.50 150.46 C 73.88 152.17 70.06 154.04 66.15 154.91 C 66.02 152.36 66.09 149.79 66.24 147.25 C 67.83 148.85 69.30 150.53 71.03 151.99 C 70.85 149.91 70.92 147.18 69.68 145.41 C 68.57 143.96 67.34 142.61 66.22 141.17 C 68.96 139.20 72.02 137.70 74.83 135.82 C 77.82 133.88 80.16 131.60 83.63 130.49 Z" fill="#e0e0e0" />
<path d="M 138.68 139.76 C 142.69 141.92 146.91 143.81 150.73 146.28 C 157.65 150.96 163.97 156.22 169.32 162.67 C 171.02 164.89 172.98 163.06 175.15 162.69 C 174.11 164.11 173.90 165.70 171.80 165.61 C 167.91 165.82 165.80 163.20 163.31 160.69 C 158.69 155.48 152.99 151.55 147.07 147.93 C 144.27 146.40 140.42 144.33 137.16 144.93 C 133.07 146.15 129.46 149.59 125.90 151.90 C 113.24 160.40 98.48 167.89 83.01 168.74 C 76.62 168.88 70.06 167.50 63.88 165.97 C 61.26 165.01 60.49 164.20 61.01 161.36 C 67.97 163.60 74.62 165.64 82.01 165.46 C 88.16 165.47 93.95 163.92 99.73 161.97 C 109.14 158.92 118.13 153.87 126.34 148.42 C 130.63 145.66 134.07 142.06 138.68 139.76 Z" fill="#cccccc" /></svg>