<?xml version="1.0" encoding="UTF-8" standalone="no"?>
<!DOCTYPE svg PUBLIC "-//W3C//DTD SVG 1.1//EN" "http://www.w3.org/Graphics/SVG/1.1/DTD/svg11.dtd">
<svg viewBox="0 0 192 192" height="192.0pt" width="192.0pt" xmlns="http://www.w3.org/2000/svg" version="1.1">
<path d="M 71.41 14.51 C 78.76 16.06 84.67 19.42 91.92 18.76 C 97.63 18.32 103.27 17.67 109.01 17.94 C 114.04 18.02 119.01 18.93 124.03 18.94 C 129.10 18.98 133.86 16.17 138.78 14.80 C 143.86 13.35 149.54 12.35 154.79 13.21 C 158.21 13.84 160.72 15.74 162.12 18.94 C 164.48 24.53 165.24 30.92 164.98 36.95 C 164.78 41.79 163.07 45.98 161.47 50.45 C 160.93 52.26 160.08 54.26 160.93 56.11 C 162.89 60.60 166.39 64.19 168.17 68.85 C 170.05 73.76 171.21 79.07 171.83 84.28 C 172.47 89.95 169.98 95.14 168.95 100.86 C 168.05 105.82 166.90 110.59 165.48 115.43 C 163.37 122.75 164.72 129.63 163.25 137.11 C 161.93 144.21 159.18 151.85 154.26 157.26 C 150.28 161.61 145.19 163.16 142.24 168.10 C 140.24 171.07 138.83 174.80 135.33 176.31 C 130.60 178.48 125.12 179.38 119.97 179.83 C 113.84 180.30 107.89 180.96 101.73 180.49 C 92.65 179.80 84.37 180.33 76.01 175.97 C 72.71 174.28 71.42 170.34 69.51 167.37 C 67.30 163.32 61.97 161.67 58.76 158.24 C 55.17 154.66 53.85 149.24 50.35 145.73 C 47.08 144.15 43.13 143.94 39.87 142.09 C 36.97 140.43 34.26 138.41 31.58 136.42 C 24.52 131.47 20.83 122.30 20.00 113.98 C 18.96 103.29 23.14 93.63 26.77 83.85 C 28.36 79.50 30.29 74.66 30.40 69.99 C 30.35 63.70 25.67 57.62 25.83 51.00 C 25.89 45.94 28.72 41.48 33.25 39.26 C 37.45 37.06 41.62 37.39 46.17 37.66 C 47.81 33.06 47.88 28.36 48.63 23.60 C 49.41 19.71 50.85 15.40 54.90 13.86 C 59.86 11.91 66.36 13.37 71.41 14.51 Z" fill="#f6f6f6" />
<path d="M 55.34 15.23 C 61.13 14.38 67.37 15.63 73.02 16.93 C 77.43 17.88 81.42 20.41 85.83 21.17 C 90.53 21.32 95.22 20.24 99.96 20.35 C 106.95 20.42 114.17 20.01 121.07 20.92 C 123.58 21.15 126.55 21.74 128.97 20.85 C 132.31 19.66 135.38 17.84 138.80 16.79 C 144.82 14.85 150.70 14.84 156.95 14.89 C 159.13 19.83 160.31 24.57 160.50 29.99 C 161.12 38.57 160.00 47.00 154.62 54.00 C 151.79 51.37 149.35 48.81 145.65 47.40 C 140.89 45.62 135.90 44.39 130.92 43.45 C 129.01 37.73 126.69 31.99 122.31 27.68 C 118.21 23.59 111.61 22.10 106.00 22.05 C 100.36 22.10 93.83 23.60 89.69 27.67 C 85.21 32.01 82.94 37.57 81.06 43.39 C 74.14 45.18 64.75 46.22 59.98 51.99 C 58.40 53.62 56.85 55.27 55.33 56.94 C 54.30 53.91 53.17 50.91 51.82 48.00 C 50.98 46.12 50.20 44.22 49.48 42.30 C 53.10 32.89 49.88 24.33 55.34 15.23 Z" fill="#d4d4d4" />
<path d="M 106.00 22.05 C 111.61 22.10 118.21 23.59 122.31 27.68 C 126.69 31.99 129.01 37.73 130.92 43.45 C 127.49 42.96 124.50 42.15 121.38 40.67 C 119.53 43.44 117.17 44.80 114.13 46.01 C 111.62 44.97 108.75 43.60 106.01 43.56 C 103.28 43.64 100.43 44.99 97.93 46.02 C 95.22 44.69 92.77 42.98 90.28 41.30 L 89.95 41.32 C 86.98 41.98 84.06 42.82 81.06 43.39 C 82.94 37.57 85.21 32.01 89.69 27.67 C 93.83 23.60 100.36 22.10 106.00 22.05 Z" fill="#939393" />
<path d="M 59.44 23.27 C 64.53 22.50 69.52 24.23 74.29 25.77 C 71.13 28.56 67.95 31.03 65.59 34.59 C 63.64 37.55 62.07 40.77 60.33 43.85 C 56.50 37.24 56.63 30.24 59.44 23.27 Z" fill="#b6b6b6" />
<path d="M 152.84 22.91 C 153.89 26.83 155.08 30.76 154.83 34.87 C 154.63 38.05 153.38 40.66 152.14 43.53 C 150.01 40.39 148.20 37.04 146.05 33.91 C 143.78 30.64 140.82 28.35 137.85 25.77 C 142.91 23.97 147.47 23.09 152.84 22.91 Z" fill="#b1b1b1" />
<path d="M 37.45 39.40 C 42.09 38.00 45.68 39.86 49.48 42.30 C 50.20 44.22 50.98 46.12 51.82 48.00 C 45.53 51.63 40.69 55.99 36.62 62.03 C 40.25 64.80 43.82 66.81 48.07 68.50 C 47.40 70.34 46.85 72.22 46.41 74.12 C 45.97 73.43 45.50 72.74 45.03 72.06 C 40.23 73.82 36.43 76.38 32.83 79.99 C 36.07 83.18 39.42 85.84 43.27 88.29 C 43.82 86.82 44.38 85.36 44.86 83.87 C 44.57 85.80 44.29 87.74 43.97 89.67 C 38.96 90.57 33.89 91.08 28.90 92.18 C 29.05 94.48 28.82 97.18 29.72 99.33 C 30.97 101.61 33.13 103.52 34.93 105.38 C 32.17 107.44 29.39 109.46 26.55 111.42 C 28.49 115.66 31.75 117.92 35.58 120.28 C 34.74 122.32 33.91 124.35 33.08 126.39 C 36.60 127.04 40.11 127.48 43.70 127.66 C 43.33 130.62 42.93 133.58 42.50 136.54 C 37.04 133.12 31.97 130.11 28.63 124.34 C 23.70 116.03 23.64 106.86 25.55 97.64 C 27.84 90.84 30.63 84.20 33.04 77.44 C 34.63 72.99 36.04 68.85 34.98 64.05 C 33.72 58.74 30.96 53.78 29.11 48.64 C 30.91 44.48 32.70 40.66 37.45 39.40 Z" fill="#c2c2c2" />
<path d="M 89.95 41.32 L 90.28 41.30 C 92.77 42.98 95.22 44.69 97.93 46.02 C 102.68 53.29 101.81 60.97 100.09 69.04 C 98.83 75.36 94.52 80.16 93.54 86.61 C 91.30 87.55 87.85 88.76 86.84 91.15 C 86.59 93.19 87.95 94.48 89.39 95.66 C 92.37 97.93 96.29 98.93 99.49 100.68 C 100.85 101.34 101.34 102.82 102.01 104.08 C 102.04 105.70 102.03 107.33 102.02 108.95 C 95.68 113.69 89.76 118.66 83.97 124.05 C 81.99 123.19 80.11 122.20 78.20 121.21 C 78.06 122.83 77.91 124.45 77.76 126.08 C 74.11 124.87 70.71 123.91 67.74 121.32 C 62.90 117.36 59.77 112.26 56.81 106.85 C 55.84 108.64 54.89 110.39 54.04 112.24 C 53.40 112.30 52.76 112.37 52.12 112.44 C 50.80 108.06 49.24 103.74 48.03 99.33 C 47.83 95.76 48.04 92.09 48.00 88.51 C 46.66 88.89 45.33 89.31 43.97 89.67 C 44.29 87.74 44.57 85.80 44.86 83.87 C 45.41 80.62 45.87 77.37 46.41 74.12 C 46.85 72.22 47.40 70.34 48.07 68.50 C 49.85 64.27 52.20 60.32 55.33 56.94 C 56.85 55.27 58.40 53.62 59.98 51.99 C 64.75 46.22 74.14 45.18 81.06 43.39 C 84.06 42.82 86.98 41.98 89.95 41.32 Z" fill="#f6f6f6" />
<path d="M 106.01 43.56 C 108.75 43.60 111.62 44.97 114.13 46.01 C 109.85 53.18 110.25 61.05 112.07 68.91 C 113.46 74.51 116.35 79.44 117.97 85.01 L 118.26 86.59 C 110.09 85.61 101.72 85.73 93.54 86.61 C 94.52 80.16 98.83 75.36 100.09 69.04 C 101.81 60.97 102.68 53.29 97.93 46.02 C 100.43 44.99 103.28 43.64 106.01 43.56 Z" fill="#d4d4d4" />
<path d="M 51.82 48.00 C 53.17 50.91 54.30 53.91 55.33 56.94 C 52.20 60.32 49.85 64.27 48.07 68.50 C 43.82 66.81 40.25 64.80 36.62 62.03 C 40.69 55.99 45.53 51.63 51.82 48.00 Z" fill="#b6b6b6" />
<path d="M 29.11 48.64 C 30.96 53.78 33.72 58.74 34.98 64.05 C 36.04 68.85 34.63 72.99 33.04 77.44 C 33.25 71.76 33.27 66.32 31.01 61.00 C 29.34 56.82 27.64 53.19 29.11 48.64 Z" fill="#dfdfdf" />
<path d="M 66.41 56.39 C 72.74 54.77 80.01 55.75 86.43 56.58 C 89.45 57.22 94.50 57.90 96.21 60.80 C 99.73 68.93 95.78 79.88 87.63 83.62 C 82.80 85.96 76.62 85.10 71.79 83.17 C 64.70 80.19 61.24 71.84 62.49 64.51 C 62.94 61.86 63.84 57.78 66.41 56.39 Z" fill="#939393" />
<path d="M 126.44 56.47 C 131.25 55.77 136.20 55.41 141.06 55.60 C 143.23 55.83 145.92 55.75 147.32 57.72 C 152.30 65.72 150.24 77.90 141.64 82.59 C 136.37 85.19 129.08 86.16 123.76 83.23 C 116.16 79.19 112.69 68.74 115.89 60.88 C 117.71 57.77 123.21 57.13 126.44 56.47 Z" fill="#8f8f8f" />
<path d="M 78.74 58.19 C 77.63 60.32 76.20 62.66 75.82 65.04 C 75.54 69.24 79.09 73.16 83.23 73.53 C 86.69 73.70 90.23 71.26 90.94 67.81 C 91.33 65.35 91.08 62.75 91.07 60.27 C 94.15 65.04 93.72 71.56 89.47 75.47 C 83.62 80.50 74.05 79.73 68.82 74.17 C 65.28 70.27 65.32 62.86 68.91 59.02 C 71.59 57.70 75.73 58.42 78.74 58.19 Z" fill="#ffffff" />
<path d="M 140.56 57.70 C 142.26 59.04 144.76 60.51 145.32 62.71 C 146.36 66.32 146.19 70.69 143.71 73.69 C 138.94 79.42 129.82 80.50 123.72 76.28 C 119.40 73.29 117.79 66.67 119.96 61.97 C 122.25 59.32 127.35 59.22 130.60 58.53 C 129.50 61.51 127.80 64.66 128.78 67.90 C 129.63 71.18 132.69 73.42 136.02 73.53 C 141.00 73.49 145.26 68.14 143.78 63.28 C 142.97 61.32 141.65 59.53 140.56 57.70 Z" fill="#ffffff" />
<path d="M 154.48 65.05 C 155.71 70.34 157.06 75.18 156.48 80.67 C 155.97 85.60 155.07 90.63 153.26 95.26 C 151.59 99.34 148.94 103.13 144.66 104.71 C 140.77 106.19 136.79 104.90 132.91 104.10 C 132.24 100.36 131.32 96.64 130.00 93.08 C 133.37 93.11 137.30 93.62 140.52 92.50 C 143.67 90.97 144.95 86.21 146.30 83.24 C 148.25 80.30 150.69 77.32 151.98 74.06 C 153.11 71.19 153.70 68.04 154.48 65.05 Z" fill="#8d8d8d" />
<path d="M 57.47 65.84 C 58.45 68.75 59.26 71.77 60.47 74.59 C 61.81 77.72 63.90 80.34 65.83 83.13 C 67.16 85.98 68.28 90.11 70.89 92.03 C 74.07 93.39 77.97 93.33 81.38 93.83 C 80.58 97.07 79.98 100.36 79.44 103.66 C 75.93 104.81 72.83 106.07 69.06 105.16 C 64.40 104.18 61.42 100.63 59.49 96.49 C 55.30 86.81 54.66 76.00 57.47 65.84 Z" fill="#939393" />
<path d="M 45.03 72.06 C 45.50 72.74 45.97 73.43 46.41 74.12 C 45.87 77.37 45.41 80.62 44.86 83.87 C 44.38 85.36 43.82 86.82 43.27 88.29 C 39.42 85.84 36.07 83.18 32.83 79.99 C 36.43 76.38 40.23 73.82 45.03 72.06 Z" fill="#b5b5b5" />
<path d="M 117.90 82.34 C 121.35 84.18 124.71 86.27 127.75 88.73 C 128.58 90.14 129.33 91.58 130.00 93.08 C 131.32 96.64 132.24 100.36 132.91 104.10 C 132.34 106.46 131.66 109.21 130.11 111.13 C 128.54 112.70 126.27 113.69 124.34 114.76 C 124.11 118.16 124.05 121.57 123.77 124.97 C 122.76 127.82 121.47 130.59 120.31 133.39 C 119.43 132.83 118.58 132.24 117.70 131.69 C 114.96 133.21 112.47 135.06 109.62 136.42 C 107.06 136.90 104.47 137.19 101.91 137.65 C 100.37 136.23 98.85 134.80 97.34 133.35 C 94.37 130.00 91.74 126.64 87.74 124.43 C 92.35 122.92 96.99 121.37 101.43 119.40 C 105.95 117.37 109.45 114.66 114.23 113.38 C 116.52 112.66 119.31 112.30 121.28 110.89 C 119.81 105.75 115.23 105.69 111.39 102.67 C 114.47 100.14 118.24 98.78 121.38 96.40 C 123.16 94.87 125.17 91.78 123.84 89.43 C 122.30 88.08 120.17 87.27 118.26 86.59 L 117.97 85.01 C 117.93 84.12 117.91 83.23 117.90 82.34 Z" fill="#fbfbfb" />
<path d="M 168.58 81.71 C 169.30 88.45 166.87 93.95 165.93 100.96 C 164.71 109.71 160.78 116.95 161.14 125.96 C 161.35 135.70 159.22 145.51 153.58 153.58 C 150.58 157.72 146.46 159.56 142.76 162.80 C 139.60 165.61 138.28 170.42 134.94 172.91 C 130.73 175.68 124.97 176.49 120.03 176.72 C 113.34 177.01 106.71 177.58 100.01 177.24 C 92.53 176.93 85.13 177.24 78.29 173.66 C 74.36 171.73 72.99 166.17 69.92 163.10 C 66.75 159.99 62.38 158.23 59.48 154.54 C 56.73 151.19 55.47 146.58 52.50 143.49 C 48.80 141.21 44.05 140.95 40.22 138.74 C 34.76 135.62 29.13 131.48 26.28 125.70 C 21.71 117.00 22.04 106.66 25.55 97.64 C 23.64 106.86 23.70 116.03 28.63 124.34 C 31.97 130.11 37.04 133.12 42.50 136.54 C 42.70 137.11 42.90 137.68 43.10 138.25 C 44.54 137.78 46.09 137.01 47.61 136.97 C 51.66 137.40 55.11 139.61 56.68 143.47 C 57.97 146.43 58.99 149.32 61.18 151.79 C 64.60 155.62 69.38 158.26 73.45 161.38 C 74.67 164.48 75.31 167.76 76.89 170.61 C 80.74 172.66 84.70 174.43 89.10 174.78 C 94.35 175.18 99.66 174.94 104.92 174.95 C 105.46 175.59 106.01 176.23 106.56 176.88 C 106.73 176.22 106.89 175.56 107.05 174.90 C 116.99 174.55 126.82 176.33 135.32 170.08 C 136.25 167.69 136.98 165.28 138.06 162.94 C 141.74 159.18 146.28 156.79 149.92 152.95 C 152.66 150.14 154.45 146.66 155.98 143.09 C 159.52 133.55 159.78 123.58 159.17 113.56 C 160.97 109.58 162.85 105.77 163.80 101.47 C 164.97 96.76 164.51 92.31 164.22 87.53 C 165.44 87.91 166.66 88.29 167.88 88.67 C 168.08 86.35 168.30 84.03 168.58 81.71 Z" fill="#dadada" />
<path d="M 65.83 83.13 C 71.29 86.68 76.25 88.02 82.75 88.36 C 82.29 90.18 81.83 92.00 81.38 93.83 C 77.97 93.33 74.07 93.39 70.89 92.03 C 68.28 90.11 67.16 85.98 65.83 83.13 Z" fill="#d4d4d4" />
<path d="M 146.30 83.24 C 144.95 86.21 143.67 90.97 140.52 92.50 C 137.30 93.62 133.37 93.11 130.00 93.08 C 129.33 91.58 128.58 90.14 127.75 88.73 C 134.48 88.15 140.57 87.00 146.30 83.24 Z" fill="#d3d3d3" />
<path d="M 118.26 86.59 C 120.17 87.27 122.30 88.08 123.84 89.43 C 125.17 91.78 123.16 94.87 121.38 96.40 C 118.24 98.78 114.47 100.14 111.39 102.67 C 108.46 100.37 105.46 101.06 101.98 101.06 C 101.99 102.07 102.00 103.07 102.01 104.08 C 101.34 102.82 100.85 101.34 99.49 100.68 C 96.29 98.93 92.37 97.93 89.39 95.66 C 87.95 94.48 86.59 93.19 86.84 91.15 C 87.85 88.76 91.30 87.55 93.54 86.61 C 101.72 85.73 110.09 85.61 118.26 86.59 Z" fill="#b8b8b8" />
<path d="M 48.00 88.51 C 48.04 92.09 47.83 95.76 48.03 99.33 C 46.30 100.27 43.68 100.88 43.02 102.95 C 41.20 107.82 42.15 114.35 45.88 118.13 C 47.62 119.98 50.04 120.51 52.37 121.31 C 52.86 118.30 53.28 115.20 54.04 112.24 C 54.89 110.39 55.84 108.64 56.81 106.85 C 59.77 112.26 62.90 117.36 67.74 121.32 C 70.71 123.91 74.11 124.87 77.76 126.08 C 77.91 124.45 78.06 122.83 78.20 121.21 C 80.11 122.20 81.99 123.19 83.97 124.05 C 85.22 124.23 86.48 124.33 87.74 124.43 C 91.74 126.64 94.37 130.00 97.34 133.35 C 93.66 133.92 89.92 134.42 86.31 135.37 C 83.63 136.09 81.81 137.81 79.70 139.49 C 83.96 139.96 88.35 139.93 92.30 141.71 C 95.26 143.01 98.09 144.58 101.00 145.98 C 101.29 144.24 101.58 142.50 101.79 140.74 C 101.77 143.65 101.81 146.56 101.83 149.47 C 95.86 150.08 91.28 154.13 86.80 157.78 C 82.54 161.33 79.53 165.80 76.89 170.61 C 75.31 167.76 74.67 164.48 73.45 161.38 C 72.68 159.67 71.46 158.12 71.48 156.22 C 71.43 152.87 71.28 149.58 70.66 146.27 C 65.97 145.45 61.34 144.39 56.68 143.47 C 55.11 139.61 51.66 137.40 47.61 136.97 C 46.09 137.01 44.54 137.78 43.10 138.25 C 42.90 137.68 42.70 137.11 42.50 136.54 C 42.93 133.58 43.33 130.62 43.70 127.66 C 40.11 127.48 36.60 127.04 33.08 126.39 C 33.91 124.35 34.74 122.32 35.58 120.28 C 31.75 117.92 28.49 115.66 26.55 111.42 C 29.39 109.46 32.17 107.44 34.93 105.38 C 33.13 103.52 30.97 101.61 29.72 99.33 C 28.82 97.18 29.05 94.48 28.90 92.18 C 33.89 91.08 38.96 90.57 43.97 89.67 C 45.33 89.31 46.66 88.89 48.00 88.51 Z" fill="#b2b2b2" />
<path d="M 48.03 99.33 C 49.24 103.74 50.80 108.06 52.12 112.44 C 52.76 112.37 53.40 112.30 54.04 112.24 C 53.28 115.20 52.86 118.30 52.37 121.31 C 50.04 120.51 47.62 119.98 45.88 118.13 C 42.15 114.35 41.20 107.82 43.02 102.95 C 43.68 100.88 46.30 100.27 48.03 99.33 Z" fill="#e4e4e4" />
<path d="M 101.98 101.06 C 105.46 101.06 108.46 100.37 111.39 102.67 C 115.23 105.69 119.81 105.75 121.28 110.89 C 119.31 112.30 116.52 112.66 114.23 113.38 C 109.45 114.66 105.95 117.37 101.43 119.40 C 96.99 121.37 92.35 122.92 87.74 124.43 C 86.48 124.33 85.22 124.23 83.97 124.05 C 89.76 118.66 95.68 113.69 102.02 108.95 C 102.03 107.33 102.04 105.70 102.01 104.08 C 102.00 103.07 101.99 102.07 101.98 101.06 Z" fill="#8f8f8f" />
<path d="M 155.12 107.00 C 156.57 109.13 157.93 111.31 159.17 113.56 C 159.78 123.58 159.52 133.55 155.98 143.09 C 151.38 144.42 146.77 145.41 142.03 146.12 C 141.10 149.27 140.68 152.38 140.51 155.64 C 140.38 158.36 139.11 160.46 138.06 162.94 C 136.98 165.28 136.25 167.69 135.32 170.08 C 130.30 160.34 121.46 152.55 111.21 148.73 C 110.84 150.89 110.47 153.05 110.18 155.23 C 110.43 152.13 110.66 149.03 110.78 145.92 C 113.72 144.50 116.58 142.90 119.57 141.60 C 123.77 139.70 128.73 139.96 133.30 139.59 C 129.52 136.03 124.98 135.16 120.31 133.39 C 121.47 130.59 122.76 127.82 123.77 124.97 C 126.94 124.07 130.08 123.07 133.22 122.09 C 133.64 123.41 134.05 124.74 134.47 126.07 C 138.06 124.88 141.42 123.91 144.34 121.38 C 149.21 117.48 152.19 112.39 155.12 107.00 Z" fill="#afafaf" />
<path d="M 117.70 131.69 C 118.58 132.24 119.43 132.83 120.31 133.39 C 124.98 135.16 129.52 136.03 133.30 139.59 C 128.73 139.96 123.77 139.70 119.57 141.60 C 116.58 142.90 113.72 144.50 110.78 145.92 C 110.80 142.70 110.38 139.54 109.62 136.42 C 112.47 135.06 114.96 133.21 117.70 131.69 Z" fill="#d2d2d2" />
<path d="M 97.34 133.35 C 98.85 134.80 100.37 136.23 101.91 137.65 C 101.87 138.68 101.83 139.71 101.79 140.74 C 101.58 142.50 101.29 144.24 101.00 145.98 C 98.09 144.58 95.26 143.01 92.30 141.71 C 88.35 139.93 83.96 139.96 79.70 139.49 C 81.81 137.81 83.63 136.09 86.31 135.37 C 89.92 134.42 93.66 133.92 97.34 133.35 Z" fill="#d3d3d3" />
<path d="M 109.62 136.42 C 110.38 139.54 110.80 142.70 110.78 145.92 C 110.66 149.03 110.43 152.13 110.18 155.23 C 109.47 161.82 108.60 168.45 107.05 174.90 C 106.89 175.56 106.73 176.22 106.56 176.88 C 106.01 176.23 105.46 175.59 104.92 174.95 C 103.58 166.42 101.70 158.17 101.83 149.47 C 101.81 146.56 101.77 143.65 101.79 140.74 C 101.83 139.71 101.87 138.68 101.91 137.65 C 104.47 137.19 107.06 136.90 109.62 136.42 Z" fill="#8c8c8c" />
<path d="M 56.68 143.47 C 61.34 144.39 65.97 145.45 70.66 146.27 C 71.28 149.58 71.43 152.87 71.48 156.22 C 71.46 158.12 72.68 159.67 73.45 161.38 C 69.38 158.26 64.60 155.62 61.18 151.79 C 58.99 149.32 57.97 146.43 56.68 143.47 Z" fill="#bfbfbf" />
<path d="M 155.98 143.09 C 154.45 146.66 152.66 150.14 149.92 152.95 C 146.28 156.79 141.74 159.18 138.06 162.94 C 139.11 160.46 140.38 158.36 140.51 155.64 C 140.68 152.38 141.10 149.27 142.03 146.12 C 146.77 145.41 151.38 144.42 155.98 143.09 Z" fill="#bebebe" />
<path d="M 101.83 149.47 C 101.70 158.17 103.58 166.42 104.92 174.95 C 99.66 174.94 94.35 175.18 89.10 174.78 C 84.70 174.43 80.74 172.66 76.89 170.61 C 79.53 165.80 82.54 161.33 86.80 157.78 C 91.28 154.13 95.86 150.08 101.83 149.47 Z" fill="#d2d2d2" />
<path d="M 111.21 148.73 C 121.46 152.55 130.30 160.34 135.32 170.08 C 126.82 176.33 116.99 174.55 107.05 174.90 C 108.60 168.45 109.47 161.82 110.18 155.23 C 110.47 153.05 110.84 150.89 111.21 148.73 Z" fill="#d2d2d2" /></svg>