<?xml version="1.0" encoding="UTF-8" standalone="no"?>
<!DOCTYPE svg PUBLIC "-//W3C//DTD SVG 1.1//EN" "http://www.w3.org/Graphics/SVG/1.1/DTD/svg11.dtd">
<svg viewBox="0 0 192 192" height="192.0pt" width="192.0pt" xmlns="http://www.w3.org/2000/svg" version="1.1">
<path d="M 66.54 20.96 C 71.74 23.50 76.76 24.79 80.05 29.97 C 85.86 39.85 86.77 50.50 84.50 61.62 C 83.98 64.66 83.62 67.47 84.89 70.41 C 82.00 73.78 77.67 74.45 74.71 77.70 C 70.29 82.34 67.05 89.93 61.56 93.50 C 51.88 97.17 55.89 110.84 61.69 116.31 C 64.20 118.46 67.74 122.33 70.87 118.97 C 78.78 115.98 86.36 119.03 93.76 121.29 C 108.28 119.65 124.64 123.68 138.14 118.21 C 145.60 118.46 155.36 115.91 161.06 120.91 C 163.40 120.79 170.92 122.31 171.24 119.06 C 173.54 122.03 175.25 125.00 176.36 128.61 C 176.76 135.02 178.32 140.46 175.68 146.67 C 172.38 153.53 167.24 159.62 162.68 165.70 C 159.22 170.19 151.82 176.06 146.90 170.13 C 142.05 161.54 134.06 166.99 124.85 163.16 C 118.86 162.53 115.03 150.60 109.01 157.17 C 105.67 151.10 112.91 152.44 116.52 152.64 C 118.01 158.53 125.20 161.61 130.77 161.59 C 133.66 164.98 139.82 159.49 143.00 162.80 C 146.83 165.01 147.33 171.31 152.87 169.91 C 157.82 167.96 163.26 163.79 164.58 158.37 C 159.83 154.80 154.36 151.56 148.28 151.38 C 143.61 152.90 144.14 155.70 143.72 159.87 C 139.24 158.20 138.07 154.18 135.44 150.58 C 133.77 146.50 128.55 148.48 125.03 147.83 C 127.24 146.68 130.25 145.77 131.74 143.71 C 131.72 139.76 130.68 135.71 129.44 131.97 C 130.23 128.73 131.31 125.48 131.83 122.19 C 119.61 121.85 107.25 121.89 95.02 122.18 C 96.98 124.02 99.14 125.59 100.95 127.60 C 98.56 127.54 95.57 126.73 94.67 129.75 C 93.53 134.18 94.08 139.08 93.46 143.67 C 96.11 145.71 99.00 146.43 102.02 147.77 C 99.12 147.98 96.16 147.88 93.28 148.29 C 91.18 151.63 91.39 161.39 94.06 164.61 C 98.65 163.22 103.27 161.98 107.95 160.92 C 106.40 164.56 103.20 163.98 99.94 164.90 C 94.49 165.22 92.34 172.45 86.98 173.00 C 77.39 174.69 67.86 175.61 58.12 174.81 C 55.91 174.25 53.73 173.37 52.89 171.05 C 57.10 173.63 60.69 171.70 65.17 172.65 C 72.30 173.81 78.91 172.40 85.96 171.76 C 84.63 171.19 83.29 170.68 81.97 170.09 C 84.35 170.10 86.69 170.40 89.06 170.64 C 84.95 166.72 75.97 171.57 70.40 169.94 C 74.50 164.65 67.68 156.81 64.29 152.71 C 61.43 149.99 59.76 149.68 56.06 150.98 C 56.85 147.40 58.06 143.91 58.79 140.33 C 57.07 138.64 56.47 137.58 56.00 135.13 C 57.33 135.87 58.56 136.72 59.86 137.49 C 61.80 132.11 64.79 127.39 67.00 122.21 C 63.08 121.85 59.05 121.80 55.14 122.20 C 54.62 125.54 56.20 129.15 54.48 131.97 C 51.93 126.08 51.98 120.00 50.43 113.88 C 50.99 104.91 52.90 96.39 51.80 87.30 C 47.56 81.78 42.34 81.49 36.09 79.90 C 26.16 75.70 26.62 67.36 19.44 60.58 C 14.52 54.95 14.42 48.66 14.70 41.60 C 19.26 29.03 29.08 26.20 40.48 22.00 C 49.50 20.99 57.40 18.97 66.54 20.96 Z" fill="#d7d7d7" />
<path d="M 76.43 23.55 C 86.55 29.85 89.16 40.72 88.82 51.95 C 88.07 56.28 87.59 60.57 88.21 64.96 C 96.15 62.95 103.51 59.33 112.00 59.00 C 128.60 60.44 143.85 67.65 155.78 79.23 C 163.77 89.72 170.12 101.80 173.50 114.60 C 175.60 120.81 179.75 125.60 180.61 132.36 C 182.41 142.40 180.11 149.16 173.98 156.99 C 168.63 163.83 161.93 175.11 152.85 176.86 C 146.15 178.42 143.96 169.26 137.99 169.13 C 130.22 168.58 122.75 167.30 116.18 162.84 C 113.32 160.64 112.41 163.83 110.37 165.38 C 107.34 168.60 103.53 167.34 99.98 169.01 C 96.65 171.12 94.92 174.67 90.91 175.92 C 84.00 178.06 76.23 177.93 69.02 178.94 C 61.50 178.97 52.55 180.66 48.46 172.59 C 43.76 162.69 54.61 150.79 53.95 141.04 C 52.65 136.04 50.25 131.29 48.64 126.37 C 46.12 119.51 47.05 111.24 47.12 103.99 C 47.99 97.68 49.19 92.17 45.63 86.36 C 40.25 83.98 34.46 84.52 29.56 80.47 C 23.03 76.46 22.96 70.00 18.24 64.76 C 15.13 61.16 12.57 57.32 11.39 52.66 C 6.42 36.37 26.03 20.88 40.48 22.00 C 29.08 26.20 19.26 29.03 14.70 41.60 C 10.33 45.96 14.06 56.95 17.88 61.14 C 24.88 67.60 24.25 76.13 33.66 80.35 C 39.45 84.03 48.14 81.14 49.43 89.60 C 51.45 103.46 45.58 115.91 52.17 129.87 C 53.57 133.75 55.71 137.87 56.02 142.00 C 56.10 146.09 53.85 149.11 54.84 153.17 C 53.75 155.64 52.79 158.16 51.78 160.66 C 48.54 162.27 49.58 171.68 52.23 173.77 C 57.62 178.04 63.72 177.26 70.05 176.22 C 78.49 175.44 91.55 177.11 96.35 168.33 C 101.00 164.31 107.81 167.84 110.69 160.68 C 112.66 156.68 114.01 157.75 116.78 160.21 C 122.78 166.21 133.73 166.48 141.64 167.39 C 146.45 171.19 147.52 175.58 154.88 173.86 C 162.99 170.01 168.80 160.08 174.04 153.02 C 179.04 146.89 181.52 135.07 176.36 128.61 C 175.25 125.00 173.54 122.03 171.24 119.06 C 167.64 106.69 163.18 94.90 155.87 84.17 C 153.30 78.73 149.65 76.32 144.73 73.27 C 135.08 64.99 123.30 62.39 111.16 60.23 C 102.57 62.66 91.75 64.42 84.89 70.41 C 83.62 67.47 83.98 64.66 84.50 61.62 C 86.77 50.50 85.86 39.85 80.05 29.97 C 76.76 24.79 71.74 23.50 66.54 20.96 C 69.78 19.20 73.70 21.80 76.43 23.55 Z" fill="#f2f2f2" />
<path d="M 49.34 27.32 C 53.60 26.95 58.86 29.57 59.95 34.08 C 62.54 39.24 59.27 45.28 54.17 47.20 C 48.26 50.05 40.36 44.49 40.90 38.00 C 40.43 33.10 44.70 28.32 49.34 27.32 Z" fill="#999999" />
<path d="M 29.43 30.54 L 30.67 29.91 C 29.87 33.83 28.79 37.78 27.51 41.57 C 24.46 43.43 20.60 44.56 17.05 44.94 C 18.89 37.25 22.58 33.95 29.43 30.54 Z" fill="#aeaeae" />
<path d="M 14.70 41.60 C 14.42 48.66 14.52 54.95 19.44 60.58 C 26.62 67.36 26.16 75.70 36.09 79.90 C 42.34 81.49 47.56 81.78 51.80 87.30 C 52.90 96.39 50.99 104.91 50.43 113.88 C 51.98 120.00 51.93 126.08 54.48 131.97 C 56.20 129.15 54.62 125.54 55.14 122.20 C 59.05 121.80 63.08 121.85 67.00 122.21 C 64.79 127.39 61.80 132.11 59.86 137.49 C 58.56 136.72 57.33 135.87 56.00 135.13 C 56.47 137.58 57.07 138.64 58.79 140.33 C 58.06 143.91 56.85 147.40 56.06 150.98 C 55.65 151.71 55.25 152.44 54.84 153.17 C 53.85 149.11 56.10 146.09 56.02 142.00 C 55.71 137.87 53.57 133.75 52.17 129.87 C 45.58 115.91 51.45 103.46 49.43 89.60 C 48.14 81.14 39.45 84.03 33.66 80.35 C 24.25 76.13 24.88 67.60 17.88 61.14 C 14.06 56.95 10.33 45.96 14.70 41.60 Z" fill="#e8e8e8" />
<path d="M 111.16 60.23 C 123.30 62.39 135.08 64.99 144.73 73.27 C 149.65 76.32 153.30 78.73 155.87 84.17 C 163.18 94.90 167.64 106.69 171.24 119.06 C 170.92 122.31 163.40 120.79 161.06 120.91 C 155.36 115.91 145.60 118.46 138.14 118.21 C 124.64 123.68 108.28 119.65 93.76 121.29 C 86.36 119.03 78.78 115.98 70.87 118.97 C 67.74 122.33 64.20 118.46 61.69 116.31 C 55.89 110.84 51.88 97.17 61.56 93.50 C 67.05 89.93 70.29 82.34 74.71 77.70 C 77.67 74.45 82.00 73.78 84.89 70.41 C 91.75 64.42 102.57 62.66 111.16 60.23 Z" fill="#c8c8c8" />
<path d="M 95.02 122.18 C 107.25 121.89 119.61 121.85 131.83 122.19 C 131.31 125.48 130.23 128.73 129.44 131.97 C 126.52 138.10 121.14 142.12 116.27 147.26 C 114.70 149.02 112.56 149.63 110.39 148.62 C 103.94 143.14 98.56 137.35 94.67 129.75 C 95.57 126.73 98.56 127.54 100.95 127.60 C 99.14 125.59 96.98 124.02 95.02 122.18 Z" fill="#ebebeb" />
<path d="M 159.16 122.21 C 162.97 121.81 167.09 121.82 170.90 122.22 C 170.61 127.04 169.78 133.75 165.92 137.12 C 160.35 135.97 158.17 127.02 159.16 122.21 Z" fill="#ebebeb" />
<path d="M 176.36 128.61 C 181.52 135.07 179.04 146.89 174.04 153.02 C 168.80 160.08 162.99 170.01 154.88 173.86 C 147.52 175.58 146.45 171.19 141.64 167.39 C 133.73 166.48 122.78 166.21 116.78 160.21 C 114.01 157.75 112.66 156.68 110.69 160.68 C 107.81 167.84 101.00 164.31 96.35 168.33 C 91.55 177.11 78.49 175.44 70.05 176.22 C 63.72 177.26 57.62 178.04 52.23 173.77 C 49.58 171.68 48.54 162.27 51.78 160.66 C 51.56 164.51 50.64 167.57 52.89 171.05 C 53.73 173.37 55.91 174.25 58.12 174.81 C 67.86 175.61 77.39 174.69 86.98 173.00 C 92.34 172.45 94.49 165.22 99.94 164.90 C 103.20 163.98 106.40 164.56 107.95 160.92 C 108.58 159.73 108.76 158.48 109.01 157.17 C 115.03 150.60 118.86 162.53 124.85 163.16 C 134.06 166.99 142.05 161.54 146.90 170.13 C 151.82 176.06 159.22 170.19 162.68 165.70 C 167.24 159.62 172.38 153.53 175.68 146.67 C 178.32 140.46 176.76 135.02 176.36 128.61 Z" fill="#e5e5e5" />
<path d="M 94.67 129.75 C 98.56 137.35 103.94 143.14 110.39 148.62 C 112.56 149.63 114.70 149.02 116.27 147.26 C 121.14 142.12 126.52 138.10 129.44 131.97 C 130.68 135.71 131.72 139.76 131.74 143.71 C 130.25 145.77 127.24 146.68 125.03 147.83 C 128.55 148.48 133.77 146.50 135.44 150.58 C 138.07 154.18 139.24 158.20 143.72 159.87 C 144.14 155.70 143.61 152.90 148.28 151.38 C 154.36 151.56 159.83 154.80 164.58 158.37 C 163.26 163.79 157.82 167.96 152.87 169.91 C 147.33 171.31 146.83 165.01 143.00 162.80 C 139.82 159.49 133.66 164.98 130.77 161.59 C 125.20 161.61 118.01 158.53 116.52 152.64 C 112.91 152.44 105.67 151.10 109.01 157.17 C 108.76 158.48 108.58 159.73 107.95 160.92 C 103.27 161.98 98.65 163.22 94.06 164.61 C 91.39 161.39 91.18 151.63 93.28 148.29 C 96.16 147.88 99.12 147.98 102.02 147.77 C 99.00 146.43 96.11 145.71 93.46 143.67 C 94.08 139.08 93.53 134.18 94.67 129.75 Z" fill="#c0c0c0" />
<path d="M 64.29 152.71 C 67.68 156.81 74.50 164.65 70.40 169.94 C 75.97 171.57 84.95 166.72 89.06 170.64 C 86.69 170.40 84.35 170.10 81.97 170.09 C 83.29 170.68 84.63 171.19 85.96 171.76 C 78.91 172.40 72.30 173.81 65.17 172.65 C 60.69 171.70 57.10 173.63 52.89 171.05 C 50.64 167.57 51.56 164.51 51.78 160.66 C 52.79 158.16 53.75 155.64 54.84 153.17 C 55.25 152.44 55.65 151.71 56.06 150.98 C 59.76 149.68 61.43 149.99 64.29 152.71 Z" fill="#c6c6c6" /></svg>