<?xml version="1.0" encoding="UTF-8" standalone="no"?>
<!DOCTYPE svg PUBLIC "-//W3C//DTD SVG 1.1//EN" "http://www.w3.org/Graphics/SVG/1.1/DTD/svg11.dtd">
<svg viewBox="0 0 192 192" height="192.0pt" width="192.0pt" xmlns="http://www.w3.org/2000/svg" version="1.1">
<path d="M 77.49 33.55 C 81.23 32.75 85.35 33.13 89.12 33.64 C 89.94 37.30 90.89 40.94 92.00 44.52 C 94.99 43.19 97.69 43.08 100.90 43.37 C 101.64 40.06 102.46 36.77 103.45 33.52 C 107.28 32.96 111.55 32.22 115.26 33.76 C 116.14 34.64 116.77 35.81 117.40 36.87 C 116.99 38.80 116.88 41.15 115.82 42.85 C 114.29 44.72 111.80 45.93 109.78 47.22 C 110.76 55.37 110.65 64.02 113.84 71.40 C 115.17 69.08 116.53 66.81 118.16 64.69 L 118.60 64.06 C 118.95 66.98 119.16 69.88 119.15 72.82 C 114.37 76.86 109.99 81.32 105.83 85.99 C 101.77 81.50 98.10 79.66 92.07 78.83 L 91.84 78.81 C 90.26 83.24 86.51 85.25 84.00 89.00 C 80.56 94.16 77.84 99.72 76.92 105.90 C 80.33 102.15 82.36 97.51 85.76 93.75 C 85.95 96.20 86.06 98.65 86.16 101.11 C 89.13 96.64 92.09 93.87 96.81 91.30 C 97.15 92.91 97.50 94.52 97.80 96.13 C 98.10 99.61 98.57 103.07 99.03 106.53 C 94.87 105.97 90.78 106.78 87.49 109.49 C 85.84 111.23 84.99 113.84 84.16 116.05 C 83.10 114.38 82.12 113.28 80.01 113.22 C 78.59 113.93 77.29 115.01 76.04 115.97 C 76.54 113.75 77.21 111.61 77.81 109.43 C 74.42 110.35 71.27 111.14 67.73 110.46 C 64.26 110.30 59.13 109.10 56.18 111.30 C 56.73 114.48 57.84 117.44 59.00 120.44 L 59.26 121.43 C 58.03 121.56 57.29 121.58 56.25 120.80 C 52.52 118.33 48.90 115.38 46.28 111.73 C 43.49 107.85 39.97 104.73 36.99 101.01 C 26.23 87.98 18.18 72.36 13.90 56.00 C 15.50 52.90 18.40 51.39 17.52 47.58 C 19.18 48.93 21.01 50.06 22.71 51.35 C 24.83 52.90 26.03 55.80 27.01 58.15 C 31.39 71.71 38.18 84.78 47.02 95.97 C 48.44 97.86 49.93 99.13 51.98 100.30 C 51.09 97.88 49.94 95.61 48.63 93.39 C 41.92 81.78 38.09 69.09 35.67 55.96 C 36.40 53.73 36.76 50.95 39.16 49.87 C 41.46 49.22 44.18 49.21 45.69 51.37 C 47.16 53.53 47.64 56.49 48.21 59.00 C 50.17 70.42 53.98 81.42 59.28 91.71 C 60.30 93.70 61.64 95.47 63.10 97.16 C 62.39 91.83 60.44 86.87 59.49 81.58 C 58.11 74.83 57.84 68.00 56.81 61.20 C 57.95 59.07 59.80 53.77 62.86 54.18 C 67.42 55.91 68.50 60.46 69.22 64.78 C 69.67 70.31 69.18 77.59 72.48 82.28 C 72.78 79.12 73.01 75.96 73.60 72.83 L 74.76 73.28 C 75.15 70.53 75.45 67.77 75.69 65.00 C 76.21 65.76 76.71 66.54 77.20 67.32 C 77.66 69.18 78.06 71.05 78.52 72.91 C 81.04 64.91 82.73 56.58 81.84 48.16 C 81.87 46.19 79.56 45.76 78.27 44.64 C 75.60 43.13 75.55 40.49 74.59 37.86 C 75.34 36.31 75.97 34.52 77.49 33.55 Z" fill="#474c50" />
<path d="M 117.40 36.87 C 118.13 38.83 119.24 41.34 118.56 43.43 C 117.35 46.87 114.03 49.58 113.13 53.07 C 112.58 56.89 112.98 60.89 114.25 64.54 C 115.55 64.59 116.86 64.64 118.16 64.69 C 116.53 66.81 115.17 69.08 113.84 71.40 C 110.65 64.02 110.76 55.37 109.78 47.22 C 111.80 45.93 114.29 44.72 115.82 42.85 C 116.88 41.15 116.99 38.80 117.40 36.87 Z" fill="#dcdcdc" />
<path d="M 74.59 37.86 C 75.55 40.49 75.60 43.13 78.27 44.64 C 79.56 45.76 81.87 46.19 81.84 48.16 C 82.73 56.58 81.04 64.91 78.52 72.91 C 78.06 71.05 77.66 69.18 77.20 67.32 C 80.11 63.15 80.43 58.24 79.44 53.38 C 78.41 49.94 75.18 47.21 74.00 43.80 C 73.54 41.92 74.14 39.70 74.59 37.86 Z" fill="#d9d9d9" />
<path d="M 174.82 45.42 C 174.65 46.95 174.40 48.52 174.41 50.07 C 175.25 51.91 177.06 53.39 178.24 55.05 C 173.25 74.37 163.56 93.17 149.35 107.35 C 145.96 110.81 143.74 114.86 139.64 117.65 C 137.35 119.10 134.56 122.04 131.69 121.48 L 132.04 120.45 C 133.52 117.40 135.00 114.39 135.94 111.11 C 129.67 108.63 122.41 111.59 115.58 110.46 C 115.55 114.94 114.85 119.29 114.21 123.71 C 115.11 124.79 116.01 125.88 116.88 126.99 C 118.68 129.27 120.30 131.68 121.87 134.12 C 124.28 142.74 126.28 150.92 122.86 159.62 C 114.28 158.33 106.23 153.99 101.25 146.76 C 99.18 143.83 98.22 140.53 96.56 137.42 L 95.26 137.22 C 93.31 140.74 92.23 144.47 89.75 147.75 C 84.66 154.50 77.07 158.15 68.90 159.72 C 65.89 152.19 68.10 142.51 69.85 134.85 C 71.21 132.53 72.66 130.28 74.25 128.11 C 75.43 126.63 76.68 125.21 77.90 123.76 C 77.37 121.14 76.64 118.57 76.04 115.97 C 77.29 115.01 78.59 113.93 80.01 113.22 C 82.12 113.28 83.10 114.38 84.16 116.05 C 84.34 117.39 84.55 118.72 84.79 120.04 L 85.15 121.84 C 80.38 126.21 76.18 130.69 73.89 136.86 C 71.64 142.51 71.80 148.12 72.10 154.07 C 81.05 149.81 88.58 142.21 91.81 132.74 C 92.33 131.19 92.35 129.62 92.32 128.00 C 95.14 127.19 96.92 127.16 99.74 128.00 C 99.50 133.05 102.93 138.30 105.70 142.31 C 109.08 146.58 113.66 151.53 118.97 153.21 C 120.65 147.72 120.56 142.94 118.43 137.60 C 116.22 131.20 111.94 126.38 107.10 121.82 C 107.05 120.89 107.00 119.96 106.94 119.03 C 108.65 118.64 110.32 118.12 111.98 117.57 C 109.89 114.14 106.29 113.17 105.24 108.98 C 104.12 105.34 102.65 101.80 101.00 98.37 C 103.11 97.27 105.20 96.13 107.29 95.00 C 109.87 98.46 111.52 102.43 114.03 105.93 C 113.26 98.57 109.86 92.08 105.83 85.99 C 109.99 81.32 114.37 76.86 119.15 72.82 C 119.18 75.20 119.25 77.57 119.40 79.94 C 120.79 78.08 122.39 76.18 122.87 73.86 C 123.62 70.32 123.55 66.44 123.76 62.83 C 124.79 59.09 125.79 55.26 130.12 54.32 C 132.97 54.26 134.51 57.87 135.33 60.08 C 135.23 68.32 134.13 76.40 132.39 84.44 C 131.41 89.06 129.80 93.48 128.99 98.14 C 130.39 96.44 131.70 94.68 132.75 92.73 C 138.69 81.57 142.83 69.54 144.93 57.07 C 145.60 54.79 146.13 51.64 148.10 50.11 C 149.74 48.98 151.70 47.77 153.55 49.23 C 156.30 50.96 156.55 53.99 156.86 56.93 C 154.53 67.16 152.21 77.17 147.74 86.74 C 145.58 91.65 142.43 95.67 140.84 100.84 C 142.46 99.46 144.00 98.00 145.33 96.33 C 154.62 84.68 161.48 71.31 165.97 57.12 C 167.82 52.14 171.97 49.69 174.82 45.42 Z" fill="#41464a" />
<path d="M 178.24 55.05 C 180.37 59.93 178.98 64.45 177.25 69.17 C 172.66 81.26 166.53 93.26 158.34 103.32 C 154.86 107.83 150.80 111.76 147.14 116.10 C 144.51 119.16 141.51 122.37 137.59 123.72 C 135.36 124.46 133.22 123.88 130.99 123.48 C 131.22 122.82 131.45 122.15 131.69 121.48 C 134.56 122.04 137.35 119.10 139.64 117.65 C 143.74 114.86 145.96 110.81 149.35 107.35 C 163.56 93.17 173.25 74.37 178.24 55.05 Z" fill="#dcdcdc" />
<path d="M 13.90 56.00 C 18.18 72.36 26.23 87.98 36.99 101.01 C 39.97 104.73 43.49 107.85 46.28 111.73 C 48.90 115.38 52.52 118.33 56.25 120.80 C 57.29 121.58 58.03 121.56 59.26 121.43 C 59.39 121.93 59.52 122.42 59.65 122.92 C 57.50 123.81 55.78 124.83 53.46 123.65 C 48.10 121.24 44.17 115.04 40.19 110.81 C 28.38 97.93 19.27 82.79 13.72 66.20 C 12.68 62.73 12.13 59.35 13.90 56.00 Z" fill="#dddddd" />
<path d="M 35.67 55.96 C 38.09 69.09 41.92 81.78 48.63 93.39 C 49.94 95.61 51.09 97.88 51.98 100.30 C 49.93 99.13 48.44 97.86 47.02 95.97 C 38.18 84.78 31.39 71.71 27.01 58.15 C 28.60 58.47 30.27 58.86 31.89 58.94 C 33.34 58.37 34.57 57.04 35.67 55.96 Z" fill="#919598" />
<path d="M 144.93 57.07 C 142.83 69.54 138.69 81.57 132.75 92.73 C 131.70 94.68 130.39 96.44 128.99 98.14 C 129.80 93.48 131.41 89.06 132.39 84.44 C 134.13 76.40 135.23 68.32 135.33 60.08 C 136.85 60.72 138.84 62.06 140.51 61.43 C 142.35 60.65 143.77 58.64 144.93 57.07 Z" fill="#8c9093" />
<path d="M 156.86 56.93 C 158.21 57.83 159.56 58.95 161.07 59.57 C 162.84 59.51 164.58 58.11 165.97 57.12 C 161.48 71.31 154.62 84.68 145.33 96.33 C 144.00 98.00 142.46 99.46 140.84 100.84 C 142.43 95.67 145.58 91.65 147.74 86.74 C 152.21 77.17 154.53 67.16 156.86 56.93 Z" fill="#8b8f92" />
<path d="M 48.21 59.00 C 51.42 61.56 52.78 61.68 56.81 61.20 C 57.84 68.00 58.11 74.83 59.49 81.58 C 60.44 86.87 62.39 91.83 63.10 97.16 C 61.64 95.47 60.30 93.70 59.28 91.71 C 53.98 81.42 50.17 70.42 48.21 59.00 Z" fill="#909497" />
<path d="M 119.39 62.10 C 119.57 64.15 119.76 66.20 120.02 68.25 C 121.72 66.61 122.86 65.01 123.76 62.83 C 123.55 66.44 123.62 70.32 122.87 73.86 C 122.39 76.18 120.79 78.08 119.40 79.94 C 119.25 77.57 119.18 75.20 119.15 72.82 C 119.16 69.88 118.95 66.98 118.60 64.06 C 118.86 63.41 119.13 62.75 119.39 62.10 Z" fill="#8e9295" />
<path d="M 69.22 64.78 C 70.87 67.40 72.36 70.00 73.60 72.83 C 73.01 75.96 72.78 79.12 72.48 82.28 C 69.18 77.59 69.67 70.31 69.22 64.78 Z" fill="#8f9396" />
<path d="M 91.84 78.81 L 92.07 78.83 C 98.10 79.66 101.77 81.50 105.83 85.99 C 109.86 92.08 113.26 98.57 114.03 105.93 C 111.52 102.43 109.87 98.46 107.29 95.00 C 105.20 96.13 103.11 97.27 101.00 98.37 C 100.04 96.89 98.99 95.47 97.88 94.09 L 97.80 96.13 C 97.50 94.52 97.15 92.91 96.81 91.30 C 92.09 93.87 89.13 96.64 86.16 101.11 C 86.06 98.65 85.95 96.20 85.76 93.75 C 82.36 97.51 80.33 102.15 76.92 105.90 C 77.84 99.72 80.56 94.16 84.00 89.00 C 86.51 85.25 90.26 83.24 91.84 78.81 Z" fill="#8e9295" />
<path d="M 97.88 94.09 C 98.99 95.47 100.04 96.89 101.00 98.37 C 102.65 101.80 104.12 105.34 105.24 108.98 L 105.06 110.75 C 102.97 109.45 100.98 108.03 99.03 106.53 C 98.57 103.07 98.10 99.61 97.80 96.13 L 97.88 94.09 Z" fill="#ffffff" />
<path d="M 99.03 106.53 C 100.98 108.03 102.97 109.45 105.06 110.75 L 105.24 108.98 C 106.29 113.17 109.89 114.14 111.98 117.57 C 110.32 118.12 108.65 118.64 106.94 119.03 C 103.83 119.52 100.94 120.47 97.97 121.48 C 95.38 122.41 93.27 121.04 90.81 120.33 C 88.77 119.54 86.91 119.94 84.79 120.04 C 84.55 118.72 84.34 117.39 84.16 116.05 C 84.99 113.84 85.84 111.23 87.49 109.49 C 90.78 106.78 94.87 105.97 99.03 106.53 Z" fill="#b4c2c1" />
<path d="M 77.81 109.43 C 77.21 111.61 76.54 113.75 76.04 115.97 C 76.64 118.57 77.37 121.14 77.90 123.76 C 76.68 125.21 75.43 126.63 74.25 128.11 C 75.10 124.26 75.57 120.21 73.29 116.73 C 70.49 114.56 65.65 114.37 62.34 115.23 C 59.92 115.87 59.74 118.45 59.00 120.44 C 57.84 117.44 56.73 114.48 56.18 111.30 C 59.13 109.10 64.26 110.30 67.73 110.46 C 71.27 111.14 74.42 110.35 77.81 109.43 Z" fill="#d3d3d3" />
<path d="M 115.58 110.46 C 122.41 111.59 129.67 108.63 135.94 111.11 C 135.00 114.39 133.52 117.40 132.04 120.45 C 131.98 119.05 131.90 117.64 131.82 116.24 C 128.06 114.40 123.03 114.39 119.33 116.36 C 116.48 118.42 117.02 123.88 116.88 126.99 C 116.01 125.88 115.11 124.79 114.21 123.71 C 114.85 119.29 115.55 114.94 115.58 110.46 Z" fill="#d4d4d4" />
<path d="M 90.81 120.33 C 93.27 121.04 95.38 122.41 97.97 121.48 C 100.94 120.47 103.83 119.52 106.94 119.03 C 107.00 119.96 107.05 120.89 107.10 121.82 C 104.77 124.05 102.47 126.25 99.74 128.00 C 96.92 127.16 95.14 127.19 92.32 128.00 C 89.67 126.22 87.33 124.16 85.15 121.84 L 84.79 120.04 C 86.91 119.94 88.77 119.54 90.81 120.33 Z" fill="#ffffff" />
<path d="M 85.15 121.84 C 87.33 124.16 89.67 126.22 92.32 128.00 C 92.35 129.62 92.33 131.19 91.81 132.74 C 88.58 142.21 81.05 149.81 72.10 154.07 C 71.80 148.12 71.64 142.51 73.89 136.86 C 76.18 130.69 80.38 126.21 85.15 121.84 Z" fill="#ffc8ce" />
<path d="M 107.10 121.82 C 111.94 126.38 116.22 131.20 118.43 137.60 C 120.56 142.94 120.65 147.72 118.97 153.21 C 113.66 151.53 109.08 146.58 105.70 142.31 C 102.93 138.30 99.50 133.05 99.74 128.00 C 102.47 126.25 104.77 124.05 107.10 121.82 Z" fill="#ffc7ce" />
<path d="M 121.87 134.12 C 123.51 136.40 124.81 138.78 125.41 141.56 C 126.58 146.60 127.51 152.34 126.39 157.45 C 125.63 160.59 123.44 163.23 119.99 163.28 C 115.17 163.38 110.16 160.40 106.38 157.63 C 102.20 154.61 99.95 150.14 95.98 146.89 C 93.93 148.58 92.23 150.54 90.60 152.63 C 87.02 157.16 82.01 160.59 76.59 162.53 C 73.86 163.38 70.42 163.98 68.09 161.87 C 65.10 159.19 65.06 154.85 65.26 151.14 C 65.83 145.39 66.54 139.73 69.85 134.85 C 68.10 142.51 65.89 152.19 68.90 159.72 C 77.07 158.15 84.66 154.50 89.75 147.75 C 92.23 144.47 93.31 140.74 95.26 137.22 L 96.56 137.42 C 98.22 140.53 99.18 143.83 101.25 146.76 C 106.23 153.99 114.28 158.33 122.86 159.62 C 126.28 150.92 124.28 142.74 121.87 134.12 Z" fill="#dadada" /></svg>