<?xml version="1.0" encoding="UTF-8" standalone="no"?>
<!DOCTYPE svg PUBLIC "-//W3C//DTD SVG 1.1//EN" "http://www.w3.org/Graphics/SVG/1.1/DTD/svg11.dtd">
<svg viewBox="0 0 192 192" height="192.0pt" width="192.0pt" xmlns="http://www.w3.org/2000/svg" version="1.1">
<path d="M 71.75 32.23 C 75.13 35.34 76.12 39.24 77.44 43.46 C 80.36 40.58 82.43 37.54 86.99 37.48 C 92.41 37.12 96.17 41.22 98.17 45.80 C 101.26 53.38 99.22 62.15 94.76 68.74 C 93.51 70.71 90.77 71.63 88.76 72.69 C 92.43 77.01 95.61 81.15 96.11 87.04 C 96.44 89.91 94.37 91.98 91.90 92.98 C 84.77 95.77 76.61 94.89 69.77 96.02 C 61.46 97.67 53.43 102.93 45.47 105.65 C 41.64 107.35 37.33 104.68 35.88 101.05 C 33.89 96.52 35.08 92.46 35.38 87.77 C 31.67 86.83 28.15 86.39 24.98 84.09 C 19.14 80.13 14.49 73.20 14.36 66.00 C 14.32 61.79 15.63 57.64 19.51 55.49 C 23.24 53.23 27.77 54.91 31.72 55.63 C 31.19 51.11 30.00 47.15 31.64 42.68 C 33.09 38.23 37.00 34.86 41.86 35.27 C 46.80 35.60 49.49 39.29 52.77 42.46 C 54.02 38.65 54.85 34.73 57.90 31.90 C 61.60 28.24 68.21 28.39 71.75 32.23 Z" fill="#48afe3" />
<path d="M 56.63 57.75 C 59.33 61.00 61.19 64.47 66.00 64.48 C 70.78 64.60 72.90 60.85 75.50 57.57 C 76.33 61.23 77.64 64.51 79.43 67.80 C 75.36 66.73 71.25 65.41 67.00 65.64 C 62.76 65.87 58.53 67.06 54.56 68.52 C 49.79 70.26 46.06 73.80 42.12 76.90 C 41.53 73.79 40.89 70.69 40.34 67.57 C 44.17 69.18 47.27 70.82 51.27 68.41 C 55.57 65.95 55.41 61.99 56.63 57.75 Z" fill="#ffffff" />
<path d="M 134.73 90.26 C 137.29 92.92 138.17 96.97 139.29 100.40 C 142.11 97.53 144.38 94.51 148.45 93.41 C 153.68 91.61 158.98 95.52 160.59 100.44 C 162.25 104.95 161.03 108.95 160.24 113.46 C 163.70 112.49 167.22 110.76 170.80 112.12 C 176.44 113.90 178.90 120.38 178.02 125.83 C 176.73 133.17 171.43 139.57 165.01 143.12 C 162.40 144.59 159.52 144.53 156.61 144.79 C 157.07 148.67 158.04 152.94 156.90 156.74 C 156.18 159.26 155.02 161.54 152.50 162.66 C 149.88 163.95 147.41 163.21 144.82 162.31 C 136.77 159.24 129.68 154.39 121.04 153.14 C 113.87 151.91 106.08 153.30 99.46 149.66 C 96.11 147.89 95.99 144.18 96.79 140.92 C 97.68 136.59 100.37 133.84 103.15 130.64 C 100.98 129.34 98.32 128.22 96.94 126.03 C 92.79 119.95 91.63 111.66 93.65 104.62 C 95.36 99.77 99.28 94.68 105.01 95.14 C 109.88 94.95 111.74 98.37 114.70 101.47 C 116.03 97.02 117.13 92.93 120.71 89.70 C 124.35 85.91 131.33 86.38 134.73 90.26 Z" fill="#48afe3" />
<path d="M 135.62 115.63 C 136.55 119.93 136.68 123.75 140.74 126.39 C 144.30 128.72 148.05 126.62 151.64 125.52 C 151.38 128.58 150.94 131.60 150.44 134.62 C 146.97 131.80 144.07 128.82 139.95 126.96 C 135.89 125.15 131.45 124.06 127.04 123.55 C 122.31 123.05 118.18 124.18 113.55 124.86 C 114.49 121.95 115.65 119.15 116.84 116.35 C 119.57 119.19 121.53 122.66 126.00 122.50 C 130.85 122.48 132.92 118.97 135.62 115.63 Z" fill="#ffffff" /></svg>