<?xml version="1.0" encoding="UTF-8" standalone="no"?>
<!DOCTYPE svg PUBLIC "-//W3C//DTD SVG 1.1//EN" "http://www.w3.org/Graphics/SVG/1.1/DTD/svg11.dtd">
<svg viewBox="0 0 192 192" height="192.0pt" width="192.0pt" xmlns="http://www.w3.org/2000/svg" version="1.1">
<path d="M 92.19 15.66 C 97.83 18.76 103.13 21.65 107.37 26.62 C 109.12 28.39 110.91 31.05 113.26 31.98 C 117.13 32.49 121.13 31.51 125.05 31.95 C 133.54 32.67 141.12 38.47 145.19 45.77 C 147.52 49.91 147.74 54.94 149.98 59.03 C 152.03 61.03 155.12 62.10 157.61 63.49 C 163.18 66.23 167.51 71.18 170.27 76.67 C 173.81 83.81 171.66 91.44 175.09 98.83 C 177.75 104.79 179.90 110.37 178.12 116.98 C 178.12 114.95 178.05 112.92 177.95 110.89 C 176.60 115.48 175.58 119.82 172.75 123.78 C 168.98 129.05 163.02 132.86 157.05 135.21 C 149.89 137.22 144.15 141.75 136.91 142.70 C 134.01 142.82 131.04 142.56 128.17 142.92 C 124.36 145.21 121.24 148.39 117.10 150.23 C 115.43 150.61 113.79 151.02 112.10 151.27 C 109.30 151.79 106.33 151.96 103.64 152.89 C 101.19 154.08 99.13 156.23 97.00 157.91 C 92.93 160.40 88.75 162.08 83.89 161.99 C 82.25 162.05 80.60 162.04 78.96 161.98 C 74.13 162.08 70.01 160.42 65.98 157.92 C 63.87 156.24 61.82 154.04 59.36 152.90 C 56.68 152.01 53.72 151.84 50.96 151.26 C 46.17 149.38 41.41 146.88 37.57 143.43 C 33.88 140.03 32.53 135.92 30.19 131.66 C 27.81 127.31 24.32 124.69 21.38 120.63 C 18.12 116.28 16.61 111.00 14.82 105.93 C 14.86 107.97 14.82 109.99 14.95 112.02 C 13.21 106.35 12.97 101.07 14.15 95.26 C 15.35 88.48 19.38 83.17 20.21 76.28 C 20.86 76.45 21.51 76.63 22.17 76.79 C 22.77 76.19 23.38 75.59 23.99 74.98 C 21.93 72.27 19.93 69.75 18.29 66.79 C 16.70 63.77 15.88 60.15 15.04 56.84 C 14.92 58.92 14.82 60.99 14.79 63.07 C 13.23 56.35 15.10 49.57 18.99 44.01 C 22.69 38.47 29.14 34.85 34.89 31.75 C 39.38 30.60 44.16 30.80 48.60 29.57 C 51.82 28.48 54.44 25.20 57.01 23.03 C 66.30 14.51 80.27 12.17 92.19 15.66 Z" fill="#dbe6ef" />
<path d="M 92.19 15.66 C 96.45 16.88 100.47 18.23 103.97 21.04 C 107.32 23.53 110.09 27.19 113.73 29.19 C 117.52 30.68 122.15 30.28 126.17 30.91 C 134.56 31.82 142.24 37.24 146.80 44.20 C 149.60 48.50 150.06 53.46 152.26 57.85 C 153.72 60.17 157.02 61.41 159.30 62.79 C 165.32 65.82 170.09 70.95 172.94 77.02 C 175.13 81.78 174.84 87.33 175.79 92.44 C 176.77 98.03 179.79 102.49 180.79 108.10 C 182.53 117.74 178.90 128.05 171.50 134.45 C 168.99 136.76 165.42 138.64 163.59 141.53 C 162.18 146.05 162.76 151.19 161.83 155.86 C 161.04 160.62 158.89 165.04 155.01 168.02 C 151.73 170.55 147.27 171.42 143.23 170.75 C 138.71 169.96 135.03 165.71 130.72 164.63 C 126.35 163.84 121.73 164.18 117.30 164.10 C 115.51 169.55 114.17 175.71 109.58 179.58 C 104.69 183.87 97.58 185.13 91.63 182.37 C 87.69 180.48 84.95 176.38 81.27 174.09 C 77.13 177.37 74.60 181.66 69.20 183.19 C 61.46 185.47 53.19 181.60 49.44 174.60 C 46.76 169.64 47.26 163.32 45.42 158.56 C 43.51 155.23 39.13 153.24 36.28 150.69 C 31.89 147.22 29.75 142.71 26.98 138.01 C 23.42 131.79 18.16 127.54 15.10 120.97 C 9.91 110.16 9.54 96.58 14.79 85.73 C 15.73 83.39 17.24 80.73 17.23 78.18 C 16.41 73.82 13.54 69.97 12.55 65.60 C 11.22 60.04 11.81 53.28 14.11 48.03 C 17.94 39.64 25.76 33.38 34.89 31.75 C 29.14 34.85 22.69 38.47 18.99 44.01 C 15.10 49.57 13.23 56.35 14.79 63.07 C 15.78 67.60 18.51 71.96 20.21 76.28 C 19.38 83.17 15.35 88.48 14.15 95.26 C 12.97 101.07 13.21 106.35 14.95 112.02 C 15.99 115.70 17.63 119.21 19.63 122.46 C 22.29 126.75 25.89 130.13 28.58 134.39 C 31.32 138.60 33.26 143.60 36.90 147.10 C 39.99 150.15 44.08 151.93 47.22 154.81 C 48.94 156.38 49.43 158.91 49.94 161.09 C 50.49 164.43 51.05 167.63 52.28 170.80 C 53.30 173.31 54.27 175.77 56.48 177.49 C 60.77 180.78 67.49 181.05 71.92 177.88 C 75.46 175.16 77.53 170.51 81.13 167.69 L 82.65 168.03 C 85.71 170.75 87.69 175.41 91.07 177.89 C 96.60 181.78 104.94 180.44 109.02 175.07 C 110.56 173.04 111.25 170.37 111.87 167.94 C 112.38 165.92 112.60 163.80 112.79 161.72 C 113.92 160.94 115.08 160.04 116.34 159.48 C 119.25 159.42 122.19 160.20 125.10 160.40 C 127.72 160.69 130.52 160.57 133.07 161.25 C 136.66 162.63 139.86 166.46 143.72 167.41 C 147.62 168.24 152.00 166.54 154.67 163.64 C 156.63 161.46 157.20 158.65 157.87 155.87 C 158.62 152.68 158.78 149.49 158.92 146.23 C 158.98 145.18 159.03 144.14 159.08 143.10 C 161.00 137.38 165.48 135.40 169.64 131.62 C 173.83 127.82 176.73 122.43 178.12 116.98 C 179.90 110.37 177.75 104.79 175.09 98.83 C 171.66 91.44 173.81 83.81 170.27 76.67 C 167.51 71.18 163.18 66.23 157.61 63.49 C 155.12 62.10 152.03 61.03 149.98 59.03 C 147.74 54.94 147.52 49.91 145.19 45.77 C 141.12 38.47 133.54 32.67 125.05 31.95 C 121.13 31.51 117.13 32.49 113.26 31.98 C 110.91 31.05 109.12 28.39 107.37 26.62 C 103.13 21.65 97.83 18.76 92.19 15.66 Z" fill="#eaeaea" />
<path d="M 15.04 56.84 C 15.88 60.15 16.70 63.77 18.29 66.79 C 19.93 69.75 21.93 72.27 23.99 74.98 C 23.38 75.59 22.77 76.19 22.17 76.79 C 21.51 76.63 20.86 76.45 20.21 76.28 C 18.51 71.96 15.78 67.60 14.79 63.07 C 14.82 60.99 14.92 58.92 15.04 56.84 Z" fill="#d0d2d5" />
<path d="M 60.17 74.98 C 64.15 76.86 67.83 79.09 72.03 80.52 C 72.71 83.63 73.43 86.53 72.75 89.73 C 71.01 96.14 63.22 100.43 56.93 98.08 C 52.97 96.76 49.64 93.60 48.43 89.57 C 47.81 86.92 48.37 83.86 48.82 81.21 C 53.07 79.90 56.56 77.46 60.17 74.98 Z" fill="#474c50" />
<path d="M 102.72 75.26 C 106.45 77.40 109.79 79.90 113.98 81.15 C 114.88 84.57 115.66 87.59 113.93 90.94 C 110.52 99.98 96.25 100.65 91.51 92.48 C 88.94 88.76 90.02 84.24 90.89 80.15 C 95.02 78.97 98.65 76.46 102.72 75.26 Z" fill="#44494d" />
<path d="M 29.90 80.02 C 31.62 80.36 33.34 80.75 35.05 81.11 C 33.16 86.62 32.86 92.27 32.90 98.04 C 35.71 97.99 38.51 97.93 41.32 97.84 C 40.51 92.59 39.83 87.36 39.75 82.04 C 41.17 82.23 42.60 82.38 44.03 82.49 C 44.21 87.85 44.28 92.65 48.35 96.66 C 55.20 103.89 67.43 103.39 73.74 95.72 C 77.37 91.36 76.95 86.62 76.89 81.29 C 79.96 81.43 83.02 81.44 86.09 81.29 C 86.10 86.33 85.41 91.00 88.79 95.19 C 94.74 103.08 107.09 104.22 114.07 97.06 C 118.34 92.89 119.34 87.64 118.38 81.89 C 120.05 82.02 121.73 82.09 123.40 82.09 C 123.52 87.47 122.64 92.69 121.74 97.97 C 124.54 98.03 127.33 98.07 130.12 98.10 C 130.36 92.05 129.73 86.96 127.94 81.19 C 129.75 80.74 131.55 80.26 133.35 79.77 C 136.33 87.60 136.79 95.70 136.85 103.98 C 131.23 104.18 125.68 104.01 120.10 103.26 C 117.30 108.97 114.57 114.54 110.54 119.53 C 105.07 126.44 97.44 131.96 88.69 133.70 C 80.58 135.21 72.06 134.27 64.80 130.22 C 56.69 125.76 50.28 118.00 46.38 109.70 C 45.29 107.57 44.28 105.01 42.56 103.31 C 37.31 103.02 31.99 104.04 26.72 104.12 C 26.56 95.75 26.65 87.88 29.90 80.02 Z" fill="#f4a39d" />
<path d="M 76.89 81.29 C 76.95 86.62 77.37 91.36 73.74 95.72 C 67.43 103.39 55.20 103.89 48.35 96.66 C 44.28 92.65 44.21 87.85 44.03 82.49 C 45.65 82.17 47.24 81.72 48.82 81.21 C 48.37 83.86 47.81 86.92 48.43 89.57 C 49.64 93.60 52.97 96.76 56.93 98.08 C 63.22 100.43 71.01 96.14 72.75 89.73 C 73.43 86.53 72.71 83.63 72.03 80.52 C 73.65 80.94 75.24 81.10 76.89 81.29 Z" fill="#ffffff" />
<path d="M 90.89 80.15 C 90.02 84.24 88.94 88.76 91.51 92.48 C 96.25 100.65 110.52 99.98 113.93 90.94 C 115.66 87.59 114.88 84.57 113.98 81.15 C 115.44 81.45 116.91 81.70 118.38 81.89 C 119.34 87.64 118.34 92.89 114.07 97.06 C 107.09 104.22 94.74 103.08 88.79 95.19 C 85.41 91.00 86.10 86.33 86.09 81.29 C 87.71 80.99 89.32 80.65 90.89 80.15 Z" fill="#ffffff" />
<path d="M 35.05 81.11 C 36.62 81.43 38.17 81.78 39.75 82.04 C 39.83 87.36 40.51 92.59 41.32 97.84 C 38.51 97.93 35.71 97.99 32.90 98.04 C 32.86 92.27 33.16 86.62 35.05 81.11 Z" fill="#484d51" />
<path d="M 127.94 81.19 C 129.73 86.96 130.36 92.05 130.12 98.10 C 127.33 98.07 124.54 98.03 121.74 97.97 C 122.64 92.69 123.52 87.47 123.40 82.09 C 124.93 81.86 126.44 81.54 127.94 81.19 Z" fill="#42474b" />
<path d="M 48.87 104.05 C 54.83 104.78 60.73 106.10 66.59 107.42 C 69.45 108.21 72.82 108.72 74.74 111.22 C 77.41 114.51 79.32 118.55 81.39 122.23 C 83.60 118.56 85.50 114.51 88.22 111.20 C 90.12 108.84 92.82 108.37 95.58 107.59 C 101.71 106.10 107.98 104.86 114.23 103.96 C 104.41 111.73 94.00 118.75 83.99 126.26 C 84.28 127.34 84.56 128.41 84.84 129.48 C 82.60 129.32 80.38 129.34 78.13 129.46 C 78.39 128.39 78.65 127.32 78.92 126.24 C 69.00 118.74 58.56 111.84 48.87 104.05 Z" fill="#44494d" />
<path d="M 14.82 105.93 C 16.61 111.00 18.12 116.28 21.38 120.63 C 24.32 124.69 27.81 127.31 30.19 131.66 C 32.53 135.92 33.88 140.03 37.57 143.43 C 41.41 146.88 46.17 149.38 50.96 151.26 C 50.55 153.47 50.17 155.69 49.94 157.94 C 49.92 158.99 49.92 160.04 49.94 161.09 C 49.43 158.91 48.94 156.38 47.22 154.81 C 44.08 151.93 39.99 150.15 36.90 147.10 C 33.26 143.60 31.32 138.60 28.58 134.39 C 25.89 130.13 22.29 126.75 19.63 122.46 C 17.63 119.21 15.99 115.70 14.95 112.02 C 14.82 109.99 14.86 107.97 14.82 105.93 Z" fill="#cdcdcd" />
<path d="M 177.95 110.89 C 178.05 112.92 178.12 114.95 178.12 116.98 C 176.73 122.43 173.83 127.82 169.64 131.62 C 165.48 135.40 161.00 137.38 159.08 143.10 C 159.15 140.17 158.90 137.61 157.05 135.21 C 163.02 132.86 168.98 129.05 172.75 123.78 C 175.58 119.82 176.60 115.48 177.95 110.89 Z" fill="#cccccc" />
<path d="M 157.05 135.21 C 158.90 137.61 159.15 140.17 159.08 143.10 C 159.03 144.14 158.98 145.18 158.92 146.23 C 151.67 146.52 144.40 146.45 137.15 146.29 C 137.07 145.09 136.99 143.90 136.91 142.70 C 144.15 141.75 149.89 137.22 157.05 135.21 Z" fill="#8d9ba3" />
<path d="M 128.17 142.92 C 131.04 142.56 134.01 142.82 136.91 142.70 C 136.99 143.90 137.07 145.09 137.15 146.29 C 144.40 146.45 151.67 146.52 158.92 146.23 C 158.78 149.49 158.62 152.68 157.87 155.87 C 156.35 158.96 154.67 161.85 151.61 163.63 C 147.39 165.97 141.45 165.47 137.91 162.11 C 135.99 160.28 134.83 157.85 133.61 155.53 C 130.23 157.36 127.04 159.19 123.03 158.34 C 119.05 157.61 116.82 154.58 114.20 151.81 C 115.17 151.29 116.13 150.76 117.10 150.23 C 121.24 148.39 124.36 145.21 128.17 142.92 Z" fill="#3e4347" />
<path d="M 117.10 150.23 C 116.13 150.76 115.17 151.29 114.20 151.81 C 116.82 154.58 119.05 157.61 123.03 158.34 C 127.04 159.19 130.23 157.36 133.61 155.53 C 134.83 157.85 135.99 160.28 137.91 162.11 C 141.45 165.47 147.39 165.97 151.61 163.63 C 154.67 161.85 156.35 158.96 157.87 155.87 C 157.20 158.65 156.63 161.46 154.67 163.64 C 152.00 166.54 147.62 168.24 143.72 167.41 C 139.86 166.46 136.66 162.63 133.07 161.25 C 130.52 160.57 127.72 160.69 125.10 160.40 C 122.19 160.20 119.25 159.42 116.34 159.48 C 115.08 160.04 113.92 160.94 112.79 161.72 C 112.89 160.44 112.96 159.15 113.01 157.86 C 112.85 155.64 112.47 153.46 112.10 151.27 C 113.79 151.02 115.43 150.61 117.10 150.23 Z" fill="#cdcdcd" />
<path d="M 50.96 151.26 C 53.72 151.84 56.68 152.01 59.36 152.90 C 61.82 154.04 63.87 156.24 65.98 157.92 C 60.66 157.49 55.27 157.70 49.94 157.94 C 50.17 155.69 50.55 153.47 50.96 151.26 Z" fill="#8f9ca4" />
<path d="M 103.64 152.89 C 106.33 151.96 109.30 151.79 112.10 151.27 C 112.47 153.46 112.85 155.64 113.01 157.86 C 107.69 157.72 102.31 157.51 97.00 157.91 C 99.13 156.23 101.19 154.08 103.64 152.89 Z" fill="#8d9ba3" />
<path d="M 49.94 157.94 C 55.27 157.70 60.66 157.49 65.98 157.92 C 70.01 160.42 74.13 162.08 78.96 161.98 C 78.33 165.74 77.84 169.27 75.34 172.32 C 71.99 176.53 66.04 179.20 60.76 177.26 C 57.18 176.11 54.67 173.58 52.28 170.80 C 51.05 167.63 50.49 164.43 49.94 161.09 C 49.92 160.04 49.92 158.99 49.94 157.94 Z" fill="#404549" />
<path d="M 97.00 157.91 C 102.31 157.51 107.69 157.72 113.01 157.86 C 112.96 159.15 112.89 160.44 112.79 161.72 C 112.60 163.80 112.38 165.92 111.87 167.94 C 109.79 171.89 107.31 175.36 102.95 176.96 C 97.52 179.32 91.09 176.92 87.63 172.36 C 85.37 169.36 84.64 165.58 83.89 161.99 C 88.75 162.08 92.93 160.40 97.00 157.91 Z" fill="#3e4347" />
<path d="M 83.89 161.99 C 84.64 165.58 85.37 169.36 87.63 172.36 C 91.09 176.92 97.52 179.32 102.95 176.96 C 107.31 175.36 109.79 171.89 111.87 167.94 C 111.25 170.37 110.56 173.04 109.02 175.07 C 104.94 180.44 96.60 181.78 91.07 177.89 C 87.69 175.41 85.71 170.75 82.65 168.03 L 81.13 167.69 C 77.53 170.51 75.46 175.16 71.92 177.88 C 67.49 181.05 60.77 180.78 56.48 177.49 C 54.27 175.77 53.30 173.31 52.28 170.80 C 54.67 173.58 57.18 176.11 60.76 177.26 C 66.04 179.20 71.99 176.53 75.34 172.32 C 77.84 169.27 78.33 165.74 78.96 161.98 C 80.60 162.04 82.25 162.05 83.89 161.99 Z" fill="#c6c7c7" /></svg>