<?xml version="1.0" encoding="UTF-8" standalone="no"?>
<!DOCTYPE svg PUBLIC "-//W3C//DTD SVG 1.1//EN" "http://www.w3.org/Graphics/SVG/1.1/DTD/svg11.dtd">
<svg viewBox="0 0 192 192" height="192.0pt" width="192.0pt" xmlns="http://www.w3.org/2000/svg" version="1.1">
<path d="M 77.00 14.68 C 82.83 14.76 89.02 14.72 94.71 16.03 C 94.94 17.32 91.14 18.01 90.15 18.85 C 95.07 20.40 100.18 21.33 105.11 22.86 C 105.93 23.02 106.50 23.38 106.84 23.93 C 104.66 24.58 102.39 25.02 100.17 25.57 C 104.14 28.28 108.16 29.87 111.37 33.62 C 115.29 37.95 117.28 43.10 119.01 48.57 C 117.30 49.71 115.60 50.87 113.96 52.11 C 112.15 46.79 110.02 42.00 104.96 39.05 C 99.46 35.73 93.17 37.29 87.24 38.29 C 83.01 38.98 79.27 40.76 75.33 42.29 C 73.58 43.09 72.09 42.14 70.40 41.63 C 64.30 39.23 57.59 37.17 51.00 36.96 C 42.81 36.80 35.79 43.18 33.89 50.92 C 32.05 58.65 33.05 67.68 37.74 74.27 C 39.67 76.99 42.40 78.67 44.53 81.08 C 43.52 85.44 42.11 89.30 43.15 93.88 C 44.29 100.65 48.72 104.98 54.01 108.87 C 52.84 110.01 51.68 111.16 50.51 112.30 C 43.18 109.77 36.57 104.16 32.03 97.95 C 29.11 94.16 28.51 89.67 26.51 85.51 C 23.25 82.84 19.71 81.33 17.46 77.50 C 13.33 71.11 14.05 63.74 17.00 57.04 C 19.85 53.30 23.78 51.29 27.31 48.41 C 28.84 44.48 29.53 40.41 31.66 36.68 C 35.79 29.24 42.32 22.65 50.17 19.21 C 58.46 15.67 68.05 14.52 77.00 14.68 Z" fill="#906f57" />
<path d="M 51.00 36.96 C 57.59 37.17 64.30 39.23 70.40 41.63 C 72.09 42.14 73.58 43.09 75.33 42.29 C 79.27 40.76 83.01 38.98 87.24 38.29 C 93.17 37.29 99.46 35.73 104.96 39.05 C 110.02 42.00 112.15 46.79 113.96 52.11 C 114.12 59.20 114.66 65.59 110.97 71.98 C 109.07 75.82 105.84 77.80 102.77 80.52 C 103.36 85.10 104.89 89.11 103.81 93.84 C 101.74 104.03 92.40 110.55 82.79 112.85 C 73.01 115.45 62.80 113.70 54.01 108.87 C 48.72 104.98 44.29 100.65 43.15 93.88 C 42.11 89.30 43.52 85.44 44.53 81.08 C 42.40 78.67 39.67 76.99 37.74 74.27 C 33.05 67.68 32.05 58.65 33.89 50.92 C 35.79 43.18 42.81 36.80 51.00 36.96 Z" fill="#e1b084" />
<path d="M 119.01 48.57 C 122.64 50.44 126.05 52.09 128.62 55.39 C 131.21 58.42 131.86 61.87 133.25 65.46 C 138.46 63.21 143.13 60.87 149.01 61.27 C 156.18 61.04 161.83 64.36 167.23 68.69 C 169.60 72.22 171.90 75.59 173.45 79.59 C 176.88 88.09 177.67 97.91 177.96 107.01 C 178.29 119.21 175.84 130.86 172.54 142.54 C 171.12 147.53 168.89 152.08 166.92 156.85 C 162.03 163.69 156.00 170.52 147.05 171.24 C 142.25 171.83 137.30 169.68 133.28 172.32 C 125.96 176.53 117.28 177.49 108.97 177.25 C 102.96 177.09 97.20 175.44 92.19 172.09 C 91.75 169.11 91.86 165.69 89.69 163.33 C 87.43 160.79 84.27 158.80 80.91 158.15 C 76.93 157.46 72.93 158.93 69.21 160.19 C 68.78 155.84 68.61 151.55 68.66 147.18 C 65.87 152.12 63.05 157.06 60.59 162.18 C 59.32 164.43 58.01 166.70 56.59 168.86 C 56.61 164.03 56.23 160.06 51.96 157.06 C 48.57 154.36 45.42 155.13 41.76 156.69 C 45.15 145.20 48.82 133.79 52.40 122.36 C 53.20 119.76 54.17 117.11 54.52 114.42 C 53.26 113.61 51.86 112.95 50.51 112.30 C 51.68 111.16 52.84 110.01 54.01 108.87 C 62.80 113.70 73.01 115.45 82.79 112.85 C 92.40 110.55 101.74 104.03 103.81 93.84 C 104.89 89.11 103.36 85.10 102.77 80.52 C 105.84 77.80 109.07 75.82 110.97 71.98 C 114.66 65.59 114.12 59.20 113.96 52.11 C 115.60 50.87 117.30 49.71 119.01 48.57 Z" fill="#8a684e" />
<path d="M 58.90 53.08 C 63.20 53.69 66.61 57.81 67.25 61.99 C 67.79 65.00 66.94 67.71 66.59 70.68 C 71.27 71.19 75.88 71.39 80.53 70.57 C 80.12 66.96 78.97 63.93 80.27 60.30 C 81.83 55.45 87.41 51.51 92.49 53.52 C 98.30 55.93 100.83 63.06 98.91 68.84 C 97.78 72.60 94.31 76.74 90.00 76.37 C 87.34 76.49 85.38 75.30 82.99 74.41 C 82.71 77.87 83.53 82.02 80.34 84.38 C 77.87 86.00 74.96 83.20 72.19 84.25 C 69.31 85.09 67.15 85.41 65.21 82.68 C 64.13 79.91 64.69 76.36 64.74 73.44 C 61.29 76.18 57.67 77.27 53.38 75.67 C 47.87 72.28 46.85 65.42 48.67 59.62 C 50.26 55.48 54.36 52.51 58.90 53.08 Z" fill="#453a34" />
<path d="M 26.61 56.03 C 27.04 59.31 27.33 62.58 28.18 65.80 C 29.64 69.90 27.56 74.55 26.63 78.68 C 22.66 76.04 19.95 71.88 19.96 67.01 C 19.96 63.08 22.57 57.21 26.61 56.03 Z" fill="#ffc8d5" />
<path d="M 120.41 56.22 L 121.05 55.72 C 124.68 58.44 127.26 62.32 127.18 67.00 C 127.29 72.01 124.45 76.21 120.31 78.81 C 119.57 75.37 118.28 71.70 118.31 68.18 C 119.13 64.20 119.81 60.24 120.41 56.22 Z" fill="#ffc6d4" />
<path d="M 17.00 57.04 C 14.05 63.74 13.33 71.11 17.46 77.50 C 19.71 81.33 23.25 82.84 26.51 85.51 C 28.51 89.67 29.11 94.16 32.03 97.95 C 36.57 104.16 43.18 109.77 50.51 112.30 C 51.86 112.95 53.26 113.61 54.52 114.42 C 54.17 117.11 53.20 119.76 52.40 122.36 C 48.82 133.79 45.15 145.20 41.76 156.69 C 40.51 157.46 39.26 158.22 38.03 159.02 C 41.87 152.31 43.09 145.22 45.69 137.60 C 47.00 132.34 49.30 127.29 50.25 121.97 C 50.86 118.46 47.19 116.74 44.76 115.17 C 39.29 112.12 34.94 107.85 30.93 103.09 C 28.46 100.17 27.20 96.80 25.64 93.37 C 23.11 87.46 16.86 85.07 14.08 78.99 C 10.87 72.18 11.39 62.51 17.00 57.04 Z" fill="#dedede" />
<path d="M 167.23 68.69 C 168.81 69.85 170.34 70.86 171.46 72.52 C 175.80 79.05 178.82 86.40 179.79 94.21 C 180.53 100.43 181.35 106.74 181.21 113.01 C 180.16 129.59 176.96 147.84 168.30 162.27 C 164.16 168.51 158.50 174.20 151.05 176.17 C 144.96 178.05 139.10 176.08 133.44 178.50 C 125.56 181.87 116.58 183.79 108.00 183.06 C 103.74 182.74 99.87 181.26 95.73 180.45 C 93.67 179.98 91.52 180.98 89.54 181.56 C 83.32 183.94 75.67 182.73 69.00 183.01 C 62.96 183.34 57.02 182.47 51.01 182.36 C 43.29 182.78 34.47 183.78 26.72 182.41 C 20.75 181.44 17.43 173.67 21.76 169.05 C 22.23 171.98 22.56 174.66 24.60 176.97 C 25.71 178.17 26.60 179.34 28.34 179.56 C 36.97 180.80 45.51 179.19 53.89 179.40 C 63.24 180.17 72.61 179.99 82.01 179.88 C 86.32 179.83 89.88 177.54 94.01 177.04 C 98.44 177.33 102.61 179.43 107.07 179.86 C 115.75 180.64 124.54 179.15 132.46 175.51 C 138.69 172.72 144.68 175.09 150.94 173.01 C 158.34 170.55 164.68 164.38 166.92 156.85 C 168.89 152.08 171.12 147.53 172.54 142.54 C 175.84 130.86 178.29 119.21 177.96 107.01 C 177.67 97.91 176.88 88.09 173.45 79.59 C 171.90 75.59 169.60 72.22 167.23 68.69 Z" fill="#e7e7e7" />
<path d="M 140.21 83.62 C 141.61 83.29 141.68 85.85 140.82 86.46 C 139.41 86.79 139.35 84.23 140.21 83.62 Z" fill="#a79d97" />
<path d="M 122.72 84.17 C 123.29 86.63 123.53 89.27 124.32 91.66 C 125.31 94.51 127.33 97.18 128.96 99.71 C 125.46 97.02 121.63 94.68 118.32 91.76 C 118.75 88.60 119.01 84.97 122.72 84.17 Z" fill="#cfcfcf" />
<path d="M 62.39 86.38 C 67.19 85.73 72.16 86.02 77.00 85.95 C 82.23 85.89 87.89 86.35 92.82 88.21 C 94.74 88.94 95.71 90.95 95.86 92.90 C 94.94 96.16 92.44 98.04 89.62 99.64 C 80.77 104.60 70.02 104.81 60.59 101.39 C 57.06 100.11 53.30 97.83 51.68 94.29 C 50.45 92.13 52.01 89.06 54.22 88.25 C 56.78 87.20 59.68 86.82 62.39 86.38 Z" fill="#433832" />
<path d="M 158.62 87.18 C 160.01 92.01 160.95 96.93 161.00 101.98 C 161.02 108.13 161.30 114.15 160.31 120.27 C 160.14 116.50 160.04 112.76 160.17 108.99 C 160.16 106.16 160.33 102.67 158.54 100.29 C 157.09 100.04 156.18 100.04 155.00 101.03 C 152.51 102.75 150.10 105.32 147.19 106.21 C 143.43 107.45 139.85 107.26 136.66 109.96 C 134.52 106.96 132.26 104.06 130.16 101.03 C 133.67 102.19 137.23 103.91 140.97 103.85 C 146.35 103.72 151.45 100.93 154.63 96.62 C 156.66 94.01 157.38 90.26 158.62 87.18 Z" fill="#d3d3d3" />
<path d="M 158.54 100.29 C 160.33 102.67 160.16 106.16 160.17 108.99 C 160.04 112.76 160.14 116.50 160.31 120.27 C 159.16 128.57 157.08 137.15 153.91 144.92 C 152.29 148.42 150.03 153.13 145.87 154.03 C 146.20 138.37 145.28 123.55 136.66 109.96 C 139.85 107.26 143.43 107.45 147.19 106.21 C 150.10 105.32 152.51 102.75 155.00 101.03 C 156.18 100.04 157.09 100.04 158.54 100.29 Z" fill="#f8f8f8" />
<path d="M 99.83 111.23 C 108.08 116.12 112.36 125.45 114.54 134.45 C 115.59 138.77 116.68 143.40 116.46 147.87 C 116.08 150.85 112.92 154.50 109.75 152.34 C 108.30 149.29 107.53 145.93 106.22 142.81 C 103.61 136.14 99.15 129.83 93.12 125.87 C 89.65 123.62 85.97 123.12 82.19 121.73 C 82.60 119.93 83.23 117.89 84.48 116.48 C 87.06 115.22 89.99 114.66 92.68 113.65 C 95.03 112.85 97.38 111.66 99.83 111.23 Z" fill="#e0ad80" />
<path d="M 68.66 147.18 C 68.61 151.55 68.78 155.84 69.21 160.19 C 66.32 161.43 63.74 162.08 60.59 162.18 C 63.05 157.06 65.87 152.12 68.66 147.18 Z" fill="#d2d2d2" />
<path d="M 51.96 157.06 C 56.23 160.06 56.61 164.03 56.59 168.86 C 58.01 166.70 59.32 164.43 60.59 162.18 C 63.74 162.08 66.32 161.43 69.21 160.19 C 72.93 158.93 76.93 157.46 80.91 158.15 C 84.27 158.80 87.43 160.79 89.69 163.33 C 91.86 165.69 91.75 169.11 92.19 172.09 C 91.31 173.50 90.44 175.11 89.14 176.17 C 77.40 175.80 65.63 176.09 53.89 176.01 C 52.36 175.93 50.85 175.99 49.33 176.11 C 42.88 175.99 36.42 175.96 29.96 175.93 C 28.09 175.92 26.38 176.46 24.60 176.97 C 22.56 174.66 22.23 171.98 21.76 169.05 C 23.99 166.25 26.55 164.82 29.98 163.91 C 33.23 163.13 35.56 161.13 38.03 159.02 C 39.26 158.22 40.51 157.46 41.76 156.69 C 45.42 155.13 48.57 154.36 51.96 157.06 Z" fill="#e0ac7f" />
<path d="M 166.92 156.85 C 164.68 164.38 158.34 170.55 150.94 173.01 C 144.68 175.09 138.69 172.72 132.46 175.51 C 124.54 179.15 115.75 180.64 107.07 179.86 C 102.61 179.43 98.44 177.33 94.01 177.04 C 89.88 177.54 86.32 179.83 82.01 179.88 C 72.61 179.99 63.24 180.17 53.89 179.40 C 45.51 179.19 36.97 180.80 28.34 179.56 C 26.60 179.34 25.71 178.17 24.60 176.97 C 30.74 177.12 36.89 177.00 43.03 177.12 C 45.20 177.18 47.25 176.67 49.33 176.11 C 50.85 175.99 52.36 175.93 53.89 176.01 C 57.56 177.56 61.14 177.05 65.00 177.06 C 70.67 177.03 76.34 177.00 82.00 177.11 C 84.52 177.08 86.80 177.30 89.14 176.17 C 90.44 175.11 91.31 173.50 92.19 172.09 C 97.20 175.44 102.96 177.09 108.97 177.25 C 117.28 177.49 125.96 176.53 133.28 172.32 C 137.30 169.68 142.25 171.83 147.05 171.24 C 156.00 170.52 162.03 163.69 166.92 156.85 Z" fill="#cdcdcd" />
<path d="M 29.96 175.93 C 36.42 175.96 42.88 175.99 49.33 176.11 C 47.25 176.67 45.20 177.18 43.03 177.12 C 36.89 177.00 30.74 177.12 24.60 176.97 C 26.38 176.46 28.09 175.92 29.96 175.93 Z" fill="#b38b67" />
<path d="M 53.89 176.01 C 65.63 176.09 77.40 175.80 89.14 176.17 C 86.80 177.30 84.52 177.08 82.00 177.11 C 76.34 177.00 70.67 177.03 65.00 177.06 C 61.14 177.05 57.56 177.56 53.89 176.01 Z" fill="#b38a65" /></svg>