<?xml version="1.0" encoding="UTF-8" standalone="no"?>
<!DOCTYPE svg PUBLIC "-//W3C//DTD SVG 1.1//EN" "http://www.w3.org/Graphics/SVG/1.1/DTD/svg11.dtd">
<svg viewBox="0 0 192 192" height="192.0pt" width="192.0pt" xmlns="http://www.w3.org/2000/svg" version="1.1">
<path d="M 142.94 27.92 C 147.39 31.38 151.32 35.76 155.02 39.99 C 159.95 45.55 163.26 52.17 168.56 57.45 C 176.41 65.72 179.22 76.87 178.66 88.05 C 178.62 96.70 175.18 104.50 170.43 111.56 C 168.44 114.57 165.79 117.68 164.62 121.09 C 165.01 123.12 166.12 125.11 167.07 126.93 C 170.67 135.01 173.97 144.43 176.20 152.99 C 177.26 157.45 177.65 161.85 173.67 165.01 C 170.94 166.28 168.82 163.60 166.95 162.02 C 160.60 155.42 153.92 149.62 145.67 145.50 C 142.69 144.16 139.20 142.87 135.98 144.17 C 131.16 146.13 126.95 149.86 122.53 152.61 C 110.93 160.15 97.07 166.89 83.03 167.44 C 75.88 167.86 69.55 165.79 62.73 164.17 L 63.01 162.16 C 70.06 163.62 76.71 165.25 83.96 164.84 C 93.58 164.33 103.02 160.85 111.55 156.56 C 122.46 151.18 132.63 143.39 142.44 136.19 C 136.60 132.74 130.68 130.02 126.96 124.04 C 121.43 115.27 121.55 105.52 119.37 95.76 C 122.25 95.95 125.14 95.96 128.03 96.01 C 126.35 97.40 124.68 98.78 123.01 100.19 C 128.82 99.49 134.81 99.00 140.46 97.45 C 144.89 96.37 147.28 91.37 148.43 87.37 C 149.51 83.87 147.96 81.16 146.69 78.01 C 141.06 76.40 137.14 72.56 132.02 70.01 C 129.34 68.63 126.61 67.54 123.87 66.32 C 119.43 64.07 114.63 63.51 109.70 63.69 C 115.04 63.31 120.46 62.92 125.80 63.35 C 134.84 64.89 143.67 67.79 152.61 69.88 C 152.60 64.52 152.80 59.51 151.50 54.26 C 149.32 45.23 144.83 37.13 142.94 27.92 Z" fill="#b2c1c0" />
<path d="M 134.08 29.28 C 132.78 39.11 129.09 48.07 127.11 57.83 C 113.34 58.65 99.70 59.31 87.65 66.82 C 95.10 66.02 102.21 64.16 109.70 63.69 C 114.63 63.51 119.43 64.07 123.87 66.32 C 125.99 69.11 128.02 72.00 129.93 74.95 L 130.37 75.66 C 129.59 78.59 129.11 81.97 127.56 84.60 C 125.53 87.44 122.03 89.42 119.21 91.41 C 119.08 92.35 118.95 93.29 118.82 94.23 C 117.82 91.52 116.85 88.26 114.95 86.05 C 111.92 82.59 106.40 81.80 102.75 84.77 C 96.21 89.91 92.85 99.50 87.82 105.85 C 85.34 108.94 81.69 112.10 77.63 112.63 C 73.95 113.02 69.88 111.65 66.31 110.82 C 56.37 108.21 46.37 108.03 36.16 108.46 C 29.12 108.80 22.53 110.54 15.57 111.36 C 19.53 105.47 24.58 100.51 30.17 96.17 C 42.37 86.68 55.66 78.46 70.32 73.38 C 73.59 72.10 76.96 71.20 79.12 68.22 C 81.99 64.35 84.22 60.08 87.34 56.36 C 99.00 42.10 116.41 33.46 134.08 29.28 Z" fill="#b5c3c2" />
<path d="M 127.11 57.83 C 126.68 59.67 126.24 61.51 125.80 63.35 C 120.46 62.92 115.04 63.31 109.70 63.69 C 102.21 64.16 95.10 66.02 87.65 66.82 C 99.70 59.31 113.34 58.65 127.11 57.83 Z" fill="#8b9494" />
<path d="M 132.02 70.01 C 137.14 72.56 141.06 76.40 146.69 78.01 C 147.96 81.16 149.51 83.87 148.43 87.37 C 147.28 91.37 144.89 96.37 140.46 97.45 C 134.81 99.00 128.82 99.49 123.01 100.19 C 124.68 98.78 126.35 97.40 128.03 96.01 C 125.14 95.96 122.25 95.95 119.37 95.76 L 119.10 95.01 C 123.45 94.72 128.30 94.16 132.22 92.15 C 136.37 90.02 138.20 84.41 138.13 80.02 C 138.07 76.70 136.16 74.26 134.20 71.78 C 132.75 72.80 131.34 73.87 129.93 74.95 C 128.02 72.00 125.99 69.11 123.87 66.32 C 126.61 67.54 129.34 68.63 132.02 70.01 Z" fill="#798283" />
<path d="M 134.20 71.78 C 136.16 74.26 138.07 76.70 138.13 80.02 C 138.20 84.41 136.37 90.02 132.22 92.15 C 128.30 94.16 123.45 94.72 119.10 95.01 L 118.82 94.23 C 123.43 92.08 129.92 90.20 133.10 86.06 C 134.44 82.97 131.88 78.37 130.37 75.66 L 129.93 74.95 C 131.34 73.87 132.75 72.80 134.20 71.78 Z" fill="#5d6466" />
<path d="M 130.37 75.66 C 131.88 78.37 134.44 82.97 133.10 86.06 C 129.92 90.20 123.43 92.08 118.82 94.23 C 118.95 93.29 119.08 92.35 119.21 91.41 C 122.03 89.42 125.53 87.44 127.56 84.60 C 129.11 81.97 129.59 78.59 130.37 75.66 Z" fill="#7a8384" />
<path d="M 92.15 83.10 C 90.44 83.95 88.74 84.78 87.01 85.55 C 82.79 87.48 77.59 88.87 74.45 92.40 C 71.93 95.12 69.78 98.20 67.54 101.15 C 64.81 101.79 61.92 102.72 59.11 102.73 C 57.14 102.46 55.27 101.10 53.54 100.20 C 57.01 93.49 61.55 85.19 68.31 81.34 C 75.89 77.40 84.76 80.01 92.15 83.10 Z" fill="#7c8585" />
<path d="M 142.24 77.98 C 145.08 83.77 142.36 89.09 138.53 93.54 C 136.49 95.87 132.59 95.68 129.76 96.13 C 132.48 93.91 136.04 92.06 138.13 89.22 C 139.89 85.66 140.65 81.64 142.24 77.98 Z" fill="#5d6466" />
<path d="M 114.95 86.05 C 116.85 88.26 117.82 91.52 118.82 94.23 L 119.10 95.01 L 119.37 95.76 C 121.55 105.52 121.43 115.27 126.96 124.04 C 130.68 130.02 136.60 132.74 142.44 136.19 C 132.63 143.39 122.46 151.18 111.55 156.56 C 103.02 160.85 93.58 164.33 83.96 164.84 C 76.71 165.25 70.06 163.62 63.01 162.16 C 61.90 161.75 61.16 161.97 60.79 162.82 C 60.92 163.70 61.56 164.15 62.73 164.17 C 69.55 165.79 75.88 167.86 83.03 167.44 C 97.07 166.89 110.93 160.15 122.53 152.61 C 126.95 149.86 131.16 146.13 135.98 144.17 C 139.20 142.87 142.69 144.16 145.67 145.50 C 153.92 149.62 160.60 155.42 166.95 162.02 C 168.82 163.60 170.94 166.28 173.67 165.01 C 177.65 161.85 177.26 157.45 176.20 152.99 C 173.97 144.43 170.67 135.01 167.07 126.93 C 172.35 133.95 174.33 141.90 176.94 150.11 C 177.98 153.75 179.22 157.90 178.85 161.71 C 178.46 165.18 175.40 168.55 171.92 169.09 C 168.21 168.85 164.68 165.34 162.08 162.92 C 156.21 156.99 149.08 150.75 141.03 148.09 C 137.39 146.83 134.66 148.95 131.74 150.81 C 119.34 160.02 104.64 167.80 89.36 170.65 C 81.44 172.17 73.80 171.08 66.07 169.23 C 63.65 168.57 60.81 167.81 58.87 166.17 C 57.17 164.19 56.47 161.25 55.55 158.84 C 56.55 158.44 57.54 158.04 58.54 157.64 C 57.57 156.33 56.61 154.90 55.43 153.77 C 50.54 153.90 45.68 155.30 40.80 155.78 C 41.49 154.94 42.17 154.11 42.84 153.26 C 46.06 152.25 48.96 150.62 52.03 149.28 C 54.86 147.84 58.05 149.20 60.89 149.96 C 60.79 152.29 60.78 154.61 60.77 156.95 C 61.99 156.67 63.22 156.38 64.44 156.10 C 64.86 155.01 65.27 153.92 65.65 152.81 L 65.94 154.87 C 75.82 152.10 86.39 146.68 94.23 140.03 L 95.26 139.06 C 100.23 134.76 103.84 129.87 105.48 123.41 C 105.96 121.67 106.38 119.91 106.64 118.12 C 107.25 114.67 107.33 111.21 107.16 107.72 C 106.24 108.66 105.33 109.59 104.45 110.58 C 103.36 112.57 102.55 114.66 101.75 116.78 C 100.63 116.77 99.52 116.75 98.41 116.73 C 97.46 117.63 96.51 118.54 95.57 119.44 C 94.36 120.60 93.15 121.75 91.94 122.91 C 91.11 123.71 90.28 124.50 89.43 125.28 C 88.15 126.45 86.85 127.60 85.50 128.70 C 84.83 129.22 84.16 129.73 83.47 130.21 C 77.55 133.95 71.73 137.87 65.73 141.47 C 64.47 142.07 63.20 142.67 61.92 143.24 C 58.63 144.55 55.05 145.99 51.51 146.34 C 48.52 146.63 45.26 145.08 42.59 143.88 C 36.12 139.81 29.74 136.17 24.20 130.79 C 20.05 126.96 17.13 122.38 13.83 117.86 C 15.06 121.90 16.24 125.70 18.88 129.09 C 21.93 133.00 25.68 136.40 29.58 139.45 C 34.82 143.58 40.40 145.37 44.56 150.82 L 43.46 152.42 C 40.31 149.41 37.06 146.92 33.33 144.67 C 26.99 140.83 21.31 136.07 16.78 130.19 C 14.52 127.18 12.70 123.86 12.61 120.01 C 12.57 116.82 13.91 113.99 15.57 111.36 C 22.53 110.54 29.12 108.80 36.16 108.46 C 46.37 108.03 56.37 108.21 66.31 110.82 C 69.88 111.65 73.95 113.02 77.63 112.63 C 81.69 112.10 85.34 108.94 87.82 105.85 C 92.85 99.50 96.21 89.91 102.75 84.77 C 106.40 81.80 111.92 82.59 114.95 86.05 Z" fill="#e8e8e8" />
<path d="M 87.01 85.55 C 88.25 88.95 89.53 91.98 88.70 95.68 C 87.67 100.57 83.57 104.12 78.68 104.84 C 74.41 105.62 71.00 103.24 67.54 101.15 C 69.78 98.20 71.93 95.12 74.45 92.40 C 77.59 88.87 82.79 87.48 87.01 85.55 Z" fill="#454a4e" />
<path d="M 107.16 107.72 C 107.33 111.21 107.25 114.67 106.64 118.12 C 105.96 115.59 105.19 113.09 104.45 110.58 C 105.33 109.59 106.24 108.66 107.16 107.72 Z" fill="#ed6673" />
<path d="M 104.45 110.58 C 105.19 113.09 105.96 115.59 106.64 118.12 C 106.38 119.91 105.96 121.67 105.48 123.41 C 103.38 122.27 101.33 121.12 99.18 120.07 C 99.35 123.74 99.68 127.40 99.94 131.06 C 97.92 130.06 95.92 129.03 93.90 128.04 C 94.32 131.72 94.90 135.38 95.26 139.06 L 94.23 140.03 C 92.16 138.25 90.07 136.50 87.95 134.78 C 87.74 137.62 87.54 140.47 87.28 143.31 C 84.96 139.19 84.06 134.87 83.47 130.21 C 84.16 129.73 84.83 129.22 85.50 128.70 C 87.47 129.78 89.43 130.87 91.41 131.94 C 90.76 129.71 90.10 127.49 89.43 125.28 C 90.28 124.50 91.11 123.71 91.94 122.91 C 93.69 123.55 95.44 124.19 97.18 124.83 C 96.65 123.04 96.11 121.24 95.57 119.44 C 96.51 118.54 97.46 117.63 98.41 116.73 C 99.52 116.75 100.63 116.77 101.75 116.78 C 102.55 114.66 103.36 112.57 104.45 110.58 Z" fill="#ffffff" />
<path d="M 150.88 111.89 C 155.64 112.26 159.87 113.13 164.32 114.83 C 163.23 116.00 162.14 117.18 161.05 118.35 C 157.63 116.24 154.21 114.14 150.88 111.89 Z" fill="#879191" />
<path d="M 143.59 113.09 C 142.38 114.06 141.16 115.13 139.80 115.89 C 138.09 115.68 136.40 114.92 134.78 114.35 C 137.71 113.77 140.62 113.36 143.59 113.09 Z" fill="#8a9494" />
<path d="M 57.95 114.88 C 60.96 115.07 63.67 117.05 64.71 119.88 C 62.91 124.71 56.28 126.90 52.02 123.98 C 49.15 122.10 46.08 120.84 42.86 119.69 C 47.71 117.19 52.24 114.35 57.95 114.88 Z" fill="#44494d" />
<path d="M 13.83 117.86 C 17.13 122.38 20.05 126.96 24.20 130.79 C 29.74 136.17 36.12 139.81 42.59 143.88 C 44.07 144.98 45.47 146.20 46.89 147.39 C 46.11 148.53 45.34 149.68 44.56 150.82 C 40.40 145.37 34.82 143.58 29.58 139.45 C 25.68 136.40 21.93 133.00 18.88 129.09 C 16.24 125.70 15.06 121.90 13.83 117.86 Z" fill="#cbcbcb" />
<path d="M 95.57 119.44 C 96.11 121.24 96.65 123.04 97.18 124.83 C 95.44 124.19 93.69 123.55 91.94 122.91 C 93.15 121.75 94.36 120.60 95.57 119.44 Z" fill="#bdcac9" />
<path d="M 99.18 120.07 C 101.33 121.12 103.38 122.27 105.48 123.41 C 103.84 129.87 100.23 134.76 95.26 139.06 C 94.90 135.38 94.32 131.72 93.90 128.04 C 95.92 129.03 97.92 130.06 99.94 131.06 C 99.68 127.40 99.35 123.74 99.18 120.07 Z" fill="#b3c2c1" />
<path d="M 89.43 125.28 C 90.10 127.49 90.76 129.71 91.41 131.94 C 89.43 130.87 87.47 129.78 85.50 128.70 C 86.85 127.60 88.15 126.45 89.43 125.28 Z" fill="#bbc8c7" />
<path d="M 83.47 130.21 C 84.06 134.87 84.96 139.19 87.28 143.31 C 87.54 140.47 87.74 137.62 87.95 134.78 C 90.07 136.50 92.16 138.25 94.23 140.03 C 86.39 146.68 75.82 152.10 65.94 154.87 L 65.65 152.81 C 65.87 150.89 66.07 148.97 66.27 147.04 C 67.90 148.67 69.52 150.30 71.19 151.90 C 70.42 147.48 69.51 144.25 65.73 141.47 C 71.73 137.87 77.55 133.95 83.47 130.21 Z" fill="#b3c2c1" />
<path d="M 65.73 141.47 C 69.51 144.25 70.42 147.48 71.19 151.90 C 69.52 150.30 67.90 148.67 66.27 147.04 C 66.07 148.97 65.87 150.89 65.65 152.81 C 65.27 153.92 64.86 155.01 64.44 156.10 C 64.05 154.32 63.67 152.54 63.28 150.76 C 62.80 148.26 62.41 145.74 61.92 143.24 C 63.20 142.67 64.47 142.07 65.73 141.47 Z" fill="#ffffff" />
<path d="M 61.92 143.24 C 62.41 145.74 62.80 148.26 63.28 150.76 C 62.49 150.47 61.69 150.20 60.89 149.96 C 58.05 149.20 54.86 147.84 52.03 149.28 C 48.96 150.62 46.06 152.25 42.84 153.26 L 43.46 152.42 L 44.56 150.82 C 45.34 149.68 46.11 148.53 46.89 147.39 C 45.47 146.20 44.07 144.98 42.59 143.88 C 45.26 145.08 48.52 146.63 51.51 146.34 C 55.05 145.99 58.63 144.55 61.92 143.24 Z" fill="#b0bebd" />
<path d="M 60.89 149.96 C 61.69 150.20 62.49 150.47 63.28 150.76 C 63.67 152.54 64.05 154.32 64.44 156.10 C 63.22 156.38 61.99 156.67 60.77 156.95 C 60.78 154.61 60.79 152.29 60.89 149.96 Z" fill="#ff7381" />
<path d="M 63.01 162.16 L 62.73 164.17 C 61.56 164.15 60.92 163.70 60.79 162.82 C 61.16 161.97 61.90 161.75 63.01 162.16 Z" fill="#dd7a84" /></svg>