<?xml version="1.0" encoding="UTF-8" standalone="no"?>
<!DOCTYPE svg PUBLIC "-//W3C//DTD SVG 1.1//EN" "http://www.w3.org/Graphics/SVG/1.1/DTD/svg11.dtd">
<svg viewBox="0 0 192 192" height="192.0pt" width="192.0pt" xmlns="http://www.w3.org/2000/svg" version="1.1">
<path d="M 33.09 23.00 C 36.51 25.42 39.02 29.00 42.22 31.55 C 47.82 29.90 52.60 28.18 58.62 29.08 C 58.25 29.97 57.82 30.84 57.45 31.74 C 63.15 32.55 68.53 34.03 73.84 36.25 C 72.87 37.43 68.46 38.18 71.47 39.49 C 78.58 42.74 79.99 48.94 85.12 54.05 C 83.12 54.97 80.80 55.24 83.98 57.04 C 85.05 57.96 86.06 58.94 87.04 59.95 C 87.84 62.43 88.97 64.90 89.43 67.46 C 85.91 68.27 88.83 72.78 88.79 75.21 C 87.78 74.90 86.77 74.56 85.77 74.22 C 82.03 61.89 75.15 48.22 64.62 40.39 C 58.26 36.16 49.89 32.75 42.14 33.63 C 38.48 31.17 36.39 28.45 31.68 27.89 C 31.99 26.20 32.30 24.55 33.09 23.00 Z" fill="#967760" />
<path d="M 31.68 27.89 C 36.39 28.45 38.48 31.17 42.14 33.63 C 49.89 32.75 58.26 36.16 64.62 40.39 C 75.15 48.22 82.03 61.89 85.77 74.22 C 84.91 74.27 80.42 72.14 81.05 74.04 C 79.54 80.70 86.20 82.52 83.12 89.12 C 78.69 98.13 88.22 104.73 95.16 108.20 C 94.19 112.58 92.59 116.71 90.89 120.84 C 88.30 120.98 85.72 121.17 83.15 121.46 C 78.15 120.48 73.86 122.75 69.11 124.10 C 63.19 126.08 57.11 126.92 51.02 128.12 C 47.49 128.97 43.91 128.87 40.34 129.32 C 39.29 132.85 38.42 137.07 39.28 140.70 C 40.58 143.02 43.94 143.05 46.27 143.84 C 44.36 149.46 43.31 155.24 41.97 161.01 C 33.03 158.61 26.88 146.86 25.65 138.24 C 26.13 133.02 26.15 128.00 25.70 122.78 C 25.72 121.44 25.73 120.11 25.72 118.78 C 28.42 114.17 36.58 114.55 41.15 112.10 C 48.30 111.37 43.40 103.10 43.38 98.63 C 42.33 93.31 43.52 88.04 45.36 83.04 C 46.77 80.47 48.18 77.97 49.03 75.14 C 44.37 77.32 39.84 80.46 36.26 84.16 C 35.01 80.09 32.91 76.21 32.00 72.06 C 34.92 68.06 38.99 64.28 42.81 61.11 C 46.63 67.11 48.90 74.11 52.88 80.01 C 52.89 74.38 49.68 69.18 54.73 64.88 C 50.24 52.08 42.23 41.18 29.34 36.04 C 28.98 38.43 28.76 40.83 28.33 43.20 C 27.91 38.06 28.06 32.92 27.74 27.77 C 28.11 21.17 29.00 25.83 31.68 27.89 Z" fill="#b98564" />
<path d="M 27.74 27.77 C 28.06 32.92 27.91 38.06 28.33 43.20 L 28.23 44.01 C 25.93 49.92 23.27 55.68 20.91 61.58 C 19.50 64.10 18.15 66.65 16.71 69.15 L 15.86 68.82 C 19.09 59.24 27.59 48.14 25.09 37.99 C 24.50 34.13 26.08 31.10 27.74 27.77 Z" fill="#e4e2e0" />
<path d="M 29.34 36.04 C 42.23 41.18 50.24 52.08 54.73 64.88 C 49.68 69.18 52.89 74.38 52.88 80.01 C 48.90 74.11 46.63 67.11 42.81 61.11 C 38.99 64.28 34.92 68.06 32.00 72.06 C 32.91 76.21 35.01 80.09 36.26 84.16 C 33.30 84.03 30.25 84.17 27.31 83.70 C 25.65 81.08 25.56 78.31 25.39 75.33 C 25.71 70.75 19.72 70.96 16.71 69.15 C 18.15 66.65 19.50 64.10 20.91 61.58 C 22.66 62.65 24.31 63.89 26.08 64.92 C 28.36 63.49 30.19 61.23 32.13 59.39 C 40.84 59.04 42.14 47.82 37.03 42.90 C 35.25 44.12 33.66 45.76 32.14 47.29 C 30.83 46.21 29.52 45.11 28.23 44.01 L 28.33 43.20 C 28.76 40.83 28.98 38.43 29.34 36.04 Z" fill="#434241" />
<path d="M 37.03 42.90 C 42.14 47.82 40.84 59.04 32.13 59.39 C 22.11 59.31 30.65 51.71 32.14 47.29 C 33.66 45.76 35.25 44.12 37.03 42.90 Z" fill="#634f45" />
<path d="M 28.23 44.01 C 29.52 45.11 30.83 46.21 32.14 47.29 C 30.65 51.71 22.11 59.31 32.13 59.39 C 30.19 61.23 28.36 63.49 26.08 64.92 C 24.31 63.89 22.66 62.65 20.91 61.58 C 23.27 55.68 25.93 49.92 28.23 44.01 Z" fill="#b88768" />
<path d="M 85.12 54.05 C 86.65 55.45 84.97 56.14 83.98 57.04 C 80.80 55.24 83.12 54.97 85.12 54.05 Z" fill="#c0b5ad" />
<path d="M 87.04 59.95 C 91.89 63.97 90.54 70.61 91.84 76.14 C 90.81 75.86 89.79 75.55 88.79 75.21 C 88.83 72.78 85.91 68.27 89.43 67.46 C 88.97 64.90 87.84 62.43 87.04 59.95 Z" fill="#dfdedb" />
<path d="M 15.86 68.82 C 16.25 73.74 11.85 75.66 15.84 80.17 C 18.90 86.76 30.78 90.62 36.01 85.09 C 38.45 84.41 44.32 78.01 45.36 83.04 C 43.52 88.04 42.33 93.31 43.38 98.63 C 43.40 103.10 48.30 111.37 41.15 112.10 C 42.53 105.31 40.24 98.06 40.95 90.99 C 41.54 87.38 38.04 89.68 36.41 90.43 C 30.04 95.36 19.75 91.61 15.25 85.75 C 10.52 80.16 12.22 74.41 15.86 68.82 Z" fill="#dfdedd" />
<path d="M 15.86 68.82 L 16.71 69.15 C 19.72 70.96 25.71 70.75 25.39 75.33 C 25.56 78.31 25.65 81.08 27.31 83.70 C 30.25 84.17 33.30 84.03 36.26 84.16 L 36.01 85.09 C 30.78 90.62 18.90 86.76 15.84 80.17 C 11.85 75.66 16.25 73.74 15.86 68.82 Z" fill="#9c775e" />
<path d="M 85.77 74.22 C 86.77 74.56 87.78 74.90 88.79 75.21 C 89.79 75.55 90.81 75.86 91.84 76.14 C 93.46 76.63 95.09 77.03 96.75 77.35 C 101.95 78.41 108.03 78.37 113.23 77.34 C 118.22 76.28 122.98 75.73 128.10 75.97 C 125.25 80.10 120.49 83.51 122.99 89.00 C 125.02 94.66 123.98 100.43 119.61 104.62 C 116.19 107.34 111.41 108.57 107.15 109.19 C 103.12 109.08 99.13 109.07 95.16 108.20 C 88.22 104.73 78.69 98.13 83.12 89.12 C 86.20 82.52 79.54 80.70 81.05 74.04 C 80.42 72.14 84.91 74.27 85.77 74.22 Z" fill="#90c745" />
<path d="M 49.03 75.14 C 48.18 77.97 46.77 80.47 45.36 83.04 C 44.32 78.01 38.45 84.41 36.01 85.09 L 36.26 84.16 C 39.84 80.46 44.37 77.32 49.03 75.14 Z" fill="#c4c0bd" />
<path d="M 128.10 75.97 C 133.72 75.11 136.35 79.78 141.46 79.97 C 141.43 84.81 145.94 89.19 146.96 94.11 C 147.25 99.08 146.19 103.78 145.63 108.69 C 143.54 110.88 141.72 113.38 140.14 115.96 C 142.78 117.73 145.51 117.08 148.32 116.16 C 152.03 117.10 153.06 118.98 155.02 121.99 C 154.99 123.53 154.95 125.08 154.90 126.63 C 153.58 132.22 150.33 138.23 151.07 143.89 C 151.21 145.57 151.51 147.22 151.84 148.87 C 151.34 148.76 150.84 148.68 150.33 148.61 C 147.74 152.92 145.89 156.92 141.04 159.15 C 139.04 153.53 137.32 148.18 138.35 142.14 C 138.88 139.83 139.47 137.51 139.80 135.17 C 132.00 136.24 124.53 137.00 117.03 133.98 C 113.86 131.04 110.50 128.63 108.20 124.87 C 106.85 121.82 106.14 122.18 103.03 121.84 C 106.15 118.17 106.74 113.82 107.15 109.19 C 111.41 108.57 116.19 107.34 119.61 104.62 C 123.98 100.43 125.02 94.66 122.99 89.00 C 120.49 83.51 125.25 80.10 128.10 75.97 Z" fill="#b7815e" />
<path d="M 160.20 76.77 C 156.36 77.02 152.64 77.02 148.80 76.76 C 152.33 75.58 156.66 75.58 160.20 76.77 Z" fill="#c7b8ac" />
<path d="M 96.75 77.35 C 102.32 76.84 107.67 76.84 113.23 77.34 C 108.03 78.37 101.95 78.41 96.75 77.35 Z" fill="#c0dd9a" />
<path d="M 148.80 76.76 C 152.64 77.02 156.36 77.02 160.20 76.77 C 165.23 78.51 169.85 79.77 172.36 84.95 C 170.49 91.32 166.60 95.90 166.93 103.00 C 167.32 112.51 172.04 122.18 177.01 130.15 L 177.17 130.95 C 175.43 130.39 173.74 129.76 172.06 129.05 C 162.55 123.52 149.04 115.55 148.96 103.01 C 148.16 100.03 152.59 92.77 146.96 94.11 C 145.94 89.19 141.43 84.81 141.46 79.97 C 143.81 78.67 146.24 77.55 148.80 76.76 Z" fill="#8a6950" />
<path d="M 172.36 84.95 C 176.07 89.46 171.56 94.81 170.62 99.62 C 167.40 112.03 174.09 119.25 177.01 130.15 C 172.04 122.18 167.32 112.51 166.93 103.00 C 166.60 95.90 170.49 91.32 172.36 84.95 Z" fill="#e0dfde" />
<path d="M 146.96 94.11 C 152.59 92.77 148.16 100.03 148.96 103.01 C 149.04 115.55 162.55 123.52 172.06 129.05 C 165.02 129.09 161.82 122.70 155.02 121.99 C 153.06 118.98 152.03 117.10 148.32 116.16 C 147.40 113.68 146.51 111.19 145.63 108.69 C 146.19 103.78 147.25 99.08 146.96 94.11 Z" fill="#cac8c7" />
<path d="M 95.16 108.20 C 99.13 109.07 103.12 109.08 107.15 109.19 C 106.74 113.82 106.15 118.17 103.03 121.84 C 98.99 121.31 94.98 120.84 90.89 120.84 C 92.59 116.71 94.19 112.58 95.16 108.20 Z" fill="#5d493c" />
<path d="M 145.63 108.69 C 146.51 111.19 147.40 113.68 148.32 116.16 C 145.51 117.08 142.78 117.73 140.14 115.96 C 141.72 113.38 143.54 110.88 145.63 108.69 Z" fill="#906c52" />
<path d="M 25.72 118.78 C 25.73 120.11 25.72 121.44 25.70 122.78 C 24.62 127.76 24.60 133.25 25.65 138.24 C 26.88 146.86 33.03 158.61 41.97 161.01 C 43.89 161.58 45.81 162.19 47.76 162.62 C 48.68 156.38 49.31 150.10 49.84 143.82 C 64.47 146.74 82.47 150.93 94.50 139.42 C 97.02 137.52 95.48 135.55 95.05 133.03 C 98.15 135.88 99.01 139.59 95.77 142.77 C 91.24 145.72 85.45 146.84 80.63 149.55 C 73.14 150.99 64.64 148.15 56.99 147.96 C 49.05 145.94 53.63 159.97 49.77 163.80 C 45.53 169.34 38.83 165.87 34.38 162.61 C 27.26 155.48 22.50 146.30 22.96 136.00 C 23.32 130.26 21.63 123.36 25.72 118.78 Z" fill="#e3e3e3" />
<path d="M 83.15 121.46 C 79.56 124.86 75.77 126.80 73.06 130.99 C 74.34 130.74 75.59 130.42 76.83 130.03 C 79.95 133.56 82.26 137.61 85.13 141.33 C 83.50 142.58 81.81 144.11 79.88 144.84 C 71.30 143.69 62.46 143.63 53.96 142.09 C 47.16 139.83 46.59 133.22 51.02 128.12 C 57.11 126.92 63.19 126.08 69.11 124.10 C 73.86 122.75 78.15 120.48 83.15 121.46 Z" fill="#8b6a51" />
<path d="M 90.89 120.84 C 94.98 120.84 98.99 121.31 103.03 121.84 C 106.14 122.18 106.85 121.82 108.20 124.87 C 101.77 122.39 92.28 122.31 85.67 123.77 C 82.26 125.09 79.18 127.22 76.83 130.03 C 75.59 130.42 74.34 130.74 73.06 130.99 C 75.77 126.80 79.56 124.86 83.15 121.46 C 85.72 121.17 88.30 120.98 90.89 120.84 Z" fill="#bdbbba" />
<path d="M 155.02 121.99 C 161.82 122.70 165.02 129.09 172.06 129.05 C 173.74 129.76 175.43 130.39 177.17 130.95 C 177.92 133.88 169.58 134.18 167.71 134.82 C 164.00 134.80 161.99 132.38 159.03 130.53 C 157.67 129.22 156.29 127.92 154.90 126.63 C 154.95 125.08 154.99 123.53 155.02 121.99 Z" fill="#e2e2e1" />
<path d="M 25.70 122.78 C 26.15 128.00 26.13 133.02 25.65 138.24 C 24.60 133.25 24.62 127.76 25.70 122.78 Z" fill="#c3ab9b" />
<path d="M 108.20 124.87 C 110.50 128.63 113.86 131.04 117.03 133.98 C 120.93 139.23 130.24 137.58 135.89 138.15 C 138.12 138.16 137.74 140.58 138.35 142.14 C 137.32 148.18 139.04 153.53 141.04 159.15 C 142.42 162.44 147.23 171.19 151.64 168.65 C 156.44 165.34 160.91 155.91 154.62 151.83 C 156.53 151.27 158.24 151.40 160.19 151.69 C 161.65 152.22 163.86 154.82 165.25 153.26 C 167.63 148.06 168.99 141.79 169.03 136.08 C 172.49 141.38 170.74 148.90 168.20 154.23 C 165.59 158.42 160.32 156.56 159.77 161.82 C 158.41 168.19 153.49 176.04 145.96 172.03 C 137.65 166.24 135.71 152.61 135.74 143.27 C 133.04 140.16 128.61 141.27 124.98 140.93 C 116.10 140.20 111.16 134.46 105.66 128.34 C 103.16 126.69 91.62 125.07 92.55 130.16 C 90.47 127.80 88.15 125.70 85.67 123.77 C 92.28 122.31 101.77 122.39 108.20 124.87 Z" fill="#dddddd" />
<path d="M 85.67 123.77 C 88.15 125.70 90.47 127.80 92.55 130.16 C 93.35 131.15 94.18 132.10 95.05 133.03 C 95.48 135.55 97.02 137.52 94.50 139.42 C 91.03 138.78 88.22 139.95 85.13 141.33 C 82.26 137.61 79.95 133.56 76.83 130.03 C 79.18 127.22 82.26 125.09 85.67 123.77 Z" fill="#5e493f" />
<path d="M 154.90 126.63 C 156.29 127.92 157.67 129.22 159.03 130.53 C 156.74 135.53 155.76 141.02 153.74 146.14 C 152.85 145.39 151.95 144.65 151.07 143.89 C 150.33 138.23 153.58 132.22 154.90 126.63 Z" fill="#89674e" />
<path d="M 51.02 128.12 C 46.59 133.22 47.16 139.83 53.96 142.09 C 62.46 143.63 71.30 143.69 79.88 144.84 C 81.81 144.11 83.50 142.58 85.13 141.33 C 88.22 139.95 91.03 138.78 94.50 139.42 C 82.47 150.93 64.47 146.74 49.84 143.82 C 48.65 143.82 47.46 143.82 46.27 143.84 C 43.94 143.05 40.58 143.02 39.28 140.70 C 38.42 137.07 39.29 132.85 40.34 129.32 C 43.91 128.87 47.49 128.97 51.02 128.12 Z" fill="#d5d5d4" />
<path d="M 159.03 130.53 C 161.99 132.38 164.00 134.80 167.71 134.82 L 169.03 136.08 C 168.99 141.79 167.63 148.06 165.25 153.26 C 163.86 154.82 161.65 152.22 160.19 151.69 C 158.01 149.86 155.81 148.10 153.74 146.14 C 155.76 141.02 156.74 135.53 159.03 130.53 Z" fill="#5a453b" />
<path d="M 117.03 133.98 C 124.53 137.00 132.00 136.24 139.80 135.17 C 139.47 137.51 138.88 139.83 138.35 142.14 C 137.74 140.58 138.12 138.16 135.89 138.15 C 130.24 137.58 120.93 139.23 117.03 133.98 Z" fill="#c7c4c2" />
<path d="M 46.27 143.84 C 47.46 143.82 48.65 143.82 49.84 143.82 C 49.31 150.10 48.68 156.38 47.76 162.62 C 45.81 162.19 43.89 161.58 41.97 161.01 C 43.31 155.24 44.36 149.46 46.27 143.84 Z" fill="#604b41" />
<path d="M 151.07 143.89 C 151.95 144.65 152.85 145.39 153.74 146.14 C 155.81 148.10 158.01 149.86 160.19 151.69 C 158.24 151.40 156.53 151.27 154.62 151.83 C 153.65 150.88 152.73 149.89 151.84 148.87 C 151.51 147.22 151.21 145.57 151.07 143.89 Z" fill="#bfbbb8" />
<path d="M 150.33 148.61 C 150.84 148.68 151.34 148.76 151.84 148.87 C 152.73 149.89 153.65 150.88 154.62 151.83 C 160.91 155.91 156.44 165.34 151.64 168.65 C 147.23 171.19 142.42 162.44 141.04 159.15 C 145.89 156.92 147.74 152.92 150.33 148.61 Z" fill="#5b453b" /></svg>