<?xml version="1.0" encoding="UTF-8" standalone="no"?>
<!DOCTYPE svg PUBLIC "-//W3C//DTD SVG 1.1//EN" "http://www.w3.org/Graphics/SVG/1.1/DTD/svg11.dtd">
<svg viewBox="0 0 192 192" height="192.0pt" width="192.0pt" xmlns="http://www.w3.org/2000/svg" version="1.1">
<path d="M 51.33 15.84 C 56.46 18.84 60.97 23.13 66.30 25.67 C 71.26 27.90 77.33 29.06 82.66 27.67 C 87.77 26.32 92.03 22.26 96.03 18.98 C 101.83 23.77 107.00 28.20 115.00 28.22 C 125.30 28.04 132.69 21.08 141.03 16.08 C 140.62 17.29 140.20 18.50 139.77 19.71 C 137.74 22.98 135.65 26.20 133.91 29.64 C 135.92 30.09 137.93 30.51 139.92 31.02 C 142.43 31.73 144.85 32.70 147.22 33.79 C 142.64 32.90 137.88 31.42 133.21 31.42 C 130.20 32.35 127.81 35.81 125.79 38.10 C 119.43 38.68 113.67 40.84 108.16 43.98 C 108.95 41.27 109.70 38.55 110.33 35.80 C 106.17 34.60 103.80 36.32 100.46 38.44 C 99.59 34.66 98.37 31.09 96.33 27.79 C 94.76 31.45 93.61 35.17 92.28 38.93 C 88.93 36.55 86.08 35.19 81.93 34.73 C 82.19 37.53 82.59 40.31 83.00 43.09 C 78.81 41.31 74.93 39.49 70.38 38.73 C 62.54 37.49 54.36 38.52 47.36 42.37 C 38.54 47.28 31.69 55.59 29.58 65.57 C 28.22 72.28 28.54 79.55 31.03 85.96 C 34.01 93.82 40.12 100.48 47.40 104.59 C 59.09 110.98 73.96 109.95 84.81 102.26 C 85.77 105.03 87.09 107.65 88.63 110.14 C 80.94 115.50 72.19 117.52 62.93 117.87 C 55.06 117.30 47.46 115.55 40.76 111.22 C 37.75 109.31 34.87 107.17 32.09 104.94 C 27.66 99.52 23.62 94.17 21.60 87.35 C 17.50 74.00 19.91 59.89 27.14 48.09 C 34.13 40.18 41.68 33.49 52.25 31.01 C 54.39 30.51 56.57 30.10 58.72 29.66 C 56.63 25.94 54.29 22.39 51.89 18.86 C 51.69 17.86 51.50 16.85 51.33 15.84 Z" fill="#9959e1" />
<path d="M 51.89 18.86 C 54.29 22.39 56.63 25.94 58.72 29.66 C 56.57 30.10 54.39 30.51 52.25 31.01 C 52.34 26.95 52.30 22.91 51.89 18.86 Z" fill="#e2e2e2" />
<path d="M 139.77 19.71 C 139.73 23.48 139.84 27.25 139.92 31.02 C 137.93 30.51 135.92 30.09 133.91 29.64 C 135.65 26.20 137.74 22.98 139.77 19.71 Z" fill="#e1e1e1" />
<path d="M 96.33 27.79 C 98.37 31.09 99.59 34.66 100.46 38.44 C 103.80 36.32 106.17 34.60 110.33 35.80 C 109.70 38.55 108.95 41.27 108.16 43.98 C 113.67 40.84 119.43 38.68 125.79 38.10 C 132.40 38.11 138.84 39.08 144.70 42.31 C 154.29 47.57 161.63 57.02 163.02 68.03 C 163.58 73.24 163.45 78.83 161.88 83.86 C 159.13 92.89 152.29 100.62 144.01 105.01 C 132.36 110.94 117.97 109.78 107.29 102.28 C 108.09 98.55 108.38 94.71 108.31 90.90 C 113.63 95.92 119.66 99.49 127.20 99.55 C 139.66 100.33 151.35 90.94 153.69 78.79 C 154.49 73.61 154.28 67.77 152.07 62.95 C 150.01 58.37 146.53 54.41 142.38 51.60 C 135.00 46.59 124.87 46.06 116.86 49.87 C 110.56 52.92 105.51 58.59 103.29 65.24 C 102.09 68.83 101.95 72.40 101.71 76.14 C 99.16 73.21 96.22 70.58 93.15 68.20 C 93.02 70.03 92.92 71.87 92.88 73.71 C 92.03 74.55 91.17 75.39 90.35 76.26 C 90.49 68.03 88.32 60.53 82.24 54.76 C 72.72 45.06 56.08 44.87 46.32 54.32 C 37.71 61.98 35.53 75.07 40.70 85.28 C 44.15 91.93 50.68 97.45 58.11 98.94 C 63.28 99.99 68.90 99.71 73.85 97.79 C 77.77 96.24 80.69 93.64 83.81 90.90 C 83.78 94.70 84.07 98.53 84.81 102.26 C 73.96 109.95 59.09 110.98 47.40 104.59 C 40.12 100.48 34.01 93.82 31.03 85.96 C 28.54 79.55 28.22 72.28 29.58 65.57 C 31.69 55.59 38.54 47.28 47.36 42.37 C 54.36 38.52 62.54 37.49 70.38 38.73 C 74.93 39.49 78.81 41.31 83.00 43.09 C 82.59 40.31 82.19 37.53 81.93 34.73 C 86.08 35.19 88.93 36.55 92.28 38.93 C 93.61 35.17 94.76 31.45 96.33 27.79 Z" fill="#c9e85b" />
<path d="M 133.21 31.42 C 137.88 31.42 142.64 32.90 147.22 33.79 C 151.14 35.51 154.77 38.17 158.13 40.81 C 163.40 46.44 168.00 52.24 170.35 59.72 C 173.84 70.48 173.29 82.96 168.14 93.11 C 165.96 97.36 163.07 101.27 159.89 104.83 C 151.14 112.63 141.00 117.38 129.17 117.82 C 119.97 117.51 111.14 115.43 103.54 110.03 C 105.06 107.58 106.35 105.00 107.29 102.28 C 117.97 109.78 132.36 110.94 144.01 105.01 C 152.29 100.62 159.13 92.89 161.88 83.86 C 163.45 78.83 163.58 73.24 163.02 68.03 C 161.63 57.02 154.29 47.57 144.70 42.31 C 138.84 39.08 132.40 38.11 125.79 38.10 C 127.81 35.81 130.20 32.35 133.21 31.42 Z" fill="#9552e0" />
<path d="M 158.13 40.81 C 165.18 45.48 169.70 52.50 172.73 60.27 C 176.91 71.57 176.48 84.42 171.39 95.36 C 169.51 99.39 166.81 102.83 164.72 106.71 C 162.07 111.55 161.66 117.75 160.04 123.12 C 157.92 130.21 154.84 137.42 150.28 143.31 C 147.68 146.76 145.12 149.81 144.43 154.24 C 143.22 161.24 142.15 169.47 136.76 174.71 C 132.60 177.96 125.85 180.84 120.65 178.48 C 116.22 176.93 112.83 173.36 108.52 171.74 C 103.78 171.00 98.80 172.27 93.98 171.88 C 90.46 171.91 86.23 170.86 82.86 172.04 C 77.84 174.39 73.11 179.56 67.13 179.41 C 62.91 179.00 58.01 177.01 54.93 174.06 C 50.09 168.54 49.11 160.97 47.89 154.04 C 47.31 150.13 45.15 147.24 42.81 144.21 C 37.86 137.91 34.34 130.54 32.30 122.80 C 31.23 118.79 30.65 114.54 29.28 110.65 C 27.65 106.03 24.42 102.40 22.05 97.98 C 17.22 89.04 15.85 78.35 17.42 68.37 C 18.73 60.76 21.52 53.57 27.14 48.09 C 19.91 59.89 17.50 74.00 21.60 87.35 C 23.62 94.17 27.66 99.52 32.09 104.94 C 33.29 112.10 34.35 119.13 37.03 125.94 C 40.19 133.97 44.70 141.31 51.35 146.92 C 51.09 150.80 50.70 154.40 51.83 158.20 C 53.31 163.21 55.56 168.10 58.22 172.59 L 59.71 172.90 C 61.61 173.24 63.52 173.51 65.44 173.79 C 66.02 175.17 66.65 176.53 67.29 177.89 C 67.81 176.58 68.33 175.28 68.86 173.97 C 70.66 173.64 72.46 173.31 74.24 172.90 C 75.16 172.30 76.03 171.65 76.90 170.99 C 83.22 166.05 89.69 169.15 97.01 168.71 C 103.60 168.86 109.56 166.26 115.22 170.86 C 116.06 171.74 116.90 172.61 117.83 173.39 C 119.68 173.57 121.53 173.68 123.38 173.80 C 123.93 175.04 124.53 176.27 125.13 177.48 C 125.72 176.29 126.30 175.09 126.84 173.88 C 128.65 173.22 130.47 172.55 132.28 171.87 C 132.69 172.57 133.12 173.26 133.54 173.96 C 136.19 168.81 139.27 163.31 140.62 157.66 C 141.47 154.08 141.13 150.64 140.82 147.04 C 148.94 140.54 153.84 130.63 156.98 120.91 C 158.72 115.70 159.58 110.31 159.89 104.83 C 163.07 101.27 165.96 97.36 168.14 93.11 C 173.29 82.96 173.84 70.48 170.35 59.72 C 168.00 52.24 163.40 46.44 158.13 40.81 Z" fill="#e3e3e3" />
<path d="M 82.24 54.76 C 88.32 60.53 90.49 68.03 90.35 76.26 C 86.85 80.49 84.68 85.48 83.81 90.90 C 80.69 93.64 77.77 96.24 73.85 97.79 C 68.90 99.71 63.28 99.99 58.11 98.94 C 50.68 97.45 44.15 91.93 40.70 85.28 C 35.53 75.07 37.71 61.98 46.32 54.32 C 56.08 44.87 72.72 45.06 82.24 54.76 Z" fill="#ffffff" />
<path d="M 142.38 51.60 C 146.53 54.41 150.01 58.37 152.07 62.95 C 154.28 67.77 154.49 73.61 153.69 78.79 C 151.35 90.94 139.66 100.33 127.20 99.55 C 119.66 99.49 113.63 95.92 108.31 90.90 C 107.48 85.39 105.17 80.48 101.71 76.14 C 101.95 72.40 102.09 68.83 103.29 65.24 C 105.51 58.59 110.56 52.92 116.86 49.87 C 124.87 46.06 135.00 46.59 142.38 51.60 Z" fill="#ffffff" />
<path d="M 59.29 57.23 C 62.61 56.25 66.25 56.28 69.55 57.36 C 76.44 59.71 81.51 66.59 81.01 73.98 C 80.93 82.53 73.60 90.17 65.01 90.43 C 56.39 90.96 48.32 84.20 47.21 75.66 C 45.93 67.46 51.45 59.55 59.29 57.23 Z" fill="#484d51" />
<path d="M 122.44 57.42 C 132.02 54.02 142.98 60.31 144.82 70.29 C 146.78 80.15 138.99 89.90 129.02 90.41 C 119.63 91.16 111.27 83.33 111.16 73.98 C 110.69 66.61 115.58 59.84 122.44 57.42 Z" fill="#43484c" />
<path d="M 93.15 68.20 C 96.22 70.58 99.16 73.21 101.71 76.14 C 105.17 80.48 107.48 85.39 108.31 90.90 C 108.38 94.71 108.09 98.55 107.29 102.28 C 106.35 105.00 105.06 107.58 103.54 110.03 C 100.72 114.06 97.07 117.15 93.18 120.10 C 93.08 118.45 92.99 116.79 92.93 115.14 C 92.94 101.33 93.17 87.52 92.88 73.71 C 92.92 71.87 93.02 70.03 93.15 68.20 Z" fill="#f2b407" />
<path d="M 92.88 73.71 C 93.17 87.52 92.94 101.33 92.93 115.14 C 91.48 113.48 90.04 111.83 88.63 110.14 C 87.09 107.65 85.77 105.03 84.81 102.26 C 84.07 98.53 83.78 94.70 83.81 90.90 C 84.68 85.48 86.85 80.49 90.35 76.26 C 91.17 75.39 92.03 74.55 92.88 73.71 Z" fill="#ffcf38" />
<path d="M 32.09 104.94 C 34.87 107.17 37.75 109.31 40.76 111.22 C 47.46 115.55 55.06 117.30 62.93 117.87 C 63.00 123.35 63.66 128.69 64.71 134.06 C 65.07 135.91 65.44 137.76 65.81 139.60 C 65.97 140.38 66.12 141.15 66.27 141.92 C 61.29 143.74 56.12 144.65 51.35 146.92 C 44.70 141.31 40.19 133.97 37.03 125.94 C 34.35 119.13 33.29 112.10 32.09 104.94 Z" fill="#c392ef" />
<path d="M 159.89 104.83 C 159.58 110.31 158.72 115.70 156.98 120.91 C 153.84 130.63 148.94 140.54 140.82 147.04 C 136.30 144.57 131.30 144.07 126.60 142.06 C 127.09 138.94 127.58 135.83 128.06 132.71 C 129.04 127.79 129.25 122.83 129.17 117.82 C 141.00 117.38 151.14 112.63 159.89 104.83 Z" fill="#c28fef" />
<path d="M 88.63 110.14 C 90.04 111.83 91.48 113.48 92.93 115.14 C 92.99 116.79 93.08 118.45 93.18 120.10 C 97.07 117.15 100.72 114.06 103.54 110.03 C 111.14 115.43 119.97 117.51 129.17 117.82 C 129.25 122.83 129.04 127.79 128.06 132.71 C 126.90 134.00 125.32 135.34 124.68 136.98 C 124.78 138.60 125.33 140.23 125.82 141.77 C 123.16 142.37 120.60 143.22 117.97 143.91 C 119.74 141.70 121.45 139.44 123.12 137.15 C 120.42 133.54 117.72 130.06 114.24 127.15 C 110.99 130.16 108.32 133.62 105.69 137.17 C 107.68 139.86 109.81 142.45 111.86 145.09 C 110.20 147.86 109.02 150.65 108.81 153.91 C 107.64 155.25 106.46 156.56 105.26 157.87 C 102.22 154.60 99.31 151.16 96.09 148.07 C 92.89 151.19 89.96 154.57 86.85 157.78 C 85.66 156.50 84.47 155.22 83.30 153.92 C 83.12 150.47 81.99 147.80 80.09 144.98 C 82.27 142.42 84.54 139.99 86.95 137.65 C 90.03 140.80 93.02 144.03 96.04 147.23 C 99.21 144.21 102.12 141.00 104.89 137.61 C 102.29 133.69 99.43 130.25 96.05 126.98 C 93.00 130.37 89.98 133.78 86.95 137.19 C 83.91 133.84 81.02 130.34 77.85 127.13 C 74.44 130.11 71.73 133.54 68.97 137.11 C 70.65 139.39 72.35 141.64 74.09 143.86 C 71.48 143.20 68.93 142.41 66.27 141.92 C 66.12 141.15 65.97 140.38 65.81 139.60 C 66.56 138.69 67.31 137.78 68.06 136.86 C 66.94 135.93 65.83 134.99 64.71 134.06 C 63.66 128.69 63.00 123.35 62.93 117.87 C 72.19 117.52 80.94 115.50 88.63 110.14 Z" fill="#a4c030" />
<path d="M 77.85 127.13 C 81.02 130.34 83.91 133.84 86.95 137.19 C 89.98 133.78 93.00 130.37 96.05 126.98 C 99.43 130.25 102.29 133.69 104.89 137.61 C 102.12 141.00 99.21 144.21 96.04 147.23 C 93.02 144.03 90.03 140.80 86.95 137.65 C 84.54 139.99 82.27 142.42 80.09 144.98 C 78.08 144.67 76.08 144.33 74.09 143.86 C 72.35 141.64 70.65 139.39 68.97 137.11 C 71.73 133.54 74.44 130.11 77.85 127.13 Z" fill="#c8e758" />
<path d="M 114.24 127.15 C 117.72 130.06 120.42 133.54 123.12 137.15 C 121.45 139.44 119.74 141.70 117.97 143.91 C 115.95 144.40 113.91 144.76 111.86 145.09 C 109.81 142.45 107.68 139.86 105.69 137.17 C 108.32 133.62 110.99 130.16 114.24 127.15 Z" fill="#c7e756" />
<path d="M 128.06 132.71 C 127.58 135.83 127.09 138.94 126.60 142.06 L 125.82 141.77 C 125.33 140.23 124.78 138.60 124.68 136.98 C 125.32 135.34 126.90 134.00 128.06 132.71 Z" fill="#c3d962" />
<path d="M 64.71 134.06 C 65.83 134.99 66.94 135.93 68.06 136.86 C 67.31 137.78 66.56 138.69 65.81 139.60 C 65.44 137.76 65.07 135.91 64.71 134.06 Z" fill="#c6df62" />
<path d="M 66.27 141.92 C 68.93 142.41 71.48 143.20 74.09 143.86 C 76.08 144.33 78.08 144.67 80.09 144.98 C 81.99 147.80 83.12 150.47 83.30 153.92 C 82.58 157.27 81.59 160.57 80.38 163.78 C 79.32 166.23 78.12 168.62 76.90 170.99 C 76.03 171.65 75.16 172.30 74.24 172.90 C 73.42 171.12 72.59 169.34 71.70 167.59 C 70.66 169.68 69.73 171.81 68.86 173.97 C 68.33 175.28 67.81 176.58 67.29 177.89 C 66.65 176.53 66.02 175.17 65.44 173.79 C 64.50 171.52 63.62 169.23 62.65 166.97 C 61.61 168.92 60.65 170.90 59.71 172.90 L 58.22 172.59 C 55.56 168.10 53.31 163.21 51.83 158.20 C 50.70 154.40 51.09 150.80 51.35 146.92 C 56.12 144.65 61.29 143.74 66.27 141.92 Z" fill="#f2b303" />
<path d="M 125.82 141.77 L 126.60 142.06 C 131.30 144.07 136.30 144.57 140.82 147.04 C 141.13 150.64 141.47 154.08 140.62 157.66 C 139.27 163.31 136.19 168.81 133.54 173.96 C 133.12 173.26 132.69 172.57 132.28 171.87 C 131.34 170.27 130.42 168.66 129.45 167.09 C 128.58 169.34 127.76 171.65 126.84 173.88 C 126.30 175.09 125.72 176.29 125.13 177.48 C 124.53 176.27 123.93 175.04 123.38 173.80 C 122.51 171.73 121.67 169.65 120.72 167.61 C 119.69 169.50 118.75 171.44 117.83 173.39 C 116.90 172.61 116.06 171.74 115.22 170.86 C 114.16 168.61 113.18 166.32 112.22 164.02 L 111.92 163.27 C 110.75 160.21 109.65 157.08 108.81 153.91 C 109.02 150.65 110.20 147.86 111.86 145.09 C 113.91 144.76 115.95 144.40 117.97 143.91 C 120.60 143.22 123.16 142.37 125.82 141.77 Z" fill="#f2b200" />
<path d="M 96.09 148.07 C 99.31 151.16 102.22 154.60 105.26 157.87 C 106.46 156.56 107.64 155.25 108.81 153.91 C 109.65 157.08 110.75 160.21 111.92 163.27 C 101.77 165.67 91.71 165.38 81.43 164.07 L 80.38 163.78 C 81.59 160.57 82.58 157.27 83.30 153.92 C 84.47 155.22 85.66 156.50 86.85 157.78 C 89.96 154.57 92.89 151.19 96.09 148.07 Z" fill="#c7e756" />
<path d="M 111.92 163.27 L 112.22 164.02 C 102.24 166.98 91.36 167.64 81.43 164.07 C 91.71 165.38 101.77 165.67 111.92 163.27 Z" fill="#aac350" />
<path d="M 80.38 163.78 L 81.43 164.07 C 91.36 167.64 102.24 166.98 112.22 164.02 C 113.18 166.32 114.16 168.61 115.22 170.86 C 109.56 166.26 103.60 168.86 97.01 168.71 C 89.69 169.15 83.22 166.05 76.90 170.99 C 78.12 168.62 79.32 166.23 80.38 163.78 Z" fill="#cacaca" />
<path d="M 62.65 166.97 C 63.62 169.23 64.50 171.52 65.44 173.79 C 63.52 173.51 61.61 173.24 59.71 172.90 C 60.65 170.90 61.61 168.92 62.65 166.97 Z" fill="#c7c4bd" />
<path d="M 129.45 167.09 C 130.42 168.66 131.34 170.27 132.28 171.87 C 130.47 172.55 128.65 173.22 126.84 173.88 C 127.76 171.65 128.58 169.34 129.45 167.09 Z" fill="#c5c1b6" />
<path d="M 71.70 167.59 C 72.59 169.34 73.42 171.12 74.24 172.90 C 72.46 173.31 70.66 173.64 68.86 173.97 C 69.73 171.81 70.66 169.68 71.70 167.59 Z" fill="#c6c3b9" />
<path d="M 120.72 167.61 C 121.67 169.65 122.51 171.73 123.38 173.80 C 121.53 173.68 119.68 173.57 117.83 173.39 C 118.75 171.44 119.69 169.50 120.72 167.61 Z" fill="#c8c6c3" /></svg>