<?xml version="1.0" encoding="UTF-8" standalone="no"?>
<!DOCTYPE svg PUBLIC "-//W3C//DTD SVG 1.1//EN" "http://www.w3.org/Graphics/SVG/1.1/DTD/svg11.dtd">
<svg viewBox="0 0 192 192" height="192.0pt" width="192.0pt" xmlns="http://www.w3.org/2000/svg" version="1.1">
<path d="M 66.26 30.31 C 70.88 34.42 72.39 40.11 74.40 45.68 C 75.26 48.39 77.17 50.06 79.01 52.10 C 81.67 56.36 81.98 60.95 82.02 65.85 C 77.71 66.46 73.92 67.17 69.96 64.81 C 71.17 59.55 73.04 53.67 71.78 48.29 C 70.77 43.73 68.10 40.22 64.90 36.96 C 61.17 39.88 56.85 43.72 55.31 48.33 C 54.05 52.36 54.10 56.93 53.77 61.12 C 50.98 58.03 47.70 55.59 43.34 57.21 C 38.71 58.84 37.30 64.64 35.70 68.73 C 36.29 69.27 36.88 69.82 37.47 70.36 L 38.58 71.36 L 36.91 70.76 C 37.72 72.47 38.59 74.15 39.50 75.82 C 36.45 79.55 34.75 82.77 33.54 87.46 C 36.89 87.30 40.46 86.97 43.78 87.41 C 47.66 87.99 51.20 89.99 55.14 90.75 C 59.86 91.59 64.47 91.01 69.09 89.94 C 72.82 89.01 76.28 89.50 80.06 89.70 C 77.68 87.97 75.30 86.26 72.92 84.53 C 76.99 81.39 81.23 78.49 85.35 75.41 C 83.52 75.54 81.69 75.68 79.85 75.80 C 82.24 74.64 84.65 73.55 87.06 72.45 C 86.05 72.07 85.04 71.68 84.03 71.29 C 84.61 70.78 85.20 70.27 85.79 69.76 C 96.05 74.66 105.30 81.17 112.38 90.16 C 102.96 91.44 92.34 93.33 85.31 100.31 C 82.60 102.67 83.44 106.62 82.76 109.88 C 82.33 114.15 78.34 116.76 76.66 120.43 C 75.32 127.91 78.59 135.66 82.10 142.10 C 79.83 143.07 77.57 144.03 75.27 144.92 C 75.98 141.11 74.83 138.51 72.99 135.28 C 72.62 132.68 72.18 130.10 71.44 127.58 C 70.95 126.12 70.40 124.69 69.85 123.26 C 65.30 122.74 61.03 122.35 56.94 120.09 C 52.32 117.74 49.01 114.18 45.26 110.73 C 42.99 108.41 39.98 108.93 36.99 108.63 C 32.14 108.57 27.55 107.44 22.92 106.12 C 21.11 103.39 19.82 100.41 18.23 97.55 C 21.05 94.59 23.99 91.99 27.30 89.59 C 26.14 86.85 25.02 84.10 23.96 81.32 C 24.82 76.03 25.52 70.98 28.17 66.21 C 32.51 58.26 38.95 50.89 46.92 46.44 C 49.19 45.41 52.16 44.81 53.64 42.70 C 55.76 40.00 57.43 37.02 59.73 34.44 C 61.80 32.92 63.95 31.43 66.26 30.31 Z" fill="#987758" />
<path d="M 55.71 30.98 C 57.09 32.10 58.41 33.27 59.73 34.44 C 57.43 37.02 55.76 40.00 53.64 42.70 C 52.16 44.81 49.19 45.41 46.92 46.44 C 48.22 40.44 51.44 35.33 55.71 30.98 Z" fill="#695141" />
<path d="M 64.90 36.96 C 68.10 40.22 70.77 43.73 71.78 48.29 C 73.04 53.67 71.17 59.55 69.96 64.81 C 67.82 63.72 65.47 62.18 63.08 61.85 C 60.88 62.59 58.82 64.08 56.88 65.35 C 55.86 63.92 54.86 62.50 53.77 61.12 C 54.10 56.93 54.05 52.36 55.31 48.33 C 56.85 43.72 61.17 39.88 64.90 36.96 Z" fill="#f4a6a0" />
<path d="M 79.01 52.10 C 91.71 52.24 104.42 56.22 115.30 62.68 C 124.17 68.00 131.28 75.58 136.54 84.43 C 139.83 77.31 143.70 70.94 151.75 68.72 C 160.58 66.44 168.05 70.85 175.81 74.42 C 174.63 74.81 173.47 75.25 172.29 75.63 C 167.18 76.26 160.29 75.91 155.93 78.94 C 150.47 82.87 149.37 89.68 149.30 95.97 C 149.17 114.37 140.65 133.47 126.03 144.85 C 124.32 144.74 122.60 144.69 120.89 144.63 C 121.65 139.45 122.90 134.40 124.38 129.38 C 127.62 120.01 127.62 110.02 124.31 100.67 C 121.82 93.52 117.32 87.31 111.63 82.36 C 105.06 76.57 96.74 71.60 88.59 68.42 C 87.67 67.80 86.56 69.31 85.79 69.76 C 85.20 70.27 84.61 70.78 84.03 71.29 C 85.04 71.68 86.05 72.07 87.06 72.45 C 84.65 73.55 82.24 74.64 79.85 75.80 C 81.69 75.68 83.52 75.54 85.35 75.41 C 81.23 78.49 76.99 81.39 72.92 84.53 C 75.30 86.26 77.68 87.97 80.06 89.70 C 76.28 89.50 72.82 89.01 69.09 89.94 C 64.47 91.01 59.86 91.59 55.14 90.75 C 51.20 89.99 47.66 87.99 43.78 87.41 C 40.46 86.97 36.89 87.30 33.54 87.46 C 34.75 82.77 36.45 79.55 39.50 75.82 C 38.59 74.15 37.72 72.47 36.91 70.76 L 38.58 71.36 C 39.70 72.21 40.83 73.16 42.08 73.80 C 45.25 73.44 48.40 72.77 51.55 72.29 C 52.92 72.09 53.97 70.78 54.74 69.73 C 54.10 64.69 49.29 58.28 43.49 60.38 C 39.82 61.97 38.76 66.99 37.47 70.36 C 36.88 69.82 36.29 69.27 35.70 68.73 C 37.30 64.64 38.71 58.84 43.34 57.21 C 47.70 55.59 50.98 58.03 53.77 61.12 C 54.86 62.50 55.86 63.92 56.88 65.35 C 58.82 64.08 60.88 62.59 63.08 61.85 C 65.47 62.18 67.82 63.72 69.96 64.81 C 73.92 67.17 77.71 66.46 82.02 65.85 C 81.98 60.95 81.67 56.36 79.01 52.10 Z" fill="#ffe8bd" />
<path d="M 43.49 60.38 C 49.29 58.28 54.10 64.69 54.74 69.73 C 53.97 70.78 52.92 72.09 51.55 72.29 C 48.40 72.77 45.25 73.44 42.08 73.80 C 40.83 73.16 39.70 72.21 38.58 71.36 L 37.47 70.36 C 38.76 66.99 39.82 61.97 43.49 60.38 Z" fill="#302d2d" />
<path d="M 88.59 68.42 C 96.74 71.60 105.06 76.57 111.63 82.36 C 117.32 87.31 121.82 93.52 124.31 100.67 C 127.62 110.02 127.62 120.01 124.38 129.38 C 124.01 123.41 123.94 117.29 122.52 111.54 C 120.77 104.35 117.60 97.50 113.42 91.41 L 112.38 90.16 C 105.30 81.17 96.05 74.66 85.79 69.76 C 86.56 69.31 87.67 67.80 88.59 68.42 Z" fill="#282525" />
<path d="M 175.81 74.42 L 176.29 74.66 C 177.72 83.00 180.65 91.71 180.07 100.04 C 179.38 112.35 174.78 124.34 166.72 133.71 C 160.38 141.04 152.96 148.36 143.60 151.57 C 139.49 153.08 134.88 153.31 130.91 155.10 C 127.17 157.52 125.17 161.83 120.77 163.84 C 114.91 166.51 107.77 167.09 101.42 167.55 C 92.11 168.01 82.52 168.72 73.23 167.79 C 69.05 167.24 64.79 166.55 62.24 162.81 C 59.67 159.00 57.64 154.43 56.86 149.90 C 56.44 147.69 57.68 146.00 58.77 144.21 C 58.81 145.69 58.82 147.23 59.05 148.69 C 60.17 149.88 61.68 150.81 63.03 151.72 C 63.13 154.57 63.20 157.39 63.75 160.19 C 67.65 164.31 72.56 164.88 77.95 165.03 C 85.72 165.24 93.52 164.79 101.27 164.45 C 107.15 164.00 113.71 163.55 119.15 161.13 C 123.93 158.94 126.23 152.60 131.24 151.42 C 137.09 149.88 142.75 149.33 148.04 146.06 C 156.72 140.89 164.77 133.17 168.83 123.79 C 171.90 118.02 174.61 112.34 175.93 105.89 C 177.83 95.54 177.50 85.02 172.29 75.63 C 173.47 75.25 174.63 74.81 175.81 74.42 Z" fill="#e6e6e6" />
<path d="M 172.29 75.63 C 167.41 80.19 161.38 79.77 157.20 85.21 C 152.70 90.86 153.42 97.20 152.82 103.96 C 151.97 116.98 146.29 129.01 137.73 138.72 C 134.36 142.42 130.92 146.61 126.25 148.64 C 126.13 147.38 126.07 146.12 126.03 144.85 C 140.65 133.47 149.17 114.37 149.30 95.97 C 149.37 89.68 150.47 82.87 155.93 78.94 C 160.29 75.91 167.18 76.26 172.29 75.63 Z" fill="#242021" />
<path d="M 172.29 75.63 C 177.50 85.02 177.83 95.54 175.93 105.89 C 174.61 112.34 171.90 118.02 168.83 123.79 C 162.26 132.25 154.42 141.09 144.37 145.40 C 138.56 147.98 132.81 148.26 126.63 149.08 C 125.35 152.76 124.99 156.25 121.02 157.99 C 111.74 162.00 99.96 161.96 90.00 162.20 C 81.11 162.58 72.39 162.66 63.75 160.19 C 63.20 157.39 63.13 154.57 63.03 151.72 C 66.90 148.99 70.88 146.71 75.27 144.92 C 74.51 146.47 72.41 148.41 73.81 150.15 C 75.16 152.03 78.01 152.25 80.12 152.47 C 86.95 152.89 93.71 152.76 100.53 153.76 C 103.54 154.14 106.71 154.93 109.74 154.76 C 112.68 152.77 111.32 149.50 110.23 146.88 C 106.12 138.23 100.55 130.39 98.50 120.53 C 97.41 115.23 98.92 110.17 101.59 105.60 C 104.84 100.00 109.36 96.38 113.42 91.41 C 117.60 97.50 120.77 104.35 122.52 111.54 C 123.94 117.29 124.01 123.41 124.38 129.38 C 122.90 134.40 121.65 139.45 120.89 144.63 C 122.60 144.69 124.32 144.74 126.03 144.85 C 126.07 146.12 126.13 147.38 126.25 148.64 C 130.92 146.61 134.36 142.42 137.73 138.72 C 146.29 129.01 151.97 116.98 152.82 103.96 C 153.42 97.20 152.70 90.86 157.20 85.21 C 161.38 79.77 167.41 80.19 172.29 75.63 Z" fill="#947252" />
<path d="M 23.96 81.32 C 25.02 84.10 26.14 86.85 27.30 89.59 C 23.99 91.99 21.05 94.59 18.23 97.55 C 15.51 93.88 14.44 91.69 14.60 86.95 C 17.36 84.33 20.39 82.62 23.96 81.32 Z" fill="#674e3e" />
<path d="M 14.60 86.95 C 14.44 91.69 15.51 93.88 18.23 97.55 C 19.82 100.41 21.11 103.39 22.92 106.12 C 27.43 111.51 33.55 110.34 39.79 111.51 C 45.33 112.21 48.45 116.14 52.61 119.36 C 57.96 123.84 64.96 125.15 71.44 127.58 C 72.18 130.10 72.62 132.68 72.99 135.28 C 71.48 135.91 69.96 136.54 68.47 137.22 C 68.39 134.72 69.68 130.61 66.70 129.42 C 62.42 127.13 57.57 126.37 53.38 123.64 C 49.37 121.22 46.08 117.17 41.83 115.31 C 35.45 113.15 27.64 114.56 21.97 110.05 C 17.83 106.38 14.99 100.96 13.02 95.86 C 11.71 92.56 12.99 89.83 14.60 86.95 Z" fill="#e3e3e3" />
<path d="M 112.38 90.16 L 113.42 91.41 C 109.36 96.38 104.84 100.00 101.59 105.60 C 98.92 110.17 97.41 115.23 98.50 120.53 C 100.55 130.39 106.12 138.23 110.23 146.88 C 111.32 149.50 112.68 152.77 109.74 154.76 C 106.71 154.93 103.54 154.14 100.53 153.76 C 93.71 152.76 86.95 152.89 80.12 152.47 C 78.01 152.25 75.16 152.03 73.81 150.15 C 72.41 148.41 74.51 146.47 75.27 144.92 C 77.57 144.03 79.83 143.07 82.10 142.10 C 78.59 135.66 75.32 127.91 76.66 120.43 C 78.34 116.76 82.33 114.15 82.76 109.88 C 83.44 106.62 82.60 102.67 85.31 100.31 C 92.34 93.33 102.96 91.44 112.38 90.16 Z" fill="#ffe8bc" />
<path d="M 22.92 106.12 C 27.55 107.44 32.14 108.57 36.99 108.63 C 39.98 108.93 42.99 108.41 45.26 110.73 C 49.01 114.18 52.32 117.74 56.94 120.09 C 61.03 122.35 65.30 122.74 69.85 123.26 C 70.40 124.69 70.95 126.12 71.44 127.58 C 64.96 125.15 57.96 123.84 52.61 119.36 C 48.45 116.14 45.33 112.21 39.79 111.51 C 33.55 110.34 27.43 111.51 22.92 106.12 Z" fill="#cccccc" />
<path d="M 168.83 123.79 C 164.77 133.17 156.72 140.89 148.04 146.06 C 142.75 149.33 137.09 149.88 131.24 151.42 C 126.23 152.60 123.93 158.94 119.15 161.13 C 113.71 163.55 107.15 164.00 101.27 164.45 C 93.52 164.79 85.72 165.24 77.95 165.03 C 72.56 164.88 67.65 164.31 63.75 160.19 C 72.39 162.66 81.11 162.58 90.00 162.20 C 99.96 161.96 111.74 162.00 121.02 157.99 C 124.99 156.25 125.35 152.76 126.63 149.08 C 132.81 148.26 138.56 147.98 144.37 145.40 C 154.42 141.09 162.26 132.25 168.83 123.79 Z" fill="#cccccc" />
<path d="M 72.99 135.28 C 74.83 138.51 75.98 141.11 75.27 144.92 C 70.88 146.71 66.90 148.99 63.03 151.72 C 61.68 150.81 60.17 149.88 59.05 148.69 C 58.82 147.23 58.81 145.69 58.77 144.21 C 61.63 141.36 64.74 138.86 68.47 137.22 C 69.96 136.54 71.48 135.91 72.99 135.28 Z" fill="#614837" /></svg>