<?xml version="1.0" encoding="UTF-8" standalone="no"?>
<!DOCTYPE svg PUBLIC "-//W3C//DTD SVG 1.1//EN" "http://www.w3.org/Graphics/SVG/1.1/DTD/svg11.dtd">
<svg viewBox="0 0 192 192" height="192.0pt" width="192.0pt" xmlns="http://www.w3.org/2000/svg" version="1.1">
<path d="M 111.08 17.26 C 115.05 16.92 118.29 18.52 122.06 19.10 C 126.10 18.56 129.57 16.77 133.83 17.29 C 140.38 17.92 144.69 22.68 147.67 28.14 C 147.84 29.35 148.01 30.56 148.15 31.78 C 147.87 36.98 146.98 41.82 148.13 47.00 C 148.63 50.02 149.06 53.04 149.48 56.07 L 149.58 56.75 C 148.16 60.16 146.52 63.49 144.88 66.79 L 144.27 68.01 C 141.07 69.62 137.85 71.22 134.70 72.93 C 133.90 73.37 133.09 73.80 132.28 74.23 C 128.36 73.66 124.82 74.42 120.97 74.95 C 120.05 75.06 119.13 75.15 118.21 75.24 C 114.08 75.11 109.94 74.88 105.82 74.62 C 105.00 74.49 104.19 74.35 103.38 74.20 C 99.32 73.36 95.25 72.70 91.13 72.22 C 90.56 72.12 90.00 72.00 89.43 71.88 C 85.98 71.07 82.55 70.17 79.07 69.48 C 79.05 70.29 79.03 71.09 79.03 71.90 C 78.00 70.68 77.10 69.47 75.54 68.91 C 71.49 67.61 67.30 66.73 63.11 66.06 C 63.95 69.03 64.94 71.97 66.15 74.81 C 59.12 72.26 52.16 69.52 45.34 66.45 C 47.16 65.08 49.01 63.74 50.84 62.38 C 43.89 59.25 36.91 56.25 30.11 52.81 C 29.82 54.40 29.53 56.00 29.25 57.60 C 24.97 52.44 23.06 44.74 23.69 38.13 C 26.67 35.52 29.15 32.67 31.72 29.68 C 33.51 27.45 36.08 28.42 38.58 28.41 C 42.23 28.90 45.88 28.00 49.50 28.49 C 53.24 29.79 54.98 35.32 56.50 38.61 C 68.24 40.62 80.18 41.30 92.06 40.25 C 93.30 40.16 94.54 40.05 95.78 39.94 C 95.92 35.61 96.05 31.35 96.98 27.10 C 100.06 22.03 104.87 17.56 111.08 17.26 Z" fill="#91c847" />
<path d="M 119.80 20.98 C 119.27 21.93 118.73 22.87 118.20 23.82 C 115.58 23.21 112.87 22.32 110.18 23.00 C 106.15 23.97 103.15 27.28 102.00 31.18 C 101.52 33.59 101.71 36.20 101.73 38.65 C 100.77 38.84 99.82 39.02 98.86 39.20 C 96.97 32.03 99.95 24.08 106.77 20.80 C 111.05 18.76 115.44 19.96 119.80 20.98 Z" fill="#ffffff" />
<path d="M 126.48 20.48 C 130.77 18.96 136.07 19.43 139.74 22.26 C 144.94 26.13 147.52 33.05 145.30 39.28 C 143.15 45.64 137.12 50.17 130.29 49.55 C 124.32 49.08 119.67 44.67 117.93 39.09 C 115.44 32.02 119.49 23.20 126.48 20.48 Z" fill="#ffffff" />
<path d="M 110.18 23.00 C 112.87 22.32 115.58 23.21 118.20 23.82 C 116.17 27.30 115.49 31.31 113.68 34.85 C 110.28 37.08 105.64 37.72 101.73 38.65 C 101.71 36.20 101.52 33.59 102.00 31.18 C 103.15 27.28 106.15 23.97 110.18 23.00 Z" fill="#474b4f" />
<path d="M 128.33 23.23 C 134.96 21.03 141.49 25.75 142.67 32.36 C 143.78 38.05 140.80 43.38 135.42 45.47 C 128.88 48.12 121.01 42.99 120.62 36.01 C 119.95 30.51 123.02 25.04 128.33 23.23 Z" fill="#44494d" />
<path d="M 153.80 25.93 C 153.79 27.11 153.76 28.27 153.71 29.44 C 153.07 33.39 152.53 37.35 151.81 41.28 C 149.83 38.27 148.64 35.37 148.15 31.78 C 148.01 30.56 147.84 29.35 147.67 28.14 C 149.71 27.39 151.75 26.66 153.80 25.93 Z" fill="#678b33" />
<path d="M 96.98 27.10 C 96.05 31.35 95.92 35.61 95.78 39.94 C 94.54 40.05 93.30 40.16 92.06 40.25 C 93.27 35.62 94.42 31.21 96.98 27.10 Z" fill="#e2e4e0" />
<path d="M 35.60 29.45 C 38.02 29.82 38.48 33.01 39.48 34.84 C 36.19 34.57 32.92 34.13 29.65 33.60 C 31.19 32.08 33.02 28.59 35.60 29.45 Z" fill="#59713b" />
<path d="M 44.38 30.32 C 46.98 29.63 49.24 31.39 50.42 33.57 C 52.71 37.89 52.69 43.79 49.93 47.90 C 48.17 50.52 44.45 51.05 42.09 48.91 C 39.31 46.37 38.77 41.70 39.21 38.16 C 39.62 34.99 41.00 31.31 44.38 30.32 Z" fill="#58713a" />
<path d="M 153.71 29.44 C 154.54 33.47 155.26 37.47 155.73 41.57 C 156.86 42.04 158.00 42.49 159.16 42.89 C 157.03 42.85 154.91 42.83 152.78 42.89 C 152.46 42.35 152.14 41.82 151.81 41.28 C 152.53 37.35 153.07 33.39 153.71 29.44 Z" fill="#d8dbd4" />
<path d="M 148.15 31.78 C 148.64 35.37 149.83 38.27 151.81 41.28 C 152.14 41.82 152.46 42.35 152.78 42.89 C 155.30 47.27 156.93 51.95 159.10 56.49 C 159.76 57.88 160.51 59.23 161.26 60.57 C 161.94 65.97 163.26 71.19 164.57 76.45 C 164.80 77.57 165.01 78.69 165.21 79.81 C 165.84 84.98 166.40 90.18 166.58 95.39 C 166.55 98.13 166.44 100.89 166.20 103.63 C 164.99 107.87 164.09 112.17 163.19 116.49 C 162.45 118.30 161.62 120.06 160.77 121.81 C 158.68 126.24 156.23 129.93 153.08 133.68 C 151.22 127.50 149.42 121.17 146.72 115.30 C 145.23 112.24 143.17 108.60 140.16 106.81 C 137.44 105.18 133.62 106.43 131.39 108.38 C 128.58 110.84 128.37 115.51 128.19 118.98 C 127.80 128.59 129.26 138.76 124.53 147.57 C 121.87 152.42 119.46 157.18 118.54 162.70 C 116.28 163.48 114.02 164.24 111.75 164.99 C 109.56 165.69 107.34 166.30 105.09 166.80 C 98.00 167.36 90.89 167.43 83.81 168.20 L 82.29 168.35 C 83.18 164.76 83.94 161.14 84.87 157.56 C 89.03 158.35 94.10 159.64 98.22 158.22 C 101.71 157.04 103.86 154.00 104.48 150.46 C 105.35 145.47 104.39 140.03 103.25 135.15 C 113.68 129.49 120.60 120.86 127.45 111.43 C 133.78 102.59 137.60 92.91 139.20 82.16 C 135.76 82.84 132.32 83.53 128.84 84.08 C 130.05 80.82 131.23 77.54 132.28 74.23 C 133.09 73.80 133.90 73.37 134.70 72.93 C 138.01 75.91 141.38 78.82 144.98 81.45 C 145.03 76.94 144.75 72.49 144.27 68.01 L 144.88 66.79 C 149.61 68.21 154.39 69.43 159.20 70.55 C 156.24 65.78 152.81 61.34 149.58 56.75 L 149.48 56.07 C 151.95 55.71 154.43 55.34 156.89 54.93 C 154.10 52.15 151.14 49.55 148.13 47.00 C 146.98 41.82 147.87 36.98 148.15 31.78 Z" fill="#84b534" />
<path d="M 23.69 38.13 C 23.06 44.74 24.97 52.44 29.25 57.60 L 29.96 58.02 C 31.89 59.17 33.86 60.26 35.82 61.37 C 35.87 62.23 35.92 63.08 35.98 63.93 C 36.61 63.52 37.24 63.11 37.86 62.69 C 39.78 63.66 41.69 64.66 43.62 65.61 C 44.19 65.90 44.76 66.18 45.34 66.45 C 52.16 69.52 59.12 72.26 66.15 74.81 L 66.85 75.08 C 70.82 76.60 74.86 77.96 78.90 79.28 C 79.59 79.50 80.29 79.72 80.98 79.94 C 85.56 81.33 90.14 82.65 94.83 83.60 L 96.31 83.88 L 98.20 84.18 C 96.07 85.42 93.94 86.57 91.89 87.93 C 96.16 87.54 100.42 87.15 104.63 86.31 C 104.30 89.31 103.95 92.30 103.50 95.28 C 101.02 95.61 98.53 95.89 96.02 96.05 C 96.80 95.33 97.57 94.59 98.32 93.83 C 93.98 90.75 89.57 87.95 84.41 86.45 C 71.20 82.60 58.29 77.65 45.62 72.28 C 40.32 69.98 34.53 67.56 29.94 64.00 C 24.46 59.91 21.64 52.59 21.23 45.95 C 21.04 42.83 21.73 40.53 23.69 38.13 Z" fill="#dcdcdc" />
<path d="M 152.78 42.89 C 154.91 42.83 157.03 42.85 159.16 42.89 C 161.33 43.29 163.51 43.62 165.69 43.97 C 165.63 44.86 165.56 45.75 165.50 46.65 C 163.06 49.76 161.21 53.16 159.10 56.49 C 156.93 51.95 155.30 47.27 152.78 42.89 Z" fill="#668a32" />
<path d="M 148.13 47.00 C 151.14 49.55 154.10 52.15 156.89 54.93 C 154.43 55.34 151.95 55.71 149.48 56.07 C 149.06 53.04 148.63 50.02 148.13 47.00 Z" fill="#e8f94e" />
<path d="M 165.50 46.65 C 165.56 51.89 163.25 55.97 164.31 61.06 C 163.30 60.89 162.28 60.73 161.26 60.57 C 160.51 59.23 159.76 57.88 159.10 56.49 C 161.21 53.16 163.06 49.76 165.50 46.65 Z" fill="#dcdcdc" />
<path d="M 30.11 52.81 C 36.91 56.25 43.89 59.25 50.84 62.38 C 49.01 63.74 47.16 65.08 45.34 66.45 C 44.76 66.18 44.19 65.90 43.62 65.61 C 43.09 63.75 42.62 61.89 42.00 60.05 C 40.58 60.87 39.22 61.77 37.86 62.69 C 37.24 63.11 36.61 63.52 35.98 63.93 C 35.92 63.08 35.87 62.23 35.82 61.37 C 35.75 60.05 35.68 58.72 35.60 57.39 C 33.71 57.62 31.84 57.87 29.96 58.02 L 29.25 57.60 C 29.53 56.00 29.82 54.40 30.11 52.81 Z" fill="#e9f956" />
<path d="M 35.60 57.39 C 35.68 58.72 35.75 60.05 35.82 61.37 C 33.86 60.26 31.89 59.17 29.96 58.02 C 31.84 57.87 33.71 57.62 35.60 57.39 Z" fill="#98ba46" />
<path d="M 149.58 56.75 C 152.81 61.34 156.24 65.78 159.20 70.55 C 154.39 69.43 149.61 68.21 144.88 66.79 C 146.52 63.49 148.16 60.16 149.58 56.75 Z" fill="#e8f94e" />
<path d="M 42.00 60.05 C 42.62 61.89 43.09 63.75 43.62 65.61 C 41.69 64.66 39.78 63.66 37.86 62.69 C 39.22 61.77 40.58 60.87 42.00 60.05 Z" fill="#8bb141" />
<path d="M 161.26 60.57 C 162.28 60.73 163.30 60.89 164.31 61.06 C 167.43 61.59 170.50 62.28 173.57 63.01 C 173.53 63.78 173.49 64.55 173.46 65.32 C 169.92 68.70 167.56 72.54 164.57 76.45 C 163.26 71.19 161.94 65.97 161.26 60.57 Z" fill="#658a31" />
<path d="M 51.91 62.90 C 55.09 63.37 58.14 64.25 61.20 65.19 C 59.43 66.98 57.57 68.67 55.75 70.42 C 54.10 68.16 52.62 65.61 51.91 62.90 Z" fill="#e9f955" />
<path d="M 63.11 66.06 C 67.30 66.73 71.49 67.61 75.54 68.91 C 72.58 70.88 69.73 73.01 66.85 75.08 L 66.15 74.81 C 64.94 71.97 63.95 69.03 63.11 66.06 Z" fill="#e9f954" />
<path d="M 173.46 65.32 C 174.03 71.73 169.10 75.78 169.28 82.17 C 167.93 81.37 166.58 80.57 165.21 79.81 C 165.01 78.69 164.80 77.57 164.57 76.45 C 167.56 72.54 169.92 68.70 173.46 65.32 Z" fill="#dddddd" />
<path d="M 144.27 68.01 C 144.75 72.49 145.03 76.94 144.98 81.45 C 141.38 78.82 138.01 75.91 134.70 72.93 C 137.85 71.22 141.07 69.62 144.27 68.01 Z" fill="#e8f94e" />
<path d="M 75.54 68.91 C 77.10 69.47 78.00 70.68 79.03 71.90 C 79.04 74.36 78.97 76.82 78.90 79.28 C 74.86 77.96 70.82 76.60 66.85 75.08 C 69.73 73.01 72.58 70.88 75.54 68.91 Z" fill="#89b83d" />
<path d="M 79.07 69.48 C 82.55 70.17 85.98 71.07 89.43 71.88 C 86.74 74.70 83.91 77.37 80.98 79.94 C 80.29 79.72 79.59 79.50 78.90 79.28 C 78.97 76.82 79.04 74.36 79.03 71.90 C 79.03 71.09 79.05 70.29 79.07 69.48 Z" fill="#e9f953" />
<path d="M 91.13 72.22 C 92.47 75.98 93.61 79.80 94.83 83.60 C 90.14 82.65 85.56 81.33 80.98 79.94 C 83.91 77.37 86.74 74.70 89.43 71.88 C 90.00 72.00 90.56 72.12 91.13 72.22 Z" fill="#88b83b" />
<path d="M 91.13 72.22 C 95.25 72.70 99.32 73.36 103.38 74.20 C 101.10 77.46 98.78 80.75 96.31 83.88 L 94.83 83.60 C 93.61 79.80 92.47 75.98 91.13 72.22 Z" fill="#e8f952" />
<path d="M 132.28 74.23 C 131.23 77.54 130.05 80.82 128.84 84.08 C 128.48 85.04 128.11 86.00 127.73 86.96 C 127.24 86.22 126.76 85.47 126.28 84.73 C 124.32 81.57 122.66 78.26 120.97 74.95 C 124.82 74.42 128.36 73.66 132.28 74.23 Z" fill="#e8f94f" />
<path d="M 105.82 74.62 C 107.69 78.25 109.32 82.01 110.97 85.74 C 110.08 85.73 109.18 85.72 108.29 85.71 C 104.92 85.24 101.57 84.63 98.20 84.18 L 96.31 83.88 C 98.78 80.75 101.10 77.46 103.38 74.20 C 104.19 74.35 105.00 74.49 105.82 74.62 Z" fill="#87b73a" />
<path d="M 118.21 75.24 C 116.13 78.76 114.10 82.34 111.82 85.74 L 110.97 85.74 C 109.32 82.01 107.69 78.25 105.82 74.62 C 109.94 74.88 114.08 75.11 118.21 75.24 Z" fill="#e8f950" />
<path d="M 120.97 74.95 C 122.66 78.26 124.32 81.57 126.28 84.73 C 121.41 85.55 116.76 85.86 111.82 85.74 C 114.10 82.34 116.13 78.76 118.21 75.24 C 119.13 75.15 120.05 75.06 120.97 74.95 Z" fill="#86b738" />
<path d="M 165.21 79.81 C 166.58 80.57 167.93 81.37 169.28 82.17 C 172.16 83.91 174.95 85.77 177.72 87.68 C 173.91 90.11 170.38 92.93 166.58 95.39 C 166.40 90.18 165.84 84.98 165.21 79.81 Z" fill="#64892f" />
<path d="M 36.98 80.69 C 39.59 80.72 41.71 82.95 43.21 84.86 C 43.70 87.81 43.99 90.77 44.26 93.75 C 42.75 93.98 41.25 94.21 39.74 94.44 C 39.34 99.06 39.47 103.64 39.83 108.25 C 37.88 106.65 35.87 105.12 33.76 103.74 C 33.74 99.49 32.96 95.35 31.68 91.31 C 28.92 92.69 26.29 94.31 23.77 96.08 C 24.45 92.53 25.08 89.22 27.15 86.16 C 29.25 82.96 33.11 80.64 36.98 80.69 Z" fill="#89b93e" />
<path d="M 139.20 82.16 C 137.60 92.91 133.78 102.59 127.45 111.43 C 120.60 120.86 113.68 129.49 103.25 135.15 C 101.81 131.51 99.95 127.65 96.62 125.37 C 93.98 123.52 90.26 123.45 87.16 123.16 C 84.19 121.79 81.57 119.96 78.84 118.18 L 80.35 117.56 C 82.93 116.46 85.41 115.12 87.92 113.87 C 89.54 116.19 90.71 118.46 93.53 119.49 C 97.41 121.09 100.66 119.72 104.34 118.45 C 107.63 119.34 110.91 120.26 114.24 121.02 C 111.76 118.43 109.09 116.18 105.90 114.49 C 106.76 109.39 106.95 104.33 106.24 99.20 C 113.27 100.55 120.26 101.77 127.44 101.95 C 120.32 96.04 112.30 95.86 103.50 95.28 C 103.95 92.30 104.30 89.31 104.63 86.31 C 105.85 86.10 107.07 85.90 108.29 85.71 C 109.18 85.72 110.08 85.73 110.97 85.74 L 111.82 85.74 C 116.76 85.86 121.41 85.55 126.28 84.73 C 126.76 85.47 127.24 86.22 127.73 86.96 C 128.11 86.00 128.48 85.04 128.84 84.08 C 132.32 83.53 135.76 82.84 139.20 82.16 Z" fill="#ffd93f" />
<path d="M 98.20 84.18 C 101.57 84.63 104.92 85.24 108.29 85.71 C 107.07 85.90 105.85 86.10 104.63 86.31 C 100.42 87.15 96.16 87.54 91.89 87.93 C 93.94 86.57 96.07 85.42 98.20 84.18 Z" fill="#bea939" />
<path d="M 43.21 84.86 C 44.72 86.88 46.29 89.36 46.16 91.97 C 45.74 96.10 42.99 99.98 42.39 104.02 C 42.21 107.21 44.05 110.66 45.58 113.38 C 43.62 111.72 41.72 110.00 39.83 108.25 C 39.47 103.64 39.34 99.06 39.74 94.44 C 41.25 94.21 42.75 93.98 44.26 93.75 C 43.99 90.77 43.70 87.81 43.21 84.86 Z" fill="#dedede" />
<path d="M 177.72 87.68 C 177.93 94.44 172.87 96.11 170.00 101.28 C 169.36 103.76 170.78 106.91 171.65 109.24 C 169.94 107.26 168.11 105.40 166.20 103.63 C 166.44 100.89 166.55 98.13 166.58 95.39 C 170.38 92.93 173.91 90.11 177.72 87.68 Z" fill="#dedede" />
<path d="M 31.68 91.31 C 32.96 95.35 33.74 99.49 33.76 103.74 L 33.81 105.73 C 33.82 112.97 35.90 120.29 38.96 126.81 C 40.66 130.53 41.96 134.14 44.66 137.30 C 47.13 140.12 49.15 143.46 51.92 145.99 C 55.80 148.69 60.04 149.84 63.04 153.81 C 63.96 155.51 64.91 157.21 65.84 158.91 C 59.23 162.44 53.66 166.73 46.63 168.34 C 46.73 166.02 46.81 163.70 46.89 161.39 C 43.51 161.22 40.14 161.03 36.77 160.69 C 40.15 160.37 43.52 159.91 46.90 159.55 C 46.98 157.10 47.06 154.64 47.13 152.19 C 41.72 153.26 36.31 154.16 30.78 154.29 C 31.37 152.90 31.95 151.51 32.46 150.08 C 33.42 146.62 36.30 142.26 32.74 139.36 C 30.09 137.46 25.37 138.19 22.24 137.94 C 22.92 136.25 23.77 134.65 24.69 133.09 C 26.12 130.28 28.11 128.16 26.17 124.95 C 23.44 122.84 19.65 121.85 16.41 120.77 C 17.80 119.21 19.22 117.67 20.63 116.13 C 22.04 114.26 24.76 112.21 23.54 109.60 C 21.45 107.24 18.42 105.57 15.69 104.05 C 15.49 103.47 15.28 102.90 15.08 102.32 C 18.04 100.32 20.91 98.21 23.77 96.08 C 26.29 94.31 28.92 92.69 31.68 91.31 Z" fill="#698c35" />
<path d="M 103.50 95.28 C 112.30 95.86 120.32 96.04 127.44 101.95 C 120.26 101.77 113.27 100.55 106.24 99.20 C 103.50 98.69 100.77 98.34 97.99 98.14 C 94.85 97.82 91.74 97.24 88.68 96.49 C 91.12 96.27 93.57 96.20 96.02 96.05 C 98.53 95.89 101.02 95.61 103.50 95.28 Z" fill="#d4b42b" />
<path d="M 106.24 99.20 C 106.95 104.33 106.76 109.39 105.90 114.49 C 105.39 115.81 104.86 117.13 104.34 118.45 C 100.66 119.72 97.41 121.09 93.53 119.49 C 90.71 118.46 89.54 116.19 87.92 113.87 C 86.84 112.22 85.78 110.79 83.83 110.15 C 82.16 109.53 80.48 108.94 78.80 108.32 C 81.55 108.48 84.30 108.73 87.05 108.83 C 90.01 104.12 93.18 100.95 97.99 98.14 C 100.77 98.34 103.50 98.69 106.24 99.20 Z" fill="#7aa02f" />
<path d="M 15.69 104.05 C 18.42 105.57 21.45 107.24 23.54 109.60 C 24.76 112.21 22.04 114.26 20.63 116.13 C 18.86 112.14 17.08 108.18 15.69 104.05 Z" fill="#d6d6d6" />
<path d="M 33.76 103.74 C 35.87 105.12 37.88 106.65 39.83 108.25 C 41.72 110.00 43.62 111.72 45.58 113.38 C 48.50 115.77 51.92 117.66 55.18 119.53 L 55.89 119.97 C 58.70 125.58 61.10 131.24 64.99 136.24 C 64.92 130.85 63.77 126.81 61.38 122.05 C 63.63 121.78 65.89 121.55 68.13 121.22 C 70.60 120.83 73.06 120.20 75.48 119.56 C 77.34 121.26 79.19 122.98 81.06 124.67 C 73.49 127.67 68.67 133.60 64.63 140.40 C 56.75 137.01 48.51 133.87 43.76 126.25 C 39.85 119.85 35.68 113.04 33.81 105.73 L 33.76 103.74 Z" fill="#ffda41" />
<path d="M 166.20 103.63 C 168.11 105.40 169.94 107.26 171.65 109.24 C 172.58 110.37 173.52 111.50 174.41 112.66 C 170.76 114.25 167.08 115.62 163.19 116.49 C 164.09 112.17 164.99 107.87 166.20 103.63 Z" fill="#64892f" />
<path d="M 33.81 105.73 C 35.68 113.04 39.85 119.85 43.76 126.25 C 48.51 133.87 56.75 137.01 64.63 140.40 C 63.25 144.67 62.87 149.34 63.04 153.81 C 60.04 149.84 55.80 148.69 51.92 145.99 C 49.15 143.46 47.13 140.12 44.66 137.30 C 41.96 134.14 40.66 130.53 38.96 126.81 C 35.90 120.29 33.82 112.97 33.81 105.73 Z" fill="#86b738" />
<path d="M 140.16 106.81 C 143.17 108.60 145.23 112.24 146.72 115.30 C 149.42 121.17 151.22 127.50 153.08 133.68 L 153.29 134.42 C 155.17 141.25 159.12 146.29 162.99 152.03 C 164.58 154.64 166.80 157.47 165.77 160.71 C 164.73 164.13 163.50 167.74 161.64 170.80 C 159.37 172.63 155.68 171.66 153.13 170.97 C 147.67 169.50 143.05 165.89 137.66 164.43 C 130.57 162.94 124.12 169.02 117.96 165.54 C 118.15 164.59 118.34 163.65 118.54 162.70 C 119.46 157.18 121.87 152.42 124.53 147.57 C 129.26 138.76 127.80 128.59 128.19 118.98 C 128.37 115.51 128.58 110.84 131.39 108.38 C 133.62 106.43 137.44 105.18 140.16 106.81 Z" fill="#8cc63e" />
<path d="M 83.83 110.15 C 85.78 110.79 86.84 112.22 87.92 113.87 C 85.41 115.12 82.93 116.46 80.35 117.56 C 80.04 116.90 79.73 116.23 79.42 115.56 C 81.74 113.94 82.67 112.68 83.83 110.15 Z" fill="#e1e0d6" />
<path d="M 174.41 112.66 C 174.75 114.29 175.04 116.31 173.56 117.49 C 171.08 119.72 167.59 121.15 165.31 123.57 C 164.77 127.76 166.99 132.19 166.36 136.31 C 164.35 138.52 161.80 140.03 159.73 142.23 C 160.48 148.81 167.83 154.39 168.42 161.21 C 168.47 165.67 166.55 170.44 163.97 174.02 C 161.81 176.91 158.47 176.94 155.19 176.61 C 148.39 175.80 143.10 171.39 136.76 170.08 C 131.67 169.21 125.78 171.84 120.71 172.60 C 115.83 173.46 111.46 172.35 107.09 174.17 C 104.46 175.23 102.11 176.09 99.22 175.65 C 93.79 174.94 89.18 176.73 83.90 177.52 C 78.03 178.41 73.04 180.67 67.05 180.75 C 60.97 180.80 54.54 180.76 48.64 179.13 C 47.30 178.66 45.23 178.02 44.55 176.66 C 43.34 173.91 43.06 170.75 41.97 167.94 C 38.18 165.52 32.45 165.92 28.81 163.20 C 27.25 161.76 27.49 158.63 27.16 156.63 C 30.25 159.39 32.63 160.41 36.77 160.69 C 40.14 161.03 43.51 161.22 46.89 161.39 C 46.81 163.70 46.73 166.02 46.63 168.34 C 45.53 169.32 44.44 170.34 43.37 171.36 C 46.33 173.11 49.37 174.40 52.84 174.60 C 60.50 175.22 68.72 175.93 76.29 174.33 C 79.32 173.28 80.68 170.91 82.29 168.35 L 83.81 168.20 C 84.96 170.45 85.96 172.80 87.03 175.10 C 88.76 172.97 90.33 170.22 92.61 168.66 C 94.24 168.22 95.97 168.07 97.64 167.84 C 99.39 169.88 100.99 172.05 102.76 174.09 C 103.13 172.94 103.50 171.80 103.88 170.66 C 107.50 169.25 110.91 168.51 114.80 169.28 C 115.56 169.41 116.33 169.54 117.10 169.68 C 117.39 168.30 117.69 166.92 117.96 165.54 C 124.12 169.02 130.57 162.94 137.66 164.43 C 143.05 165.89 147.67 169.50 153.13 170.97 C 155.68 171.66 159.37 172.63 161.64 170.80 C 163.50 167.74 164.73 164.13 165.77 160.71 C 166.80 157.47 164.58 154.64 162.99 152.03 C 159.12 146.29 155.17 141.25 153.29 134.42 C 157.40 134.42 161.52 134.44 165.63 134.34 C 164.09 130.13 162.49 125.95 160.77 121.81 C 161.62 120.06 162.45 118.30 163.19 116.49 C 167.08 115.62 170.76 114.25 174.41 112.66 Z" fill="#dcdcdc" />
<path d="M 68.98 113.25 C 71.17 115.33 73.29 117.47 75.48 119.56 C 73.06 120.20 70.60 120.83 68.13 121.22 C 63.94 121.61 59.92 121.12 55.89 119.97 L 55.18 119.53 C 59.31 116.34 63.70 113.83 68.98 113.25 Z" fill="#7aa131" />
<path d="M 68.98 113.25 L 70.67 113.22 C 73.47 114.76 76.13 116.49 78.84 118.18 C 81.57 119.96 84.19 121.79 87.16 123.16 C 85.11 123.56 83.06 124.05 81.06 124.67 C 79.19 122.98 77.34 121.26 75.48 119.56 C 73.29 117.47 71.17 115.33 68.98 113.25 Z" fill="#d4b42b" />
<path d="M 70.67 113.22 C 73.82 113.21 76.59 114.30 79.42 115.56 C 79.73 116.23 80.04 116.90 80.35 117.56 L 78.84 118.18 C 76.13 116.49 73.47 114.76 70.67 113.22 Z" fill="#92af4e" />
<path d="M 105.90 114.49 C 109.09 116.18 111.76 118.43 114.24 121.02 C 110.91 120.26 107.63 119.34 104.34 118.45 C 104.86 117.13 105.39 115.81 105.90 114.49 Z" fill="#d3b32a" />
<path d="M 55.89 119.97 C 59.92 121.12 63.94 121.61 68.13 121.22 C 65.89 121.55 63.63 121.78 61.38 122.05 C 63.77 126.81 64.92 130.85 64.99 136.24 C 61.10 131.24 58.70 125.58 55.89 119.97 Z" fill="#d4b42c" />
<path d="M 16.41 120.77 C 19.65 121.85 23.44 122.84 26.17 124.95 C 28.11 128.16 26.12 130.28 24.69 133.09 C 22.11 128.85 18.94 125.04 16.41 120.77 Z" fill="#d8d8d8" />
<path d="M 160.77 121.81 C 162.49 125.95 164.09 130.13 165.63 134.34 C 161.52 134.44 157.40 134.42 153.29 134.42 L 153.08 133.68 C 156.23 129.93 158.68 126.24 160.77 121.81 Z" fill="#64892f" />
<path d="M 87.16 123.16 C 90.26 123.45 93.98 123.52 96.62 125.37 C 99.95 127.65 101.81 131.51 103.25 135.15 C 104.39 140.03 105.35 145.47 104.48 150.46 C 103.86 154.00 101.71 157.04 98.22 158.22 C 94.10 159.64 89.03 158.35 84.87 157.56 C 83.94 161.14 83.18 164.76 82.29 168.35 C 80.68 170.91 79.32 173.28 76.29 174.33 C 68.42 173.85 60.69 173.53 52.84 174.60 C 49.37 174.40 46.33 173.11 43.37 171.36 C 44.44 170.34 45.53 169.32 46.63 168.34 C 53.66 166.73 59.23 162.44 65.84 158.91 C 64.91 157.21 63.96 155.51 63.04 153.81 C 62.87 149.34 63.25 144.67 64.63 140.40 C 68.67 133.60 73.49 127.67 81.06 124.67 C 83.06 124.05 85.11 123.56 87.16 123.16 Z" fill="#8dc641" />
<path d="M 22.24 137.94 C 25.37 138.19 30.09 137.46 32.74 139.36 C 36.30 142.26 33.42 146.62 32.46 150.08 C 32.03 143.22 26.27 142.47 22.24 137.94 Z" fill="#d4d4d4" />
<path d="M 47.13 152.19 C 47.06 154.64 46.98 157.10 46.90 159.55 C 43.52 159.91 40.15 160.37 36.77 160.69 C 32.63 160.41 30.25 159.39 27.16 156.63 C 28.37 155.85 29.57 155.06 30.78 154.29 C 36.31 154.16 41.72 153.26 47.13 152.19 Z" fill="#789f2e" />
<path d="M 118.54 162.70 C 118.34 163.65 118.15 164.59 117.96 165.54 C 117.69 166.92 117.39 168.30 117.10 169.68 C 116.33 169.54 115.56 169.41 114.80 169.28 C 113.79 167.84 112.77 166.41 111.75 164.99 C 114.02 164.24 116.28 163.48 118.54 162.70 Z" fill="#64892f" />
<path d="M 111.75 164.99 C 112.77 166.41 113.79 167.84 114.80 169.28 C 110.91 168.51 107.50 169.25 103.88 170.66 C 104.29 169.38 104.70 168.09 105.09 166.80 C 107.34 166.30 109.56 165.69 111.75 164.99 Z" fill="#cacaca" />
<path d="M 105.09 166.80 C 104.70 168.09 104.29 169.38 103.88 170.66 C 103.50 171.80 103.13 172.94 102.76 174.09 C 100.99 172.05 99.39 169.88 97.64 167.84 C 95.97 168.07 94.24 168.22 92.61 168.66 C 90.33 170.22 88.76 172.97 87.03 175.10 C 85.96 172.80 84.96 170.45 83.81 168.20 C 90.89 167.43 98.00 167.36 105.09 166.80 Z" fill="#64892f" />
<path d="M 76.29 174.33 C 68.72 175.93 60.50 175.22 52.84 174.60 C 60.69 173.53 68.42 173.85 76.29 174.33 Z" fill="#77a13e" /></svg>