<?xml version="1.0" encoding="UTF-8" standalone="no"?>
<!DOCTYPE svg PUBLIC "-//W3C//DTD SVG 1.1//EN" "http://www.w3.org/Graphics/SVG/1.1/DTD/svg11.dtd">
<svg viewBox="0 0 192 192" height="192.0pt" width="192.0pt" xmlns="http://www.w3.org/2000/svg" version="1.1">
<path d="M 63.98 14.60 C 69.34 14.68 74.92 17.03 79.73 19.28 C 88.00 23.31 95.90 27.64 102.48 34.17 C 105.12 34.73 107.84 35.02 110.51 35.34 C 104.93 43.17 102.86 52.49 97.26 60.28 C 95.24 63.43 92.26 66.63 92.21 70.55 C 93.50 77.20 93.62 83.66 93.35 90.41 C 91.44 92.01 89.15 95.59 86.31 94.72 C 84.22 93.86 82.47 92.02 80.69 90.65 C 80.91 86.11 80.63 81.51 81.12 77.00 C 81.49 73.87 82.67 71.21 83.73 68.28 C 77.51 69.49 72.02 71.76 67.77 76.61 C 65.31 83.29 70.35 89.70 74.94 94.01 C 71.24 93.75 67.57 93.72 64.09 95.20 C 60.45 96.76 57.07 99.21 53.75 101.36 C 52.68 96.46 52.28 91.35 52.19 86.34 C 53.33 81.95 54.22 77.49 55.18 73.05 C 56.52 67.94 53.42 62.21 53.03 56.91 C 51.84 44.72 52.18 31.66 55.99 19.92 C 58.02 17.12 60.27 14.73 63.98 14.60 Z" fill="#565c62" />
<path d="M 168.75 15.12 C 171.09 15.81 172.66 18.03 173.99 19.94 C 177.25 30.60 177.74 41.97 177.19 53.05 C 176.94 58.05 175.84 62.87 174.71 67.73 C 174.02 70.49 174.71 72.93 175.28 75.62 C 176.73 81.98 177.55 88.55 177.47 95.08 C 177.72 101.68 172.25 107.92 167.93 112.41 C 164.22 115.89 159.73 118.52 156.17 122.12 C 154.26 123.99 154.40 126.43 154.17 128.91 C 153.92 135.51 153.81 142.11 153.34 148.70 C 152.99 152.79 152.05 156.71 151.17 160.71 C 152.05 160.75 152.93 160.80 153.81 160.85 L 155.38 160.94 C 153.83 161.77 151.96 162.40 151.06 164.00 C 149.16 167.18 147.58 170.48 145.26 173.40 L 144.99 172.54 C 145.31 170.46 145.95 168.30 145.92 166.19 C 144.65 163.24 142.23 163.36 139.48 163.08 C 136.89 157.93 134.19 152.85 131.06 148.01 C 131.34 153.54 131.96 158.95 132.98 164.39 C 130.49 164.40 128.00 164.35 125.51 164.20 C 126.39 159.66 127.05 155.11 127.43 150.49 C 124.40 154.54 121.79 158.83 119.33 163.24 C 116.43 163.08 113.54 163.11 110.64 163.30 C 108.41 159.18 105.91 155.35 102.98 151.70 C 103.12 155.94 103.47 160.15 104.24 164.33 C 101.92 164.37 99.60 164.34 97.28 164.23 C 98.16 159.15 98.65 154.05 98.85 148.90 C 95.54 153.86 92.90 159.15 90.16 164.42 C 89.59 162.10 87.35 163.14 85.72 163.60 C 82.33 165.19 84.81 169.88 85.07 172.62 L 84.77 173.44 C 82.30 170.58 80.70 167.28 78.86 164.02 C 78.03 162.35 76.10 161.84 74.55 161.05 L 76.18 160.86 C 77.00 160.76 77.81 160.66 78.63 160.57 C 77.77 156.67 76.95 152.78 76.59 148.79 C 76.03 142.38 76.06 135.94 75.61 129.53 C 75.32 126.91 75.14 123.72 73.20 121.73 C 70.97 119.34 68.07 117.48 65.53 115.42 C 60.64 111.57 56.50 106.97 53.75 101.36 C 57.07 99.21 60.45 96.76 64.09 95.20 C 67.57 93.72 71.24 93.75 74.94 94.01 C 80.15 96.75 85.37 97.54 91.21 97.49 C 81.79 102.58 71.53 105.09 61.81 109.41 C 67.56 114.54 73.12 119.46 80.05 122.95 C 92.09 129.02 104.05 134.38 117.89 133.69 C 127.93 133.01 137.20 129.60 146.12 125.11 C 154.58 121.09 161.50 115.09 169.26 109.32 C 158.78 105.67 148.63 102.35 138.67 97.31 C 143.15 97.30 147.45 97.43 151.65 95.65 C 156.36 93.74 160.00 89.61 162.03 85.04 C 163.33 81.94 163.46 78.69 161.70 75.74 C 157.44 71.57 152.09 69.35 146.25 68.41 C 147.14 71.60 148.42 74.81 148.87 78.05 C 149.48 82.52 148.88 87.03 148.41 91.49 C 146.41 92.94 144.07 95.46 141.37 94.67 C 139.45 93.96 138.01 91.79 136.67 90.31 C 135.61 83.55 136.44 77.10 137.89 70.48 C 135.36 71.96 132.61 73.42 130.68 75.69 C 128.69 78.01 127.69 81.21 126.92 84.11 L 126.72 85.05 C 123.78 81.36 119.26 76.37 114.08 76.87 C 109.65 77.30 105.99 81.88 103.33 85.10 L 103.09 84.14 C 102.25 81.25 101.17 78.14 99.21 75.79 C 97.34 73.55 94.67 72.07 92.21 70.55 C 92.26 66.63 95.24 63.43 97.26 60.28 C 102.86 52.49 104.93 43.17 110.51 35.34 C 107.84 35.02 105.12 34.73 102.48 34.17 C 108.38 34.32 114.11 33.24 120.02 33.99 C 122.28 34.03 125.44 34.87 127.42 33.54 C 130.27 31.76 132.80 29.49 135.59 27.61 C 142.96 22.55 151.11 18.31 159.70 15.76 C 162.48 15.05 165.96 14.14 168.75 15.12 Z" fill="#50575c" />
<path d="M 55.99 19.92 C 52.18 31.66 51.84 44.72 53.03 56.91 C 53.42 62.21 56.52 67.94 55.18 73.05 C 54.22 77.49 53.33 81.95 52.19 86.34 C 50.55 85.10 48.91 83.83 47.21 82.66 C 48.85 81.38 51.34 79.99 51.90 77.86 C 53.23 73.49 51.94 68.23 51.12 63.85 C 49.33 55.34 49.31 46.77 50.08 38.14 C 50.71 31.49 51.63 25.27 55.99 19.92 Z" fill="#e3e3e3" />
<path d="M 173.99 19.94 C 176.53 23.42 178.07 26.99 178.73 31.26 C 179.99 39.07 180.08 47.11 179.74 55.00 C 179.41 63.21 176.60 69.77 177.95 77.96 C 179.16 85.64 180.75 92.73 179.47 100.61 C 178.51 105.89 175.17 109.39 173.16 114.09 C 171.85 117.02 173.27 121.08 173.78 124.11 C 175.28 130.47 174.89 136.95 173.24 143.23 C 171.85 148.50 170.02 154.31 166.63 158.66 C 162.76 163.56 156.76 165.05 152.76 169.71 C 149.55 173.34 147.45 177.62 142.96 179.90 C 136.28 183.20 129.38 182.96 122.21 181.83 C 116.51 180.83 110.94 181.34 105.27 182.22 C 98.83 183.14 91.62 182.49 85.97 179.07 C 81.12 176.08 79.09 170.77 74.74 167.35 C 71.66 164.96 68.29 163.35 65.44 160.59 C 62.73 158.10 60.31 154.66 56.86 153.27 C 52.42 151.46 47.74 150.75 43.39 148.54 C 35.79 144.75 29.62 138.17 24.45 131.55 C 19.48 125.14 14.92 118.84 13.24 110.71 C 11.52 102.71 12.51 94.36 18.08 88.05 C 13.28 97.38 13.92 108.68 19.43 117.56 C 24.31 125.37 30.16 132.81 37.09 138.91 C 44.05 144.87 52.53 147.47 61.52 148.40 C 63.11 151.49 64.46 154.54 67.05 156.95 C 69.23 158.98 71.79 160.05 74.55 161.05 C 76.10 161.84 78.03 162.35 78.86 164.02 C 80.70 167.28 82.30 170.58 84.77 173.44 C 91.71 177.66 99.40 178.12 107.27 177.03 C 110.81 176.37 113.80 174.54 117.40 175.66 C 126.46 178.39 137.00 178.62 145.26 173.40 C 147.58 170.48 149.16 167.18 151.06 164.00 C 151.96 162.40 153.83 161.77 155.38 160.94 C 160.08 159.47 164.12 156.88 166.29 152.30 C 170.12 144.12 172.81 135.07 172.11 125.95 C 172.02 120.99 170.12 116.74 167.93 112.41 C 172.25 107.92 177.72 101.68 177.47 95.08 C 177.55 88.55 176.73 81.98 175.28 75.62 C 174.71 72.93 174.02 70.49 174.71 67.73 C 175.84 62.87 176.94 58.05 177.19 53.05 C 177.74 41.97 177.25 30.60 173.99 19.94 Z" fill="#dddddd" />
<path d="M 70.32 32.12 C 75.76 31.57 81.85 35.17 86.58 37.57 C 82.51 39.54 78.54 41.25 74.78 43.79 C 71.09 46.26 68.15 49.24 64.91 52.22 C 65.04 47.56 65.45 42.97 66.51 38.43 C 67.14 35.99 68.02 33.46 70.32 32.12 Z" fill="#f7a9a9" />
<path d="M 160.60 32.18 C 164.97 37.02 164.73 46.14 165.12 52.29 C 161.85 49.32 158.85 46.33 155.16 43.85 C 151.42 41.31 147.49 39.62 143.45 37.64 C 148.35 35.07 154.92 31.25 160.60 32.18 Z" fill="#f7a5a5" />
<path d="M 83.73 68.28 C 82.67 71.21 81.49 73.87 81.12 77.00 C 80.63 81.51 80.91 86.11 80.69 90.65 C 75.13 86.96 71.61 81.91 67.77 76.61 C 72.02 71.76 77.51 69.49 83.73 68.28 Z" fill="#98e785" />
<path d="M 146.25 68.41 C 152.09 69.35 157.44 71.57 161.70 75.74 C 159.89 78.94 158.40 82.18 155.92 84.92 C 153.72 87.35 150.97 89.43 148.41 91.49 C 148.88 87.03 149.48 82.52 148.87 78.05 C 148.42 74.81 147.14 71.60 146.25 68.41 Z" fill="#94e681" />
<path d="M 92.21 70.55 C 94.67 72.07 97.34 73.55 99.21 75.79 C 101.17 78.14 102.25 81.25 103.09 84.14 C 99.65 85.96 96.32 87.86 93.35 90.41 C 93.62 83.66 93.50 77.20 92.21 70.55 Z" fill="#97e684" />
<path d="M 137.89 70.48 C 136.44 77.10 135.61 83.55 136.67 90.31 C 133.62 87.90 130.31 86.00 126.92 84.11 C 127.69 81.21 128.69 78.01 130.68 75.69 C 132.61 73.42 135.36 71.96 137.89 70.48 Z" fill="#95e682" />
<path d="M 161.70 75.74 C 163.46 78.69 163.33 81.94 162.03 85.04 C 160.00 89.61 156.36 93.74 151.65 95.65 C 147.45 97.43 143.15 97.30 138.67 97.31 C 133.46 94.85 130.09 89.52 126.72 85.05 L 126.92 84.11 C 130.31 86.00 133.62 87.90 136.67 90.31 C 138.01 91.79 139.45 93.96 141.37 94.67 C 144.07 95.46 146.41 92.94 148.41 91.49 C 150.97 89.43 153.72 87.35 155.92 84.92 C 158.40 82.18 159.89 78.94 161.70 75.74 Z" fill="#bfffab" />
<path d="M 67.77 76.61 C 71.61 81.91 75.13 86.96 80.69 90.65 C 82.47 92.02 84.22 93.86 86.31 94.72 C 89.15 95.59 91.44 92.01 93.35 90.41 C 96.32 87.86 99.65 85.96 103.09 84.14 L 103.33 85.10 C 99.82 89.85 96.75 94.88 91.21 97.49 C 85.37 97.54 80.15 96.75 74.94 94.01 C 70.35 89.70 65.31 83.29 67.77 76.61 Z" fill="#c1ffae" />
<path d="M 114.08 76.87 C 119.26 76.37 123.78 81.36 126.72 85.05 C 130.09 89.52 133.46 94.85 138.67 97.31 C 148.63 102.35 158.78 105.67 169.26 109.32 C 161.50 115.09 154.58 121.09 146.12 125.11 C 137.20 129.60 127.93 133.01 117.89 133.69 C 104.05 134.38 92.09 129.02 80.05 122.95 C 73.12 119.46 67.56 114.54 61.81 109.41 C 71.53 105.09 81.79 102.58 91.21 97.49 C 96.75 94.88 99.82 89.85 103.33 85.10 C 105.99 81.88 109.65 77.30 114.08 76.87 Z" fill="#ffffff" />
<path d="M 47.21 82.66 C 48.91 83.83 50.55 85.10 52.19 86.34 C 52.28 91.35 52.68 96.46 53.75 101.36 C 56.50 106.97 60.64 111.57 65.53 115.42 C 68.07 117.48 70.97 119.34 73.20 121.73 C 75.14 123.72 75.32 126.91 75.61 129.53 C 76.06 135.94 76.03 142.38 76.59 148.79 C 74.33 149.57 71.36 149.19 71.02 152.24 C 70.22 156.73 73.29 158.28 76.18 160.86 L 74.55 161.05 C 71.79 160.05 69.23 158.98 67.05 156.95 C 64.46 154.54 63.11 151.49 61.52 148.40 C 52.53 147.47 44.05 144.87 37.09 138.91 C 30.16 132.81 24.31 125.37 19.43 117.56 C 13.92 108.68 13.28 97.38 18.08 88.05 C 24.43 78.80 38.02 76.22 47.21 82.66 Z" fill="#464b4f" />
<path d="M 112.99 93.19 C 116.33 93.05 120.31 93.06 123.34 94.64 C 125.92 95.99 127.88 98.87 127.19 101.87 C 126.36 105.47 122.94 108.57 120.55 111.26 C 122.81 111.98 125.15 113.25 127.56 112.51 C 130.66 111.65 133.61 110.34 136.71 109.46 C 136.97 112.84 138.39 115.84 135.41 118.43 C 129.83 124.02 121.34 123.13 115.03 119.28 C 108.59 123.28 100.49 123.73 94.73 118.29 C 92.09 115.94 93.29 112.58 93.30 109.47 C 96.42 110.29 99.37 111.60 102.46 112.51 C 104.94 113.28 107.14 112.08 109.47 111.34 C 107.24 108.88 104.79 106.56 103.39 103.49 C 102.44 101.34 102.52 98.90 104.05 97.04 C 106.16 94.17 109.63 93.38 112.99 93.19 Z" fill="#4f565c" />
<path d="M 34.98 97.68 C 37.01 99.22 38.23 101.32 39.23 103.62 C 36.95 103.65 34.67 103.69 32.39 103.72 C 32.75 101.73 32.07 97.62 34.98 97.68 Z" fill="#c7c7c7" />
<path d="M 39.23 103.62 C 39.96 106.29 40.32 109.15 41.32 111.73 C 42.82 115.56 46.86 118.35 50.98 118.32 C 54.40 118.48 57.05 117.05 60.00 115.60 C 57.95 121.81 57.32 127.55 57.57 134.08 C 54.33 132.85 51.22 131.74 48.46 129.56 C 40.37 123.23 34.85 113.61 32.39 103.72 C 34.67 103.69 36.95 103.65 39.23 103.62 Z" fill="#e6e6e6" />
<path d="M 167.93 112.41 C 170.12 116.74 172.02 120.99 172.11 125.95 C 172.81 135.07 170.12 144.12 166.29 152.30 C 164.12 156.88 160.08 159.47 155.38 160.94 L 153.81 160.85 C 156.59 158.26 159.57 156.67 158.81 152.30 C 158.50 149.16 155.67 149.61 153.34 148.70 C 153.81 142.11 153.92 135.51 154.17 128.91 C 154.40 126.43 154.26 123.99 156.17 122.12 C 159.73 118.52 164.22 115.89 167.93 112.41 Z" fill="#3e4347" />
<path d="M 101.36 134.47 C 111.02 136.16 119.12 136.13 128.77 134.36 C 124.17 143.75 120.03 153.50 114.89 162.59 C 114.12 161.47 113.46 160.28 112.87 159.05 C 109.08 150.84 105.08 142.72 101.36 134.47 Z" fill="#ffffff" />
<path d="M 131.06 148.01 C 134.19 152.85 136.89 157.93 139.48 163.08 C 141.07 166.38 142.98 169.48 144.99 172.54 L 145.26 173.40 C 137.00 178.62 126.46 178.39 117.40 175.66 C 113.80 174.54 110.81 176.37 107.27 177.03 C 99.40 178.12 91.71 177.66 84.77 173.44 L 85.07 172.62 C 86.85 169.94 88.63 167.26 90.16 164.42 C 92.90 159.15 95.54 153.86 98.85 148.90 C 98.65 154.05 98.16 159.15 97.28 164.23 C 96.68 167.66 96.09 171.08 95.94 174.57 C 97.57 171.61 98.90 168.52 100.38 165.48 C 102.09 169.24 103.55 173.00 105.72 176.53 C 105.70 172.40 105.03 168.37 104.24 164.33 C 103.47 160.15 103.12 155.94 102.98 151.70 C 105.91 155.35 108.41 159.18 110.64 163.30 C 111.99 165.74 113.41 168.13 114.89 170.49 C 116.43 168.11 117.92 165.70 119.33 163.24 C 121.79 158.83 124.40 154.54 127.43 150.49 C 127.05 155.11 126.39 159.66 125.51 164.20 C 124.78 168.28 124.26 172.35 124.11 176.49 C 126.27 172.98 127.82 169.25 129.53 165.51 C 130.98 168.65 132.35 171.80 134.11 174.78 C 134.10 171.26 133.66 167.84 132.98 164.39 C 131.96 158.95 131.34 153.54 131.06 148.01 Z" fill="#3e4347" />
<path d="M 76.59 148.79 C 76.95 152.78 77.77 156.67 78.63 160.57 C 77.81 160.66 77.00 160.76 76.18 160.86 C 73.29 158.28 70.22 156.73 71.02 152.24 C 71.36 149.19 74.33 149.57 76.59 148.79 Z" fill="#ffffff" />
<path d="M 153.34 148.70 C 155.67 149.61 158.50 149.16 158.81 152.30 C 159.57 156.67 156.59 158.26 153.81 160.85 C 152.93 160.80 152.05 160.75 151.17 160.71 C 152.05 156.71 152.99 152.79 153.34 148.70 Z" fill="#ffffff" />
<path d="M 90.16 164.42 C 88.63 167.26 86.85 169.94 85.07 172.62 C 84.81 169.88 82.33 165.19 85.72 163.60 C 87.35 163.14 89.59 162.10 90.16 164.42 Z" fill="#ffffff" />
<path d="M 119.33 163.24 C 117.92 165.70 116.43 168.11 114.89 170.49 C 113.41 168.13 111.99 165.74 110.64 163.30 C 113.54 163.11 116.43 163.08 119.33 163.24 Z" fill="#ffffff" />
<path d="M 145.92 166.19 C 145.95 168.30 145.31 170.46 144.99 172.54 C 142.98 169.48 141.07 166.38 139.48 163.08 C 142.23 163.36 144.65 163.24 145.92 166.19 Z" fill="#ffffff" />
<path d="M 97.28 164.23 C 99.60 164.34 101.92 164.37 104.24 164.33 C 105.03 168.37 105.70 172.40 105.72 176.53 C 103.55 173.00 102.09 169.24 100.38 165.48 C 98.90 168.52 97.57 171.61 95.94 174.57 C 96.09 171.08 96.68 167.66 97.28 164.23 Z" fill="#ffffff" />
<path d="M 125.51 164.20 C 128.00 164.35 130.49 164.40 132.98 164.39 C 133.66 167.84 134.10 171.26 134.11 174.78 C 132.35 171.80 130.98 168.65 129.53 165.51 C 127.82 169.25 126.27 172.98 124.11 176.49 C 124.26 172.35 124.78 168.28 125.51 164.20 Z" fill="#ffffff" /></svg>