<?xml version="1.0" encoding="UTF-8" standalone="no"?>
<!DOCTYPE svg PUBLIC "-//W3C//DTD SVG 1.1//EN" "http://www.w3.org/Graphics/SVG/1.1/DTD/svg11.dtd">
<svg viewBox="0 0 192 192" height="192.0pt" width="192.0pt" xmlns="http://www.w3.org/2000/svg" version="1.1">
<path d="M 46.44 15.12 C 48.27 19.67 49.57 24.82 52.03 29.04 C 54.32 32.91 57.66 35.32 61.13 38.02 C 58.92 39.45 56.80 41.10 54.71 42.70 C 53.40 43.70 52.11 44.71 50.81 45.73 C 48.63 44.58 46.48 43.43 44.18 42.52 C 45.13 34.57 44.89 26.62 45.50 18.66 C 45.80 17.48 46.12 16.30 46.44 15.12 Z" fill="#f6cba0" />
<path d="M 108.61 16.92 C 109.25 18.47 109.87 20.04 110.46 21.61 C 110.44 28.62 110.87 35.52 111.87 42.46 C 109.85 43.19 107.91 44.07 105.96 44.94 C 104.58 43.88 103.21 42.82 101.82 41.78 C 99.66 40.18 97.39 38.61 95.03 37.32 C 98.11 35.20 101.00 33.33 103.01 30.07 C 105.43 26.06 106.76 21.24 108.61 16.92 Z" fill="#f6c99d" />
<path d="M 45.50 18.66 C 44.89 26.62 45.13 34.57 44.18 42.52 C 41.46 41.61 38.68 40.87 35.87 40.31 C 37.70 40.10 39.50 39.81 41.31 39.53 C 41.64 32.12 42.68 25.54 45.50 18.66 Z" fill="#e6e6e6" />
<path d="M 110.46 21.61 C 111.69 24.56 112.86 27.49 113.35 30.67 C 113.93 33.57 114.01 37.10 115.49 39.69 C 117.02 40.05 118.56 40.20 120.12 40.31 C 117.32 40.83 114.57 41.56 111.87 42.46 C 110.87 35.52 110.44 28.62 110.46 21.61 Z" fill="#e5e5e5" />
<path d="M 95.03 37.32 C 97.39 38.61 99.66 40.18 101.82 41.78 C 94.98 49.12 88.94 57.12 85.66 66.72 C 83.20 74.01 83.24 82.33 86.64 89.33 C 88.81 94.03 92.09 97.54 95.47 101.36 C 89.64 102.09 83.90 102.96 78.00 102.91 C 72.10 102.99 66.34 102.12 60.51 101.33 C 66.64 94.51 71.67 87.56 71.81 77.98 C 72.19 64.53 63.20 52.32 54.71 42.70 C 56.80 41.10 58.92 39.45 61.13 38.02 C 71.63 33.44 84.34 33.33 95.03 37.32 Z" fill="#dbe6ef" />
<path d="M 135.67 39.39 C 135.77 44.93 135.71 50.45 135.44 55.98 C 134.52 60.44 133.69 65.40 131.42 69.40 C 129.84 72.27 127.07 72.79 124.28 74.02 C 124.81 73.53 125.33 73.02 125.84 72.50 C 128.09 70.28 130.37 68.55 131.32 65.38 C 133.20 59.19 133.12 52.39 132.97 45.99 C 124.79 45.82 117.10 46.47 109.98 50.87 C 113.03 57.36 115.76 63.88 117.08 70.96 C 112.52 69.86 108.46 67.02 103.88 66.27 C 99.87 65.93 95.24 67.47 92.67 70.67 C 90.53 73.48 89.80 77.62 88.87 80.99 C 87.27 81.98 87.29 82.58 88.94 82.81 C 88.52 85.18 88.12 87.55 87.76 89.93 C 88.96 88.89 90.16 87.84 91.34 86.77 C 95.44 91.03 101.28 92.31 106.66 89.64 C 111.12 87.69 113.30 83.96 115.21 79.71 C 116.23 79.47 117.23 79.19 118.22 78.87 C 119.58 87.80 120.06 96.67 117.64 105.46 C 115.81 105.72 113.97 105.97 112.14 106.20 C 110.37 104.51 108.29 101.82 105.78 101.34 C 102.43 100.76 98.85 101.07 95.47 101.36 C 92.09 97.54 88.81 94.03 86.64 89.33 C 83.24 82.33 83.20 74.01 85.66 66.72 C 88.94 57.12 94.98 49.12 101.82 41.78 C 103.21 42.82 104.58 43.88 105.96 44.94 C 107.91 44.07 109.85 43.19 111.87 42.46 C 114.57 41.56 117.32 40.83 120.12 40.31 C 125.28 39.43 130.46 39.37 135.67 39.39 Z" fill="#747472" />
<path d="M 35.87 40.31 C 38.68 40.87 41.46 41.61 44.18 42.52 C 46.48 43.43 48.63 44.58 50.81 45.73 C 52.11 44.71 53.40 43.70 54.71 42.70 C 63.20 52.32 72.19 64.53 71.81 77.98 C 71.67 87.56 66.64 94.51 60.51 101.33 C 57.11 100.99 53.53 100.73 50.14 101.25 C 47.50 101.58 45.47 104.48 43.72 106.26 C 42.00 106.02 40.28 105.78 38.57 105.46 C 38.02 104.30 37.51 103.11 37.04 101.92 C 35.98 94.34 36.74 86.40 37.34 78.80 C 38.45 79.17 39.57 79.49 40.71 79.76 C 42.73 85.23 46.47 89.42 52.33 90.69 C 57.24 91.95 60.75 89.40 64.69 86.95 C 65.53 87.64 66.39 88.31 67.25 88.98 C 67.06 83.82 66.74 78.04 64.70 73.23 C 62.67 68.12 56.45 65.57 51.27 66.40 C 46.99 67.36 43.17 69.82 38.90 70.97 C 40.43 64.16 43.15 57.84 46.26 51.62 C 39.44 46.19 31.44 45.84 23.08 46.06 C 22.68 53.85 21.83 64.24 27.87 70.21 C 28.94 71.56 30.05 72.88 31.21 74.15 C 29.41 73.26 27.32 72.49 25.76 71.21 C 23.99 69.55 23.01 66.91 22.31 64.64 C 19.93 56.44 20.61 48.75 19.73 40.38 C 24.57 38.47 30.82 39.76 35.87 40.31 Z" fill="#777775" />
<path d="M 19.73 40.38 C 20.61 48.75 19.93 56.44 22.31 64.64 C 23.01 66.91 23.99 69.55 25.76 71.21 C 27.32 72.49 29.41 73.26 31.21 74.15 C 33.37 75.55 35.31 77.22 37.34 78.80 C 36.74 86.40 35.98 94.34 37.04 101.92 C 37.74 107.32 40.38 111.78 42.04 116.85 C 43.55 122.54 42.86 128.89 43.31 134.76 C 43.90 144.85 42.89 155.05 43.80 165.10 C 44.83 172.76 51.30 178.15 58.96 178.16 C 63.79 177.80 68.54 175.29 71.17 171.17 C 72.72 168.73 73.05 166.05 73.37 163.24 C 73.54 161.83 73.70 160.43 73.87 159.02 C 74.45 155.37 74.50 151.97 78.01 149.85 C 81.51 152.11 81.58 155.53 81.99 159.29 C 82.36 164.09 82.60 169.21 86.04 172.95 C 90.44 177.85 97.58 179.65 103.59 176.63 C 108.32 174.57 110.51 170.55 111.94 165.83 C 113.68 163.73 115.37 161.73 118.22 161.26 C 121.01 160.81 124.25 160.95 126.77 162.32 C 130.60 164.42 133.77 168.56 137.83 170.15 C 141.63 171.53 146.21 170.77 149.51 168.47 C 151.85 166.83 152.79 164.38 153.84 161.84 C 154.57 159.99 155.10 158.05 155.52 156.11 C 157.31 149.80 157.00 143.49 156.13 137.06 C 155.44 130.18 155.70 123.43 155.81 116.54 C 156.60 107.57 153.81 98.85 147.90 92.06 C 151.60 89.38 154.81 86.62 159.42 85.62 C 162.43 84.70 167.43 84.08 169.14 81.13 C 172.09 75.83 171.72 68.32 172.29 62.43 C 176.30 68.18 175.34 76.68 172.71 82.80 C 170.60 87.60 166.45 89.13 161.85 90.79 C 159.46 91.79 155.51 92.82 154.31 95.33 C 154.19 98.53 155.99 101.92 156.93 104.95 C 159.77 112.42 158.62 121.05 158.81 129.00 C 158.69 139.13 160.15 149.76 158.62 159.78 C 157.19 168.52 148.94 175.04 140.05 173.97 C 133.72 173.55 130.86 169.21 126.03 166.00 C 123.60 164.17 120.02 164.80 117.13 164.73 C 115.67 168.08 114.29 171.50 112.55 174.71 C 108.51 182.54 97.86 186.01 89.98 182.00 C 83.85 179.18 81.22 173.06 77.91 167.61 C 74.65 173.06 72.20 179.26 65.99 181.95 C 58.76 185.44 49.89 183.34 44.85 177.15 C 40.77 172.15 40.27 166.25 40.21 160.04 C 40.22 148.01 40.35 135.97 40.36 123.95 C 40.41 114.99 34.23 109.25 33.59 100.47 C 32.88 94.87 34.53 88.49 32.89 83.14 C 30.09 79.23 24.65 77.35 21.89 73.16 C 19.14 68.99 18.19 63.34 17.57 58.46 C 16.96 52.05 16.29 46.17 19.73 40.38 Z" fill="#e5e5e5" />
<path d="M 23.08 46.06 C 31.44 45.84 39.44 46.19 46.26 51.62 C 43.15 57.84 40.43 64.16 38.90 70.97 C 34.88 70.14 30.93 68.79 26.95 67.72 C 27.25 68.56 27.56 69.39 27.87 70.21 C 21.83 64.24 22.68 53.85 23.08 46.06 Z" fill="#f4a7a1" />
<path d="M 132.97 45.99 C 133.12 52.39 133.20 59.19 131.32 65.38 C 130.37 68.55 128.09 70.28 125.84 72.50 C 126.86 70.88 127.85 69.25 128.85 67.63 C 124.95 68.77 121.04 70.10 117.08 70.96 C 115.76 63.88 113.03 57.36 109.98 50.87 C 117.10 46.47 124.79 45.82 132.97 45.99 Z" fill="#f4a39d" />
<path d="M 135.44 55.98 C 135.40 60.63 135.54 65.14 133.43 69.45 C 131.46 73.40 127.56 76.68 124.33 79.65 C 129.58 81.04 135.46 82.16 140.24 84.76 C 142.90 87.06 145.44 89.54 147.90 92.06 C 153.81 98.85 156.60 107.57 155.81 116.54 C 154.77 114.09 153.50 111.77 151.99 109.57 C 147.43 110.43 143.24 111.39 140.06 115.05 C 133.59 122.33 134.81 134.53 142.79 140.21 C 146.74 143.24 150.98 143.06 155.70 143.10 C 155.85 141.09 156.03 139.08 156.13 137.06 C 157.00 143.49 157.31 149.80 155.52 156.11 C 155.60 154.40 155.63 152.68 155.68 150.97 C 146.40 150.69 137.11 150.88 127.83 150.84 C 127.82 149.00 127.82 147.16 127.82 145.32 C 122.64 145.58 117.46 145.73 112.29 145.95 C 112.38 137.57 112.38 129.19 112.08 120.82 C 112.20 115.95 112.14 111.08 112.14 106.20 C 113.97 105.97 115.81 105.72 117.64 105.46 C 120.06 96.67 119.58 87.80 118.22 78.87 C 120.24 77.24 122.13 75.49 124.28 74.02 C 127.07 72.79 129.84 72.27 131.42 69.40 C 133.69 65.40 134.52 60.44 135.44 55.98 Z" fill="#cfdae8" />
<path d="M 172.29 62.43 C 171.72 68.32 172.09 75.83 169.14 81.13 C 167.43 84.08 162.43 84.70 159.42 85.62 C 154.81 86.62 151.60 89.38 147.90 92.06 C 145.44 89.54 142.90 87.06 140.24 84.76 C 143.73 82.41 147.92 81.10 148.52 76.37 C 149.60 72.55 149.75 65.76 154.20 64.26 C 159.83 62.19 166.36 61.15 172.29 62.43 Z" fill="#70706e" />
<path d="M 51.27 66.40 C 56.45 65.57 62.67 68.12 64.70 73.23 C 66.74 78.04 67.06 83.82 67.25 88.98 C 66.39 88.31 65.53 87.64 64.69 86.95 C 63.85 86.26 63.01 85.55 62.18 84.85 C 59.04 87.60 56.32 90.66 51.70 89.34 C 47.13 87.93 46.05 84.22 44.30 80.28 C 43.11 80.10 41.91 79.92 40.71 79.76 C 39.57 79.49 38.45 79.17 37.34 78.80 C 35.31 77.22 33.37 75.55 31.21 74.15 C 30.05 72.88 28.94 71.56 27.87 70.21 C 27.56 69.39 27.25 68.56 26.95 67.72 C 30.93 68.79 34.88 70.14 38.90 70.97 C 43.17 69.82 46.99 67.36 51.27 66.40 Z" fill="#484d51" />
<path d="M 103.88 66.27 C 108.46 67.02 112.52 69.86 117.08 70.96 C 121.04 70.10 124.95 68.77 128.85 67.63 C 127.85 69.25 126.86 70.88 125.84 72.50 C 125.33 73.02 124.81 73.53 124.28 74.02 C 122.13 75.49 120.24 77.24 118.22 78.87 C 117.23 79.19 116.23 79.47 115.21 79.71 C 114.00 79.94 112.80 80.18 111.60 80.43 C 109.79 84.06 109.09 87.61 104.81 89.12 C 99.83 90.90 96.82 87.92 93.42 84.85 C 92.73 85.49 92.03 86.13 91.34 86.77 C 90.16 87.84 88.96 88.89 87.76 89.93 C 88.12 87.55 88.52 85.18 88.94 82.81 L 88.87 80.99 C 89.80 77.62 90.53 73.48 92.67 70.67 C 95.24 67.47 99.87 65.93 103.88 66.27 Z" fill="#454a4d" />
<path d="M 40.71 79.76 C 41.91 79.92 43.11 80.10 44.30 80.28 C 46.05 84.22 47.13 87.93 51.70 89.34 C 56.32 90.66 59.04 87.60 62.18 84.85 C 63.01 85.55 63.85 86.26 64.69 86.95 C 60.75 89.40 57.24 91.95 52.33 90.69 C 46.47 89.42 42.73 85.23 40.71 79.76 Z" fill="#e6e6e6" />
<path d="M 111.60 80.43 C 112.80 80.18 114.00 79.94 115.21 79.71 C 113.30 83.96 111.12 87.69 106.66 89.64 C 101.28 92.31 95.44 91.03 91.34 86.77 C 92.03 86.13 92.73 85.49 93.42 84.85 C 96.82 87.92 99.83 90.90 104.81 89.12 C 109.09 87.61 109.79 84.06 111.60 80.43 Z" fill="#e0e0e0" />
<path d="M 88.87 80.99 L 88.94 82.81 C 87.29 82.58 87.27 81.98 88.87 80.99 Z" fill="#fbfbfb" />
<path d="M 50.14 101.25 C 53.53 100.73 57.11 100.99 60.51 101.33 C 66.34 102.12 72.10 102.99 78.00 102.91 C 83.90 102.96 89.64 102.09 95.47 101.36 C 98.85 101.07 102.43 100.76 105.78 101.34 C 108.29 101.82 110.37 104.51 112.14 106.20 C 112.14 111.08 112.20 115.95 112.08 120.82 C 110.80 125.16 109.24 129.67 105.93 132.92 C 102.37 136.41 97.22 138.54 92.54 140.04 C 83.46 141.62 73.86 141.98 64.78 140.18 C 57.42 138.56 49.63 134.94 46.25 127.78 C 42.76 120.70 43.37 113.84 43.72 106.26 C 45.47 104.48 47.50 101.58 50.14 101.25 Z" fill="#f4a39c" />
<path d="M 37.04 101.92 C 37.51 103.11 38.02 104.30 38.57 105.46 C 40.28 105.78 42.00 106.02 43.72 106.26 C 43.37 113.84 42.76 120.70 46.25 127.78 C 49.63 134.94 57.42 138.56 64.78 140.18 C 73.86 141.98 83.46 141.62 92.54 140.04 C 94.69 143.16 96.65 146.06 100.06 147.95 C 103.91 150.13 107.94 149.99 112.23 150.18 C 112.21 152.62 112.21 155.06 112.21 157.51 L 112.20 159.30 C 102.13 159.36 92.06 159.40 81.99 159.29 C 81.58 155.53 81.51 152.11 78.01 149.85 C 74.50 151.97 74.45 155.37 73.87 159.02 C 68.01 159.28 62.14 159.31 56.28 159.29 C 58.45 156.60 60.85 154.06 61.56 150.55 C 62.44 146.05 60.09 141.20 56.39 138.62 C 52.60 135.88 47.80 135.37 43.31 134.76 C 42.86 128.89 43.55 122.54 42.04 116.85 C 40.38 111.78 37.74 107.32 37.04 101.92 Z" fill="#cfdae8" />
<path d="M 58.46 105.37 C 61.63 104.35 64.98 106.72 66.96 109.02 C 71.56 114.43 73.22 122.66 71.40 129.46 C 70.13 133.97 65.26 136.67 61.03 134.00 C 54.10 129.43 51.66 119.96 53.14 112.13 C 53.72 109.08 55.37 106.35 58.46 105.37 Z" fill="#be6969" />
<path d="M 93.41 105.26 C 96.26 104.25 99.27 105.72 100.96 108.05 C 103.13 111.09 103.30 115.27 102.90 118.86 C 102.32 123.40 100.67 128.13 97.71 131.69 C 95.79 133.95 93.24 135.60 90.16 135.07 C 87.22 134.52 85.38 132.21 84.40 129.54 C 82.48 124.41 83.73 118.70 85.83 113.84 C 87.33 110.49 89.83 106.61 93.41 105.26 Z" fill="#bd6767" />
<path d="M 151.99 109.57 C 153.50 111.77 154.77 114.09 155.81 116.54 C 155.70 123.43 155.44 130.18 156.13 137.06 C 156.03 139.08 155.85 141.09 155.70 143.10 C 150.98 143.06 146.74 143.24 142.79 140.21 C 134.81 134.53 133.59 122.33 140.06 115.05 C 143.24 111.39 147.43 110.43 151.99 109.57 Z" fill="#6f6f6d" />
<path d="M 112.08 120.82 C 112.38 129.19 112.38 137.57 112.29 145.95 C 112.27 147.36 112.25 148.77 112.23 150.18 C 107.94 149.99 103.91 150.13 100.06 147.95 C 96.65 146.06 94.69 143.16 92.54 140.04 C 97.22 138.54 102.37 136.41 105.93 132.92 C 109.24 129.67 110.80 125.16 112.08 120.82 Z" fill="#70706e" />
<path d="M 43.31 134.76 C 47.80 135.37 52.60 135.88 56.39 138.62 C 60.09 141.20 62.44 146.05 61.56 150.55 C 60.85 154.06 58.45 156.60 56.28 159.29 C 62.14 159.31 68.01 159.28 73.87 159.02 C 73.70 160.43 73.54 161.83 73.37 163.24 C 73.34 162.16 73.30 161.08 73.24 160.00 C 63.58 159.40 53.70 159.28 44.02 159.35 C 43.86 161.26 43.78 163.18 43.80 165.10 C 42.89 155.05 43.90 144.85 43.31 134.76 Z" fill="#71716f" />
<path d="M 73.53 145.19 C 76.27 144.57 79.24 144.72 82.04 144.77 C 82.07 146.28 82.11 147.78 82.14 149.28 C 79.23 148.90 76.50 148.93 73.58 149.28 C 73.53 147.91 73.47 146.56 73.53 145.19 Z" fill="#c2c2c2" />
<path d="M 127.82 145.32 C 127.82 147.16 127.82 149.00 127.83 150.84 C 127.88 153.27 128.02 155.69 128.30 158.10 C 122.68 158.92 117.74 158.86 112.21 157.51 C 112.21 155.06 112.21 152.62 112.23 150.18 C 112.25 148.77 112.27 147.36 112.29 145.95 C 117.46 145.73 122.64 145.58 127.82 145.32 Z" fill="#f4a19a" />
<path d="M 127.83 150.84 C 137.11 150.88 146.40 150.69 155.68 150.97 C 155.63 152.68 155.60 154.40 155.52 156.11 C 155.10 158.05 154.57 159.99 153.84 161.84 C 151.79 164.23 149.62 166.52 146.59 167.63 C 142.25 169.15 136.96 168.66 133.35 165.67 C 130.92 163.70 129.45 160.96 128.30 158.10 C 128.02 155.69 127.88 153.27 127.83 150.84 Z" fill="#3e4347" />
<path d="M 112.21 157.51 C 117.74 158.86 122.68 158.92 128.30 158.10 C 129.45 160.96 130.92 163.70 133.35 165.67 C 136.96 168.66 142.25 169.15 146.59 167.63 C 149.62 166.52 151.79 164.23 153.84 161.84 C 152.79 164.38 151.85 166.83 149.51 168.47 C 146.21 170.77 141.63 171.53 137.83 170.15 C 133.77 168.56 130.60 164.42 126.77 162.32 C 124.25 160.95 121.01 160.81 118.22 161.26 C 115.37 161.73 113.68 163.73 111.94 165.83 C 112.13 163.66 112.18 161.48 112.20 159.30 L 112.21 157.51 Z" fill="#cccccc" />
<path d="M 44.02 159.35 C 53.70 159.28 63.58 159.40 73.24 160.00 C 73.30 161.08 73.34 162.16 73.37 163.24 C 73.05 166.05 72.72 168.73 71.17 171.17 C 68.54 175.29 63.79 177.80 58.96 178.16 C 51.30 178.15 44.83 172.76 43.80 165.10 C 43.78 163.18 43.86 161.26 44.02 159.35 Z" fill="#404549" />
<path d="M 81.99 159.29 C 92.06 159.40 102.13 159.36 112.20 159.30 C 112.18 161.48 112.13 163.66 111.94 165.83 C 110.51 170.55 108.32 174.57 103.59 176.63 C 97.58 179.65 90.44 177.85 86.04 172.95 C 82.60 169.21 82.36 164.09 81.99 159.29 Z" fill="#3e4347" /></svg>