<?xml version="1.0" encoding="UTF-8" standalone="no"?>
<!DOCTYPE svg PUBLIC "-//W3C//DTD SVG 1.1//EN" "http://www.w3.org/Graphics/SVG/1.1/DTD/svg11.dtd">
<svg viewBox="0 0 192 192" height="192.0pt" width="192.0pt" xmlns="http://www.w3.org/2000/svg" version="1.1">
<path d="M 31.71 15.01 C 40.08 14.47 48.67 14.81 56.74 17.28 C 62.19 18.97 66.26 22.43 70.21 26.40 C 64.81 27.50 60.21 30.22 54.95 29.94 C 51.52 30.05 47.45 28.93 44.74 31.67 C 41.48 34.55 42.09 40.05 45.68 42.37 C 48.99 44.59 54.55 44.51 57.52 41.73 C 59.08 38.71 58.91 34.45 60.78 31.70 C 63.79 29.40 68.20 28.71 71.90 29.02 C 74.84 29.17 75.89 31.85 77.27 34.02 C 77.39 39.88 77.00 45.61 75.26 51.24 C 73.36 57.38 70.75 63.02 69.50 69.41 C 68.54 74.07 68.76 78.60 69.04 83.31 C 70.14 82.31 71.24 81.31 72.33 80.30 C 75.43 77.41 78.62 74.59 81.55 71.53 C 84.56 68.36 85.86 64.60 87.89 60.82 C 90.19 56.40 93.55 52.47 97.11 49.02 C 100.16 47.70 103.49 47.05 106.71 48.16 C 110.08 49.29 112.43 51.67 114.80 54.21 C 115.58 55.43 116.33 56.68 117.09 57.92 C 114.75 60.40 112.59 63.01 110.93 66.01 C 106.55 73.90 101.09 81.25 94.63 87.57 C 89.47 92.68 85.02 97.82 79.17 102.18 C 73.75 106.23 67.98 109.77 62.63 113.92 C 59.62 110.46 57.41 106.42 55.92 102.10 C 52.87 93.30 51.09 84.03 50.22 74.76 C 49.37 66.11 51.21 57.70 50.01 49.05 C 47.61 50.88 45.34 52.82 43.32 55.07 C 34.68 51.04 25.63 48.78 16.07 50.54 C 14.65 45.76 14.96 40.98 15.79 36.14 C 17.36 34.73 18.97 33.36 20.60 32.03 C 21.44 34.29 22.20 36.57 23.14 38.79 C 20.89 38.54 18.62 38.47 16.36 38.25 C 16.47 40.93 16.50 43.62 16.51 46.31 C 23.28 46.65 30.16 48.25 36.91 47.82 C 39.56 47.92 40.97 44.96 42.61 43.27 C 37.56 41.15 32.70 39.76 27.28 38.95 C 29.37 36.89 31.46 34.82 33.53 32.74 C 32.21 31.49 31.17 30.22 29.62 29.27 C 27.10 28.91 24.23 30.17 21.90 31.04 C 25.49 27.88 29.62 26.83 34.21 25.94 C 37.57 24.70 39.91 22.40 42.51 20.06 C 40.03 19.09 37.52 18.12 35.10 17.00 C 33.97 16.34 32.84 15.68 31.71 15.01 Z" fill="#e1b085" />
<path d="M 35.10 17.00 C 37.52 18.12 40.03 19.09 42.51 20.06 C 39.91 22.40 37.57 24.70 34.21 25.94 C 34.54 22.97 34.91 19.99 35.10 17.00 Z" fill="#e4e4e4" />
<path d="M 70.21 26.40 C 72.56 26.72 74.87 27.23 77.16 27.86 L 77.20 29.71 C 77.23 31.15 77.25 32.58 77.27 34.02 C 75.89 31.85 74.84 29.17 71.90 29.02 C 68.20 28.71 63.79 29.40 60.78 31.70 C 58.91 34.45 59.08 38.71 57.52 41.73 C 54.55 44.51 48.99 44.59 45.68 42.37 C 42.09 40.05 41.48 34.55 44.74 31.67 C 47.45 28.93 51.52 30.05 54.95 29.94 C 60.21 30.22 64.81 27.50 70.21 26.40 Z" fill="#c58f68" />
<path d="M 77.16 27.86 C 82.15 31.97 81.26 39.21 80.93 44.96 C 80.23 55.47 74.19 64.02 74.01 74.65 C 75.99 73.34 78.69 72.11 80.00 70.07 C 83.32 65.09 85.61 58.41 89.83 53.82 C 91.86 51.58 94.39 50.23 97.11 49.02 C 93.55 52.47 90.19 56.40 87.89 60.82 C 85.86 64.60 84.56 68.36 81.55 71.53 C 78.62 74.59 75.43 77.41 72.33 80.30 C 71.25 77.53 70.10 75.10 70.84 72.04 C 72.55 63.81 76.61 56.40 77.72 47.87 C 78.75 41.70 77.81 35.85 77.20 29.71 L 77.16 27.86 Z" fill="#efefef" />
<path d="M 29.62 29.27 C 31.17 30.22 32.21 31.49 33.53 32.74 C 31.46 34.82 29.37 36.89 27.28 38.95 C 32.70 39.76 37.56 41.15 42.61 43.27 C 40.97 44.96 39.56 47.92 36.91 47.82 C 30.16 48.25 23.28 46.65 16.51 46.31 C 16.50 43.62 16.47 40.93 16.36 38.25 C 18.62 38.47 20.89 38.54 23.14 38.79 C 22.20 36.57 21.44 34.29 20.60 32.03 L 21.90 31.04 C 24.23 30.17 27.10 28.91 29.62 29.27 Z" fill="#927159" />
<path d="M 77.20 29.71 C 77.81 35.85 78.75 41.70 77.72 47.87 C 76.61 56.40 72.55 63.81 70.84 72.04 C 70.10 75.10 71.25 77.53 72.33 80.30 C 71.24 81.31 70.14 82.31 69.04 83.31 C 68.76 78.60 68.54 74.07 69.50 69.41 C 70.75 63.02 73.36 57.38 75.26 51.24 C 77.00 45.61 77.39 39.88 77.27 34.02 C 77.25 32.58 77.23 31.15 77.20 29.71 Z" fill="#dcdbda" />
<path d="M 47.40 31.31 C 49.85 30.29 52.99 30.27 55.37 31.50 C 57.57 33.04 57.54 37.03 56.25 39.14 C 54.71 41.33 50.79 41.35 48.50 40.58 C 44.69 39.39 44.38 33.47 47.40 31.31 Z" fill="#4c5054" />
<path d="M 15.79 36.14 C 14.96 40.98 14.65 45.76 16.07 50.54 L 16.79 51.00 C 20.95 54.18 25.39 53.94 30.28 54.85 C 34.04 55.49 37.20 57.22 40.47 59.07 C 36.36 66.73 34.12 75.28 33.84 83.96 C 33.39 94.22 34.28 104.32 37.78 114.03 C 40.25 121.90 45.43 129.36 53.05 132.91 C 58.93 134.92 65.44 135.03 71.51 136.42 C 75.01 143.72 74.24 150.95 74.03 158.77 C 73.74 164.94 72.58 171.05 72.15 177.22 L 73.53 177.91 C 80.42 182.28 88.06 180.37 96.05 180.77 C 100.80 180.90 103.15 180.20 107.06 177.63 L 108.38 176.92 C 107.38 172.34 106.67 167.72 106.01 163.08 C 105.42 154.53 104.72 146.62 108.52 138.65 C 110.60 136.06 112.68 133.74 116.06 132.95 C 120.23 131.98 124.67 131.84 128.93 132.22 C 132.44 132.49 134.81 134.71 137.51 136.69 C 137.24 145.16 137.62 153.65 137.15 162.10 C 136.82 166.99 136.05 171.81 135.63 176.68 L 136.73 177.80 C 141.61 181.77 147.13 180.50 153.00 180.77 C 159.40 180.53 164.88 181.94 170.38 177.82 C 170.94 177.47 171.50 177.13 172.07 176.79 C 171.01 170.53 169.60 164.19 169.29 157.84 C 169.27 151.52 169.09 145.16 169.34 138.84 C 169.30 136.11 172.03 133.61 173.47 131.48 C 176.63 127.50 178.34 122.41 176.67 117.43 C 174.50 110.44 172.47 102.68 168.59 96.48 C 166.37 92.76 163.61 89.45 161.19 85.87 C 158.75 82.25 157.63 77.95 156.10 73.89 C 153.35 66.47 149.81 59.51 144.12 53.90 C 153.35 59.29 157.24 70.70 160.87 80.13 C 164.06 88.92 170.74 95.05 174.34 103.64 C 176.99 110.02 179.80 117.03 180.07 123.99 C 180.13 131.85 173.36 137.12 172.46 145.21 C 171.72 152.64 172.43 160.30 173.46 167.67 C 173.88 171.22 174.61 175.24 173.83 178.76 C 173.11 181.61 170.52 182.48 167.93 182.93 C 162.05 183.77 155.94 183.22 150.01 183.39 C 145.77 183.32 140.77 183.73 136.79 182.12 C 133.00 180.36 133.28 175.87 133.34 172.35 C 134.12 162.35 134.82 151.96 134.12 141.93 C 133.79 139.74 133.59 136.76 131.06 135.99 C 127.79 134.92 124.02 135.06 120.63 135.38 C 117.61 135.81 114.71 136.14 112.98 138.98 C 108.79 145.51 108.31 154.53 109.00 162.04 C 109.34 167.10 110.81 172.41 110.32 177.45 C 110.01 180.16 108.19 181.95 105.60 182.59 C 100.31 183.84 94.43 183.26 89.00 183.38 C 84.05 183.28 78.41 183.84 73.66 182.30 C 70.10 180.99 69.87 177.30 69.84 174.04 C 70.17 165.25 71.85 156.94 70.86 148.00 C 70.51 145.10 69.76 140.72 66.69 139.44 C 61.94 137.63 55.37 138.28 50.42 135.58 C 44.17 132.14 39.20 126.14 36.17 119.74 C 31.14 109.26 30.23 96.40 30.85 84.95 C 31.15 76.17 34.55 68.80 36.47 60.03 C 32.37 58.68 28.27 57.54 23.95 57.20 C 20.97 56.77 16.87 56.73 14.82 54.17 C 10.83 48.89 10.80 40.84 15.79 36.14 Z" fill="#e6e6e6" />
<path d="M 43.32 55.07 C 39.09 54.44 34.99 53.31 30.84 52.30 C 26.11 51.18 21.57 51.41 16.79 51.00 L 16.07 50.54 C 25.63 48.78 34.68 51.04 43.32 55.07 Z" fill="#c09f81" />
<path d="M 50.01 49.05 C 51.21 57.70 49.37 66.11 50.22 74.76 C 51.09 84.03 52.87 93.30 55.92 102.10 C 57.41 106.42 59.62 110.46 62.63 113.92 C 67.72 118.91 73.88 119.69 80.60 120.82 C 78.65 123.04 76.69 125.64 74.28 127.35 C 71.21 129.46 67.41 130.75 63.84 131.72 C 58.47 131.72 53.06 130.66 48.76 127.26 C 44.30 123.73 40.81 118.80 37.78 114.03 C 34.28 104.32 33.39 94.22 33.84 83.96 C 34.12 75.28 36.36 66.73 40.47 59.07 C 41.34 57.68 42.30 56.35 43.32 55.07 C 45.34 52.82 47.61 50.88 50.01 49.05 Z" fill="#ffe3b6" />
<path d="M 16.79 51.00 C 21.57 51.41 26.11 51.18 30.84 52.30 C 34.99 53.31 39.09 54.44 43.32 55.07 C 42.30 56.35 41.34 57.68 40.47 59.07 C 37.20 57.22 34.04 55.49 30.28 54.85 C 25.39 53.94 20.95 54.18 16.79 51.00 Z" fill="#cbcbcb" />
<path d="M 134.35 52.25 C 137.58 51.16 141.29 52.20 144.12 53.90 C 149.81 59.51 153.35 66.47 156.10 73.89 C 157.63 77.95 158.75 82.25 161.19 85.87 C 163.61 89.45 166.37 92.76 168.59 96.48 C 172.47 102.68 174.50 110.44 176.67 117.43 C 178.34 122.41 176.63 127.50 173.47 131.48 C 172.03 133.61 169.30 136.11 169.34 138.84 C 169.09 145.16 169.27 151.52 169.29 157.84 C 166.05 156.46 162.32 154.58 158.75 154.51 C 155.04 154.56 151.11 156.22 147.66 157.51 C 147.05 150.64 147.45 143.79 147.21 136.92 C 147.19 132.46 143.93 128.33 139.42 127.84 C 134.69 127.36 129.78 128.02 125.02 128.09 C 120.26 128.17 115.64 128.76 110.98 129.74 C 110.33 132.77 109.65 135.75 108.52 138.65 C 104.72 146.62 105.42 154.53 106.01 163.08 C 105.16 159.96 104.64 156.95 101.21 155.74 C 94.91 153.10 89.54 155.19 83.70 157.78 C 83.78 156.71 83.86 155.64 83.92 154.57 C 84.21 149.85 83.96 145.21 82.18 140.79 C 80.45 136.45 79.35 132.05 78.46 127.47 C 75.48 128.72 72.66 130.13 69.61 131.25 C 67.70 131.56 65.78 131.68 63.84 131.72 C 67.41 130.75 71.21 129.46 74.28 127.35 C 76.69 125.64 78.65 123.04 80.60 120.82 C 73.88 119.69 67.72 118.91 62.63 113.92 C 67.98 109.77 73.75 106.23 79.17 102.18 C 85.02 97.82 89.47 92.68 94.63 87.57 C 101.09 81.25 106.55 73.90 110.93 66.01 C 112.59 63.01 114.75 60.40 117.09 57.92 C 118.59 60.36 120.17 62.75 121.72 65.15 C 123.19 62.90 124.67 60.59 126.31 58.45 C 128.69 55.89 130.90 53.33 134.35 52.25 Z" fill="#e0ad80" />
<path d="M 114.80 54.21 C 116.76 56.12 118.87 58.31 121.36 59.52 C 123.01 59.61 124.77 58.99 126.31 58.45 C 124.67 60.59 123.19 62.90 121.72 65.15 C 120.17 62.75 118.59 60.36 117.09 57.92 C 116.33 56.68 115.58 55.43 114.80 54.21 Z" fill="#e9e5e0" />
<path d="M 37.78 114.03 C 40.81 118.80 44.30 123.73 48.76 127.26 C 53.06 130.66 58.47 131.72 63.84 131.72 C 65.78 131.68 67.70 131.56 69.61 131.25 C 70.23 132.98 70.85 134.71 71.51 136.42 C 65.44 135.03 58.93 134.92 53.05 132.91 C 45.43 129.36 40.25 121.90 37.78 114.03 Z" fill="#c9c6c2" />
<path d="M 78.46 127.47 C 79.35 132.05 80.45 136.45 82.18 140.79 C 83.96 145.21 84.21 149.85 83.92 154.57 C 80.30 155.50 77.19 156.77 74.03 158.77 C 74.24 150.95 75.01 143.72 71.51 136.42 C 70.85 134.71 70.23 132.98 69.61 131.25 C 72.66 130.13 75.48 128.72 78.46 127.47 Z" fill="#c28960" />
<path d="M 139.42 127.84 C 143.93 128.33 147.19 132.46 147.21 136.92 C 147.45 143.79 147.05 150.64 147.66 157.51 C 151.11 156.22 155.04 154.56 158.75 154.51 C 162.32 154.58 166.05 156.46 169.29 157.84 C 169.60 164.19 171.01 170.53 172.07 176.79 C 163.11 176.63 154.16 176.93 145.20 176.60 C 146.16 169.21 147.18 161.89 147.04 154.42 C 144.70 155.19 142.15 155.81 140.01 157.05 C 138.51 158.16 137.80 160.42 137.15 162.10 C 137.62 153.65 137.24 145.16 137.51 136.69 C 136.76 134.16 135.68 131.11 133.29 129.67 C 131.14 128.90 128.53 129.14 126.28 129.20 C 121.18 129.55 116.09 129.82 110.98 129.74 C 115.64 128.76 120.26 128.17 125.02 128.09 C 129.78 128.02 134.69 127.36 139.42 127.84 Z" fill="#c1875d" />
<path d="M 126.28 129.20 C 128.53 129.14 131.14 128.90 133.29 129.67 C 135.68 131.11 136.76 134.16 137.51 136.69 C 134.81 134.71 132.44 132.49 128.93 132.22 C 124.67 131.84 120.23 131.98 116.06 132.95 C 112.68 133.74 110.60 136.06 108.52 138.65 C 109.65 135.75 110.33 132.77 110.98 129.74 C 116.09 129.82 121.18 129.55 126.28 129.20 Z" fill="#cccccc" />
<path d="M 101.21 155.74 C 104.64 156.95 105.16 159.96 106.01 163.08 C 106.67 167.72 107.38 172.34 108.38 176.92 C 99.27 176.47 90.20 177.15 81.09 176.36 C 82.07 170.19 83.16 164.00 83.70 157.78 C 89.54 155.19 94.91 153.10 101.21 155.74 Z" fill="#c1875d" />
<path d="M 83.92 154.57 C 83.86 155.64 83.78 156.71 83.70 157.78 C 83.16 164.00 82.07 170.19 81.09 176.36 C 90.20 177.15 99.27 176.47 108.38 176.92 L 107.06 177.63 C 95.90 177.43 84.66 177.14 73.53 177.91 L 72.15 177.22 C 72.58 171.05 73.74 164.94 74.03 158.77 C 77.19 156.77 80.30 155.50 83.92 154.57 Z" fill="#88664d" />
<path d="M 147.04 154.42 C 147.18 161.89 146.16 169.21 145.20 176.60 C 154.16 176.93 163.11 176.63 172.07 176.79 C 171.50 177.13 170.94 177.47 170.38 177.82 C 159.26 177.14 147.86 177.31 136.73 177.80 L 135.63 176.68 C 136.05 171.81 136.82 166.99 137.15 162.10 C 137.80 160.42 138.51 158.16 140.01 157.05 C 142.15 155.81 144.70 155.19 147.04 154.42 Z" fill="#88654b" />
<path d="M 73.53 177.91 C 84.66 177.14 95.90 177.43 107.06 177.63 C 103.15 180.20 100.80 180.90 96.05 180.77 C 88.06 180.37 80.42 182.28 73.53 177.91 Z" fill="#d2d2d2" />
<path d="M 136.73 177.80 C 147.86 177.31 159.26 177.14 170.38 177.82 C 164.88 181.94 159.40 180.53 153.00 180.77 C 147.13 180.50 141.61 181.77 136.73 177.80 Z" fill="#d2d2d2" /></svg>