<?xml version="1.0" encoding="UTF-8" standalone="no"?>
<!DOCTYPE svg PUBLIC "-//W3C//DTD SVG 1.1//EN" "http://www.w3.org/Graphics/SVG/1.1/DTD/svg11.dtd">
<svg viewBox="0 0 192 192" height="192.0pt" width="192.0pt" xmlns="http://www.w3.org/2000/svg" version="1.1">
<path d="M 89.34 28.41 C 103.46 27.14 119.38 28.16 129.19 39.84 C 127.41 39.11 125.75 38.17 124.03 37.34 C 122.75 39.79 121.94 42.51 120.94 45.08 C 113.65 39.12 102.81 37.33 93.96 39.97 C 84.79 45.43 88.86 58.08 88.04 67.00 C 89.09 78.24 81.81 87.31 84.97 97.76 C 82.69 99.24 80.64 101.05 78.39 102.56 C 77.30 101.11 76.31 99.58 75.22 98.12 C 75.28 99.92 75.41 101.71 75.46 103.52 C 73.99 104.21 72.52 104.93 71.09 105.70 C 63.08 106.98 57.96 105.37 52.23 99.79 C 48.36 95.70 41.89 99.32 42.93 105.02 C 42.60 109.64 43.26 113.91 46.88 117.11 C 50.58 120.53 52.90 118.72 56.41 116.44 C 60.29 114.76 62.84 117.48 65.27 120.07 C 66.98 121.95 68.30 122.17 70.78 121.90 C 71.18 118.31 71.02 114.62 71.00 111.00 C 71.02 109.23 71.06 107.47 71.09 105.70 C 74.04 111.63 68.73 122.32 75.44 125.34 C 75.66 127.19 75.69 129.02 75.61 130.88 C 74.05 132.66 72.42 134.41 71.02 136.32 C 73.03 143.92 71.49 152.31 72.12 160.16 C 72.02 162.52 71.93 164.89 71.85 167.25 C 69.93 161.11 71.50 153.52 71.00 147.05 C 71.01 144.41 71.07 141.67 70.79 139.04 C 67.90 138.88 65.23 141.46 62.60 142.54 C 52.63 146.85 39.75 145.79 31.24 138.77 C 23.17 133.34 18.32 123.71 15.11 114.81 C 11.61 99.94 17.65 86.82 23.65 73.66 C 30.12 58.43 37.37 43.95 49.10 32.01 C 60.83 26.10 77.14 21.48 89.34 28.41 Z" fill="#a1aeb3" />
<path d="M 49.10 32.01 C 37.37 43.95 30.12 58.43 23.65 73.66 C 17.65 86.82 11.61 99.94 15.11 114.81 C 15.98 126.03 25.37 139.41 35.40 144.58 C 45.05 149.74 55.63 148.64 65.41 144.47 C 68.53 143.13 69.26 144.98 71.00 147.05 C 71.50 153.52 69.93 161.11 71.85 167.25 L 72.88 168.23 C 75.89 171.32 80.03 171.00 84.00 171.04 C 91.01 170.91 98.02 171.10 105.03 171.00 C 109.80 170.98 113.05 168.18 117.83 169.25 C 128.24 172.43 140.09 170.46 151.00 171.01 C 156.47 170.73 164.56 172.46 168.16 167.19 C 170.30 161.97 167.75 155.26 169.83 149.85 C 172.06 143.66 178.89 136.67 177.88 129.84 C 175.52 118.19 176.11 106.97 171.81 95.64 C 171.09 79.27 165.57 65.66 152.95 54.95 C 160.61 57.65 165.88 66.59 169.55 73.39 C 174.53 83.33 174.23 93.52 177.01 104.00 C 179.49 112.43 179.61 121.20 180.92 130.02 C 181.50 139.73 170.72 146.84 171.99 155.99 C 171.99 160.79 171.93 167.11 169.24 171.24 C 166.23 173.38 161.62 173.64 158.02 173.98 C 144.29 173.93 130.66 174.54 117.00 172.93 C 102.70 173.53 86.65 175.81 72.64 172.31 C 64.13 169.34 70.67 153.14 66.69 148.19 C 58.95 148.69 52.07 152.60 43.80 150.35 C 30.58 148.14 21.73 138.65 15.63 127.35 C 8.72 113.67 10.28 98.76 16.03 85.01 C 22.29 70.52 28.73 54.92 38.27 42.26 C 41.10 38.57 44.52 33.56 49.10 32.01 Z" fill="#eaeaea" />
<path d="M 124.03 37.34 C 125.75 38.17 127.41 39.11 129.19 39.84 C 131.97 40.98 133.29 43.18 134.77 45.63 C 134.32 49.51 137.35 53.24 137.88 57.15 C 140.35 69.29 139.66 84.09 132.85 94.83 C 122.19 110.78 97.82 114.98 81.02 107.10 C 84.97 113.35 95.06 114.90 101.82 114.71 C 113.20 114.03 125.58 110.08 133.17 101.18 C 143.89 87.11 144.46 65.54 137.34 49.79 C 142.82 51.00 148.05 52.03 152.95 54.95 C 165.57 65.66 171.09 79.27 171.81 95.64 C 170.72 102.65 170.69 109.33 168.30 116.16 C 167.79 125.89 167.69 136.41 168.46 146.12 C 167.63 153.07 168.02 160.21 168.16 167.19 C 166.14 167.55 164.13 167.88 162.08 167.95 L 162.01 165.98 C 161.79 160.25 160.93 153.41 153.39 154.47 C 145.76 156.00 133.11 150.58 130.07 160.12 C 130.04 158.42 129.99 156.73 129.95 155.03 C 129.92 150.51 130.35 145.84 129.71 141.35 C 126.56 140.46 123.30 139.90 120.07 139.46 C 118.32 139.20 117.88 139.18 116.58 140.48 C 115.13 141.29 114.04 141.02 114.09 143.05 C 113.60 150.90 114.52 158.90 113.73 166.72 C 112.22 167.56 110.82 167.97 109.08 167.98 C 108.71 167.31 108.35 166.63 107.99 165.96 C 108.19 160.58 107.23 153.58 100.19 154.33 C 92.25 156.02 82.55 151.26 77.05 158.07 C 76.97 141.71 76.98 125.34 77.05 108.97 C 76.94 107.18 77.23 105.57 75.91 104.15 L 75.46 103.52 C 75.41 101.71 75.28 99.92 75.22 98.12 C 76.31 99.58 77.30 101.11 78.39 102.56 C 80.64 101.05 82.69 99.24 84.97 97.76 C 91.05 104.81 102.94 104.06 111.14 102.14 C 121.87 98.63 128.59 91.51 130.34 80.20 C 132.35 67.55 130.76 54.21 120.94 45.08 C 121.94 42.51 122.75 39.79 124.03 37.34 Z" fill="#9dabb0" />
<path d="M 120.94 45.08 C 130.76 54.21 132.35 67.55 130.34 80.20 C 128.59 91.51 121.87 98.63 111.14 102.14 C 102.94 104.06 91.05 104.81 84.97 97.76 C 81.81 87.31 89.09 78.24 88.04 67.00 C 88.86 58.08 84.79 45.43 93.96 39.97 C 102.81 37.33 113.65 39.12 120.94 45.08 Z" fill="#fec6d4" />
<path d="M 134.77 45.63 C 135.67 46.99 136.53 48.37 137.34 49.79 C 144.46 65.54 143.89 87.11 133.17 101.18 C 125.58 110.08 113.20 114.03 101.82 114.71 C 95.06 114.90 84.97 113.35 81.02 107.10 C 97.82 114.98 122.19 110.78 132.85 94.83 C 139.66 84.09 140.35 69.29 137.88 57.15 C 137.35 53.24 134.32 49.51 134.77 45.63 Z" fill="#85939a" />
<path d="M 67.30 61.70 C 69.05 63.62 72.39 68.67 67.14 67.92 C 64.07 62.22 60.81 60.03 54.11 61.12 C 47.33 64.70 46.10 71.14 50.89 77.25 C 50.28 77.94 49.64 78.58 48.96 79.18 C 43.57 74.72 43.17 64.40 49.23 60.24 C 54.99 55.53 62.32 56.36 67.30 61.70 Z" fill="#50aedc" />
<path d="M 54.11 61.12 C 60.81 60.03 64.07 62.22 67.14 67.92 C 60.56 68.66 55.07 72.26 50.89 77.25 C 46.10 71.14 47.33 64.70 54.11 61.12 Z" fill="#4a5155" />
<path d="M 171.81 95.64 C 176.11 106.97 175.52 118.19 177.88 129.84 C 175.52 135.76 172.25 141.02 168.46 146.12 C 167.69 136.41 167.79 125.89 168.30 116.16 C 170.69 109.33 170.72 102.65 171.81 95.64 Z" fill="#6e7d81" />
<path d="M 52.23 99.79 C 57.96 105.37 63.08 106.98 71.09 105.70 C 71.06 107.47 71.02 109.23 71.00 111.00 C 66.37 107.10 60.33 108.19 55.41 104.56 C 50.11 101.23 47.44 98.94 42.93 105.02 C 41.89 99.32 48.36 95.70 52.23 99.79 Z" fill="#cbcccc" />
<path d="M 55.41 104.56 C 60.33 108.19 66.37 107.10 71.00 111.00 C 71.02 114.62 71.18 118.31 70.78 121.90 C 68.30 122.17 66.98 121.95 65.27 120.07 C 68.39 119.51 69.14 119.51 69.08 116.00 C 69.78 110.11 61.81 110.60 58.11 108.85 C 54.51 107.95 51.00 103.06 47.29 104.18 C 43.27 108.29 45.43 112.47 46.88 117.11 C 43.26 113.91 42.60 109.64 42.93 105.02 C 47.44 98.94 50.11 101.23 55.41 104.56 Z" fill="#e1e1e1" />
<path d="M 47.29 104.18 C 51.00 103.06 54.51 107.95 58.11 108.85 C 61.81 110.60 69.78 110.11 69.08 116.00 C 69.14 119.51 68.39 119.51 65.27 120.07 C 62.84 117.48 60.29 114.76 56.41 116.44 C 52.90 118.72 50.58 120.53 46.88 117.11 C 45.43 112.47 43.27 108.29 47.29 104.18 Z" fill="#f5f5f5" />
<path d="M 75.46 103.52 L 75.91 104.15 C 75.93 111.17 76.48 118.38 75.44 125.34 C 68.73 122.32 74.04 111.63 71.09 105.70 C 72.52 104.93 73.99 104.21 75.46 103.52 Z" fill="#718084" />
<path d="M 75.91 104.15 C 77.23 105.57 76.94 107.18 77.05 108.97 C 76.98 125.34 76.97 141.71 77.05 158.07 C 76.93 159.33 76.81 160.58 76.67 161.83 C 75.66 165.88 76.89 167.08 71.85 167.25 C 71.93 164.89 72.02 162.52 72.12 160.16 C 78.65 152.90 75.45 140.05 75.61 130.88 C 75.69 129.02 75.66 127.19 75.44 125.34 C 76.48 118.38 75.93 111.17 75.91 104.15 Z" fill="#87959b" />
<path d="M 15.11 114.81 C 18.32 123.71 23.17 133.34 31.24 138.77 C 39.75 145.79 52.63 146.85 62.60 142.54 C 65.23 141.46 67.90 138.88 70.79 139.04 C 71.07 141.67 71.01 144.41 71.00 147.05 C 69.26 144.98 68.53 143.13 65.41 144.47 C 55.63 148.64 45.05 149.74 35.40 144.58 C 25.37 139.41 15.98 126.03 15.11 114.81 Z" fill="#d2d2d2" />
<path d="M 177.88 129.84 C 178.89 136.67 172.06 143.66 169.83 149.85 C 167.75 155.26 170.30 161.97 168.16 167.19 C 168.02 160.21 167.63 153.07 168.46 146.12 C 172.25 141.02 175.52 135.76 177.88 129.84 Z" fill="#d6d6d6" />
<path d="M 75.61 130.88 C 75.45 140.05 78.65 152.90 72.12 160.16 C 71.49 152.31 73.03 143.92 71.02 136.32 C 72.42 134.41 74.05 132.66 75.61 130.88 Z" fill="#6e7e82" />
<path d="M 120.07 139.46 C 118.67 139.94 118.01 140.81 118.09 142.06 C 117.81 147.62 118.01 153.22 118.06 158.79 C 122.37 153.81 123.44 153.40 129.95 155.03 C 129.99 156.73 130.04 158.42 130.07 160.12 C 130.06 162.17 130.13 164.22 130.24 166.26 C 126.02 167.41 121.51 167.02 117.15 166.93 C 116.56 158.18 117.58 149.22 116.58 140.48 C 117.88 139.18 118.32 139.20 120.07 139.46 Z" fill="#7f8d94" />
<path d="M 120.07 139.46 C 123.30 139.90 126.56 140.46 129.71 141.35 C 130.35 145.84 129.92 150.51 129.95 155.03 C 123.44 153.40 122.37 153.81 118.06 158.79 C 118.01 153.22 117.81 147.62 118.09 142.06 C 118.01 140.81 118.67 139.94 120.07 139.46 Z" fill="#6b7b7f" />
<path d="M 116.58 140.48 C 117.58 149.22 116.56 158.18 117.15 166.93 L 117.26 167.79 C 132.15 168.26 147.16 167.93 162.08 167.95 C 164.13 167.88 166.14 167.55 168.16 167.19 C 164.56 172.46 156.47 170.73 151.00 171.01 C 140.09 170.46 128.24 172.43 117.83 169.25 C 113.05 168.18 109.80 170.98 105.03 171.00 C 98.02 171.10 91.01 170.91 84.00 171.04 C 80.03 171.00 75.89 171.32 72.88 168.23 C 84.93 167.70 97.02 168.18 109.08 167.98 C 110.82 167.97 112.22 167.56 113.73 166.72 C 114.52 158.90 113.60 150.90 114.09 143.05 C 114.04 141.02 115.13 141.29 116.58 140.48 Z" fill="#d2d2d2" />
<path d="M 100.19 154.33 C 107.23 153.58 108.19 160.58 107.99 165.96 C 98.34 165.97 88.68 166.10 79.04 165.95 C 76.14 166.35 77.28 163.74 76.67 161.83 C 76.81 160.58 76.93 159.33 77.05 158.07 C 82.55 151.26 92.25 156.02 100.19 154.33 Z" fill="#fdc4d2" />
<path d="M 153.39 154.47 C 160.93 153.41 161.79 160.25 162.01 165.98 C 151.43 166.18 140.79 165.66 130.24 166.26 C 130.13 164.22 130.06 162.17 130.07 160.12 C 133.11 150.58 145.76 156.00 153.39 154.47 Z" fill="#fdc4d2" />
<path d="M 76.67 161.83 C 77.28 163.74 76.14 166.35 79.04 165.95 C 88.68 166.10 98.34 165.97 107.99 165.96 C 108.35 166.63 108.71 167.31 109.08 167.98 C 97.02 168.18 84.93 167.70 72.88 168.23 L 71.85 167.25 C 76.89 167.08 75.66 165.88 76.67 161.83 Z" fill="#cdb1b8" />
<path d="M 130.24 166.26 C 140.79 165.66 151.43 166.18 162.01 165.98 L 162.08 167.95 C 147.16 167.93 132.15 168.26 117.26 167.79 L 117.15 166.93 C 121.51 167.02 126.02 167.41 130.24 166.26 Z" fill="#cbb1b8" /></svg>