<?xml version="1.0" encoding="UTF-8" standalone="no"?>
<!DOCTYPE svg PUBLIC "-//W3C//DTD SVG 1.1//EN" "http://www.w3.org/Graphics/SVG/1.1/DTD/svg11.dtd">
<svg viewBox="0 0 192 192" height="192.0pt" width="192.0pt" xmlns="http://www.w3.org/2000/svg" version="1.1">
<path d="M 75.31 14.81 C 81.13 16.22 87.46 18.09 92.38 21.61 C 97.09 24.75 100.49 29.24 102.96 34.28 C 103.24 35.46 103.48 36.64 103.72 37.83 C 100.09 39.61 96.08 41.31 93.14 44.14 C 89.52 47.66 86.80 52.02 85.99 57.07 C 85.35 61.08 84.95 65.10 83.93 69.04 C 78.03 59.78 76.84 50.03 69.35 42.64 C 65.63 38.54 59.61 37.20 54.53 35.16 C 58.05 32.37 61.82 30.08 65.84 28.09 C 64.09 26.86 62.38 25.57 60.75 24.18 C 66.35 22.62 72.06 22.02 77.83 21.59 C 76.96 19.35 76.04 17.10 75.31 14.81 Z" fill="#c28296" />
<path d="M 31.00 32.20 C 38.93 32.07 46.90 33.01 54.53 35.16 C 59.61 37.20 65.63 38.54 69.35 42.64 C 76.84 50.03 78.03 59.78 83.93 69.04 C 84.95 65.10 85.35 61.08 85.99 57.07 C 86.80 52.02 89.52 47.66 93.14 44.14 C 96.08 41.31 100.09 39.61 103.72 37.83 C 103.48 36.64 103.24 35.46 102.96 34.28 C 105.29 34.85 107.36 35.56 109.76 34.83 C 115.09 33.46 120.44 32.47 125.96 32.33 C 132.98 32.17 140.09 31.80 146.80 34.06 C 147.05 35.59 147.29 37.11 147.52 38.63 C 146.32 51.46 149.17 63.08 141.82 74.79 C 140.89 75.32 139.95 75.84 139.02 76.36 C 139.47 82.03 140.88 87.30 140.74 93.00 C 140.66 101.65 139.09 111.13 134.66 118.68 C 131.24 124.56 125.96 129.01 119.72 131.70 C 108.66 136.86 97.07 138.06 85.00 138.19 C 71.60 138.29 58.14 137.83 45.69 132.33 C 40.82 130.42 37.00 127.23 32.86 124.14 C 32.83 125.14 32.82 126.14 32.82 127.14 C 31.88 121.77 28.56 118.24 26.69 113.28 C 24.02 106.42 23.34 98.62 23.50 91.31 C 23.54 86.92 24.74 82.60 24.71 78.24 C 22.79 74.68 19.85 72.26 18.88 68.11 C 15.92 57.04 17.12 44.25 17.82 32.94 C 22.00 31.94 26.65 32.32 31.00 32.20 Z" fill="#fc9bb5" />
<path d="M 17.82 32.94 C 17.12 44.25 15.92 57.04 18.88 68.11 C 19.85 72.26 22.79 74.68 24.71 78.24 C 24.74 82.60 23.54 86.92 23.50 91.31 C 23.34 98.62 24.02 106.42 26.69 113.28 C 28.56 118.24 31.88 121.77 32.82 127.14 C 33.13 132.53 34.46 137.43 36.57 142.38 C 38.04 145.75 38.12 149.23 37.79 152.84 C 37.05 161.16 37.56 169.57 37.38 177.92 C 42.72 178.71 47.46 177.35 52.36 175.39 C 52.44 176.29 52.52 177.18 52.59 178.08 C 58.49 178.42 65.44 177.18 69.31 172.28 C 73.16 167.57 73.59 162.07 74.47 156.28 C 78.51 156.03 82.50 156.02 86.54 156.27 C 87.63 161.45 88.19 168.09 91.78 172.21 C 95.94 176.91 102.52 178.33 108.56 178.17 C 108.56 177.22 108.55 176.27 108.54 175.31 C 113.49 177.36 118.28 178.70 123.70 177.96 C 123.91 172.93 123.02 167.30 124.48 162.46 C 126.59 161.17 130.32 161.99 132.80 161.78 C 132.94 159.24 133.10 156.71 133.18 154.18 C 134.71 153.91 136.22 153.60 137.72 153.23 C 137.90 156.56 138.54 159.66 140.66 162.33 C 143.91 166.61 149.28 167.90 154.41 167.97 C 155.45 167.29 155.97 166.38 157.33 166.81 C 160.83 167.62 164.16 168.16 167.77 167.95 C 167.97 160.95 167.80 153.96 167.87 146.96 C 167.97 140.05 167.49 133.49 168.63 126.63 C 170.57 115.11 169.97 103.29 165.72 92.33 C 169.86 89.72 174.19 87.22 174.92 81.89 C 175.57 78.10 173.03 75.31 171.26 72.22 C 171.96 70.48 172.62 68.72 173.30 66.96 C 171.52 66.89 169.74 66.81 167.96 66.86 C 169.77 66.44 171.60 66.32 173.44 66.22 C 174.56 71.35 176.25 76.33 177.41 81.44 C 178.22 84.94 176.98 88.16 174.82 90.88 C 173.13 93.43 170.15 95.58 170.72 98.97 C 171.23 104.69 172.85 110.16 172.76 115.97 C 173.02 123.80 170.85 131.20 170.74 138.99 C 170.63 147.66 170.91 156.34 170.73 165.01 C 170.81 168.30 168.63 172.63 164.94 172.70 C 159.76 172.94 154.38 173.00 149.22 172.54 C 143.49 171.88 140.13 168.18 135.95 164.70 C 133.21 165.66 129.74 166.59 127.65 168.68 C 126.01 172.06 127.32 178.32 124.42 181.41 C 121.16 184.35 116.95 182.99 113.03 182.89 C 108.17 182.44 102.46 183.61 97.88 181.97 C 92.51 179.84 88.00 175.44 86.32 169.83 C 85.04 166.92 84.76 162.45 80.88 161.91 C 78.28 161.39 76.71 165.11 76.02 167.07 C 74.15 172.66 72.15 177.67 66.67 180.62 C 60.48 184.33 54.71 182.37 47.95 182.89 C 44.81 182.94 40.65 183.94 37.87 182.13 C 35.34 180.59 34.77 177.49 34.47 174.78 C 33.92 167.79 34.37 160.92 34.87 153.95 C 35.16 148.95 33.16 145.01 31.89 140.31 C 30.85 136.71 30.49 133.02 29.64 129.38 C 28.59 124.87 26.00 121.31 24.21 116.94 C 21.78 111.20 21.10 104.50 20.65 98.33 C 20.23 92.91 21.91 87.35 21.12 82.04 C 20.16 78.38 17.59 75.28 16.45 71.63 C 13.65 63.16 14.21 53.84 14.27 44.97 C 14.32 40.48 15.40 36.72 17.82 32.94 Z" fill="#e1e1e1" />
<path d="M 49.10 40.92 C 45.29 44.89 41.24 48.49 37.92 52.92 C 34.32 57.36 31.82 62.36 28.70 67.11 C 27.10 64.19 26.15 61.38 25.95 58.03 C 25.56 51.95 25.37 45.61 26.59 39.61 C 34.06 39.04 41.78 39.24 49.10 40.92 Z" fill="#ffd9e6" />
<path d="M 147.52 38.63 C 149.02 44.79 148.33 50.54 148.40 57.03 C 148.42 63.52 145.83 69.29 146.62 75.85 C 145.02 75.50 143.43 75.11 141.82 74.79 C 149.17 63.08 146.32 51.46 147.52 38.63 Z" fill="#dbd4d6" />
<path d="M 138.91 41.35 C 139.78 47.81 139.57 54.42 138.86 60.89 C 138.58 63.60 137.46 65.95 136.14 68.29 C 133.18 63.69 130.92 58.80 127.54 54.46 C 124.32 49.92 120.29 46.18 116.73 41.93 C 124.01 40.17 131.51 40.87 138.91 41.35 Z" fill="#ffd8e4" />
<path d="M 167.96 66.86 C 169.74 66.81 171.52 66.89 173.30 66.96 C 172.62 68.72 171.96 70.48 171.26 72.22 C 173.03 75.31 175.57 78.10 174.92 81.89 C 174.19 87.22 169.86 89.72 165.72 92.33 C 163.92 89.24 161.83 86.24 159.32 83.68 C 156.02 80.35 151.60 78.04 147.42 76.02 C 151.34 73.96 154.72 70.72 159.02 70.00 C 162.20 69.42 164.99 68.04 167.96 66.86 Z" fill="#a5647b" />
<path d="M 46.38 68.30 C 51.65 66.47 55.71 71.24 57.23 75.74 C 59.04 81.75 58.72 89.57 54.71 94.69 C 52.42 97.61 48.43 98.92 45.08 96.93 C 40.88 94.60 39.06 88.50 38.85 84.02 C 38.48 78.22 40.59 70.80 46.38 68.30 Z" fill="#52453b" />
<path d="M 112.44 68.40 C 115.57 67.08 119.46 67.64 121.70 70.34 C 124.91 74.18 125.39 79.22 125.22 84.04 C 125.07 88.06 124.10 92.22 121.30 95.26 C 118.11 98.45 112.31 98.03 109.61 94.39 C 105.96 89.79 105.26 83.09 106.53 77.51 C 107.41 74.09 109.09 70.05 112.44 68.40 Z" fill="#4e4136" />
<path d="M 141.82 74.79 C 143.43 75.11 145.02 75.50 146.62 75.85 L 147.42 76.02 C 151.60 78.04 156.02 80.35 159.32 83.68 C 161.83 86.24 163.92 89.24 165.72 92.33 C 169.97 103.29 170.57 115.11 168.63 126.63 C 167.49 133.49 167.97 140.05 167.87 146.96 C 162.78 146.98 156.93 146.04 152.29 148.31 C 147.58 150.47 142.76 152.02 137.72 153.23 C 136.22 153.60 134.71 153.91 133.18 154.18 C 130.28 154.56 127.49 155.07 124.61 154.28 C 122.10 153.63 119.66 152.99 117.04 153.06 C 109.01 153.17 100.98 153.17 92.95 153.07 C 88.28 152.81 84.69 155.79 79.98 155.39 C 76.01 155.48 72.94 153.15 69.07 153.11 C 58.66 153.02 48.18 153.53 37.79 152.84 C 38.12 149.23 38.04 145.75 36.57 142.38 C 34.46 137.43 33.13 132.53 32.82 127.14 C 32.82 126.14 32.83 125.14 32.86 124.14 C 37.00 127.23 40.82 130.42 45.69 132.33 C 58.14 137.83 71.60 138.29 85.00 138.19 C 97.07 138.06 108.66 136.86 119.72 131.70 C 125.96 129.01 131.24 124.56 134.66 118.68 C 139.09 111.13 140.66 101.65 140.74 93.00 C 140.88 87.30 139.47 82.03 139.02 76.36 C 139.95 75.84 140.89 75.32 141.82 74.79 Z" fill="#ea84a4" />
<path d="M 93.07 86.96 C 99.92 88.86 106.95 93.13 110.59 99.41 C 114.06 105.17 114.71 112.41 113.95 118.96 C 113.35 124.15 109.34 128.78 104.43 130.44 C 97.70 133.10 89.20 131.83 82.00 132.03 C 74.53 131.95 66.77 132.95 59.62 130.33 C 55.23 128.80 51.62 125.12 50.53 120.56 C 49.74 117.12 49.74 113.46 49.99 109.96 C 50.52 102.64 54.60 95.74 60.76 91.76 C 70.05 85.35 82.32 84.21 93.07 86.96 Z" fill="#ffd8e4" />
<path d="M 65.48 95.47 C 69.11 93.78 73.68 94.57 76.03 97.97 C 80.56 104.64 81.05 113.33 77.56 120.58 C 75.79 124.30 72.68 127.53 68.20 126.84 C 62.66 125.70 59.30 119.28 58.95 114.03 C 58.20 107.53 59.41 99.18 65.48 95.47 Z" fill="#c17f93" />
<path d="M 91.38 95.35 C 94.82 93.88 99.08 94.51 101.49 97.52 C 105.08 101.78 105.87 107.82 105.40 113.20 C 105.03 117.73 103.27 122.68 99.56 125.53 C 96.64 127.70 92.77 127.24 90.10 124.89 C 85.64 121.09 83.96 114.08 84.46 108.44 C 85.03 103.89 86.93 97.55 91.38 95.35 Z" fill="#c07e93" />
<path d="M 167.87 146.96 C 167.80 153.96 167.97 160.95 167.77 167.95 C 164.16 168.16 160.83 167.62 157.33 166.81 C 155.97 166.38 155.45 167.29 154.41 167.97 C 149.28 167.90 143.91 166.61 140.66 162.33 C 138.54 159.66 137.90 156.56 137.72 153.23 C 142.76 152.02 147.58 150.47 152.29 148.31 C 156.93 146.04 162.78 146.98 167.87 146.96 Z" fill="#a5627a" />
<path d="M 37.79 152.84 C 48.18 153.53 58.66 153.02 69.07 153.11 C 72.94 153.15 76.01 155.48 79.98 155.39 C 84.69 155.79 88.28 152.81 92.95 153.07 C 100.98 153.17 109.01 153.17 117.04 153.06 C 119.66 152.99 122.10 153.63 124.61 154.28 C 127.49 155.07 130.28 154.56 133.18 154.18 C 133.10 156.71 132.94 159.24 132.80 161.78 C 130.32 161.99 126.59 161.17 124.48 162.46 C 123.02 167.30 123.91 172.93 123.70 177.96 C 118.28 178.70 113.49 177.36 108.54 175.31 C 108.55 176.27 108.56 177.22 108.56 178.17 C 102.52 178.33 95.94 176.91 91.78 172.21 C 88.19 168.09 87.63 161.45 86.54 156.27 C 82.50 156.02 78.51 156.03 74.47 156.28 C 73.59 162.07 73.16 167.57 69.31 172.28 C 65.44 177.18 58.49 178.42 52.59 178.08 C 52.52 177.18 52.44 176.29 52.36 175.39 C 47.46 177.35 42.72 178.71 37.38 177.92 C 37.56 169.57 37.05 161.16 37.79 152.84 Z" fill="#a5637b" /></svg>