<?xml version="1.0" encoding="UTF-8" standalone="no"?>
<!DOCTYPE svg PUBLIC "-//W3C//DTD SVG 1.1//EN" "http://www.w3.org/Graphics/SVG/1.1/DTD/svg11.dtd">
<svg viewBox="0 0 192 192" height="192.0pt" width="192.0pt" xmlns="http://www.w3.org/2000/svg" version="1.1">
<path d="M 86.36 15.43 C 96.08 14.31 105.93 14.31 115.65 15.42 C 120.77 15.98 125.11 17.86 130.00 19.24 C 127.82 20.18 125.62 20.11 123.31 20.25 L 123.95 21.35 C 124.23 22.05 124.56 22.71 124.95 23.35 C 126.31 25.94 128.50 27.36 130.75 29.08 C 133.72 33.63 137.68 36.23 138.53 41.43 C 139.61 47.98 140.05 54.54 141.99 60.94 C 134.29 57.82 125.46 59.62 120.24 66.24 C 117.32 69.75 117.03 73.75 116.68 78.12 C 106.23 74.22 95.21 73.90 85.00 78.72 C 85.12 75.67 85.27 72.85 84.02 69.98 C 81.47 64.25 75.83 60.07 69.55 59.49 C 66.73 59.28 63.74 59.68 60.94 60.03 C 61.58 55.36 62.39 50.72 63.03 46.05 C 63.58 42.63 63.95 38.91 66.05 36.03 C 68.00 33.43 70.36 31.16 72.38 28.61 C 73.35 27.52 74.25 26.39 75.16 25.25 C 76.25 24.08 77.36 22.93 78.43 21.74 L 79.28 20.79 C 76.84 20.25 74.49 19.95 72.11 19.12 C 77.04 18.06 81.30 15.96 86.36 15.43 Z" fill="#f5d3af" />
<path d="M 65.14 17.34 C 67.77 17.03 69.70 18.32 72.11 19.12 C 74.49 19.95 76.84 20.25 79.28 20.79 L 78.43 21.74 C 77.33 21.20 76.23 20.92 75.13 20.90 C 75.11 22.35 75.12 23.80 75.16 25.25 C 74.25 26.39 73.35 27.52 72.38 28.61 C 70.88 28.94 69.57 29.27 68.41 30.36 C 65.65 32.76 62.29 35.69 61.47 39.40 C 60.03 44.87 60.25 50.33 58.77 55.80 C 58.18 57.99 57.84 60.10 57.71 62.37 C 55.33 64.42 52.91 65.84 52.16 69.13 C 51.31 71.47 51.23 74.63 49.20 76.20 C 48.36 77.28 46.18 78.28 46.70 79.85 C 44.68 79.18 42.71 78.18 40.83 77.19 C 36.06 70.50 32.13 63.29 29.49 55.50 C 27.36 49.16 27.46 42.42 28.83 35.93 C 31.26 33.13 34.01 30.08 37.27 28.25 C 42.47 25.27 48.14 24.40 53.77 21.79 C 57.42 20.17 61.12 17.65 65.14 17.34 Z" fill="#9b7a5d" />
<path d="M 137.72 17.42 C 142.67 18.09 146.91 21.71 151.81 23.18 C 157.49 24.89 162.85 27.03 168.02 29.96 C 170.79 32.80 174.22 36.05 174.79 40.16 C 176.04 47.53 173.12 55.50 170.24 62.20 C 167.91 67.90 164.64 72.99 161.06 77.97 C 159.22 78.60 157.36 79.37 155.44 79.70 C 155.21 78.04 154.05 77.17 153.10 75.90 C 151.38 73.94 150.92 71.48 149.90 69.08 C 149.06 66.76 147.51 65.00 145.87 63.22 C 144.39 58.42 143.05 53.65 142.39 48.66 C 141.83 44.84 141.53 40.53 140.01 36.96 C 138.05 33.17 134.69 30.60 130.75 29.08 C 128.50 27.36 126.31 25.94 124.95 23.35 C 126.36 23.15 127.29 22.59 127.75 21.68 C 127.55 19.86 124.95 20.88 123.95 21.35 L 123.31 20.25 C 125.62 20.11 127.82 20.18 130.00 19.24 C 132.67 18.29 134.77 16.95 137.72 17.42 Z" fill="#967354" />
<path d="M 75.13 20.90 C 76.23 20.92 77.33 21.20 78.43 21.74 C 77.36 22.93 76.25 24.08 75.16 25.25 C 75.12 23.80 75.11 22.35 75.13 20.90 Z" fill="#5c4b3a" />
<path d="M 123.95 21.35 C 124.95 20.88 127.55 19.86 127.75 21.68 C 127.29 22.59 126.36 23.15 124.95 23.35 C 124.56 22.71 124.23 22.05 123.95 21.35 Z" fill="#5c4a38" />
<path d="M 72.38 28.61 C 70.36 31.16 68.00 33.43 66.05 36.03 C 63.95 38.91 63.58 42.63 63.03 46.05 C 62.39 50.72 61.58 55.36 60.94 60.03 C 59.87 60.82 58.79 61.60 57.71 62.37 C 57.84 60.10 58.18 57.99 58.77 55.80 C 60.25 50.33 60.03 44.87 61.47 39.40 C 62.29 35.69 65.65 32.76 68.41 30.36 C 69.57 29.27 70.88 28.94 72.38 28.61 Z" fill="#4d3e30" />
<path d="M 130.75 29.08 C 134.69 30.60 138.05 33.17 140.01 36.96 C 141.53 40.53 141.83 44.84 142.39 48.66 C 143.05 53.65 144.39 58.42 145.87 63.22 C 144.58 62.46 143.28 61.71 141.99 60.94 C 140.05 54.54 139.61 47.98 138.53 41.43 C 137.68 36.23 133.72 33.63 130.75 29.08 Z" fill="#473729" />
<path d="M 168.02 29.96 C 173.75 32.55 177.88 38.67 178.10 44.96 C 178.65 52.63 175.52 60.64 172.54 67.59 C 169.75 74.29 165.00 78.43 164.76 86.00 C 164.22 95.59 162.61 104.37 159.33 113.41 C 157.22 119.14 159.83 123.65 160.52 129.38 C 161.74 137.62 159.77 145.24 156.83 152.87 C 155.39 156.45 153.56 160.04 150.57 162.57 C 147.42 165.24 143.21 166.50 140.06 169.06 C 137.34 171.68 135.91 175.45 133.01 178.02 C 128.45 182.24 122.03 183.62 115.99 183.82 C 110.83 184.04 106.07 182.20 101.00 182.06 C 96.26 182.19 91.84 184.03 87.00 183.83 C 81.31 183.67 74.82 182.34 70.25 178.75 C 66.82 176.09 65.43 172.40 62.67 169.33 C 59.57 166.66 55.21 165.65 52.02 162.99 C 48.66 160.32 47.33 156.37 44.54 153.46 C 42.66 152.18 40.26 151.57 38.15 150.75 C 31.82 148.54 25.94 144.48 22.01 138.99 C 17.85 133.32 15.98 125.96 14.79 119.13 C 14.02 113.58 13.08 108.49 16.69 103.68 C 17.10 110.16 17.87 116.46 19.05 122.84 C 19.66 129.09 22.47 134.80 26.41 139.62 C 31.02 144.89 36.95 147.29 43.38 149.60 C 48.43 151.28 49.63 156.25 53.16 159.83 C 56.46 163.34 61.36 164.36 64.78 167.22 C 67.96 170.63 69.26 174.84 73.49 177.46 C 80.45 181.54 88.92 181.37 96.56 179.57 C 103.25 177.85 108.40 180.88 115.00 180.80 C 120.80 180.77 127.11 179.64 131.36 175.36 C 134.38 172.49 136.00 167.59 139.64 165.66 C 143.80 163.23 147.88 161.96 150.75 157.79 C 154.11 152.70 156.30 146.87 156.88 140.79 C 158.84 131.80 157.33 123.37 154.04 114.92 C 158.65 106.19 160.48 96.78 161.33 87.02 C 161.55 83.97 161.27 81.01 161.06 77.97 C 164.64 72.99 167.91 67.90 170.24 62.20 C 173.12 55.50 176.04 47.53 174.79 40.16 C 174.22 36.05 170.79 32.80 168.02 29.96 Z" fill="#e7e7e7" />
<path d="M 28.83 35.93 C 27.46 42.42 27.36 49.16 29.49 55.50 C 32.13 63.29 36.06 70.50 40.83 77.19 C 41.60 88.06 43.33 99.47 47.46 109.61 C 48.15 111.38 48.38 112.75 48.09 114.64 C 46.45 119.19 45.29 123.84 44.09 128.52 C 42.04 127.47 40.00 126.47 38.07 125.19 C 39.38 124.94 41.17 125.05 42.22 124.19 C 45.23 120.07 45.57 114.84 43.86 110.11 C 41.24 102.65 39.80 94.93 38.77 87.11 C 38.35 83.62 37.54 80.28 35.77 77.21 C 30.93 68.55 26.01 60.04 25.19 49.91 C 24.96 44.81 25.05 39.80 28.83 35.93 Z" fill="#e3e3e3" />
<path d="M 69.55 59.49 C 75.83 60.07 81.47 64.25 84.02 69.98 C 85.27 72.85 85.12 75.67 85.00 78.72 C 78.55 82.72 74.54 88.19 69.07 93.37 C 63.18 93.66 55.12 91.01 53.03 84.90 C 56.43 87.87 60.21 90.03 64.86 89.92 C 68.38 89.59 72.07 88.15 74.56 85.57 C 78.21 81.84 78.88 75.69 77.06 70.96 C 74.73 65.99 69.59 62.47 63.99 62.86 C 58.92 62.63 55.24 65.43 52.16 69.13 C 52.91 65.84 55.33 64.42 57.71 62.37 C 58.79 61.60 59.87 60.82 60.94 60.03 C 63.74 59.68 66.73 59.28 69.55 59.49 Z" fill="#ffffff" />
<path d="M 141.99 60.94 C 143.28 61.71 144.58 62.46 145.87 63.22 C 147.51 65.00 149.06 66.76 149.90 69.08 C 147.78 66.44 145.19 64.06 141.81 63.24 C 137.56 62.49 132.98 62.64 129.50 65.50 C 124.60 69.23 122.74 76.04 125.31 81.69 C 127.61 86.99 133.16 90.10 138.85 89.91 C 142.53 89.56 145.43 87.78 148.44 85.80 C 146.18 91.20 138.50 93.73 133.07 93.23 C 127.66 87.97 123.07 82.30 116.68 78.12 C 117.03 73.75 117.32 69.75 120.24 66.24 C 125.46 59.62 134.29 57.82 141.99 60.94 Z" fill="#ffffff" />
<path d="M 63.99 62.86 C 69.59 62.47 74.73 65.99 77.06 70.96 C 78.88 75.69 78.21 81.84 74.56 85.57 C 72.07 88.15 68.38 89.59 64.86 89.92 C 60.21 90.03 56.43 87.87 53.03 84.90 C 52.25 83.13 51.60 81.26 50.72 79.53 C 49.38 79.59 48.05 79.77 46.70 79.85 C 46.18 78.28 48.36 77.28 49.20 76.20 C 51.23 74.63 51.31 71.47 52.16 69.13 C 55.24 65.43 58.92 62.63 63.99 62.86 Z" fill="#484d50" />
<path d="M 141.81 63.24 C 145.19 64.06 147.78 66.44 149.90 69.08 C 150.92 71.48 151.38 73.94 153.10 75.90 C 154.05 77.17 155.21 78.04 155.44 79.70 C 154.35 79.68 153.25 79.66 152.16 79.65 C 150.54 81.35 149.56 83.74 148.44 85.80 C 145.43 87.78 142.53 89.56 138.85 89.91 C 133.16 90.10 127.61 86.99 125.31 81.69 C 122.74 76.04 124.60 69.23 129.50 65.50 C 132.98 62.64 137.56 62.49 141.81 63.24 Z" fill="#42474b" />
<path d="M 116.68 78.12 C 123.07 82.30 127.66 87.97 133.07 93.23 C 136.60 97.10 141.20 100.66 143.76 105.25 C 146.35 111.28 145.30 118.80 140.35 123.35 C 135.43 128.29 128.19 128.46 122.06 125.81 C 119.88 123.67 117.57 121.69 115.24 119.72 C 113.55 118.03 111.88 116.31 110.17 114.64 C 107.27 111.76 104.50 108.11 101.04 105.94 C 97.64 108.36 94.91 111.82 91.96 114.76 C 90.38 116.38 88.91 118.07 87.41 119.75 C 85.14 121.76 82.85 123.74 80.71 125.89 C 75.75 127.53 70.89 128.40 65.97 126.01 C 58.06 122.26 54.54 111.74 59.15 104.14 C 61.83 100.12 65.78 96.91 69.07 93.37 C 74.54 88.19 78.55 82.72 85.00 78.72 C 95.21 73.90 106.23 74.22 116.68 78.12 Z" fill="#967455" />
<path d="M 40.83 77.19 C 42.71 78.18 44.68 79.18 46.70 79.85 C 48.05 79.77 49.38 79.59 50.72 79.53 C 51.60 81.26 52.25 83.13 53.03 84.90 C 55.12 91.01 63.18 93.66 69.07 93.37 C 65.78 96.91 61.83 100.12 59.15 104.14 C 54.54 111.74 58.06 122.26 65.97 126.01 C 70.89 128.40 75.75 127.53 80.71 125.89 C 85.11 130.16 88.90 134.39 95.21 135.69 C 100.02 136.48 105.34 136.56 110.00 135.00 C 115.06 133.21 118.15 129.24 122.06 125.81 C 128.19 128.46 135.43 128.29 140.35 123.35 C 145.30 118.80 146.35 111.28 143.76 105.25 C 141.20 100.66 136.60 97.10 133.07 93.23 C 138.50 93.73 146.18 91.20 148.44 85.80 C 149.56 83.74 150.54 81.35 152.16 79.65 C 153.25 79.66 154.35 79.68 155.44 79.70 C 157.36 79.37 159.22 78.60 161.06 77.97 C 161.27 81.01 161.55 83.97 161.33 87.02 C 160.48 96.78 158.65 106.19 154.04 114.92 C 152.33 117.55 150.64 120.23 148.69 122.69 C 146.65 125.28 144.12 126.82 141.53 128.76 C 129.76 135.75 117.95 142.00 104.23 144.14 C 98.28 144.70 93.34 142.02 87.60 141.62 C 84.63 139.57 81.34 138.40 78.09 136.92 C 71.29 133.71 64.83 129.92 58.51 125.84 C 55.72 123.03 53.23 120.19 51.24 116.74 C 50.29 115.63 49.87 113.82 48.09 114.64 C 48.38 112.75 48.15 111.38 47.46 109.61 C 43.33 99.47 41.60 88.06 40.83 77.19 Z" fill="#f5d2ad" />
<path d="M 102.03 76.90 C 106.65 77.01 112.34 77.79 115.75 81.24 C 117.81 83.06 117.37 86.73 119.27 88.50 C 124.10 91.86 127.52 97.01 131.59 101.26 C 130.28 103.57 128.21 105.50 126.09 107.07 C 124.96 108.13 123.49 106.96 122.12 106.82 C 120.33 107.70 118.80 109.09 117.05 110.08 C 114.59 108.39 112.22 106.13 110.42 103.74 C 111.71 101.70 113.63 100.11 114.98 98.08 C 114.31 97.38 113.59 96.75 112.82 96.19 C 109.04 96.91 105.15 99.97 101.00 99.98 C 96.96 99.96 93.60 97.45 89.90 96.31 C 88.84 96.25 87.90 97.49 87.18 98.14 C 88.26 100.37 90.93 101.66 92.35 103.71 C 90.18 106.01 87.54 108.26 84.89 109.98 C 83.43 109.23 82.12 108.22 80.66 107.48 C 78.87 107.19 76.90 107.87 75.53 106.49 C 73.72 105.00 72.07 103.19 70.95 101.12 C 74.30 96.85 78.27 92.96 82.12 89.15 C 84.81 86.58 84.19 82.42 87.31 80.30 C 91.30 77.28 97.21 76.84 102.03 76.90 Z" fill="#44494d" />
<path d="M 17.27 100.06 C 21.69 106.18 24.55 113.67 30.18 118.82 C 32.69 121.07 35.30 123.27 38.07 125.19 C 40.00 126.47 42.04 127.47 44.09 128.52 C 44.24 134.82 45.56 140.89 47.17 146.95 C 39.39 146.18 32.23 142.78 26.66 137.31 C 22.76 133.50 20.89 127.87 19.05 122.84 C 17.87 116.46 17.10 110.16 16.69 103.68 C 16.87 102.47 17.06 101.27 17.27 100.06 Z" fill="#977557" />
<path d="M 101.04 105.94 C 104.50 108.11 107.27 111.76 110.17 114.64 C 108.12 114.67 106.07 114.75 104.02 114.83 C 102.02 114.84 100.01 114.81 98.01 114.79 C 95.99 114.73 93.97 114.71 91.96 114.76 C 94.91 111.82 97.64 108.36 101.04 105.94 Z" fill="#473729" />
<path d="M 51.24 116.74 C 53.23 120.19 55.72 123.03 58.51 125.84 C 59.52 128.72 61.08 131.22 62.83 133.69 C 62.38 143.53 64.00 153.58 65.93 163.22 C 60.90 161.89 56.13 160.42 52.29 156.71 C 49.92 154.01 48.64 150.19 47.17 146.95 C 45.56 140.89 44.24 134.82 44.09 128.52 C 45.29 123.84 46.45 119.19 48.09 114.64 C 49.87 113.82 50.29 115.63 51.24 116.74 Z" fill="#eabd94" />
<path d="M 91.96 114.76 C 93.97 114.71 95.99 114.73 98.01 114.79 C 98.76 117.34 99.39 120.00 100.43 122.45 L 101.64 122.53 C 102.67 120.07 103.31 117.39 104.02 114.83 C 106.07 114.75 108.12 114.67 110.17 114.64 C 111.88 116.31 113.55 118.03 115.24 119.72 C 113.76 123.31 112.68 127.02 109.22 129.21 C 103.77 132.82 96.76 132.45 91.73 128.27 C 89.02 126.06 88.42 122.93 87.41 119.75 C 88.91 118.07 90.38 116.38 91.96 114.76 Z" fill="#f15d64" />
<path d="M 98.01 114.79 C 100.01 114.81 102.02 114.84 104.02 114.83 C 103.31 117.39 102.67 120.07 101.64 122.53 L 100.43 122.45 C 99.39 120.00 98.76 117.34 98.01 114.79 Z" fill="#bb494f" />
<path d="M 154.04 114.92 C 157.33 123.37 158.84 131.80 156.88 140.79 C 155.07 145.51 153.69 150.66 151.05 154.99 C 147.90 159.90 141.47 161.66 136.25 163.32 C 138.23 153.72 140.05 143.52 139.25 133.70 C 140.24 132.13 141.02 130.55 141.53 128.76 C 144.12 126.82 146.65 125.28 148.69 122.69 C 150.64 120.23 152.33 117.55 154.04 114.92 Z" fill="#eabc92" />
<path d="M 87.41 119.75 C 88.42 122.93 89.02 126.06 91.73 128.27 C 96.76 132.45 103.77 132.82 109.22 129.21 C 112.68 127.02 113.76 123.31 115.24 119.72 C 117.57 121.69 119.88 123.67 122.06 125.81 C 118.15 129.24 115.06 133.21 110.00 135.00 C 105.34 136.56 100.02 136.48 95.21 135.69 C 88.90 134.39 85.11 130.16 80.71 125.89 C 82.85 123.74 85.14 121.76 87.41 119.75 Z" fill="#7f664e" />
<path d="M 19.05 122.84 C 20.89 127.87 22.76 133.50 26.66 137.31 C 32.23 142.78 39.39 146.18 47.17 146.95 C 48.64 150.19 49.92 154.01 52.29 156.71 C 56.13 160.42 60.90 161.89 65.93 163.22 C 67.53 168.40 69.61 172.69 74.73 175.18 C 79.50 178.08 85.51 178.53 90.95 177.99 C 94.42 177.64 97.64 176.11 101.07 175.70 C 105.43 176.21 109.44 178.23 113.97 178.19 C 119.01 178.24 125.22 177.59 129.20 174.17 C 133.10 171.47 134.92 167.74 136.25 163.32 C 141.47 161.66 147.90 159.90 151.05 154.99 C 153.69 150.66 155.07 145.51 156.88 140.79 C 156.30 146.87 154.11 152.70 150.75 157.79 C 147.88 161.96 143.80 163.23 139.64 165.66 C 136.00 167.59 134.38 172.49 131.36 175.36 C 127.11 179.64 120.80 180.77 115.00 180.80 C 108.40 180.88 103.25 177.85 96.56 179.57 C 88.92 181.37 80.45 181.54 73.49 177.46 C 69.26 174.84 67.96 170.63 64.78 167.22 C 61.36 164.36 56.46 163.34 53.16 159.83 C 49.63 156.25 48.43 151.28 43.38 149.60 C 36.95 147.29 31.02 144.89 26.41 139.62 C 22.47 134.80 19.66 129.09 19.05 122.84 Z" fill="#d0d0d0" />
<path d="M 58.51 125.84 C 64.83 129.92 71.29 133.71 78.09 136.92 C 81.34 138.40 84.63 139.57 87.60 141.62 C 88.00 144.46 88.79 146.98 89.93 149.59 C 79.28 147.42 69.71 142.22 62.83 133.69 C 61.08 131.22 59.52 128.72 58.51 125.84 Z" fill="#42474b" />
<path d="M 141.53 128.76 C 141.02 130.55 140.24 132.13 139.25 133.70 C 134.01 139.33 128.30 144.19 121.05 147.02 C 115.89 149.16 110.58 150.06 105.08 150.77 C 102.29 150.78 99.51 150.81 96.73 151.01 C 99.42 148.92 101.84 146.55 104.23 144.14 C 117.95 142.00 129.76 135.75 141.53 128.76 Z" fill="#3f4448" />
<path d="M 62.83 133.69 C 69.71 142.22 79.28 147.42 89.93 149.59 C 92.22 150.60 94.20 151.11 96.73 151.01 C 96.55 157.66 96.74 164.27 101.01 169.77 C 105.22 164.40 105.53 157.29 105.08 150.77 C 110.58 150.06 115.89 149.16 121.05 147.02 C 128.30 144.19 134.01 139.33 139.25 133.70 C 140.05 143.52 138.23 153.72 136.25 163.32 C 134.92 167.74 133.10 171.47 129.20 174.17 C 124.02 175.39 118.43 177.20 113.14 176.72 C 109.71 176.53 106.67 175.44 103.39 174.60 C 100.17 173.44 96.42 175.63 93.14 176.16 C 86.59 177.73 81.20 175.81 74.73 175.18 C 69.61 172.69 67.53 168.40 65.93 163.22 C 64.00 153.58 62.38 143.53 62.83 133.69 Z" fill="#f5d1ac" />
<path d="M 104.23 144.14 C 101.84 146.55 99.42 148.92 96.73 151.01 C 94.20 151.11 92.22 150.60 89.93 149.59 C 88.79 146.98 88.00 144.46 87.60 141.62 C 93.34 142.02 98.28 144.70 104.23 144.14 Z" fill="#ffffff" />
<path d="M 96.73 151.01 C 99.51 150.81 102.29 150.78 105.08 150.77 C 105.53 157.29 105.22 164.40 101.01 169.77 C 96.74 164.27 96.55 157.66 96.73 151.01 Z" fill="#433324" />
<path d="M 103.39 174.60 C 106.67 175.44 109.71 176.53 113.14 176.72 C 118.43 177.20 124.02 175.39 129.20 174.17 C 125.22 177.59 119.01 178.24 113.97 178.19 C 109.44 178.23 105.43 176.21 101.07 175.70 C 97.64 176.11 94.42 177.64 90.95 177.99 C 85.51 178.53 79.50 178.08 74.73 175.18 C 81.20 175.81 86.59 177.73 93.14 176.16 C 96.42 175.63 100.17 173.44 103.39 174.60 Z" fill="#c9b29a" /></svg>