<?xml version="1.0" encoding="UTF-8" standalone="no"?>
<!DOCTYPE svg PUBLIC "-//W3C//DTD SVG 1.1//EN" "http://www.w3.org/Graphics/SVG/1.1/DTD/svg11.dtd">
<svg viewBox="0 0 192 192" height="192.0pt" width="192.0pt" xmlns="http://www.w3.org/2000/svg" version="1.1">
<path d="M 119.19 21.65 C 117.01 21.42 114.81 21.32 112.62 21.37 C 109.61 33.25 106.29 44.57 100.37 55.41 C 98.36 59.05 94.71 59.67 91.21 61.31 C 86.22 63.65 82.82 69.45 78.80 73.19 C 77.58 74.43 76.32 75.64 75.07 76.85 C 71.08 80.69 67.22 84.64 63.27 88.51 C 63.04 86.62 62.82 84.73 62.60 82.84 C 61.58 83.51 60.55 84.16 59.54 84.85 C 56.21 87.27 54.14 90.29 51.17 93.21 C 48.27 94.48 45.32 95.33 42.13 94.87 C 33.14 93.74 25.50 89.79 17.96 85.02 C 17.75 83.35 17.65 81.67 17.51 79.99 C 21.37 78.11 25.38 76.74 29.62 76.07 C 31.73 75.73 33.86 75.47 35.98 75.19 C 34.08 71.17 32.18 67.55 31.89 63.01 C 31.30 55.39 33.90 47.84 37.07 41.02 C 45.76 28.52 59.00 20.41 73.56 16.54 C 88.67 12.66 105.27 14.71 119.19 21.65 Z" fill="#43c2d8" />
<path d="M 112.62 21.37 C 114.81 21.32 117.01 21.42 119.19 21.65 C 125.51 24.22 130.32 29.93 136.73 31.98 C 140.18 38.65 146.10 42.65 149.84 49.16 C 154.55 56.45 156.91 64.74 157.86 73.31 C 158.38 78.88 158.96 84.40 158.77 90.00 C 157.99 104.07 154.59 117.97 146.97 129.95 C 145.49 132.09 143.46 134.98 140.86 135.75 C 137.16 135.12 133.65 132.78 129.91 132.23 C 128.01 132.00 125.94 132.61 124.13 133.16 C 128.08 126.37 130.66 118.95 130.54 111.01 C 130.69 97.54 124.96 85.41 116.26 75.41 C 116.08 71.62 115.91 67.88 112.59 65.42 C 106.67 61.12 98.29 60.01 91.21 61.31 C 94.71 59.67 98.36 59.05 100.37 55.41 C 106.29 44.57 109.61 33.25 112.62 21.37 Z" fill="#3cc0d6" />
<path d="M 160.09 31.06 C 165.63 32.19 169.95 35.58 173.45 39.89 C 172.81 43.62 172.45 47.06 170.37 50.34 C 168.06 53.96 164.96 57.01 162.69 60.68 C 160.18 64.53 158.75 68.83 157.86 73.31 C 156.91 64.74 154.55 56.45 149.84 49.16 C 146.10 42.65 140.18 38.65 136.73 31.98 C 144.24 30.19 152.47 29.62 160.09 31.06 Z" fill="#3aa8c2" />
<path d="M 173.45 39.89 C 174.95 43.29 175.81 46.72 174.32 50.32 C 171.05 58.51 163.76 63.36 161.58 72.52 C 160.07 77.73 160.91 81.74 163.54 86.34 C 161.90 87.48 160.34 88.76 158.77 90.00 C 158.96 84.40 158.38 78.88 157.86 73.31 C 158.75 68.83 160.18 64.53 162.69 60.68 C 164.96 57.01 168.06 53.96 170.37 50.34 C 172.45 47.06 172.81 43.62 173.45 39.89 Z" fill="#dfdfdf" />
<path d="M 37.07 41.02 C 33.90 47.84 31.30 55.39 31.89 63.01 C 32.18 67.55 34.08 71.17 35.98 75.19 C 33.86 75.47 31.73 75.73 29.62 76.07 C 30.45 67.74 28.46 60.91 30.75 52.88 C 31.89 48.42 34.26 44.61 37.07 41.02 Z" fill="#e2e2e2" />
<path d="M 70.31 49.71 C 73.17 50.64 75.48 52.62 77.80 54.44 C 76.63 55.04 75.47 55.64 74.31 56.24 C 71.98 54.86 69.66 53.22 66.89 52.95 C 61.95 52.39 56.88 55.66 55.22 60.30 C 54.31 63.77 54.46 68.29 56.91 71.14 C 58.56 73.24 60.71 74.20 63.00 75.43 C 62.81 76.76 62.63 78.09 62.45 79.42 C 59.12 77.75 56.00 76.38 53.65 73.34 C 49.20 67.55 49.88 58.27 55.25 53.26 C 59.14 49.39 65.12 48.11 70.31 49.71 Z" fill="#ffffff" />
<path d="M 66.89 52.95 C 69.66 53.22 71.98 54.86 74.31 56.24 C 66.65 59.22 64.27 68.14 63.00 75.43 C 60.71 74.20 58.56 73.24 56.91 71.14 C 54.46 68.29 54.31 63.77 55.22 60.30 C 56.88 55.66 61.95 52.39 66.89 52.95 Z" fill="#494e51" />
<path d="M 91.21 61.31 C 98.29 60.01 106.67 61.12 112.59 65.42 C 115.91 67.88 116.08 71.62 116.26 75.41 C 114.97 79.15 113.42 82.58 112.60 86.48 C 110.92 94.24 111.50 102.09 109.45 109.54 C 108.80 111.71 107.86 113.82 105.65 114.77 C 103.18 115.51 100.39 115.42 97.83 115.57 C 95.26 112.95 92.43 110.69 90.03 107.88 C 82.54 97.90 78.40 85.73 78.80 73.19 C 82.82 69.45 86.22 63.65 91.21 61.31 Z" fill="#3daac3" />
<path d="M 78.80 73.19 C 78.40 85.73 82.54 97.90 90.03 107.88 C 86.37 107.47 82.13 106.68 78.53 107.62 C 74.86 108.66 72.48 113.67 75.10 116.82 C 78.86 120.55 85.64 120.80 89.84 124.16 C 92.87 126.59 95.25 130.08 97.64 133.12 C 99.24 131.43 101.17 129.72 102.25 127.65 C 102.42 123.47 100.12 118.97 97.83 115.57 C 100.39 115.42 103.18 115.51 105.65 114.77 C 107.86 113.82 108.80 111.71 109.45 109.54 C 111.50 102.09 110.92 94.24 112.60 86.48 C 113.42 82.58 114.97 79.15 116.26 75.41 C 124.96 85.41 130.69 97.54 130.54 111.01 C 130.66 118.95 128.08 126.37 124.13 133.16 C 122.47 134.06 120.70 135.16 118.84 135.57 C 114.83 135.37 111.04 132.41 107.00 132.11 C 103.52 132.43 100.21 134.68 96.77 135.38 C 95.14 135.69 93.30 134.96 91.79 134.38 C 91.24 132.33 90.88 129.36 89.00 128.08 C 85.62 125.58 81.12 124.52 77.73 122.08 C 75.07 119.95 73.64 116.24 71.26 113.79 C 65.10 113.04 57.03 116.74 50.77 113.15 C 45.75 110.40 45.00 102.92 41.48 99.53 C 35.84 96.13 28.68 95.68 23.08 91.84 C 20.48 90.26 19.02 87.80 17.96 85.02 C 25.50 89.79 33.14 93.74 42.13 94.87 C 45.32 95.33 48.27 94.48 51.17 93.21 C 48.23 95.89 45.87 100.54 49.00 103.97 C 54.97 108.10 61.65 105.30 66.37 100.72 C 69.36 97.69 71.98 94.49 73.46 90.44 C 75.01 86.20 74.96 81.31 75.07 76.85 C 76.32 75.64 77.58 74.43 78.80 73.19 Z" fill="#c7cdd6" />
<path d="M 75.07 76.85 C 74.96 81.31 75.01 86.20 73.46 90.44 C 71.98 94.49 69.36 97.69 66.37 100.72 C 63.69 100.05 59.85 100.23 58.43 97.42 C 56.54 93.49 58.07 88.67 59.54 84.85 C 60.55 84.16 61.58 83.51 62.60 82.84 C 62.82 84.73 63.04 86.62 63.27 88.51 C 67.22 84.64 71.08 80.69 75.07 76.85 Z" fill="#ff7785" />
<path d="M 17.51 79.99 C 17.65 81.67 17.75 83.35 17.96 85.02 C 19.02 87.80 20.48 90.26 23.08 91.84 C 28.68 95.68 35.84 96.13 41.48 99.53 C 45.00 102.92 45.75 110.40 50.77 113.15 C 57.03 116.74 65.10 113.04 71.26 113.79 C 73.64 116.24 75.07 119.95 77.73 122.08 C 81.12 124.52 85.62 125.58 89.00 128.08 C 90.88 129.36 91.24 132.33 91.79 134.38 C 87.93 132.74 84.62 131.41 80.50 133.12 C 76.47 128.99 72.21 125.29 66.82 123.05 C 68.84 123.00 70.87 122.92 72.89 122.85 C 71.79 120.73 70.68 118.62 69.57 116.51 C 65.04 117.26 59.96 118.37 55.40 117.73 C 50.30 116.94 46.07 113.97 43.76 109.33 C 42.05 106.56 40.72 102.08 37.46 100.85 C 32.39 98.66 27.11 97.75 22.27 94.83 C 19.27 93.05 15.75 90.33 14.90 86.77 C 14.31 84.28 16.02 81.82 17.51 79.99 Z" fill="#f3f3f3" />
<path d="M 169.04 84.57 C 171.41 84.91 173.71 86.55 175.68 87.82 C 175.30 89.94 175.12 92.27 174.28 94.28 C 172.57 96.49 169.85 97.98 167.80 99.90 C 165.28 102.09 164.18 105.26 162.85 108.22 C 165.00 108.08 167.15 107.92 169.30 107.74 C 171.32 108.80 173.36 109.86 175.31 111.04 C 175.31 113.72 175.32 116.37 175.16 119.05 C 170.96 120.65 166.59 121.87 162.49 123.68 C 158.71 125.43 156.59 128.71 154.13 131.88 C 154.84 132.30 155.55 132.72 156.26 133.13 C 159.48 135.13 162.31 136.13 166.14 135.66 C 170.25 133.42 173.89 130.77 177.71 128.09 C 177.93 129.59 178.15 131.09 178.36 132.58 C 177.28 147.37 178.15 162.08 177.78 176.87 C 123.50 176.81 69.20 176.93 14.92 176.82 C 14.50 160.86 14.72 144.87 14.77 128.90 C 18.33 131.30 22.27 134.49 26.47 135.55 C 31.21 136.76 36.29 132.11 40.90 132.15 C 43.07 132.46 45.19 133.73 47.19 134.61 C 50.82 136.49 53.13 135.49 56.52 133.75 C 58.23 132.99 60.16 132.10 62.06 132.07 C 66.14 132.38 69.92 135.14 73.92 135.55 C 76.19 135.20 78.38 133.96 80.50 133.12 C 84.62 131.41 87.93 132.74 91.79 134.38 C 93.30 134.96 95.14 135.69 96.77 135.38 C 100.21 134.68 103.52 132.43 107.00 132.11 C 111.04 132.41 114.83 135.37 118.84 135.57 C 120.70 135.16 122.47 134.06 124.13 133.16 C 125.94 132.61 128.01 132.00 129.91 132.23 C 133.65 132.78 137.16 135.12 140.86 135.75 C 143.46 134.98 145.49 132.09 146.97 129.95 C 154.59 117.97 157.99 104.07 158.77 90.00 C 160.34 88.76 161.90 87.48 163.54 86.34 C 165.24 85.58 167.16 84.67 169.04 84.57 Z" fill="#76d6ff" />
<path d="M 59.54 84.85 C 58.07 88.67 56.54 93.49 58.43 97.42 C 59.85 100.23 63.69 100.05 66.37 100.72 C 61.65 105.30 54.97 108.10 49.00 103.97 C 45.87 100.54 48.23 95.89 51.17 93.21 C 54.14 90.29 56.21 87.27 59.54 84.85 Z" fill="#226a80" />
<path d="M 175.68 87.82 C 176.94 90.60 178.80 94.14 176.91 97.04 C 174.76 100.83 171.73 104.11 169.30 107.74 C 167.15 107.92 165.00 108.08 162.85 108.22 C 164.18 105.26 165.28 102.09 167.80 99.90 C 169.85 97.98 172.57 96.49 174.28 94.28 C 175.12 92.27 175.30 89.94 175.68 87.82 Z" fill="#e0e0e0" />
<path d="M 78.53 107.62 C 82.13 106.68 86.37 107.47 90.03 107.88 C 92.43 110.69 95.26 112.95 97.83 115.57 C 100.12 118.97 102.42 123.47 102.25 127.65 C 101.17 129.72 99.24 131.43 97.64 133.12 C 95.25 130.08 92.87 126.59 89.84 124.16 C 85.64 120.80 78.86 120.55 75.10 116.82 C 72.48 113.67 74.86 108.66 78.53 107.62 Z" fill="#78d7ff" />
<path d="M 175.31 111.04 C 177.07 113.37 178.66 115.77 178.17 118.85 C 177.71 122.05 175.85 124.47 172.95 125.85 C 168.50 127.94 164.10 129.68 160.44 133.09 C 162.33 133.96 164.24 134.81 166.14 135.66 C 162.31 136.13 159.48 135.13 156.26 133.13 C 158.45 130.61 160.43 128.19 163.52 126.74 C 167.93 124.56 172.17 123.27 175.16 119.05 C 175.32 116.37 175.31 113.72 175.31 111.04 Z" fill="#e8e8e8" />
<path d="M 175.16 119.05 C 172.17 123.27 167.93 124.56 163.52 126.74 C 160.43 128.19 158.45 130.61 156.26 133.13 C 155.55 132.72 154.84 132.30 154.13 131.88 C 156.59 128.71 158.71 125.43 162.49 123.68 C 166.59 121.87 170.96 120.65 175.16 119.05 Z" fill="#cdcdcd" />
<path d="M 60.55 123.63 C 62.55 123.08 64.76 123.10 66.82 123.05 C 72.21 125.29 76.47 128.99 80.50 133.12 C 78.38 133.96 76.19 135.20 73.92 135.55 C 69.92 135.14 66.14 132.38 62.06 132.07 C 60.16 132.10 58.23 132.99 56.52 133.75 C 56.38 131.53 56.29 129.32 56.24 127.09 C 57.42 125.80 58.85 124.22 60.55 123.63 Z" fill="#3dc0d7" />
<path d="M 56.24 127.09 C 56.29 129.32 56.38 131.53 56.52 133.75 C 53.13 135.49 50.82 136.49 47.19 134.61 C 51.57 133.28 53.68 130.64 56.24 127.09 Z" fill="#e5eaec" />
<path d="M 14.77 128.90 C 14.72 144.87 14.50 160.86 14.92 176.82 C 69.20 176.93 123.50 176.81 177.78 176.87 L 177.72 177.81 C 170.88 178.47 163.87 178.18 157.00 178.20 C 117.67 178.19 78.33 178.21 39.00 178.20 C 30.79 178.23 22.58 178.30 14.37 177.92 C 14.27 163.19 14.95 148.37 13.88 133.69 C 14.16 132.09 14.47 130.50 14.77 128.90 Z" fill="#78b6d0" />
<path d="M 178.36 132.58 C 180.04 139.42 180.48 145.98 180.17 153.00 C 179.79 161.08 180.97 169.67 179.35 177.58 C 178.71 180.31 177.14 181.65 174.44 182.23 C 168.46 183.31 162.07 182.63 156.00 182.72 C 116.00 182.71 76.00 182.70 36.00 182.72 C 29.97 182.62 23.56 183.35 17.64 182.16 C 14.29 181.46 13.09 178.74 12.63 175.64 C 11.77 168.51 12.53 161.18 12.29 154.00 C 12.09 147.13 12.14 140.39 13.88 133.69 C 14.95 148.37 14.27 163.19 14.37 177.92 C 22.58 178.30 30.79 178.23 39.00 178.20 C 78.33 178.21 117.67 178.19 157.00 178.20 C 163.87 178.18 170.88 178.47 177.72 177.81 L 177.78 176.87 C 178.15 162.08 177.28 147.37 178.36 132.58 Z" fill="#d7d7d7" />
<path d="M 68.40 142.43 C 72.51 141.82 76.90 142.99 80.84 144.08 C 88.94 146.48 97.01 148.50 104.73 152.05 C 101.66 153.99 98.46 156.24 94.80 156.85 C 91.31 157.42 87.44 156.78 83.99 156.11 C 74.54 154.06 65.35 152.40 56.67 147.88 C 60.24 145.66 64.18 143.07 68.40 142.43 Z" fill="#44aee2" />
<path d="M 129.34 142.39 C 133.47 141.80 137.86 142.98 141.82 144.10 C 149.87 146.52 157.90 148.59 165.61 152.04 C 161.58 154.60 158.01 157.09 153.00 157.06 C 146.72 157.00 140.31 155.12 134.18 153.83 C 128.26 152.55 122.96 150.67 117.57 147.91 C 121.15 145.64 125.07 143.00 129.34 142.39 Z" fill="#42ade2" />
<path d="M 37.36 158.29 C 41.62 157.46 46.09 158.60 50.19 159.75 C 58.54 162.26 66.80 163.99 74.67 167.92 C 71.19 169.81 67.98 171.61 63.95 171.96 C 57.06 172.56 49.57 170.72 42.88 169.14 C 37.21 167.82 31.86 166.03 26.54 163.68 C 29.84 161.51 33.43 159.07 37.36 158.29 Z" fill="#44aee2" />
<path d="M 98.25 158.18 C 102.45 157.46 107.05 158.72 111.09 159.85 C 119.36 162.32 127.59 164.13 135.43 167.88 C 132.00 169.71 128.85 171.47 124.91 171.91 C 118.28 172.62 111.04 170.92 104.59 169.43 C 98.45 168.02 92.59 166.15 86.81 163.64 C 90.28 161.46 94.15 158.87 98.25 158.18 Z" fill="#42ade2" /></svg>