<?xml version="1.0" encoding="UTF-8" standalone="no"?>
<!DOCTYPE svg PUBLIC "-//W3C//DTD SVG 1.1//EN" "http://www.w3.org/Graphics/SVG/1.1/DTD/svg11.dtd">
<svg viewBox="0 0 192 192" height="192.0pt" width="192.0pt" xmlns="http://www.w3.org/2000/svg" version="1.1">
<path d="M 67.15 15.47 C 73.77 14.87 80.25 14.30 86.89 15.00 L 87.16 15.90 C 85.00 16.80 82.95 17.90 80.85 18.92 C 77.24 20.71 73.67 22.58 70.12 24.48 C 72.90 24.97 75.71 25.31 78.46 25.90 C 80.79 27.11 82.89 28.62 85.03 30.12 C 83.94 31.71 83.45 33.80 81.21 33.90 C 79.20 33.18 77.13 31.08 75.04 31.02 C 69.83 32.80 65.38 36.56 60.26 38.68 C 60.29 40.15 60.31 41.63 60.39 43.10 C 60.47 45.13 60.77 47.35 60.34 49.34 C 59.49 50.85 58.23 52.16 57.10 53.46 C 53.01 53.80 47.46 55.29 44.48 51.51 C 42.21 47.84 42.88 42.20 43.00 38.05 C 44.37 33.61 45.64 29.19 48.36 25.35 C 50.79 21.88 54.57 19.32 58.19 17.22 C 61.11 16.30 64.11 15.75 67.15 15.47 Z" fill="#9b7a5d" />
<path d="M 87.16 15.90 C 87.97 19.28 85.37 22.92 84.03 25.93 C 84.99 28.81 86.90 32.37 86.22 35.43 C 84.76 43.11 81.62 51.48 82.29 59.46 C 82.52 63.52 83.84 67.12 85.13 70.93 C 95.21 75.14 108.31 72.84 118.96 72.40 C 128.43 72.24 137.85 72.02 147.30 72.94 C 149.37 72.88 152.28 73.70 153.25 71.23 C 157.18 63.31 155.95 55.21 162.81 48.59 C 161.37 57.55 157.05 65.18 156.51 74.32 C 159.91 75.89 164.34 77.23 166.39 80.55 C 168.14 83.10 169.62 85.82 171.24 88.45 C 176.22 83.83 178.01 78.66 178.28 71.95 C 179.09 75.59 179.11 79.18 177.52 82.61 C 175.41 87.40 172.90 91.41 173.38 96.89 C 173.26 103.47 173.18 110.85 170.90 117.07 C 170.00 119.74 168.81 122.42 168.34 125.18 C 167.96 127.69 168.63 130.32 169.07 132.80 L 170.41 131.59 C 170.76 135.91 171.17 140.11 170.55 144.45 C 169.29 153.39 166.62 161.90 166.02 170.99 C 160.67 171.05 155.32 170.85 149.97 170.76 C 149.91 173.15 149.90 175.54 149.96 177.93 L 149.22 177.54 C 148.29 167.71 150.11 158.35 150.05 148.37 C 150.72 149.14 151.40 149.90 152.11 150.65 C 152.20 148.94 152.30 147.23 152.36 145.51 C 152.33 141.91 149.78 140.74 147.46 138.52 C 144.43 135.94 141.82 132.94 138.85 130.29 C 133.84 131.45 129.16 133.36 124.02 134.08 C 117.74 135.02 111.39 135.71 105.04 135.92 C 99.24 136.14 93.83 135.27 88.10 134.60 C 88.08 136.33 88.03 138.06 87.97 139.78 C 87.91 143.68 87.58 147.50 86.19 151.17 C 83.74 157.79 81.09 164.27 79.29 171.12 C 74.93 171.00 70.46 170.63 66.12 171.10 C 64.92 171.22 63.87 172.24 62.85 172.83 C 65.28 160.31 68.96 148.87 68.17 135.85 C 68.75 137.59 69.27 139.35 69.85 141.09 C 69.82 137.43 70.39 132.70 68.53 129.42 C 66.94 126.50 64.72 123.91 62.96 121.08 C 56.94 111.27 54.14 100.46 52.61 89.15 C 49.76 89.82 46.95 90.50 44.22 91.58 C 39.35 93.39 34.19 96.47 28.97 96.88 C 23.24 96.70 17.77 91.61 13.73 87.97 C 14.66 83.17 17.56 80.12 20.15 76.18 C 23.27 71.62 25.79 66.68 27.46 61.41 C 29.00 56.85 30.07 52.03 33.27 48.28 C 36.34 44.70 40.08 41.80 43.00 38.05 C 42.88 42.20 42.21 47.84 44.48 51.51 C 47.46 55.29 53.01 53.80 57.10 53.46 C 56.78 55.42 56.69 57.40 56.42 59.37 C 60.86 57.70 65.73 57.03 70.03 55.03 C 74.88 51.91 78.91 46.00 78.76 40.08 C 78.76 37.46 76.35 34.31 73.47 35.43 C 68.77 36.90 64.48 40.40 60.39 43.10 C 60.31 41.63 60.29 40.15 60.26 38.68 C 65.38 36.56 69.83 32.80 75.04 31.02 C 77.13 31.08 79.20 33.18 81.21 33.90 C 83.45 33.80 83.94 31.71 85.03 30.12 C 82.89 28.62 80.79 27.11 78.46 25.90 C 79.25 23.57 80.01 21.23 80.85 18.92 C 82.95 17.90 85.00 16.80 87.16 15.90 Z" fill="#f1e7dd" />
<path d="M 58.19 17.22 C 54.57 19.32 50.79 21.88 48.36 25.35 C 45.64 29.19 44.37 33.61 43.00 38.05 C 40.08 41.80 36.34 44.70 33.27 48.28 C 30.07 52.03 29.00 56.85 27.46 61.41 C 25.79 66.68 23.27 71.62 20.15 76.18 C 17.56 80.12 14.66 83.17 13.73 87.97 C 14.30 89.95 14.92 92.26 16.26 93.87 C 18.60 96.66 21.47 98.55 23.20 101.88 C 25.47 106.18 26.40 110.33 30.51 113.41 C 35.54 117.57 41.47 118.80 47.85 119.09 C 46.19 115.40 44.10 111.88 42.66 108.11 C 42.59 104.55 42.48 99.85 45.04 97.04 C 46.55 95.37 48.70 95.31 50.73 95.91 C 52.22 97.48 52.89 99.66 53.50 101.69 C 55.12 107.83 56.64 113.88 59.54 119.58 C 62.31 125.54 66.35 129.84 68.17 135.85 C 68.96 148.87 65.28 160.31 62.85 172.83 C 62.73 174.54 62.66 176.25 62.55 177.96 C 67.61 178.38 72.54 178.49 77.58 177.80 C 78.10 175.56 78.72 173.35 79.29 171.12 C 81.09 164.27 83.74 157.79 86.19 151.17 C 87.58 147.50 87.91 143.68 87.97 139.78 C 92.38 138.58 96.43 138.13 101.00 138.33 C 109.25 138.63 117.38 138.44 125.47 136.62 C 129.48 135.80 133.76 134.34 137.86 134.38 C 140.13 134.41 141.92 136.05 143.54 137.44 C 146.46 140.16 149.28 142.97 152.36 145.51 C 152.30 147.23 152.20 148.94 152.11 150.65 C 151.40 149.90 150.72 149.14 150.05 148.37 C 150.11 158.35 148.29 167.71 149.22 177.54 L 149.96 177.93 C 155.16 178.54 160.36 178.37 165.56 177.88 C 165.66 175.58 165.84 173.28 166.02 170.99 C 166.62 161.90 169.29 153.39 170.55 144.45 C 171.17 140.11 170.76 135.91 170.41 131.59 C 170.28 123.82 173.92 117.19 174.38 109.51 C 174.81 105.19 174.01 101.14 173.38 96.89 C 172.90 91.41 175.41 87.40 177.52 82.61 C 179.11 79.18 179.09 75.59 178.28 71.95 C 176.09 63.07 171.24 56.67 166.98 48.81 C 170.10 51.14 172.82 53.81 174.71 57.25 C 178.61 63.82 182.22 71.28 181.02 79.13 C 180.05 85.52 175.54 89.48 176.09 95.69 C 176.60 102.71 177.48 109.39 176.16 116.42 C 175.42 121.03 173.30 125.44 172.89 130.06 C 172.77 134.69 174.64 139.24 174.59 143.95 C 174.53 148.86 173.25 153.84 172.46 158.68 C 171.35 164.62 170.60 170.65 169.30 176.55 C 168.59 179.15 168.06 182.01 165.24 183.10 C 160.73 184.99 154.49 184.91 150.07 182.81 C 147.38 181.53 146.73 178.43 146.50 175.74 C 146.06 167.85 147.88 159.69 147.90 151.84 C 148.30 147.15 143.54 143.21 140.07 140.80 C 137.60 139.00 135.00 139.31 132.17 139.87 C 120.93 142.42 109.25 143.79 97.72 143.26 C 96.24 143.33 93.57 143.11 92.80 144.69 C 91.84 147.08 91.44 149.78 90.86 152.29 C 89.53 158.62 86.64 164.53 84.62 170.78 C 83.21 174.47 81.94 179.18 79.06 182.00 C 75.61 184.62 70.17 184.79 66.07 183.87 C 63.90 183.30 60.79 182.33 60.42 179.73 C 59.63 175.54 60.79 170.74 61.77 166.64 C 63.60 159.64 64.83 152.51 65.74 145.34 C 66.15 141.61 66.26 138.04 64.51 134.60 C 62.11 129.79 58.76 125.51 56.46 120.62 C 52.99 113.82 51.94 106.45 48.86 99.50 C 47.68 101.02 45.81 101.98 45.69 104.05 C 45.45 108.97 48.82 114.22 49.35 119.03 C 49.53 121.95 46.15 124.20 43.44 123.31 C 37.83 121.88 32.30 118.82 27.80 115.20 C 22.53 110.81 22.08 104.57 17.35 99.66 C 14.88 96.79 11.09 94.17 11.19 89.97 C 11.03 84.12 16.24 78.83 19.07 74.02 C 23.57 67.18 25.13 59.57 28.39 52.25 C 31.14 46.22 36.72 43.42 39.73 37.72 C 42.26 32.97 43.40 28.20 47.03 23.99 C 49.92 20.44 53.83 18.42 58.19 17.22 Z" fill="#e6e6e6" />
<path d="M 80.85 18.92 C 80.01 21.23 79.25 23.57 78.46 25.90 C 75.71 25.31 72.90 24.97 70.12 24.48 C 73.67 22.58 77.24 20.71 80.85 18.92 Z" fill="#d0d0d0" />
<path d="M 73.47 35.43 C 76.35 34.31 78.76 37.46 78.76 40.08 C 78.91 46.00 74.88 51.91 70.03 55.03 C 65.73 57.03 60.86 57.70 56.42 59.37 C 56.69 57.40 56.78 55.42 57.10 53.46 C 58.23 52.16 59.49 50.85 60.34 49.34 C 60.77 47.35 60.47 45.13 60.39 43.10 C 64.48 40.40 68.77 36.90 73.47 35.43 Z" fill="#c5b1a6" />
<path d="M 164.45 46.91 L 164.78 47.12 C 165.55 47.64 166.26 48.23 166.98 48.81 C 171.24 56.67 176.09 63.07 178.28 71.95 C 178.01 78.66 176.22 83.83 171.24 88.45 C 169.62 85.82 168.14 83.10 166.39 80.55 C 164.34 77.23 159.91 75.89 156.51 74.32 C 157.05 65.18 161.37 57.55 162.81 48.59 C 163.35 48.03 163.90 47.47 164.45 46.91 Z" fill="#c2aca1" />
<path d="M 48.41 55.55 C 52.88 58.18 53.06 64.87 48.82 67.82 C 45.72 70.21 42.76 68.73 39.40 67.95 C 38.84 65.56 38.00 63.33 37.34 60.96 C 37.78 55.56 43.86 52.74 48.41 55.55 Z" fill="#4a4f53" />
<path d="M 37.34 60.96 C 38.00 63.33 38.84 65.56 39.40 67.95 C 39.93 73.27 40.34 78.70 40.14 84.05 C 39.95 88.36 37.75 92.92 33.61 94.66 C 31.87 95.12 29.74 94.31 28.00 94.03 C 29.78 88.87 32.46 84.13 33.86 78.89 C 35.50 72.96 36.35 67.01 37.34 60.96 Z" fill="#c5b0a6" />
<path d="M 21.43 79.19 C 24.55 77.60 28.75 81.47 27.93 84.82 C 27.45 88.09 22.54 91.18 19.88 88.20 C 16.68 85.78 18.67 81.02 21.43 79.19 Z" fill="#c5b0a6" />
<path d="M 13.73 87.97 C 17.77 91.61 23.24 96.70 28.97 96.88 C 34.19 96.47 39.35 93.39 44.22 91.58 C 42.78 97.20 41.18 102.25 42.66 108.11 C 44.10 111.88 46.19 115.40 47.85 119.09 C 41.47 118.80 35.54 117.57 30.51 113.41 C 26.40 110.33 25.47 106.18 23.20 101.88 C 21.47 98.55 18.60 96.66 16.26 93.87 C 14.92 92.26 14.30 89.95 13.73 87.97 Z" fill="#c3b0a6" />
<path d="M 52.61 89.15 C 54.14 100.46 56.94 111.27 62.96 121.08 C 64.72 123.91 66.94 126.50 68.53 129.42 C 70.39 132.70 69.82 137.43 69.85 141.09 C 69.27 139.35 68.75 137.59 68.17 135.85 C 66.35 129.84 62.31 125.54 59.54 119.58 C 56.64 113.88 55.12 107.83 53.50 101.69 C 52.89 99.66 52.22 97.48 50.73 95.91 C 48.70 95.31 46.55 95.37 45.04 97.04 C 42.48 99.85 42.59 104.55 42.66 108.11 C 41.18 102.25 42.78 97.20 44.22 91.58 C 46.95 90.50 49.76 89.82 52.61 89.15 Z" fill="#cccbcb" />
<path d="M 173.38 96.89 C 174.01 101.14 174.81 105.19 174.38 109.51 C 173.92 117.19 170.28 123.82 170.41 131.59 L 169.07 132.80 C 168.63 130.32 167.96 127.69 168.34 125.18 C 168.81 122.42 170.00 119.74 170.90 117.07 C 173.18 110.85 173.26 103.47 173.38 96.89 Z" fill="#d6d6d6" />
<path d="M 138.85 130.29 C 141.82 132.94 144.43 135.94 147.46 138.52 C 149.78 140.74 152.33 141.91 152.36 145.51 C 149.28 142.97 146.46 140.16 143.54 137.44 C 141.92 136.05 140.13 134.41 137.86 134.38 C 133.76 134.34 129.48 135.80 125.47 136.62 C 117.38 138.44 109.25 138.63 101.00 138.33 C 96.43 138.13 92.38 138.58 87.97 139.78 C 88.03 138.06 88.08 136.33 88.10 134.60 C 93.83 135.27 99.24 136.14 105.04 135.92 C 111.39 135.71 117.74 135.02 124.02 134.08 C 129.16 133.36 133.84 131.45 138.85 130.29 Z" fill="#c2c0be" />
<path d="M 149.97 170.76 C 155.32 170.85 160.67 171.05 166.02 170.99 C 165.84 173.28 165.66 175.58 165.56 177.88 C 160.36 178.37 155.16 178.54 149.96 177.93 C 149.90 175.54 149.91 173.15 149.97 170.76 Z" fill="#937051" />
<path d="M 66.12 171.10 C 70.46 170.63 74.93 171.00 79.29 171.12 C 78.72 173.35 78.10 175.56 77.58 177.80 C 72.54 178.49 67.61 178.38 62.55 177.96 C 62.66 176.25 62.73 174.54 62.85 172.83 C 63.87 172.24 64.92 171.22 66.12 171.10 Z" fill="#937151" /></svg>