<?xml version="1.0" encoding="UTF-8" standalone="no"?>
<!DOCTYPE svg PUBLIC "-//W3C//DTD SVG 1.1//EN" "http://www.w3.org/Graphics/SVG/1.1/DTD/svg11.dtd">
<svg viewBox="0 0 192 192" height="192.0pt" width="192.0pt" xmlns="http://www.w3.org/2000/svg" version="1.1">
<path d="M 64.28 19.71 C 68.96 22.70 71.65 26.79 75.31 30.86 C 80.24 30.47 85.02 29.29 89.96 29.15 C 94.63 29.00 99.33 28.98 104.00 29.22 C 108.28 29.56 112.49 30.47 116.77 30.90 C 120.73 26.82 123.57 22.55 128.48 19.48 C 134.54 15.38 141.84 14.00 149.06 14.93 C 154.93 15.52 159.90 18.01 164.89 21.01 C 165.32 21.66 165.75 22.32 166.19 22.97 C 160.10 20.03 154.30 15.84 147.22 16.18 C 145.49 16.84 144.02 18.43 142.70 19.69 C 139.71 22.85 136.45 25.18 134.54 29.21 C 132.50 31.50 130.51 33.82 128.66 36.27 C 124.56 37.73 122.80 40.38 121.33 44.34 C 117.78 54.73 112.53 64.34 106.46 73.46 C 105.68 74.46 104.81 75.88 103.59 76.37 C 101.69 76.71 99.68 76.63 97.75 76.70 C 90.11 76.83 83.57 80.72 78.36 86.07 C 77.59 80.88 76.02 76.46 71.08 73.93 C 63.61 69.60 53.13 73.54 50.92 82.01 C 48.55 89.69 54.08 98.06 62.01 98.98 C 66.43 99.63 70.24 98.21 74.02 96.09 C 73.84 104.16 73.26 113.44 77.30 120.71 C 79.62 125.05 83.69 127.11 88.08 128.87 C 84.07 128.47 80.10 127.93 76.20 126.86 C 71.40 125.63 66.97 123.50 62.18 122.24 C 60.45 125.19 59.53 128.40 58.78 131.71 C 53.70 135.15 49.32 139.21 46.95 145.00 C 44.30 150.84 44.14 156.89 44.45 163.17 C 39.36 163.36 35.27 161.18 30.82 159.08 C 29.78 158.13 28.80 157.12 27.84 156.08 C 26.18 150.43 27.18 144.77 29.48 139.47 C 32.74 131.94 37.40 124.96 42.80 118.80 C 44.05 117.38 44.94 115.77 45.96 114.21 C 42.89 110.53 39.03 107.30 36.66 103.24 C 33.95 98.70 32.49 93.76 31.46 88.61 C 32.17 88.43 32.89 88.25 33.61 88.07 C 33.22 85.71 33.11 82.94 32.01 80.81 C 29.57 78.01 26.05 76.26 23.53 73.47 C 14.85 64.23 12.09 50.04 16.10 38.08 C 18.01 31.71 21.87 26.99 26.00 21.94 C 29.65 19.57 33.63 17.09 37.82 15.85 C 46.73 13.38 56.54 14.50 64.28 19.71 Z" fill="#acb6bd" />
<path d="M 147.22 16.18 C 154.30 15.84 160.10 20.03 166.19 22.97 C 177.47 32.55 181.18 50.41 174.87 63.79 C 172.42 68.94 168.83 73.86 164.15 77.21 C 162.64 78.48 160.45 79.67 159.52 81.44 C 158.69 84.69 160.58 88.45 159.96 91.78 C 159.19 95.57 157.58 99.24 155.73 102.62 C 153.20 107.21 149.57 110.12 146.11 114.08 C 149.23 119.16 153.66 123.16 156.74 128.28 C 161.77 136.23 166.22 144.05 164.91 153.87 C 164.40 154.66 163.88 155.45 163.33 156.22 C 160.68 158.23 157.99 160.37 155.01 161.89 C 152.90 162.93 150.56 162.78 148.27 162.98 C 147.96 156.49 148.41 150.66 145.37 144.67 C 142.85 138.98 138.53 134.86 133.27 131.68 C 132.61 128.23 131.68 125.18 129.94 122.12 C 121.41 125.25 113.11 128.29 103.93 128.92 C 108.33 127.26 112.22 124.77 114.59 120.60 C 118.90 113.37 118.37 104.16 118.04 96.05 C 121.55 97.88 124.93 99.43 129.01 99.09 C 137.96 98.89 144.74 88.49 140.73 80.30 C 137.30 72.65 127.37 69.74 120.33 74.35 C 115.71 77.18 114.23 81.71 113.82 86.87 C 109.88 81.38 104.34 78.06 97.75 76.70 C 99.68 76.63 101.69 76.71 103.59 76.37 C 104.81 75.88 105.68 74.46 106.46 73.46 C 112.53 64.34 117.78 54.73 121.33 44.34 C 122.80 40.38 124.56 37.73 128.66 36.27 C 132.83 37.17 136.66 37.42 140.41 39.58 C 144.55 41.97 148.63 44.23 152.31 47.32 C 149.49 51.75 150.74 56.32 150.87 61.31 C 151.88 60.75 152.89 60.20 153.89 59.64 C 154.78 62.03 155.70 64.42 156.61 66.80 C 165.75 61.43 168.30 49.02 164.39 39.64 C 161.27 32.93 154.53 27.47 146.98 26.99 C 142.54 26.59 138.71 27.96 134.54 29.21 C 136.45 25.18 139.71 22.85 142.70 19.69 C 144.02 18.43 145.49 16.84 147.22 16.18 Z" fill="#a9b3bb" />
<path d="M 164.89 21.01 C 167.00 22.23 169.04 23.48 170.73 25.26 C 183.49 38.57 184.49 61.43 172.56 75.59 C 169.79 79.05 165.73 81.68 163.40 85.43 C 162.13 90.32 163.42 95.45 161.34 100.39 C 159.49 105.95 155.76 109.91 152.44 114.55 C 150.48 117.11 153.11 120.27 154.56 122.40 C 160.13 129.50 165.65 137.37 167.49 146.38 C 168.49 152.18 168.29 158.58 164.18 163.20 C 161.22 166.84 157.30 168.33 153.15 170.18 C 148.45 172.17 146.40 176.99 141.93 179.91 C 136.59 183.40 129.33 184.16 123.11 183.69 C 118.92 183.42 115.27 181.94 111.33 180.69 C 106.85 179.25 102.62 179.72 98.00 179.73 C 94.32 179.80 90.63 179.55 86.95 179.73 C 81.74 179.98 77.73 182.50 72.44 183.37 C 65.51 184.48 57.93 183.62 51.69 180.29 C 47.66 178.14 45.66 174.45 42.20 171.83 C 38.16 169.22 33.50 168.72 29.81 165.18 C 24.69 160.39 23.20 153.28 24.73 146.57 C 26.75 137.44 33.07 128.89 38.54 121.48 C 39.71 119.37 41.93 117.41 40.02 115.03 C 36.62 110.19 32.80 106.00 30.85 100.26 C 28.77 95.27 29.78 90.40 28.75 85.34 C 26.84 82.17 23.32 79.95 20.91 77.11 C 9.78 65.14 8.15 45.52 16.81 31.72 C 19.13 27.69 21.88 24.24 26.00 21.94 C 21.87 26.99 18.01 31.71 16.10 38.08 C 12.09 50.04 14.85 64.23 23.53 73.47 C 26.05 76.26 29.57 78.01 32.01 80.81 C 33.11 82.94 33.22 85.71 33.61 88.07 C 32.89 88.25 32.17 88.43 31.46 88.61 C 32.49 93.76 33.95 98.70 36.66 103.24 C 39.03 107.30 42.89 110.53 45.96 114.21 C 44.94 115.77 44.05 117.38 42.80 118.80 C 37.40 124.96 32.74 131.94 29.48 139.47 C 27.18 144.77 26.18 150.43 27.84 156.08 C 28.64 158.54 29.43 160.82 31.33 162.67 C 34.68 165.99 39.79 166.83 43.66 169.31 C 47.26 171.74 49.71 176.01 53.76 178.14 C 58.84 180.81 65.29 181.17 70.90 180.63 C 75.04 180.23 78.49 178.54 82.40 177.38 C 86.31 176.20 90.93 176.79 95.00 176.79 C 101.31 177.00 106.74 175.71 112.81 178.10 C 120.40 181.29 129.46 181.87 137.26 179.15 C 141.42 177.65 143.54 174.53 146.34 171.38 C 150.14 166.70 156.28 166.95 160.65 162.65 C 163.15 160.29 164.35 157.20 164.91 153.87 C 166.22 144.05 161.77 136.23 156.74 128.28 C 153.66 123.16 149.23 119.16 146.11 114.08 C 149.57 110.12 153.20 107.21 155.73 102.62 C 157.58 99.24 159.19 95.57 159.96 91.78 C 160.58 88.45 158.69 84.69 159.52 81.44 C 160.45 79.67 162.64 78.48 164.15 77.21 C 168.83 73.86 172.42 68.94 174.87 63.79 C 181.18 50.41 177.47 32.55 166.19 22.97 C 165.75 22.32 165.32 21.66 164.89 21.01 Z" fill="#e6e6e6" />
<path d="M 42.37 27.39 C 50.39 25.64 59.25 28.62 63.37 35.99 C 59.03 37.43 55.03 37.67 51.15 40.13 C 46.16 43.27 40.71 45.38 35.92 48.84 C 37.72 49.22 39.57 49.30 41.38 49.65 C 41.67 53.13 41.76 56.56 41.17 60.02 C 40.21 60.40 38.74 60.45 38.02 61.24 C 36.92 62.91 36.22 64.97 35.38 66.80 C 29.09 62.73 25.59 55.43 25.95 47.99 C 25.93 38.42 33.09 29.52 42.37 27.39 Z" fill="#d2dce9" />
<path d="M 146.98 26.99 C 154.53 27.47 161.27 32.93 164.39 39.64 C 168.30 49.02 165.75 61.43 156.61 66.80 C 155.70 64.42 154.78 62.03 153.89 59.64 C 152.89 60.20 151.88 60.75 150.87 61.31 C 150.74 56.32 149.49 51.75 152.31 47.32 C 148.63 44.23 144.55 41.97 140.41 39.58 C 136.66 37.42 132.83 37.17 128.66 36.27 C 130.51 33.82 132.50 31.50 134.54 29.21 C 138.71 27.96 142.54 26.59 146.98 26.99 Z" fill="#cfdae8" />
<path d="M 71.08 73.93 C 76.02 76.46 77.59 80.88 78.36 86.07 C 76.55 89.25 75.08 92.59 74.02 96.09 C 70.24 98.21 66.43 99.63 62.01 98.98 C 54.08 98.06 48.55 89.69 50.92 82.01 C 53.13 73.54 63.61 69.60 71.08 73.93 Z" fill="#d7ff89" />
<path d="M 140.73 80.30 C 144.74 88.49 137.96 98.89 129.01 99.09 C 124.93 99.43 121.55 97.88 118.04 96.05 C 116.97 92.85 115.59 89.75 113.82 86.87 C 114.23 81.71 115.71 77.18 120.33 74.35 C 127.37 69.74 137.30 72.65 140.73 80.30 Z" fill="#d5ff85" />
<path d="M 61.28 76.19 C 64.86 75.06 68.70 76.00 71.41 78.59 C 75.51 82.11 75.35 89.73 71.05 93.06 C 68.21 95.38 64.43 96.75 60.88 95.12 C 56.53 93.73 54.17 89.49 54.09 85.11 C 54.69 81.05 57.31 77.48 61.28 76.19 Z" fill="#474c50" />
<path d="M 124.39 76.35 C 129.41 74.67 135.26 76.62 137.16 81.84 C 140.34 88.50 134.21 96.23 127.19 95.81 C 123.68 95.16 120.34 93.71 118.74 90.31 C 116.22 84.89 118.66 78.33 124.39 76.35 Z" fill="#42474b" />
<path d="M 97.75 76.70 C 104.34 78.06 109.88 81.38 113.82 86.87 C 115.59 89.75 116.97 92.85 118.04 96.05 C 118.37 104.16 118.90 113.37 114.59 120.60 C 112.22 124.77 108.33 127.26 103.93 128.92 C 98.66 129.55 93.35 129.48 88.08 128.87 C 83.69 127.11 79.62 125.05 77.30 120.71 C 73.26 113.44 73.84 104.16 74.02 96.09 C 75.08 92.59 76.55 89.25 78.36 86.07 C 83.57 80.72 90.11 76.83 97.75 76.70 Z" fill="#5a6367" />
<path d="M 62.18 122.24 C 66.97 123.50 71.40 125.63 76.20 126.86 C 80.10 127.93 84.07 128.47 88.08 128.87 C 93.35 129.48 98.66 129.55 103.93 128.92 C 113.11 128.29 121.41 125.25 129.94 122.12 C 131.68 125.18 132.61 128.23 133.27 131.68 C 128.42 130.89 123.00 130.25 118.39 132.37 C 112.72 134.89 108.67 139.71 106.36 145.39 C 104.20 150.50 103.91 155.74 103.87 161.22 C 98.64 161.95 93.52 161.80 88.28 161.26 C 88.15 156.23 88.28 150.49 86.16 145.86 C 83.72 140.40 79.97 135.14 74.39 132.57 C 69.57 130.20 63.90 130.91 58.78 131.71 C 59.53 128.40 60.45 125.19 62.18 122.24 Z" fill="#cfdae8" />
<path d="M 74.39 132.57 C 79.97 135.14 83.72 140.40 86.16 145.86 C 88.28 150.49 88.15 156.23 88.28 161.26 C 87.51 164.77 86.41 168.18 85.22 171.57 C 92.37 172.80 100.18 173.35 107.19 171.13 C 106.02 167.86 104.76 164.58 103.87 161.22 C 103.91 155.74 104.20 150.50 106.36 145.39 C 108.67 139.71 112.72 134.89 118.39 132.37 C 123.00 130.25 128.42 130.89 133.27 131.68 C 138.53 134.86 142.85 138.98 145.37 144.67 C 148.41 150.66 147.96 156.49 148.27 162.98 C 150.56 162.78 152.90 162.93 155.01 161.89 C 157.99 160.37 160.68 158.23 163.33 156.22 C 161.75 158.43 160.36 160.55 157.98 162.01 C 154.85 163.96 151.04 164.34 147.89 165.91 C 145.12 169.13 144.06 172.85 140.11 175.12 C 134.30 178.30 126.80 178.73 120.37 177.72 C 116.10 177.11 112.69 174.75 108.68 173.56 C 104.87 173.10 100.87 174.22 97.01 174.20 C 92.73 174.43 88.47 173.26 84.22 173.54 C 80.51 174.53 77.33 176.87 73.46 177.56 C 66.53 178.88 58.49 178.31 52.26 174.76 C 48.36 172.56 47.27 168.76 44.31 165.86 C 41.66 164.73 38.54 164.37 35.92 163.11 C 34.03 162.16 32.37 160.51 30.82 159.08 C 35.27 161.18 39.36 163.36 44.45 163.17 C 44.14 156.89 44.30 150.84 46.95 145.00 C 49.32 139.21 53.70 135.15 58.78 131.71 C 63.90 130.91 69.57 130.20 74.39 132.57 Z" fill="#97a3ab" />
<path d="M 63.42 141.45 C 69.00 140.09 74.45 142.74 77.91 147.08 C 82.70 153.02 84.57 162.23 81.32 169.29 C 79.20 173.79 74.71 175.59 70.02 176.05 C 65.15 176.49 58.86 176.30 54.79 173.20 C 50.40 169.84 49.38 163.35 50.18 158.20 C 51.31 150.78 55.86 143.52 63.42 141.45 Z" fill="#cfdae8" />
<path d="M 123.35 141.40 C 128.43 140.30 133.39 142.46 136.76 146.25 C 142.08 152.14 144.28 161.64 141.02 169.03 C 138.82 173.85 134.05 175.73 129.04 176.11 C 123.97 176.45 117.44 176.22 113.55 172.45 C 109.37 168.56 109.21 162.33 110.01 157.07 C 111.28 150.07 116.07 143.01 123.35 141.40 Z" fill="#cfdae8" />
<path d="M 164.91 153.87 C 164.35 157.20 163.15 160.29 160.65 162.65 C 156.28 166.95 150.14 166.70 146.34 171.38 C 143.54 174.53 141.42 177.65 137.26 179.15 C 129.46 181.87 120.40 181.29 112.81 178.10 C 106.74 175.71 101.31 177.00 95.00 176.79 C 90.93 176.79 86.31 176.20 82.40 177.38 C 78.49 178.54 75.04 180.23 70.90 180.63 C 65.29 181.17 58.84 180.81 53.76 178.14 C 49.71 176.01 47.26 171.74 43.66 169.31 C 39.79 166.83 34.68 165.99 31.33 162.67 C 29.43 160.82 28.64 158.54 27.84 156.08 C 28.80 157.12 29.78 158.13 30.82 159.08 C 32.37 160.51 34.03 162.16 35.92 163.11 C 38.54 164.37 41.66 164.73 44.31 165.86 C 47.27 168.76 48.36 172.56 52.26 174.76 C 58.49 178.31 66.53 178.88 73.46 177.56 C 77.33 176.87 80.51 174.53 84.22 173.54 C 88.47 173.26 92.73 174.43 97.01 174.20 C 100.87 174.22 104.87 173.10 108.68 173.56 C 112.69 174.75 116.10 177.11 120.37 177.72 C 126.80 178.73 134.30 178.30 140.11 175.12 C 144.06 172.85 145.12 169.13 147.89 165.91 C 151.04 164.34 154.85 163.96 157.98 162.01 C 160.36 160.55 161.75 158.43 163.33 156.22 C 163.88 155.45 164.40 154.66 164.91 153.87 Z" fill="#d1d1d1" />
<path d="M 88.28 161.26 C 93.52 161.80 98.64 161.95 103.87 161.22 C 104.76 164.58 106.02 167.86 107.19 171.13 C 100.18 173.35 92.37 172.80 85.22 171.57 C 86.41 168.18 87.51 164.77 88.28 161.26 Z" fill="#a8b2ba" /></svg>