<?xml version="1.0" encoding="UTF-8" standalone="no"?>
<!DOCTYPE svg PUBLIC "-//W3C//DTD SVG 1.1//EN" "http://www.w3.org/Graphics/SVG/1.1/DTD/svg11.dtd">
<svg viewBox="0 0 192 192" height="192.0pt" width="192.0pt" xmlns="http://www.w3.org/2000/svg" version="1.1">
<path d="M 58.86 14.52 C 66.82 14.90 75.05 15.46 82.36 18.68 C 84.93 19.66 87.24 21.32 89.84 22.17 C 93.30 21.70 96.64 20.79 100.14 20.53 C 110.16 20.10 120.03 19.99 129.86 22.30 C 138.62 15.86 150.73 14.92 161.25 14.44 C 165.09 22.27 165.85 31.85 163.36 40.19 C 162.37 43.85 159.92 45.88 157.58 48.61 C 160.09 56.92 162.00 65.37 163.09 73.99 C 163.34 77.16 163.54 80.32 164.09 83.47 C 162.98 80.66 162.30 77.78 161.73 74.82 C 160.09 76.92 158.55 79.09 157.01 81.26 C 155.86 80.25 154.68 79.28 153.53 78.27 C 157.55 72.24 157.72 63.85 156.05 57.02 C 154.98 52.43 150.69 51.57 146.84 50.21 C 139.15 48.02 130.82 45.26 123.11 48.90 C 120.49 46.15 118.08 43.32 115.31 40.81 C 113.14 44.44 111.13 48.16 109.05 51.84 C 111.14 54.20 113.26 56.52 115.38 58.84 C 116.60 58.15 117.81 57.47 119.03 56.79 C 118.67 62.39 119.06 67.68 120.43 73.13 C 117.75 77.57 116.93 83.23 115.22 88.12 C 111.31 87.93 107.37 87.94 103.46 88.13 C 102.15 82.89 100.49 77.76 99.08 72.56 C 99.63 69.62 100.11 66.69 100.42 63.71 C 101.53 65.22 102.66 66.72 103.82 68.20 C 107.11 66.22 110.36 64.18 113.50 61.96 C 110.38 58.77 106.95 55.96 103.65 52.96 C 102.61 54.80 101.57 56.64 100.66 58.54 C 99.98 55.37 99.31 52.47 96.82 50.19 C 94.27 47.36 91.09 47.28 87.56 46.92 C 90.58 44.60 93.85 42.65 96.90 40.39 C 93.28 36.94 89.89 33.26 86.22 29.87 C 83.92 33.47 81.80 37.18 79.70 40.89 C 76.50 39.91 73.29 38.97 70.07 38.07 C 70.39 41.84 68.84 47.35 71.39 50.41 C 68.14 51.76 64.49 52.59 63.42 56.42 C 61.85 62.54 61.82 69.75 64.26 75.66 C 63.29 77.34 62.35 79.04 61.41 80.74 C 59.72 79.01 58.00 77.30 56.26 75.61 C 57.31 71.72 57.77 68.17 57.85 64.15 C 58.54 58.56 60.59 53.45 61.78 47.99 C 58.81 45.33 56.36 42.48 55.44 38.49 C 53.92 31.33 54.87 23.84 56.65 16.82 C 57.33 15.86 57.35 14.19 58.86 14.52 Z" fill="#e6be64" />
<path d="M 56.65 16.82 C 54.87 23.84 53.92 31.33 55.44 38.49 C 56.36 42.48 58.81 45.33 61.78 47.99 C 60.59 53.45 58.54 58.56 57.85 64.15 C 57.85 58.19 56.17 52.60 53.83 47.18 C 52.71 44.64 50.95 42.61 49.00 40.67 C 52.82 37.70 50.96 33.97 51.74 29.73 C 52.55 25.24 52.20 19.48 56.65 16.82 Z" fill="#e3e3e3" />
<path d="M 157.34 22.47 C 158.19 26.08 159.38 29.24 159.18 33.02 C 159.06 36.70 157.44 40.06 154.99 42.76 C 152.89 39.27 151.00 35.83 148.05 32.95 C 145.36 30.12 142.17 28.30 139.00 26.10 C 144.70 22.83 150.88 22.17 157.34 22.47 Z" fill="#7a6540" />
<path d="M 62.79 22.37 C 68.76 22.44 74.55 23.29 80.13 25.44 C 78.20 27.79 75.21 28.86 72.98 30.98 C 69.10 34.25 66.60 38.40 64.04 42.70 C 59.44 37.38 59.43 30.96 61.51 24.55 C 61.69 23.42 62.11 22.70 62.79 22.37 Z" fill="#806c48" />
<path d="M 102.29 27.92 C 106.28 28.99 110.19 30.32 114.18 31.36 C 113.35 34.69 111.42 37.57 109.86 40.76 C 107.33 40.10 104.80 39.45 102.27 38.79 C 102.24 35.17 102.23 31.54 102.29 27.92 Z" fill="#7d6945" />
<path d="M 86.22 29.87 C 89.89 33.26 93.28 36.94 96.90 40.39 C 93.85 42.65 90.58 44.60 87.56 46.92 L 86.18 46.91 L 85.67 46.95 C 84.57 45.69 83.55 43.93 82.08 43.10 C 80.67 43.91 80.34 46.79 79.63 48.22 C 76.88 48.93 74.12 49.62 71.39 50.41 C 68.84 47.35 70.39 41.84 70.07 38.07 C 73.29 38.97 76.50 39.91 79.70 40.89 C 81.80 37.18 83.92 33.47 86.22 29.87 Z" fill="#7e6a46" />
<path d="M 138.04 30.16 C 141.69 33.26 144.84 36.96 148.35 40.23 C 145.26 43.06 141.43 45.12 137.99 47.51 C 135.71 45.19 133.53 42.79 131.52 40.24 C 133.65 37.37 135.59 32.36 138.04 30.16 Z" fill="#7a6641" />
<path d="M 49.00 40.67 C 50.95 42.61 52.71 44.64 53.83 47.18 C 56.17 52.60 57.85 58.19 57.85 64.15 C 57.77 68.17 57.31 71.72 56.26 75.61 C 56.01 76.77 55.77 77.94 55.54 79.11 C 52.32 76.03 49.51 72.49 46.06 69.71 C 42.67 72.50 39.62 75.63 36.77 78.96 C 39.68 82.30 42.73 85.40 46.05 88.32 C 49.28 85.52 51.78 82.12 55.41 79.75 L 55.21 81.35 C 52.88 86.04 51.18 90.94 48.48 95.45 C 45.29 96.41 42.71 98.38 39.62 99.56 C 35.44 101.14 31.27 102.62 26.81 103.21 C 28.12 93.91 32.08 86.13 35.46 77.53 C 36.90 73.19 38.49 67.57 36.70 63.15 C 35.22 58.35 31.40 53.49 32.38 48.31 C 33.74 40.98 42.52 36.53 49.00 40.67 Z" fill="#c7a050" />
<path d="M 115.31 40.81 C 118.08 43.32 120.49 46.15 123.11 48.90 C 120.41 50.94 119.68 53.64 119.03 56.79 C 117.81 57.47 116.60 58.15 115.38 58.84 C 113.26 56.52 111.14 54.20 109.05 51.84 C 111.13 48.16 113.14 44.44 115.31 40.81 Z" fill="#7c6843" />
<path d="M 82.08 43.10 C 83.55 43.93 84.57 45.69 85.67 46.95 C 83.64 47.30 81.63 47.74 79.63 48.22 C 80.34 46.79 80.67 43.91 82.08 43.10 Z" fill="#dcb866" />
<path d="M 46.92 46.92 C 49.93 49.62 52.57 52.65 55.04 55.84 C 50.79 58.31 46.39 60.53 42.02 62.79 C 40.34 59.03 39.39 55.08 38.33 51.12 C 41.00 49.28 43.77 47.77 46.92 46.92 Z" fill="#a98649" />
<path d="M 85.67 46.95 L 86.18 46.91 L 87.56 46.92 C 91.09 47.28 94.27 47.36 96.82 50.19 C 99.31 52.47 99.98 55.37 100.66 58.54 C 100.61 60.27 100.56 61.99 100.42 63.71 C 100.11 66.69 99.63 69.62 99.08 72.56 C 97.58 77.41 95.13 81.63 90.84 84.51 C 85.08 87.78 78.40 88.44 72.62 84.81 L 72.52 84.76 C 68.76 82.43 66.27 79.57 64.26 75.66 C 61.82 69.75 61.85 62.54 63.42 56.42 C 64.49 52.59 68.14 51.76 71.39 50.41 C 74.12 49.62 76.88 48.93 79.63 48.22 C 81.63 47.74 83.64 47.30 85.67 46.95 Z" fill="#ffe9be" />
<path d="M 146.84 50.21 C 150.69 51.57 154.98 52.43 156.05 57.02 C 157.72 63.85 157.55 72.24 153.53 78.27 C 151.54 81.29 148.92 83.47 145.84 85.29 C 144.22 85.96 142.60 86.61 140.93 87.14 C 139.90 87.19 138.87 87.22 137.84 87.25 C 134.28 87.29 131.21 86.11 128.11 84.48 C 124.17 81.66 121.72 77.78 120.43 73.13 C 119.06 67.68 118.67 62.39 119.03 56.79 C 119.68 53.64 120.41 50.94 123.11 48.90 C 130.82 45.26 139.15 48.02 146.84 50.21 Z" fill="#ffe8bc" />
<path d="M 103.65 52.96 C 106.95 55.96 110.38 58.77 113.50 61.96 C 110.36 64.18 107.11 66.22 103.82 68.20 C 102.66 66.72 101.53 65.22 100.42 63.71 C 100.56 61.99 100.61 60.27 100.66 58.54 C 101.57 56.64 102.61 54.80 103.65 52.96 Z" fill="#7c6843" />
<path d="M 90.53 59.53 C 93.76 60.41 96.09 61.61 96.77 65.16 C 97.66 69.80 96.47 75.73 93.38 79.41 C 88.25 84.99 79.34 86.19 72.90 82.14 C 66.98 78.96 64.31 71.92 65.65 65.50 C 66.40 62.37 66.86 59.39 70.16 57.99 C 70.53 58.13 70.90 58.28 71.26 58.43 L 73.01 59.23 C 69.96 62.45 69.70 66.34 70.61 70.51 C 72.70 77.07 81.88 79.80 87.68 76.59 C 92.63 74.60 93.84 68.83 92.96 64.08 C 92.34 62.50 90.96 61.30 89.49 60.53 C 83.82 59.09 78.09 58.77 72.33 57.92 C 78.31 57.25 84.68 58.26 90.53 59.53 Z" fill="#474c4f" />
<path d="M 140.51 57.82 C 143.59 57.69 147.46 57.33 150.33 58.67 C 152.81 60.16 153.11 63.41 153.56 66.00 C 154.39 71.89 152.53 78.00 147.44 81.42 C 141.13 86.15 131.72 85.36 126.26 79.72 C 123.19 76.33 122.67 72.33 122.19 67.96 C 122.07 65.20 122.70 61.80 125.58 60.63 C 130.14 58.62 135.60 58.35 140.51 57.82 Z" fill="#42474b" />
<path d="M 72.33 57.92 C 78.09 58.77 83.82 59.09 89.49 60.53 C 90.96 61.30 92.34 62.50 92.96 64.08 C 93.84 68.83 92.63 74.60 87.68 76.59 C 81.88 79.80 72.70 77.07 70.61 70.51 C 69.70 66.34 69.96 62.45 73.01 59.23 L 71.26 58.43 L 72.33 57.92 Z" fill="#ffffff" />
<path d="M 144.73 57.99 C 145.49 58.11 146.24 58.34 146.98 58.66 L 144.59 59.59 C 147.38 60.08 148.24 61.37 148.79 63.98 C 149.09 66.70 149.42 70.36 147.73 72.70 C 143.16 79.43 131.44 79.94 127.25 72.54 C 126.22 69.02 125.10 65.45 126.98 62.02 C 132.71 58.91 138.59 59.52 144.73 57.99 Z" fill="#ffffff" />
<path d="M 81.13 65.33 L 81.91 65.33 L 82.29 66.09 L 81.91 66.86 L 81.14 66.85 L 80.75 66.09 L 81.13 65.33 Z" fill="#c8c9ca" />
<path d="M 137.04 65.11 L 137.80 64.73 L 138.56 65.11 L 138.56 65.89 L 137.80 66.28 L 137.04 65.89 L 137.04 65.11 Z" fill="#c3c5c6" />
<path d="M 46.06 69.71 C 49.51 72.49 52.32 76.03 55.54 79.11 L 55.41 79.75 C 51.78 82.12 49.28 85.52 46.05 88.32 C 42.73 85.40 39.68 82.30 36.77 78.96 C 39.62 75.63 42.67 72.50 46.06 69.71 Z" fill="#a88548" />
<path d="M 99.08 72.56 C 100.49 77.76 102.15 82.89 103.46 88.13 C 101.51 88.25 99.56 88.38 97.63 88.61 C 95.40 87.18 93.14 85.82 90.84 84.51 C 95.13 81.63 97.58 77.41 99.08 72.56 Z" fill="#7c6843" />
<path d="M 120.43 73.13 C 121.72 77.78 124.17 81.66 128.11 84.48 C 125.67 85.87 123.25 87.27 120.83 88.69 C 118.96 88.42 117.10 88.26 115.22 88.12 C 116.93 83.23 117.75 77.57 120.43 73.13 Z" fill="#7a6641" />
<path d="M 161.73 74.82 C 162.30 77.78 162.98 80.66 164.09 83.47 C 164.67 86.43 165.03 89.44 165.57 92.41 C 165.13 95.95 165.19 99.48 165.01 103.03 C 164.94 107.38 161.00 111.09 158.53 114.43 C 155.24 117.35 150.97 119.35 146.94 121.03 C 143.22 122.48 139.40 123.71 135.55 124.79 C 131.53 125.50 128.91 126.29 125.89 129.16 C 121.74 130.74 117.24 131.89 112.78 131.93 C 110.51 131.95 108.24 131.95 105.97 131.91 C 102.35 131.76 98.74 130.83 95.25 129.83 C 92.88 128.48 90.62 126.21 87.94 125.64 C 82.58 124.39 77.41 122.55 72.29 120.57 C 67.25 118.46 62.56 116.41 58.78 112.31 C 57.19 109.77 55.31 106.99 54.75 104.03 C 52.94 96.63 55.84 89.14 55.21 81.35 L 55.41 79.75 L 55.54 79.11 C 55.77 77.94 56.01 76.77 56.26 75.61 C 58.00 77.30 59.72 79.01 61.41 80.74 C 63.84 83.34 66.74 85.27 69.73 87.15 C 75.83 90.65 82.70 94.31 89.74 95.24 C 94.01 99.37 99.05 102.31 105.00 103.16 C 105.15 105.16 105.32 107.15 105.51 109.15 C 101.75 107.94 96.54 105.42 92.85 107.79 C 90.37 108.67 90.25 112.72 91.50 114.54 C 94.30 117.27 98.46 118.84 102.20 119.76 C 110.20 121.58 119.69 120.42 126.37 115.39 C 129.94 113.06 128.03 107.13 124.02 106.84 C 120.34 106.63 116.43 108.31 112.82 109.04 C 112.96 107.13 113.12 105.22 113.35 103.32 C 119.14 102.57 126.31 100.40 127.98 94.03 C 129.70 94.60 131.44 95.10 133.18 95.58 C 134.98 98.05 136.97 100.32 139.08 102.52 C 142.49 100.60 145.85 98.61 149.33 96.82 C 149.37 99.81 149.37 102.80 149.33 105.79 C 152.60 106.73 155.86 107.68 159.13 108.63 C 160.82 104.80 162.29 100.87 163.97 97.03 C 159.42 95.54 154.79 94.28 150.17 93.03 C 149.55 93.37 148.92 93.71 148.30 94.05 C 147.02 92.80 145.73 91.57 144.41 90.36 C 145.81 89.34 147.27 88.41 148.75 87.51 C 151.87 85.70 154.88 84.30 157.01 81.26 C 158.55 79.09 160.09 76.92 161.73 74.82 Z" fill="#ffe8bc" />
<path d="M 64.26 75.66 C 66.27 79.57 68.76 82.43 72.52 84.76 C 71.57 85.53 70.65 86.34 69.73 87.15 C 66.74 85.27 63.84 83.34 61.41 80.74 C 62.35 79.04 63.29 77.34 64.26 75.66 Z" fill="#7d6945" />
<path d="M 153.53 78.27 C 154.68 79.28 155.86 80.25 157.01 81.26 C 154.88 84.30 151.87 85.70 148.75 87.51 C 147.78 86.77 146.83 86.01 145.84 85.29 C 148.92 83.47 151.54 81.29 153.53 78.27 Z" fill="#79643f" />
<path d="M 55.21 81.35 C 55.84 89.14 52.94 96.63 54.75 104.03 C 55.31 106.99 57.19 109.77 58.78 112.31 C 57.92 114.24 57.08 116.14 56.45 118.16 C 55.77 112.34 53.51 106.90 52.54 101.11 C 52.51 100.16 51.36 98.43 50.40 99.46 C 46.29 102.44 46.14 108.82 44.74 113.34 C 44.47 112.13 44.22 110.92 43.99 109.71 L 43.90 109.29 C 44.40 104.32 46.16 99.83 48.48 95.45 C 51.18 90.94 52.88 86.04 55.21 81.35 Z" fill="#d5d5d5" />
<path d="M 72.52 84.76 L 72.62 84.81 C 78.40 88.44 85.08 87.78 90.84 84.51 C 93.14 85.82 95.40 87.18 97.63 88.61 C 94.18 89.96 89.41 90.47 89.74 95.24 C 82.70 94.31 75.83 90.65 69.73 87.15 C 70.65 86.34 71.57 85.53 72.52 84.76 Z" fill="#e6be64" />
<path d="M 128.11 84.48 C 131.21 86.11 134.28 87.29 137.84 87.25 C 136.21 89.98 134.83 92.86 133.18 95.58 C 131.44 95.10 129.70 94.60 127.98 94.03 C 127.48 92.84 127.00 91.64 126.51 90.45 C 124.63 89.79 122.77 89.13 120.83 88.69 C 123.25 87.27 125.67 85.87 128.11 84.48 Z" fill="#e5bd61" />
<path d="M 145.84 85.29 C 146.83 86.01 147.78 86.77 148.75 87.51 C 147.27 88.41 145.81 89.34 144.41 90.36 C 143.24 89.30 142.07 88.23 140.93 87.14 C 142.60 86.61 144.22 85.96 145.84 85.29 Z" fill="#dbb664" />
<path d="M 137.84 87.25 C 138.87 87.22 139.90 87.19 140.93 87.14 C 142.07 88.23 143.24 89.30 144.41 90.36 C 145.73 91.57 147.02 92.80 148.30 94.05 C 148.92 93.71 149.55 93.37 150.17 93.03 C 154.79 94.28 159.42 95.54 163.97 97.03 C 162.29 100.87 160.82 104.80 159.13 108.63 C 155.86 107.68 152.60 106.73 149.33 105.79 C 149.37 102.80 149.37 99.81 149.33 96.82 C 145.85 98.61 142.49 100.60 139.08 102.52 C 136.97 100.32 134.98 98.05 133.18 95.58 C 134.83 92.86 136.21 89.98 137.84 87.25 Z" fill="#78633e" />
<path d="M 97.63 88.61 C 99.56 88.38 101.51 88.25 103.46 88.13 C 107.37 87.94 111.31 87.93 115.22 88.12 C 117.10 88.26 118.96 88.42 120.83 88.69 C 122.77 89.13 124.63 89.79 126.51 90.45 C 127.00 91.64 127.48 92.84 127.98 94.03 C 126.31 100.40 119.14 102.57 113.35 103.32 C 110.52 103.76 107.81 103.65 105.00 103.16 C 99.05 102.31 94.01 99.37 89.74 95.24 C 89.41 90.47 94.18 89.96 97.63 88.61 Z" fill="#f15e65" />
<path d="M 165.57 92.41 C 167.09 96.64 166.71 101.58 166.33 105.99 C 165.05 110.82 162.32 115.35 160.08 119.79 C 159.57 118.00 159.03 116.22 158.53 114.43 C 161.00 111.09 164.94 107.38 165.01 103.03 C 165.19 99.48 165.13 95.95 165.57 92.41 Z" fill="#d6d2c9" />
<path d="M 48.48 95.45 C 46.16 99.83 44.40 104.32 43.90 109.29 C 41.44 106.90 39.16 104.37 36.82 101.86 C 34.14 102.61 31.76 103.94 29.39 105.36 C 30.31 108.87 31.28 112.32 32.92 115.59 C 36.70 113.79 40.19 111.47 43.99 109.71 C 44.22 110.92 44.47 112.13 44.74 113.34 C 46.37 118.75 50.66 121.21 55.65 123.06 C 55.92 121.42 56.18 119.79 56.45 118.16 C 57.08 116.14 57.92 114.24 58.78 112.31 C 62.56 116.41 67.25 118.46 72.29 120.57 C 72.07 121.77 71.85 122.96 71.63 124.16 C 70.81 123.44 69.95 122.77 69.07 122.13 C 66.24 123.24 63.62 124.70 60.98 126.20 C 61.57 130.32 62.95 134.17 64.26 138.10 C 67.08 137.11 69.59 135.60 72.10 134.02 C 72.97 141.21 73.37 148.34 75.05 155.43 C 70.98 154.04 65.67 152.55 62.86 149.08 C 60.38 145.61 58.52 141.52 57.50 137.37 L 57.19 136.20 C 54.70 135.97 52.19 135.89 49.70 135.65 C 51.72 132.99 55.43 131.73 58.12 129.77 C 56.05 126.88 53.81 124.66 50.99 122.51 C 48.69 123.35 46.65 124.59 44.66 125.99 C 45.14 128.55 45.60 131.12 46.06 133.68 C 44.57 133.66 43.08 133.64 41.58 133.56 C 35.48 130.20 30.43 124.45 28.35 117.75 C 27.92 116.48 27.39 115.24 26.75 114.04 C 26.75 110.40 26.44 106.86 26.81 103.21 C 31.27 102.62 35.44 101.14 39.62 99.56 C 42.71 98.38 45.29 96.41 48.48 95.45 Z" fill="#c69d4a" />
<path d="M 69.40 95.90 C 72.77 98.14 75.61 101.23 78.62 103.92 C 75.64 106.07 72.63 108.17 69.68 110.35 C 67.73 108.22 65.85 106.04 64.00 103.82 C 65.82 101.19 67.47 98.45 69.40 95.90 Z" fill="#7c6843" />
<path d="M 50.40 99.46 C 51.36 98.43 52.51 100.16 52.54 101.11 C 53.51 106.90 55.77 112.34 56.45 118.16 C 56.18 119.79 55.92 121.42 55.65 123.06 C 50.66 121.21 46.37 118.75 44.74 113.34 C 46.14 108.82 46.29 102.44 50.40 99.46 Z" fill="#f2f2f2" />
<path d="M 36.82 101.86 C 39.16 104.37 41.44 106.90 43.90 109.29 L 43.99 109.71 C 40.19 111.47 36.70 113.79 32.92 115.59 C 31.28 112.32 30.31 108.87 29.39 105.36 C 31.76 103.94 34.14 102.61 36.82 101.86 Z" fill="#a78446" />
<path d="M 105.00 103.16 C 107.81 103.65 110.52 103.76 113.35 103.32 C 113.12 105.22 112.96 107.13 112.82 109.04 C 116.43 108.31 120.34 106.63 124.02 106.84 C 128.03 107.13 129.94 113.06 126.37 115.39 C 119.69 120.42 110.20 121.58 102.20 119.76 C 98.46 118.84 94.30 117.27 91.50 114.54 C 90.25 112.72 90.37 108.67 92.85 107.79 C 96.54 105.42 101.75 107.94 105.51 109.15 C 105.32 107.15 105.15 105.16 105.00 103.16 Z" fill="#42474b" />
<path d="M 26.75 114.04 C 27.39 115.24 27.92 116.48 28.35 117.75 C 30.43 124.45 35.48 130.20 41.58 133.56 C 46.64 136.35 51.72 137.49 57.50 137.37 C 58.52 141.52 60.38 145.61 62.86 149.08 C 65.67 152.55 70.98 154.04 75.05 155.43 C 76.40 161.87 78.68 169.11 85.61 171.39 C 92.44 173.72 100.42 173.70 107.40 172.00 C 107.92 173.64 108.48 175.25 109.09 176.85 C 109.87 175.32 110.31 173.72 110.67 172.05 C 119.12 173.52 127.28 173.89 135.30 170.31 C 140.41 167.86 142.56 161.43 143.70 156.29 C 147.91 154.71 152.85 153.40 155.81 149.78 C 158.69 145.87 159.62 140.15 160.52 135.47 C 161.34 137.43 161.78 138.84 161.18 140.94 C 160.16 145.14 159.26 149.93 156.10 153.08 C 153.50 155.97 150.30 157.22 147.13 159.28 C 144.08 160.99 143.12 165.31 141.29 168.18 C 138.70 172.75 133.87 175.02 128.97 176.28 C 122.85 177.27 116.34 175.80 110.03 177.23 C 106.44 178.20 103.38 175.96 99.78 176.95 C 97.08 177.55 94.70 176.88 92.01 176.63 C 87.64 176.32 83.48 174.79 80.40 171.60 C 77.31 168.67 76.37 165.08 74.29 161.55 C 71.90 157.55 66.98 156.34 63.56 153.46 C 60.24 150.42 58.99 145.36 55.78 142.33 C 53.30 140.95 50.19 140.61 47.49 139.73 C 38.15 137.12 30.75 129.46 27.37 120.50 C 26.21 118.33 26.54 116.40 26.75 114.04 Z" fill="#cfcfcf" />
<path d="M 158.53 114.43 C 159.03 116.22 159.57 118.00 160.08 119.79 C 160.64 124.99 160.79 130.25 160.52 135.47 C 159.62 140.15 158.69 145.87 155.81 149.78 C 152.85 153.40 147.91 154.71 143.70 156.29 C 144.56 152.06 145.02 147.78 146.02 143.58 C 148.65 144.38 151.34 144.78 154.07 145.07 C 155.06 140.40 155.20 135.69 154.94 130.93 C 152.31 131.28 149.71 131.72 147.14 132.41 C 146.96 128.62 146.92 124.83 146.94 121.03 C 150.97 119.35 155.24 117.35 158.53 114.43 Z" fill="#c49a45" />
<path d="M 72.29 120.57 C 77.41 122.55 82.58 124.39 87.94 125.64 C 84.34 127.48 81.12 129.76 77.87 132.14 C 81.55 136.57 85.69 140.72 89.73 144.82 C 92.08 141.10 94.40 137.30 96.36 133.36 C 97.21 131.99 95.86 131.01 95.25 129.83 C 98.74 130.83 102.35 131.76 105.97 131.91 C 104.64 137.82 104.99 144.35 104.94 150.42 C 101.25 147.27 98.28 143.44 94.67 140.21 C 92.36 143.40 89.95 146.64 88.13 150.13 C 88.87 152.87 92.81 155.55 94.91 157.48 C 98.32 155.29 101.53 152.84 104.95 150.68 C 104.84 157.82 106.16 164.64 107.55 171.60 C 100.56 173.57 92.63 173.01 85.61 171.39 C 78.68 169.11 76.40 161.87 75.05 155.43 C 73.37 148.34 72.97 141.21 72.10 134.02 C 73.88 132.92 75.66 131.84 77.45 130.76 C 75.75 128.31 73.65 126.34 71.63 124.16 C 71.85 122.96 72.07 121.77 72.29 120.57 Z" fill="#e5bc5f" />
<path d="M 146.94 121.03 C 146.92 124.83 146.96 128.62 147.14 132.41 C 145.83 132.78 144.52 133.17 143.20 133.55 C 143.00 136.60 143.00 139.60 143.18 142.65 C 144.13 142.97 145.07 143.28 146.02 143.58 C 145.02 147.78 144.56 152.06 143.70 156.29 C 142.56 161.43 140.41 167.86 135.30 170.31 C 128.64 172.60 121.95 173.38 114.95 172.44 C 113.53 171.93 112.24 170.93 110.99 170.10 C 114.57 159.47 114.47 149.03 113.93 137.97 C 113.73 135.90 113.23 133.95 112.78 131.93 C 117.24 131.89 121.74 130.74 125.89 129.16 C 125.74 130.02 125.58 130.88 125.41 131.73 C 127.38 134.17 129.34 136.54 131.88 138.43 C 135.34 136.31 138.74 134.12 142.03 131.73 C 139.94 129.37 137.79 127.02 135.55 124.79 C 139.40 123.71 143.22 122.48 146.94 121.03 Z" fill="#e5bc5e" />
<path d="M 69.07 122.13 C 69.95 122.77 70.81 123.44 71.63 124.16 C 73.65 126.34 75.75 128.31 77.45 130.76 C 75.66 131.84 73.88 132.92 72.10 134.02 C 69.59 135.60 67.08 137.11 64.26 138.10 C 62.95 134.17 61.57 130.32 60.98 126.20 C 63.62 124.70 66.24 123.24 69.07 122.13 Z" fill="#a58142" />
<path d="M 50.99 122.51 C 53.81 124.66 56.05 126.88 58.12 129.77 C 55.43 131.73 51.72 132.99 49.70 135.65 C 52.19 135.89 54.70 135.97 57.19 136.20 L 57.50 137.37 C 51.72 137.49 46.64 136.35 41.58 133.56 C 43.08 133.64 44.57 133.66 46.06 133.68 C 45.60 131.12 45.14 128.55 44.66 125.99 C 46.65 124.59 48.69 123.35 50.99 122.51 Z" fill="#a58243" />
<path d="M 135.55 124.79 C 137.79 127.02 139.94 129.37 142.03 131.73 C 138.74 134.12 135.34 136.31 131.88 138.43 C 129.34 136.54 127.38 134.17 125.41 131.73 C 125.58 130.88 125.74 130.02 125.89 129.16 C 128.91 126.29 131.53 125.50 135.55 124.79 Z" fill="#bc9343" />
<path d="M 87.94 125.64 C 90.62 126.21 92.88 128.48 95.25 129.83 C 95.86 131.01 97.21 131.99 96.36 133.36 C 94.40 137.30 92.08 141.10 89.73 144.82 C 85.69 140.72 81.55 136.57 77.87 132.14 C 81.12 129.76 84.34 127.48 87.94 125.64 Z" fill="#bd9545" />
<path d="M 154.94 130.93 C 155.20 135.69 155.06 140.40 154.07 145.07 C 151.34 144.78 148.65 144.38 146.02 143.58 C 145.07 143.28 144.13 142.97 143.18 142.65 C 143.00 139.60 143.00 136.60 143.20 133.55 C 144.52 133.17 145.83 132.78 147.14 132.41 C 149.71 131.72 152.31 131.28 154.94 130.93 Z" fill="#a37e3d" />
<path d="M 105.97 131.91 C 108.24 131.95 110.51 131.95 112.78 131.93 C 113.23 133.95 113.73 135.90 113.93 137.97 C 114.47 149.03 114.57 159.47 110.99 170.10 C 112.24 170.93 113.53 171.93 114.95 172.44 C 121.95 173.38 128.64 172.60 135.30 170.31 C 127.28 173.89 119.12 173.52 110.67 172.05 C 110.31 173.72 109.87 175.32 109.09 176.85 C 108.48 175.25 107.92 173.64 107.40 172.00 C 100.42 173.70 92.44 173.72 85.61 171.39 C 92.63 173.01 100.56 173.57 107.55 171.60 C 106.16 164.64 104.84 157.82 104.95 150.68 L 104.94 150.42 C 104.99 144.35 104.64 137.82 105.97 131.91 Z" fill="#3f4448" />
<path d="M 133.00 139.06 C 133.28 144.72 132.93 150.33 132.60 155.99 C 127.81 155.55 123.64 154.01 118.91 152.83 C 118.63 149.25 119.02 145.74 119.25 142.17 C 123.79 140.83 128.35 139.95 133.00 139.06 Z" fill="#bc9342" />
<path d="M 94.67 140.21 C 98.28 143.44 101.25 147.27 104.94 150.42 L 104.95 150.68 C 101.53 152.84 98.32 155.29 94.91 157.48 C 92.81 155.55 88.87 152.87 88.13 150.13 C 89.95 146.64 92.36 143.40 94.67 140.21 Z" fill="#bc9444" /></svg>