<?xml version="1.0" encoding="UTF-8" standalone="no"?>
<!DOCTYPE svg PUBLIC "-//W3C//DTD SVG 1.1//EN" "http://www.w3.org/Graphics/SVG/1.1/DTD/svg11.dtd">
<svg viewBox="0 0 192 192" height="192.0pt" width="192.0pt" xmlns="http://www.w3.org/2000/svg" version="1.1">
<path d="M 57.06 15.12 C 65.36 13.77 73.95 15.08 80.75 20.25 C 86.17 24.51 91.24 30.09 92.35 37.14 C 89.94 38.00 87.52 38.83 85.13 39.76 C 82.60 32.52 76.10 27.09 68.69 25.41 C 64.48 24.67 59.95 24.66 55.82 25.82 C 47.84 28.33 41.15 35.52 39.73 43.84 C 38.13 51.68 40.67 59.98 46.51 65.49 C 50.03 69.10 54.44 70.79 59.19 72.17 C 58.71 73.40 58.27 74.62 57.70 75.81 C 55.76 76.46 53.08 75.41 51.10 75.05 C 44.86 72.18 39.75 67.69 35.96 61.97 C 29.22 50.73 30.78 35.27 39.51 25.51 C 41.58 23.23 43.83 21.10 46.12 19.05 C 49.58 17.49 53.32 15.76 57.06 15.12 Z" fill="#bababa" />
<path d="M 139.86 16.08 C 145.04 18.94 149.86 21.68 153.47 26.54 C 161.34 36.45 162.60 51.08 156.03 61.97 C 153.56 65.94 149.81 69.29 146.21 72.24 C 142.49 73.47 138.86 75.59 135.01 76.27 C 133.69 75.72 133.44 73.37 132.81 72.16 C 138.30 70.70 143.23 68.40 146.95 63.97 C 155.06 55.09 154.60 40.38 146.03 31.96 C 137.96 23.20 123.08 22.48 113.94 29.93 C 110.66 32.47 108.69 35.74 106.62 39.24 C 104.30 38.54 101.96 37.90 99.63 37.20 C 100.85 29.70 106.91 23.12 113.04 19.03 C 121.32 13.77 130.59 13.91 139.86 16.08 Z" fill="#b7b7b7" />
<path d="M 139.86 16.08 C 141.01 16.31 142.14 16.60 143.26 16.94 C 157.67 23.44 166.71 40.19 162.67 55.76 C 161.31 62.40 157.76 68.23 153.02 73.00 C 149.45 76.40 144.94 78.11 141.17 81.14 C 140.47 81.71 140.04 82.37 139.89 83.12 C 140.16 87.48 141.36 91.60 141.06 96.04 C 140.91 103.07 137.13 109.41 132.14 114.14 C 130.34 115.98 127.99 117.81 126.80 120.12 C 126.38 122.55 127.49 125.36 128.23 127.67 C 131.28 136.31 132.47 145.68 131.57 154.80 C 131.02 159.84 127.74 162.77 125.87 167.16 C 125.00 169.46 128.40 171.72 129.92 173.02 C 127.27 171.90 124.57 170.91 121.88 169.87 C 121.58 169.23 121.31 168.58 121.06 167.92 C 122.95 162.85 127.45 159.33 128.54 153.59 C 129.78 146.39 128.15 138.46 126.62 131.38 C 125.72 126.80 123.18 122.70 122.38 118.15 C 123.92 115.00 127.60 112.58 129.99 109.99 C 135.29 105.14 139.27 97.32 137.95 90.01 C 137.49 86.28 136.07 82.20 136.42 78.47 C 139.43 76.00 143.31 74.96 146.21 72.24 C 149.81 69.29 153.56 65.94 156.03 61.97 C 162.60 51.08 161.34 36.45 153.47 26.54 C 149.86 21.68 145.04 18.94 139.86 16.08 Z" fill="#e8e8e8" />
<path d="M 46.12 19.05 C 43.83 21.10 41.58 23.23 39.51 25.51 C 30.78 35.27 29.22 50.73 35.96 61.97 C 39.75 67.69 44.86 72.18 51.10 75.05 C 53.01 76.57 56.30 77.89 55.64 80.86 C 55.05 86.97 52.72 91.87 54.68 98.13 C 57.06 106.44 62.94 110.57 68.59 116.43 C 70.67 118.41 68.98 120.00 68.19 122.10 C 62.53 123.89 58.99 127.94 55.23 132.26 C 49.72 138.93 46.80 147.24 48.94 155.86 C 50.34 163.61 55.79 168.83 62.40 172.53 C 73.67 179.26 87.24 179.73 100.00 179.82 C 108.51 179.78 117.39 181.45 125.82 180.60 C 127.60 180.55 128.09 179.35 129.09 178.13 C 129.73 177.56 130.39 177.01 131.07 176.48 C 131.77 176.06 132.47 175.65 133.18 175.24 L 133.70 175.68 C 134.03 177.39 133.92 179.48 132.93 180.96 C 131.65 182.41 129.69 183.30 127.81 183.63 C 117.18 184.74 107.32 182.57 97.00 182.83 C 84.85 182.77 71.33 181.67 60.74 175.19 C 55.91 172.17 50.67 168.16 48.04 162.99 C 44.15 156.31 44.14 147.49 47.70 140.68 C 50.48 134.99 54.40 129.35 59.65 125.69 C 61.72 124.07 64.26 122.61 65.17 119.99 C 63.29 117.05 60.23 114.78 57.98 112.05 C 54.18 107.42 51.34 102.15 51.08 96.04 C 50.71 91.61 52.10 87.47 52.16 83.12 C 51.23 80.14 47.19 78.71 44.75 77.14 C 37.15 72.23 31.39 64.67 29.41 55.76 C 27.27 48.03 29.05 39.44 32.49 32.38 C 35.61 26.99 40.04 21.17 46.12 19.05 Z" fill="#e8e8e8" />
<path d="M 68.69 25.41 C 76.10 27.09 82.60 32.52 85.13 39.76 C 72.55 45.83 64.78 59.98 59.19 72.17 C 54.44 70.79 50.03 69.10 46.51 65.49 C 40.67 59.98 38.13 51.68 39.73 43.84 C 41.15 35.52 47.84 28.33 55.82 25.82 C 59.95 24.66 64.48 24.67 68.69 25.41 Z" fill="#ffc8d5" />
<path d="M 146.03 31.96 C 154.60 40.38 155.06 55.09 146.95 63.97 C 143.23 68.40 138.30 70.70 132.81 72.16 C 126.86 58.87 119.68 46.61 106.62 39.24 C 108.69 35.74 110.66 32.47 113.94 29.93 C 123.08 22.48 137.96 23.20 146.03 31.96 Z" fill="#ffc6d4" />
<path d="M 92.35 37.14 C 94.91 37.61 97.07 37.62 99.63 37.20 C 101.96 37.90 104.30 38.54 106.62 39.24 C 119.68 46.61 126.86 58.87 132.81 72.16 C 133.44 73.37 133.69 75.72 135.01 76.27 C 138.86 75.59 142.49 73.47 146.21 72.24 C 143.31 74.96 139.43 76.00 136.42 78.47 C 136.07 82.20 137.49 86.28 137.95 90.01 C 139.27 97.32 135.29 105.14 129.99 109.99 C 127.60 112.58 123.92 115.00 122.38 118.15 C 123.18 122.70 125.72 126.80 126.62 131.38 C 128.15 138.46 129.78 146.39 128.54 153.59 C 127.45 159.33 122.95 162.85 121.06 167.92 C 121.31 168.58 121.58 169.23 121.88 169.87 C 116.41 168.31 111.69 171.15 106.12 169.82 C 103.99 169.14 102.09 167.72 99.93 167.15 C 97.96 166.83 95.93 166.86 93.94 166.99 C 90.25 167.13 87.84 170.05 84.05 170.13 C 81.24 170.24 77.60 170.40 75.13 168.84 C 72.97 167.61 72.09 165.17 70.77 163.17 C 68.51 159.34 64.63 157.72 64.01 152.95 C 62.93 142.41 64.69 132.04 68.19 122.10 C 68.98 120.00 70.67 118.41 68.59 116.43 C 62.94 110.57 57.06 106.44 54.68 98.13 C 52.72 91.87 55.05 86.97 55.64 80.86 C 56.30 77.89 53.01 76.57 51.10 75.05 C 53.08 75.41 55.76 76.46 57.70 75.81 C 58.27 74.62 58.71 73.40 59.19 72.17 C 64.78 59.98 72.55 45.83 85.13 39.76 C 87.52 38.83 89.94 38.00 92.35 37.14 Z" fill="#c5c6c7" />
<path d="M 75.16 68.15 C 82.61 66.71 90.41 70.96 92.79 78.22 C 93.81 83.13 93.75 88.39 90.46 92.46 C 88.32 95.47 85.31 96.77 82.08 98.27 C 79.15 98.25 76.08 98.36 73.20 97.79 C 70.46 97.12 68.01 94.71 65.85 92.97 C 64.28 90.26 62.88 87.67 62.60 84.48 C 61.94 76.80 67.43 69.32 75.16 68.15 Z" fill="#ffffff" />
<path d="M 114.00 67.91 C 121.31 67.76 127.60 72.93 129.12 80.03 C 130.35 84.91 128.26 88.75 126.05 92.92 C 123.90 94.68 121.45 96.96 118.73 97.71 C 115.90 98.36 112.82 98.25 109.93 98.28 C 106.70 96.78 103.69 95.46 101.55 92.45 C 98.29 88.39 98.24 83.10 99.24 78.22 C 101.21 72.06 107.54 67.71 114.00 67.91 Z" fill="#ffffff" />
<path d="M 73.37 72.35 C 79.47 69.85 86.74 72.62 89.20 78.80 C 91.68 84.37 88.35 91.64 82.70 93.71 C 77.46 95.14 71.60 94.39 68.31 89.66 C 63.99 83.72 66.52 75.00 73.37 72.35 Z" fill="#464b4f" />
<path d="M 109.30 72.24 C 113.56 70.68 119.04 71.33 122.28 74.71 C 126.28 78.66 127.24 85.94 123.26 90.24 C 118.47 96.21 107.91 95.74 103.79 89.20 C 99.75 83.22 102.86 74.94 109.30 72.24 Z" fill="#44484c" />
<path d="M 65.85 92.97 C 68.01 94.71 70.46 97.12 73.20 97.79 C 76.08 98.36 79.15 98.25 82.08 98.27 C 81.94 100.87 82.60 104.68 80.71 106.72 C 77.24 110.87 70.64 112.00 65.71 110.22 C 62.20 108.51 57.97 104.39 58.92 100.09 C 59.63 96.42 62.94 94.74 65.85 92.97 Z" fill="#ffc7d4" />
<path d="M 126.05 92.92 C 129.20 94.71 132.45 96.06 133.08 100.07 C 134.08 104.75 129.91 108.20 126.27 110.18 C 121.19 112.10 114.15 110.73 110.85 106.17 C 109.54 104.01 110.08 100.73 109.93 98.28 C 112.82 98.25 115.90 98.36 118.73 97.71 C 121.45 96.96 123.90 94.68 126.05 92.92 Z" fill="#ffc6d3" />
<path d="M 90.14 97.09 C 93.68 96.49 97.42 96.55 100.98 96.92 C 104.35 97.42 107.51 99.24 107.76 102.97 C 107.54 105.88 104.76 108.52 103.53 111.11 C 103.83 112.38 104.32 113.60 104.66 114.86 C 102.96 116.63 100.21 117.29 98.04 118.41 C 94.79 120.04 91.57 119.54 88.10 119.18 C 88.99 117.08 90.19 115.12 91.02 113.01 C 88.19 109.69 85.00 107.60 84.19 102.97 C 84.52 99.64 87.07 97.77 90.14 97.09 Z" fill="#43484c" />
<path d="M 68.19 122.10 C 64.69 132.04 62.93 142.41 64.01 152.95 C 64.63 157.72 68.51 159.34 70.77 163.17 C 72.09 165.17 72.97 167.61 75.13 168.84 C 77.60 170.40 81.24 170.24 84.05 170.13 C 87.84 170.05 90.25 167.13 93.94 166.99 C 95.93 166.86 97.96 166.83 99.93 167.15 C 102.09 167.72 103.99 169.14 106.12 169.82 C 111.69 171.15 116.41 168.31 121.88 169.87 C 124.57 170.91 127.27 171.90 129.92 173.02 C 131.02 173.74 132.12 174.46 133.18 175.24 C 132.47 175.65 131.77 176.06 131.07 176.48 C 129.34 176.61 127.62 176.42 125.89 176.61 C 120.93 177.15 116.06 175.92 111.00 175.88 C 101.18 175.74 91.38 175.35 81.56 174.45 C 76.09 174.08 71.19 171.74 65.77 171.11 C 58.49 168.06 52.89 162.63 48.94 155.86 C 46.80 147.24 49.72 138.93 55.23 132.26 C 58.99 127.94 62.53 123.89 68.19 122.10 Z" fill="#fc98b3" />
<path d="M 48.94 155.86 C 52.89 162.63 58.49 168.06 65.77 171.11 C 73.50 175.83 83.31 175.98 92.08 176.71 C 99.53 177.43 106.96 176.73 114.40 177.55 C 119.29 178.11 124.18 178.06 129.09 178.13 C 128.09 179.35 127.60 180.55 125.82 180.60 C 117.39 181.45 108.51 179.78 100.00 179.82 C 87.24 179.73 73.67 179.26 62.40 172.53 C 55.79 168.83 50.34 163.61 48.94 155.86 Z" fill="#d0d0d0" />
<path d="M 65.77 171.11 C 71.19 171.74 76.09 174.08 81.56 174.45 C 91.38 175.35 101.18 175.74 111.00 175.88 C 116.06 175.92 120.93 177.15 125.89 176.61 C 127.62 176.42 129.34 176.61 131.07 176.48 C 130.39 177.01 129.73 177.56 129.09 178.13 C 124.18 178.06 119.29 178.11 114.40 177.55 C 106.96 176.73 99.53 177.43 92.08 176.71 C 83.31 175.98 73.50 175.83 65.77 171.11 Z" fill="#cf8c9e" /></svg>