<?xml version="1.0" encoding="UTF-8" standalone="no"?>
<!DOCTYPE svg PUBLIC "-//W3C//DTD SVG 1.1//EN" "http://www.w3.org/Graphics/SVG/1.1/DTD/svg11.dtd">
<svg viewBox="0 0 192 192" height="192.0pt" width="192.0pt" xmlns="http://www.w3.org/2000/svg" version="1.1">
<path d="M 96.00 19.76 C 105.88 19.71 113.81 23.99 121.97 29.00 C 129.34 35.86 134.01 43.70 136.60 53.43 C 139.94 64.98 139.06 76.16 138.30 87.95 C 145.79 81.61 151.16 73.96 158.01 66.96 C 159.65 65.88 161.39 64.93 163.10 63.93 C 160.83 67.37 158.60 70.82 156.15 74.14 C 150.22 82.25 145.62 90.35 138.54 97.53 C 136.33 99.75 134.92 102.39 133.33 105.05 C 139.80 106.30 146.25 106.25 152.79 106.05 C 154.12 106.03 155.45 106.02 156.78 106.01 C 161.94 105.92 166.55 106.38 171.56 107.61 C 159.27 110.40 146.50 111.94 133.92 112.43 C 132.12 112.72 130.36 113.17 128.53 113.34 C 132.32 117.77 135.91 122.35 139.54 126.91 C 140.45 128.00 141.39 129.07 142.37 130.10 C 144.61 132.39 147.03 134.45 149.60 136.35 C 155.46 140.75 161.56 144.51 166.73 149.80 C 166.34 151.03 165.94 152.27 165.53 153.50 L 164.73 152.99 C 162.47 150.14 160.85 147.30 157.52 145.55 C 151.38 142.27 145.07 139.78 139.41 135.58 C 133.38 131.30 129.71 125.66 123.13 122.09 C 122.36 122.30 121.60 122.51 120.83 122.73 C 123.56 129.36 125.23 136.30 128.22 142.77 C 130.26 147.20 132.97 150.95 135.53 155.06 C 136.63 156.87 137.75 158.73 138.68 160.64 C 139.56 162.85 140.77 165.55 140.46 167.96 C 140.05 169.62 138.58 171.04 137.52 172.33 C 136.75 172.17 135.98 172.02 135.22 171.87 C 135.63 170.03 136.58 167.73 136.13 165.83 C 135.19 163.21 133.01 160.91 131.16 158.88 C 125.63 153.03 120.00 148.22 115.87 141.15 C 113.76 137.31 111.27 133.75 108.75 130.17 C 100.24 131.78 91.91 131.45 83.37 130.43 C 80.56 133.76 78.39 137.48 76.21 141.24 C 71.74 148.84 64.80 154.48 59.06 161.05 C 57.88 162.49 56.39 164.23 56.06 166.09 C 56.07 168.03 56.50 170.00 56.82 171.91 C 56.05 172.04 55.28 172.18 54.52 172.33 C 53.49 171.02 52.00 169.60 51.64 167.95 C 51.38 165.50 52.47 162.89 53.39 160.67 C 54.47 158.62 55.74 156.66 56.96 154.70 C 60.37 149.25 63.76 144.09 65.92 137.98 C 67.66 133.09 69.37 128.16 70.90 123.20 C 70.27 122.76 69.63 122.34 68.99 121.94 C 62.47 125.77 58.24 131.84 52.07 136.05 C 46.56 139.98 40.43 142.41 34.55 145.61 C 31.23 147.42 29.62 150.27 27.25 153.06 L 26.27 153.55 C 26.07 151.78 25.06 150.15 26.58 148.73 C 31.13 143.93 37.27 140.59 42.39 136.38 C 44.86 134.56 47.32 132.77 49.56 130.66 C 50.86 129.31 52.03 127.86 53.18 126.37 C 56.46 121.95 59.91 117.67 63.43 113.43 C 57.48 111.93 51.55 112.32 45.51 111.60 C 37.12 110.51 28.77 109.57 20.50 107.71 C 25.51 106.42 30.04 105.94 35.23 106.05 C 36.56 106.05 37.90 106.06 39.24 106.08 C 45.84 106.23 52.20 106.38 58.73 105.08 C 57.08 102.17 55.46 99.32 53.09 96.93 C 46.40 90.07 41.95 82.32 36.36 74.63 C 34.01 71.44 31.94 68.10 29.94 64.68 C 30.93 65.19 31.91 65.69 32.90 66.20 C 40.39 72.91 45.97 81.28 53.63 87.87 C 52.74 76.05 52.01 64.93 55.36 53.35 C 58.00 43.80 62.85 35.81 70.03 28.99 C 78.13 23.95 86.19 19.71 96.00 19.76 Z" fill="#c493ef" />
<path d="M 70.03 28.99 C 62.85 35.81 58.00 43.80 55.36 53.35 C 52.01 64.93 52.74 76.05 53.63 87.87 C 45.97 81.28 40.39 72.91 32.90 66.20 C 36.30 67.78 38.84 69.91 41.23 72.77 C 43.41 75.42 46.15 77.30 48.84 79.37 C 50.40 70.33 49.80 61.66 52.91 52.87 C 55.89 43.83 61.53 33.85 70.03 28.99 Z" fill="#e8e8e8" />
<path d="M 121.97 29.00 C 124.85 30.76 127.56 32.64 129.69 35.29 C 137.40 44.61 141.51 56.94 141.89 68.96 C 142.10 72.54 142.61 76.08 143.05 79.64 C 149.06 76.32 151.96 70.20 158.01 66.96 C 151.16 73.96 145.79 81.61 138.30 87.95 C 139.06 76.16 139.94 64.98 136.60 53.43 C 134.01 43.70 129.34 35.86 121.97 29.00 Z" fill="#e8e8e8" />
<path d="M 26.10 61.49 C 27.40 62.53 28.66 63.62 29.94 64.68 C 31.94 68.10 34.01 71.44 36.36 74.63 C 41.95 82.32 46.40 90.07 53.09 96.93 C 55.46 99.32 57.08 102.17 58.73 105.08 C 52.20 106.38 45.84 106.23 39.24 106.08 C 35.47 97.96 30.97 91.07 28.79 82.23 C 27.59 77.00 26.79 71.69 25.56 66.47 C 25.72 64.80 25.89 63.14 26.10 61.49 Z" fill="#ffe3b7" />
<path d="M 165.97 62.25 C 166.19 63.36 166.38 64.47 166.55 65.58 C 165.51 70.89 164.64 76.25 163.51 81.53 C 161.40 90.68 156.80 97.76 152.79 106.05 C 146.25 106.25 139.80 106.30 133.33 105.05 C 134.92 102.39 136.33 99.75 138.54 97.53 C 145.62 90.35 150.22 82.25 156.15 74.14 C 158.60 70.82 160.83 67.37 163.10 63.93 C 164.04 63.35 165.00 62.79 165.97 62.25 Z" fill="#ffe2b3" />
<path d="M 166.55 65.58 C 168.26 72.86 166.13 79.13 164.35 86.09 C 162.57 93.05 158.91 99.15 156.78 106.01 C 155.45 106.02 154.12 106.03 152.79 106.05 C 156.80 97.76 161.40 90.68 163.51 81.53 C 164.64 76.25 165.51 70.89 166.55 65.58 Z" fill="#d7d2cf" />
<path d="M 25.56 66.47 C 26.79 71.69 27.59 77.00 28.79 82.23 C 30.97 91.07 35.47 97.96 39.24 106.08 C 37.90 106.06 36.56 106.05 35.23 106.05 C 33.31 99.72 29.98 93.99 28.11 87.67 C 26.22 80.49 23.85 73.99 25.56 66.47 Z" fill="#d8d4d2" />
<path d="M 75.38 83.37 C 82.11 81.28 89.15 85.81 89.14 93.01 C 89.93 100.03 82.09 105.92 75.59 103.47 C 71.11 102.00 68.17 97.78 68.06 93.11 C 68.40 88.74 71.16 84.77 75.38 83.37 Z" fill="#312d24" />
<path d="M 112.44 83.45 C 117.32 81.96 122.39 83.44 125.15 87.84 C 128.52 93.31 126.16 100.81 120.14 103.15 C 114.75 105.74 107.90 102.29 106.13 96.73 C 104.31 91.40 107.21 85.43 112.44 83.45 Z" fill="#2e2a22" />
<path d="M 84.32 106.05 C 87.86 104.71 92.28 107.85 96.07 107.71 C 100.52 108.16 106.50 103.50 109.93 107.34 C 110.31 109.30 110.48 111.44 109.05 113.03 C 107.12 115.27 103.60 116.24 100.82 116.87 C 95.51 117.70 89.18 117.36 84.46 114.56 C 81.60 112.91 80.39 107.11 84.32 106.05 Z" fill="#2e2a22" />
<path d="M 14.25 107.32 C 16.34 107.44 18.42 107.59 20.50 107.71 C 28.77 109.57 37.12 110.51 45.51 111.60 C 51.55 112.32 57.48 111.93 63.43 113.43 C 59.91 117.67 56.46 121.95 53.18 126.37 C 47.14 124.69 41.21 123.07 35.46 120.51 C 29.48 117.90 24.39 114.50 18.69 111.28 C 17.63 110.60 16.55 109.94 15.48 109.27 C 15.07 108.62 14.66 107.97 14.25 107.32 Z" fill="#ffe3b5" />
<path d="M 171.56 107.61 C 173.22 107.71 174.89 107.81 176.55 107.90 C 176.53 108.52 176.51 109.13 176.49 109.75 C 175.48 110.29 174.47 110.85 173.48 111.41 C 168.88 113.77 164.57 116.63 159.97 119.00 C 153.42 122.40 146.28 123.84 139.54 126.91 C 135.91 122.35 132.32 117.77 128.53 113.34 C 130.36 113.17 132.12 112.72 133.92 112.43 C 146.50 111.94 159.27 110.40 171.56 107.61 Z" fill="#ffe2b3" />
<path d="M 15.48 109.27 C 16.55 109.94 17.63 110.60 18.69 111.28 C 20.86 113.93 22.61 116.55 25.52 118.48 C 30.56 121.79 36.28 124.02 41.91 126.03 C 44.81 127.01 47.22 128.73 49.56 130.66 C 47.32 132.77 44.86 134.56 42.39 136.38 C 43.29 134.90 44.10 133.36 44.95 131.85 C 35.70 126.66 26.60 124.78 18.38 117.60 C 16.19 115.76 16.14 111.90 15.48 109.27 Z" fill="#e4e4e4" />
<path d="M 176.49 109.75 C 176.37 112.65 176.63 115.10 174.26 117.23 C 167.27 123.80 156.37 127.26 147.71 131.23 C 148.41 132.91 149.02 134.63 149.60 136.35 C 147.03 134.45 144.61 132.39 142.37 130.10 C 149.80 125.26 158.48 123.81 165.92 118.94 C 169.12 117.00 171.13 114.22 173.48 111.41 C 174.47 110.85 175.48 110.29 176.49 109.75 Z" fill="#e4e4e4" />
<path d="M 18.69 111.28 C 24.39 114.50 29.48 117.90 35.46 120.51 C 41.21 123.07 47.14 124.69 53.18 126.37 C 52.03 127.86 50.86 129.31 49.56 130.66 C 47.22 128.73 44.81 127.01 41.91 126.03 C 36.28 124.02 30.56 121.79 25.52 118.48 C 22.61 116.55 20.86 113.93 18.69 111.28 Z" fill="#c6c6c4" />
<path d="M 173.48 111.41 C 171.13 114.22 169.12 117.00 165.92 118.94 C 158.48 123.81 149.80 125.26 142.37 130.10 C 141.39 129.07 140.45 128.00 139.54 126.91 C 146.28 123.84 153.42 122.40 159.97 119.00 C 164.57 116.63 168.88 113.77 173.48 111.41 Z" fill="#c6c5c2" />
<path d="M 68.99 121.94 C 69.63 122.34 70.27 122.76 70.90 123.20 C 69.37 128.16 67.66 133.09 65.92 137.98 C 63.76 144.09 60.37 149.25 56.96 154.70 C 51.30 154.76 45.63 155.49 39.97 155.30 C 35.55 155.16 31.54 153.91 27.25 153.06 C 29.62 150.27 31.23 147.42 34.55 145.61 C 40.43 142.41 46.56 139.98 52.07 136.05 C 58.24 131.84 62.47 125.77 68.99 121.94 Z" fill="#ffe2b4" />
<path d="M 123.13 122.09 C 129.71 125.66 133.38 131.30 139.41 135.58 C 145.07 139.78 151.38 142.27 157.52 145.55 C 160.85 147.30 162.47 150.14 164.73 152.99 C 160.47 154.03 156.45 155.28 152.02 155.32 C 146.52 155.38 141.04 154.78 135.53 155.06 C 132.97 150.95 130.26 147.20 128.22 142.77 C 125.23 136.30 123.56 129.36 120.83 122.73 C 121.60 122.51 122.36 122.30 123.13 122.09 Z" fill="#ffe2b3" />
<path d="M 83.37 130.43 C 91.91 131.45 100.24 131.78 108.75 130.17 C 111.27 133.75 113.76 137.31 115.87 141.15 C 120.00 148.22 125.63 153.03 131.16 158.88 C 133.01 160.91 135.19 163.21 136.13 165.83 C 136.58 167.73 135.63 170.03 135.22 171.87 C 130.23 170.90 125.62 170.85 121.08 168.94 C 115.74 166.71 110.83 163.30 106.39 159.62 C 102.35 156.25 99.44 152.21 96.05 148.27 C 92.66 152.24 89.71 156.30 85.67 159.68 C 81.42 163.23 76.73 166.44 71.65 168.67 C 66.82 170.83 62.05 170.90 56.82 171.91 C 56.50 170.00 56.07 168.03 56.06 166.09 C 56.39 164.23 57.88 162.49 59.06 161.05 C 64.80 154.48 71.74 148.84 76.21 141.24 C 78.39 137.48 80.56 133.76 83.37 130.43 Z" fill="#ffe2b3" />
<path d="M 96.05 148.27 C 99.44 152.21 102.35 156.25 106.39 159.62 C 110.83 163.30 115.74 166.71 121.08 168.94 C 125.62 170.85 130.23 170.90 135.22 171.87 C 135.98 172.02 136.75 172.17 137.52 172.33 C 135.11 173.65 132.87 174.86 130.02 174.55 C 121.03 173.87 112.46 167.99 105.80 162.27 C 102.80 159.75 100.11 156.49 96.75 154.47 C 94.15 154.62 91.76 157.28 89.94 158.94 C 82.88 166.31 73.25 172.99 62.97 174.46 C 59.79 175.03 57.20 173.89 54.52 172.33 C 55.28 172.18 56.05 172.04 56.82 171.91 C 62.05 170.90 66.82 170.83 71.65 168.67 C 76.73 166.44 81.42 163.23 85.67 159.68 C 89.71 156.30 92.66 152.24 96.05 148.27 Z" fill="#c7c4c1" />
<path d="M 26.27 153.55 L 27.25 153.06 C 31.54 153.91 35.55 155.16 39.97 155.30 C 45.63 155.49 51.30 154.76 56.96 154.70 C 55.74 156.66 54.47 158.62 53.39 160.67 C 46.62 158.40 39.73 160.37 33.05 158.19 C 30.32 157.37 28.30 155.47 26.27 153.55 Z" fill="#c8c8c7" />
<path d="M 164.73 152.99 L 165.53 153.50 C 164.36 155.17 163.43 156.78 161.45 157.60 C 153.96 160.90 146.60 158.05 138.68 160.64 C 137.75 158.73 136.63 156.87 135.53 155.06 C 141.04 154.78 146.52 155.38 152.02 155.32 C 156.45 155.28 160.47 154.03 164.73 152.99 Z" fill="#c8c8c7" /></svg>