<?xml version="1.0" encoding="UTF-8" standalone="no"?>
<!DOCTYPE svg PUBLIC "-//W3C//DTD SVG 1.1//EN" "http://www.w3.org/Graphics/SVG/1.1/DTD/svg11.dtd">
<svg viewBox="0 0 192 192" height="192.0pt" width="192.0pt" xmlns="http://www.w3.org/2000/svg" version="1.1">
<path d="M 134.66 15.13 C 134.91 16.94 135.14 18.76 135.39 20.57 C 135.03 26.05 135.09 31.53 134.92 37.02 C 134.72 42.89 133.09 48.67 129.95 53.66 C 128.07 55.78 126.06 57.81 123.96 59.71 C 121.92 61.14 119.88 62.59 117.73 63.85 C 112.69 65.80 107.23 66.76 101.87 67.19 C 100.32 67.11 98.77 67.02 97.21 66.94 C 95.08 65.96 92.45 64.83 91.29 62.67 C 89.45 59.22 90.08 55.08 91.63 51.65 C 92.51 49.90 93.56 48.22 95.65 47.86 C 98.82 47.24 102.24 47.53 105.46 47.56 C 108.29 47.64 110.90 47.79 113.56 46.60 C 118.09 44.58 121.87 40.71 124.62 36.64 C 129.00 30.25 131.18 22.25 134.66 15.13 Z" fill="#f6c99c" />
<path d="M 135.39 20.57 C 139.12 27.34 138.54 34.36 137.65 41.76 C 137.10 45.96 135.57 50.62 136.28 54.80 C 136.99 59.30 138.44 63.18 137.84 67.85 C 137.11 72.92 136.05 77.87 135.94 83.01 C 138.77 83.67 140.78 84.54 143.03 82.06 C 146.26 77.85 146.13 72.02 149.93 67.89 C 149.51 70.84 149.06 73.79 148.46 76.71 C 148.15 81.02 143.52 84.06 139.80 85.26 C 136.55 84.69 133.43 83.03 130.35 81.87 C 134.59 73.35 135.48 63.84 134.84 54.45 C 133.21 54.19 131.58 53.93 129.95 53.66 C 133.09 48.67 134.72 42.89 134.92 37.02 C 135.09 31.53 135.03 26.05 135.39 20.57 Z" fill="#e6e6e6" />
<path d="M 25.73 30.18 C 28.59 32.11 30.27 35.97 32.36 38.68 C 36.75 44.96 43.93 49.03 51.73 47.46 C 54.88 47.47 60.26 46.74 62.41 49.56 C 65.04 52.73 65.86 58.47 64.26 62.25 C 63.31 64.50 60.82 65.87 58.80 67.06 C 57.23 67.09 55.66 67.13 54.09 67.17 C 48.97 66.94 43.91 65.91 39.13 64.05 C 36.34 62.83 33.65 61.42 31.11 59.73 C 29.26 58.03 27.54 56.19 25.96 54.25 C 21.41 47.71 21.25 40.50 21.65 32.82 C 22.73 31.19 23.47 29.69 25.73 30.18 Z" fill="#f6caa0" />
<path d="M 21.65 32.82 C 21.25 40.50 21.41 47.71 25.96 54.25 C 23.93 54.23 21.90 54.18 19.88 54.09 C 19.77 49.70 18.74 45.35 18.83 40.97 C 18.90 37.93 20.15 35.39 21.65 32.82 Z" fill="#e5e5e5" />
<path d="M 75.00 42.24 C 82.64 42.27 90.63 42.23 98.12 43.88 C 100.91 44.45 103.19 45.92 105.46 47.56 C 102.24 47.53 98.82 47.24 95.65 47.86 C 93.56 48.22 92.51 49.90 91.63 51.65 C 90.08 55.08 89.45 59.22 91.29 62.67 C 92.45 64.83 95.08 65.96 97.21 66.94 C 92.03 68.94 87.69 72.16 87.05 78.08 C 85.89 85.13 90.70 92.47 98.06 93.02 C 104.28 93.66 109.68 88.76 110.87 82.86 C 111.51 79.30 110.89 75.29 108.68 72.36 C 106.90 70.01 104.45 68.51 101.87 67.19 C 107.23 66.76 112.69 65.80 117.73 63.85 C 119.80 69.13 120.96 74.62 122.35 80.09 C 123.97 78.84 125.94 77.78 126.70 75.77 C 128.69 70.89 128.87 65.74 128.66 60.55 C 127.09 60.25 125.54 59.95 123.96 59.71 C 126.06 57.81 128.07 55.78 129.95 53.66 C 131.58 53.93 133.21 54.19 134.84 54.45 C 135.48 63.84 134.59 73.35 130.35 81.87 C 126.72 83.46 122.96 84.21 121.19 88.16 C 117.82 95.72 113.07 102.25 110.64 110.22 C 108.23 106.64 105.96 102.96 103.46 99.45 C 101.59 96.82 98.26 95.49 95.08 96.08 C 91.18 96.79 87.83 98.43 83.78 98.49 C 79.10 98.54 74.35 98.70 69.68 98.27 C 65.45 97.83 60.50 94.80 56.41 96.37 C 53.67 97.19 52.07 99.17 50.53 101.44 C 48.71 104.20 46.69 106.79 44.70 109.43 C 41.82 102.16 37.54 95.68 34.41 88.54 C 33.05 85.02 29.96 84.71 27.09 82.82 C 25.10 81.73 24.10 79.83 22.97 77.95 C 20.98 70.53 20.27 62.56 19.90 54.91 L 19.88 54.09 C 21.90 54.18 23.93 54.23 25.96 54.25 C 27.54 56.19 29.26 58.03 31.11 59.73 C 29.43 59.93 27.75 60.12 26.07 60.32 C 26.03 65.82 26.40 72.03 29.05 76.98 C 29.85 78.55 32.04 79.28 33.52 80.12 C 35.13 74.66 36.81 69.26 39.13 64.05 C 43.91 65.91 48.97 66.94 54.09 67.17 C 50.75 68.72 47.75 70.59 45.99 73.97 C 42.89 80.03 44.88 88.65 51.19 91.80 C 56.37 94.34 62.84 92.96 66.17 88.15 C 69.29 83.98 69.80 78.34 67.22 73.77 C 65.35 70.34 62.25 68.57 58.80 67.06 C 60.82 65.87 63.31 64.50 64.26 62.25 C 65.86 58.47 65.04 52.73 62.41 49.56 C 60.26 46.74 54.88 47.47 51.73 47.46 C 58.86 42.37 66.62 42.42 75.00 42.24 Z" fill="#c38c64" />
<path d="M 19.90 54.91 C 20.27 62.56 20.98 70.53 22.97 77.95 C 23.67 80.16 24.27 82.36 25.95 84.04 C 28.86 86.99 32.23 88.84 34.62 92.39 C 37.05 96.13 38.93 100.24 40.96 104.20 C 42.58 107.43 43.31 110.45 43.30 114.08 C 42.27 118.91 42.13 123.06 42.98 127.93 C 44.02 140.61 42.54 153.51 43.66 166.17 C 44.89 172.26 49.98 177.10 56.11 178.08 C 64.16 179.37 72.17 173.34 73.18 165.25 C 73.85 160.98 73.56 156.59 74.36 152.37 C 74.57 150.98 75.90 150.17 77.12 149.74 C 78.92 149.91 80.69 151.00 82.32 151.75 C 82.33 154.45 82.17 157.15 82.08 159.85 C 82.01 164.51 82.72 169.48 85.89 173.12 C 90.47 178.35 98.23 179.80 104.33 176.37 C 108.18 174.49 109.78 171.19 111.67 167.59 C 112.78 165.05 115.18 164.73 117.37 163.28 C 120.77 161.50 122.07 157.88 122.41 154.26 C 122.69 151.61 122.94 148.96 123.23 146.32 C 124.36 146.26 125.49 146.22 126.62 146.18 C 126.94 149.52 127.22 152.86 127.65 156.18 C 128.56 164.98 137.36 171.03 145.85 167.98 C 153.31 165.43 155.53 158.40 155.35 151.14 C 155.35 140.43 155.30 129.71 155.36 119.00 C 155.36 114.00 155.42 108.91 153.95 104.08 C 152.96 100.82 151.31 98.04 149.54 95.17 C 151.70 92.93 153.62 90.77 156.66 89.72 C 161.66 87.64 166.46 87.68 169.09 82.20 C 170.95 76.15 171.51 70.01 172.22 63.75 C 173.60 66.04 174.80 68.24 174.72 71.01 C 174.65 76.06 173.56 81.57 170.84 85.89 C 168.45 89.58 163.68 90.41 159.83 91.84 C 157.56 92.72 154.62 93.54 153.80 96.14 C 154.53 101.84 157.94 106.80 158.31 112.70 C 159.19 123.74 158.41 134.92 158.74 145.99 C 158.72 153.04 159.12 161.75 154.62 167.66 C 150.04 173.94 141.26 175.84 134.31 172.59 C 130.72 170.51 127.83 167.05 124.79 164.24 C 121.79 166.07 118.90 167.88 116.52 170.50 C 113.15 173.99 110.49 178.83 106.30 181.26 C 99.74 185.27 90.55 184.36 85.04 178.95 C 81.89 175.55 80.12 170.69 77.94 166.62 C 74.93 172.22 73.21 178.02 67.30 181.27 C 60.94 185.15 53.02 184.35 47.31 179.67 C 42.72 176.09 40.50 170.71 40.32 164.97 C 39.97 155.99 40.43 146.98 40.27 138.00 C 40.17 132.03 39.12 126.47 39.68 120.47 C 39.98 115.75 41.12 111.47 39.02 106.96 C 37.07 102.78 34.76 98.59 32.40 94.62 C 29.00 89.02 23.13 87.44 20.73 81.31 C 18.70 76.07 17.43 69.58 17.28 63.97 C 17.16 60.57 18.60 57.92 19.90 54.91 Z" fill="#e4e4e4" />
<path d="M 26.07 60.32 C 27.75 60.12 29.43 59.93 31.11 59.73 C 33.65 61.42 36.34 62.83 39.13 64.05 C 36.81 69.26 35.13 74.66 33.52 80.12 C 32.04 79.28 29.85 78.55 29.05 76.98 C 26.40 72.03 26.03 65.82 26.07 60.32 Z" fill="#4a4f53" />
<path d="M 123.96 59.71 C 125.54 59.95 127.09 60.25 128.66 60.55 C 128.87 65.74 128.69 70.89 126.70 75.77 C 125.94 77.78 123.97 78.84 122.35 80.09 C 120.96 74.62 119.80 69.13 117.73 63.85 C 119.88 62.59 121.92 61.14 123.96 59.71 Z" fill="#44484c" />
<path d="M 171.41 62.39 L 172.22 63.75 C 171.51 70.01 170.95 76.15 169.09 82.20 C 165.37 84.38 161.44 85.47 157.29 86.48 C 153.36 87.48 150.85 90.03 147.99 92.69 C 148.50 93.51 149.02 94.34 149.54 95.17 C 151.31 98.04 152.96 100.82 153.95 104.08 C 155.42 108.91 155.36 114.00 155.36 119.00 C 155.30 129.71 155.35 140.43 155.35 151.14 C 146.18 151.47 137.01 151.08 127.84 151.32 C 127.75 152.94 127.67 154.56 127.65 156.18 C 127.22 152.86 126.94 149.52 126.62 146.18 C 125.49 146.22 124.36 146.26 123.23 146.32 C 122.94 148.96 122.69 151.61 122.41 154.26 C 122.42 152.88 122.39 151.49 122.31 150.10 C 122.20 148.73 122.08 147.35 121.95 145.98 C 118.71 145.83 115.49 145.76 112.27 146.16 C 112.17 147.71 112.12 149.25 112.08 150.80 C 112.01 153.72 111.92 156.64 111.82 159.57 C 101.90 159.82 92.00 159.30 82.08 159.85 C 82.17 157.15 82.33 154.45 82.32 151.75 C 82.25 149.85 82.10 147.97 81.96 146.07 C 79.13 146.06 76.33 146.04 73.52 146.27 C 73.19 150.80 73.31 155.28 73.36 159.81 C 63.49 159.55 53.57 159.37 43.71 159.83 C 43.66 161.95 43.60 164.05 43.66 166.17 C 42.54 153.51 44.02 140.61 42.98 127.93 C 46.15 132.24 50.19 135.31 55.48 136.49 C 69.37 139.62 84.04 139.67 98.00 136.98 C 103.50 135.79 109.42 133.35 111.79 127.84 C 113.94 122.33 113.06 115.52 110.64 110.22 C 113.07 102.25 117.82 95.72 121.19 88.16 C 122.96 84.21 126.72 83.46 130.35 81.87 C 133.43 83.03 136.55 84.69 139.80 85.26 C 143.52 84.06 148.15 81.02 148.46 76.71 C 149.06 73.79 149.51 70.84 149.93 67.89 C 155.02 62.42 164.47 62.16 171.41 62.39 Z" fill="#a97756" />
<path d="M 54.09 67.17 C 55.66 67.13 57.23 67.09 58.80 67.06 C 62.25 68.57 65.35 70.34 67.22 73.77 C 69.80 78.34 69.29 83.98 66.17 88.15 C 62.84 92.96 56.37 94.34 51.19 91.80 C 44.88 88.65 42.89 80.03 45.99 73.97 C 47.75 70.59 50.75 68.72 54.09 67.17 Z" fill="#484d51" />
<path d="M 97.21 66.94 C 98.77 67.02 100.32 67.11 101.87 67.19 C 104.45 68.51 106.90 70.01 108.68 72.36 C 110.89 75.29 111.51 79.30 110.87 82.86 C 109.68 88.76 104.28 93.66 98.06 93.02 C 90.70 92.47 85.89 85.13 87.05 78.08 C 87.69 72.16 92.03 68.94 97.21 66.94 Z" fill="#454a4e" />
<path d="M 22.97 77.95 C 24.10 79.83 25.10 81.73 27.09 82.82 C 29.96 84.71 33.05 85.02 34.41 88.54 C 37.54 95.68 41.82 102.16 44.70 109.43 C 44.09 110.94 43.66 112.50 43.30 114.08 C 43.31 110.45 42.58 107.43 40.96 104.20 C 38.93 100.24 37.05 96.13 34.62 92.39 C 32.23 88.84 28.86 86.99 25.95 84.04 C 24.27 82.36 23.67 80.16 22.97 77.95 Z" fill="#d3d0cf" />
<path d="M 169.09 82.20 C 166.46 87.68 161.66 87.64 156.66 89.72 C 153.62 90.77 151.70 92.93 149.54 95.17 C 149.02 94.34 148.50 93.51 147.99 92.69 C 150.85 90.03 153.36 87.48 157.29 86.48 C 161.44 85.47 165.37 84.38 169.09 82.20 Z" fill="#cdcdcd" />
<path d="M 56.41 96.37 C 60.50 94.80 65.45 97.83 69.68 98.27 C 74.35 98.70 79.10 98.54 83.78 98.49 C 87.83 98.43 91.18 96.79 95.08 96.08 C 98.26 95.49 101.59 96.82 103.46 99.45 C 105.96 102.96 108.23 106.64 110.64 110.22 C 113.06 115.52 113.94 122.33 111.79 127.84 C 109.42 133.35 103.50 135.79 98.00 136.98 C 84.04 139.67 69.37 139.62 55.48 136.49 C 50.19 135.31 46.15 132.24 42.98 127.93 C 42.13 123.06 42.27 118.91 43.30 114.08 C 43.66 112.50 44.09 110.94 44.70 109.43 C 46.69 106.79 48.71 104.20 50.53 101.44 C 52.07 99.17 53.67 97.19 56.41 96.37 Z" fill="#dba078" />
<path d="M 58.49 101.40 C 61.43 100.43 64.41 101.53 66.91 103.11 C 71.89 106.40 74.88 112.48 75.57 118.30 C 76.01 122.49 74.63 127.47 70.90 129.85 C 67.23 132.14 62.68 131.13 59.43 128.58 C 54.08 124.40 50.68 117.11 51.47 110.30 C 51.87 106.25 54.54 102.62 58.49 101.40 Z" fill="#45494d" />
<path d="M 92.48 101.39 C 96.65 100.12 101.66 102.81 103.04 106.93 C 106.06 115.34 101.67 125.64 94.01 129.96 C 88.86 132.75 82.13 130.30 80.54 124.54 C 78.21 115.77 83.55 104.19 92.48 101.39 Z" fill="#43484c" />
<path d="M 73.52 146.27 C 76.33 146.04 79.13 146.06 81.96 146.07 C 82.10 147.97 82.25 149.85 82.32 151.75 C 80.69 151.00 78.92 149.91 77.12 149.74 C 75.90 150.17 74.57 150.98 74.36 152.37 C 73.56 156.59 73.85 160.98 73.18 165.25 C 73.31 163.44 73.36 161.63 73.36 159.81 C 73.31 155.28 73.19 150.80 73.52 146.27 Z" fill="#cacaca" />
<path d="M 112.27 146.16 C 115.49 145.76 118.71 145.83 121.95 145.98 C 122.08 147.35 122.20 148.73 122.31 150.10 C 118.90 150.31 115.49 150.52 112.08 150.80 C 112.12 149.25 112.17 147.71 112.27 146.16 Z" fill="#896349" />
<path d="M 122.31 150.10 C 122.39 151.49 122.42 152.88 122.41 154.26 C 122.07 157.88 120.77 161.50 117.37 163.28 C 115.18 164.73 112.78 165.05 111.67 167.59 C 109.78 171.19 108.18 174.49 104.33 176.37 C 98.23 179.80 90.47 178.35 85.89 173.12 C 82.72 169.48 82.01 164.51 82.08 159.85 C 92.00 159.30 101.90 159.82 111.82 159.57 C 111.92 156.64 112.01 153.72 112.08 150.80 C 115.49 150.52 118.90 150.31 122.31 150.10 Z" fill="#3e4347" />
<path d="M 127.84 151.32 C 137.01 151.08 146.18 151.47 155.35 151.14 C 155.53 158.40 153.31 165.43 145.85 167.98 C 137.36 171.03 128.56 164.98 127.65 156.18 C 127.67 154.56 127.75 152.94 127.84 151.32 Z" fill="#3e4347" />
<path d="M 43.71 159.83 C 53.57 159.37 63.49 159.55 73.36 159.81 C 73.36 161.63 73.31 163.44 73.18 165.25 C 72.17 173.34 64.16 179.37 56.11 178.08 C 49.98 177.10 44.89 172.26 43.66 166.17 C 43.60 164.05 43.66 161.95 43.71 159.83 Z" fill="#404549" /></svg>