<?xml version="1.0" encoding="UTF-8" standalone="no"?>
<!DOCTYPE svg PUBLIC "-//W3C//DTD SVG 1.1//EN" "http://www.w3.org/Graphics/SVG/1.1/DTD/svg11.dtd">
<svg viewBox="0 0 192 192" height="192.0pt" width="192.0pt" xmlns="http://www.w3.org/2000/svg" version="1.1">
<path d="M 91.59 17.39 C 96.89 19.90 100.23 23.99 104.05 28.26 C 108.49 27.84 113.09 27.25 117.43 28.62 C 121.34 29.89 124.92 32.37 127.97 35.09 C 130.61 39.63 132.96 44.58 132.18 49.98 C 131.87 53.16 130.47 56.45 130.67 59.63 C 131.82 63.89 134.46 67.82 136.37 71.79 C 137.48 71.95 138.60 72.11 139.71 72.27 L 140.56 72.38 L 141.37 72.51 C 139.77 72.58 138.18 72.71 136.60 72.88 C 139.09 87.47 138.55 102.15 132.97 115.99 C 131.44 119.56 129.03 123.64 125.33 125.27 C 118.63 127.78 109.91 124.76 107.15 117.90 C 105.50 113.57 104.87 108.89 103.41 104.47 C 107.84 97.06 114.97 93.22 118.68 85.72 C 121.59 79.79 121.23 73.58 121.05 67.17 C 119.06 67.67 117.05 68.19 115.04 68.58 C 113.41 68.80 111.79 68.96 110.14 69.05 C 105.32 68.91 101.28 67.00 97.16 64.72 C 96.60 64.44 96.05 64.16 95.49 63.89 C 92.10 65.03 88.93 66.70 85.52 67.78 C 81.15 68.54 76.80 68.55 72.43 67.82 C 69.02 66.76 65.85 65.09 62.47 63.98 C 61.91 64.23 61.36 64.50 60.81 64.77 C 56.49 67.16 52.12 68.99 47.15 69.43 C 45.74 69.19 44.35 68.89 42.96 68.58 C 40.94 68.11 38.93 67.64 36.90 67.25 C 35.90 74.74 36.72 83.31 41.64 89.37 C 45.45 94.09 50.23 97.82 53.78 102.83 C 52.99 108.73 52.72 116.08 48.91 120.92 C 46.13 124.58 41.91 125.56 37.69 126.67 C 35.25 125.96 32.26 125.37 30.24 123.76 C 28.20 122.14 26.53 119.96 25.03 117.85 C 20.36 105.53 18.74 92.22 20.24 79.14 C 20.84 74.37 22.42 69.85 24.67 65.63 C 25.63 63.56 27.13 61.29 27.36 58.99 C 27.11 55.30 25.34 51.35 25.53 47.40 C 25.73 43.52 27.36 39.55 29.04 36.08 C 32.08 33.09 35.74 30.28 39.80 28.87 C 44.40 27.34 49.12 28.19 53.56 27.43 C 57.10 25.17 59.51 21.41 63.12 19.13 C 71.37 13.70 82.72 13.19 91.59 17.39 Z" fill="#ff7eb8" />
<path d="M 127.97 35.09 C 130.91 37.71 133.37 40.68 134.42 44.56 C 136.08 50.42 134.18 55.97 134.45 61.76 C 134.63 65.54 137.66 69.22 139.71 72.27 C 138.60 72.11 137.48 71.95 136.37 71.79 C 134.46 67.82 131.82 63.89 130.67 59.63 C 130.47 56.45 131.87 53.16 132.18 49.98 C 132.96 44.58 130.61 39.63 127.97 35.09 Z" fill="#e5e5e5" />
<path d="M 29.04 36.08 C 27.36 39.55 25.73 43.52 25.53 47.40 C 25.34 51.35 27.11 55.30 27.36 58.99 C 27.13 61.29 25.63 63.56 24.67 65.63 C 22.42 69.85 20.84 74.37 20.24 79.14 C 18.74 92.22 20.36 105.53 25.03 117.85 C 26.15 120.62 27.25 123.42 29.59 125.39 C 32.72 127.99 36.91 129.46 40.33 131.73 C 43.41 133.74 45.69 136.32 48.13 139.01 C 48.09 141.25 48.02 143.49 47.95 145.73 C 45.77 146.91 43.68 148.25 41.72 149.77 C 43.83 146.70 45.99 143.57 44.23 139.74 C 41.62 134.58 34.31 132.26 29.68 129.29 C 24.25 126.11 21.71 119.73 19.93 114.01 C 16.92 103.52 15.89 92.21 17.31 81.37 C 18.01 75.66 20.44 70.80 22.49 65.53 C 24.95 59.44 21.89 52.87 23.14 46.21 C 23.84 42.13 26.14 38.92 29.04 36.08 Z" fill="#e6e6e6" />
<path d="M 158.02 51.86 C 163.31 51.28 167.35 53.76 171.29 56.92 C 171.67 59.53 172.29 62.31 172.10 64.94 C 171.68 67.58 169.65 70.07 168.26 72.30 C 164.54 73.19 160.81 73.95 157.04 74.53 C 154.24 73.04 151.48 71.55 148.59 70.25 C 147.54 66.48 146.78 62.78 146.50 58.86 C 149.79 55.38 152.95 52.25 158.02 51.86 Z" fill="#ff7ab6" />
<path d="M 171.29 56.92 C 173.85 60.00 175.56 63.48 174.57 67.57 C 172.83 74.93 169.29 80.71 170.56 88.71 C 171.97 95.74 175.55 101.38 174.94 108.92 C 174.93 117.34 169.54 123.92 169.18 132.01 C 168.94 137.43 173.14 141.52 174.44 146.53 C 175.05 149.05 173.31 151.99 172.16 154.14 C 169.94 157.81 167.79 161.74 164.89 164.92 C 161.54 168.59 155.46 169.05 151.22 166.79 C 147.70 164.78 145.62 160.13 142.61 157.48 C 140.96 156.94 140.60 158.53 139.62 159.50 C 137.12 162.66 135.07 166.91 130.78 167.82 C 126.53 168.75 121.51 166.32 117.21 166.26 C 115.94 166.24 114.94 167.25 114.19 168.16 C 111.47 171.70 110.24 176.97 107.01 180.04 C 101.75 184.72 92.84 184.09 88.23 178.78 C 85.79 175.83 84.60 171.66 82.34 168.59 C 80.98 166.52 77.82 166.28 76.13 168.05 C 73.05 171.42 71.75 177.17 68.21 180.22 C 63.26 184.35 54.98 184.20 50.31 179.69 C 47.54 176.74 46.17 172.39 43.90 169.00 C 42.10 166.04 39.24 163.09 38.30 159.74 C 37.46 156.34 38.95 153.74 40.81 151.06 C 40.62 154.02 40.46 157.41 41.92 160.10 C 43.91 163.73 46.55 166.70 48.78 170.15 C 49.39 171.56 50.00 173.00 50.66 174.39 C 53.63 179.98 60.79 181.56 65.87 177.89 C 69.65 174.77 70.72 168.63 74.18 165.18 C 75.82 163.65 78.34 162.66 80.55 163.42 C 82.97 164.28 85.11 166.26 86.88 168.07 C 87.72 170.23 88.55 172.36 89.55 174.46 C 91.81 177.18 94.19 179.44 97.99 179.35 C 102.33 179.44 105.34 177.05 107.36 173.40 C 107.97 171.95 108.51 170.47 109.04 168.98 C 110.96 166.48 113.36 163.51 116.33 162.28 C 120.66 161.73 126.01 165.86 130.38 164.46 C 134.82 162.70 136.72 156.22 140.54 153.51 C 143.63 152.47 145.94 154.94 147.74 157.07 C 148.45 158.16 149.11 159.27 149.81 160.36 C 151.88 163.13 154.34 164.79 157.96 164.27 C 161.67 163.93 163.67 161.40 165.11 158.24 C 165.86 156.31 166.52 154.36 167.35 152.46 C 169.32 150.38 172.29 148.14 172.15 144.99 C 172.29 141.35 168.61 138.79 165.98 136.90 C 166.15 132.05 166.32 127.20 166.68 122.36 C 169.44 117.87 171.77 113.40 172.05 108.01 C 172.84 100.17 170.22 93.00 166.14 86.45 C 167.72 81.85 168.14 77.14 168.26 72.30 C 169.65 70.07 171.68 67.58 172.10 64.94 C 172.29 62.31 171.67 59.53 171.29 56.92 Z" fill="#e4e4e4" />
<path d="M 146.50 58.86 C 146.78 62.78 147.54 66.48 148.59 70.25 C 148.83 71.67 149.01 73.10 149.19 74.53 C 146.64 73.69 144.02 72.95 141.37 72.51 L 140.56 72.38 C 141.82 72.06 143.08 71.73 144.34 71.38 C 144.39 67.05 144.68 62.86 146.50 58.86 Z" fill="#e2e2e2" />
<path d="M 62.47 63.98 C 65.85 65.09 69.02 66.76 72.43 67.82 C 74.09 73.32 75.56 78.23 72.66 83.66 C 68.42 92.08 57.69 94.28 49.59 90.38 C 45.03 87.89 41.51 83.10 41.13 77.83 C 40.93 74.76 42.08 71.49 42.96 68.58 C 44.35 68.89 45.74 69.19 47.15 69.43 C 46.23 71.76 44.84 74.44 44.90 76.98 C 45.17 82.40 49.55 87.45 55.02 88.08 C 59.09 88.65 63.18 88.22 66.28 85.29 C 70.65 81.57 71.31 74.54 68.11 69.89 C 66.33 67.39 63.51 66.05 60.81 64.77 C 61.36 64.50 61.91 64.23 62.47 63.98 Z" fill="#ffffff" />
<path d="M 95.49 63.89 C 96.05 64.16 96.60 64.44 97.16 64.72 C 93.57 66.18 90.30 67.97 88.65 71.67 C 87.05 76.14 87.47 81.51 91.16 84.85 C 94.27 88.20 98.62 88.70 102.94 88.04 C 108.35 87.28 112.57 82.29 113.04 76.95 C 113.09 74.24 111.35 71.41 110.14 69.05 C 111.79 68.96 113.41 68.80 115.04 68.58 C 116.12 71.88 117.41 75.30 116.93 78.84 C 116.23 83.73 112.81 88.17 108.48 90.45 C 100.25 94.18 89.72 92.17 85.22 83.80 C 82.10 78.31 83.69 73.33 85.52 67.78 C 88.93 66.70 92.10 65.03 95.49 63.89 Z" fill="#ffffff" />
<path d="M 60.81 64.77 C 63.51 66.05 66.33 67.39 68.11 69.89 C 71.31 74.54 70.65 81.57 66.28 85.29 C 63.18 88.22 59.09 88.65 55.02 88.08 C 49.55 87.45 45.17 82.40 44.90 76.98 C 44.84 74.44 46.23 71.76 47.15 69.43 C 52.12 68.99 56.49 67.16 60.81 64.77 Z" fill="#484d51" />
<path d="M 97.16 64.72 C 101.28 67.00 105.32 68.91 110.14 69.05 C 111.35 71.41 113.09 74.24 113.04 76.95 C 112.57 82.29 108.35 87.28 102.94 88.04 C 98.62 88.70 94.27 88.20 91.16 84.85 C 87.47 81.51 87.05 76.14 88.65 71.67 C 90.30 67.97 93.57 66.18 97.16 64.72 Z" fill="#454a4e" />
<path d="M 36.90 67.25 C 38.93 67.64 40.94 68.11 42.96 68.58 C 42.08 71.49 40.93 74.76 41.13 77.83 C 41.51 83.10 45.03 87.89 49.59 90.38 C 57.69 94.28 68.42 92.08 72.66 83.66 C 75.56 78.23 74.09 73.32 72.43 67.82 C 76.80 68.55 81.15 68.54 85.52 67.78 C 83.69 73.33 82.10 78.31 85.22 83.80 C 89.72 92.17 100.25 94.18 108.48 90.45 C 112.81 88.17 116.23 83.73 116.93 78.84 C 117.41 75.30 116.12 71.88 115.04 68.58 C 117.05 68.19 119.06 67.67 121.05 67.17 C 121.23 73.58 121.59 79.79 118.68 85.72 C 114.97 93.22 107.84 97.06 103.41 104.47 C 100.19 109.77 97.76 115.87 93.07 120.08 C 90.43 122.52 87.34 123.29 84.00 124.32 C 83.86 122.85 83.72 121.37 83.58 119.89 C 87.10 118.28 91.07 116.66 93.80 113.82 C 97.70 110.09 96.59 102.70 91.97 100.02 C 87.44 97.08 81.17 97.27 75.98 97.38 C 71.57 97.52 66.18 98.62 63.34 102.32 C 61.18 105.41 60.95 110.48 63.73 113.30 C 66.52 116.46 70.04 117.93 73.81 119.58 C 73.86 121.18 73.89 122.77 73.92 124.37 C 69.54 122.96 65.44 121.24 62.54 117.50 C 59.12 112.96 57.03 107.52 53.78 102.83 C 50.23 97.82 45.45 94.09 41.64 89.37 C 36.72 83.31 35.90 74.74 36.90 67.25 Z" fill="#ffc7d4" />
<path d="M 148.59 70.25 C 151.48 71.55 154.24 73.04 157.04 74.53 C 156.94 75.78 156.83 77.03 156.73 78.28 C 154.32 76.84 151.80 75.57 149.19 74.53 C 149.01 73.10 148.83 71.67 148.59 70.25 Z" fill="#c9c9c9" />
<path d="M 168.26 72.30 C 168.14 77.14 167.72 81.85 166.14 86.45 C 163.33 83.41 160.18 80.59 156.73 78.28 C 156.83 77.03 156.94 75.78 157.04 74.53 C 160.81 73.95 164.54 73.19 168.26 72.30 Z" fill="#ffc5d3" />
<path d="M 136.60 72.88 C 138.18 72.71 139.77 72.58 141.37 72.51 C 144.02 72.95 146.64 73.69 149.19 74.53 C 151.80 75.57 154.32 76.84 156.73 78.28 C 160.18 80.59 163.33 83.41 166.14 86.45 C 170.22 93.00 172.84 100.17 172.05 108.01 C 171.77 113.40 169.44 117.87 166.68 122.36 C 166.48 119.17 166.15 115.98 165.84 112.80 C 163.16 114.76 160.51 116.92 157.63 118.58 C 154.47 120.40 150.77 121.32 147.28 122.34 C 147.20 126.97 147.24 131.60 147.33 136.23 C 144.43 136.80 141.54 137.52 138.64 138.03 C 132.66 138.47 126.77 137.60 121.02 136.01 C 118.41 135.16 115.77 133.77 113.04 133.43 C 111.50 133.81 110.03 134.70 108.64 135.46 C 102.27 139.60 95.31 141.66 87.98 143.35 C 81.79 142.54 76.09 142.59 69.91 143.39 C 62.18 141.76 54.84 139.38 48.17 135.04 C 44.38 132.58 41.30 129.33 37.69 126.67 C 41.91 125.56 46.13 124.58 48.91 120.92 C 52.72 116.08 52.99 108.73 53.78 102.83 C 57.03 107.52 59.12 112.96 62.54 117.50 C 65.44 121.24 69.54 122.96 73.92 124.37 C 76.84 124.74 79.90 124.75 82.84 124.81 C 83.10 123.17 83.34 121.53 83.58 119.89 C 83.72 121.37 83.86 122.85 84.00 124.32 C 87.34 123.29 90.43 122.52 93.07 120.08 C 97.76 115.87 100.19 109.77 103.41 104.47 C 104.87 108.89 105.50 113.57 107.15 117.90 C 109.91 124.76 118.63 127.78 125.33 125.27 C 129.03 123.64 131.44 119.56 132.97 115.99 C 138.55 102.15 139.09 87.47 136.60 72.88 Z" fill="#e86298" />
<path d="M 75.98 97.38 C 81.17 97.27 87.44 97.08 91.97 100.02 C 96.59 102.70 97.70 110.09 93.80 113.82 C 91.07 116.66 87.10 118.28 83.58 119.89 C 83.34 121.53 83.10 123.17 82.84 124.81 C 79.90 124.75 76.84 124.74 73.92 124.37 C 73.89 122.77 73.86 121.18 73.81 119.58 C 70.04 117.93 66.52 116.46 63.73 113.30 C 60.95 110.48 61.18 105.41 63.34 102.32 C 66.18 98.62 71.57 97.52 75.98 97.38 Z" fill="#44494d" />
<path d="M 165.84 112.80 C 166.15 115.98 166.48 119.17 166.68 122.36 C 166.32 127.20 166.15 132.05 165.98 136.90 C 159.83 135.39 153.42 135.29 147.33 137.13 L 147.33 136.23 C 147.24 131.60 147.20 126.97 147.28 122.34 C 150.77 121.32 154.47 120.40 157.63 118.58 C 160.51 116.92 163.16 114.76 165.84 112.80 Z" fill="#ffc5d3" />
<path d="M 25.03 117.85 C 26.53 119.96 28.20 122.14 30.24 123.76 C 32.26 125.37 35.25 125.96 37.69 126.67 C 41.30 129.33 44.38 132.58 48.17 135.04 C 48.16 136.36 48.15 137.69 48.13 139.01 C 45.69 136.32 43.41 133.74 40.33 131.73 C 36.91 129.46 32.72 127.99 29.59 125.39 C 27.25 123.42 26.15 120.62 25.03 117.85 Z" fill="#cfcacc" />
<path d="M 113.04 133.43 C 115.77 133.77 118.41 135.16 121.02 136.01 C 118.69 137.04 116.00 138.27 114.29 140.22 C 112.97 141.93 112.23 144.17 111.40 146.15 C 110.57 145.86 109.74 145.57 108.91 145.29 C 108.86 142.01 108.77 138.73 108.64 135.46 C 110.03 134.70 111.50 133.81 113.04 133.43 Z" fill="#d2d2d2" />
<path d="M 48.17 135.04 C 54.84 139.38 62.18 141.76 69.91 143.39 L 70.68 143.91 L 71.38 144.56 C 63.21 143.75 55.84 142.57 47.95 145.73 C 48.02 143.49 48.09 141.25 48.13 139.01 C 48.15 137.69 48.16 136.36 48.17 135.04 Z" fill="#ffc6d4" />
<path d="M 108.64 135.46 C 108.77 138.73 108.86 142.01 108.91 145.29 C 101.23 142.53 94.33 144.03 86.50 144.39 L 87.15 143.68 L 87.98 143.35 C 95.31 141.66 102.27 139.60 108.64 135.46 Z" fill="#ffc5d3" />
<path d="M 121.02 136.01 C 126.77 137.60 132.66 138.47 138.64 138.03 C 139.83 139.01 141.01 139.98 142.20 140.96 C 143.91 139.68 145.62 138.40 147.33 137.13 C 153.42 135.29 159.83 135.39 165.98 136.90 C 168.61 138.79 172.29 141.35 172.15 144.99 C 172.29 148.14 169.32 150.38 167.35 152.46 C 160.96 153.86 154.70 154.55 148.28 152.84 C 146.17 151.67 144.17 150.33 142.05 149.18 C 140.02 150.33 138.14 151.67 136.16 152.88 C 130.08 154.40 124.03 153.85 117.97 152.62 L 117.52 152.47 C 117.08 154.78 116.87 157.63 115.54 159.62 C 113.96 161.65 111.43 163.07 109.20 164.29 C 101.83 166.51 94.21 166.33 86.81 164.36 C 84.09 162.60 81.65 160.50 79.01 158.62 C 76.36 160.45 73.90 162.50 71.15 164.20 C 63.82 166.49 56.17 166.40 48.79 164.41 C 46.38 163.16 44.09 161.72 41.92 160.10 C 40.46 157.41 40.62 154.02 40.81 151.06 L 41.72 149.77 C 43.68 148.25 45.77 146.91 47.95 145.73 C 55.84 142.57 63.21 143.75 71.38 144.56 C 73.88 147.00 76.44 149.28 79.13 151.49 C 81.72 149.26 84.24 146.97 86.50 144.39 C 94.33 144.03 101.23 142.53 108.91 145.29 C 109.74 145.57 110.57 145.86 111.40 146.15 C 112.23 144.17 112.97 141.93 114.29 140.22 C 116.00 138.27 118.69 137.04 121.02 136.01 Z" fill="#ff79b5" />
<path d="M 147.33 136.23 L 147.33 137.13 C 145.62 138.40 143.91 139.68 142.20 140.96 C 141.01 139.98 139.83 139.01 138.64 138.03 C 141.54 137.52 144.43 136.80 147.33 136.23 Z" fill="#c7b1ba" />
<path d="M 87.98 143.35 L 87.15 143.68 C 81.71 144.38 76.14 144.30 70.68 143.91 L 69.91 143.39 C 76.09 142.59 81.79 142.54 87.98 143.35 Z" fill="#bc6b8c" />
<path d="M 70.68 143.91 C 76.14 144.30 81.71 144.38 87.15 143.68 L 86.50 144.39 C 84.24 146.97 81.72 149.26 79.13 151.49 C 76.44 149.28 73.88 147.00 71.38 144.56 L 70.68 143.91 Z" fill="#d0d0d0" />
<path d="M 142.05 149.18 C 144.17 150.33 146.17 151.67 148.28 152.84 C 148.10 154.25 147.92 155.66 147.74 157.07 C 145.94 154.94 143.63 152.47 140.54 153.51 C 136.72 156.22 134.82 162.70 130.38 164.46 C 126.01 165.86 120.66 161.73 116.33 162.28 C 113.36 163.51 110.96 166.48 109.04 168.98 C 109.13 167.42 109.17 165.86 109.20 164.29 C 111.43 163.07 113.96 161.65 115.54 159.62 C 116.87 157.63 117.08 154.78 117.52 152.47 L 117.97 152.62 C 118.90 155.06 119.64 158.60 121.81 160.22 C 125.42 162.68 131.08 162.36 134.23 159.27 C 135.58 157.63 135.70 154.90 136.16 152.88 C 138.14 151.67 140.02 150.33 142.05 149.18 Z" fill="#cbcbcb" />
<path d="M 117.97 152.62 C 124.03 153.85 130.08 154.40 136.16 152.88 C 135.70 154.90 135.58 157.63 134.23 159.27 C 131.08 162.36 125.42 162.68 121.81 160.22 C 119.64 158.60 118.90 155.06 117.97 152.62 Z" fill="#ffc5d3" />
<path d="M 167.35 152.46 C 166.52 154.36 165.86 156.31 165.11 158.24 C 162.88 159.47 160.34 161.24 157.77 161.52 C 155.14 161.67 152.37 160.91 149.81 160.36 C 149.11 159.27 148.45 158.16 147.74 157.07 C 147.92 155.66 148.10 154.25 148.28 152.84 C 154.70 154.55 160.96 153.86 167.35 152.46 Z" fill="#ffc5d3" />
<path d="M 79.01 158.62 C 81.65 160.50 84.09 162.60 86.81 164.36 C 86.80 165.60 86.82 166.84 86.88 168.07 C 85.11 166.26 82.97 164.28 80.55 163.42 C 78.34 162.66 75.82 163.65 74.18 165.18 C 70.72 168.63 69.65 174.77 65.87 177.89 C 60.79 181.56 53.63 179.98 50.66 174.39 C 55.32 175.93 59.87 178.00 64.70 175.73 C 69.32 173.83 69.92 168.41 71.15 164.20 C 73.90 162.50 76.36 160.45 79.01 158.62 Z" fill="#cacaca" />
<path d="M 165.11 158.24 C 163.67 161.40 161.67 163.93 157.96 164.27 C 154.34 164.79 151.88 163.13 149.81 160.36 C 152.37 160.91 155.14 161.67 157.77 161.52 C 160.34 161.24 162.88 159.47 165.11 158.24 Z" fill="#d0bbc0" />
<path d="M 41.92 160.10 C 44.09 161.72 46.38 163.16 48.79 164.41 C 48.72 166.32 48.71 168.24 48.78 170.15 C 46.55 166.70 43.91 163.73 41.92 160.10 Z" fill="#d2c9cc" />
<path d="M 48.79 164.41 C 56.17 166.40 63.82 166.49 71.15 164.20 C 69.92 168.41 69.32 173.83 64.70 175.73 C 59.87 178.00 55.32 175.93 50.66 174.39 C 50.00 173.00 49.39 171.56 48.78 170.15 C 48.71 168.24 48.72 166.32 48.79 164.41 Z" fill="#ffc5d3" />
<path d="M 86.81 164.36 C 94.21 166.33 101.83 166.51 109.20 164.29 C 109.17 165.86 109.13 167.42 109.04 168.98 C 108.51 170.47 107.97 171.95 107.36 173.40 C 104.70 174.59 101.74 176.28 98.80 176.55 C 95.73 176.64 92.47 175.34 89.55 174.46 C 88.55 172.36 87.72 170.23 86.88 168.07 C 86.82 166.84 86.80 165.60 86.81 164.36 Z" fill="#ffc5d3" />
<path d="M 107.36 173.40 C 105.34 177.05 102.33 179.44 97.99 179.35 C 94.19 179.44 91.81 177.18 89.55 174.46 C 92.47 175.34 95.73 176.64 98.80 176.55 C 101.74 176.28 104.70 174.59 107.36 173.40 Z" fill="#d0babf" /></svg>