<?xml version="1.0" encoding="UTF-8" standalone="no"?>
<!DOCTYPE svg PUBLIC "-//W3C//DTD SVG 1.1//EN" "http://www.w3.org/Graphics/SVG/1.1/DTD/svg11.dtd">
<svg viewBox="0 0 192 192" height="192.0pt" width="192.0pt" xmlns="http://www.w3.org/2000/svg" version="1.1">
<path d="M 123.43 23.57 C 127.04 26.33 129.92 29.56 133.12 32.76 C 136.09 37.95 138.94 42.88 140.19 48.81 C 141.68 54.87 141.12 60.51 141.41 66.64 C 138.15 69.35 135.11 72.34 131.94 75.14 C 130.20 65.58 131.96 53.94 127.79 45.21 C 124.84 39.00 118.40 33.87 111.19 36.10 C 104.27 38.91 99.56 45.51 97.78 52.63 C 96.67 52.46 95.55 52.35 94.42 52.32 C 92.83 45.92 88.69 40.37 83.01 37.02 C 79.27 34.82 74.18 35.15 70.70 37.74 C 65.02 41.47 62.38 48.42 61.82 54.95 C 61.33 63.01 61.08 71.51 59.51 79.48 C 57.32 91.42 53.03 102.22 51.33 114.26 C 49.82 127.39 53.10 140.83 61.11 151.42 C 59.59 153.13 58.14 154.89 56.73 156.69 C 50.07 150.29 45.00 142.39 42.49 133.46 C 40.33 125.97 40.54 118.71 40.84 111.02 C 34.92 115.52 29.18 120.91 22.95 124.96 C 21.48 125.90 20.12 126.53 18.39 125.79 C 16.20 124.06 15.18 121.00 14.62 118.37 C 13.55 113.74 15.05 108.62 16.09 104.08 C 22.25 91.54 32.78 82.10 45.34 76.22 C 46.83 75.42 48.26 74.53 49.75 73.72 C 51.75 64.54 49.86 55.53 52.59 46.59 C 53.53 43.34 54.89 40.19 56.20 37.08 C 59.92 32.14 63.64 27.38 68.65 23.66 C 84.10 11.59 107.95 11.56 123.43 23.57 Z" fill="#474c50" />
<path d="M 133.12 32.76 C 138.51 36.80 140.86 43.14 142.76 49.37 C 145.62 59.06 142.38 67.46 147.52 76.52 C 145.99 75.62 143.60 74.95 142.61 73.46 C 141.93 71.27 141.70 68.91 141.41 66.64 C 141.12 60.51 141.68 54.87 140.19 48.81 C 138.94 42.88 136.09 37.95 133.12 32.76 Z" fill="#e5e5e5" />
<path d="M 83.01 37.02 C 88.69 40.37 92.83 45.92 94.42 52.32 C 91.87 53.05 89.42 54.02 87.00 55.11 C 85.92 52.09 85.22 48.50 82.20 46.78 C 78.73 44.95 73.29 45.47 71.08 49.06 C 68.98 52.70 68.40 57.32 69.59 61.36 C 70.22 63.84 71.30 66.09 73.61 67.39 C 75.44 68.22 77.75 68.20 79.74 68.35 C 79.73 69.82 79.78 71.28 79.82 72.74 C 81.05 73.75 82.26 74.66 83.36 75.80 C 85.19 79.73 87.01 83.13 91.35 84.67 C 95.33 85.76 100.62 85.74 103.93 82.91 C 106.39 81.06 107.29 78.44 108.69 75.82 C 109.76 74.70 111.07 73.76 112.27 72.77 C 112.35 71.29 112.43 69.83 112.46 68.35 C 115.39 68.14 118.74 68.29 120.71 65.69 C 122.97 62.50 123.44 57.93 122.91 54.15 C 122.33 51.08 121.37 48.12 118.39 46.61 C 114.99 45.07 110.08 45.49 107.76 48.74 C 106.13 50.84 105.99 53.21 105.62 55.74 C 103.21 54.28 100.52 53.28 97.78 52.63 C 99.56 45.51 104.27 38.91 111.19 36.10 C 118.40 33.87 124.84 39.00 127.79 45.21 C 131.96 53.94 130.20 65.58 131.94 75.14 C 133.96 89.24 139.42 101.98 141.06 115.99 C 141.95 127.87 139.25 141.22 131.73 150.73 C 125.79 158.22 117.25 163.73 107.94 165.93 C 90.97 169.83 72.27 165.39 61.11 151.42 C 53.10 140.83 49.82 127.39 51.33 114.26 C 53.03 102.22 57.32 91.42 59.51 79.48 C 61.08 71.51 61.33 63.01 61.82 54.95 C 62.38 48.42 65.02 41.47 70.70 37.74 C 74.18 35.15 79.27 34.82 83.01 37.02 Z" fill="#ffffff" />
<path d="M 56.20 37.08 C 54.89 40.19 53.53 43.34 52.59 46.59 C 49.86 55.53 51.75 64.54 49.75 73.72 C 48.26 74.53 46.83 75.42 45.34 76.22 C 48.98 69.01 47.27 62.34 48.49 54.69 C 49.64 48.11 51.25 41.87 56.20 37.08 Z" fill="#e6e6e6" />
<path d="M 82.20 46.78 C 85.22 48.50 85.92 52.09 87.00 55.11 C 82.96 58.75 80.77 63.03 79.74 68.35 C 77.75 68.20 75.44 68.22 73.61 67.39 C 71.30 66.09 70.22 63.84 69.59 61.36 C 68.40 57.32 68.98 52.70 71.08 49.06 C 73.29 45.47 78.73 44.95 82.20 46.78 Z" fill="#484d51" />
<path d="M 118.39 46.61 C 121.37 48.12 122.33 51.08 122.91 54.15 C 123.44 57.93 122.97 62.50 120.71 65.69 C 118.74 68.29 115.39 68.14 112.46 68.35 C 111.51 63.31 109.40 59.22 105.62 55.74 C 105.99 53.21 106.13 50.84 107.76 48.74 C 110.08 45.49 114.99 45.07 118.39 46.61 Z" fill="#454a4e" />
<path d="M 94.42 52.32 C 95.55 52.35 96.67 52.46 97.78 52.63 C 100.52 53.28 103.21 54.28 105.62 55.74 C 109.40 59.22 111.51 63.31 112.46 68.35 C 112.43 69.83 112.35 71.29 112.27 72.77 C 111.07 73.76 109.76 74.70 108.69 75.82 C 105.25 75.12 102.17 75.92 98.83 76.63 C 93.50 77.81 88.83 74.55 83.36 75.80 C 82.26 74.66 81.05 73.75 79.82 72.74 C 79.78 71.28 79.73 69.82 79.74 68.35 C 80.77 63.03 82.96 58.75 87.00 55.11 C 89.42 54.02 91.87 53.05 94.42 52.32 Z" fill="#f29e36" />
<path d="M 99.04 54.97 C 104.04 54.75 106.85 60.78 103.48 64.51 C 101.61 67.04 98.15 63.98 96.03 63.17 C 94.37 64.07 92.67 65.03 90.89 65.65 C 87.76 65.04 86.01 60.55 87.89 57.95 C 89.83 53.86 95.36 55.05 99.04 54.97 Z" fill="#474b4f" />
<path d="M 141.41 66.64 C 141.70 68.91 141.93 71.27 142.61 73.46 C 143.60 74.95 145.99 75.62 147.52 76.52 C 160.41 82.80 171.30 92.69 176.84 106.13 C 178.12 112.43 179.04 119.34 174.78 124.77 C 173.45 126.57 171.49 126.33 169.78 125.26 C 163.23 121.20 157.40 115.46 151.20 110.93 C 152.14 119.65 151.68 128.32 148.70 136.63 C 144.87 147.30 136.92 156.58 127.73 163.08 C 109.03 175.75 82.97 175.70 64.30 162.99 C 61.57 161.12 59.13 158.97 56.73 156.69 C 58.14 154.89 59.59 153.13 61.11 151.42 C 72.27 165.39 90.97 169.83 107.94 165.93 C 117.25 163.73 125.79 158.22 131.73 150.73 C 139.25 141.22 141.95 127.87 141.06 115.99 C 139.42 101.98 133.96 89.24 131.94 75.14 C 135.11 72.34 138.15 69.35 141.41 66.64 Z" fill="#3f4448" />
<path d="M 98.83 76.63 C 102.17 75.92 105.25 75.12 108.69 75.82 C 107.29 78.44 106.39 81.06 103.93 82.91 C 100.62 85.74 95.33 85.76 91.35 84.67 C 87.01 83.13 85.19 79.73 83.36 75.80 C 88.83 74.55 93.50 77.81 98.83 76.63 Z" fill="#e18c30" />
<path d="M 16.09 104.08 C 15.05 108.62 13.55 113.74 14.62 118.37 C 15.18 121.00 16.20 124.06 18.39 125.79 C 20.12 126.53 21.48 125.90 22.95 124.96 C 29.18 120.91 34.92 115.52 40.84 111.02 C 40.54 118.71 40.33 125.97 42.49 133.46 C 45.00 142.39 50.07 150.29 56.73 156.69 C 59.13 158.97 61.57 161.12 64.30 162.99 C 64.26 164.40 64.26 165.81 64.30 167.24 C 62.34 167.21 60.38 167.15 58.43 167.16 C 58.22 164.20 57.26 162.86 55.19 160.81 C 49.04 154.85 44.20 147.71 41.33 139.62 C 39.26 134.00 38.99 127.91 37.71 121.89 C 31.13 122.01 27.65 129.18 20.92 129.96 C 18.16 130.19 15.90 128.76 14.57 126.40 C 10.71 119.47 11.71 110.55 16.09 104.08 Z" fill="#dbdbdb" />
<path d="M 176.84 106.13 C 180.29 112.13 181.20 119.53 177.82 125.75 C 176.07 128.97 172.35 130.66 168.87 129.19 C 163.95 127.04 160.48 122.82 155.34 120.91 C 154.77 122.35 154.15 123.77 153.53 125.19 C 151.05 130.27 151.16 135.88 148.97 141.03 C 147.11 145.53 144.75 149.90 141.75 153.74 C 138.07 158.55 133.29 161.50 130.81 167.26 C 129.77 167.38 128.72 167.51 127.68 167.67 C 127.73 166.14 127.75 164.61 127.73 163.08 C 136.92 156.58 144.87 147.30 148.70 136.63 C 151.68 128.32 152.14 119.65 151.20 110.93 C 157.40 115.46 163.23 121.20 169.78 125.26 C 171.49 126.33 173.45 126.57 174.78 124.77 C 179.04 119.34 178.12 112.43 176.84 106.13 Z" fill="#d8d8d8" />
<path d="M 153.53 125.19 C 154.18 127.33 155.04 129.14 154.60 131.43 C 153.29 138.54 150.70 145.59 146.60 151.58 C 143.48 156.30 139.26 160.08 136.08 164.78 C 136.69 165.58 137.29 166.38 137.89 167.19 C 135.54 167.09 133.17 167.14 130.81 167.26 C 133.29 161.50 138.07 158.55 141.75 153.74 C 144.75 149.90 147.11 145.53 148.97 141.03 C 151.16 135.88 151.05 130.27 153.53 125.19 Z" fill="#ededed" />
<path d="M 64.30 162.99 C 82.97 175.70 109.03 175.75 127.73 163.08 C 127.75 164.61 127.73 166.14 127.68 167.67 C 128.72 167.51 129.77 167.38 130.81 167.26 C 133.17 167.14 135.54 167.09 137.89 167.19 L 138.70 167.37 C 142.97 169.98 147.59 172.71 151.00 176.37 L 150.31 177.07 L 148.38 177.32 C 145.25 177.18 142.13 176.94 139.00 176.92 C 106.03 176.93 72.97 176.96 40.00 176.90 C 45.49 172.53 50.92 167.13 58.43 167.16 C 60.38 167.15 62.34 167.21 64.30 167.24 C 64.26 165.81 64.26 164.40 64.30 162.99 Z" fill="#e08829" />
<path d="M 138.70 167.37 C 143.44 168.16 147.58 170.63 150.74 174.22 C 152.73 176.45 152.88 180.50 150.30 182.36 C 148.18 183.95 145.02 184.33 142.45 184.62 C 136.67 185.11 130.80 184.88 125.00 184.90 C 103.33 184.91 81.67 184.88 60.00 184.92 C 54.76 184.89 49.17 185.22 44.02 184.17 C 42.39 183.78 40.19 183.17 39.24 181.67 C 38.99 180.45 38.78 179.23 38.58 178.01 C 39.63 178.03 40.67 178.05 41.71 178.06 C 42.97 179.26 44.37 181.30 46.22 181.46 C 50.75 182.04 55.44 181.62 60.00 181.68 C 86.68 181.70 113.37 181.62 140.04 181.73 C 142.00 181.66 144.21 181.64 146.05 180.93 C 147.71 180.07 148.98 178.36 150.31 177.07 L 151.00 176.37 C 147.59 172.71 142.97 169.98 138.70 167.37 Z" fill="#f0f0f0" />
<path d="M 40.00 176.90 C 72.97 176.96 106.03 176.93 139.00 176.92 C 142.13 176.94 145.25 177.18 148.38 177.32 C 141.22 178.44 134.20 178.02 127.00 178.07 C 98.58 178.09 70.13 178.04 41.71 178.06 C 40.67 178.05 39.63 178.03 38.58 178.01 L 40.00 176.90 Z" fill="#b67937" />
<path d="M 148.38 177.32 L 150.31 177.07 C 148.98 178.36 147.71 180.07 146.05 180.93 C 144.21 181.64 142.00 181.66 140.04 181.73 C 113.37 181.62 86.68 181.70 60.00 181.68 C 55.44 181.62 50.75 182.04 46.22 181.46 C 44.37 181.30 42.97 179.26 41.71 178.06 C 70.13 178.04 98.58 178.09 127.00 178.07 C 134.20 178.02 141.22 178.44 148.38 177.32 Z" fill="#d3d3d3" /></svg>