<?xml version="1.0" encoding="UTF-8" standalone="no"?>
<!DOCTYPE svg PUBLIC "-//W3C//DTD SVG 1.1//EN" "http://www.w3.org/Graphics/SVG/1.1/DTD/svg11.dtd">
<svg viewBox="0 0 192 192" height="192.0pt" width="192.0pt" xmlns="http://www.w3.org/2000/svg" version="1.1">
<path d="M 67.04 14.84 C 75.70 15.74 83.23 20.77 88.22 27.77 C 90.20 30.69 91.40 34.02 93.35 36.97 C 95.28 37.24 98.62 37.95 99.51 35.62 C 101.04 33.05 102.08 30.27 103.75 27.75 C 108.98 20.08 117.64 15.07 126.95 14.64 C 134.64 14.08 141.75 16.67 148.06 20.89 C 152.41 25.39 156.34 29.74 158.21 35.87 C 159.85 40.80 160.06 45.97 159.19 51.08 C 157.35 50.95 155.27 50.42 153.44 50.72 C 152.94 51.39 152.50 52.11 152.13 52.87 C 152.60 47.44 152.37 42.18 149.71 37.29 C 146.35 31.11 140.04 26.02 132.94 25.13 C 127.41 24.44 121.65 24.85 116.79 27.78 C 112.56 30.31 108.78 34.18 106.98 38.83 C 110.05 41.33 113.39 43.04 116.23 45.76 C 119.19 48.59 121.58 52.28 123.82 55.69 C 119.47 58.77 115.61 62.37 112.26 66.51 C 114.46 66.92 116.74 67.16 118.88 67.82 C 114.75 67.58 110.04 67.24 106.30 69.33 C 103.06 71.06 101.11 73.96 99.15 76.95 C 98.60 76.40 98.06 75.84 97.52 75.27 C 93.19 77.46 94.50 83.05 93.28 87.11 C 93.66 82.16 93.75 77.55 90.53 73.46 C 86.19 67.60 78.31 66.29 71.74 68.78 C 66.72 71.11 62.88 76.38 62.83 82.01 C 62.69 85.87 64.27 89.23 65.86 92.64 C 63.36 94.25 59.83 96.06 59.14 99.22 C 58.89 101.45 59.42 103.86 59.76 106.07 C 55.59 108.33 51.37 110.33 46.96 112.09 C 48.92 101.22 52.65 90.78 57.60 80.92 C 58.34 79.40 58.98 77.84 59.56 76.25 C 55.47 74.77 51.68 74.19 47.94 72.10 C 41.76 68.59 37.28 63.17 34.02 56.93 C 32.17 50.42 31.84 43.21 33.63 36.65 C 35.24 30.78 38.95 26.29 42.88 21.82 C 49.93 16.59 58.18 13.66 67.04 14.84 Z" fill="#9e9fa1" />
<path d="M 148.06 20.89 C 155.34 24.93 160.20 33.12 162.06 41.05 C 164.86 53.49 159.74 66.95 149.58 74.58 C 146.77 76.67 143.64 78.00 140.73 79.86 C 139.67 80.73 138.28 81.14 138.62 82.78 C 139.36 86.98 141.61 90.98 143.04 94.99 C 149.04 111.20 151.64 128.68 149.83 145.90 C 148.84 153.63 146.11 160.89 139.85 165.85 C 134.62 169.80 127.72 171.97 122.03 175.16 C 118.94 176.85 117.24 180.73 114.58 182.59 C 111.17 183.61 107.08 182.85 103.57 182.62 C 89.89 181.26 75.81 182.11 62.25 179.85 C 53.83 178.53 46.20 174.69 39.53 169.48 C 34.65 165.56 31.01 160.08 30.20 153.78 C 29.33 147.11 31.51 140.68 35.30 135.25 C 37.80 131.59 40.92 128.57 42.03 124.17 C 43.09 119.98 43.45 115.64 44.38 111.42 C 45.96 104.16 48.16 96.94 51.22 90.17 C 52.45 87.26 53.77 84.69 53.76 81.45 C 50.39 78.92 46.49 77.39 43.07 74.95 C 37.94 71.36 33.99 66.10 31.64 60.32 C 26.52 47.01 30.42 29.69 42.88 21.82 C 38.95 26.29 35.24 30.78 33.63 36.65 C 31.84 43.21 32.17 50.42 34.02 56.93 C 36.19 64.97 42.03 71.81 49.61 75.25 C 52.72 76.67 55.42 78.21 57.60 80.92 C 52.65 90.78 48.92 101.22 46.96 112.09 C 46.01 116.62 45.36 121.20 44.91 125.80 C 40.48 130.53 36.27 134.91 34.20 141.24 C 32.17 146.74 32.86 152.48 35.03 157.82 C 37.33 165.17 43.25 168.88 49.62 172.41 C 56.29 176.04 63.48 177.32 70.97 177.91 C 81.55 178.70 92.16 178.55 102.74 179.51 C 106.78 179.70 110.48 180.50 114.08 178.14 C 115.32 176.94 116.16 175.49 117.06 174.03 C 118.78 172.58 120.75 171.53 122.85 170.72 C 127.91 168.76 133.06 166.51 137.59 163.49 C 139.64 162.10 140.85 160.13 142.03 158.01 C 148.11 146.84 147.66 135.35 146.86 123.04 C 145.37 108.45 141.22 93.97 134.59 80.89 C 137.36 77.40 141.08 75.86 144.88 73.84 C 151.24 70.28 156.29 64.09 157.96 56.92 C 158.52 54.99 158.86 53.06 159.19 51.08 C 160.06 45.97 159.85 40.80 158.21 35.87 C 156.34 29.74 152.41 25.39 148.06 20.89 Z" fill="#e7e7e7" />
<path d="M 59.98 24.98 C 65.29 24.48 70.58 24.97 75.24 27.76 C 79.47 30.30 83.28 34.21 85.07 38.87 C 81.85 41.80 78.14 43.94 75.09 47.09 C 70.09 52.24 66.04 58.41 62.88 64.84 C 61.71 67.13 60.66 69.39 58.86 71.27 C 47.86 69.76 39.25 59.00 39.64 48.00 C 39.42 36.75 48.73 26.02 59.98 24.98 Z" fill="#ffc8d5" />
<path d="M 132.94 25.13 C 140.04 26.02 146.35 31.11 149.71 37.29 C 152.37 42.18 152.60 47.44 152.13 52.87 C 149.81 61.89 142.81 70.08 133.18 71.17 C 129.50 66.38 127.40 60.59 123.82 55.69 C 121.58 52.28 119.19 48.59 116.23 45.76 C 113.39 43.04 110.05 41.33 106.98 38.83 C 108.78 34.18 112.56 30.31 116.79 27.78 C 121.65 24.85 127.41 24.44 132.94 25.13 Z" fill="#ffc6d4" />
<path d="M 153.44 50.72 C 155.27 50.42 157.35 50.95 159.19 51.08 C 158.86 53.06 158.52 54.99 157.96 56.92 C 154.72 63.18 150.24 68.59 144.06 72.10 C 140.85 73.90 137.02 74.64 133.45 75.84 C 133.21 77.68 133.88 79.23 134.59 80.89 C 141.22 93.97 145.37 108.45 146.86 123.04 C 147.66 135.35 148.11 146.84 142.03 158.01 C 139.17 160.84 135.74 162.62 132.09 164.20 C 128.90 165.54 126.11 167.72 122.88 168.91 C 120.02 169.63 116.89 169.54 113.98 169.14 C 111.42 168.78 109.10 166.54 106.90 165.23 C 104.81 163.73 101.48 164.09 99.01 163.99 C 94.41 164.14 89.16 163.70 85.01 165.88 C 78.83 169.71 69.88 171.11 63.96 166.09 C 59.29 162.67 54.08 162.40 50.72 157.29 C 44.42 147.89 44.76 136.63 44.91 125.80 C 45.36 121.20 46.01 116.62 46.96 112.09 C 51.37 110.33 55.59 108.33 59.76 106.07 C 63.06 108.08 65.95 110.22 69.99 110.36 C 74.37 110.54 79.56 108.74 81.67 104.63 C 82.33 102.59 82.03 100.19 82.05 98.07 C 86.98 95.41 91.31 92.67 93.28 87.11 C 94.50 83.05 93.19 77.46 97.52 75.27 C 98.06 75.84 98.60 76.40 99.15 76.95 C 98.60 81.55 97.93 86.38 100.50 90.52 C 102.76 94.26 106.37 95.94 109.97 98.09 C 110.08 100.90 109.32 104.28 111.59 106.46 C 116.41 111.56 125.73 111.62 130.75 106.77 C 133.52 104.17 134.04 99.38 131.54 96.43 C 130.01 94.72 127.98 93.41 126.08 92.13 C 127.75 88.85 129.39 85.81 129.21 82.00 C 129.17 75.70 124.35 70.34 118.88 67.82 C 116.74 67.16 114.46 66.92 112.26 66.51 C 115.61 62.37 119.47 58.77 123.82 55.69 C 127.40 60.59 129.50 66.38 133.18 71.17 C 142.81 70.08 149.81 61.89 152.13 52.87 C 152.50 52.11 152.94 51.39 153.44 50.72 Z" fill="#9a9b9d" />
<path d="M 34.02 56.93 C 37.28 63.17 41.76 68.59 47.94 72.10 C 51.68 74.19 55.47 74.77 59.56 76.25 C 58.98 77.84 58.34 79.40 57.60 80.92 C 55.42 78.21 52.72 76.67 49.61 75.25 C 42.03 71.81 36.19 64.97 34.02 56.93 Z" fill="#cccccc" />
<path d="M 157.96 56.92 C 156.29 64.09 151.24 70.28 144.88 73.84 C 141.08 75.86 137.36 77.40 134.59 80.89 C 133.88 79.23 133.21 77.68 133.45 75.84 C 137.02 74.64 140.85 73.90 144.06 72.10 C 150.24 68.59 154.72 63.18 157.96 56.92 Z" fill="#cacaca" />
<path d="M 90.53 73.46 C 93.75 77.55 93.66 82.16 93.28 87.11 C 91.31 92.67 86.98 95.41 82.05 98.07 C 78.86 97.97 75.18 98.04 72.23 96.71 C 69.95 95.67 67.86 94.15 65.86 92.64 C 64.27 89.23 62.69 85.87 62.83 82.01 C 62.88 76.38 66.72 71.11 71.74 68.78 C 78.31 66.29 86.19 67.60 90.53 73.46 Z" fill="#ffffff" />
<path d="M 118.88 67.82 C 124.35 70.34 129.17 75.70 129.21 82.00 C 129.39 85.81 127.75 88.85 126.08 92.13 C 123.97 93.91 121.62 95.98 119.03 96.97 C 116.25 97.98 112.91 97.96 109.97 98.09 C 106.37 95.94 102.76 94.26 100.50 90.52 C 97.93 86.38 98.60 81.55 99.15 76.95 C 101.11 73.96 103.06 71.06 106.30 69.33 C 110.04 67.24 114.75 67.58 118.88 67.82 Z" fill="#ffffff" />
<path d="M 75.39 71.34 C 80.94 69.79 87.51 73.18 89.37 78.68 C 91.13 83.32 89.39 88.54 85.58 91.59 C 80.93 95.40 73.69 94.68 69.58 90.43 C 66.17 86.88 65.59 81.18 67.85 76.87 C 69.50 74.03 72.27 72.21 75.39 71.34 Z" fill="#474b4f" />
<path d="M 111.33 71.23 C 117.84 69.73 124.58 74.31 125.40 80.98 C 126.14 85.94 123.92 90.16 119.60 92.57 C 113.43 96.23 105.06 93.01 102.62 86.38 C 100.23 79.93 104.59 72.48 111.33 71.23 Z" fill="#44484c" />
<path d="M 126.08 92.13 C 127.98 93.41 130.01 94.72 131.54 96.43 C 134.04 99.38 133.52 104.17 130.75 106.77 C 125.73 111.62 116.41 111.56 111.59 106.46 C 109.32 104.28 110.08 100.90 109.97 98.09 C 112.91 97.96 116.25 97.98 119.03 96.97 C 121.62 95.98 123.97 93.91 126.08 92.13 Z" fill="#ffc6d3" />
<path d="M 65.86 92.64 C 67.86 94.15 69.95 95.67 72.23 96.71 C 75.18 98.04 78.86 97.97 82.05 98.07 C 82.03 100.19 82.33 102.59 81.67 104.63 C 79.56 108.74 74.37 110.54 69.99 110.36 C 65.95 110.22 63.06 108.08 59.76 106.07 C 59.42 103.86 58.89 101.45 59.14 99.22 C 59.83 96.06 63.36 94.25 65.86 92.64 Z" fill="#ffc7d4" />
<path d="M 100.73 96.28 C 103.92 96.89 107.35 98.38 107.70 102.05 C 107.53 104.16 105.93 106.22 105.00 108.08 C 103.69 110.06 104.21 112.09 103.99 114.44 C 99.54 118.47 94.09 119.43 88.26 118.84 C 89.07 116.64 89.97 114.48 90.65 112.23 C 88.67 109.47 85.45 106.77 84.49 103.50 C 83.64 100.70 85.78 98.21 88.25 97.20 C 92.09 95.63 96.69 95.68 100.73 96.28 Z" fill="#43484c" />
<path d="M 44.91 125.80 C 44.76 136.63 44.42 147.89 50.72 157.29 C 54.08 162.40 59.29 162.67 63.96 166.09 C 69.88 171.11 78.83 169.71 85.01 165.88 C 91.25 166.34 97.57 167.24 103.72 168.39 C 108.68 169.32 112.68 171.71 117.06 174.03 C 116.16 175.49 115.32 176.94 114.08 178.14 C 110.72 177.47 107.35 176.79 103.97 176.24 C 94.08 174.53 83.77 174.71 73.77 175.20 C 68.46 174.95 63.11 174.32 57.95 173.03 C 53.08 171.81 49.23 169.31 44.94 166.87 C 40.89 164.56 38.04 161.30 35.03 157.82 C 32.86 152.48 32.17 146.74 34.20 141.24 C 36.27 134.91 40.48 130.53 44.91 125.80 Z" fill="#f29b30" />
<path d="M 35.03 157.82 C 38.04 161.30 40.89 164.56 44.94 166.87 C 49.23 169.31 53.08 171.81 57.95 173.03 C 63.11 174.32 68.46 174.95 73.77 175.20 C 83.83 176.24 93.88 175.93 103.97 176.24 C 107.35 176.79 110.72 177.47 114.08 178.14 C 110.48 180.50 106.78 179.70 102.74 179.51 C 92.16 178.55 81.55 178.70 70.97 177.91 C 63.48 177.32 56.29 176.04 49.62 172.41 C 43.25 168.88 37.33 165.17 35.03 157.82 Z" fill="#cecece" />
<path d="M 142.03 158.01 C 140.85 160.13 139.64 162.10 137.59 163.49 C 133.06 166.51 127.91 168.76 122.85 170.72 C 120.75 171.53 118.78 172.58 117.06 174.03 C 112.68 171.71 108.68 169.32 103.72 168.39 C 97.57 167.24 91.25 166.34 85.01 165.88 C 89.16 163.70 94.41 164.14 99.01 163.99 C 101.48 164.09 104.81 163.73 106.90 165.23 C 109.10 166.54 111.42 168.78 113.98 169.14 C 116.89 169.54 120.02 169.63 122.88 168.91 C 126.11 167.72 128.90 165.54 132.09 164.20 C 135.74 162.62 139.17 160.84 142.03 158.01 Z" fill="#cbcbcb" />
<path d="M 73.77 175.20 C 83.77 174.71 94.08 174.53 103.97 176.24 C 93.88 175.93 83.83 176.24 73.77 175.20 Z" fill="#c59356" /></svg>