<?xml version="1.0" encoding="UTF-8" standalone="no"?>
<!DOCTYPE svg PUBLIC "-//W3C//DTD SVG 1.1//EN" "http://www.w3.org/Graphics/SVG/1.1/DTD/svg11.dtd">
<svg viewBox="0 0 192 192" height="192.0pt" width="192.0pt" xmlns="http://www.w3.org/2000/svg" version="1.1">
<path d="M 51.57 15.52 C 59.32 17.10 65.58 21.59 70.83 27.34 C 74.23 31.79 76.82 36.70 78.92 41.88 C 80.21 47.05 81.90 52.54 81.87 57.89 C 81.81 60.39 79.93 62.02 77.70 62.74 C 74.82 63.64 70.78 63.70 68.41 61.56 C 66.43 58.44 65.36 54.81 63.38 51.66 C 61.57 46.24 59.53 41.29 54.93 37.63 C 51.10 34.76 45.99 32.90 41.21 34.17 C 38.93 34.72 37.44 36.25 35.83 37.83 C 38.86 37.52 41.94 36.77 44.99 36.80 C 47.36 37.15 49.73 38.37 51.85 39.45 C 56.72 43.29 58.94 46.89 60.50 52.89 C 61.06 58.19 61.30 63.24 59.33 68.31 C 58.04 71.86 56.07 74.79 54.03 77.94 C 52.41 79.51 50.73 81.04 49.09 82.60 C 47.11 83.14 45.11 83.60 43.12 84.09 C 39.77 84.18 36.44 84.10 33.10 83.84 C 23.35 79.63 16.76 70.29 15.07 59.94 C 13.37 49.63 15.23 39.27 20.04 30.04 C 22.80 26.58 25.77 22.99 29.29 20.29 C 35.56 15.48 43.86 13.68 51.57 15.52 Z" fill="#917058" />
<path d="M 140.42 15.47 C 147.89 13.74 155.86 15.44 162.04 19.96 C 166.38 23.13 169.78 27.73 172.99 31.99 C 176.53 40.79 178.70 49.69 177.18 59.21 C 176.43 64.62 174.17 69.49 171.19 74.01 C 168.12 77.54 165.07 80.75 160.72 82.70 C 156.75 84.54 152.25 84.23 147.99 84.10 C 145.65 83.13 143.30 82.15 141.00 81.09 C 140.18 80.27 139.37 79.45 138.56 78.63 C 136.28 75.63 134.13 72.73 132.84 69.14 C 131.14 64.55 131.11 60.04 130.87 55.22 C 132.21 48.68 134.35 44.52 139.09 39.82 C 141.55 38.63 144.28 37.14 147.01 36.79 C 150.04 36.69 153.12 37.46 156.13 37.77 C 153.94 36.02 151.80 34.32 148.93 33.90 C 144.48 33.24 140.26 35.02 136.82 37.74 C 132.45 41.09 130.38 45.71 128.58 50.75 C 126.97 54.09 125.59 57.58 123.74 60.79 C 122.31 63.37 118.61 63.52 116.03 63.16 C 113.08 62.69 110.04 61.38 109.93 57.95 C 109.78 52.59 111.55 47.02 112.88 41.85 C 114.94 36.58 117.58 31.67 121.08 27.21 C 126.32 21.45 132.66 16.99 140.42 15.47 Z" fill="#8b6950" />
<path d="M 70.83 27.34 C 74.83 28.63 78.88 28.75 83.03 29.07 C 86.48 29.31 89.75 30.26 93.15 30.78 C 96.29 31.28 99.50 30.24 102.59 29.66 C 108.98 28.24 114.84 29.68 121.08 27.21 C 117.58 31.67 114.94 36.58 112.88 41.85 C 105.01 39.69 97.04 39.65 88.96 40.04 C 85.52 40.19 82.20 40.92 78.92 41.88 C 76.82 36.70 74.23 31.79 70.83 27.34 Z" fill="#dce6ef" />
<path d="M 20.04 30.04 C 15.23 39.27 13.37 49.63 15.07 59.94 C 16.76 70.29 23.35 79.63 33.10 83.84 C 29.05 91.55 29.27 99.88 30.85 108.22 C 31.92 112.88 34.00 117.39 36.77 121.29 C 38.96 124.40 42.02 126.70 44.24 129.74 C 46.59 133.27 47.48 137.39 50.22 140.81 C 53.63 145.36 59.39 147.67 64.10 151.07 C 64.30 155.11 64.32 159.22 64.76 163.21 C 65.50 170.86 71.71 178.37 79.94 177.64 C 86.66 177.24 90.52 172.23 92.89 166.44 C 95.23 166.34 96.94 166.58 99.03 167.67 C 100.39 170.41 101.63 172.96 104.10 174.90 C 108.37 178.40 114.89 178.57 119.43 175.46 C 123.25 172.88 125.57 168.72 126.23 164.19 C 126.70 161.16 127.20 158.12 127.55 155.07 C 129.88 156.78 131.95 158.40 134.98 158.47 C 138.44 158.72 140.76 156.88 143.79 155.70 C 146.11 158.86 147.24 162.22 151.11 163.91 C 156.22 166.49 162.64 164.39 165.69 159.68 C 168.48 155.47 168.65 150.98 168.86 146.11 C 169.10 142.28 168.84 138.47 168.28 134.68 C 170.71 130.32 174.27 126.31 175.44 121.57 C 176.49 117.37 177.12 112.46 175.86 108.24 C 175.20 105.79 173.99 103.44 173.54 100.95 C 173.64 99.53 174.17 98.10 174.55 96.73 C 176.11 91.86 176.03 86.57 176.98 81.50 C 179.47 87.77 179.40 93.49 177.90 100.00 C 176.03 107.38 180.24 113.44 179.10 121.05 C 178.74 126.87 175.94 131.32 173.27 136.29 C 170.46 141.46 171.62 147.36 171.02 153.04 C 170.66 158.26 168.74 163.23 164.69 166.66 C 161.18 169.62 156.18 170.56 151.83 169.13 C 148.50 167.92 145.74 164.79 142.63 163.34 C 139.60 162.47 136.13 162.79 133.04 163.17 C 131.70 163.47 130.47 163.39 129.80 164.81 C 128.01 168.26 127.30 172.79 124.97 175.98 C 120.93 181.46 113.05 184.18 106.67 181.37 C 101.79 179.50 99.62 175.25 95.94 171.90 C 93.25 173.95 91.29 176.59 88.83 178.84 C 85.30 182.20 79.70 183.24 75.07 181.99 C 70.59 180.88 66.92 177.25 64.67 173.35 C 62.41 169.41 62.55 165.38 61.99 161.02 C 61.68 159.12 61.69 157.25 60.09 155.92 C 56.88 153.07 52.91 151.36 49.85 148.15 C 45.94 144.11 44.44 138.78 40.89 134.12 C 37.81 130.08 34.33 126.71 31.84 122.19 C 27.08 113.57 26.15 103.47 28.05 93.89 C 28.24 91.94 29.11 89.02 27.72 87.37 C 25.03 83.76 21.24 81.13 18.66 77.37 C 12.55 68.75 11.17 57.82 12.63 47.55 C 13.83 41.12 15.63 35.04 20.04 30.04 Z" fill="#dcdcdc" />
<path d="M 172.99 31.99 C 178.03 37.33 179.58 45.90 180.27 52.96 C 181.11 61.35 178.02 68.11 175.94 75.96 C 175.56 76.53 175.16 77.09 174.74 77.65 C 173.46 76.51 172.34 75.28 171.19 74.01 C 174.17 69.49 176.43 64.62 177.18 59.21 C 178.70 49.69 176.53 40.79 172.99 31.99 Z" fill="#e2e2e2" />
<path d="M 41.21 34.17 C 45.99 32.90 51.10 34.76 54.93 37.63 C 53.87 38.18 52.89 38.87 51.85 39.45 C 49.73 38.37 47.36 37.15 44.99 36.80 C 41.94 36.77 38.86 37.52 35.83 37.83 C 37.44 36.25 38.93 34.72 41.21 34.17 Z" fill="#c4c4c4" />
<path d="M 148.93 33.90 C 151.80 34.32 153.94 36.02 156.13 37.77 C 153.12 37.46 150.04 36.69 147.01 36.79 C 144.28 37.14 141.55 38.63 139.09 39.82 C 138.33 39.13 137.58 38.44 136.82 37.74 C 140.26 35.02 144.48 33.24 148.93 33.90 Z" fill="#c5c5c5" />
<path d="M 54.93 37.63 C 59.53 41.29 61.57 46.24 63.38 51.66 C 62.42 52.07 61.46 52.48 60.50 52.89 C 58.94 46.89 56.72 43.29 51.85 39.45 C 52.89 38.87 53.87 38.18 54.93 37.63 Z" fill="#dce6f0" />
<path d="M 136.82 37.74 C 137.58 38.44 138.33 39.13 139.09 39.82 C 134.35 44.52 132.21 48.68 130.87 55.22 C 130.14 53.71 129.35 52.24 128.58 50.75 C 130.38 45.71 132.45 41.09 136.82 37.74 Z" fill="#dbe5ef" />
<path d="M 88.96 40.04 C 97.04 39.65 105.01 39.69 112.88 41.85 C 111.55 47.02 109.78 52.59 109.93 57.95 C 110.04 61.38 113.08 62.69 116.03 63.16 C 118.61 63.52 122.31 63.37 123.74 60.79 C 125.59 57.58 126.97 54.09 128.58 50.75 C 129.35 52.24 130.14 53.71 130.87 55.22 C 131.11 60.04 131.14 64.55 132.84 69.14 C 134.13 72.73 136.28 75.63 138.56 78.63 C 137.46 79.98 136.81 81.05 136.69 82.84 C 136.20 87.84 135.37 92.83 135.08 97.84 C 137.73 98.21 140.43 98.24 143.08 97.91 C 144.00 92.32 142.69 86.42 141.00 81.09 C 143.30 82.15 145.65 83.13 147.99 84.10 C 149.06 90.44 150.18 97.47 149.07 103.86 C 143.68 104.70 138.67 103.47 133.37 103.38 C 131.08 106.89 129.78 110.96 127.48 114.48 C 122.06 123.04 114.34 130.65 104.27 133.25 C 95.89 135.24 86.49 134.49 78.98 130.02 C 72.66 126.32 67.44 120.59 63.57 114.43 C 61.25 110.84 59.94 106.72 57.64 103.15 C 52.39 102.80 47.27 104.56 41.92 103.89 C 40.79 97.57 42.31 90.43 43.12 84.09 C 45.11 83.60 47.11 83.14 49.09 82.60 C 48.13 87.47 47.29 92.92 48.15 97.85 C 50.70 98.18 53.31 98.12 55.84 97.73 C 55.59 91.12 54.41 84.55 54.03 77.94 C 56.07 74.79 58.04 71.86 59.33 68.31 C 61.30 63.24 61.06 58.19 60.50 52.89 C 61.46 52.48 62.42 52.07 63.38 51.66 C 65.36 54.81 66.43 58.44 68.41 61.56 C 70.78 63.70 74.82 63.64 77.70 62.74 C 79.93 62.02 81.81 60.39 81.87 57.89 C 81.90 52.54 80.21 47.05 78.92 41.88 C 82.20 40.92 85.52 40.19 88.96 40.04 Z" fill="#919ea6" />
<path d="M 43.04 51.04 C 45.75 50.86 47.10 53.68 47.41 55.97 C 47.88 59.65 46.92 64.39 43.85 66.82 C 42.23 68.11 40.27 68.18 38.29 68.18 C 38.60 65.59 38.93 62.99 39.28 60.40 C 39.70 58.16 40.07 55.86 40.76 53.68 C 41.12 52.81 41.82 50.69 43.04 51.04 Z" fill="#dce6f0" />
<path d="M 150.08 51.78 C 151.16 54.43 151.48 57.59 152.95 60.03 C 154.90 61.43 157.62 61.83 159.85 62.71 C 158.00 66.84 151.15 70.28 147.49 66.46 C 144.00 63.05 142.35 55.87 146.12 52.09 C 147.25 50.65 148.65 51.15 150.08 51.78 Z" fill="#dae4ee" />
<path d="M 39.28 60.40 C 38.93 62.99 38.60 65.59 38.29 68.18 C 34.91 67.11 32.73 64.73 30.94 61.80 C 33.78 61.58 36.55 61.29 39.28 60.40 Z" fill="#cacaca" />
<path d="M 74.30 70.59 C 82.92 70.12 91.30 77.09 91.09 85.99 C 91.52 94.77 83.55 102.00 75.00 101.81 C 66.11 101.96 58.06 94.11 59.04 85.03 C 59.43 76.86 66.29 70.87 74.30 70.59 Z" fill="#ffffff" />
<path d="M 115.18 70.60 C 123.89 70.21 132.08 77.03 132.03 86.01 C 132.44 95.05 123.83 102.38 115.06 101.78 C 106.75 101.64 99.23 94.52 99.73 85.99 C 99.49 77.44 106.92 70.86 115.18 70.60 Z" fill="#ffffff" />
<path d="M 71.52 74.65 C 78.10 72.74 85.16 76.61 86.87 83.25 C 88.11 88.29 86.45 93.23 82.09 96.12 C 75.20 100.79 64.75 97.35 63.14 88.87 C 61.92 82.49 65.49 76.74 71.52 74.65 Z" fill="#464b4f" />
<path d="M 112.49 74.58 C 119.73 72.64 127.38 77.47 128.11 85.03 C 129.14 92.08 123.03 98.49 116.00 98.14 C 108.94 98.56 102.64 92.05 103.57 84.97 C 104.07 79.98 107.74 75.97 112.49 74.58 Z" fill="#43484c" />
<path d="M 171.19 74.01 C 172.34 75.28 173.46 76.51 174.74 77.65 C 175.16 77.09 175.56 76.53 175.94 75.96 C 176.23 77.81 176.60 79.66 176.98 81.50 C 176.03 86.57 176.11 91.86 174.55 96.73 C 174.17 98.10 173.64 99.53 173.54 100.95 C 173.99 103.44 175.20 105.79 175.86 108.24 C 177.12 112.46 176.49 117.37 175.44 121.57 C 174.27 126.31 170.71 130.32 168.28 134.68 C 162.52 140.04 153.85 141.70 146.67 145.27 C 143.49 145.24 139.06 144.35 136.43 146.47 C 133.01 148.85 129.67 150.55 125.68 151.79 C 122.95 151.90 120.02 151.75 117.35 152.42 C 114.94 153.72 112.98 155.98 110.91 157.76 C 106.92 159.99 102.94 161.86 98.27 161.89 C 96.37 161.60 94.69 161.62 92.80 161.90 C 88.12 161.83 84.10 159.98 80.11 157.73 C 77.71 155.71 75.31 152.31 71.99 152.16 C 69.36 151.77 66.72 151.53 64.10 151.07 C 59.39 147.67 53.63 145.36 50.22 140.81 C 47.48 137.39 46.59 133.27 44.24 129.74 C 42.02 126.70 38.96 124.40 36.77 121.29 C 34.00 117.39 31.92 112.88 30.85 108.22 C 29.27 99.88 29.05 91.55 33.10 83.84 C 36.44 84.10 39.77 84.18 43.12 84.09 C 42.31 90.43 40.79 97.57 41.92 103.89 C 47.27 104.56 52.39 102.80 57.64 103.15 C 59.94 106.72 61.25 110.84 63.57 114.43 C 67.44 120.59 72.66 126.32 78.98 130.02 C 86.49 134.49 95.89 135.24 104.27 133.25 C 114.34 130.65 122.06 123.04 127.48 114.48 C 129.78 110.96 131.08 106.89 133.37 103.38 C 138.67 103.47 143.68 104.70 149.07 103.86 C 150.18 97.47 149.06 90.44 147.99 84.10 C 152.25 84.23 156.75 84.54 160.72 82.70 C 165.07 80.75 168.12 77.54 171.19 74.01 Z" fill="#dae5ef" />
<path d="M 54.03 77.94 C 54.41 84.55 55.59 91.12 55.84 97.73 C 53.31 98.12 50.70 98.18 48.15 97.85 C 47.29 92.92 48.13 87.47 49.09 82.60 C 50.73 81.04 52.41 79.51 54.03 77.94 Z" fill="#474c50" />
<path d="M 138.56 78.63 C 139.37 79.45 140.18 80.27 141.00 81.09 C 142.69 86.42 144.00 92.32 143.08 97.91 C 140.43 98.24 137.73 98.21 135.08 97.84 C 135.37 92.83 136.20 87.84 136.69 82.84 C 136.81 81.05 137.46 79.98 138.56 78.63 Z" fill="#41464a" />
<path d="M 63.93 104.08 C 70.54 104.96 77.59 106.38 84.06 108.00 C 90.38 109.51 92.10 116.91 95.33 121.68 C 98.55 118.50 99.84 112.63 103.70 109.71 C 105.87 108.32 108.73 107.79 111.22 107.18 C 116.75 106.03 122.34 104.63 127.96 104.04 C 119.05 111.52 109.07 117.78 99.87 124.90 C 98.23 126.09 98.73 127.57 98.39 129.32 C 96.47 129.30 94.56 129.28 92.64 129.26 C 92.31 127.53 92.77 126.08 91.15 124.89 C 87.10 121.56 82.67 118.70 78.54 115.47 C 73.73 111.67 68.21 108.41 63.93 104.08 Z" fill="#43484c" />
<path d="M 168.28 134.68 C 168.84 138.47 169.10 142.28 168.86 146.11 C 161.19 146.05 154.21 146.86 146.67 145.27 C 153.85 141.70 162.52 140.04 168.28 134.68 Z" fill="#8d9ba3" />
<path d="M 146.67 145.27 C 154.21 146.86 161.19 146.05 168.86 146.11 C 168.65 150.98 168.48 155.47 165.69 159.68 C 162.64 164.39 156.22 166.49 151.11 163.91 C 147.24 162.22 146.11 158.86 143.79 155.70 C 140.76 156.88 138.44 158.72 134.98 158.47 C 131.95 158.40 129.88 156.78 127.55 155.07 C 126.93 153.98 126.31 152.88 125.68 151.79 C 129.67 150.55 133.01 148.85 136.43 146.47 C 139.06 144.35 143.49 145.24 146.67 145.27 Z" fill="#3e4347" />
<path d="M 64.10 151.07 C 66.72 151.53 69.36 151.77 71.99 152.16 C 75.31 152.31 77.71 155.71 80.11 157.73 C 75.12 157.54 69.98 157.26 65.02 157.97 C 64.81 159.71 64.75 161.46 64.76 163.21 C 64.32 159.22 64.30 155.11 64.10 151.07 Z" fill="#8e9ca4" />
<path d="M 117.35 152.42 C 120.02 151.75 122.95 151.90 125.68 151.79 C 126.31 152.88 126.93 153.98 127.55 155.07 C 127.20 158.12 126.70 161.16 126.23 164.19 C 126.33 162.10 126.31 160.01 126.08 157.93 C 121.09 157.26 115.93 157.51 110.91 157.76 C 112.98 155.98 114.94 153.72 117.35 152.42 Z" fill="#8d9ba3" />
<path d="M 65.02 157.97 C 69.98 157.26 75.12 157.54 80.11 157.73 C 84.10 159.98 88.12 161.83 92.80 161.90 C 92.84 163.42 92.88 164.93 92.89 166.44 C 90.52 172.23 86.66 177.24 79.94 177.64 C 71.71 178.37 65.50 170.86 64.76 163.21 C 64.75 161.46 64.81 159.71 65.02 157.97 Z" fill="#3f4448" />
<path d="M 110.91 157.76 C 115.93 157.51 121.09 157.26 126.08 157.93 C 126.31 160.01 126.33 162.10 126.23 164.19 C 125.57 168.72 123.25 172.88 119.43 175.46 C 114.89 178.57 108.37 178.40 104.10 174.90 C 101.63 172.96 100.39 170.41 99.03 167.67 C 98.72 165.75 98.50 163.82 98.27 161.89 C 102.94 161.86 106.92 159.99 110.91 157.76 Z" fill="#3e4347" />
<path d="M 98.27 161.89 C 98.50 163.82 98.72 165.75 99.03 167.67 C 96.94 166.58 95.23 166.34 92.89 166.44 C 92.88 164.93 92.84 163.42 92.80 161.90 C 94.69 161.62 96.37 161.60 98.27 161.89 Z" fill="#c0c0c0" /></svg>