<?xml version="1.0" encoding="UTF-8" standalone="no"?>
<!DOCTYPE svg PUBLIC "-//W3C//DTD SVG 1.1//EN" "http://www.w3.org/Graphics/SVG/1.1/DTD/svg11.dtd">
<svg viewBox="0 0 192 192" height="192.0pt" width="192.0pt" xmlns="http://www.w3.org/2000/svg" version="1.1">
<path d="M 51.96 15.93 C 64.38 26.38 75.24 36.65 74.26 54.37 C 72.93 56.35 71.34 56.26 69.21 56.43 C 67.64 44.52 64.72 33.60 53.14 27.83 C 47.50 25.10 43.93 31.41 43.22 36.14 C 40.88 50.31 48.55 58.63 53.32 71.11 C 51.94 73.19 52.63 76.35 50.02 73.05 C 45.10 62.43 37.48 55.77 36.22 43.84 C 35.73 34.62 38.21 25.35 42.06 17.00 C 45.82 13.68 47.51 14.27 51.96 15.93 Z" fill="#bbbbbb" />
<path d="M 138.30 16.60 C 143.62 27.16 145.78 40.33 142.83 51.85 C 139.44 60.08 133.31 67.01 129.65 75.20 C 128.79 73.87 127.97 72.51 127.31 71.07 C 131.96 60.13 140.61 47.16 136.76 35.15 C 136.15 30.85 131.84 24.68 126.95 27.93 C 115.61 34.21 112.81 44.87 111.25 56.90 C 106.55 55.72 107.14 55.52 106.72 50.85 C 106.39 35.88 116.68 26.05 127.15 17.05 C 131.75 15.08 133.84 12.50 138.30 16.60 Z" fill="#b9b8b8" />
<path d="M 51.96 15.93 C 62.20 20.20 71.07 31.64 75.39 41.62 C 77.31 46.43 75.73 51.95 81.12 54.33 C 78.77 55.21 76.63 54.91 74.26 54.37 C 75.24 36.65 64.38 26.38 51.96 15.93 Z" fill="#eaeaea" />
<path d="M 42.06 17.00 C 38.21 25.35 35.73 34.62 36.22 43.84 C 37.48 55.77 45.10 62.43 50.02 73.05 C 53.33 83.99 46.92 94.26 43.22 104.17 C 40.20 113.29 42.11 123.08 49.72 129.29 C 53.14 133.06 59.65 134.34 59.89 140.03 C 61.27 148.63 61.04 162.55 68.78 168.21 C 75.83 173.48 83.14 168.68 90.02 172.96 C 91.08 175.11 91.39 179.42 92.27 174.16 C 95.78 172.84 99.25 172.06 103.01 171.98 C 110.24 172.04 114.76 166.59 122.03 166.16 C 129.23 165.98 139.44 165.29 144.76 159.77 C 149.20 154.66 147.48 148.16 152.12 143.14 C 157.46 137.15 157.75 126.90 151.81 121.20 C 148.05 116.32 143.92 117.50 138.65 116.10 C 141.30 104.23 130.87 94.82 130.08 83.02 C 129.92 80.41 129.89 77.80 129.65 75.20 C 133.31 67.01 139.44 60.08 142.83 51.85 C 145.78 40.33 143.62 27.16 138.30 16.60 C 146.13 21.69 147.25 36.52 147.07 45.00 C 147.91 58.56 137.42 66.44 133.18 78.13 C 131.91 85.68 136.01 94.38 138.74 101.30 C 140.76 105.53 141.05 110.57 143.41 114.55 C 150.57 117.68 156.67 120.27 158.30 128.80 C 161.17 140.48 151.44 143.72 150.22 154.18 C 149.49 158.81 146.21 162.04 142.35 164.35 C 132.62 170.18 120.57 166.24 111.60 172.55 C 105.52 175.39 99.20 173.72 93.51 177.43 C 90.43 179.26 87.64 176.26 84.82 175.34 C 79.19 174.63 71.63 174.60 66.80 171.19 C 59.06 165.86 58.26 153.42 57.26 144.94 C 56.91 141.15 56.64 138.04 53.01 136.00 C 45.65 131.26 39.26 125.40 38.94 116.02 C 37.88 102.28 49.71 92.13 47.65 78.34 C 43.68 66.32 33.84 59.28 33.39 45.62 C 33.56 36.89 34.30 22.61 42.06 17.00 Z" fill="#e8e8e8" />
<path d="M 127.15 17.05 C 116.68 26.05 106.39 35.88 106.72 50.85 C 105.95 52.55 106.55 55.38 103.93 54.93 C 96.86 53.89 89.94 53.92 82.81 53.85 C 88.76 51.67 96.67 54.31 102.30 52.28 C 104.83 44.10 105.76 36.51 111.88 29.85 C 116.31 25.36 120.97 18.95 127.15 17.05 Z" fill="#ececed" />
<path d="M 53.14 27.83 C 64.72 33.60 67.64 44.52 69.21 56.43 C 62.69 60.43 56.64 63.79 53.32 71.11 C 48.55 58.63 40.88 50.31 43.22 36.14 C 43.93 31.41 47.50 25.10 53.14 27.83 Z" fill="#fec8d5" />
<path d="M 136.76 35.15 C 140.61 47.16 131.96 60.13 127.31 71.07 C 124.27 63.85 118.21 59.84 111.25 56.90 C 112.81 44.87 115.61 34.21 126.95 27.93 C 131.84 24.68 136.15 30.85 136.76 35.15 Z" fill="#fec6d3" />
<path d="M 106.72 50.85 C 107.14 55.52 106.55 55.72 111.25 56.90 C 118.21 59.84 124.27 63.85 127.31 71.07 C 127.97 72.51 128.79 73.87 129.65 75.20 C 129.89 77.80 129.92 80.41 130.08 83.02 C 130.87 94.82 141.30 104.23 138.65 116.10 C 138.49 116.68 138.32 117.26 138.14 117.84 C 135.23 125.41 129.23 128.92 122.39 132.43 C 119.48 133.94 120.12 136.02 119.97 138.83 C 119.94 141.59 119.90 144.33 119.57 147.06 C 118.91 153.20 117.99 157.35 115.06 162.80 C 124.43 163.92 133.23 161.92 142.08 159.07 C 134.92 166.38 121.06 161.72 112.33 167.33 C 106.32 171.20 100.34 169.69 92.94 171.06 C 93.06 170.16 93.19 169.27 93.34 168.37 C 98.92 168.92 103.83 170.06 109.08 167.28 C 104.16 166.69 99.18 167.35 94.29 166.76 C 92.71 164.21 94.54 159.15 93.90 155.99 C 101.31 151.08 111.73 144.77 114.84 136.02 C 99.08 140.20 81.91 140.30 66.12 136.15 C 69.81 144.68 79.20 150.81 86.74 155.73 C 85.75 158.82 89.37 164.98 86.70 166.71 C 80.36 167.47 74.02 167.38 67.95 165.21 C 72.70 170.22 81.63 169.06 87.75 168.21 C 88.99 169.52 89.44 171.31 90.02 172.96 C 83.14 168.68 75.83 173.48 68.78 168.21 C 61.04 162.55 61.27 148.63 59.89 140.03 C 59.65 134.34 53.14 133.06 49.72 129.29 C 42.11 123.08 40.20 113.29 43.22 104.17 C 46.92 94.26 53.33 83.99 50.02 73.05 C 52.63 76.35 51.94 73.19 53.32 71.11 C 56.64 63.79 62.69 60.43 69.21 56.43 C 71.34 56.26 72.93 56.35 74.26 54.37 C 76.63 54.91 78.77 55.21 81.12 54.33 L 82.81 53.85 C 89.94 53.92 96.86 53.89 103.93 54.93 C 106.55 55.38 105.95 52.55 106.72 50.85 Z" fill="#c6c7c8" />
<path d="M 89.98 64.17 C 96.12 64.75 99.00 72.42 102.07 76.96 C 98.29 81.83 98.42 83.47 100.56 89.13 C 100.93 92.29 100.97 95.31 102.06 98.34 C 98.82 97.06 95.64 95.97 92.12 95.82 C 92.07 92.72 91.71 89.83 90.42 86.98 C 89.85 89.92 89.31 92.87 88.89 95.83 C 85.33 95.94 82.21 96.57 78.86 97.73 C 79.73 94.61 80.04 91.46 80.18 88.24 C 81.12 84.23 81.93 81.21 78.82 77.92 C 80.72 72.89 84.48 65.82 89.98 64.17 Z" fill="#fdfdfd" />
<path d="M 78.82 77.92 C 81.93 81.21 81.12 84.23 80.18 88.24 C 77.80 83.63 74.76 79.93 69.12 80.06 C 63.07 82.28 59.86 87.51 61.02 93.99 C 62.80 102.05 70.06 105.74 76.93 100.05 C 76.94 101.34 76.97 102.62 77.00 103.91 C 70.39 109.57 58.63 108.20 54.94 99.63 C 52.67 90.05 53.47 81.01 62.14 75.11 C 67.86 70.87 74.33 73.20 78.82 77.92 Z" fill="#b4b8ba" />
<path d="M 123.07 78.95 C 127.97 85.60 127.70 92.44 124.77 99.84 C 125.16 104.90 119.78 105.68 116.12 107.16 L 115.24 107.30 C 110.13 106.96 105.98 107.73 102.75 102.95 C 102.88 101.97 103.01 101.00 103.13 100.02 C 106.51 102.43 109.88 103.99 113.92 101.92 C 121.11 98.50 121.43 86.35 115.23 81.79 C 108.73 77.58 101.64 81.89 100.56 89.13 C 98.42 83.47 98.29 81.83 102.07 76.96 C 108.28 70.92 118.23 71.64 123.07 78.95 Z" fill="#b4b8ba" />
<path d="M 69.12 80.06 C 74.76 79.93 77.80 83.63 80.18 88.24 C 80.04 91.46 79.73 94.61 78.86 97.73 C 78.21 98.49 77.57 99.27 76.93 100.05 C 70.06 105.74 62.80 102.05 61.02 93.99 C 59.86 87.51 63.07 82.28 69.12 80.06 Z" fill="#555c61" />
<path d="M 115.23 81.79 C 121.43 86.35 121.11 98.50 113.92 101.92 C 109.88 103.99 106.51 102.43 103.13 100.02 C 102.77 99.46 102.42 98.90 102.06 98.34 C 100.97 95.31 100.93 92.29 100.56 89.13 C 101.64 81.89 108.73 77.58 115.23 81.79 Z" fill="#535a60" />
<path d="M 90.42 86.98 C 91.71 89.83 92.07 92.72 92.12 95.82 C 91.04 95.82 89.97 95.83 88.89 95.83 C 89.31 92.87 89.85 89.92 90.42 86.98 Z" fill="#b8bbbd" />
<path d="M 88.89 95.83 C 89.97 95.83 91.04 95.82 92.12 95.82 C 95.64 95.97 98.82 97.06 102.06 98.34 C 102.42 98.90 102.77 99.46 103.13 100.02 C 103.01 101.00 102.88 101.97 102.75 102.95 C 101.07 106.94 98.11 108.55 94.72 110.85 C 91.62 110.96 88.52 111.00 85.43 111.15 C 82.31 109.00 79.23 107.05 77.00 103.91 C 76.97 102.62 76.94 101.34 76.93 100.05 C 77.57 99.27 78.21 98.49 78.86 97.73 C 82.21 96.57 85.33 95.94 88.89 95.83 Z" fill="#fe9aa9" />
<path d="M 54.94 99.63 C 58.63 108.20 70.39 109.57 77.00 103.91 C 79.23 107.05 82.31 109.00 85.43 111.15 C 77.92 117.13 72.91 112.15 65.17 111.04 C 63.72 118.53 66.58 118.91 71.79 122.62 C 81.31 134.09 99.67 134.24 109.11 122.59 C 113.36 118.99 117.86 117.48 114.93 110.98 C 115.31 109.70 115.71 108.42 116.12 107.16 C 119.78 105.68 125.16 104.90 124.77 99.84 C 130.88 100.93 132.95 106.39 132.99 111.96 C 130.97 120.97 124.21 125.38 116.82 129.86 C 95.48 141.96 66.04 138.02 50.22 118.77 C 44.86 111.87 46.49 102.88 54.94 99.63 Z" fill="#fdfdfd" />
<path d="M 102.75 102.95 C 105.98 107.73 110.13 106.96 115.24 107.30 C 113.43 108.83 111.64 110.37 109.86 111.93 C 103.99 115.16 100.04 114.90 94.72 110.85 C 98.11 108.55 101.07 106.94 102.75 102.95 Z" fill="#fcfafb" />
<path d="M 115.24 107.30 L 116.12 107.16 C 115.71 108.42 115.31 109.70 114.93 110.98 C 113.25 111.33 111.56 111.64 109.86 111.93 C 111.64 110.37 113.43 108.83 115.24 107.30 Z" fill="#696f73" />
<path d="M 65.17 111.04 C 72.91 112.15 77.92 117.13 85.43 111.15 C 88.52 111.00 91.62 110.96 94.72 110.85 C 100.04 114.90 103.99 115.16 109.86 111.93 C 111.56 111.64 113.25 111.33 114.93 110.98 C 117.86 117.48 113.36 118.99 109.11 122.59 C 106.13 122.71 103.15 122.99 100.19 123.26 C 96.57 122.92 93.42 121.41 90.00 120.40 C 87.60 121.40 81.64 122.14 81.00 124.81 C 87.23 125.24 93.51 124.95 99.75 124.95 C 96.81 127.12 85.70 125.76 81.28 125.78 C 78.72 122.22 75.72 122.76 71.79 122.62 C 66.58 118.91 63.72 118.53 65.17 111.04 Z" fill="#b4b8ba" />
<path d="M 138.65 116.10 C 143.92 117.50 148.05 116.32 151.81 121.20 C 157.75 126.90 157.46 137.15 152.12 143.14 C 147.48 148.16 149.20 154.66 144.76 159.77 C 139.44 165.29 129.23 165.98 122.03 166.16 C 114.76 166.59 110.24 172.04 103.01 171.98 C 99.25 172.06 95.78 172.84 92.27 174.16 C 92.51 173.13 92.73 172.09 92.94 171.06 C 100.34 169.69 106.32 171.20 112.33 167.33 C 121.06 161.72 134.92 166.38 142.08 159.07 C 148.47 154.77 147.14 148.22 148.80 141.35 C 147.41 132.23 145.83 123.86 138.14 117.84 C 138.32 117.26 138.49 116.68 138.65 116.10 Z" fill="#dadbdb" />
<path d="M 138.14 117.84 C 145.83 123.86 147.41 132.23 148.80 141.35 C 147.14 148.22 148.47 154.77 142.08 159.07 C 133.23 161.92 124.43 163.92 115.06 162.80 C 117.99 157.35 118.91 153.20 119.57 147.06 C 123.49 148.56 129.63 142.66 133.25 140.96 C 129.17 137.59 124.93 137.25 119.97 138.83 C 120.12 136.02 119.48 133.94 122.39 132.43 C 129.23 128.92 135.23 125.41 138.14 117.84 Z" fill="#a9abac" />
<path d="M 90.00 120.40 C 93.42 121.41 96.57 122.92 100.19 123.26 L 99.75 124.95 C 93.51 124.95 87.23 125.24 81.00 124.81 C 81.64 122.14 87.60 121.40 90.00 120.40 Z" fill="#fcfdfd" />
<path d="M 81.28 125.78 C 85.70 125.76 96.81 127.12 99.75 124.95 L 100.19 123.26 C 103.15 122.99 106.13 122.71 109.11 122.59 C 99.67 134.24 81.31 134.09 71.79 122.62 C 75.72 122.76 78.72 122.22 81.28 125.78 Z" fill="#535a5f" />
<path d="M 66.12 136.15 C 81.91 140.30 99.08 140.20 114.84 136.02 C 111.73 144.77 101.31 151.08 93.90 155.99 C 90.97 156.95 89.63 156.89 86.74 155.73 C 79.20 150.81 69.81 144.68 66.12 136.15 Z" fill="#fdfdfd" />
<path d="M 133.25 140.96 C 129.63 142.66 123.49 148.56 119.57 147.06 C 119.90 144.33 119.94 141.59 119.97 138.83 C 124.93 137.25 129.17 137.59 133.25 140.96 Z" fill="#929292" />
<path d="M 86.74 155.73 C 89.63 156.89 90.97 156.95 93.90 155.99 C 94.54 159.15 92.71 164.21 94.29 166.76 C 99.18 167.35 104.16 166.69 109.08 167.28 C 103.83 170.06 98.92 168.92 93.34 168.37 C 93.19 169.27 93.06 170.16 92.94 171.06 C 92.73 172.09 92.51 173.13 92.27 174.16 C 91.39 179.42 91.08 175.11 90.02 172.96 C 89.44 171.31 88.99 169.52 87.75 168.21 C 81.63 169.06 72.70 170.22 67.95 165.21 C 74.02 167.38 80.36 167.47 86.70 166.71 C 89.37 164.98 85.75 158.82 86.74 155.73 Z" fill="#acaeaf" /></svg>