<?xml version="1.0" encoding="UTF-8" standalone="no"?>
<!DOCTYPE svg PUBLIC "-//W3C//DTD SVG 1.1//EN" "http://www.w3.org/Graphics/SVG/1.1/DTD/svg11.dtd">
<svg viewBox="0 0 192 192" height="192.0pt" width="192.0pt" xmlns="http://www.w3.org/2000/svg" version="1.1">
<path d="M 167.98 15.02 C 169.93 17.84 171.29 21.08 172.96 24.08 C 174.04 28.99 175.46 33.87 176.23 38.84 C 176.56 42.86 176.64 47.38 175.28 51.23 C 173.62 55.81 170.42 59.82 166.02 62.03 C 158.26 66.04 148.52 64.19 141.26 68.98 C 142.30 71.91 143.88 74.65 145.03 77.54 C 143.98 77.46 142.93 77.34 141.88 77.20 C 138.78 75.10 135.96 73.20 131.99 73.66 C 124.99 73.84 121.23 80.19 115.24 83.58 C 109.22 83.93 101.85 83.66 96.41 86.52 L 95.09 87.25 C 96.19 88.83 97.46 90.25 98.74 91.68 C 97.04 94.27 96.08 96.82 94.01 99.05 C 91.53 102.11 87.53 103.07 84.68 105.68 C 82.14 109.67 81.46 114.58 78.39 118.43 C 76.04 121.36 72.77 124.50 69.09 125.58 C 67.91 125.18 66.76 124.62 65.63 124.11 C 66.62 120.16 68.09 116.37 69.20 112.46 C 70.59 107.04 68.64 101.57 68.60 96.14 C 73.85 94.60 80.11 95.38 84.39 91.38 C 88.32 88.11 88.09 82.35 89.28 77.77 C 90.39 76.45 91.56 75.19 92.87 74.07 C 94.16 76.53 95.12 79.18 96.46 81.60 C 100.29 80.47 103.94 78.39 107.32 76.29 C 112.80 72.94 113.86 66.71 118.84 62.81 C 121.29 60.91 124.87 60.48 127.83 59.84 C 127.93 62.20 128.04 64.56 128.28 66.91 C 130.11 65.40 131.77 63.72 133.56 62.16 C 134.38 62.73 135.22 63.28 136.07 63.81 C 137.98 61.96 139.41 59.88 140.96 57.75 C 145.61 55.50 151.64 54.00 155.33 50.34 C 160.38 45.16 164.73 39.92 165.15 32.34 C 157.90 34.74 151.90 39.35 144.59 41.62 C 139.67 43.24 135.88 45.53 132.14 49.12 C 129.44 51.34 127.93 54.09 124.07 54.18 C 123.22 46.33 127.12 38.94 133.36 34.36 C 140.45 29.07 148.42 28.42 155.88 23.82 C 160.30 21.34 163.73 17.67 167.98 15.02 Z" fill="#8d9194" />
<path d="M 57.45 17.24 C 60.28 22.81 61.47 31.55 66.96 35.04 C 72.86 38.77 78.67 36.79 85.01 35.97 C 87.61 35.65 90.23 35.54 92.84 35.87 C 91.86 42.44 89.48 48.86 86.95 54.97 C 84.94 59.36 82.92 64.08 79.87 67.86 C 76.75 67.06 73.77 65.58 70.88 64.16 C 66.99 60.72 63.25 57.82 60.97 53.01 C 56.39 43.35 56.74 33.97 55.82 23.65 C 56.22 21.50 56.57 19.26 57.45 17.24 Z" fill="#909497" />
<path d="M 155.88 23.82 C 148.42 28.42 140.45 29.07 133.36 34.36 C 127.12 38.94 123.22 46.33 124.07 54.18 C 127.93 54.09 129.44 51.34 132.14 49.12 C 130.12 52.47 128.86 56.09 127.83 59.84 C 124.87 60.48 121.29 60.91 118.84 62.81 C 113.86 66.71 112.80 72.94 107.32 76.29 C 103.94 78.39 100.29 80.47 96.46 81.60 C 95.12 79.18 94.16 76.53 92.87 74.07 C 91.56 75.19 90.39 76.45 89.28 77.77 C 88.01 73.09 83.30 71.55 79.37 69.65 C 76.00 68.33 73.49 66.63 70.88 64.16 C 73.77 65.58 76.75 67.06 79.87 67.86 C 82.92 64.08 84.94 59.36 86.95 54.97 C 89.48 48.86 91.86 42.44 92.84 35.87 C 90.23 35.54 87.61 35.65 85.01 35.97 C 87.53 35.59 90.19 35.36 92.62 34.56 C 96.13 32.61 98.16 29.42 102.28 28.27 C 114.68 24.63 127.94 26.64 140.89 23.89 C 146.06 22.69 150.70 22.89 155.88 23.82 Z" fill="#b5c3c2" />
<path d="M 55.82 23.65 C 56.74 33.97 56.39 43.35 60.97 53.01 C 63.25 57.82 66.99 60.72 70.88 64.16 C 73.49 66.63 76.00 68.33 79.37 69.65 C 83.30 71.55 88.01 73.09 89.28 77.77 C 88.09 82.35 88.32 88.11 84.39 91.38 C 80.11 95.38 73.85 94.60 68.60 96.14 C 68.64 101.57 70.59 107.04 69.20 112.46 C 68.09 116.37 66.62 120.16 65.63 124.11 C 60.10 127.84 53.78 131.07 46.99 131.33 C 42.33 131.43 38.43 128.96 35.58 125.45 C 22.89 109.09 15.94 88.80 15.32 68.15 C 14.86 82.97 18.42 98.09 24.52 111.56 C 26.33 115.85 29.62 119.70 30.89 124.16 C 31.33 128.93 30.72 133.35 32.75 137.89 C 31.79 138.35 30.82 138.81 29.85 139.26 C 27.85 134.65 29.62 130.47 28.93 125.91 C 27.60 121.70 24.81 117.96 22.98 113.93 C 17.19 101.29 13.32 87.98 12.83 74.01 C 12.94 67.33 15.43 59.73 22.26 57.24 C 25.08 56.78 28.05 59.27 29.77 61.27 C 35.60 68.28 39.72 77.39 46.21 83.78 C 48.37 85.90 50.45 87.12 53.59 86.72 C 54.96 81.91 52.20 75.95 54.68 70.81 C 56.10 67.23 59.43 66.88 62.40 64.98 C 62.88 62.94 61.04 60.51 60.20 58.72 C 55.50 51.16 53.92 41.76 53.54 32.99 C 53.37 29.56 54.67 26.77 55.82 23.65 Z" fill="#e9e9e9" />
<path d="M 172.96 24.08 C 174.67 26.97 176.22 29.86 176.88 33.19 C 178.09 39.11 179.22 44.92 179.31 50.99 C 179.29 90.64 179.25 130.39 179.33 170.03 C 179.19 173.78 178.85 179.17 175.50 181.58 C 172.35 183.57 167.59 183.31 164.00 183.36 C 155.02 183.07 145.66 183.84 136.80 182.55 C 134.40 182.12 131.10 181.54 129.67 179.33 C 127.89 176.18 127.53 172.22 125.91 168.97 C 124.09 165.65 120.63 163.70 116.91 163.38 C 111.79 162.97 106.20 162.86 101.25 164.43 C 95.70 166.54 91.33 170.29 85.31 171.55 C 77.36 173.54 69.58 170.12 61.97 168.25 C 55.59 166.45 48.94 166.28 42.56 164.60 C 39.12 163.59 35.60 162.29 34.08 158.74 C 33.23 156.30 33.50 153.40 33.22 150.83 C 32.98 146.90 31.40 143.67 30.13 140.00 C 31.53 140.26 32.95 140.50 34.36 140.75 C 36.02 144.89 35.67 148.81 35.24 153.13 C 34.93 155.50 36.29 157.22 37.85 158.79 C 39.30 160.23 40.82 161.48 42.83 162.00 C 48.69 163.59 54.86 163.70 60.77 165.21 C 67.56 166.74 75.44 170.14 82.42 169.35 C 90.51 168.42 95.54 162.84 103.23 161.19 C 108.31 160.12 113.74 159.91 118.83 161.00 C 123.15 161.98 126.22 164.75 129.35 167.71 C 130.07 170.68 130.05 173.98 130.40 177.02 C 132.10 178.59 133.84 179.39 136.13 179.78 C 144.17 181.20 152.82 180.46 161.00 180.70 C 166.28 180.63 170.91 181.46 175.41 178.10 L 176.12 177.65 C 177.02 176.91 176.72 175.11 176.85 174.05 C 176.61 134.71 176.86 95.35 176.72 56.00 C 176.71 50.17 177.04 44.65 176.23 38.84 C 175.46 33.87 174.04 28.99 172.96 24.08 Z" fill="#e1e1e1" />
<path d="M 165.15 32.34 C 164.73 39.92 160.38 45.16 155.33 50.34 C 151.64 54.00 145.61 55.50 140.96 57.75 C 138.24 58.84 135.69 60.11 133.56 62.16 C 131.77 63.72 130.11 65.40 128.28 66.91 C 128.04 64.56 127.93 62.20 127.83 59.84 C 128.86 56.09 130.12 52.47 132.14 49.12 C 135.88 45.53 139.67 43.24 144.59 41.62 C 151.90 39.35 157.90 34.74 165.15 32.34 Z" fill="#42474b" />
<path d="M 176.23 38.84 C 177.04 44.65 176.71 50.17 176.72 56.00 C 176.86 95.35 176.61 134.71 176.85 174.05 C 176.72 175.11 177.02 176.91 176.12 177.65 C 167.83 176.54 159.50 177.78 151.26 176.80 C 150.80 173.61 150.98 170.24 151.23 167.04 C 152.31 153.97 155.87 140.98 160.91 128.90 C 162.52 125.07 163.15 121.18 163.11 117.04 C 155.35 124.47 149.01 132.74 139.83 138.92 C 138.33 139.79 136.45 140.10 134.78 140.56 C 139.54 136.47 144.69 132.45 148.19 127.20 C 150.74 123.47 152.24 119.30 153.27 114.93 C 155.24 112.61 158.39 115.12 160.66 112.88 C 160.25 109.07 158.67 104.86 155.77 102.25 C 153.49 100.28 150.59 101.01 148.09 102.10 C 142.62 104.69 138.38 110.05 135.88 115.46 C 137.68 115.49 139.47 115.51 141.26 115.68 C 133.70 124.69 125.13 132.63 115.86 139.84 C 111.62 143.28 107.12 146.16 103.57 150.12 C 102.11 145.55 100.82 140.70 98.46 136.52 C 97.33 134.54 95.59 133.18 93.22 133.46 C 86.52 134.28 80.81 141.11 75.01 143.04 C 69.49 140.92 64.78 137.01 59.30 134.68 C 55.98 133.18 51.89 131.15 48.18 131.94 C 42.88 132.95 37.67 135.70 32.75 137.89 C 30.72 133.35 31.33 128.93 30.89 124.16 C 29.62 119.70 26.33 115.85 24.52 111.56 C 18.42 98.09 14.86 82.97 15.32 68.15 C 15.94 88.80 22.89 109.09 35.58 125.45 C 38.43 128.96 42.33 131.43 46.99 131.33 C 53.78 131.07 60.10 127.84 65.63 124.11 C 66.76 124.62 67.91 125.18 69.09 125.58 C 72.77 124.50 76.04 121.36 78.39 118.43 C 81.46 114.58 82.14 109.67 84.68 105.68 C 87.53 103.07 91.53 102.11 94.01 99.05 C 96.08 96.82 97.04 94.27 98.74 91.68 C 103.36 96.66 109.80 97.79 114.80 102.21 C 114.96 104.14 115.10 106.03 115.40 107.95 C 120.66 107.57 125.22 104.30 129.57 101.58 C 132.82 99.35 136.75 97.05 139.06 93.81 C 139.10 93.01 139.00 92.20 138.74 91.39 C 136.82 90.67 134.79 90.28 132.77 89.89 C 133.13 86.60 133.48 85.26 137.05 84.75 C 142.87 85.19 148.34 88.94 154.10 90.17 C 150.54 85.45 145.89 81.55 141.88 77.20 C 142.93 77.34 143.98 77.46 145.03 77.54 C 143.88 74.65 142.30 71.91 141.26 68.98 C 148.52 64.19 158.26 66.04 166.02 62.03 C 170.42 59.82 173.62 55.81 175.28 51.23 C 176.64 47.38 176.56 42.86 176.23 38.84 Z" fill="#b2c1c0" />
<path d="M 140.96 57.75 C 139.41 59.88 137.98 61.96 136.07 63.81 C 135.22 63.28 134.38 62.73 133.56 62.16 C 135.69 60.11 138.24 58.84 140.96 57.75 Z" fill="#a9b5b5" />
<path d="M 131.99 73.66 C 135.96 73.20 138.78 75.10 141.88 77.20 C 145.89 81.55 150.54 85.45 154.10 90.17 C 148.34 88.94 142.87 85.19 137.05 84.75 C 133.48 85.26 133.13 86.60 132.77 89.89 C 126.36 92.60 118.81 96.29 114.80 102.21 C 109.80 97.79 103.36 96.66 98.74 91.68 C 97.46 90.25 96.19 88.83 95.09 87.25 L 96.41 86.52 C 99.39 87.34 102.71 88.60 105.82 88.47 C 109.19 87.77 112.37 85.39 115.24 83.58 C 121.23 80.19 124.99 73.84 131.99 73.66 Z" fill="#43484c" />
<path d="M 115.24 83.58 C 112.37 85.39 109.19 87.77 105.82 88.47 C 102.71 88.60 99.39 87.34 96.41 86.52 C 101.85 83.66 109.22 83.93 115.24 83.58 Z" fill="#b4c2c1" />
<path d="M 132.77 89.89 C 134.79 90.28 136.82 90.67 138.74 91.39 C 139.00 92.20 139.10 93.01 139.06 93.81 C 136.75 97.05 132.82 99.35 129.57 101.58 C 125.22 104.30 120.66 107.57 115.40 107.95 C 115.10 106.03 114.96 104.14 114.80 102.21 C 118.81 96.29 126.36 92.60 132.77 89.89 Z" fill="#8c9093" />
<path d="M 155.77 102.25 C 158.67 104.86 160.25 109.07 160.66 112.88 C 158.39 115.12 155.24 112.61 153.27 114.93 C 153.16 113.99 153.02 113.05 152.86 112.12 C 148.52 111.61 144.76 113.29 141.26 115.68 C 139.47 115.51 137.68 115.49 135.88 115.46 C 138.38 110.05 142.62 104.69 148.09 102.10 C 150.59 101.01 153.49 100.28 155.77 102.25 Z" fill="#8a8e91" />
<path d="M 152.86 112.12 C 153.02 113.05 153.16 113.99 153.27 114.93 C 152.24 119.30 150.74 123.47 148.19 127.20 C 144.69 132.45 139.54 136.47 134.78 140.56 C 128.12 144.77 121.63 149.11 114.41 152.36 C 111.40 153.60 108.90 155.45 106.44 157.53 C 105.33 157.77 104.23 158.02 103.12 158.28 C 102.14 157.22 101.11 156.12 100.26 154.95 C 100.46 154.62 100.69 154.31 100.93 154.02 C 101.97 154.07 103.00 154.20 104.03 154.28 C 103.94 152.89 103.75 151.50 103.57 150.12 C 107.12 146.16 111.62 143.28 115.86 139.84 C 125.13 132.63 133.70 124.69 141.26 115.68 C 144.76 113.29 148.52 111.61 152.86 112.12 Z" fill="#3f4448" />
<path d="M 163.11 117.04 C 163.15 121.18 162.52 125.07 160.91 128.90 C 155.87 140.98 152.31 153.97 151.23 167.04 C 150.98 170.24 150.80 173.61 151.26 176.80 C 159.50 177.78 167.83 176.54 176.12 177.65 L 175.41 178.10 C 160.32 177.29 145.27 178.80 130.40 177.02 C 130.05 173.98 130.07 170.68 129.35 167.71 C 128.20 164.59 126.96 161.77 123.89 160.12 C 118.94 157.41 111.94 157.98 106.44 157.53 C 108.90 155.45 111.40 153.60 114.41 152.36 C 121.63 149.11 128.12 144.77 134.78 140.56 C 136.45 140.10 138.33 139.79 139.83 138.92 C 149.01 132.74 155.35 124.47 163.11 117.04 Z" fill="#8a8e91" />
<path d="M 48.18 131.94 C 51.89 131.15 55.98 133.18 59.30 134.68 C 64.78 137.01 69.49 140.92 75.01 143.04 C 80.81 141.11 86.52 134.28 93.22 133.46 C 95.59 133.18 97.33 134.54 98.46 136.52 C 100.82 140.70 102.11 145.55 103.57 150.12 C 103.75 151.50 103.94 152.89 104.03 154.28 C 103.00 154.20 101.97 154.07 100.93 154.02 C 100.69 154.31 100.46 154.62 100.26 154.95 C 101.11 156.12 102.14 157.22 103.12 158.28 C 101.52 158.77 99.94 159.29 98.35 159.82 C 94.30 159.02 90.31 158.73 86.18 158.70 C 87.50 157.82 88.83 156.96 90.18 156.12 C 93.91 155.30 97.12 155.09 98.85 151.14 C 96.95 148.28 94.53 145.49 91.71 143.51 C 88.15 144.37 84.70 145.49 81.06 146.01 C 76.91 146.55 72.44 147.80 68.35 146.80 C 57.09 144.31 45.82 142.04 34.36 140.75 C 32.95 140.50 31.53 140.26 30.13 140.00 L 29.85 139.26 C 30.82 138.81 31.79 138.35 32.75 137.89 C 37.67 135.70 42.88 132.95 48.18 131.94 Z" fill="#8c9093" />
<path d="M 34.36 140.75 C 45.82 142.04 57.09 144.31 68.35 146.80 C 72.44 147.80 76.91 146.55 81.06 146.01 C 80.04 148.50 78.94 151.21 78.64 153.90 C 79.47 155.62 81.28 157.29 83.32 157.20 C 85.62 157.06 87.89 156.43 90.18 156.12 C 88.83 156.96 87.50 157.82 86.18 158.70 C 90.31 158.73 94.30 159.02 98.35 159.82 C 95.25 162.37 92.10 164.63 88.14 165.62 C 84.00 165.63 79.81 165.68 75.69 165.33 C 69.22 164.05 63.13 161.40 56.55 160.44 C 50.43 159.64 44.89 157.95 38.67 158.83 L 37.85 158.79 C 36.29 157.22 34.93 155.50 35.24 153.13 C 35.67 148.81 36.02 144.89 34.36 140.75 Z" fill="#b3c1c0" />
<path d="M 91.71 143.51 C 94.53 145.49 96.95 148.28 98.85 151.14 C 97.12 155.09 93.91 155.30 90.18 156.12 C 87.89 156.43 85.62 157.06 83.32 157.20 C 81.28 157.29 79.47 155.62 78.64 153.90 C 78.94 151.21 80.04 148.50 81.06 146.01 C 84.70 145.49 88.15 144.37 91.71 143.51 Z" fill="#404549" />
<path d="M 56.55 160.44 C 63.13 161.40 69.22 164.05 75.69 165.33 C 79.81 165.68 84.00 165.63 88.14 165.62 C 84.51 166.77 80.90 167.56 77.07 166.95 C 69.71 165.89 62.88 162.69 55.46 161.68 C 49.79 160.95 44.25 160.09 38.67 158.83 C 44.89 157.95 50.43 159.64 56.55 160.44 Z" fill="#9da7a6" />
<path d="M 103.12 158.28 C 104.23 158.02 105.33 157.77 106.44 157.53 C 111.94 157.98 118.94 157.41 123.89 160.12 C 126.96 161.77 128.20 164.59 129.35 167.71 C 126.22 164.75 123.15 161.98 118.83 161.00 C 113.74 159.91 108.31 160.12 103.23 161.19 C 95.54 162.84 90.51 168.42 82.42 169.35 C 75.44 170.14 67.56 166.74 60.77 165.21 C 54.86 163.70 48.69 163.59 42.83 162.00 C 40.82 161.48 39.30 160.23 37.85 158.79 L 38.67 158.83 C 44.25 160.09 49.79 160.95 55.46 161.68 C 62.88 162.69 69.71 165.89 77.07 166.95 C 80.90 167.56 84.51 166.77 88.14 165.62 C 92.10 164.63 95.25 162.37 98.35 159.82 C 99.94 159.29 101.52 158.77 103.12 158.28 Z" fill="#cdcdcd" />
<path d="M 130.40 177.02 C 145.27 178.80 160.32 177.29 175.41 178.10 C 170.91 181.46 166.28 180.63 161.00 180.70 C 152.82 180.46 144.17 181.20 136.13 179.78 C 133.84 179.39 132.10 178.59 130.40 177.02 Z" fill="#cfcfcf" /></svg>