<?xml version="1.0" encoding="UTF-8" standalone="no"?>
<!DOCTYPE svg PUBLIC "-//W3C//DTD SVG 1.1//EN" "http://www.w3.org/Graphics/SVG/1.1/DTD/svg11.dtd">
<svg viewBox="0 0 192 192" height="192.0pt" width="192.0pt" xmlns="http://www.w3.org/2000/svg" version="1.1">
<path d="M 82.25 17.75 C 92.38 19.65 100.88 27.62 104.12 37.31 C 105.66 42.65 106.05 47.98 104.43 53.36 C 101.94 63.05 94.20 70.91 84.50 73.42 C 80.91 74.27 77.11 74.02 73.53 74.70 C 72.02 76.22 71.01 78.32 70.20 80.28 C 69.62 81.95 68.92 83.41 69.94 85.08 C 72.41 89.62 75.49 93.72 77.41 98.58 C 75.98 100.98 74.56 103.43 72.93 105.70 C 70.99 103.17 69.75 98.68 65.97 98.72 C 61.04 98.13 58.39 102.80 58.05 107.06 C 57.89 110.87 60.28 115.86 64.44 116.42 C 66.67 116.25 68.86 115.19 71.02 114.63 C 71.71 118.23 72.26 121.98 72.41 125.65 C 69.31 126.70 66.24 127.81 63.30 129.27 C 56.91 132.50 50.17 135.11 43.36 137.34 C 37.02 139.48 30.56 140.16 24.44 143.02 C 22.42 136.42 21.24 129.50 20.26 122.68 C 20.24 115.09 19.93 107.21 21.77 99.78 C 23.79 91.06 27.76 82.83 33.58 76.01 C 34.89 74.75 36.21 73.49 37.42 72.12 C 33.60 70.64 29.91 69.87 26.39 67.62 C 21.83 64.67 18.82 60.31 15.81 55.90 C 14.47 50.03 13.70 44.34 15.49 38.45 C 18.84 27.23 30.40 19.48 42.06 20.56 C 47.37 20.73 51.10 23.51 55.81 25.31 C 58.24 24.01 60.32 22.12 62.72 20.74 C 68.50 17.33 75.73 16.59 82.25 17.75 Z" fill="#99d933" />
<path d="M 66.32 24.30 C 70.79 23.17 75.58 23.45 79.89 25.10 C 88.97 28.68 95.27 38.11 94.68 47.93 C 94.16 59.80 84.14 70.41 72.00 70.18 C 59.51 70.46 48.90 59.34 49.00 46.99 C 48.77 36.56 56.21 26.83 66.32 24.30 Z" fill="#fcfcfa" />
<path d="M 50.45 32.19 C 50.26 33.24 49.94 34.23 49.62 35.24 C 46.30 32.96 43.22 30.92 39.00 31.17 C 31.34 31.14 24.94 37.69 24.33 45.17 C 23.44 53.66 30.19 62.22 39.00 62.03 C 43.50 62.35 46.73 60.19 50.21 57.72 C 50.52 59.04 51.33 60.06 50.25 61.26 C 46.37 65.79 39.82 67.90 33.97 67.22 C 24.63 66.28 16.99 58.08 16.23 48.80 C 15.43 41.30 18.62 34.13 24.68 29.67 C 32.29 23.81 44.17 24.86 50.45 32.19 Z" fill="#fcfcfa" />
<path d="M 70.38 30.42 C 73.18 29.54 76.11 29.23 78.99 29.87 C 86.82 31.34 92.69 39.08 92.21 47.01 C 92.63 55.91 84.90 64.04 75.99 64.11 C 67.14 64.29 59.49 56.71 59.14 47.96 C 58.48 40.46 63.25 32.87 70.38 30.42 Z" fill="#494e51" />
<path d="M 39.00 31.17 C 43.22 30.92 46.30 32.96 49.62 35.24 C 47.05 42.86 47.27 50.25 50.21 57.72 C 46.73 60.19 43.50 62.35 39.00 62.03 C 30.19 62.22 23.44 53.66 24.33 45.17 C 24.94 37.69 31.34 31.14 39.00 31.17 Z" fill="#4c5054" />
<path d="M 104.12 37.31 C 109.15 38.66 114.30 38.35 119.35 39.60 C 130.91 42.35 142.15 47.91 149.27 57.73 C 147.77 56.62 146.11 55.29 144.30 54.75 C 142.68 55.63 141.21 56.84 139.70 57.90 C 135.10 58.74 130.80 59.30 126.65 61.64 C 118.28 66.37 111.88 74.65 108.65 83.64 C 105.78 91.28 105.09 98.85 104.12 106.87 C 97.14 110.95 91.79 116.61 86.09 122.21 C 83.59 114.17 81.01 106.21 77.41 98.58 C 75.49 93.72 72.41 89.62 69.94 85.08 C 68.92 83.41 69.62 81.95 70.20 80.28 C 71.01 78.32 72.02 76.22 73.53 74.70 C 77.11 74.02 80.91 74.27 84.50 73.42 C 94.20 70.91 101.94 63.05 104.43 53.36 C 106.05 47.98 105.66 42.65 104.12 37.31 Z" fill="#e18c30" />
<path d="M 144.30 54.75 C 146.11 55.29 147.77 56.62 149.27 57.73 C 152.55 62.52 157.46 62.94 161.91 66.10 C 166.38 69.19 169.94 73.52 173.06 77.92 C 174.70 81.79 176.31 85.80 177.08 89.94 C 178.44 96.77 177.57 104.22 175.94 110.93 C 174.41 117.59 170.09 122.58 168.03 129.05 C 164.79 137.98 158.95 145.14 150.95 150.23 C 144.88 153.22 138.10 156.84 131.12 155.96 C 127.05 155.48 124.48 152.89 120.91 151.52 C 118.63 151.88 116.34 152.88 114.02 153.10 C 110.75 152.84 107.46 151.26 104.48 149.97 C 101.02 147.22 97.83 144.24 94.96 140.89 C 93.73 139.01 92.54 137.10 91.37 135.19 C 89.26 131.01 87.41 126.71 86.09 122.21 C 91.79 116.61 97.14 110.95 104.12 106.87 C 105.34 116.25 105.95 124.89 110.66 133.34 C 113.00 137.62 116.12 141.50 119.68 144.81 C 119.15 128.03 114.07 113.77 117.32 97.33 C 119.07 88.30 122.86 77.23 130.52 71.52 C 136.40 66.95 142.79 66.78 149.33 63.91 C 146.80 60.75 143.38 59.29 139.70 57.90 C 141.21 56.84 142.68 55.63 144.30 54.75 Z" fill="#e0892a" />
<path d="M 15.81 55.90 C 18.82 60.31 21.83 64.67 26.39 67.62 C 29.91 69.87 33.60 70.64 37.42 72.12 C 36.21 73.49 34.89 74.75 33.58 76.01 C 28.68 71.37 23.16 69.29 19.12 63.80 C 17.23 61.48 16.43 58.77 15.81 55.90 Z" fill="#cccfc8" />
<path d="M 139.70 57.90 C 143.38 59.29 146.80 60.75 149.33 63.91 C 142.79 66.78 136.40 66.95 130.52 71.52 C 122.86 77.23 119.07 88.30 117.32 97.33 C 114.07 113.77 119.15 128.03 119.68 144.81 C 116.12 141.50 113.00 137.62 110.66 133.34 C 105.95 124.89 105.34 116.25 104.12 106.87 C 105.09 98.85 105.78 91.28 108.65 83.64 C 111.88 74.65 118.28 66.37 126.65 61.64 C 130.80 59.30 135.10 58.74 139.70 57.90 Z" fill="#956340" />
<path d="M 57.74 72.74 C 56.98 75.70 55.69 78.57 55.16 81.58 C 56.94 82.68 58.87 83.50 60.63 84.62 C 61.51 88.71 59.75 92.94 56.56 95.56 C 52.58 99.03 46.61 99.69 41.67 98.30 C 37.21 96.91 33.04 92.92 33.11 87.98 C 33.11 83.35 35.72 78.63 38.30 74.92 C 40.48 78.61 41.39 82.87 43.61 86.49 C 46.43 87.23 50.50 86.94 52.03 84.04 C 54.14 80.37 55.39 76.30 57.74 72.74 Z" fill="#474c50" />
<path d="M 161.32 78.69 C 166.96 81.71 170.02 88.20 170.52 94.37 C 171.02 101.52 167.42 108.67 160.95 111.96 C 156.50 114.12 150.78 111.78 147.64 108.34 C 143.45 103.87 144.52 95.95 149.76 92.76 C 151.99 91.40 154.39 91.83 156.81 92.30 C 156.76 95.73 155.63 98.69 154.98 102.08 C 159.53 102.41 160.35 97.02 159.37 93.66 C 158.29 89.44 153.92 86.63 149.78 88.76 C 140.99 93.52 136.75 104.09 139.28 113.70 C 140.56 118.45 143.61 124.10 148.87 125.16 C 154.24 126.34 160.64 123.83 166.09 123.33 C 165.69 125.92 165.18 128.30 163.11 130.10 C 156.57 135.81 146.41 136.72 139.11 131.88 C 133.49 128.13 129.43 121.84 127.59 115.40 C 125.47 108.08 126.66 100.47 129.57 93.56 C 132.77 86.39 138.11 80.30 145.68 77.67 C 150.89 75.67 156.42 75.99 161.32 78.69 Z" fill="#94613d" />
<path d="M 173.06 77.92 C 179.13 85.37 180.95 96.47 179.82 105.78 C 179.01 112.32 177.21 118.23 174.16 124.08 C 170.44 131.28 168.44 138.44 163.50 144.48 C 161.60 146.99 159.04 149.30 157.63 152.12 C 157.84 153.18 158.23 154.22 158.62 155.22 C 156.16 153.44 153.55 151.80 150.95 150.23 C 158.95 145.14 164.79 137.98 168.03 129.05 C 170.09 122.58 174.41 117.59 175.94 110.93 C 177.57 104.22 178.44 96.77 177.08 89.94 C 176.31 85.80 174.70 81.79 173.06 77.92 Z" fill="#dddddd" />
<path d="M 65.97 98.72 C 69.75 98.68 70.99 103.17 72.93 105.70 C 74.56 103.43 75.98 100.98 77.41 98.58 C 81.01 106.21 83.59 114.17 86.09 122.21 C 87.41 126.71 89.26 131.01 91.37 135.19 C 87.45 137.65 84.00 136.84 79.68 136.67 C 79.13 139.40 79.13 142.54 78.22 145.19 C 77.31 147.70 75.36 150.05 72.68 150.71 C 70.10 151.30 67.52 150.10 66.03 147.98 C 62.70 143.20 62.15 136.29 65.24 131.26 C 66.48 128.74 69.99 128.25 72.30 126.92 L 72.41 125.65 C 72.26 121.98 71.71 118.23 71.02 114.63 C 68.86 115.19 66.67 116.25 64.44 116.42 C 60.28 115.86 57.89 110.87 58.05 107.06 C 58.39 102.80 61.04 98.13 65.97 98.72 Z" fill="#79a030" />
<path d="M 20.26 122.68 C 21.24 129.50 22.42 136.42 24.44 143.02 C 27.07 152.19 31.47 160.96 38.25 167.76 C 42.96 172.63 51.34 173.50 57.75 174.22 C 67.20 175.48 76.50 174.92 86.00 175.03 C 92.09 175.09 98.14 174.63 104.21 174.24 C 120.51 173.26 136.80 171.79 153.07 170.30 C 156.93 170.05 160.08 169.00 163.42 167.10 C 163.01 168.71 162.83 170.42 161.38 171.45 C 158.81 173.34 155.05 173.86 151.96 174.27 C 137.87 175.70 123.75 176.76 109.64 177.90 C 104.42 178.46 99.21 178.38 93.97 178.42 C 88.60 178.42 83.35 179.45 77.99 179.39 C 73.33 179.29 68.71 178.58 64.04 178.48 C 56.22 178.23 46.80 177.34 40.07 172.99 C 30.41 165.59 25.56 153.84 22.48 142.42 C 20.75 135.86 19.17 129.53 20.26 122.68 Z" fill="#d1d1d1" />
<path d="M 72.41 125.65 L 72.30 126.92 C 69.99 128.25 66.48 128.74 65.24 131.26 C 62.15 136.29 62.70 143.20 66.03 147.98 C 67.52 150.10 70.10 151.30 72.68 150.71 C 75.36 150.05 77.31 147.70 78.22 145.19 C 79.13 142.54 79.13 139.40 79.68 136.67 C 84.00 136.84 87.45 137.65 91.37 135.19 C 92.54 137.10 93.73 139.01 94.96 140.89 C 92.02 142.05 88.63 143.04 86.83 145.84 C 83.43 150.82 85.20 158.60 90.59 161.40 C 94.19 162.91 98.79 162.57 101.47 159.47 C 104.06 156.75 104.08 153.49 104.48 149.97 C 107.46 151.26 110.75 152.84 114.02 153.10 C 116.34 152.88 118.63 151.88 120.91 151.52 C 124.48 152.89 127.05 155.48 131.12 155.96 C 138.10 156.84 144.88 153.22 150.95 150.23 C 153.55 151.80 156.16 153.44 158.62 155.22 C 161.83 158.64 163.92 162.21 163.42 167.10 C 160.08 169.00 156.93 170.05 153.07 170.30 C 136.80 171.79 120.51 173.26 104.21 174.24 C 98.12 173.97 92.08 173.89 86.00 174.25 C 76.56 174.85 67.19 173.71 57.75 174.22 C 51.34 173.50 42.96 172.63 38.25 167.76 C 31.47 160.96 27.07 152.19 24.44 143.02 C 30.56 140.16 37.02 139.48 43.36 137.34 C 50.17 135.11 56.91 132.50 63.30 129.27 C 66.24 127.81 69.31 126.70 72.41 125.65 Z" fill="#95d82c" />
<path d="M 94.96 140.89 C 97.83 144.24 101.02 147.22 104.48 149.97 C 104.08 153.49 104.06 156.75 101.47 159.47 C 98.79 162.57 94.19 162.91 90.59 161.40 C 85.20 158.60 83.43 150.82 86.83 145.84 C 88.63 143.04 92.02 142.05 94.96 140.89 Z" fill="#779f2c" />
<path d="M 57.75 174.22 C 67.19 173.71 76.56 174.85 86.00 174.25 C 92.08 173.89 98.12 173.97 104.21 174.24 C 98.14 174.63 92.09 175.09 86.00 175.03 C 76.50 174.92 67.20 175.48 57.75 174.22 Z" fill="#8fb456" /></svg>