<?xml version="1.0" encoding="UTF-8" standalone="no"?>
<!DOCTYPE svg PUBLIC "-//W3C//DTD SVG 1.1//EN" "http://www.w3.org/Graphics/SVG/1.1/DTD/svg11.dtd">
<svg viewBox="0 0 192 192" height="192.0pt" width="192.0pt" xmlns="http://www.w3.org/2000/svg" version="1.1">
<path d="M 64.54 20.71 C 71.98 21.86 77.75 25.89 82.07 31.96 C 83.85 37.84 84.72 43.87 84.26 50.02 C 84.00 57.58 81.77 64.66 80.99 72.14 C 77.27 75.52 73.66 78.61 70.76 82.76 C 68.02 86.49 65.99 90.39 62.04 93.00 C 59.86 94.72 56.43 96.02 56.08 99.10 C 55.15 104.38 56.49 109.97 59.79 114.21 C 62.09 117.22 65.09 119.08 68.24 121.08 C 67.90 121.59 67.57 122.10 67.24 122.61 C 63.21 121.45 59.26 121.27 55.14 122.08 C 54.84 123.78 54.70 125.49 54.57 127.21 C 52.88 123.80 51.67 120.43 51.37 116.60 C 49.72 105.38 53.79 95.76 51.37 84.55 C 50.65 82.14 49.93 79.21 46.93 78.96 C 41.39 77.93 36.40 77.93 31.68 74.33 C 28.03 71.74 26.36 68.06 24.99 63.94 C 23.93 60.27 20.68 59.48 18.64 56.36 C 16.44 53.03 14.75 49.04 14.69 45.00 C 14.66 41.81 15.67 38.87 16.88 35.96 C 20.74 31.23 25.41 27.34 31.17 25.17 C 41.68 21.14 53.34 19.34 64.54 20.71 Z" fill="#8ac25a" />
<path d="M 49.37 27.40 C 55.23 26.54 60.37 31.40 60.83 37.11 C 61.31 42.68 56.53 47.84 50.96 47.88 C 45.54 47.99 40.59 43.59 40.87 38.00 C 40.52 32.85 44.44 28.37 49.37 27.40 Z" fill="#4b5053" />
<path d="M 30.68 30.04 C 29.86 33.84 29.10 37.90 27.36 41.39 C 24.51 43.55 20.45 44.38 16.98 44.96 C 17.89 41.51 19.40 37.56 22.09 35.10 C 24.62 32.98 27.70 31.44 30.68 30.04 Z" fill="#59723c" />
<path d="M 82.07 31.96 C 85.37 35.70 86.45 40.26 87.03 45.08 C 87.86 51.46 86.54 57.36 85.72 63.61 C 85.42 65.51 86.33 66.84 87.06 68.50 C 85.08 69.80 83.05 70.98 80.99 72.14 C 81.77 64.66 84.00 57.58 84.26 50.02 C 84.72 43.87 83.85 37.84 82.07 31.96 Z" fill="#e3e3e3" />
<path d="M 16.88 35.96 C 15.67 38.87 14.66 41.81 14.69 45.00 C 14.75 49.04 16.44 53.03 18.64 56.36 C 20.68 59.48 23.93 60.27 24.99 63.94 C 26.36 68.06 28.03 71.74 31.68 74.33 C 36.40 77.93 41.39 77.93 46.93 78.96 C 49.93 79.21 50.65 82.14 51.37 84.55 C 53.79 95.76 49.72 105.38 51.37 116.60 C 51.67 120.43 52.88 123.80 54.57 127.21 C 55.88 131.07 57.35 134.75 59.35 138.31 C 58.10 142.45 57.04 146.63 56.00 150.82 C 53.31 156.26 50.40 161.97 51.72 168.27 C 52.89 171.84 57.85 172.35 61.00 172.20 C 67.45 171.62 73.92 171.48 80.36 170.77 C 84.77 170.44 89.25 169.84 93.51 168.58 C 93.55 166.48 93.20 164.32 92.95 162.24 C 98.23 161.76 104.01 161.72 109.02 159.90 C 108.92 158.63 108.79 157.37 108.63 156.10 C 108.78 155.36 108.98 154.63 109.21 153.92 C 109.86 153.53 110.52 153.17 111.19 152.85 C 112.91 152.48 114.62 152.12 116.32 151.71 C 117.08 153.70 117.56 156.34 119.40 157.62 C 122.06 159.61 125.80 160.43 129.00 161.07 C 132.54 161.70 136.35 162.49 139.95 162.21 C 140.57 161.48 141.17 160.73 141.75 159.96 C 142.24 160.32 142.74 160.68 143.23 161.04 C 144.86 163.65 146.16 166.53 148.04 168.95 C 149.30 170.72 151.89 170.69 153.70 169.88 C 158.77 167.41 162.50 163.33 165.26 158.48 C 169.79 153.64 173.21 148.04 176.34 142.24 C 177.74 139.87 176.95 136.64 176.79 134.02 C 176.19 128.53 175.77 123.55 171.33 119.67 C 169.70 115.18 168.71 110.52 167.06 106.03 C 164.88 99.81 161.84 94.18 158.85 88.12 C 163.32 92.40 165.23 97.76 167.62 103.30 C 170.51 110.00 171.84 117.01 175.55 123.38 C 179.13 129.42 179.54 136.17 178.89 143.01 C 178.41 148.01 174.63 152.85 171.88 156.91 C 167.66 162.58 163.29 169.42 157.21 173.18 C 154.69 174.81 151.52 175.38 148.69 174.23 C 145.64 172.57 143.55 169.01 140.40 167.66 C 133.89 166.23 125.74 167.19 119.97 162.97 C 117.92 161.71 115.56 159.06 113.13 158.88 C 110.69 160.17 109.65 164.87 106.56 165.43 C 103.35 166.63 98.61 166.59 96.36 169.33 C 94.18 171.46 92.69 173.69 89.56 174.49 C 81.50 176.75 72.33 176.68 64.00 177.07 C 60.22 177.10 55.29 177.45 52.30 174.68 C 48.89 171.69 48.74 166.74 49.79 162.63 C 51.62 156.34 55.21 149.51 55.86 142.91 C 55.84 138.60 53.29 134.16 51.87 130.14 C 48.97 122.83 47.87 114.70 48.79 106.90 C 49.36 101.34 49.71 95.60 49.11 90.03 C 48.82 87.75 47.89 85.30 45.57 84.41 C 41.98 83.00 37.66 82.65 34.02 80.94 C 29.66 78.84 26.28 75.27 24.17 70.95 C 20.90 63.70 14.85 59.98 12.98 52.03 C 11.38 46.34 12.92 40.32 16.88 35.96 Z" fill="#dcdcdc" />
<path d="M 110.44 60.45 C 112.38 60.05 114.13 60.52 116.01 60.95 C 121.86 62.42 127.57 63.32 133.07 65.96 C 139.20 68.63 144.18 72.60 149.59 76.41 C 153.80 79.10 155.41 84.22 158.85 88.12 C 161.84 94.18 164.88 99.81 167.06 106.03 C 168.71 110.52 169.70 115.18 171.33 119.67 L 171.11 121.76 C 167.15 121.72 163.19 121.71 159.22 121.82 C 158.99 120.71 158.71 119.62 158.39 118.54 C 151.60 116.39 143.36 118.19 136.32 118.19 C 135.41 116.39 134.50 114.62 133.21 113.04 C 132.66 115.34 132.32 117.67 131.99 120.01 L 131.71 121.75 C 119.41 121.86 107.06 121.33 94.78 122.07 L 94.10 121.74 C 93.50 119.35 92.96 116.97 92.06 114.66 C 91.22 116.37 90.46 118.12 89.73 119.88 C 84.35 118.13 78.67 117.07 73.01 117.77 C 71.14 117.94 69.57 119.87 68.24 121.08 C 65.09 119.08 62.09 117.22 59.79 114.21 C 56.49 109.97 55.15 104.38 56.08 99.10 C 56.43 96.02 59.86 94.72 62.04 93.00 C 65.99 90.39 68.02 86.49 70.76 82.76 C 73.66 78.61 77.27 75.52 80.99 72.14 C 83.05 70.98 85.08 69.80 87.06 68.50 C 94.28 64.10 102.23 62.09 110.44 60.45 Z" fill="#c28a61" />
<path d="M 133.21 113.04 C 134.50 114.62 135.41 116.39 136.32 118.19 C 134.87 118.78 133.42 119.38 131.99 120.01 C 132.32 117.67 132.66 115.34 133.21 113.04 Z" fill="#af9327" />
<path d="M 92.06 114.66 C 92.96 116.97 93.50 119.35 94.10 121.74 C 92.65 121.12 91.19 120.51 89.73 119.88 C 90.46 118.12 91.22 116.37 92.06 114.66 Z" fill="#b19429" />
<path d="M 158.39 118.54 C 158.71 119.62 158.99 120.71 159.22 121.82 C 158.71 127.87 159.61 134.65 165.95 137.20 C 169.85 133.58 170.61 126.77 171.11 121.76 L 171.33 119.67 C 175.77 123.55 176.19 128.53 176.79 134.02 C 176.95 136.64 177.74 139.87 176.34 142.24 C 173.21 148.04 169.79 153.64 165.26 158.48 C 160.42 155.62 154.17 150.97 148.32 151.41 C 143.63 151.96 144.00 157.55 143.23 161.04 C 142.74 160.68 142.24 160.32 141.75 159.96 C 138.66 156.07 136.16 151.92 133.34 147.78 C 132.93 146.68 132.53 145.57 132.14 144.46 C 131.00 139.30 130.32 134.10 130.67 128.81 C 131.03 126.46 131.38 124.11 131.71 121.75 L 131.99 120.01 C 133.42 119.38 134.87 118.78 136.32 118.19 C 143.36 118.19 151.60 116.39 158.39 118.54 Z" fill="#83bf4f" />
<path d="M 73.01 117.77 C 78.67 117.07 84.35 118.13 89.73 119.88 C 91.19 120.51 92.65 121.12 94.10 121.74 L 94.78 122.07 C 96.90 123.76 98.93 125.52 100.81 127.47 C 98.63 127.77 96.65 127.62 94.70 128.79 C 93.64 133.76 93.76 138.99 93.17 144.05 C 93.04 145.34 92.91 146.63 92.79 147.93 C 92.24 152.70 92.10 157.48 92.95 162.24 C 93.20 164.32 93.55 166.48 93.51 168.58 C 89.25 169.84 84.77 170.44 80.36 170.77 C 77.14 170.01 73.98 169.95 70.69 169.98 C 71.18 167.45 72.37 165.54 71.03 163.02 C 69.04 158.78 66.34 154.27 62.54 151.42 C 60.49 149.83 58.35 150.62 56.00 150.82 C 57.04 146.63 58.10 142.45 59.35 138.31 C 61.53 132.78 64.08 127.65 67.24 122.61 C 67.57 122.10 67.90 121.59 68.24 121.08 C 69.57 119.87 71.14 117.94 73.01 117.77 Z" fill="#85c052" />
<path d="M 55.14 122.08 C 59.26 121.27 63.21 121.45 67.24 122.61 C 64.08 127.65 61.53 132.78 59.35 138.31 C 57.35 134.75 55.88 131.07 54.57 127.21 C 54.70 125.49 54.84 123.78 55.14 122.08 Z" fill="#ffda41" />
<path d="M 94.78 122.07 C 107.06 121.33 119.41 121.86 131.71 121.75 C 131.38 124.11 131.03 126.46 130.67 128.81 C 127.60 137.61 120.70 142.57 114.40 149.02 C 113.41 148.86 112.41 148.71 111.41 148.58 C 104.31 143.35 98.05 137.09 94.70 128.79 C 96.65 127.62 98.63 127.77 100.81 127.47 C 98.93 125.52 96.90 123.76 94.78 122.07 Z" fill="#ffd93d" />
<path d="M 159.22 121.82 C 163.19 121.71 167.15 121.72 171.11 121.76 C 170.61 126.77 169.85 133.58 165.95 137.20 C 159.61 134.65 158.71 127.87 159.22 121.82 Z" fill="#ffd93b" />
<path d="M 94.70 128.79 C 98.05 137.09 104.31 143.35 111.41 148.58 C 110.20 149.51 109.20 149.40 107.74 149.33 C 105.17 148.88 102.62 148.58 100.02 148.40 L 100.26 147.35 C 97.94 146.17 95.49 145.25 93.17 144.05 C 93.76 138.99 93.64 133.76 94.70 128.79 Z" fill="#b0931e" />
<path d="M 130.67 128.81 C 130.32 134.10 131.00 139.30 132.14 144.46 C 130.02 145.63 127.92 146.82 125.76 147.91 C 122.46 148.83 119.37 150.15 116.32 151.71 C 114.62 152.12 112.91 152.48 111.19 152.85 C 112.31 151.61 113.35 150.31 114.40 149.02 C 120.70 142.57 127.60 137.61 130.67 128.81 Z" fill="#af921b" />
<path d="M 93.17 144.05 C 95.49 145.25 97.94 146.17 100.26 147.35 L 100.02 148.40 C 97.61 148.26 95.20 148.09 92.79 147.93 C 92.91 146.63 93.04 145.34 93.17 144.05 Z" fill="#f8d33a" />
<path d="M 132.14 144.46 C 132.53 145.57 132.93 146.68 133.34 147.78 C 130.82 147.84 128.29 147.86 125.76 147.91 C 127.92 146.82 130.02 145.63 132.14 144.46 Z" fill="#f7d338" />
<path d="M 92.79 147.93 C 95.20 148.09 97.61 148.26 100.02 148.40 C 102.62 148.58 105.17 148.88 107.74 149.33 C 108.02 151.59 108.32 153.85 108.63 156.10 C 108.79 157.37 108.92 158.63 109.02 159.90 C 104.01 161.72 98.23 161.76 92.95 162.24 C 92.10 157.48 92.24 152.70 92.79 147.93 Z" fill="#658930" />
<path d="M 111.41 148.58 C 112.41 148.71 113.41 148.86 114.40 149.02 C 113.35 150.31 112.31 151.61 111.19 152.85 C 110.52 153.17 109.86 153.53 109.21 153.92 C 108.98 154.63 108.78 155.36 108.63 156.10 C 108.32 153.85 108.02 151.59 107.74 149.33 C 109.20 149.40 110.20 149.51 111.41 148.58 Z" fill="#c0bead" />
<path d="M 125.76 147.91 C 128.29 147.86 130.82 147.84 133.34 147.78 C 136.16 151.92 138.66 156.07 141.75 159.96 C 141.17 160.73 140.57 161.48 139.95 162.21 C 136.35 162.49 132.54 161.70 129.00 161.07 C 125.80 160.43 122.06 159.61 119.40 157.62 C 117.56 156.34 117.08 153.70 116.32 151.71 C 119.37 150.15 122.46 148.83 125.76 147.91 Z" fill="#64892f" />
<path d="M 62.54 151.42 C 66.34 154.27 69.04 158.78 71.03 163.02 C 72.37 165.54 71.18 167.45 70.69 169.98 C 73.98 169.95 77.14 170.01 80.36 170.77 C 73.92 171.48 67.45 171.62 61.00 172.20 C 57.85 172.35 52.89 171.84 51.72 168.27 C 50.40 161.97 53.31 156.26 56.00 150.82 C 58.35 150.62 60.49 149.83 62.54 151.42 Z" fill="#6fa141" />
<path d="M 148.32 151.41 C 154.17 150.97 160.42 155.62 165.26 158.48 C 162.50 163.33 158.77 167.41 153.70 169.88 C 151.89 170.69 149.30 170.72 148.04 168.95 C 146.16 166.53 144.86 163.65 143.23 161.04 C 144.00 157.55 143.63 151.96 148.32 151.41 Z" fill="#6ea03f" /></svg>