<?xml version="1.0" encoding="UTF-8" standalone="no"?>
<!DOCTYPE svg PUBLIC "-//W3C//DTD SVG 1.1//EN" "http://www.w3.org/Graphics/SVG/1.1/DTD/svg11.dtd">
<svg viewBox="0 0 192 192" height="192.0pt" width="192.0pt" xmlns="http://www.w3.org/2000/svg" version="1.1">
<path d="M 55.27 14.80 C 64.30 14.22 73.78 16.47 82.10 19.93 C 86.17 21.67 90.66 20.52 94.98 20.43 C 101.98 20.19 109.03 20.27 116.04 20.35 C 121.85 20.30 126.35 22.52 131.94 19.99 C 130.18 21.05 128.46 22.57 126.31 22.55 C 121.13 22.56 115.96 22.05 110.77 22.12 C 104.46 21.80 97.23 22.17 91.84 25.84 C 86.03 29.97 83.08 36.84 80.97 43.42 C 75.83 44.54 70.56 45.71 65.69 47.75 C 61.98 49.32 59.94 52.14 57.24 54.93 C 57.36 51.78 57.12 49.34 55.47 46.61 C 50.92 38.79 51.78 29.52 52.84 20.91 C 53.51 18.85 54.24 16.72 55.27 14.80 Z" fill="#f2a03b" />
<path d="M 156.19 14.40 C 157.16 15.90 158.12 17.39 159.02 18.94 C 159.82 25.54 161.01 33.07 159.57 39.61 C 158.46 44.99 154.45 47.94 154.69 53.68 C 148.10 46.81 139.90 45.33 130.98 43.41 C 128.98 37.69 126.75 32.00 122.32 27.66 C 119.14 24.53 114.98 23.25 110.77 22.12 C 115.96 22.05 121.13 22.56 126.31 22.55 C 128.46 22.57 130.18 21.05 131.94 19.99 C 139.20 14.83 147.65 15.11 156.19 14.40 Z" fill="#f29c33" />
<path d="M 159.02 18.94 C 163.31 25.09 163.25 32.46 162.53 39.63 C 161.96 44.84 158.63 49.64 158.44 54.79 C 159.23 58.41 162.16 61.71 163.98 64.92 C 167.15 70.13 168.91 76.23 169.60 82.26 C 170.30 88.88 168.21 94.54 166.96 100.94 C 166.02 105.84 164.71 110.64 163.47 115.47 C 161.57 122.97 162.69 130.46 161.07 138.12 C 159.85 143.83 157.73 149.60 154.34 154.39 C 151.36 158.55 147.18 160.26 143.53 163.55 C 139.86 166.92 138.25 172.48 133.72 174.71 C 128.15 177.61 121.12 177.60 114.99 178.02 C 106.64 178.64 98.32 178.32 89.98 177.74 C 85.70 177.41 81.24 176.68 77.51 174.42 C 74.51 172.63 72.81 168.88 70.81 166.10 C 67.36 160.88 61.54 159.29 58.02 154.05 C 55.82 151.03 54.47 146.86 51.68 144.39 C 47.92 142.18 43.33 141.62 39.48 139.50 C 32.79 135.77 26.62 130.42 23.99 123.02 C 20.43 113.59 21.70 104.01 24.82 94.67 C 27.10 87.25 31.40 79.68 32.25 72.00 C 33.01 64.85 28.88 59.67 27.88 52.95 C 27.40 49.99 28.56 47.55 30.01 45.08 C 30.10 47.74 29.96 50.67 30.93 53.17 C 32.33 56.89 34.42 60.01 35.11 64.04 C 35.94 69.26 34.41 74.25 32.59 79.08 C 29.06 88.27 24.59 98.09 24.31 108.04 C 24.31 114.54 26.22 121.53 30.35 126.65 C 33.69 130.76 38.43 132.89 43.08 135.15 C 43.00 136.34 42.93 137.53 42.86 138.72 C 44.50 137.93 46.49 136.13 48.40 136.65 C 50.28 137.00 52.67 137.39 54.13 138.71 C 55.18 140.16 55.89 141.90 56.62 143.53 C 57.84 146.46 59.04 149.40 61.19 151.79 C 63.39 154.24 66.06 155.69 68.93 157.19 C 70.37 158.06 72.69 158.90 73.34 160.57 C 74.65 163.67 75.34 167.08 76.20 170.33 C 80.23 172.10 83.95 173.88 88.38 174.44 C 93.82 175.11 99.39 174.53 104.87 175.10 C 105.50 175.61 106.12 176.14 106.74 176.67 C 107.06 174.97 107.41 173.28 107.77 171.59 C 115.80 172.62 124.90 173.45 132.29 169.43 C 133.01 169.07 133.73 168.71 134.44 168.33 C 134.86 168.94 135.27 169.56 135.69 170.17 C 137.12 166.51 137.58 160.07 141.36 158.09 C 144.43 156.56 147.36 155.28 149.91 152.90 C 152.81 150.25 154.39 146.65 155.93 143.11 C 160.06 133.37 159.61 123.83 159.47 113.52 C 161.23 109.09 163.12 104.80 163.90 100.05 C 164.65 96.08 166.08 92.38 167.48 88.62 C 167.54 82.98 166.59 77.28 165.22 71.82 C 163.41 64.79 159.02 59.33 154.69 53.68 C 154.45 47.94 158.46 44.99 159.57 39.61 C 161.01 33.07 159.82 25.54 159.02 18.94 Z" fill="#dfdfdf" />
<path d="M 52.84 20.91 C 51.78 29.52 50.92 38.79 55.47 46.61 C 57.12 49.34 57.36 51.78 57.24 54.93 C 56.63 55.56 56.03 56.20 55.43 56.83 C 54.54 53.74 53.52 50.71 52.11 47.81 C 51.05 45.60 49.92 43.44 48.84 41.25 C 50.69 34.40 50.21 27.58 52.84 20.91 Z" fill="#d4d4d4" />
<path d="M 110.77 22.12 C 114.98 23.25 119.14 24.53 122.32 27.66 C 126.75 32.00 128.98 37.69 130.98 43.41 C 128.04 43.04 124.94 42.29 121.98 42.51 C 119.28 43.25 116.74 44.81 114.18 45.96 C 111.64 44.95 108.75 43.68 106.00 43.63 C 103.28 43.76 100.45 44.96 97.94 45.95 C 95.35 44.79 92.77 43.18 90.04 42.46 C 87.05 42.24 83.93 43.00 80.97 43.42 C 83.08 36.84 86.03 29.97 91.84 25.84 C 97.23 22.17 104.46 21.80 110.77 22.12 Z" fill="#474c4f" />
<path d="M 59.46 23.26 C 64.31 22.47 69.75 24.32 74.39 25.68 C 71.57 28.17 68.77 30.44 66.49 33.47 C 64.08 36.69 62.22 40.45 60.23 43.95 C 58.71 40.38 57.22 37.10 57.33 33.11 C 57.44 29.77 58.07 26.32 59.46 23.26 Z" fill="#c06a1d" />
<path d="M 152.90 22.78 C 153.76 26.37 154.88 30.28 154.85 33.98 C 154.80 37.37 153.42 40.52 152.22 43.63 C 149.98 40.24 148.00 36.64 145.58 33.38 C 143.32 30.37 140.60 28.13 137.80 25.67 C 142.84 24.07 147.63 23.16 152.90 22.78 Z" fill="#bd6312" />
<path d="M 36.53 39.64 C 40.81 38.40 44.93 39.30 48.84 41.25 C 49.92 43.44 51.05 45.60 52.11 47.81 C 45.69 51.42 40.73 56.06 36.47 62.05 C 40.22 64.67 43.98 66.79 48.18 68.62 C 47.48 70.43 46.89 72.28 46.41 74.16 C 45.98 73.41 45.54 72.67 45.08 71.93 C 40.66 73.91 36.63 76.44 32.59 79.08 C 34.41 74.25 35.94 69.26 35.11 64.04 C 34.42 60.01 32.33 56.89 30.93 53.17 C 29.96 50.67 30.10 47.74 30.01 45.08 C 31.80 43.03 33.90 40.57 36.53 39.64 Z" fill="#da7e22" />
<path d="M 80.97 43.42 C 83.93 43.00 87.05 42.24 90.04 42.46 C 92.77 43.18 95.35 44.79 97.94 45.95 C 100.16 49.82 101.62 53.98 101.46 58.49 C 101.19 67.07 99.13 75.10 94.15 82.18 C 90.71 84.67 87.06 86.80 83.04 88.19 C 76.47 88.47 71.21 86.54 65.81 82.98 C 63.64 79.78 61.16 76.87 59.84 73.19 C 58.61 69.81 58.37 66.48 58.05 62.93 C 56.95 68.85 55.20 74.01 55.69 80.03 C 56.06 85.64 57.16 91.39 59.44 96.55 C 61.37 100.71 64.40 104.21 69.06 105.23 C 73.02 106.25 76.31 104.81 79.87 103.31 C 80.35 110.21 83.22 115.46 87.96 120.36 C 86.67 121.53 85.38 122.71 84.09 123.88 C 82.01 123.03 80.01 122.05 77.99 121.06 C 77.94 122.84 77.89 124.61 77.83 126.39 C 73.01 124.24 68.44 122.14 64.67 118.33 C 61.12 114.96 59.10 110.87 56.84 106.62 C 55.42 109.18 54.02 111.69 52.81 114.36 C 51.36 110.29 49.89 106.26 48.81 102.07 C 48.25 98.97 47.96 95.81 47.83 92.66 C 47.92 91.23 48.00 89.81 48.05 88.39 C 46.65 88.80 45.27 89.26 43.86 89.65 L 44.13 88.39 C 45.07 83.68 45.52 78.89 46.41 74.16 C 46.89 72.28 47.48 70.43 48.18 68.62 C 49.95 64.28 52.10 60.19 55.43 56.83 C 56.03 56.20 56.63 55.56 57.24 54.93 C 59.94 52.14 61.98 49.32 65.69 47.75 C 70.56 45.71 75.83 44.54 80.97 43.42 Z" fill="#ffe9be" />
<path d="M 121.98 42.51 C 124.94 42.29 128.04 43.04 130.98 43.41 C 139.90 45.33 148.10 46.81 154.69 53.68 C 159.02 59.33 163.41 64.79 165.22 71.82 C 166.59 77.28 167.54 82.98 167.48 88.62 C 166.35 88.06 165.21 87.51 164.08 86.96 C 164.08 91.31 164.22 95.71 163.90 100.05 C 163.12 104.80 161.23 109.09 159.47 113.52 C 157.96 111.31 156.57 109.03 155.06 106.82 C 152.93 110.79 151.14 114.67 147.91 117.91 C 144.05 122.06 139.24 124.30 134.10 126.44 C 133.93 124.77 133.76 123.11 133.61 121.44 C 130.36 122.96 127.05 124.22 123.58 125.12 C 123.93 122.01 123.74 118.63 124.63 115.62 C 126.41 113.46 129.01 111.99 130.72 109.79 C 131.90 107.99 132.14 105.48 132.47 103.39 C 135.89 104.81 139.16 106.20 142.95 105.27 C 146.73 104.47 149.73 101.95 151.64 98.66 C 154.75 93.42 155.85 86.66 156.54 80.68 C 157.26 75.00 155.40 69.96 154.58 64.00 C 153.89 67.11 153.30 70.31 152.25 73.31 C 150.89 77.06 148.49 79.82 146.31 83.08 C 143.26 84.87 140.14 86.69 136.65 87.44 C 133.73 88.04 130.71 88.24 127.75 88.62 C 124.19 85.99 120.32 83.81 116.82 81.10 C 112.82 73.19 110.22 64.95 110.85 55.98 C 111.11 52.34 112.51 49.14 114.18 45.96 C 116.74 44.81 119.28 43.25 121.98 42.51 Z" fill="#ffe8bc" />
<path d="M 106.00 43.63 C 108.75 43.68 111.64 44.95 114.18 45.96 C 112.51 49.14 111.11 52.34 110.85 55.98 C 110.22 64.95 112.82 73.19 116.82 81.10 C 117.25 82.95 117.65 84.81 118.08 86.66 C 110.07 85.59 101.69 85.68 93.67 86.62 C 93.82 85.14 93.97 83.66 94.15 82.18 C 99.13 75.10 101.19 67.07 101.46 58.49 C 101.62 53.98 100.16 49.82 97.94 45.95 C 100.45 44.96 103.28 43.76 106.00 43.63 Z" fill="#f29d36" />
<path d="M 52.11 47.81 C 53.52 50.71 54.54 53.74 55.43 56.83 C 52.10 60.19 49.95 64.28 48.18 68.62 C 43.98 66.79 40.22 64.67 36.47 62.05 C 40.73 56.06 45.69 51.42 52.11 47.81 Z" fill="#c06a1d" />
<path d="M 66.38 56.30 C 72.74 54.66 80.02 55.69 86.47 56.55 C 89.46 57.22 94.58 57.81 96.26 60.71 C 99.80 68.92 95.88 79.87 87.66 83.65 C 82.86 85.93 77.34 85.12 72.48 83.50 C 65.18 80.97 61.29 72.55 62.35 65.19 C 62.77 62.26 63.60 57.93 66.38 56.30 Z" fill="#474c4f" />
<path d="M 126.41 56.44 C 131.23 55.73 136.21 55.32 141.07 55.51 C 143.40 55.78 145.84 55.62 147.38 57.68 C 152.31 65.74 150.33 77.91 141.68 82.65 C 136.55 85.07 129.65 86.12 124.38 83.60 C 116.30 79.79 112.49 68.95 115.83 60.83 C 117.61 57.69 123.21 57.13 126.41 56.44 Z" fill="#43484c" />
<path d="M 78.80 58.30 C 77.71 60.10 76.32 62.06 75.81 64.11 C 75.19 67.85 77.51 71.66 81.00 73.06 C 84.44 74.63 88.84 72.69 90.45 69.38 C 91.92 66.79 91.16 63.01 91.26 60.11 C 93.90 65.13 93.78 71.41 89.44 75.43 C 83.72 80.28 74.75 79.67 69.34 74.66 C 65.33 70.73 65.32 63.25 68.88 59.05 C 71.73 57.86 75.70 58.56 78.80 58.30 Z" fill="#ffffff" />
<path d="M 130.81 58.56 C 129.64 60.95 128.11 63.04 128.32 65.83 C 128.48 69.18 130.56 72.16 133.79 73.21 C 138.74 75.12 144.49 70.08 144.09 65.01 C 143.94 62.66 142.61 60.30 141.82 58.09 C 146.63 61.99 147.29 69.58 143.21 74.20 C 138.40 79.22 130.37 80.19 124.40 76.67 C 119.62 73.89 117.79 66.96 119.98 62.04 C 122.22 59.33 127.56 59.26 130.81 58.56 Z" fill="#ffffff" />
<path d="M 58.05 62.93 C 58.37 66.48 58.61 69.81 59.84 73.19 C 61.16 76.87 63.64 79.78 65.81 82.98 C 67.13 86.03 68.50 90.69 71.56 92.41 C 74.60 93.50 78.28 93.14 81.47 93.28 C 80.55 96.57 79.99 99.89 79.87 103.31 C 76.31 104.81 73.02 106.25 69.06 105.23 C 64.40 104.21 61.37 100.71 59.44 96.55 C 57.16 91.39 56.06 85.64 55.69 80.03 C 55.20 74.01 56.95 68.85 58.05 62.93 Z" fill="#464b4f" />
<path d="M 154.58 64.00 C 155.40 69.96 157.26 75.00 156.54 80.68 C 155.85 86.66 154.75 93.42 151.64 98.66 C 149.73 101.95 146.73 104.47 142.95 105.27 C 139.16 106.20 135.89 104.81 132.47 103.39 C 132.09 99.80 131.24 96.42 129.91 93.07 C 133.29 93.08 137.26 93.62 140.50 92.49 C 143.64 90.85 145.01 86.14 146.31 83.08 C 148.49 79.82 150.89 77.06 152.25 73.31 C 153.30 70.31 153.89 67.11 154.58 64.00 Z" fill="#414549" />
<path d="M 45.08 71.93 C 45.54 72.67 45.98 73.41 46.41 74.16 C 45.52 78.89 45.07 83.68 44.13 88.39 C 39.47 85.76 36.12 83.10 32.59 79.08 C 36.63 76.44 40.66 73.91 45.08 71.93 Z" fill="#bf691b" />
<path d="M 32.59 79.08 C 36.12 83.10 39.47 85.76 44.13 88.39 L 43.86 89.65 C 38.89 90.76 33.78 91.20 28.78 92.16 C 29.04 94.47 29.06 97.04 29.88 99.23 C 31.00 101.57 33.14 103.53 34.86 105.43 C 32.09 107.51 29.31 109.57 26.51 111.61 C 28.93 115.45 31.76 117.97 35.59 120.35 C 34.76 122.38 33.92 124.41 33.08 126.44 C 36.58 126.93 40.08 127.37 43.59 127.72 C 43.41 130.20 43.23 132.67 43.08 135.15 C 38.43 132.89 33.69 130.76 30.35 126.65 C 26.22 121.53 24.31 114.54 24.31 108.04 C 24.59 98.09 29.06 88.27 32.59 79.08 Z" fill="#d97b1d" />
<path d="M 116.82 81.10 C 120.32 83.81 124.19 85.99 127.75 88.62 C 128.54 90.07 129.26 91.55 129.91 93.07 C 131.24 96.42 132.09 99.80 132.47 103.39 C 132.14 105.48 131.90 107.99 130.72 109.79 C 129.01 111.99 126.41 113.46 124.63 115.62 C 123.74 118.63 123.93 122.01 123.58 125.12 C 122.66 127.88 121.37 130.60 120.21 133.27 C 119.31 132.79 118.43 132.27 117.54 131.79 C 115.07 133.20 112.77 134.89 110.37 136.40 C 107.55 136.77 104.74 137.20 101.94 137.62 C 100.43 136.19 98.90 134.78 97.38 133.37 C 95.62 131.52 94.07 129.50 92.35 127.62 C 91.06 126.00 88.66 125.53 86.78 124.81 C 93.86 122.33 100.91 120.33 107.38 116.38 C 111.89 113.51 116.83 112.72 121.88 111.33 C 120.85 109.77 119.93 107.79 118.45 106.59 C 116.11 105.15 113.52 104.18 111.21 102.65 C 114.80 99.81 120.14 98.44 122.87 94.86 C 123.89 93.23 125.23 91.28 123.89 89.44 C 122.55 87.85 120.00 87.25 118.08 86.66 C 117.65 84.81 117.25 82.95 116.82 81.10 Z" fill="#f5f5f5" />
<path d="M 94.15 82.18 C 93.97 83.66 93.82 85.14 93.67 86.62 C 90.85 87.58 88.25 88.47 86.54 91.10 C 86.54 93.19 87.83 94.47 89.36 95.67 C 92.83 98.32 97.03 99.70 101.12 101.07 C 101.32 102.12 101.50 103.18 101.67 104.23 C 101.82 105.81 101.97 107.39 102.12 108.97 C 97.09 112.43 92.44 116.21 87.96 120.36 C 83.22 115.46 80.35 110.21 79.87 103.31 C 79.99 99.89 80.55 96.57 81.47 93.28 C 81.95 91.56 82.50 89.88 83.04 88.19 C 87.06 86.80 90.71 84.67 94.15 82.18 Z" fill="#f5f5f5" />
<path d="M 65.81 82.98 C 71.21 86.54 76.47 88.47 83.04 88.19 C 82.50 89.88 81.95 91.56 81.47 93.28 C 78.28 93.14 74.60 93.50 71.56 92.41 C 68.50 90.69 67.13 86.03 65.81 82.98 Z" fill="#f29e36" />
<path d="M 146.31 83.08 C 145.01 86.14 143.64 90.85 140.50 92.49 C 137.26 93.62 133.29 93.08 129.91 93.07 C 129.26 91.55 128.54 90.07 127.75 88.62 C 130.71 88.24 133.73 88.04 136.65 87.44 C 140.14 86.69 143.26 84.87 146.31 83.08 Z" fill="#f29b32" />
<path d="M 118.08 86.66 C 120.00 87.25 122.55 87.85 123.89 89.44 C 125.23 91.28 123.89 93.23 122.87 94.86 C 120.14 98.44 114.80 99.81 111.21 102.65 C 108.21 100.57 105.09 101.10 101.61 100.88 C 101.62 102.00 101.64 103.12 101.67 104.23 C 101.50 103.18 101.32 102.12 101.12 101.07 C 97.03 99.70 92.83 98.32 89.36 95.67 C 87.83 94.47 86.54 93.19 86.54 91.10 C 88.25 88.47 90.85 87.58 93.67 86.62 C 101.69 85.68 110.07 85.59 118.08 86.66 Z" fill="#977556" />
<path d="M 164.08 86.96 C 165.21 87.51 166.35 88.06 167.48 88.62 C 166.08 92.38 164.65 96.08 163.90 100.05 C 164.22 95.71 164.08 91.31 164.08 86.96 Z" fill="#d8cfc0" />
<path d="M 48.05 88.39 C 48.00 89.81 47.92 91.23 47.83 92.66 C 46.43 95.56 44.86 98.36 43.57 101.33 C 41.42 105.77 41.87 110.76 43.82 115.17 C 45.72 118.74 48.93 120.06 52.49 121.46 C 52.63 119.09 52.75 116.73 52.81 114.36 C 54.02 111.69 55.42 109.18 56.84 106.62 C 59.10 110.87 61.12 114.96 64.67 118.33 C 68.44 122.14 73.01 124.24 77.83 126.39 C 77.89 124.61 77.94 122.84 77.99 121.06 C 80.01 122.05 82.01 123.03 84.09 123.88 C 84.98 124.20 85.88 124.52 86.78 124.81 C 88.66 125.53 91.06 126.00 92.35 127.62 C 94.07 129.50 95.62 131.52 97.38 133.37 C 90.84 134.17 84.80 134.93 79.60 139.35 C 83.56 139.84 87.87 140.05 91.61 141.46 C 94.86 142.68 97.97 144.45 101.07 146.02 C 101.34 143.90 101.60 141.78 101.79 139.65 C 101.66 143.50 101.62 147.36 101.63 151.21 C 101.45 150.37 101.27 149.53 101.07 148.69 C 95.06 151.64 89.44 154.90 84.74 159.75 C 81.98 162.52 80.04 165.74 77.71 168.85 C 77.21 169.34 76.70 169.84 76.20 170.33 C 75.34 167.08 74.65 163.67 73.34 160.57 C 72.69 158.90 70.37 158.06 68.93 157.19 C 69.97 156.97 71.01 156.76 72.05 156.55 C 71.60 153.12 71.14 149.70 70.67 146.28 C 65.98 145.36 61.31 144.37 56.62 143.53 C 55.89 141.90 55.18 140.16 54.13 138.71 C 52.67 137.39 50.28 137.00 48.40 136.65 C 46.49 136.13 44.50 137.93 42.86 138.72 C 42.93 137.53 43.00 136.34 43.08 135.15 C 43.23 132.67 43.41 130.20 43.59 127.72 C 40.08 127.37 36.58 126.93 33.08 126.44 C 33.92 124.41 34.76 122.38 35.59 120.35 C 31.76 117.97 28.93 115.45 26.51 111.61 C 29.31 109.57 32.09 107.51 34.86 105.43 C 33.14 103.53 31.00 101.57 29.88 99.23 C 29.06 97.04 29.04 94.47 28.78 92.16 C 33.78 91.20 38.89 90.76 43.86 89.65 C 45.27 89.26 46.65 88.80 48.05 88.39 Z" fill="#be6413" />
<path d="M 47.83 92.66 C 47.96 95.81 48.25 98.97 48.81 102.07 C 47.07 101.75 45.33 101.55 43.57 101.33 C 44.86 98.36 46.43 95.56 47.83 92.66 Z" fill="#c2bdb8" />
<path d="M 48.81 102.07 C 49.89 106.26 51.36 110.29 52.81 114.36 C 52.75 116.73 52.63 119.09 52.49 121.46 C 48.93 120.06 45.72 118.74 43.82 115.17 C 41.87 110.76 41.42 105.77 43.57 101.33 C 45.33 101.55 47.07 101.75 48.81 102.07 Z" fill="#e4e4e4" />
<path d="M 101.61 100.88 C 105.09 101.10 108.21 100.57 111.21 102.65 C 113.52 104.18 116.11 105.15 118.45 106.59 C 119.93 107.79 120.85 109.77 121.88 111.33 C 116.83 112.72 111.89 113.51 107.38 116.38 C 100.91 120.33 93.86 122.33 86.78 124.81 C 85.88 124.52 84.98 124.20 84.09 123.88 C 85.38 122.71 86.67 121.53 87.96 120.36 C 92.44 116.21 97.09 112.43 102.12 108.97 C 101.97 107.39 101.82 105.81 101.67 104.23 C 101.64 103.12 101.62 102.00 101.61 100.88 Z" fill="#42474b" />
<path d="M 155.06 106.82 C 156.57 109.03 157.96 111.31 159.47 113.52 C 159.61 123.83 160.06 133.37 155.93 143.11 C 151.31 144.36 146.64 145.32 141.91 146.06 C 140.69 150.17 139.95 153.91 141.36 158.09 C 137.58 160.07 137.12 166.51 135.69 170.17 C 135.27 169.56 134.86 168.94 134.44 168.33 C 128.81 159.38 120.98 152.12 110.76 148.85 C 110.79 147.87 110.80 146.89 110.79 145.90 C 113.90 144.35 116.99 142.57 120.24 141.34 C 124.26 139.81 129.13 139.85 133.40 139.44 C 129.37 136.44 124.82 135.03 120.21 133.27 C 121.37 130.60 122.66 127.88 123.58 125.12 C 127.05 124.22 130.36 122.96 133.61 121.44 C 133.76 123.11 133.93 124.77 134.10 126.44 C 139.24 124.30 144.05 122.06 147.91 117.91 C 151.14 114.67 152.93 110.79 155.06 106.82 Z" fill="#bc600d" />
<path d="M 117.54 131.79 C 118.43 132.27 119.31 132.79 120.21 133.27 C 124.82 135.03 129.37 136.44 133.40 139.44 C 129.13 139.85 124.26 139.81 120.24 141.34 C 116.99 142.57 113.90 144.35 110.79 145.90 C 110.74 142.73 110.56 139.57 110.37 136.40 C 112.77 134.89 115.07 133.20 117.54 131.79 Z" fill="#f29a2f" />
<path d="M 97.38 133.37 C 98.90 134.78 100.43 136.19 101.94 137.62 L 101.79 139.65 C 101.60 141.78 101.34 143.90 101.07 146.02 C 97.97 144.45 94.86 142.68 91.61 141.46 C 87.87 140.05 83.56 139.84 79.60 139.35 C 84.80 134.93 90.84 134.17 97.38 133.37 Z" fill="#f29b31" />
<path d="M 110.37 136.40 C 110.56 139.57 110.74 142.73 110.79 145.90 C 110.80 146.89 110.79 147.87 110.76 148.85 C 110.47 156.50 109.03 163.85 108.15 171.42 C 116.57 171.89 124.27 172.75 132.29 169.43 C 124.90 173.45 115.80 172.62 107.77 171.59 C 107.41 173.28 107.06 174.97 106.74 176.67 C 106.12 176.14 105.50 175.61 104.87 175.10 C 104.72 173.93 104.56 172.75 104.38 171.58 C 103.17 164.82 101.98 158.09 101.63 151.21 C 101.62 147.36 101.66 143.50 101.79 139.65 L 101.94 137.62 C 104.74 137.20 107.55 136.77 110.37 136.40 Z" fill="#3f4448" />
<path d="M 56.62 143.53 C 61.31 144.37 65.98 145.36 70.67 146.28 C 71.14 149.70 71.60 153.12 72.05 156.55 C 71.01 156.76 69.97 156.97 68.93 157.19 C 66.06 155.69 63.39 154.24 61.19 151.79 C 59.04 149.40 57.84 146.46 56.62 143.53 Z" fill="#d87716" />
<path d="M 155.93 143.11 C 154.39 146.65 152.81 150.25 149.91 152.90 C 147.36 155.28 144.43 156.56 141.36 158.09 C 139.95 153.91 140.69 150.17 141.91 146.06 C 146.64 145.32 151.31 144.36 155.93 143.11 Z" fill="#d87512" />
<path d="M 101.07 148.69 C 101.27 149.53 101.45 150.37 101.63 151.21 C 101.98 158.09 103.17 164.82 104.38 171.58 C 98.45 172.38 92.97 173.28 87.00 172.10 C 83.67 171.49 80.83 170.08 77.71 168.85 C 80.04 165.74 81.98 162.52 84.74 159.75 C 89.44 154.90 95.06 151.64 101.07 148.69 Z" fill="#f29a2f" />
<path d="M 110.76 148.85 C 120.98 152.12 128.81 159.38 134.44 168.33 C 133.73 168.71 133.01 169.07 132.29 169.43 C 124.27 172.75 116.57 171.89 108.15 171.42 C 109.03 163.85 110.47 156.50 110.76 148.85 Z" fill="#f29a2e" />
<path d="M 77.71 168.85 C 80.83 170.08 83.67 171.49 87.00 172.10 C 92.97 173.28 98.45 172.38 104.38 171.58 C 104.56 172.75 104.72 173.93 104.87 175.10 C 99.39 174.53 93.82 175.11 88.38 174.44 C 83.95 173.88 80.23 172.10 76.20 170.33 C 76.70 169.84 77.21 169.34 77.71 168.85 Z" fill="#cacaca" /></svg>